<svg width="220" height="184" viewBox="0 0 220 184" fill="none" xmlns="http://www.w3.org/2000/svg">
<path d="M210.05 127.09C209.54 127.09 209.13 126.68 209.13 126.17V124.4H207.37C206.86 124.4 206.45 123.99 206.45 123.48C206.45 122.97 206.86 122.56 207.37 122.56H209.13V120.79C209.13 120.28 209.54 119.87 210.05 119.87C210.56 119.87 210.97 120.28 210.97 120.79V122.56H212.73C213.24 122.56 213.65 122.97 213.65 123.48C213.65 123.99 213.24 124.4 212.73 124.4H210.97V126.17C210.97 126.68 210.56 127.09 210.05 127.09Z" fill="#7E90B0"/>
<path d="M211.72 25.8C211.33 25.8 211.02 25.49 211.02 25.1V24.48C211.02 22.29 212.61 20.52 214.15 18.82C214.75 18.15 215.32 17.52 215.78 16.88C216.26 16.21 216.52 15.43 216.52 14.63C216.52 12.3 214.37 10.4 211.72 10.4C209.07 10.4 206.92 12.3 206.92 14.63C206.92 15.02 206.61 15.33 206.22 15.33C205.83 15.33 205.52 15.02 205.52 14.63C205.52 11.53 208.3 9 211.72 9C215.14 9 217.92 11.53 217.92 14.63C217.92 15.73 217.57 16.79 216.92 17.7C216.42 18.4 215.79 19.09 215.19 19.76C213.83 21.27 212.42 22.83 212.42 24.49V25.11C212.42 25.5 212.11 25.81 211.72 25.81V25.8ZM209.74 30.57C209.3 30.57 208.93 30.21 208.93 29.77C208.93 29.33 209.28 28.97 209.72 28.97H209.74C210.18 28.97 210.54 29.33 210.54 29.77C210.54 30.21 210.18 30.57 209.74 30.57Z" fill="#E56470"/>
<path d="M26.3802 59.5399L25.3502 58.3799V57.9599L26.3802 56.7999C26.8302 56.2999 26.8802 55.5899 26.5702 55.0299L25.8502 53.7799C25.6903 53.5018 25.4465 53.2814 25.1537 53.1502C24.8609 53.0191 24.5341 52.984 24.2202 53.0499L22.6802 53.3699C22.5702 53.2999 22.4602 53.2299 22.3402 53.1699L21.8402 51.6699C21.6302 51.0399 21.0502 50.6299 20.3902 50.6299H18.9402C18.2802 50.6299 17.7002 51.0599 17.4902 51.6599L16.9902 53.1699C16.8802 53.2299 16.7602 53.2999 16.6602 53.3699L15.1202 53.0499C14.4702 52.9099 13.8202 53.2299 13.4902 53.7799L12.7702 55.0399C12.4302 55.6099 12.5102 56.3299 12.9502 56.8199L13.9902 57.9899V58.4099L12.9502 59.5799C12.5002 60.0799 12.4502 60.7999 12.7602 61.3499L13.4802 62.5999C13.8102 63.1599 14.4502 63.4699 15.1102 63.3299L16.6502 63.0099C16.7602 63.0799 16.8702 63.1499 16.9902 63.2099L17.4902 64.7099C17.7002 65.3399 18.2802 65.7499 18.9402 65.7499H20.3902C21.0502 65.7499 21.6302 65.3199 21.8402 64.7199L22.3402 63.2099C22.4502 63.1499 22.5702 63.0799 22.6702 63.0099L24.2102 63.3299C24.8602 63.4699 25.5102 63.1499 25.8402 62.5999L26.5602 61.3499C26.8902 60.7799 26.8202 60.0599 26.3802 59.5799V59.5399ZM25.5302 60.7099L24.8102 61.9599C24.7302 62.0899 24.5802 62.1499 24.4602 62.1299L22.7002 61.7699C22.5402 61.7399 22.3602 61.7699 22.2302 61.8699C22.0302 62.0099 21.8202 62.1299 21.5902 62.2399C21.4402 62.3099 21.3302 62.4399 21.2702 62.5899L20.7002 64.2999C20.6779 64.3651 20.6363 64.4221 20.581 64.4631C20.5256 64.5042 20.4591 64.5275 20.3902 64.5299H18.9402C18.8002 64.5299 18.6702 64.4399 18.6302 64.2999L18.0602 62.5899C18.037 62.5167 17.9993 62.4489 17.9495 62.3906C17.8997 62.3322 17.8387 62.2843 17.7702 62.2499C17.5302 62.1199 17.3002 61.9999 17.1002 61.8599C16.9647 61.7704 16.7994 61.7381 16.6402 61.7699L14.8802 62.1299C14.8124 62.1435 14.7421 62.1353 14.6792 62.1066C14.6164 62.0779 14.5642 62.03 14.5302 61.9699L13.8102 60.7299C13.7775 60.6705 13.763 60.6029 13.7683 60.5354C13.7736 60.4679 13.7986 60.4034 13.8402 60.3499L15.0402 58.9999C15.1502 58.8799 15.2002 58.7199 15.1902 58.5599C15.1902 58.4199 15.1702 58.2999 15.1702 58.1699C15.1702 58.0399 15.1702 57.9199 15.1902 57.7799C15.1961 57.7002 15.1858 57.6202 15.1601 57.5446C15.1343 57.469 15.0935 57.3993 15.0402 57.3399L13.8402 55.9899C13.7502 55.8799 13.7302 55.7299 13.8002 55.6199L14.5202 54.3699C14.6002 54.2399 14.7502 54.1799 14.8702 54.1999L16.6302 54.5599C16.7902 54.5899 16.9702 54.5599 17.1002 54.4599C17.3002 54.3199 17.5102 54.1999 17.7402 54.0899C17.8902 54.0199 18.0002 53.8899 18.0602 53.7399L18.6302 52.0299C18.6524 51.9646 18.694 51.9077 18.7494 51.8666C18.8047 51.8255 18.8713 51.8023 18.9402 51.7999H20.3902C20.5302 51.7999 20.6602 51.8899 20.7002 52.0299L21.2702 53.7399C21.3202 53.8899 21.4202 54.0099 21.5602 54.0799C21.8002 54.2099 22.0302 54.3299 22.2302 54.4699C22.3602 54.5599 22.5302 54.5899 22.6902 54.5599L24.4502 54.1999C24.5802 54.1699 24.7202 54.2299 24.8002 54.3599L25.5202 55.5999C25.5902 55.7299 25.5702 55.8799 25.4902 55.9799L24.2902 57.3299C24.1802 57.4499 24.1302 57.6099 24.1402 57.7699C24.1402 57.9099 24.1602 58.0399 24.1602 58.1599C24.1602 58.2899 24.1602 58.4099 24.1402 58.5499C24.1302 58.7099 24.1802 58.8699 24.2902 58.9899L25.4902 60.3399C25.5802 60.4499 25.6002 60.5999 25.5302 60.7099Z" fill="#7E90B0" fill-opacity="0.6"/>
<path d="M19.6505 55.2402C18.0405 55.2402 16.7305 56.5502 16.7305 58.1602C16.7305 59.7702 18.0405 61.0802 19.6505 61.0802C21.2605 61.0802 22.5705 59.7702 22.5705 58.1602C22.5705 56.5502 21.2605 55.2402 19.6505 55.2402ZM19.6505 59.8802C19.1943 59.8802 18.7568 59.699 18.4342 59.3765C18.1117 59.0539 17.9305 58.6164 17.9305 58.1602C17.9305 57.7041 18.1117 57.2666 18.4342 56.944C18.7568 56.6214 19.1943 56.4402 19.6505 56.4402C20.1066 56.4402 20.5441 56.6214 20.8667 56.944C21.1893 57.2666 21.3705 57.7041 21.3705 58.1602C21.3705 58.6164 21.1893 59.0539 20.8667 59.3765C20.5441 59.699 20.1066 59.8802 19.6505 59.8802Z" fill="#7E90B0" fill-opacity="0.6"/>
<path d="M8.17 111.83C7.66 111.83 7.25 111.42 7.25 110.91V107.74C7.25 107.23 7.66 106.82 8.17 106.82C8.68 106.82 9.09 107.23 9.09 107.74V110.91C9.09 111.42 8.68 111.83 8.17 111.83ZM8.17 119.22C7.66 119.22 7.25 118.81 7.25 118.3V115.13C7.25 114.62 7.66 114.21 8.17 114.21C8.68 114.21 9.09 114.62 9.09 115.13V118.3C9.09 118.81 8.68 119.22 8.17 119.22ZM6.07 113.94H2.92C2.41 113.94 2 113.53 2 113.02C2 112.51 2.41 112.1 2.92 112.1H6.08C6.59 112.1 7 112.51 7 113.02C7 113.53 6.59 113.94 6.08 113.94H6.07ZM13.44 113.94H10.28C9.77 113.94 9.36 113.53 9.36 113.02C9.36 112.51 9.77 112.1 10.28 112.1H13.44C13.95 112.1 14.36 112.51 14.36 113.02C14.36 113.53 13.95 113.94 13.44 113.94Z" fill="#7E90B0"/>
<path d="M192.92 65.1298C191.789 65.1272 190.704 64.6765 189.904 63.8763C189.104 63.0761 188.653 61.9915 188.65 60.8598C188.653 59.7282 189.104 58.6436 189.904 57.8434C190.704 57.0432 191.789 56.5925 192.92 56.5898C194.052 56.5925 195.136 57.0432 195.937 57.8434C196.737 58.6436 197.188 59.7282 197.19 60.8598C197.188 61.9915 196.737 63.0761 195.937 63.8763C195.136 64.6765 194.052 65.1272 192.92 65.1298ZM192.92 58.4198C191.57 58.4198 190.48 59.5098 190.48 60.8598C190.48 62.2098 191.57 63.2998 192.92 63.2998C194.27 63.2998 195.36 62.2098 195.36 60.8598C195.36 59.5098 194.27 58.4198 192.92 58.4198ZM35.8702 163.84C35.492 163.84 35.1174 163.765 34.768 163.62C34.4185 163.476 34.101 163.263 33.8336 162.996C33.5661 162.728 33.354 162.411 33.2093 162.061C33.0646 161.712 32.9902 161.337 32.9902 160.959C32.9903 160.581 33.0649 160.206 33.2097 159.857C33.3545 159.507 33.5667 159.19 33.8343 158.922C34.1018 158.655 34.4194 158.443 34.7689 158.298C35.1184 158.153 35.493 158.079 35.8712 158.079C36.6352 158.079 37.3678 158.383 37.9079 158.923C38.448 159.463 38.7514 160.196 38.7512 160.96C38.7511 161.724 38.4475 162.456 37.9072 162.997C37.3669 163.537 36.6342 163.84 35.8702 163.84ZM35.8702 159.91C35.5918 159.91 35.3247 160.02 35.1278 160.217C34.9309 160.414 34.8202 160.681 34.8202 160.96C34.8202 161.238 34.9309 161.505 35.1278 161.702C35.3247 161.899 35.5918 162.01 35.8702 162.01C36.1487 162.01 36.4158 161.899 36.6127 161.702C36.8096 161.505 36.9202 161.238 36.9202 160.96C36.9202 160.681 36.8096 160.414 36.6127 160.217C36.4158 160.02 36.1487 159.91 35.8702 159.91Z" fill="#E56470"/>
<path d="M161.72 167.17H151.21C150.7 167.17 150.29 167.58 150.29 168.09C150.29 168.6 150.7 169.01 151.21 169.01H161.72C162.23 169.01 162.64 168.6 162.64 168.09C162.64 167.58 162.23 167.17 161.72 167.17ZM66.2298 167.17H60.1998C59.6898 167.17 59.2798 167.58 59.2798 168.09C59.2798 168.6 59.6898 169.01 60.1998 169.01H66.2298C66.7398 169.01 67.1498 168.6 67.1498 168.09C67.1498 167.58 66.7398 167.17 66.2298 167.17ZM170.3 167.17H167.05C166.54 167.17 166.13 167.58 166.13 168.09C166.13 168.6 166.54 169.01 167.05 169.01H170.3C170.81 169.01 171.22 168.6 171.22 168.09C171.22 167.58 170.81 167.17 170.3 167.17ZM178.71 33.7599C176.424 30.4891 173.581 27.6458 170.31 25.3599C161.48 19.1699 149.22 19.1699 124.79 19.1699H95.1898C70.7698 19.1699 58.5098 19.1699 49.6698 25.3599C46.399 27.6458 43.5557 30.4891 41.2698 33.7599C35.0898 42.5899 35.0898 54.8499 35.0898 79.2799C35.0898 103.71 35.0898 115.96 41.2698 124.8C43.5557 128.071 46.399 130.914 49.6698 133.2C58.4998 139.38 70.7598 139.38 95.1898 139.38H96.4198C99.3798 147.84 98.0798 157.83 93.1098 164.44L91.0498 167.17H80.7998C80.7998 167.17 80.7698 167.17 80.7498 167.18H72.9898C72.4898 167.18 72.0898 167.58 72.0898 168.08C72.0898 168.58 72.4898 168.98 72.9898 168.98H80.7098C80.7098 168.98 80.7698 169 80.7998 169H119.99C119.99 169 120.05 168.98 120.08 168.98H146.99C147.49 168.98 147.89 168.58 147.89 168.08C147.89 167.58 147.49 167.18 146.99 167.18H128.94L126.88 164.44C121.9 157.83 120.6 147.84 123.57 139.38H124.8C149.22 139.38 161.48 139.38 170.32 133.2C173.591 130.914 176.434 128.071 178.72 124.8C184.91 115.97 184.91 103.71 184.91 79.2799C184.91 54.8499 184.91 42.5999 178.72 33.7599H178.71ZM125.44 165.52L126.69 167.18H120.05C120.05 167.18 120.02 167.17 120 167.17H93.3198L94.5598 165.52C99.7698 158.6 101.22 148.25 98.3398 139.38H121.68C118.79 148.26 120.25 158.6 125.46 165.52H125.44ZM169.28 131.72C160.91 137.58 148.84 137.58 124.8 137.58H95.1998C71.1498 137.58 59.0798 137.58 50.7198 131.72C48.1898 129.95 45.9598 127.82 44.0298 125.42H175.97C174.05 127.82 171.82 129.94 169.28 131.72ZM177.33 123.62H42.7098C42.7098 123.62 42.6798 123.62 42.6598 123.63C36.8898 115.27 36.8898 103.2 36.8898 79.2799C36.8898 55.3599 36.8898 43.1599 42.7498 34.7999C44.9198 31.6899 47.5998 29.0199 50.7098 26.8399C59.0798 20.9799 71.1498 20.9799 95.1898 20.9799H124.79C148.83 20.9799 160.9 20.9799 169.27 26.8399C172.38 29.0099 175.05 31.6899 177.23 34.7999C183.09 43.1699 183.09 55.2399 183.09 79.2799C183.09 103.32 183.09 115.26 177.33 123.62Z" fill="#75A4FE"/>
<path d="M141.99 76.0896C141.99 59.5296 128.56 46.0996 112 46.0996C95.4398 46.0996 82.0098 59.5296 82.0098 76.0896C82.0098 92.6496 95.4398 106.08 112 106.08C128.56 106.08 141.99 92.6496 141.99 76.0896Z" fill="#949BBC" fill-opacity="0.18"/>
<path d="M102.99 81.9803C102.823 81.9807 102.659 81.9343 102.517 81.8465C102.374 81.7587 102.259 81.633 102.184 81.4833C102.11 81.3337 102.078 81.1661 102.093 80.9995C102.108 80.8329 102.17 80.6739 102.27 80.5403C103.165 79.3373 104.33 78.3612 105.671 77.6907C107.012 77.0203 108.491 76.6742 109.99 76.6803C113.06 76.6803 115.87 78.0903 117.71 80.5403C118.01 80.9403 117.93 81.5003 117.53 81.8003C117.13 82.1003 116.57 82.0203 116.27 81.6203C114.77 79.6203 112.48 78.4803 109.99 78.4803C107.5 78.4803 105.21 79.6203 103.71 81.6203C103.53 81.8603 103.26 81.9803 102.99 81.9803ZM116.99 68.8803H116.97C115.98 68.8803 115.17 68.0703 115.17 67.0803C115.17 66.0903 115.98 65.2803 116.97 65.2803C117.96 65.2803 118.78 66.0903 118.78 67.0803C118.78 68.0703 117.98 68.8803 116.99 68.8803ZM103.01 68.8803H102.99C102 68.8803 101.19 68.0703 101.19 67.0803C101.19 66.0903 102 65.2803 102.99 65.2803C103.98 65.2803 104.8 66.0903 104.8 67.0803C104.8 68.0703 104 68.8803 103.01 68.8803ZM133.629 96.4453L132.356 97.7173L141.358 106.719L142.63 105.446L133.629 96.4453Z" fill="#4E7FDB"/>
<path d="M141.8 114.6C141.227 114.028 140.772 113.348 140.462 112.6C140.152 111.852 139.992 111.05 139.992 110.24C139.992 109.43 140.152 108.628 140.462 107.88C140.772 107.132 141.227 106.452 141.8 105.88C142.372 105.307 143.052 104.852 143.8 104.542C144.548 104.232 145.35 104.072 146.16 104.072C146.97 104.072 147.772 104.232 148.52 104.542C149.268 104.852 149.948 105.307 150.52 105.88L163.19 118.55C163.763 119.122 164.217 119.802 164.528 120.55C164.838 121.298 164.997 122.1 164.997 122.91C164.997 123.72 164.838 124.522 164.528 125.27C164.217 126.018 163.763 126.698 163.19 127.27C162.618 127.843 161.938 128.298 161.19 128.608C160.442 128.918 159.64 129.078 158.83 129.078C158.02 129.078 157.218 128.918 156.47 128.608C155.722 128.298 155.042 127.843 154.47 127.27L141.8 114.6Z" fill="#7E90B0"/>
<path d="M109.99 106.98C91.8498 106.98 77.0898 92.2197 77.0898 74.0797C77.0898 55.9397 91.8498 41.1797 109.99 41.1797C128.13 41.1797 142.89 55.9397 142.89 74.0797C142.89 92.2197 128.13 106.98 109.99 106.98ZM109.99 42.9797C92.8398 42.9797 78.8898 56.9297 78.8898 74.0797C78.8898 91.2297 92.8398 105.18 109.99 105.18C127.14 105.18 141.09 91.2297 141.09 74.0797C141.09 56.9297 127.14 42.9797 109.99 42.9797Z" fill="#4E7FDB"/>
</svg>
