<svg xmlns="http://www.w3.org/2000/svg" viewBox="0 0 20 20">
  <path d="M10.18 12.48c-.22 0-.41-.14-.47-.34L8.02 7.08 7.41 8.9c-.07.2-.26.34-.47.34H5.5c-.28 0-.5-.22-.5-.5s.22-.5.5-.5h1.08l.97-2.9c.07-.2.26-.34.47-.34.22 0 .41.14.47.34l1.69 5.06.61-1.82c.07-.2.26-.34.47-.34h2.24c.28 0 .5.22.5.5s-.22.5-.5.5h-1.88l-.97 2.9c-.07.2-.26.34-.47.34Z"/>
  <path d="M10 18H6.5c-1.48 0-2.22 0-2.86-.33-.57-.29-1.02-.75-1.31-1.31C2 15.72 2 14.98 2 13.5v-7c0-1.48 0-2.22.33-2.86.29-.56.75-1.03 1.31-1.31C4.28 2 5.02 2 6.5 2h7c1.48 0 2.22 0 2.86.33.57.29 1.02.74 1.31 1.31.33.64.33 1.38.33 2.86V10c0 .28-.22.5-.5.5s-.5-.22-.5-.5V6.5c0-1.32 0-1.98-.22-2.41-.19-.37-.5-.68-.87-.87C15.48 3 14.82 3 13.5 3h-7c-1.32 0-1.98 0-2.41.22a2 2 0 0 0-.87.88C3 4.53 3 5.19 3 6.51v7c0 1.32 0 1.98.22 2.41.19.38.5.68.87.88.43.22 1.09.22 2.41.22H10c.28 0 .5.22.5.5s-.22.5-.5.5V18Z"/>
  <path d="M17.5 18a.47.47 0 0 1-.35-.15l-1.9-1.9-1.9 1.9c-.2.2-.51.2-.71 0-.2-.2-.2-.51 0-.71l1.9-1.9-1.9-1.9c-.2-.2-.2-.51 0-.71.2-.2.51-.2.71 0l1.9 1.9 1.9-1.9c.2-.2.51-.2.71 0 .2.2.2.51 0 .71l-1.9 1.9 1.9 1.9c.2.2.2.51 0 .71-.1.1-.23.15-.35.15h-.01Z"/>
</svg>
