<svg xmlns="http://www.w3.org/2000/svg" viewBox="0 0 20 20">
  <path d="M15.5 8.5h-.04l-3.08-3.41s-.03-.02-.04-.03c.04-.18.07-.37.07-.56a2.5 2.5 0 0 0-5 0c0 .25.05.49.12.72L4.56 8.51h-.04a2.5 2.5 0 0 0 0 5c.47 0 .91-.14 1.28-.36l1.77 1.87a2.5 2.5 0 1 0 4.95.5c0-.17-.02-.34-.05-.5l1.77-1.87c.38.23.81.37 1.28.37a2.5 2.5 0 0 0 0-5l-.02-.02ZM9.9 3c.83 0 1.5.67 1.5 1.5S10.73 6 9.9 6s-1.5-.67-1.5-1.5S9.07 3 9.9 3ZM3 11c0-.83.67-1.5 1.5-1.5S6 10.17 6 11s-.67 1.5-1.5 1.5S3 11.83 3 11Zm7 6c-.83 0-1.5-.67-1.5-1.5S9.17 14 10 14s1.5.67 1.5 1.5S10.83 17 10 17Zm0-4c-.82 0-1.55.4-2 1.02l-1.48-1.56c.3-.41.48-.91.48-1.46 0-.97-.56-1.8-1.36-2.21l2.39-2.65c.46.52 1.12.86 1.87.86.8 0 1.51-.39 1.97-.97l2.5 2.76A2.49 2.49 0 0 0 13.01 11c0 .55.18 1.05.48 1.46l-1.48 1.56c-.46-.61-1.18-1.02-2-1.02H10Zm5.5-.5c-.83 0-1.5-.67-1.5-1.5s.67-1.5 1.5-1.5 1.5.67 1.5 1.5-.67 1.5-1.5 1.5Z"/>
</svg>
