<svg xmlns="http://www.w3.org/2000/svg" viewBox="0 0 20 20">
  <path d="M17.26 11.15c-.29-.15-.59-.15-1.13-.15h-3.26c-.54 0-.84 0-1.13.15-.26.13-.46.33-.59.59-.15.29-.15.59-.15 1.13v3.26c0 .54 0 .84.15 1.13.13.26.34.46.59.59.29.15.59.15 1.13.15h3.26c.54 0 .84 0 1.13-.15.26-.13.46-.33.59-.59.15-.29.15-.59.15-1.13v-3.26c0-.54 0-.84-.15-1.13-.13-.26-.34-.46-.59-.59ZM17 16.13c0 .33 0 .6-.04.68a.41.41 0 0 1-.16.16c-.08.04-.34.04-.68.04h-3.26c-.33 0-.6 0-.68-.04a.354.354 0 0 1-.16-.16c-.04-.08-.04-.34-.04-.68v-3.26c0-.33 0-.6.04-.68a.41.41 0 0 1 .16-.16c.08-.04.34-.04.68-.04h3.26c.33 0 .6 0 .68.04.07.03.12.09.16.16.04.08.04.34.04.68v3.26Zm-8.74-4.98C7.97 11 7.67 11 7.13 11H3.87c-.54 0-.84 0-1.13.15-.26.13-.46.33-.59.59-.15.29-.15.59-.15 1.13v3.26c0 .54 0 .84.15 1.13.13.26.34.46.59.59.29.15.59.15 1.13.15h3.26c.54 0 .84 0 1.13-.15.26-.13.46-.33.59-.59.15-.29.15-.59.15-1.13v-3.26c0-.54 0-.84-.15-1.13-.13-.26-.34-.46-.59-.59ZM8 16.13c0 .33 0 .6-.04.68a.41.41 0 0 1-.16.16c-.08.04-.34.04-.68.04H3.87c-.33 0-.6 0-.68-.04a.354.354 0 0 1-.16-.16c-.04-.08-.04-.34-.04-.68v-3.26c0-.33 0-.6.04-.68a.41.41 0 0 1 .16-.16c.08-.04.34-.04.68-.04h3.26c.33 0 .6 0 .68.04.07.03.12.09.16.16.04.08.04.34.04.68v3.26H8Zm.26-13.98C7.97 2 7.67 2 7.13 2H3.87c-.54 0-.84 0-1.13.15-.26.13-.46.33-.59.59C2 3.03 2 3.33 2 3.87v3.26c0 .54 0 .84.15 1.13.13.26.34.46.59.59.29.15.59.15 1.13.15h3.26c.54 0 .84 0 1.13-.15.26-.13.46-.33.59-.59C9 7.97 9 7.67 9 7.13V3.87c0-.54 0-.84-.15-1.13-.13-.26-.34-.46-.59-.59ZM8 7.13c0 .33 0 .6-.04.68a.41.41 0 0 1-.16.16c-.08.04-.34.04-.68.04H3.87c-.33 0-.6 0-.68-.04a.354.354 0 0 1-.16-.16c-.04-.08-.04-.34-.04-.68V3.87c0-.33 0-.6.04-.68a.41.41 0 0 1 .16-.16c.08-.04.34-.04.68-.04h3.26c.33 0 .6 0 .68.04.07.03.12.09.16.16.04.08.04.34.04.68v3.26H8ZM11.5 6H14v2.5c0 .28.22.5.5.5s.5-.22.5-.5V6h2.5c.28 0 .5-.22.5-.5s-.22-.5-.5-.5H15V2.5c0-.28-.22-.5-.5-.5s-.5.22-.5.5V5h-2.5c-.28 0-.5.22-.5.5s.22.5.5.5Z"/>
</svg>
