<svg xmlns="http://www.w3.org/2000/svg" viewBox="0 0 20 20">
  <path d="M6.82 17.34h-.31c-.8-.06-1.48-.6-1.73-1.35-.02-.07-.04-.14-.08-.3l-1.18-4.72s0-.04-.01-.06c-.91-.71-1.5-1.82-1.5-3.06a3.87 3.87 0 0 1 3.87-3.89h2.81c.99 0 2.36-.46 3.96-1.33.84-.46 1.23-.68 1.63-.63.36.04.65.22.86.51.23.33.23.74.23 1.66v.57a3.12 3.12 0 0 1 0 6.16v.57c0 .92 0 1.34-.23 1.66-.21.3-.5.47-.86.51-.4.05-.79-.16-1.63-.62-1.44-.78-2.69-1.23-3.64-1.32v3.81c-.09.95-.85 1.71-1.8 1.8h-.38l-.01.03Zm0-1h.28c.48-.05.85-.42.9-.9v-3.72H5.88c-.41 0-.81-.07-1.19-.19l.98 3.91c.03.11.04.17.06.22.13.38.47.64.86.67h.23v.01ZM9 10.72c1.12.08 2.51.56 4.12 1.44.45.25.92.5 1.05.51.07 0 .11-.03.16-.1.05-.1.05-.58.05-1.08V4.18c0-.5 0-.98-.05-1.09-.04-.06-.08-.08-.17-.09-.12 0-.56.25-1.03.51-1.61.88-3 1.36-4.12 1.44v5.77H9ZM5.88 4.96a2.88 2.88 0 0 0 0 5.76H8V4.96H5.88Zm9.5 4.94C16.31 9.67 17 8.83 17 7.83c0-1-.69-1.84-1.62-2.07V9.9Z"/>
</svg>
