<svg xmlns="http://www.w3.org/2000/svg" viewBox="0 0 20 20">
  <path d="M11.88 18H8.12a.697.697 0 0 1-.65-.94l1.87-5.18A2.015 2.015 0 0 1 8.01 10c0-1.1.9-2 2-2s2 .9 2 2c0 .87-.56 1.61-1.33 1.88l1.87 5.18a.7.7 0 0 1-.09.64c-.13.19-.35.3-.57.3h-.01Zm-3.33-1h2.91l-1.45-4.03L8.56 17h-.01ZM10 9c-.55 0-1 .45-1 1s.45 1 1 1 1-.45 1-1-.45-1-1-1Zm6 6a.498.498 0 0 1-.4-.8c.92-1.22 1.4-2.67 1.4-4.2 0-3.86-3.14-7-7-7s-7 3.14-7 7c0 1.53.48 2.98 1.4 4.2.17.22.12.53-.1.7-.22.17-.53.12-.7-.1A7.896 7.896 0 0 1 2 10c0-4.41 3.59-8 8-8s8 3.59 8 8c0 1.75-.55 3.41-1.6 4.8-.1.13-.25.2-.4.2Zm-2.65-1.5a.46.46 0 0 1-.33-.13.504.504 0 0 1-.04-.71c.66-.73 1.02-1.68 1.02-2.67 0-2.21-1.79-4-4-4a3.999 3.999 0 0 0-2.98 6.67c.18.21.17.52-.04.71-.21.18-.52.17-.71-.04A5.002 5.002 0 0 1 10 5a5.002 5.002 0 0 1 3.73 8.33c-.1.11-.24.17-.37.17h-.01Z"/>
</svg>
