<svg xmlns="http://www.w3.org/2000/svg" viewBox="0 0 20 20">
  <path d="M4.73 13a.934.934 0 0 1-.56-.21.284.284 0 0 1-.1-.22v-.08l1.54-5.03c.04-.12.12-.21.25-.26a.99.99 0 0 1 .42-.09c.15 0 .3.03.42.09.13.06.21.15.25.26l1.54 5.03s.02.06.02.08c0 .08-.04.15-.11.22-.07.06-.15.11-.26.15-.1.04-.2.06-.3.06-.09 0-.16-.01-.22-.04s-.1-.09-.12-.17l-.3-1.06H5.36l-.3 1.06c-.02.08-.06.14-.13.17-.06.03-.14.04-.22.04h.02Zm2.26-2.09-.7-2.46-.7 2.46h1.4Zm2.6 2.01c-.11-.06-.16-.14-.16-.25v-5.2c0-.09.04-.16.11-.22s.17-.1.29-.1h1.6c.34 0 .65.06.92.18.28.12.5.31.66.58.16.26.24.61.24 1.05v.05c0 .44-.08.79-.25 1.06-.17.27-.39.46-.68.58-.28.12-.6.18-.95.18h-.9v1.86c0 .11-.05.19-.16.25-.11.05-.23.08-.36.08 0-.019-.176 0-.36-.1Zm.88-2.92h.9c.27 0 .47-.07.62-.22.15-.15.22-.39.22-.7v-.1c0-.31-.07-.54-.22-.69-.14-.15-.35-.23-.62-.23h-.9V10Zm4.28 3c-.13 0-.25-.03-.36-.08-.11-.06-.16-.14-.16-.25v-5.2c0-.11.05-.19.16-.24a.863.863 0 0 1 .72 0c.11.05.16.13.16.24v5.2c0 .11-.05.19-.16.25-.11.05-.23.08-.36.08Z"/>
  <path d="M16.5 16h-13c-.83 0-1.5-.67-1.5-1.5v-9C2 4.67 2.67 4 3.5 4h13c.83 0 1.5.67 1.5 1.5v9c0 .83-.67 1.5-1.5 1.5ZM3.5 5c-.28 0-.5.22-.5.5v9c0 .28.22.5.5.5h13c.28 0 .5-.22.5-.5v-9c0-.28-.22-.5-.5-.5h-13Z"/>
</svg>
