<svg xmlns="http://www.w3.org/2000/svg" viewBox="0 0 20 20">
  <path d="M13 8.68c-.28 0-.5.22-.5.5 0 .25 0 .51-.03.56-.02.05-.06.09-.11.11-.05.03-.31.03-.57.03h-3.6c-.25 0-.51 0-.56-.03a.198.198 0 0 1-.11-.11c-.03-.05-.03-.31-.03-.56 0-.28-.22-.5-.5-.5s-.5.22-.5.5c0 .48 0 .75.14 1.02.12.24.31.42.55.55.27.13.53.13 1.02.13h3.6c.48 0 .75 0 1.02-.14.24-.12.42-.31.55-.55.14-.27.14-.53.14-1.02 0-.28-.22-.5-.5-.5l-.01.01Z"/>
  <path d="M17.84 3.57c-.13-.2-.32-.36-.56-.47-.25-.1-.51-.1-.98-.1H3.7c-.47 0-.73 0-.98.1-.24.1-.43.26-.56.46-.16.25-.16.51-.16.91v1.1c0 .4 0 .66.16.91.13.21.32.37.56.46.13.05.25.08.41.09v5.87c0 1.34 0 2.01.3 2.6.27.52.68.94 1.2 1.2.59.3 1.26.3 2.6.3h5.55c1.34 0 2.01 0 2.6-.3.52-.27.94-.68 1.2-1.2.3-.59.3-1.26.3-2.6V7.03a1.235 1.235 0 0 0 .96-.55c.16-.25.16-.51.16-.91v-1.1c0-.39 0-.66-.16-.91v.01Zm-2.16 11.47c-.17.33-.44.6-.76.77-.37.19-.97.19-2.14.19H7.23c-1.18 0-1.77 0-2.14-.19-.33-.17-.6-.43-.76-.77-.19-.37-.19-.96-.19-2.14V7.05h11.75v5.85c0 1.18 0 1.77-.19 2.14h-.02ZM17 5.57v.38s-.03.04-.1.07c-.07.03-.3.03-.6.03H3.7c-.3 0-.53 0-.6-.03-.06-.02-.08-.05-.08-.05s-.01-.22-.01-.39V4.1s.03-.04.09-.07C3.17 4 3.4 4 3.7 4h12.6c.3 0 .53 0 .6.03.06.02.09.05.09.05s.01.22.01.39v1.1Z"/>
</svg>
