<svg xmlns="http://www.w3.org/2000/svg" viewBox="0 0 20 20">
  <path d="M17.51 17.995H3.84c-.53 0-.82 0-1.11-.15-.25-.13-.45-.33-.58-.58-.15-.29-.15-.58-.15-1.11V2.495c.01-.28.23-.5.51-.5s.5.22.5.5v13.67c0 .31 0 .58.04.65.03.06.08.11.15.15.07.04.34.04.65.04h13.67c.28 0 .5.22.5.5s-.22.5-.5.5l-.01-.01Zm.17-3H5.51c-.28 0-.5-.22-.5-.5v-3.39c0-.12 0-.21.02-.31.02-.09.05-.17.09-.25.05-.09.1-.16.18-.25l3.42-4.27c.17-.19.28-.3.44-.37.14-.07.3-.09.46-.08.16.01.29.07.42.14.01 0 .09.05.1.05l.09.06.08.07 2.57 2.28s.05.03.09.05c.02-.02.05-.05.08-.09l2.89-3.04c.52-.54.78-.81 1.15-.85.32-.04.64.09.85.34.25.28.25.66.25 1.41v8.5c0 .28-.22.5-.5.5h-.01Zm-11.67-1h11.17v-8c0-.35 0-.71-.03-.8 0 .08-.24.34-.48.59l-2.89 3.04c-.15.15-.25.27-.41.34a.82.82 0 0 1-.46.08.996.996 0 0 1-.42-.14.53.53 0 0 1-.1-.06c-.02 0-.05-.03-.08-.06l-.08-.07-2.57-2.28s-.05-.03-.09-.05c-.02.02-.05.05-.08.09l-3.4 4.24s-.06.07-.07.09v2.99h-.01Z"/>
</svg>
