<svg xmlns="http://www.w3.org/2000/svg" viewBox="0 0 20 20">
  <path d="M14.43 7.28 11.46 5.3c-.29-.19-.5-.33-.74-.31-.23.01-.44.13-.58.31-.16.21-.16.44-.16.79v3.95c0 .35 0 .58.16.79.14.18.35.3.58.31h.04c.24 0 .42-.12.7-.31l2.98-1.99c.23-.15.39-.26.48-.48a.78.78 0 0 0 0-.6c-.09-.22-.26-.33-.5-.49l.01.01Zm-3.44-1.09 2.83 1.89-2.83 1.89V6.19Z"/>
  <path d="M17.46 14.23c.14 0 .27-.06.36-.16.1-.09.16-.22.16-.37V4.9c0-.92 0-1.38-.22-1.81-.19-.38-.5-.68-.87-.87C16.46 2 16 2 15.08 2H7.09c-1.34 0-2.01 0-2.6.3-.51.27-.93.68-1.19 1.2C3 4.09 3 4.76 3 6.1v9.52C3 16.93 4.07 18 5.38 18h12.07c.28 0 .5-.22.5-.5s-.22-.5-.5-.5c-.76 0-1.38-.62-1.38-1.39 0-.77.62-1.38 1.38-1.38h.01ZM4 6.1c0-1.18 0-1.77.19-2.14.17-.33.43-.6.76-.76.23-.11.55-.16 1.01-.18v10.22h-.58c-.52 0-.99.17-1.39.45V6.11L4 6.1ZM5.39 17c-.76 0-1.38-.62-1.38-1.39 0-.77.62-1.38 1.38-1.38h10.14c-.28.39-.45.87-.45 1.38 0 .51.17.99.45 1.39H5.39Zm1.58-3.77V3h8.12c.74 0 1.14 0 1.35.11.19.1.34.25.44.44.11.21.11.62.11 1.35v8.33H6.97Z"/>
</svg>
