<svg xmlns="http://www.w3.org/2000/svg" viewBox="0 0 20 20">
  <path d="M16.934 18H3.065c-.28 0-.5-.22-.5-.5 0-.25.18-.45.42-.49V10.5c0-.53 0-.82.15-1.11.13-.25.33-.45.58-.58.29-.14.58-.14 1.11-.14h2.55v-1.5c0-.53 0-.82.14-1.1.13-.25.33-.46.58-.58.29-.15.58-.15 1.11-.15h2.33v-1.5c0-.53 0-.82.15-1.11.13-.25.33-.45.58-.58.29-.15.58-.15 1.11-.15h1.78c.53 0 .82 0 1.1.15.25.13.46.33.58.58.14.28.14.57.14 1.1V17a.501.501 0 0 1-.04 1Zm-.96-1V3.83c0-.31 0-.58-.04-.65a.36.36 0 0 0-.15-.15c-.07-.04-.33-.04-.65-.04h-1.78c-.31 0-.58 0-.65.04a.36.36 0 0 0-.15.15c-.04.07-.04.34-.04.65V17h3.46Zm-7.61 0h3.17V6.33h-2.33c-.31 0-.58 0-.65.04a.36.36 0 0 0-.15.15c-.04.07-.04.33-.04.65V17Zm-4.38 0h3.39V9.67h-2.55c-.32 0-.58 0-.65.04-.06.03-.11.08-.14.15-.04.07-.04.34-.04.65v6.5l-.01-.01Z"/>
</svg>
