<svg xmlns="http://www.w3.org/2000/svg" viewBox="0 0 20 20">
  <path d="M2.5 17.435c-.28 0-.5-.22-.5-.5V3.065c0-.28.22-.5.5-.5s.48.2.5.46h13.17c.53 0 .82 0 1.1.15.25.12.46.33.58.58.14.28.14.57.14 1.1v1.78c0 .53 0 .82-.15 1.11-.13.25-.33.46-.58.58-.29.15-.58.15-1.11.15h-1.5v2.33c0 .53 0 .82-.15 1.11-.13.25-.33.45-.58.58-.29.15-.58.15-1.11.15h-1.5v2.55c0 .53 0 .82-.15 1.11-.13.25-.33.45-.58.58-.29.15-.58.15-1.11.15H2.99c-.04.24-.25.42-.49.42v-.02Zm.5-1.41h6.5c.31 0 .58 0 .65-.04a.36.36 0 0 0 .15-.15c.04-.07.04-.34.04-.65v-2.55H3v3.39Zm7.83-4.39h2c.31 0 .58 0 .65-.04a.36.36 0 0 0 .15-.15c.04-.07.04-.34.04-.65v-2.33H3v3.17h7.83ZM3 7.465h13.17c.32 0 .58 0 .65-.04a.36.36 0 0 0 .15-.15c.04-.07.04-.33.04-.65v-1.78c0-.31 0-.58-.04-.65a.4.4 0 0 0-.14-.15c-.07-.04-.33-.04-.65-.04H3v3.46Z"/>
</svg>
