<svg xmlns="http://www.w3.org/2000/svg" viewBox="0 0 20 20">
  <path d="M3.6 2C2.72 2 2 2.72 2 3.6c0 .88.72 1.6 1.6 1.6.88 0 1.6-.72 1.6-1.6 0-.88-.72-1.6-1.6-1.6ZM10 5.2A1.6 1.6 0 1 0 10 2a1.6 1.6 0 0 0 0 3.2Zm6.4 0c.88 0 1.6-.72 1.6-1.6 0-.88-.72-1.6-1.6-1.6-.88 0-1.6.72-1.6 1.6 0 .88.72 1.6 1.6 1.6ZM3.6 8.4C2.72 8.4 2 9.12 2 10c0 .88.72 1.6 1.6 1.6.88 0 1.6-.72 1.6-1.6 0-.88-.72-1.6-1.6-1.6Zm6.4 0c-.88 0-1.6.72-1.6 1.6 0 .88.72 1.6 1.6 1.6.88 0 1.6-.72 1.6-1.6 0-.88-.72-1.6-1.6-1.6Zm6.4 0c-.88 0-1.6.72-1.6 1.6 0 .88.72 1.6 1.6 1.6.88 0 1.6-.72 1.6-1.6 0-.88-.72-1.6-1.6-1.6ZM3.6 14.8c-.88 0-1.6.72-1.6 1.6 0 .88.72 1.6 1.6 1.6.88 0 1.6-.72 1.6-1.6 0-.88-.72-1.6-1.6-1.6Zm6.4 0c-.88 0-1.6.72-1.6 1.6 0 .88.72 1.6 1.6 1.6.88 0 1.6-.72 1.6-1.6 0-.88-.72-1.6-1.6-1.6Zm6.4 0c-.88 0-1.6.72-1.6 1.6 0 .88.72 1.6 1.6 1.6.88 0 1.6-.72 1.6-1.6 0-.88-.72-1.6-1.6-1.6Z"/>
</svg>
