<svg xmlns="http://www.w3.org/2000/svg" viewBox="0 0 20 20">
  <path d="M11.48 18a.488.488 0 0 1-.44-.72c.5-1 .91-2.06 1.22-3.14a.49.49 0 0 1 .62-.34c.27.08.42.35.34.62a18.86 18.86 0 0 1-1.29 3.32c-.09.17-.26.28-.45.28V18Zm-3.73-.23a.47.47 0 0 1-.27-.08.513.513 0 0 1-.16-.69 14.64 14.64 0 0 0 2.24-7.78c0-.28.22-.5.5-.5s.5.22.5.5c0 2.95-.83 5.83-2.39 8.31-.1.15-.26.23-.42.23v.01Zm-2.89-1.76c-.08 0-.16-.02-.24-.07-.23-.14-.33-.41-.19-.65l.05-.08C5.6 13.42 6.2 11.35 6.2 9.22c0-2.13 1.73-3.86 3.86-3.86s3.86 1.73 3.86 3.86c0 .87-.06 1.74-.18 2.59a.51.51 0 0 1-.56.43.51.51 0 0 1-.43-.56c.11-.81.17-1.63.17-2.45a2.86 2.86 0 1 0-5.72 0c0 2.32-.65 4.57-1.87 6.52-.1.16-.29.26-.47.26Zm11.1-.29s-.09 0-.14-.02a.493.493 0 0 1-.34-.62c.54-1.9.81-3.87.81-5.86 0-3.43-2.79-6.23-6.23-6.23-1.09 0-2.17.29-3.11.83-.24.14-.55.06-.68-.18a.493.493 0 0 1 .18-.68c1.09-.63 2.34-.97 3.61-.97 3.98 0 7.23 3.24 7.23 7.23 0 2.08-.29 4.15-.85 6.13-.06.22-.26.36-.48.36v.01ZM2.5 13.39a.5.5 0 0 1-.45-.72c.52-1.08.79-2.24.79-3.45 0-1.27.33-2.52.97-3.61.14-.24.44-.32.68-.18.24.14.32.44.18.68-.54.94-.83 2.02-.83 3.11 0 1.36-.3 2.67-.89 3.89-.09.18-.26.28-.45.28Z"/>
</svg>
