<svg xmlns="http://www.w3.org/2000/svg" viewBox="0 0 20 20">
  <path d="M8.02 6.5c0-.28-.22-.5-.5-.5h-2c-.28 0-.5.22-.5.5s.22.5.5.5h2c.28 0 .5-.22.5-.5Z"/>
  <path d="M10.5 17h-4c-.71 0-1.21 0-1.6-.03-.39-.03-.62-.09-.81-.19-.38-.19-.68-.5-.87-.87-.09-.19-.15-.42-.19-.81C3 14.71 3 14.21 3 13.5v-7c0-.71 0-1.21.03-1.6.03-.39.09-.62.19-.81.19-.38.5-.68.87-.87.19-.09.42-.15.81-.19C5.29 3 5.79 3 6.5 3h5c.71 0 1.21 0 1.6.03.39.03.62.09.81.19.38.19.68.5.87.87.11.21.17.47.19.94.02.28.25.49.53.47.28-.02.49-.25.47-.53-.03-.51-.1-.94-.3-1.33-.29-.56-.75-1.02-1.31-1.31-.35-.18-.73-.25-1.18-.29C12.74 2 12.2 2 11.52 2H6.47c-.68 0-1.22 0-1.66.04-.45.04-.83.11-1.18.29-.56.29-1.02.75-1.31 1.31-.18.35-.25.73-.29 1.18C2 5.25 2 5.8 2 6.48v7.04c0 .68 0 1.22.03 1.66.04.45.11.83.29 1.18.29.56.75 1.02 1.31 1.31.35.18.73.25 1.18.29.44.04.98.04 1.66.04h4.02c.28 0 .5-.22.5-.5s-.22-.5-.5-.5h.01Z"/>
  <path d="M5.52 9.97c-.28 0-.5.22-.5.5s.22.5.5.5h1.69c.28 0 .5-.22.5-.5s-.22-.5-.5-.5H5.52Zm12.24 5.34-4.27-7.38c0-.01-.01-.03-.02-.04-.06-.12-.14-.26-.24-.37-.09-.1-.18-.18-.28-.24-.13-.09-.28-.15-.42-.2-.01 0-.02 0-.03-.01l-1.44-.56a.497.497 0 0 0-.53.11h-.01c-.08.09-.12.18-.14.29l-.23 1.53c-.04.22-.04.35-.04.46 0 .16.04.3.06.37v.01c0 .01 0 .03.01.04.05.14.12.25.21.41l4.26 7.38c.49.86 1.59 1.15 2.45.66.86-.49 1.15-1.59.66-2.45v-.01Zm-1.16 1.58c-.38.22-.87.09-1.08-.29l-4.26-7.39c-.09-.15-.12-.2-.13-.23 0-.03-.01-.04-.02-.06v-.14c0-.04 0-.09.02-.17l.14-.94.88.34c.2.07.22.08.23.09h.01l.08.08c0 .01.02.02.03.03l.01.02c.02.03.04.07.07.13 0 .01.01.03.02.04v.02l4.28 7.38c.22.38.08.87-.29 1.08l.01.01Z"/>
</svg>
