<svg xmlns="http://www.w3.org/2000/svg" viewBox="0 0 20 20">
  <g clip-path="url(#bluetooth__a)">
    <path d="M10 18c-.07 0-.14-.02-.21-.05a.493.493 0 0 1-.29-.45v-6.43l-3.68 3.07c-.21.18-.53.15-.7-.06a.493.493 0 0 1 .06-.7l4.04-3.37-4.04-3.38a.494.494 0 0 1-.06-.7c.18-.21.49-.24.7-.06L9.5 8.94V2.5c0-.19.11-.37.29-.45.18-.08.38-.05.53.07l4.5 3.75c.11.1.18.24.18.38s-.07.29-.18.38L10.78 10l4.04 3.37c.11.1.18.24.18.38s-.07.29-.18.38l-4.5 3.75A.49.49 0 0 1 10 18Zm.5-6.93v5.37l3.22-2.68-3.22-2.68v-.01Zm0-7.5v5.37l3.22-2.68-3.22-2.68v-.01Z"/>
  </g>
  <defs>
    <clipPath id="bluetooth__a">
      <path d="M5 2h10v16H5z"/>
    </clipPath>
  </defs>
</svg>
