<svg xmlns="http://www.w3.org/2000/svg" viewBox="0 0 20 20">
  <path d="M9.76 16.33c-.27 0-.54-.12-.72-.35-.25-.31-.28-.33-.52-.5-.26-.18-.55-.31-.87-.39C7.28 15 6.83 15 5.94 15H4.91c-.91 0-1.36 0-1.78-.18-.38-.16-.69-.42-.89-.75C2 13.68 2 13.26 2 12.49V6.5c0-.77 0-1.19.24-1.58.2-.33.51-.58.89-.75.41-.18.87-.18 1.78-.18h.3c1.75 0 2.62 0 3.36.31.6.26 1.1.65 1.44 1.14.34-.49.84-.88 1.44-1.14.74-.31 1.61-.31 3.36-.31h.3c.91 0 1.36 0 1.78.18.38.16.69.42.89.75.24.39.24.81.24 1.58v6c0 .77 0 1.19-.24 1.58-.2.33-.51.58-.89.75-.42.18-.87.18-1.78.18h-1.03c-.9 0-1.35 0-1.71.09-.32.08-.61.21-.87.39-.24.17-.27.18-.52.5-.24.3-.62.41-.96.32-.08.02-.16.03-.24.03l-.02-.01Zm.74-1.34c.12-.12.23-.2.42-.33.36-.24.76-.42 1.19-.53.49-.12.98-.12 1.96-.12h1.03c.75 0 1.16 0 1.39-.1.18-.08.33-.2.42-.35.09-.15.09-.49.09-1.06v-6c0-.57 0-.91-.09-1.06a.914.914 0 0 0-.42-.35c-.23-.1-.64-.1-1.39-.1h-.3c-1.61 0-2.42 0-2.97.23-.46.2-.85.52-1.08.89-.25.41-.25 1.07-.25 2.37v6.51ZM4.9 5c-.75 0-1.16 0-1.39.1-.19.08-.34.2-.42.35C3 5.6 3 5.94 3 6.51v6c0 .57 0 .91.09 1.06.09.15.24.27.43.35.23.1.64.1 1.39.1h1.03c.98 0 1.47 0 1.96.12.44.11.84.29 1.19.53.19.13.3.21.42.33V8.51c0-1.3 0-1.96-.25-2.37-.23-.38-.62-.7-1.08-.89-.55-.23-1.36-.23-2.97-.23h-.3L4.9 5Z"/>
</svg>
