<svg xmlns="http://www.w3.org/2000/svg" viewBox="0 0 20 20">
  <path d="M15.834 18c-.09 0-.17-.02-.25-.07l-5.59-3.19-5.58 3.19c-.15.09-.35.09-.5 0a.504.504 0 0 1-.25-.43v-11c0-1.48 0-2.22.33-2.86.29-.57.74-1.02 1.31-1.31C5.944 2 6.684 2 8.164 2h3.67c1.48 0 2.22 0 2.86.33.57.29 1.02.75 1.31 1.31.33.64.33 1.38.33 2.86v11c0 .18-.09.34-.25.43-.08.04-.16.07-.25.07Zm-5.84-4.33c.09 0 .17.02.25.07l5.09 2.91V6.5c0-1.32 0-1.98-.22-2.41-.19-.38-.5-.68-.87-.88-.43-.22-1.09-.22-2.41-.22h-3.67c-1.32 0-1.98 0-2.41.22-.38.19-.68.5-.87.87-.22.43-.22 1.09-.22 2.41v10.14l5.08-2.91c.08-.04.16-.07.25-.07v.02Zm-.83-2.75a.47.47 0 0 1-.35-.15L7.144 9.1c-.2-.2-.2-.51 0-.71.2-.2.51-.2.71 0l1.31 1.31 3.4-3.4c.2-.2.51-.2.71 0 .2.2.2.51 0 .71l-3.75 3.75a.51.51 0 0 1-.35.15l-.01.01Z"/>
</svg>
