<svg xmlns="http://www.w3.org/2000/svg" viewBox="0 0 20 20">
  <path d="M16.46 17c-.76 0-1.38-.62-1.38-1.39 0-.77.62-1.38 1.38-1.38.28 0 .5-.22.5-.5V4.9c0-.92 0-1.38-.22-1.81-.19-.38-.49-.68-.87-.87C15.44 2 14.98 2 14.06 2H7.1c-1.34 0-2.01 0-2.6.3-.52.27-.94.68-1.2 1.2C3 4.09 3 4.76 3 6.1v9.52C3 16.93 4.07 18 5.38 18h11.07c.28 0 .5-.22.5-.5s-.22-.5-.5-.5h.01ZM6.97 3h7.09c.74 0 1.14 0 1.35.11.19.1.34.25.44.44.11.21.11.62.11 1.35v8.33H6.97V3ZM4 6.1c0-1.18 0-1.77.19-2.14.17-.33.43-.6.76-.76.23-.11.55-.16 1.01-.18v10.22h-.59c-.52 0-.99.17-1.39.45V6.11L4 6.1ZM5.39 17c-.76 0-1.38-.62-1.38-1.39 0-.77.62-1.38 1.38-1.38h9.14c-.28.39-.45.87-.45 1.38 0 .51.17.99.45 1.39H5.39Z"/>
  <path d="M13.2 5H9.58c-.28 0-.5.22-.5.5s.22.5.5.5h3.62c.28 0 .5-.22.5-.5s-.22-.5-.5-.5Zm-1.25 3.06H9.58c-.28 0-.5.22-.5.5s.22.5.5.5h2.37c.28 0 .5-.22.5-.5s-.22-.5-.5-.5Z"/>
</svg>
