<svg xmlns="http://www.w3.org/2000/svg" viewBox="0 0 20 20">
  <path d="M15.634 17.86c-.19 0-.34-.09-.52-.19l-5.13-2.93-5.09 2.93c-.21.12-.38.23-.61.19a.687.687 0 0 1-.49-.29c-.13-.18-.13-.37-.13-.61V6.5c0-1.48 0-2.22.33-2.86.29-.57.74-1.02 1.31-1.31C5.944 2 6.684 2 8.164 2h3.67c1.48 0 2.22 0 2.86.33.57.29 1.02.75 1.31 1.31.33.64.33 1.38.33 2.86v10.45c0 .24 0 .43-.13.62-.11.16-.29.26-.49.29h-.08Zm-5.63-4.16h.12c.13.03.21.07.28.11l4.93 2.81V6.5c0-1.32 0-1.98-.22-2.41-.19-.38-.5-.68-.87-.88-.43-.22-1.09-.22-2.41-.22h-3.67c-1.32 0-1.98 0-2.41.22-.38.19-.68.5-.87.87-.22.43-.22 1.09-.22 2.41v10.14l4.93-2.82c.07-.04.15-.08.26-.11.04 0 .1-.01.16-.01l-.01.01Z"/>
</svg>
