<svg xmlns="http://www.w3.org/2000/svg" viewBox="0 0 20 20">
  <path d="M16.926 10.1a3.03 3.03 0 0 0-.63-.95 3.198 3.198 0 0 0-.05-2.42 3.19 3.19 0 0 0-1.75-1.68 2.52 2.52 0 0 0-.66-1.43c-.23-.25-.5-.44-.81-.57a2.459 2.459 0 0 0-1.94-.04 2.531 2.531 0 0 0-1.08.82 2.531 2.531 0 0 0-1.08-.82c-.31-.12-.64-.17-.97-.18-.34 0-.66.08-.97.22-.31.14-.58.33-.81.57-.23.24-.41.53-.52.84-.07.19-.12.39-.14.59a3.19 3.19 0 0 0-1.75 1.68c-.19.44-.28.92-.26 1.4.01.35.09.69.21 1.01-.26.28-.48.6-.63.95-.2.47-.28.99-.24 1.51.04.51.21 1.01.49 1.44.22.34.5.64.83.87 0 .32.03.64.12.96.12.42.32.8.6 1.14a3.134 3.134 0 0 0 2.24 1.15c.44.02.86-.03 1.27-.18.41-.15.78-.37 1.1-.67.19-.18.36-.38.5-.6.14.22.31.42.5.6a3.213 3.213 0 0 0 2.17.86h.21a3.134 3.134 0 0 0 2.24-1.15c.28-.34.48-.72.6-1.14.09-.31.13-.63.12-.96.33-.23.61-.53.83-.87.28-.43.45-.93.49-1.44.04-.51-.04-1.03-.24-1.51h.01Zm-7.41-4.76v2.65c-.03.49-.2.96-.5 1.35-.3.4-.7.69-1.17.86-.26.09-.4.38-.31.64.09.26.38.4.64.31.51-.18.96-.47 1.33-.85v3.71c0 .3-.06.59-.18.86s-.29.51-.51.72a2.137 2.137 0 0 1-1.62.58c-.3-.02-.58-.1-.85-.23-.27-.14-.5-.32-.69-.55a2.09 2.09 0 0 1-.41-.78c-.02-.07-.03-.13-.05-.2.26.07.52.1.79.1.28 0 .5-.22.5-.5s-.22-.5-.5-.5c-.36.03-.73-.09-1.06-.27h-.02c-.3-.17-.56-.42-.75-.71a2.137 2.137 0 0 1-.17-2.02c.14-.32.35-.61.62-.83l.01-.01c.1-.08.2-.15.31-.21.24-.13.33-.44.2-.68a.51.51 0 0 0-.58-.24c-.04-.14-.06-.29-.06-.43-.01-.33.05-.66.18-.96.13-.3.33-.57.58-.78.11-.09.23-.18.36-.25.05.17.12.33.21.48.14.24.44.32.68.18.24-.14.32-.44.18-.68a1.49 1.49 0 0 1-.2-.68V5.4c0-.2.02-.39.09-.58a1.452 1.452 0 0 1 .79-.85c.18-.08.38-.13.58-.13.2-.01.4.03.58.11.19.07.35.18.5.33.14.14.26.31.33.49.08.18.11.37.12.57v.02l.05-.02Zm6.32 7.17c-.19.29-.45.54-.75.71h-.02c-.32.18-.69.27-1.05.27-.28 0-.5.22-.5.5s.18.5.5.5c.27 0 .53-.03.79-.1-.01.07-.03.13-.05.2-.08.29-.22.55-.41.78-.19.23-.42.42-.69.55-.27.14-.55.21-.85.23a2.137 2.137 0 0 1-1.62-.58 2.149 2.149 0 0 1-.69-1.58v-3.71c.37.38.83.67 1.33.85.26.09.55-.04.64-.31a.502.502 0 0 0-.31-.64c-.47-.16-.87-.46-1.17-.86-.29-.39-.47-.86-.5-1.35V5.3c0-.2.04-.39.12-.57.08-.19.19-.35.33-.49s.31-.25.5-.32a1.459 1.459 0 0 1 1.16.02c.18.08.35.2.48.34.14.15.24.32.31.51s.1.39.09.59v.02c-.01.23-.08.46-.2.67-.14.24-.06.54.18.68s.55.06.68-.18c.09-.15.16-.31.21-.48.13.07.25.15.36.25.25.21.45.48.58.78.13.3.19.63.18.96 0 .15-.03.29-.06.43a.493.493 0 0 0-.58.24c-.13.24-.05.55.2.68.11.06.21.13.31.21l.01.01c.27.22.48.51.62.83.14.32.19.68.17 1.03-.03.35-.15.69-.34.99l.04.01Z"/>
</svg>
