<svg xmlns="http://www.w3.org/2000/svg" viewBox="0 0 20 20">
  <path d="M10 17.01c-.28 0-.5-.22-.5-.5v-5.77C8.64 10.52 8 9.73 8 8.8c0-1.1.9-2 2-2s2 .9 2 2c0 .93-.64 1.71-1.5 1.94v5.77c0 .28-.22.5-.5.5Zm0-9.21c-.55 0-1 .45-1 1s.45 1 1 1 1-.45 1-1-.45-1-1-1Zm5.3 6.81a.47.47 0 0 1-.35-.15c-.2-.2-.2-.51 0-.71a7.007 7.007 0 0 0 0-9.9c-.2-.2-.2-.51 0-.71.2-.2.51-.2.71 0 3.12 3.12 3.12 8.19 0 11.31-.1.1-.23.15-.35.15l-.01.01Zm-10.6 0a.47.47 0 0 1-.35-.15A7.917 7.917 0 0 1 2 8.8c0-2.14.83-4.14 2.34-5.65.2-.2.51-.2.71 0 .2.2.2.51 0 .71A6.936 6.936 0 0 0 3 8.8c0 1.87.73 3.63 2.05 4.95.2.2.2.51 0 .71-.1.1-.23.15-.35.15Zm8.48-2.13a.47.47 0 0 1-.35-.15c-.2-.2-.2-.51 0-.71a4.008 4.008 0 0 0 0-5.66c-.2-.2-.2-.51 0-.71.2-.2.51-.2.71 0a5.003 5.003 0 0 1 0 7.07c-.1.1-.23.15-.35.15l-.01.01Zm-6.36 0a.47.47 0 0 1-.35-.15 5.003 5.003 0 0 1 0-7.07c.2-.2.51-.2.71 0 .2.2.2.51 0 .71a4.008 4.008 0 0 0 0 5.66c.2.2.2.51 0 .71-.1.1-.23.15-.35.15l-.01-.01Z"/>
</svg>
