<svg xmlns="http://www.w3.org/2000/svg" viewBox="0 0 20 20">
  <path d="M9.5 18c-1.31 0-2.38-1.07-2.38-2.38l-.02-2.88c-1.34 0-2.01 0-2.6-.3a2.73 2.73 0 0 1-1.2-1.2C3 10.65 3 9.98 3 8.64V3.7c0-.48 0-.75.14-1.02.12-.23.31-.42.54-.55.27-.14.53-.14 1.02-.14h9.6c.48 0 .75 0 1.02.14.24.12.43.31.55.55.13.26.13.53.13 1.01v4.95c0 1.34 0 2.01-.3 2.6-.26.52-.68.94-1.2 1.2-.59.3-1.26.3-2.6.3h-.03v2.88c0 1.31-1.07 2.38-2.38 2.38h.01Zm-1.38-5.25v2.88c0 .76.62 1.38 1.38 1.38.76 0 1.38-.62 1.38-1.38v-2.88H8.12Zm3.79-1c1.18 0 1.77 0 2.14-.19.33-.17.6-.43.76-.77.17-.33.19-.84.19-1.79H4c0 .95.02 1.46.19 1.79.17.33.43.6.76.77.37.19.97.19 2.14.19h4.82ZM4 8h11V3.7c0-.25 0-.51-.03-.56-.02-.05-.06-.08-.11-.11S14.55 3 14.3 3H4.7c-.25 0-.51 0-.56.03-.05.02-.09.06-.11.11C4 3.2 4 3.46 4 3.71v4.3V8Z"/>
</svg>
