<svg xmlns="http://www.w3.org/2000/svg" viewBox="0 0 20 20">
  <path d="M6.674 8.83c-1.19 0-2.17-.97-2.17-2.17s.97-2.17 2.17-2.17 2.17.97 2.17 2.17-.97 2.17-2.17 2.17Zm0-3.33c-.64 0-1.17.52-1.17 1.17 0 .65.52 1.17 1.17 1.17.65 0 1.17-.52 1.17-1.17 0-.65-.52-1.17-1.17-1.17Zm2.91 10c-1.42 0-2.58-1.16-2.58-2.58 0-1.42 1.16-2.58 2.58-2.58 1.42 0 2.58 1.16 2.58 2.58 0 1.42-1.16 2.58-2.58 2.58Zm0-4.17c-.87 0-1.58.71-1.58 1.58 0 .87.71 1.58 1.58 1.58.87 0 1.58-.71 1.58-1.58 0-.87-.71-1.58-1.58-1.58Zm5-1.66c-1.88 0-3.42-1.53-3.42-3.42s1.53-3.42 3.42-3.42 3.42 1.53 3.42 3.42-1.53 3.42-3.42 3.42Zm0-5.84c-1.33 0-2.42 1.08-2.42 2.42 0 1.34 1.08 2.42 2.42 2.42 1.34 0 2.42-1.08 2.42-2.42 0-1.34-1.08-2.42-2.42-2.42Z"/>
  <path d="M17.504 18H3.834c-.53 0-.82 0-1.11-.15-.25-.12-.46-.33-.58-.58-.15-.29-.15-.58-.15-1.11V2.5c.01-.28.23-.5.51-.5s.5.22.5.5v13.67c0 .32 0 .58.04.65.03.06.08.11.14.14.07.04.34.04.65.04h13.67c.28 0 .5.22.5.5s-.22.5-.5.5Z"/>
</svg>
