<svg xmlns="http://www.w3.org/2000/svg" viewBox="0 0 20 20">
  <path d="M17.5 11h-1.76v-.25c0-.61-.07-1.21-.19-1.79.68-.1 1.26-.48 1.68-1.04.48-.64.76-1.5.76-2.42 0-.28-.22-.5-.5-.5s-.5.22-.5.5c0 .73-.22 1.37-.56 1.82-.32.42-.72.65-1.12.67-.51-1.57-1.46-2.89-2.67-3.68l1.46-1.46c.2-.2.2-.51 0-.71-.2-.2-.51-.2-.71 0l-1.5 1.5c-.06.06-.09.13-.12.2a4.63 4.63 0 0 0-1.78-.35c-.63 0-1.22.12-1.78.35a.466.466 0 0 0-.12-.2L6.6 2.15c-.2-.2-.51-.2-.71 0-.2.2-.2.51 0 .71l1.46 1.46C6.14 5.11 5.19 6.43 4.68 8c-.41-.02-.81-.24-1.12-.67C3.22 6.88 3 6.24 3 5.51c0-.28-.22-.5-.5-.5s-.5.22-.5.5c0 .93.28 1.78.76 2.42.41.55 1 .94 1.68 1.04a8.84 8.84 0 0 0-.19 1.79c0 .08 0 .17.01.25H2.5c-.28 0-.5.22-.5.5s.22.5.5.5h1.84c.1.73.29 1.44.56 2.09-.56.16-1.03.52-1.39.99-.48.64-.76 1.5-.76 2.42 0 .28.22.5.5.5s.5-.22.5-.5c0-.73.22-1.37.56-1.82.3-.4.67-.61 1.05-.66 1.03 1.78 2.69 2.98 4.64 2.98 1.95 0 3.61-1.2 4.64-2.98.38.05.75.26 1.05.66.34.45.56 1.09.56 1.82 0 .28.22.5.5.5s.5-.22.5-.5c0-.93-.28-1.78-.76-2.42-.36-.47-.83-.84-1.39-.99.27-.65.45-1.35.56-2.09h1.84c.28 0 .5-.22.5-.5s-.22-.5-.5-.5V11ZM10 4.5c1.47 0 2.84.92 3.73 2.39C12.6 7.59 11.34 8 10 8c-1.34 0-2.6-.41-3.73-1.11C7.16 5.42 8.53 4.5 10 4.5ZM10 17c-2.51 0-4.75-2.67-4.75-6.25 0-1.09.21-2.09.57-2.97 1.11.68 2.36 1.09 3.68 1.17v2.54c0 .28.22.5.5.5s.5-.22.5-.5V8.95a8.18 8.18 0 0 0 3.68-1.17c.36.87.57 1.88.57 2.97 0 3.58-2.24 6.25-4.75 6.25Z"/>
</svg>
