<svg xmlns="http://www.w3.org/2000/svg" viewBox="0 0 20 20">
  <path d="M12.54 10.04h-.53c-.28 0-.5.22-.5.5s.22.5.5.5h.53c.28 0 .5-.22.5-.5s-.22-.5-.5-.5Zm2.39 0h-.52c-.28 0-.5.22-.5.5s.22.5.5.5h.52c.28 0 .5-.22.5-.5s-.22-.5-.5-.5Z"/>
  <path d="M17.78 8.18a2.18 2.18 0 0 0-.95-.95c-.46-.24-.97-.24-1.98-.24h-2.67c-1.01 0-1.52 0-1.98.24-.4.2-.74.54-.95.95-.24.46-.24.97-.24 1.98v6.83H3V3.83c0-.31 0-.58.04-.65a.36.36 0 0 1 .15-.15c.07-.04.34-.04.65-.04h5.33c.31 0 .58 0 .65.04.06.03.11.08.15.15.04.07.04.34.04.65v.69c0 .28.22.5.5.5s.5-.22.5-.5v-.69c0-.53 0-.82-.15-1.1-.13-.25-.33-.45-.58-.58C9.99 2 9.7 2 9.17 2H3.83c-.53 0-.82 0-1.11.15-.24.12-.45.33-.57.58C2 3.02 2 3.31 2 3.84v13.68c0 .28.22.5.5.5.02 0 .04 0 .06-.01h14.96c.28 0 .5-.22.5-.5v-7.33c0-1.01 0-1.52-.24-1.98v-.02ZM14.52 17h-2v-3c0-.31 0-.58.04-.65a.4.4 0 0 1 .14-.15c.07-.04.33-.04.65-.04h.33c.32 0 .58 0 .65.04.06.03.11.08.15.15.04.07.04.34.04.65v3Zm1 0v-3c0-.53 0-.82-.14-1.1-.13-.25-.33-.46-.59-.59-.28-.14-.58-.14-1.1-.14h-.33c-.53 0-.82 0-1.11.14-.25.13-.45.33-.58.58-.15.29-.15.58-.15 1.11v3h-1.5v-6.83c0-.83 0-1.28.13-1.53.11-.22.29-.4.51-.51.25-.13.7-.13 1.53-.13h2.67c.83 0 1.28 0 1.53.13.22.11.4.29.51.51.13.25.13.71.13 1.53V17h-1.51Z"/>
  <path d="M7.87 5.5c0-.28-.22-.5-.5-.5H5.5c-.28 0-.5.22-.5.5s.22.5.5.5h1.87c.28 0 .5-.22.5-.5ZM5.51 8c-.28 0-.5.22-.5.5s.22.5.5.5H6c.28 0 .5-.22.5-.5S6.28 8 6 8h-.49Z"/>
</svg>
