<svg xmlns="http://www.w3.org/2000/svg" viewBox="0 0 20 20">
  <path d="M14 18c-.28 0-.5-.22-.5-.5v-3h-3c-.28 0-.5-.22-.5-.5s.22-.5.5-.5h3v-3c0-.28.22-.5.5-.5s.5.22.5.5v3h3c.28 0 .5.22.5.5s-.22.5-.5.5h-3v3c0 .28-.22.5-.5.5Z"/>
  <path d="M9 18H6.1c-1.34 0-2.01 0-2.6-.3a2.73 2.73 0 0 1-1.2-1.2c-.3-.59-.3-1.26-.3-2.6V7.1c0-1.34 0-2.01.3-2.6.27-.52.68-.94 1.2-1.2C4.08 3.01 4.73 3 6 3v-.5c0-.28.22-.5.5-.5s.5.22.5.5V3h6v-.5c0-.28.22-.5.5-.5s.5.22.5.5V3c1.27 0 1.93 0 2.5.3.52.27.94.68 1.2 1.2.3.59.3 1.26.3 2.6v2.4c0 .28-.22.5-.5.5s-.5-.22-.5-.5V8H3v5.9c0 1.18 0 1.77.19 2.14.17.33.44.6.77.77.37.19.97.19 2.14.19H9c.28 0 .5.22.5.5s-.22.5-.5.5ZM3 7h14c0-1.11 0-1.68-.19-2.05-.17-.33-.43-.6-.76-.76C15.69 4 15.12 4 14 4v.5c0 .28-.22.5-.5.5s-.5-.22-.5-.5V4H7v.5c0 .28-.22.5-.5.5S6 4.78 6 4.5V4c-1.11 0-1.68 0-2.04.19-.33.17-.59.43-.76.77-.19.36-.19.93-.19 2.05L3 7Z"/>
</svg>
