<svg xmlns="http://www.w3.org/2000/svg" viewBox="0 0 20 20">
  <path d="M13.9 18H6.1c-1.34 0-2.01 0-2.6-.3a2.73 2.73 0 0 1-1.2-1.2c-.3-.59-.3-1.26-.3-2.6V7.1c0-1.34 0-2.01.3-2.6.26-.52.68-.94 1.2-1.2C4.07 3.01 4.73 3 6 3v-.5c0-.28.22-.5.5-.5s.5.22.5.5V3h6v-.5c0-.28.22-.5.5-.5s.5.22.5.5V3c1.27 0 1.93 0 2.5.3.52.27.94.68 1.2 1.2.3.59.3 1.26.3 2.6v6.8c0 1.34 0 2.01-.3 2.6-.27.52-.68.94-1.2 1.2-.59.3-1.26.3-2.6.3ZM3 8v5.9c0 1.18 0 1.77.19 2.14.17.33.43.6.76.77.37.19.97.19 2.14.19h7.8c1.18 0 1.77 0 2.14-.19.33-.17.6-.43.77-.77.19-.37.19-.97.19-2.14V8H3Zm0-1h14c0-1.11 0-1.68-.19-2.05-.17-.33-.43-.6-.76-.77-.36-.19-.93-.19-2.05-.19v.5c0 .28-.22.5-.5.5s-.5-.22-.5-.5v-.5H7v.5c0 .28-.22.5-.5.5s-.5-.22-.5-.5v-.5c-1.11 0-1.68 0-2.04.19-.33.17-.6.43-.76.76-.19.36-.19.93-.19 2.05L3 7Z"/>
</svg>
