<svg xmlns="http://www.w3.org/2000/svg" viewBox="0 0 20 20">
  <path d="M10.29 18.02c-.43 0-.69 0-.93-.17a.858.858 0 0 1-.36-.63c-.03-.29.1-.51.32-.89l3.21-5.54c.22-.37.35-.6.61-.72.23-.1.49-.1.72 0 .26.12.39.34.61.72l3.21 5.54c.22.38.35.6.32.89-.03.25-.16.48-.36.63-.23.17-.5.17-.93.17h-6.42Zm-.1-1.19c-.04.06-.07.13-.11.19h6.84c-.03-.05-.07-.12-.11-.18L13.6 11.3c-.04-.06-.07-.13-.11-.19-.03.05-.07.12-.1.18l-3.21 5.54h.01Z"/>
  <path d="M13.5 15.15c-.28 0-.5-.22-.5-.5v-1.69c0-.28.22-.5.5-.5s.5.22.5.5v1.69c0 .28-.22.5-.5.5Zm.06 1.56c-.07 0-.15-.02-.23-.05a.497.497 0 0 1-.19-.13.599.599 0 0 1-.18-.42c0-.08.02-.16.05-.23.03-.07.07-.14.13-.2.05-.05.12-.1.19-.13.23-.09.49-.03.66.13.11.12.18.27.18.43 0 .16-.07.31-.18.42-.11.11-.27.18-.43.18Z"/>
  <path d="M6.1 18c-1.34 0-2.01 0-2.6-.3a2.73 2.73 0 0 1-1.2-1.2c-.3-.59-.3-1.26-.3-2.6V7.1c0-1.34 0-2.01.3-2.6.26-.52.68-.94 1.2-1.2C4.07 3.01 4.73 3 6 3v-.5c0-.28.22-.5.5-.5s.5.22.5.5V3h6v-.5c0-.28.22-.5.5-.5s.5.22.5.5V3c1.27 0 1.93 0 2.5.3.52.27.94.68 1.2 1.2.3.59.3 1.26.3 2.6v3.4c0 .28-.22.5-.5.5s-.5-.22-.5-.5V8H3v5.9c0 1.18 0 1.77.19 2.14.17.33.43.6.76.77.37.19.97.19 2.14.19.28 0 .5.22.5.5s-.22.5-.5.5h.01ZM3 7h14c0-1.11 0-1.68-.19-2.05-.17-.33-.43-.6-.76-.77-.36-.19-.93-.19-2.05-.19v.5c0 .28-.22.5-.5.5s-.5-.22-.5-.5v-.5H7v.5c0 .28-.22.5-.5.5s-.5-.22-.5-.5v-.5c-1.11 0-1.68 0-2.04.19-.33.17-.6.43-.76.76-.19.36-.19.93-.19 2.05L3 7Z"/>
</svg>
