<svg xmlns="http://www.w3.org/2000/svg" viewBox="0 0 20 20">
  <path d="M7.51 18H6.1c-1.34 0-2.01 0-2.6-.3a2.73 2.73 0 0 1-1.2-1.2c-.3-.59-.3-1.26-.3-2.6V7.1c0-1.34 0-2.01.3-2.6.27-.52.68-.94 1.2-1.2C4.08 3.01 4.73 3 6 3v-.5c0-.28.22-.5.5-.5s.5.22.5.5V3h6v-.5c0-.28.22-.5.5-.5s.5.22.5.5V3c1.27 0 1.93 0 2.5.3.52.27.94.68 1.2 1.2.3.59.3 1.26.3 2.6v1.49c0 .28-.22.5-.5.5s-.5-.22-.5-.5v-.58H3v5.9c0 1.18 0 1.77.19 2.14.17.33.44.6.77.77.37.19.97.19 2.14.19h1.41c.28 0 .5.22.5.5s-.22.5-.5.5V18ZM3 7h14c0-1.11 0-1.68-.19-2.05-.17-.33-.43-.6-.76-.76C15.69 4 15.12 4 14 4v.5c0 .28-.22.5-.5.5s-.5-.22-.5-.5V4H7v.5c0 .28-.22.5-.5.5S6 4.78 6 4.5V4c-1.11 0-1.68 0-2.04.19-.33.17-.59.43-.76.77-.19.36-.19.93-.19 2.05L3 7Z"/>
  <path d="M17.5 18a.47.47 0 0 1-.35-.15l-1.36-1.36c-.6.46-1.36.73-2.17.73-1.99 0-3.61-1.62-3.61-3.61 0-1.99 1.62-3.61 3.61-3.61 1.99 0 3.61 1.62 3.61 3.61 0 .82-.27 1.57-.73 2.17l1.36 1.36c.2.2.2.51 0 .71-.1.1-.23.15-.35.15h-.01Zm-3.89-7C12.17 11 11 12.17 11 13.61a2.612 2.612 0 0 0 4.42 1.88c.01-.01.02-.02.03-.04.01-.02.02-.02.04-.03A2.612 2.612 0 0 0 13.61 11Z"/>
</svg>
