<svg xmlns="http://www.w3.org/2000/svg" viewBox="0 0 20 20">
  <path d="M13.46 18c-.37 0-.63-.07-1.05-.19-2.43-.69-4.65-1.98-6.43-3.76a14.737 14.737 0 0 1-3.77-6.38C2.08 7.23 2 6.97 2 6.59c0-.43.14-.97.35-1.35.18-.32.41-.55.81-.95l.13-.13c.43-.42.65-.65.94-.79a1.97 1.97 0 0 1 1.8 0c.28.14.51.37.93.78l.15.16c.29.29.43.43.54.6.43.66.43 1.51 0 2.17-.11.17-.26.32-.52.58-.08.08-.11.1-.13.13-.04.05-.05.15-.04.21.01.04.03.06.05.11.51 1.06 1.2 2.02 2.03 2.86.84.83 1.8 1.51 2.86 2.02.06.03.09.04.13.05.06.02.16 0 .21-.04.03-.02.06-.05.12-.11.28-.27.43-.43.6-.54.66-.43 1.51-.43 2.17 0 .18.11.33.27.6.54l.15.14c.42.42.65.65.8.93.29.56.29 1.23 0 1.8-.15.29-.38.52-.8.93l-.12.12c-.41.41-.64.64-.97.82-.38.21-.92.35-1.35.35l.02.02ZM5.13 4.16c-.15 0-.31.04-.45.11s-.33.26-.67.6l-.13.12c-.38.38-.55.55-.66.75-.13.22-.22.6-.22.85 0 .24.05.4.16.8.64 2.24 1.85 4.29 3.51 5.95 1.66 1.65 3.73 2.86 5.97 3.5.41.12.57.16.81.16.26 0 .63-.1.86-.22.21-.12.38-.29.75-.66l.12-.12c.34-.33.54-.53.61-.68.14-.28.14-.61 0-.89-.07-.14-.27-.34-.61-.68l-.15-.14c-.23-.23-.35-.35-.44-.41-.33-.21-.76-.21-1.09 0-.09.06-.21.18-.44.41-.11.11-.17.17-.24.21-.31.22-.72.29-1.08.19-.08-.03-.15-.05-.27-.11-1.16-.56-2.22-1.3-3.14-2.22-.92-.92-1.67-1.97-2.22-3.12a1.302 1.302 0 0 1 .07-1.35c.05-.07.1-.12.21-.24.24-.24.36-.36.42-.45.21-.33.21-.75 0-1.08-.05-.08-.18-.21-.4-.43l-.16-.16c-.35-.35-.54-.54-.68-.61-.14-.07-.3-.11-.45-.11l.01.03Zm9.38 4.75c-.23 0-.44-.17-.49-.4-.12-.63-.43-1.2-.89-1.66a3.16 3.16 0 0 0-1.67-.88.509.509 0 0 1-.4-.59c.05-.27.32-.45.59-.4.83.16 1.59.56 2.18 1.16.6.6 1 1.35 1.16 2.18.05.27-.12.53-.39.59h-.1.01Zm2.99 0c-.25 0-.47-.19-.5-.44a6.2 6.2 0 0 0-1.79-3.69c-1-.99-2.31-1.62-3.71-1.77a.502.502 0 0 1-.44-.55c.03-.27.27-.46.55-.44 1.62.18 3.15.91 4.31 2.06A7.232 7.232 0 0 1 18 8.37c.03.27-.17.52-.44.55h-.06v-.01Z"/>
</svg>
