<svg xmlns="http://www.w3.org/2000/svg" viewBox="0 0 20 20">
  <path d="M13.9 17.99H6.1c-1.34 0-2.01 0-2.6-.3a2.68 2.68 0 0 1-1.2-1.2c-.3-.59-.3-1.26-.3-2.6V8.02c0-.29 0-.43.01-.56A2.75 2.75 0 0 1 4.48 5c.12-.01.27-.01.58-.01h.18c.38-.02.72-.27.86-.63l.08-.22.05-.14c.28-.72.96-1.21 1.73-1.26h4.09c.76.05 1.45.54 1.73 1.25.02.04.03.09.06.17l.04.11.03.1c.14.35.48.6.87.62h.18c.3 0 .45 0 .58.02A2.75 2.75 0 0 1 18 7.48c.01.12.01.27.01.55v5.87c0 1.34 0 2.01-.3 2.6-.27.52-.68.94-1.2 1.2-.59.3-1.26.3-2.6.3l-.01-.01Zm-9-12h-.32c-.83.08-1.49.74-1.57 1.57-.01.1 0 .22 0 .46v5.87c0 1.18 0 1.77.19 2.14.17.33.43.6.77.76.37.19.97.19 2.14.19h7.8c1.18 0 1.77 0 2.14-.19.33-.17.6-.43.77-.77.19-.37.19-.96.19-2.14V7.55c-.08-.83-.74-1.49-1.57-1.57-.1-.01-.23 0-.48 0h-.23c-.77-.05-1.45-.54-1.74-1.25l-.05-.15-.08-.22a.98.98 0 0 0-.87-.62H8.03c-.38.02-.73.27-.87.63l-.03.09-.04.11c-.03.08-.04.13-.06.17-.29.71-.97 1.2-1.73 1.25h-.4Z"/>
  <path d="M10 14.62c-1.93 0-3.5-1.57-3.5-3.5s1.57-3.5 3.5-3.5 3.5 1.57 3.5 3.5-1.57 3.5-3.5 3.5Zm0-6a2.5 2.5 0 0 0 0 5 2.5 2.5 0 0 0 0-5Z"/>
</svg>
