<svg xmlns="http://www.w3.org/2000/svg" viewBox="0 0 20 20">
  <path d="M13.5 18h-.17c-.28 0-.5-.22-.5-.5s.22-.5.5-.5h.17c1.32 0 1.98 0 2.41-.22.38-.19.68-.5.87-.87.22-.43.22-1.09.22-2.41v-.17c0-.28.22-.5.5-.5s.5.22.5.5v.17c0 1.48 0 2.22-.33 2.86-.29.57-.74 1.02-1.31 1.31-.64.33-1.38.33-2.86.33Zm-6.83 0H6.5c-1.48 0-2.22 0-2.86-.33-.57-.29-1.02-.74-1.31-1.31C2 15.72 2 14.98 2 13.5v-.17c0-.28.22-.5.5-.5s.5.22.5.5v.17c0 1.32 0 1.98.22 2.41.19.38.5.68.87.88.43.22 1.09.22 2.41.22h.17c.28 0 .5.22.5.5s-.22.5-.5.5V18ZM17.5 7.17c-.28 0-.5-.22-.5-.5V6.5c0-1.32 0-1.98-.22-2.41-.19-.38-.5-.68-.87-.87C15.48 3 14.82 3 13.5 3h-.17c-.28 0-.5-.22-.5-.5s.22-.5.5-.5h.17c1.48 0 2.22 0 2.86.33.57.29 1.02.74 1.31 1.31.33.64.33 1.38.33 2.86v.17c0 .28-.22.5-.5.5Zm-15 0c-.28 0-.5-.22-.5-.5V6.5c0-1.48 0-2.22.33-2.86.29-.57.74-1.02 1.31-1.31C4.28 2 5.02 2 6.5 2h.17c.28 0 .5.22.5.5s-.22.5-.5.5H6.5c-1.32 0-1.98 0-2.41.22-.38.19-.68.49-.87.87C3 4.52 3 5.18 3 6.5v.17c0 .28-.22.5-.5.5ZM13 13.5a.47.47 0 0 1-.35-.15L10 10.7l-2.65 2.65c-.2.2-.51.2-.71 0-.2-.2-.2-.51 0-.71l2.65-2.65-2.65-2.65c-.2-.2-.2-.51 0-.71.2-.2.51-.2.71 0L10 9.28l2.65-2.65c.2-.2.51-.2.71 0 .2.2.2.51 0 .71l-2.65 2.65 2.65 2.65c.2.2.2.51 0 .71-.1.1-.23.15-.35.15H13Z"/>
</svg>
