<svg xmlns="http://www.w3.org/2000/svg" viewBox="0 0 20 20">
  <path d="M9.62 16h.77a.603.603 0 0 0 .5-.94l-.38-.58a.596.596 0 0 0-.5-.27l-.35.04-.54.8c-.12.18-.13.42-.03.62s.31.32.53.32V16Zm7.6-8.67s0-.04-.02-.06l-1.5-3c-.39-.77-.58-1.16-.91-1.48-.29-.28-.64-.5-1.03-.64C13.32 2 12.89 2 12.03 2h-4.1c-.86 0-1.3 0-1.73.15-.38.13-.74.35-1.03.64-.33.32-.53.73-.91 1.48l-1.5 3-.03.09c-.46.59-.75 1.33-.75 2.14v2.75c0 .96.79 1.75 1.78 1.75.28 0 .49-.22.49-.5s-.24-.5-.51-.5c-.41 0-.75-.34-.75-.75V9.5A2.5 2.5 0 0 1 5.49 7h9a2.5 2.5 0 0 1 2.5 2.5v2.75c0 .42-.34.75-.75.75-.28 0-.5.22-.5.5s.22.5.5.5c.97 0 1.75-.79 1.75-1.75V9.5c0-.82-.3-1.57-.78-2.17h.01ZM5.5 6c-.37 0-.73.07-1.06.18l.73-1.47c.34-.67.5-1.01.71-1.21.18-.18.41-.32.65-.4.28-.1.65-.1 1.4-.1h4.1c.75 0 1.13 0 1.4.1.24.08.47.22.65.4.21.21.38.54.71 1.21l.73 1.46c-.33-.1-.68-.18-1.04-.18H5.5V6Z"/>
  <path d="M15 9.83H5.01c-.28 0-.5.22-.5.5s.22.5.5.5h1.02v1.8c0 .19.07.36.2.49l.33.33v.88l-.33.33c-.13.13-.2.31-.2.49v1.54c0 .72.58 1.3 1.3 1.3h5.36c.72 0 1.3-.58 1.3-1.3v-5.87H15c.28 0 .5-.22.5-.5s-.22-.5-.5-.5v.01Zm-2.01 6.86a.3.3 0 0 1-.3.3H7.33a.3.3 0 0 1-.3-.3v-1.41l.31-.31c.15-.15.23-.34.23-.55v-1.07c0-.21-.08-.4-.23-.54l-.31-.31v-1.67H13v5.87l-.01-.01Z"/>
</svg>
