<svg xmlns="http://www.w3.org/2000/svg" viewBox="0 0 20 20">
  <path d="M7.75 15.5a1.25 1.25 0 1 0 0 2.5 1.25 1.25 0 0 0 0-2.5Zm6.04 2.5a1.25 1.25 0 1 0 0-2.5 1.25 1.25 0 0 0 0 2.5Zm3.82-6.3a.503.503 0 0 0-.6.38c-.06.25-.11.39-.17.49-.11.15-.25.28-.42.35-.19.09-.54.09-1.16.09H7.63c-.65 0-1.01 0-1.21-.09a.934.934 0 0 1-.43-.38c-.12-.19-.17-.54-.25-1.19l-.73-5.34h1.78c.28 0 .5-.22.5-.5s-.22-.5-.5-.5H4.87l-.28-2.05c-.03-.22-.05-.38-.16-.55a.818.818 0 0 0-.37-.32c-.17-.08-.34-.08-.56-.08h-.98C2.22 2 2 2.22 2 2.5s.22.5.5.5h1.07c0 .03 0 .06.01.09l1.15 8.39c.11.78.17 1.21.4 1.58.21.33.5.58.86.75.4.18.84.18 1.63.18h7.63c.76 0 1.17 0 1.56-.17.34-.15.63-.39.84-.7.18-.25.26-.55.32-.83a.503.503 0 0 0-.38-.6l.02.01Z"/>
  <path d="M12.55 8.05c.09.09.22.15.35.15.13 0 .26-.05.35-.15l2.4-2.4c.2-.2.2-.51 0-.71-.2-.2-.51-.2-.71 0l-2.05 2.05-.85-.85c-.2-.2-.51-.2-.71 0-.2.2-.2.51 0 .71l1.2 1.2h.02Z"/>
  <path d="M13.5 11c2.48 0 4.5-2.02 4.5-4.5S15.98 2 13.5 2 9 4.02 9 6.5s2.02 4.5 4.5 4.5Zm0-8C15.43 3 17 4.57 17 6.5S15.43 10 13.5 10 10 8.43 10 6.5 11.57 3 13.5 3Z"/>
</svg>
