<svg xmlns="http://www.w3.org/2000/svg" viewBox="0 0 20 20">
  <path d="M13.81 18.08a1.25 1.25 0 1 1 0-2.5 1.25 1.25 0 0 1 0 2.5Zm-6.03 0a1.25 1.25 0 1 1 0-2.5 1.25 1.25 0 0 1 0 2.5Zm6.3-4.14H7.63c-.79 0-1.23 0-1.63-.18-.35-.16-.65-.42-.86-.75-.24-.37-.29-.8-.4-1.59L3.59 3.09s0-.06-.01-.09H2.51c-.28 0-.5-.22-.5-.5s.22-.5.5-.5h.98c.22 0 .39 0 .56.08.15.07.28.18.37.32.1.17.13.33.16.55l.3 2.07h11.98c.31 0 .51 0 .71.12.18.1.32.27.39.47.08.22.04.42-.02.73l-1 5.24c-.14.75-.22 1.15-.46 1.5-.21.31-.5.55-.84.7-.39.17-.8.17-1.56.17v-.01ZM5.01 6.02l.72 5.26c.09.65.14 1 .25 1.19.1.17.25.3.43.38.2.09.56.09 1.21.09h6.45c.62 0 .96 0 1.16-.09.17-.08.32-.2.42-.35.12-.17.18-.51.3-1.11l1-5.25s.02-.09.02-.12H5.01Z"/>
</svg>
