<svg xmlns="http://www.w3.org/2000/svg" viewBox="0 0 20 20">
  <path d="M10.493 14.61c-.19 0-.37-.11-.46-.29l-1.32-2.91h-4.44l-1.32 2.91c-.11.25-.41.36-.66.25a.502.502 0 0 1-.25-.66l3.41-7.52c.23-.5.35-.77.64-.92.25-.12.55-.12.8 0 .29.14.41.42.64.91l3.42 7.52c.11.25 0 .55-.25.66-.07.03-.14.04-.21.04v.01Zm-5.77-4.2h3.54L6.623 6.8c-.04-.1-.09-.2-.13-.28-.03.08-.08.18-.13.28l-1.64 3.61Zm13.23-1.07c-.19-.99-1.11-1.68-2.16-1.81-.2-.03-.43-.03-.81-.03-.38 0-.6 0-.81.03-.84.11-1.59.57-1.96 1.26-.13.24-.04.55.21.68.24.13.55.04.68-.21.19-.36.62-.66 1.2-.74.12-.02.28-.02.68-.02s.56 0 .68.02c.74.09 1.21.55 1.3 1.01.01.07.02.17.02.51v.18h-2.41c-1.32 0-2.58.89-2.58 2.2s1.33 2.2 2.64 2.2c.89 0 1.73-.3 2.35-.81v.11c0 .28.22.5.5.5s.5-.22.5-.5v-3.86c0-.29 0-.51-.03-.7v-.02Zm-3.32 4.27c-1 0-1.64-.62-1.64-1.2s.61-1.2 1.58-1.2h2.41v.57c0 .92-.95 1.83-2.35 1.83Z"/>
</svg>
