<svg xmlns="http://www.w3.org/2000/svg" viewBox="0 0 20 20">
  <path d="M14.91 18c-.14 0-.26-.05-.36-.15L12 15.22l-2.55 2.63c-.19.19-.53.19-.72 0l-2.59-2.66a.501.501 0 0 1 0-.7l2.61-2.68v-.14c0-1.83 1.46-3.32 3.25-3.32s3.25 1.49 3.25 3.32v.12l2.62 2.7c.19.19.19.5 0 .7l-2.59 2.66c-.09.1-.22.15-.36.15h-.01Zm-1.9-3.17 1.9 1.96 1.89-1.94-1.82-1.88c-.36.88-1.08 1.56-1.97 1.86Zm-5.81.01 1.89 1.94 1.9-1.95c-.89-.3-1.61-.98-1.98-1.85L7.2 14.84Zm4.79-5.49c-1.24 0-2.25 1.04-2.25 2.32 0 1.28 1.01 2.32 2.25 2.32s2.25-1.04 2.25-2.32c0-1.28-1.01-2.32-2.25-2.32Zm-8.05 6.08c-1.07 0-1.94-.89-1.94-1.99V3.99C2 2.89 2.87 2 3.94 2h11.11c1.07 0 1.94.89 1.94 1.99v4.73c0 .28-.22.5-.5.5s-.5-.22-.5-.5V3.99c0-.54-.42-.99-.94-.99H3.94c-.52 0-.94.44-.94.99v9.46c0 .54.42.99.94.99.28 0 .5.22.5.5s-.22.5-.5.5v-.01ZM8 9H5.5c-.28 0-.5-.22-.5-.5s.22-.5.5-.5H8c.28 0 .5.22.5.5S8.28 9 8 9Zm2.5-3h-5c-.28 0-.5-.22-.5-.5s.22-.5.5-.5h5c.28 0 .5.22.5.5s-.22.5-.5.5Z"/>
</svg>
