<svg xmlns="http://www.w3.org/2000/svg" viewBox="0 0 20 20">
  <path d="M13.03 17H6.97c-1.29 0-1.94 0-2.51-.29-.5-.26-.91-.66-1.17-1.16-.24-.48-.29-1-.29-1.9V6.97c0-1.3 0-1.94.29-2.51.26-.51.66-.91 1.17-1.17C5.03 3 5.68 3 6.97 3h6.07c1.29 0 1.94 0 2.51.29.5.26.91.66 1.17 1.17.29.57.29 1.22.29 2.51v6.07c0 1.29 0 1.94-.29 2.51-.26.51-.66.91-1.17 1.17-.57.29-1.22.29-2.51.29l-.01-.01ZM4 13.82c0 .63.04 1.01.18 1.28.16.32.41.57.73.73.36.18.93.18 2.06.18h6.07c1.13 0 1.7 0 2.06-.18.32-.16.57-.41.73-.73.18-.36.18-.92.18-2.06V6.97c0-1.13 0-1.7-.18-2.06-.16-.32-.41-.57-.73-.73C14.74 4 14.18 4 13.04 4H6.97c-1.13 0-1.7 0-2.06.18-.32.16-.57.41-.73.73C4 5.27 4 5.83 4 6.97v5.44l2.35-2.35c.17-.17.3-.3.49-.36.18-.06.36-.06.53 0 .2.07.32.19.5.37l1.35 1.35.06.06.05-.05 3.07-3.07h-1.68c-.28 0-.5-.22-.5-.5s.22-.5.5-.5h2.89c.07 0 .14.01.2.04.05.02.1.05.15.09l.02.02s.07.1.1.15c.03.05.04.11.04.18v2.9c0 .28-.22.5-.5.5s-.5-.22-.5-.5V9.06l-3.07 3.07c-.17.17-.3.3-.49.36-.18.06-.36.06-.53 0-.2-.07-.32-.19-.49-.36l-1.35-1.35-.06-.06c-.02.02-.03.04-.05.06l-3.05 3.05-.03-.01Z"/>
</svg>
