<svg xmlns="http://www.w3.org/2000/svg" viewBox="0 0 20 20">
  <path d="M12.5 9.63H10c-.28 0-.5-.22-.5-.5s.22-.5.5-.5h2.5c.28 0 .5.22.5.5s-.22.5-.5.5Z"/>
  <path d="M11.9 18H7.1c-1.34 0-2.01 0-2.6-.3a2.73 2.73 0 0 1-1.2-1.2c-.3-.59-.3-1.26-.3-2.6V7c0-.74 0-1.11.09-1.46.25-.95 1-1.69 1.94-1.94.26-.07.53-.09.96-.09 0-.36.02-.59.14-.82.12-.24.31-.43.55-.55C6.95 2 7.21 2 7.7 2h3.6c.47 0 .75 0 1.02.14.24.12.43.31.55.55.12.23.13.46.14.82.43 0 .7.02.96.09.95.25 1.69 1 1.94 1.94.09.35.09.72.09 1.46v6.9c0 1.34 0 2.01-.3 2.6-.27.52-.68.94-1.2 1.2-.59.3-1.26.3-2.6.3ZM6 4.5c-.34 0-.55.02-.7.06-.6.16-1.08.64-1.24 1.24C4 6.02 4 6.35 4 7v6.9c0 1.18 0 1.77.19 2.14.17.33.43.6.77.77.37.19.97.19 2.14.19h4.8c1.18 0 1.77 0 2.14-.19.33-.17.6-.43.76-.77.19-.37.19-.97.19-2.14V7c0-.65 0-.98-.06-1.2-.16-.6-.64-1.08-1.24-1.24-.16-.04-.37-.05-.7-.06 0 .36-.02.59-.14.82-.12.24-.31.42-.55.55-.27.14-.55.14-1.02.14h-3.6c-.48 0-.75 0-1.02-.14a1.22 1.22 0 0 1-.55-.55c-.12-.23-.13-.45-.14-.81L6 4.5Zm1-.2c0 .25 0 .51.03.56.02.05.06.09.11.11.05.03.31.03.56.03h3.6c.25 0 .51 0 .56-.03.05-.02.09-.06.11-.11.03-.05.03-.31.03-.56v-.6c0-.25 0-.51-.03-.56-.02-.05-.06-.08-.11-.11S11.55 3 11.3 3H7.7c-.25 0-.51 0-.56.03-.05.02-.09.06-.11.11C7 3.19 7 3.45 7 3.7v.6Z"/>
  <path d="M6.62 10.33a.47.47 0 0 1-.35-.15l-.62-.62a.513.513 0 0 1 0-.71c.19-.2.51-.2.71 0l.26.26 1.03-1.03c.2-.2.51-.2.71 0 .2.2.2.51 0 .71l-1.38 1.39a.51.51 0 0 1-.35.15h-.01Zm0 4.58a.47.47 0 0 1-.35-.15l-.62-.62c-.2-.2-.2-.51 0-.71.2-.2.51-.2.71 0l.26.26 1.03-1.03c.2-.2.51-.2.71 0 .2.2.2.51 0 .71l-1.38 1.39a.51.51 0 0 1-.35.15h-.01ZM12.5 14H10c-.28 0-.5-.22-.5-.5s.22-.5.5-.5h2.5c.28 0 .5.22.5.5s-.22.5-.5.5Z"/>
</svg>
