<svg xmlns="http://www.w3.org/2000/svg" viewBox="0 0 20 20">
  <path d="M17.5 16.51H9.94c-.28 0-.5-.22-.5-.5s.22-.5.5-.5h7.56c.28 0 .5.22.5.5s-.22.5-.5.5Zm0-6.02H9.94c-.28 0-.5-.22-.5-.5s.22-.5.5-.5h7.56c.28 0 .5.22.5.5s-.22.5-.5.5Zm0-5.98H9.94c-.28 0-.5-.22-.5-.5s.22-.5.5-.5h7.56c.28 0 .5.22.5.5s-.22.5-.5.5Zm-14 7.24a.47.47 0 0 1-.35-.15l-1-1c-.2-.2-.2-.51 0-.71.2-.2.51-.2.71 0l.65.65 1.9-1.9c.2-.2.51-.2.71 0 .2.2.2.51 0 .71L3.87 11.6c-.1.1-.23.15-.35.15H3.5ZM5.5 6h-3c-.28 0-.5-.22-.5-.5v-3c0-.28.22-.5.5-.5h3c.28 0 .5.22.5.5v3c0 .28-.22.5-.5.5ZM3 5h2V3H3v2Zm2.5 13h-3c-.28 0-.5-.22-.5-.5v-3c0-.28.22-.5.5-.5h3c.28 0 .5.22.5.5v3c0 .28-.22.5-.5.5ZM3 17h2v-2H3v2Z"/>
</svg>
