<svg xmlns="http://www.w3.org/2000/svg" viewBox="0 0 20 20">
  <path d="M15.8 18H4.2c-.79 0-1.5-.41-1.9-1.1-.4-.69-.41-1.51 0-2.2.85-1.48 1.72-2.72 2.55-3.92.8-1.15 1.63-2.34 2.44-3.74V3.17h-.62c-.28 0-.5-.22-.5-.5s.22-.5.5-.5h6.66c.28 0 .5.22.5.5s-.22.5-.5.5h-.62v3.87l.86 1.38c.53.82 1.06 1.58 1.59 2.35.83 1.2 1.7 2.44 2.55 3.92.4.69.39 1.51 0 2.2-.4.69-1.11 1.1-1.9 1.1l-.01.01ZM5.68 11.33s0 .01-.01.02C4.85 12.54 4 13.76 3.16 15.2c-.22.37-.21.82 0 1.2.22.38.6.6 1.03.6h11.6c.43 0 .81-.22 1.03-.6.22-.38.22-.82 0-1.2a46.15 46.15 0 0 0-1.85-2.91c-1.29-.1-2.12-.37-2.93-.64-.99-.32-1.93-.63-3.72-.63-1.25 0-2.07.15-2.66.31h.02Zm2.65-1.31c1.95 0 3.01.35 4.03.68.58.19 1.14.37 1.86.49-.5-.72-1-1.45-1.51-2.23l-.93-1.51a.484.484 0 0 1-.07-.26V3.17H8.27v4c.01.09 0 .17-.05.25-.57 1-1.15 1.88-1.73 2.72.5-.07 1.1-.12 1.84-.12Z"/>
</svg>
