<svg xmlns="http://www.w3.org/2000/svg" viewBox="0 0 20 20">
  <path d="M16 17.255a.47.47 0 0 1-.35-.15l-1.42-1.42a6.462 6.462 0 0 1-4.23 1.56c-1.57 0-3.05-.55-4.23-1.56l-1.42 1.42c-.2.2-.51.2-.71 0-.2-.2-.2-.51 0-.71l1.42-1.42a6.462 6.462 0 0 1-1.56-4.23c0-1.74.68-3.37 1.9-4.6a6.45 6.45 0 0 1 4.6-1.9c1.74 0 3.37.68 4.6 1.9a6.45 6.45 0 0 1 1.9 4.6c0 1.57-.55 3.05-1.56 4.23l1.42 1.42c.2.2.2.51 0 .71-.1.1-.23.15-.35.15H16Zm-6-12c-1.47 0-2.85.57-3.89 1.61a5.46 5.46 0 0 0-1.61 3.89c0 1.47.57 2.85 1.61 3.89a5.46 5.46 0 0 0 3.89 1.61c1.47 0 2.85-.57 3.89-1.61a5.46 5.46 0 0 0 1.61-3.89c0-1.47-.57-2.85-1.61-3.89A5.46 5.46 0 0 0 10 5.255Zm1.5 7.5a.47.47 0 0 1-.35-.15l-1.5-1.5a.51.51 0 0 1-.15-.35v-3c0-.28.22-.5.5-.5s.5.22.5.5v2.79l1.35 1.35c.2.2.2.51 0 .71-.1.1-.23.15-.35.15Zm6-6.75a.47.47 0 0 1-.35-.15l-2.25-2.25c-.2-.2-.2-.51 0-.71.2-.2.51-.2.71 0l2.25 2.25c.2.2.2.51 0 .71-.1.1-.23.15-.35.15h-.01Zm-15 0a.47.47 0 0 1-.35-.15c-.2-.2-.2-.51 0-.71l2.25-2.24c.2-.2.51-.2.71 0 .2.2.2.51 0 .71l-2.26 2.24c-.1.1-.23.15-.35.15Z"/>
</svg>
