<svg xmlns="http://www.w3.org/2000/svg" viewBox="0 0 20 20">
  <path d="M8.5 17.246s-.07 0-.11-.01a.503.503 0 0 1-.38-.6l3-13.5a.503.503 0 0 1 .98.22l-3 13.5c-.05.23-.26.39-.49.39Zm5.25-3a.47.47 0 0 1-.35-.15c-.2-.2-.2-.51 0-.71l3.4-3.4-3.4-3.4c-.2-.2-.2-.51 0-.71.2-.2.51-.2.71 0l3.75 3.75c.2.2.2.51 0 .71l-3.75 3.75c-.1.1-.23.15-.35.15l-.01.01Zm-7.5 0a.47.47 0 0 1-.35-.15l-3.75-3.75c-.2-.2-.2-.51 0-.71l3.75-3.75c.2-.2.51-.2.71 0 .2.2.2.51 0 .71l-3.4 3.4 3.4 3.4c.2.2.2.51 0 .71-.1.1-.23.15-.35.15l-.01-.01Z"/>
</svg>
