<svg xmlns="http://www.w3.org/2000/svg" viewBox="0 0 20 20">
  <path d="M13.5 18h-7c-1.48 0-2.22 0-2.86-.33-.57-.29-1.02-.74-1.31-1.31C2 15.72 2 14.98 2 13.5v-7c0-1.48 0-2.22.33-2.86.29-.57.74-1.02 1.31-1.31C4.28 2 5.02 2 6.5 2h7c1.48 0 2.22 0 2.86.33.57.29 1.02.74 1.31 1.31.33.64.33 1.38.33 2.86v7c0 1.48 0 2.22-.33 2.86-.29.57-.74 1.02-1.31 1.31-.64.33-1.38.33-2.86.33Zm-7-15c-1.32 0-1.98 0-2.41.22-.38.19-.68.5-.87.87C3 4.52 3 5.18 3 6.5v7c0 1.32 0 1.98.22 2.41.19.38.5.68.87.87.43.22 1.09.22 2.41.22h7c1.32 0 1.98 0 2.41-.22.38-.19.68-.5.87-.87.22-.43.22-1.09.22-2.41v-7c0-1.32 0-1.98-.22-2.41-.19-.38-.5-.68-.87-.87C15.48 3 14.82 3 13.5 3h-7Zm5.58 10a.47.47 0 0 1-.35-.15c-.2-.2-.2-.51 0-.71l2.15-2.15-2.15-2.15c-.2-.2-.2-.51 0-.71.2-.2.51-.2.71 0l2.5 2.5c.2.2.2.51 0 .71l-2.5 2.5c-.1.1-.23.15-.35.15l-.01.01Zm-4.16 0a.47.47 0 0 1-.35-.15l-2.5-2.5c-.2-.2-.2-.51 0-.71l2.5-2.5c.2-.2.51-.2.71 0 .2.2.2.51 0 .71L6.13 10l2.15 2.15c.2.2.2.51 0 .71-.1.1-.23.15-.35.15L7.92 13Z"/>
</svg>
