<svg xmlns="http://www.w3.org/2000/svg" viewBox="0 0 20 20">
  <path d="M11.55 17.997H2.63c-.28 0-.5-.22-.5-.5s.22-.5.5-.5h8.92c.28 0 .5.22.5.5s-.22.5-.5.5ZM7.83 15.03c-.21 0-.41-.03-.61-.1-.45-.15-.8-.49-1.42-1.11l-2.59-2.59c-.62-.62-.97-.97-1.12-1.42-.13-.4-.13-.83 0-1.23.15-.45.49-.8 1.11-1.42l3.92-3.91-.39-.39c-.2-.2-.2-.51 0-.71.2-.2.51-.2.71 0l5.84 5.84c.33.33.53.53.62.81.08.25.08.52 0 .77-.09.28-.29.48-.62.81l-3.43 3.43c-.63.63-.97.97-1.42 1.12-.2.06-.41.1-.61.1h.01ZM3.15 9.69c.14.2.39.45.77.83L6.5 13.1c.52.52.8.8 1.02.87.2.06.41.06.61 0 .22-.07.51-.35 1.02-.87l3.42-3.42H3.15v.01Zm0-1h9.42L8.24 4.35l-.01-.01-.39-.39-3.91 3.91c-.38.38-.63.63-.77.83h-.01Zm12.86 6.21c-1.1 0-1.99-.89-1.99-1.99 0-.99 1.37-2.33 1.64-2.59.19-.18.5-.18.69 0 .27.26 1.64 1.61 1.64 2.59 0 1.1-.89 1.99-1.99 1.99h.01Zm0-3.51c-.52.56-.99 1.22-.99 1.52 0 .54.44.99.99.99s.99-.44.99-.99c0-.3-.46-.96-.99-1.52Z"/>
</svg>
