<svg xmlns="http://www.w3.org/2000/svg" viewBox="0 0 20 20">
  <path d="M17.67 3.64c-.29-.57-.74-1.02-1.31-1.31C15.72 2 14.98 2 13.5 2h-7c-1.48 0-2.22 0-2.86.33-.57.29-1.02.74-1.31 1.31C2 4.28 2 5.02 2 6.5v7c0 1.48 0 2.22.33 2.86.29.57.74 1.02 1.31 1.31.64.33 1.38.33 2.86.33h.97c.28 0 .5-.22.5-.5s-.22-.5-.5-.5H7V7h10v.5c0 .28.22.5.5.5s.5-.22.5-.5v-1c0-1.48 0-2.22-.33-2.86ZM6 17c-.99 0-1.54-.03-1.91-.22-.37-.19-.68-.5-.87-.87C3 15.48 3 14.82 3 13.5V7h3v10ZM6 6H3c0-.99.03-1.54.22-1.91.19-.38.5-.68.87-.87C4.46 3.03 5 3.01 6 3v3Zm1 0V3h6.5c1.32 0 1.98 0 2.41.22.38.19.68.5.87.87.19.37.21.92.22 1.91H7Z"/>
  <path d="M13.75 11.67a1.83 1.83 0 1 0 .002 3.662 1.83 1.83 0 0 0-.002-3.662Zm0 2.66c-.46 0-.83-.37-.83-.83 0-.46.37-.83.83-.83.46 0 .83.37.83.83 0 .46-.37.83-.83.83Z"/>
  <path d="m17.74 14.19-.55-.62v-.12l.55-.62c.3-.34.34-.82.13-1.2l-.42-.72c-.22-.38-.65-.59-1.1-.5l-.83.17a.405.405 0 0 0-.09-.05l-.27-.81c-.14-.42-.54-.7-.98-.7h-.83c-.45 0-.84.29-.98.7l-.27.82c-.03.02-.06.03-.09.05l-.83-.17c-.44-.09-.88.12-1.1.49l-.42.73c-.23.39-.17.87.12 1.2l.55.62v.12l-.55.62c-.3.34-.34.82-.13 1.2l.42.72c.22.38.65.59 1.1.5l.83-.17s.06.04.09.05l.27.81c.14.42.54.7.98.7h.83c.45 0 .84-.29.98-.7l.27-.82c.03-.02.06-.03.09-.05l.83.17c.44.09.88-.12 1.1-.49l.42-.73c.23-.39.17-.87-.12-1.2Zm-1.19 1.43-1.01-.21c-.14-.03-.28 0-.39.08-.11.08-.22.14-.34.2-.12.06-.22.16-.26.29l-.33.98s0 .02-.02.02h-.87l-.01-.02-.33-.98a.53.53 0 0 0-.24-.29c-.14-.07-.26-.14-.37-.21a.512.512 0 0 0-.38-.08l-1.01.21h-.02s-.01 0-.02-.02l-.41-.71v-.03l.69-.78c.09-.1.13-.23.13-.37v-.42c0-.13-.04-.27-.13-.37l-.69-.77v-.03l.41-.72s.01-.02.02-.02h.01l1.01.21c.14.03.28 0 .39-.08.11-.08.22-.14.34-.2.12-.06.22-.16.26-.29l.33-.98s0-.02.02-.02h.87l.01.02.33.98c.04.12.13.23.24.28.14.07.26.14.37.21.11.08.25.1.38.08l1.01-.21h.02s.01 0 .02.02l.41.71v.03l-.69.78a.54.54 0 0 0-.13.37v.42c0 .13.04.27.13.37l.69.77v.03l-.41.72s-.01.02-.02.02h-.01v.01Z"/>
</svg>
