<svg xmlns="http://www.w3.org/2000/svg" viewBox="0 0 20 20">
  <path d="M7.47 18H6.5c-1.48 0-2.22 0-2.86-.33-.56-.28-1.02-.75-1.31-1.31C2 15.72 2 14.98 2 13.5v-7c0-1.48 0-2.22.33-2.86.29-.57.74-1.02 1.31-1.31C4.28 2 5.02 2 6.5 2h7c1.48 0 2.22 0 2.86.33.57.29 1.02.75 1.31 1.31.33.64.33 1.38.33 2.86v1c0 .28-.22.5-.5.5s-.5-.22-.5-.5V7H7v10h.47c.28 0 .5.22.5.5s-.22.5-.5.5ZM3 7v6.5c0 1.32 0 1.98.22 2.41.19.37.5.68.87.87.37.19.92.21 1.91.22V7H3Zm4-1h10c0-.99-.03-1.54-.22-1.91-.19-.38-.5-.68-.87-.88-.43-.22-1.09-.22-2.41-.22H7V6ZM3 6h3V3c-.99 0-1.54.03-1.91.22-.38.19-.68.5-.87.87-.19.37-.21.92-.22 1.91Z"/>
  <path d="M13.97 18c-.28 0-.5-.22-.5-.5v-3h-3c-.28 0-.5-.22-.5-.5s.22-.5.5-.5h3v-3c0-.28.22-.5.5-.5s.5.22.5.5v3h3c.28 0 .5.22.5.5s-.22.5-.5.5h-3v3c0 .28-.22.5-.5.5Z"/>
</svg>
