<svg xmlns="http://www.w3.org/2000/svg" viewBox="0 0 20 20">
  <path d="M12.32 5.55c-.5.61-.78 1.39-.78 2.2 0 .69.49 1.4 1.32 1.4h1.41v2.12c0 .28.22.5.5.5s.5-.22.5-.5V9.15h1.41c.83 0 1.32-.71 1.32-1.4 0-.81-.28-1.59-.78-2.2l-.74-2.49s-.02-.03-.02-.05h.61c.28 0 .5-.22.5-.5s-.22-.5-.5-.5h-4.6c-.28 0-.5.22-.5.5s.22.5.5.5h.59l-.03.06-.72 2.49.01-.01ZM17 7.75c0 .08-.06.4-.32.4h-3.82c-.26 0-.32-.32-.32-.4 0-.61.21-1.19.6-1.63.05-.06.08-.12.1-.19l.75-2.59c.05-.17.21-.29.38-.29h.76c.18 0 .33.12.38.29l.77 2.6c.02.07.06.13.1.19.39.44.6 1.02.6 1.63l.02-.01Z"/>
  <path d="M17.5 10.58c-.28 0-.5.22-.5.5 0 1.14 0 1.72-.19 2.08a1.7 1.7 0 0 1-.76.74c-.38.19-.97.19-2.15.19H6.1c-1.18 0-1.77 0-2.15-.19a1.7 1.7 0 0 1-.76-.74C3 12.8 3 12.23 3 11.08V7c0-1.14 0-1.72.19-2.08.17-.32.43-.58.76-.74.22-.11.52-.16 1.05-.18h3.45c.28 0 .5-.22.5-.5s-.22-.5-.5-.5H4.99c-.59.02-1.06.07-1.48.28-.52.26-.94.66-1.2 1.17-.3.58-.3 1.23-.3 2.54v4.08c0 1.31 0 1.96.3 2.54.27.51.68.91 1.2 1.17.59.29 1.26.29 2.59.29h3.4v1.92H7c-.28 0-.5.22-.5.5s.22.5.5.5h6c.28 0 .5-.22.5-.5s-.22-.5-.5-.5h-2.5v-1.92h3.4c1.34 0 2.01 0 2.59-.29.52-.26.94-.66 1.2-1.17.3-.58.3-1.23.3-2.54 0-.28-.22-.5-.5-.5l.01.01Z"/>
</svg>
