<svg xmlns="http://www.w3.org/2000/svg" viewBox="0 0 20 20">
  <path d="M13 18H7c-.28 0-.5-.22-.5-.5s.22-.5.5-.5h2.5v-2H6.1c-1.33 0-2 0-2.58-.27-.52-.24-.94-.62-1.21-1.1C2 13.08 2 12.46 2 11.23V7.78c0-1.23 0-1.85.31-2.4.27-.48.69-.86 1.21-1.1.48-.22 1.01-.26 1.97-.27.27 0 .5.22.5.5s-.22.5-.5.5c-.79 0-1.24.03-1.55.18-.33.15-.59.39-.76.69C3 6.2 3 6.73 3 7.79v3.45c0 1.06 0 1.59.18 1.91.17.29.43.53.76.69.38.18.98.18 2.16.18h7.8c1.19 0 1.78 0 2.16-.18.25-.12.55 0 .66.24.12.25 0 .55-.24.66-.58.27-1.25.27-2.58.27h-3.4v2H13c.28 0 .5.22.5.5s-.22.5-.5.5V18Z"/>
  <path d="M15.09 12h-5.02c-.42-.02-.71-.07-.98-.21-.38-.19-.68-.5-.88-.87-.22-.43-.22-.89-.22-1.81V4.9c0-.92 0-1.38.22-1.81.19-.38.5-.68.87-.87C9.51 2 9.97 2 10.89 2h4.2c.92 0 1.38 0 1.81.22.38.19.68.5.87.87.22.43.22.89.22 1.81v4.2c0 .92 0 1.38-.22 1.81-.19.38-.5.68-.87.88-.43.22-.89.22-1.81.22V12Zm0-1c.74 0 1.14 0 1.35-.11.19-.1.34-.25.44-.44.11-.21.11-.62.11-1.35v-.39L15.2 6.92c-.09-.09-.2-.2-.24-.22.01.02-.1.13-.19.22L10.69 11h4.4Zm-4.2-8c-.74 0-1.14 0-1.35.11-.19.1-.34.25-.44.44-.11.21-.11.62-.11 1.35v4.2c0 .74 0 1.14.11 1.35.08.17.21.3.37.4.08-.12.2-.24.35-.39l4.25-4.25c.23-.23.38-.38.61-.46.2-.07.42-.07.62 0 .23.07.38.23.61.46l1.08 1.08V4.9c0-.74 0-1.14-.11-1.35-.1-.19-.25-.34-.44-.44C16.23 3 15.82 3 15.09 3h-4.2Zm.35 3.75c-.83 0-1.5-.67-1.5-1.5s.67-1.5 1.5-1.5 1.5.67 1.5 1.5-.67 1.5-1.5 1.5Zm0-2c-.28 0-.5.22-.5.5s.22.5.5.5.5-.22.5-.5-.22-.5-.5-.5Z"/>
</svg>
