<svg xmlns="http://www.w3.org/2000/svg" viewBox="0 0 20 20">
  <path d="M13.49 11c-.28 0-.5-.22-.5-.5V7h-3.5c-.28 0-.5-.22-.5-.5s.22-.5.5-.5h3.5V2.5c0-.28.22-.5.5-.5s.5.22.5.5V6h3.5c.28 0 .5.22.5.5s-.22.5-.5.5h-3.5v3.5c0 .28-.22.5-.5.5Z"/>
  <path d="M13 18H7c-.28 0-.5-.22-.5-.5s.22-.5.5-.5h2.5v-2H6.1c-1.33 0-2 0-2.58-.27-.52-.24-.94-.62-1.21-1.1C2 13.08 2 12.46 2 11.23V7.78c0-1.23 0-1.85.31-2.4.27-.48.69-.86 1.21-1.1.58-.27 1.25-.27 2.58-.27h.41c.28 0 .5.22.5.5s-.22.5-.5.5H6.1c-1.19 0-1.78 0-2.16.18-.33.15-.59.39-.76.69C3 6.2 3 6.74 3 7.79v3.45c0 1.06 0 1.59.18 1.91.16.29.43.54.76.69.38.18.98.18 2.16.18h7.8c1.19 0 1.78 0 2.16-.18.32-.15.59-.39.76-.69.09-.17.14-.39.16-.77v-1.37c0-.28.22-.5.5-.5s.5.22.5.5v1.4c-.03.57-.12.92-.29 1.23-.27.48-.69.86-1.21 1.1-.58.27-1.25.27-2.58.27h-3.4v2H13c.28 0 .5.22.5.5s-.22.5-.5.5V18Z"/>
</svg>
