<svg xmlns="http://www.w3.org/2000/svg" viewBox="0 0 20 20">
  <path d="m11.2 6.19 2.48-2.48v6.79c0 .28.22.5.5.5s.5-.22.5-.5V3.71l2.48 2.48c.2.2.51.2.71 0 .2-.19.2-.51 0-.71l-3.33-3.33a.51.51 0 0 0-.35-.15.47.47 0 0 0-.35.15l-3.33 3.33c-.2.2-.2.51 0 .71.2.2.51.2.71 0h-.02Z"/>
  <path d="M17.5 11.07c-.28 0-.5.22-.5.5 0 .88-.03 1.3-.18 1.57-.16.29-.43.54-.76.69-.38.18-.98.18-2.16.18H6.1c-1.19 0-1.78 0-2.16-.18-.32-.15-.59-.39-.76-.68C3 12.83 3 12.29 3 11.24V7.79c0-1.06 0-1.59.18-1.91.17-.3.43-.53.76-.69.38-.18.98-.18 2.16-.18h1.41c.28 0 .5-.22.5-.5s-.22-.5-.5-.5H6.1c-1.33 0-2 0-2.58.27-.52.24-.94.62-1.21 1.1C2 5.93 2 6.55 2 7.78v3.45c0 1.23 0 1.85.31 2.4.27.48.7.87 1.21 1.1.58.27 1.25.27 2.58.27h3.4v2H7c-.28 0-.5.22-.5.5s.22.5.5.5h6c.28 0 .5-.22.5-.5s-.22-.5-.5-.5h-2.5v-2h3.4c1.33 0 2 0 2.58-.27.51-.24.94-.63 1.21-1.1.29-.52.31-1.12.31-2.05 0-.28-.22-.5-.5-.5v-.01Z"/>
</svg>
