<svg xmlns="http://www.w3.org/2000/svg" viewBox="0 0 20 20">
  <path d="M13.5 10.99c-2.48 0-4.5-2.02-4.5-4.5 0-1.23.49-2.34 1.29-3.15 0 0 .05-.05.06-.05.81-.8 1.93-1.29 3.15-1.29C15.98 2 18 4.02 18 6.5c0 1.23-.49 2.34-1.29 3.15 0 .01-.05.05-.06.06-.81.8-1.92 1.29-3.15 1.29v-.01Zm-2.8-6.6c-.44.58-.7 1.31-.7 2.1 0 1.93 1.57 3.5 3.5 3.5.79 0 1.51-.26 2.1-.7l-4.9-4.9Zm5.61 4.2c.44-.58.7-1.31.7-2.1 0-1.93-1.57-3.5-3.5-3.5-.78 0-1.51.26-2.09.7l4.89 4.9Z"/>
  <path d="M13 18.06H7c-.28 0-.5-.22-.5-.5s.22-.5.5-.5h2.5v-2H6.1c-1.33 0-2 0-2.58-.27-.52-.24-.94-.62-1.21-1.1C2 13.14 2 12.52 2 11.29V7.84c0-1.23 0-1.85.31-2.4.27-.48.69-.86 1.21-1.1.58-.27 1.25-.27 2.58-.27h.41c.28 0 .5.22.5.5s-.22.5-.5.5H6.1c-1.19 0-1.78 0-2.16.18-.33.15-.59.39-.76.69C3 6.26 3 6.8 3 7.85v3.45c0 1.06 0 1.59.18 1.91.16.29.43.54.76.69.38.18.98.18 2.16.18h7.8c1.19 0 1.78 0 2.16-.18.32-.15.59-.39.76-.69.09-.17.14-.39.16-.77.02-.28.25-.49.53-.47.28.02.49.25.47.53-.03.54-.12.89-.29 1.2-.27.48-.69.86-1.21 1.1-.58.27-1.25.27-2.58.27h-3.4v2H13c.28 0 .5.22.5.5s-.22.5-.5.5v-.01Z"/>
</svg>
