<svg xmlns="http://www.w3.org/2000/svg" viewBox="0 0 20 20">
  <path d="M13.5 11C11.02 11 9 8.98 9 6.5S11.02 2 13.5 2 18 4.02 18 6.5 15.98 11 13.5 11Zm0-8C11.57 3 10 4.57 10 6.5s1.57 3.5 3.5 3.5S17 8.43 17 6.5 15.43 3 13.5 3Z"/>
  <path d="M13.5 8c-.83 0-1.5-.67-1.5-1.5S12.67 5 13.5 5s1.5.67 1.5 1.5S14.33 8 13.5 8Zm0-2c-.28 0-.5.22-.5.5s.22.5.5.5.5-.22.5-.5-.22-.5-.5-.5ZM7 18c-.28 0-.5-.22-.5-.5s.22-.5.5-.5h2.5v-2H6.1c-1.33 0-2 0-2.58-.27-.52-.24-.94-.62-1.21-1.1C2 13.08 2 12.46 2 11.23V7.78c0-1.23 0-1.85.31-2.4.27-.48.69-.86 1.21-1.1.58-.27 1.25-.27 2.58-.27h.48c.28 0 .5.22.5.5s-.22.5-.5.5H6.1c-1.19 0-1.78 0-2.16.18-.33.15-.59.39-.76.69C3 6.2 3 6.73 3 7.79v3.45c0 1.06 0 1.59.18 1.91.16.29.43.54.76.69.38.18.98.18 2.16.18h7.8c1.19 0 1.78 0 2.16-.18.33-.15.59-.39.76-.69.08-.13.12-.3.15-.55l.02-.2c.02-.28.26-.49.53-.47.28.02.48.25.47.53 0 .09-.01.17-.02.24-.04.39-.12.67-.27.93-.27.48-.69.86-1.21 1.1-.58.27-1.25.27-2.58.27h-3.4v2h2.5c.28 0 .5.22.5.5s-.22.5-.5.5H7Z"/>
</svg>
