<svg xmlns="http://www.w3.org/2000/svg" viewBox="0 0 20 20">
  <path d="M2 9c0 .28.22.5.5.5h5.46l-1.65 1.65c-.2.2-.2.51 0 .71a.485.485 0 0 0 .7 0l2.5-2.5.01-.01s.07-.09.09-.15c.03-.06.04-.13.04-.2s-.01-.14-.04-.2a.597.597 0 0 0-.09-.15l-.01-.01-2.5-2.5c-.2-.2-.51-.2-.71 0-.2.2-.2.51 0 .71L7.95 8.5H2.5c-.28 0-.5.22-.5.5Z"/>
  <path d="M17.71 4.6c-.26-.55-.68-.99-1.19-1.28C15.93 3 15.25 3 13.91 3h-7.8c-1.34 0-2.02 0-2.61.32-.52.28-.93.72-1.19 1.28-.18.35-.26.75-.29 1.38-.01.28.2.51.48.52.27.03.51-.2.52-.48.02-.48.07-.77.18-.99.17-.36.44-.65.77-.83.37-.2.96-.2 2.13-.2h7.8c1.17 0 1.76 0 2.13.2.33.18.6.47.77.83.2.41.2 1.05.2 2.32v3.3c0 1.27 0 1.91-.2 2.32-.17.36-.44.65-.77.83-.37.2-.96.2-2.13.2H6.1c-1.17 0-1.76 0-2.13-.2-.33-.18-.6-.47-.77-.83-.11-.22-.16-.51-.18-.99-.01-.28-.25-.51-.52-.48-.28.01-.49.25-.48.52.03.63.11 1.03.28 1.38.26.55.67.99 1.2 1.28.59.32 1.27.32 2.61.32h3.4v2h-2.5c-.28 0-.5.22-.5.5s.22.5.5.5h6c.28 0 .5-.22.5-.5s-.22-.5-.5-.5h-2.5v-2h3.4c1.34 0 2.02 0 2.61-.32.52-.28.93-.72 1.2-1.28.29-.62.29-1.33.29-2.75v-3.3c0-1.42 0-2.14-.29-2.75h-.01Z"/>
</svg>
