<svg xmlns="http://www.w3.org/2000/svg" viewBox="0 0 20 20">
  <path d="M14.49 13.96c-1.93 0-3.5-1.57-3.5-3.5v-3.5c0-.5.27-.94.67-1.19V3.21c0-.67.54-1.21 1.21-1.21h3.24c.67 0 1.21.54 1.21 1.21v2.57c.4.24.67.68.67 1.19v3.5c0 1.93-1.57 3.5-3.5 3.5v-.01Zm-2.11-7.38a.39.39 0 0 0-.39.39v3.5a2.5 2.5 0 0 0 5 0v-3.5a.39.39 0 0 0-.39-.39h-4.22Zm.28-1h3.67V3.21c0-.12-.09-.21-.21-.21h-3.24c-.12 0-.21.09-.21.21v2.37h-.01Z"/>
  <path d="M15.22 3.73h-1.47v1h1.47v-1ZM13 18H7c-.28 0-.5-.22-.5-.5s.22-.5.5-.5h2.5v-2H6.1c-1.33 0-2 0-2.58-.27-.52-.24-.94-.62-1.21-1.1C2 13.08 2 12.46 2 11.23V7.78c0-1.23 0-1.85.31-2.4.27-.48.69-.86 1.21-1.1.58-.27 1.25-.27 2.58-.27h2.41c.28 0 .5.22.5.5s-.22.5-.5.5H6.1c-1.19 0-1.78 0-2.16.18-.33.15-.59.39-.76.69C3 6.2 3 6.74 3 7.79v3.45c0 1.06 0 1.59.18 1.91.16.29.43.54.76.69.38.18.98.18 2.16.18h4.92c.28 0 .5.22.5.5s-.22.5-.5.5h-.51v2h2.5c.28 0 .5.22.5.5s-.22.5-.5.5L13 18Z"/>
</svg>
