<svg xmlns="http://www.w3.org/2000/svg" viewBox="0 0 20 20">
  <path d="M17.49 11a.47.47 0 0 1-.35-.15l-1.6-1.6c-.69.54-1.55.86-2.49.86-2.24 0-4.06-1.82-4.06-4.06C8.99 3.81 10.81 2 13.05 2c2.24 0 4.06 1.82 4.06 4.06 0 .94-.32 1.8-.86 2.49l1.6 1.6c.2.2.2.51 0 .71-.1.1-.23.15-.35.15l-.01-.01Zm-4.44-8a3.06 3.06 0 1 0 2.13 5.26c0-.01.02-.02.03-.04.01-.02.02-.02.04-.03A3.06 3.06 0 0 0 13.05 3Z"/>
  <path d="M13 18H7c-.28 0-.5-.22-.5-.5s.22-.5.5-.5h2.5v-2H6.1c-1.33 0-2 0-2.58-.27-.52-.24-.94-.62-1.21-1.1C2 13.08 2 12.46 2 11.23V7.78c0-1.23 0-1.85.31-2.4.27-.48.69-.86 1.21-1.1.58-.27 1.25-.27 2.58-.27h.41c.28 0 .5.22.5.5s-.22.5-.5.5H6.1c-1.19 0-1.78 0-2.16.18-.33.15-.59.39-.76.69C3 6.2 3 6.74 3 7.79v3.45c0 1.06 0 1.59.18 1.91.16.29.43.54.76.69.38.18.98.18 2.16.18h7.8c1.18 0 1.78 0 2.16-.18.33-.15.59-.39.76-.69.13-.24.44-.33.68-.19.24.13.33.44.19.68-.27.48-.69.86-1.21 1.1-.58.27-1.25.27-2.58.27h-3.4v2H13c.28 0 .5.22.5.5s-.22.5-.5.5V18Z"/>
</svg>
