<svg xmlns="http://www.w3.org/2000/svg" viewBox="0 0 20 20">
  <path d="M13 18H7c-.28 0-.5-.22-.5-.5s.22-.5.5-.5h2.5v-2H6.1c-1.33 0-2 0-2.58-.27a2.75 2.75 0 0 1-1.21-1.1C2 13.08 2 12.46 2 11.23V7.78c0-1.23 0-1.85.31-2.4.27-.48.69-.86 1.21-1.1.58-.27 1.25-.27 2.58-.27h1.41c.28 0 .5.22.5.5s-.22.5-.5.5H6.1c-1.19 0-1.78 0-2.16.18-.33.15-.59.39-.76.69C3 6.2 3 6.73 3 7.79v3.45c0 1.06 0 1.59.18 1.91.16.29.43.54.76.68.38.18.98.18 2.16.18h7.8c1.19 0 1.78 0 2.16-.18.33-.15.59-.39.76-.69.15-.27.18-.69.18-1.57 0-.28.22-.5.5-.5s.5.23.5.5c0 .94-.02 1.54-.31 2.05-.27.48-.7.87-1.21 1.1-.58.27-1.25.27-2.58.27h-3.4v2H13c.28 0 .5.22.5.5s-.22.5-.5.5V18Z"/>
  <path d="M14 11.17c-.07 0-.15-.02-.22-.05C13.63 11.05 10 9.28 10 6.5V3.58c0-.21.13-.4.33-.47l2.55-.91c.72-.26 1.51-.26 2.23 0l2.55.91c.2.07.33.26.33.47V6.5c0 2.79-3.63 4.55-3.78 4.62-.07.03-.14.05-.22.05H14Zm-3-7.24V6.5c0 1.82 2.28 3.21 3 3.61.72-.39 3-1.79 3-3.61V3.93l-2.22-.79a2.32 2.32 0 0 0-1.56 0L11 3.93Z"/>
</svg>
