<svg xmlns="http://www.w3.org/2000/svg" viewBox="0 0 20 20">
  <path d="M13 17.99H7c-.28 0-.5-.22-.5-.5s.22-.5.5-.5h2.5v-2H6.1c-1.34 0-2.01 0-2.6-.3a2.73 2.73 0 0 1-1.2-1.2c-.3-.59-.3-1.26-.3-2.6V7.1c0-1.34 0-2.01.3-2.6.26-.52.68-.93 1.2-1.2C4.09 3 4.76 3 6.1 3h7.8c1.34 0 2.01 0 2.6.3.52.27.94.68 1.2 1.2.3.59.3 1.26.3 2.6v3.79c0 1.34 0 2.01-.3 2.6-.27.52-.68.94-1.2 1.2-.59.3-1.26.3-2.6.3h-3.4v2H13c.28 0 .5.22.5.5s-.22.5-.5.5ZM6.1 4c-1.18 0-1.77 0-2.14.19-.33.17-.6.43-.76.76-.19.38-.19.97-.19 2.15v3.79c0 1.18 0 1.77.19 2.14.17.33.43.6.76.77.37.19.97.19 2.14.19h7.8c1.18 0 1.77 0 2.14-.19.33-.17.6-.43.77-.77.19-.37.19-.97.19-2.14V7.1c0-1.18 0-1.77-.19-2.14-.17-.33-.43-.6-.76-.77C15.68 4 15.08 4 13.91 4H6.1Z"/>
</svg>
