<svg xmlns="http://www.w3.org/2000/svg" viewBox="0 0 20 20">
  <path d="M9.68 11.99c-.81 0-1.25 0-1.65-.2-.35-.18-.63-.46-.81-.81-.2-.4-.2-.84-.2-1.65V4.66c0-.81 0-1.25.2-1.65.18-.35.46-.63.81-.81.4-.2.84-.2 1.65-.2h2.7c.81 0 1.25 0 1.65.2.35.18.63.46.81.81.13.25.03.55-.22.67s-.55.03-.67-.22a.828.828 0 0 0-.37-.37C13.4 3 13.04 3 12.38 3h-2.7c-.65 0-1.01 0-1.19.09-.16.08-.29.21-.37.37-.09.18-.09.54-.09 1.19v4.68c0 .65 0 1.01.09 1.19.08.16.21.29.37.37.18.09.54.09 1.19.09.28 0 .5.22.5.5s-.22.5-.5.5v.01Zm.7-3.99h-.7c-.28 0-.5-.22-.5-.5s.22-.5.5-.5h.7c.28 0 .5.22.5.5s-.22.5-.5.5Zm1.9-2.01h-2.6c-.28 0-.5-.22-.5-.5s.22-.5.5-.5h2.6c.28 0 .5.22.5.5s-.22.5-.5.5Z"/>
  <path d="M14.54 11.99c-.28 0-.5-.22-.5-.5v-2h-2c-.28 0-.5-.22-.5-.5s.22-.5.5-.5h2v-2c0-.28.22-.5.5-.5s.5.22.5.5v2h2c.28 0 .5.22.5.5s-.22.5-.5.5h-2v2c0 .28-.22.5-.5.5Z"/>
  <path d="M13 17.99H7c-.28 0-.5-.22-.5-.5s.22-.5.5-.5h2.5v-1.92H6.1c-1.34 0-2.01 0-2.59-.29-.52-.26-.94-.66-1.2-1.17-.3-.58-.3-1.23-.3-2.54V6.99c0-1.31 0-1.96.3-2.54.27-.51.68-.91 1.2-1.17.25-.12.54-.2.9-.24.27-.04.52.17.55.44.03.27-.17.52-.44.55-.25.03-.42.07-.57.15a1.7 1.7 0 0 0-.76.74C3 5.28 3 5.85 3 7v4.08c0 1.14 0 1.72.19 2.08.17.32.43.58.76.74.38.19.97.19 2.15.19h7.8c1.18 0 1.77 0 2.15-.19.33-.16.6-.42.76-.74.11-.21.16-.51.18-1.05 0-.28.25-.52.52-.48.28 0 .49.24.48.52-.02.59-.08 1.07-.29 1.49-.27.51-.68.91-1.2 1.17-.59.29-1.26.29-2.59.29h-3.4v1.92h2.5c.28 0 .5.22.5.5s-.22.5-.5.5l-.01-.03Z"/>
</svg>
