<svg xmlns="http://www.w3.org/2000/svg" viewBox="0 0 20 20">
  <path d="M12.37 8H7.63c-.28 0-.5.22-.5.5s.22.5.5.5h4.74c.28 0 .5-.22.5-.5s-.22-.5-.5-.5Z"/>
  <path d="M17.69 3.37c-.27-.48-.69-.86-1.21-1.1C15.9 2 15.23 2 13.9 2H6.1c-1.33 0-2 0-2.58.27-.52.24-.94.62-1.21 1.1C2 3.92 2 4.54 2 5.77v5.45c0 1.23 0 1.85.31 2.4.27.48.69.86 1.21 1.1.58.27 1.25.27 2.58.27h3.4v2H7c-.28 0-.5.22-.5.5s.22.5.5.5h6c.28 0 .5-.22.5-.5s-.22-.5-.5-.5h-2.5v-2h3.4c1.33 0 2 0 2.58-.27.52-.24.94-.62 1.21-1.1.31-.55.31-1.17.31-2.4V5.78c0-1.23 0-1.85-.31-2.4v-.01ZM17 11.23c0 1.06 0 1.59-.18 1.91-.16.29-.43.53-.76.68-.38.18-.98.18-2.16.18H6.1c-1.19 0-1.78 0-2.16-.18-.33-.15-.59-.39-.76-.68C3 12.81 3 12.28 3 11.23V5.78c0-1.06 0-1.59.18-1.91.16-.29.43-.53.76-.69C4.32 3 4.92 3 6.1 3h7.8c1.19 0 1.78 0 2.16.18.33.15.59.39.76.69.18.32.18.86.18 1.91v5.45Z"/>
</svg>
