<svg xmlns="http://www.w3.org/2000/svg" viewBox="0 0 20 20">
  <path d="M13.83 10.85c.09.09.22.15.35.15.13 0 .26-.05.35-.15l3.33-3.33c.2-.2.2-.51 0-.71-.2-.2-.51-.2-.71 0l-2.48 2.48V2.5c0-.28-.22-.5-.5-.5s-.5.22-.5.5v6.79l-2.48-2.48c-.2-.2-.51-.2-.71 0-.2.19-.2.51 0 .71l3.33 3.33h.02Z"/>
  <path d="M17.5 11.07c-.28 0-.5.22-.5.5 0 .88-.03 1.29-.18 1.57-.16.29-.43.53-.76.68-.38.18-.98.18-2.16.18H6.1c-1.19 0-1.78 0-2.16-.18-.33-.15-.59-.39-.76-.69C3 12.8 3 12.27 3 11.22V7.77c0-1.06 0-1.59.18-1.91.16-.29.43-.53.76-.69.38-.18.98-.18 2.16-.18h1.41c.28 0 .5-.22.5-.5s-.22-.5-.5-.5H6.1c-1.33 0-2 0-2.58.27-.52.24-.94.62-1.21 1.1C2 5.91 2 6.53 2 7.76v3.45c0 1.23 0 1.85.31 2.4.27.48.69.86 1.21 1.1.58.27 1.25.27 2.58.27h3.4v2H7c-.28 0-.5.22-.5.5s.22.5.5.5h6c.28 0 .5-.22.5-.5s-.22-.5-.5-.5h-2.5v-2h3.4c1.33 0 2 0 2.58-.27.52-.24.94-.62 1.21-1.1.28-.51.31-1.12.31-2.05 0-.28-.22-.5-.5-.5v.01Z"/>
</svg>
