<svg xmlns="http://www.w3.org/2000/svg" viewBox="0 0 20 20">
  <path d="M17.85 8.77c.23-.4.18-.9-.13-1.24l-.6-.67V6.7l.6-.67c.31-.35.35-.85.13-1.24l-.44-.77c-.23-.39-.67-.61-1.14-.51l-.9.18c-.04-.02-.08-.05-.12-.07l-.29-.88c-.15-.44-.56-.73-1.01-.73h-.89c-.46 0-.87.3-1.01.72l-.29.88c-.04.02-.08.04-.12.07l-.9-.18c-.46-.09-.91.12-1.14.51l-.44.77c-.23.4-.18.9.13 1.24l.6.67v.16l-.6.67c-.31.35-.35.85-.13 1.24l.44.77c.23.39.67.61 1.14.51l.9-.18c.04.02.08.05.12.07l.29.88c.15.44.56.73 1.01.73h.89c.46 0 .87-.3 1.01-.72l.29-.88c.04-.02.08-.04.12-.07l.9.18c.46.09.91-.12 1.14-.51l.44-.77Zm-7.83-.58.73-.83c.09-.1.13-.23.13-.37 0-.09-.01-.16-.01-.23s0-.14.01-.23c0-.13-.04-.27-.13-.37l-.73-.83s-.02-.05 0-.07l.44-.77s.06-.04.07-.04l1.08.22c.14.03.28 0 .39-.08.12-.08.24-.15.37-.21.12-.06.22-.17.26-.3l.35-1.05s.04-.05.07-.05h.89s.06.02.07.05l.35 1.05c.04.12.13.23.24.29.15.08.28.15.4.23.11.08.25.1.38.08l1.08-.22h.04c.01 0 .03.02.04.04l.44.76v.08l-.73.83a.54.54 0 0 0-.13.37c0 .09.01.16.01.23s0 .14-.01.23c0 .13.04.27.13.37l.73.83s.02.05 0 .07l-.44.77s-.06.04-.07.04l-1.08-.22c-.14-.03-.28 0-.39.08-.12.08-.24.15-.37.21l-.26.29-.35 1.05s-.04.05-.07.05h-.89s-.06-.02-.07-.05l-.35-1.05a.509.509 0 0 0-.24-.28 4.74 4.74 0 0 1-.4-.23.512.512 0 0 0-.38-.08l-1.08.22h-.04c-.01 0-.03-.02-.04-.04l-.44-.76v-.08Z"/>
  <path d="M13.5 4.85a1.92 1.92 0 1 0 .001 3.84 1.92 1.92 0 0 0-.001-3.84Zm0 2.84c-.51 0-.92-.41-.92-.92s.41-.92.92-.92.92.41.92.92-.41.92-.92.92Z"/>
  <path d="M13 18H7c-.28 0-.5-.22-.5-.5s.22-.5.5-.5h2.5v-2H6.1c-1.33 0-2 0-2.58-.27-.52-.24-.94-.62-1.21-1.1C2 13.08 2 12.46 2 11.23V7.78c0-1.23 0-1.85.31-2.4.27-.48.69-.86 1.21-1.1.58-.27 1.25-.27 2.58-.27H7c.28 0 .5.22.5.5s-.22.5-.5.5h-.9c-1.19 0-1.78 0-2.16.18-.33.15-.59.39-.76.69C3 6.2 3 6.73 3 7.79v3.45c0 1.06 0 1.59.18 1.91.16.29.43.54.76.69.38.18.98.18 2.16.18h7.8c1.19 0 1.78 0 2.16-.18.33-.15.59-.39.76-.69.09-.17.14-.39.16-.77.02-.28.25-.49.53-.47.28.02.49.25.47.53-.03.54-.12.89-.29 1.2-.27.48-.69.86-1.21 1.1-.58.27-1.25.27-2.58.27h-3.4v2H13c.28 0 .5.22.5.5s-.22.5-.5.5V18Z"/>
  <path d="M14.63 9.15c-.12.06-.22.16-.26.29Z"/>
</svg>
