<svg xmlns="http://www.w3.org/2000/svg" viewBox="0 0 20 20">
  <path d="M9.29 7.11c.28 0 .5-.22.5-.5C9.79 4.62 11.42 3 13.45 3c1.07 0 1.95.44 2.58 1.16H14.9c-.28 0-.5.22-.5.5s.22.5.5.5h2.15c.28 0 .5-.22.5-.5V2.83c0-.28-.22-.5-.5-.5s-.5.22-.5.5v.43A4.314 4.314 0 0 0 13.45 2c-2.57 0-4.66 2.06-4.66 4.61 0 .28.22.5.5.5Zm7.7-.72c0 1.99-1.63 3.61-3.66 3.61-1.07 0-1.95-.44-2.58-1.16h1.13c.28 0 .5-.22.5-.5s-.22-.5-.5-.5H9.73c-.28 0-.5.22-.5.5v1.83c0 .28.22.5.5.5s.5-.22.5-.5v-.43c.79.78 1.84 1.26 3.1 1.26 2.57 0 4.66-2.06 4.66-4.61 0-.28-.22-.5-.5-.5s-.5.22-.5.5Z"/>
  <path d="M17.51 11.89a.502.502 0 0 0-.53.47c-.02.38-.07.6-.17.77-.16.29-.43.53-.76.69-.38.18-.98.18-2.16.18h-7.8c-1.19 0-1.78 0-2.16-.18-.33-.15-.59-.39-.76-.69-.18-.32-.18-.85-.18-1.91V7.77c0-1.06 0-1.59.18-1.91.17-.3.43-.53.76-.69.38-.18.98-.18 2.16-.18h.41c.28 0 .5-.22.5-.5s-.22-.5-.5-.5h-.41c-1.33 0-2 0-2.58.27-.52.24-.94.62-1.21 1.1-.31.55-.31 1.17-.31 2.4v3.45c0 1.23 0 1.85.31 2.4.27.48.69.86 1.21 1.1.58.27 1.25.27 2.58.27h3.4v2h-2.5c-.28 0-.5.22-.5.5s.22.5.5.5h6c.28 0 .5-.22.5-.5s-.22-.5-.5-.5h-2.5v-2h3.4c1.33 0 2 0 2.58-.27.52-.24.94-.62 1.21-1.1.18-.31.26-.66.29-1.21a.496.496 0 0 0-.47-.53l.01.02Z"/>
</svg>
