<svg xmlns="http://www.w3.org/2000/svg" viewBox="0 0 20 20">
  <path d="M9.48 17H6.1c-.28 0-.5-.22-.5-.5s.22-.5.5-.5H8v-1.66H5.38c-1.09 0-1.63 0-2.12-.24-.44-.22-.78-.56-1.01-.98C2 12.64 2 12.1 2 11.04V7.31c0-1.06 0-1.6.25-2.08.23-.43.58-.77 1.01-.99C3.75 4 4.3 4 5.38 4h6.24c1.08 0 1.63 0 2.12.24.44.22.79.56 1.01.98.13.25.03.55-.21.67-.25.13-.55.03-.67-.21-.12-.23-.32-.43-.57-.55-.28-.14-.78-.14-1.68-.14H5.38c-.9 0-1.4 0-1.68.14-.25.12-.44.31-.57.55-.14.27-.14.75-.14 1.62v3.73c0 .87 0 1.35.14 1.62.12.24.32.43.57.55.28.14.78.14 1.68.14h4.1c.28 0 .5.22.5.5s-.22.5-.5.5H9V16h.48c.28 0 .5.22.5.5s-.22.5-.5.5Zm6.03-6h-1.02c-.28 0-.5-.22-.5-.5s.22-.5.5-.5h1.02c.28 0 .5.22.5.5s-.22.5-.5.5Z"/>
  <path d="M16.17 16.99h-2.33c-.52 0-.84 0-1.13-.18-.25-.15-.44-.37-.57-.65-.13-.3-.13-.63-.13-1.23v-4.87c0-.59 0-.92.13-1.23.12-.28.32-.51.57-.66.3-.18.61-.18 1.13-.18h2.33c.52 0 .84 0 1.13.18.25.15.45.38.57.66.13.3.13.63.13 1.23v4.87c0 .59 0 .92-.13 1.23-.12.28-.32.51-.57.65-.3.18-.61.18-1.13.18Zm-2.34-7.98c-.29 0-.56 0-.62.04-.07.04-.12.11-.16.2-.05.11-.05.4-.05.83v4.87c0 .43 0 .71.05.83.04.09.1.16.16.2.06.04.33.04.62.04h2.33c.29 0 .56 0 .62-.04a.43.43 0 0 0 .16-.19c.05-.11.05-.4.05-.83v-4.87c0-.43 0-.71-.05-.83a.409.409 0 0 0-.16-.2c-.06-.04-.33-.04-.62-.04h-2.33v-.01Z"/>
</svg>
