<svg xmlns="http://www.w3.org/2000/svg" viewBox="0 0 20 20">
  <path d="M14 6.12c.28 0 .5-.22.5-.5V2.5c0-.28-.22-.5-.5-.5s-.5.22-.5.5v3.12c0 .28.22.5.5.5Z"/>
  <path d="M17.92 5.23c-.15-.78-.53-1.49-1.09-2.05-.2-.2-.51-.2-.71 0-.2.2-.2.51 0 .71.42.42.71.95.82 1.54.12.58.06 1.19-.17 1.73s-.61 1.02-1.1 1.35a2.988 2.988 0 0 1-3.34 0c-.49-.33-.88-.8-1.1-1.35-.23-.55-.29-1.15-.17-1.73.12-.58.4-1.12.82-1.54.2-.2.2-.51 0-.71-.2-.2-.51-.2-.71 0-.56.56-.94 1.27-1.09 2.05-.15.78-.08 1.58.23 2.31.3.73.82 1.36 1.47 1.79.66.44 1.43.67 2.22.67.79 0 1.56-.23 2.22-.67.66-.44 1.17-1.06 1.47-1.79.3-.73.38-1.54.23-2.31Z"/>
  <path d="M13 18H7c-.28 0-.5-.22-.5-.5s.22-.5.5-.5h2.5v-2H6.1c-1.33 0-2 0-2.58-.27-.52-.24-.94-.62-1.21-1.1C2 13.08 2 12.46 2 11.23V7.78c0-1.23 0-1.85.31-2.4.27-.48.69-.86 1.21-1.1.58-.27 1.25-.27 2.58-.27h1.41c.28 0 .5.22.5.5s-.22.5-.5.5H6.1c-1.19 0-1.78 0-2.16.18-.33.15-.59.39-.76.69C3 6.2 3 6.74 3 7.79v3.45c0 1.06 0 1.59.18 1.91.17.3.43.53.76.69.38.18.98.18 2.16.18h7.8c1.19 0 1.78 0 2.16-.18.33-.15.59-.39.76-.69.15-.27.18-.69.18-1.57 0-.28.22-.5.5-.5s.5.23.5.5c0 .94-.02 1.55-.31 2.05-.27.48-.69.86-1.21 1.1-.58.27-1.25.27-2.58.27h-3.4v2H13c.28 0 .5.22.5.5s-.22.5-.5.5Z"/>
</svg>
