<svg xmlns="http://www.w3.org/2000/svg" viewBox="0 0 20 20">
  <path d="M10 9.71c-.28 0-.5-.22-.5-.5V6.22c0-.28.22-.5.5-.5s.5.22.5.5v2.99c0 .28-.22.5-.5.5Zm.01 2.35c-.39 0-.7-.31-.7-.7 0-.39.31-.7.7-.7.39 0 .7.31.7.7 0 .39-.31.7-.7.7Z"/>
  <path d="M13 17.99H7c-.28 0-.5-.22-.5-.5s.22-.5.5-.5h2.5v-2H6.1c-1.34 0-2.01 0-2.6-.3a2.68 2.68 0 0 1-1.2-1.2c-.3-.59-.3-1.26-.3-2.6V7.1c0-1.34 0-2.01.3-2.6.26-.52.68-.94 1.2-1.2C4.09 3 4.76 3 6.1 3h7.8c1.34 0 2.01 0 2.6.3.52.27.94.68 1.2 1.2.3.59.3 1.26.3 2.6v3.79c0 1.34 0 2.01-.3 2.6-.27.52-.68.94-1.2 1.2-.59.3-1.26.3-2.6.3h-3.4v2H13c.28 0 .5.22.5.5s-.22.5-.5.5ZM6.1 4c-1.18 0-1.77 0-2.14.19-.33.17-.6.43-.77.76C3 5.32 3 5.92 3 7.09v3.79c0 1.18 0 1.77.19 2.14.17.33.43.6.76.76.38.19.97.19 2.15.19h7.8c1.18 0 1.77 0 2.14-.19.33-.17.6-.43.77-.77.19-.37.19-.97.19-2.14V7.08c0-1.18 0-1.77-.19-2.14-.17-.33-.43-.6-.76-.77-.37-.19-.97-.19-2.14-.19h-7.8L6.1 4Z"/>
</svg>
