<svg xmlns="http://www.w3.org/2000/svg" viewBox="0 0 20 20">
  <path d="M3.78 12.28c-.98 0-1.78-.82-1.78-1.83V3.83C2 2.82 2.8 2 3.78 2h8.81c.98 0 1.78.82 1.78 1.83 0 .28-.22.5-.5.5s-.5-.22-.5-.5c0-.46-.35-.83-.78-.83H3.78c-.43 0-.78.37-.78.83v6.63c0 .46.35.83.78.83.28 0 .5.22.5.5s-.22.5-.5.5v-.01Z"/>
  <path d="M14.04 18H9c-.28 0-.5-.22-.5-.5s.22-.5.5-.5h2.02v-1.52H8.51c-1.14 0-1.71 0-2.22-.26-.45-.23-.81-.59-1.04-1.04-.26-.51-.26-1.08-.26-2.22V8.52c0-1.14 0-1.71.26-2.22.23-.45.59-.81 1.04-1.04C6.8 5 7.37 5 8.51 5h6.01c1.14 0 1.71 0 2.22.26.45.23.81.59 1.04 1.04.26.51.26 1.08.26 2.22v3.44c0 1.14 0 1.71-.26 2.22-.23.45-.59.81-1.04 1.04-.51.26-1.08.26-2.22.26h-2.51V17h2.02c.28 0 .5.22.5.5s-.22.5-.5.5h.01Zm-2.5-3.51h2.99c.95 0 1.47 0 1.76-.15.26-.13.47-.34.61-.61.15-.3.15-.82.15-1.76V8.53c0-.95 0-1.47-.15-1.76-.13-.26-.34-.47-.61-.61-.3-.15-.82-.15-1.76-.15H8.52c-.95 0-1.47 0-1.76.15-.26.13-.47.34-.61.61C6 7.07 6 7.59 6 8.53v3.44c0 .95 0 1.47.15 1.76.13.26.34.47.61.61.3.15.82.15 1.76.15h3.02Z"/>
  <path d="M10.4 12.72c-.1 0-.2-.02-.29-.05-.21-.07-.34-.21-.54-.42l-1.41-1.51c-.19-.2-.18-.52.02-.71.2-.19.52-.18.71.02l1.41 1.5s.08.08.1.11c.02-.03.06-.06.1-.11l3.66-3.91c.19-.2.51-.21.71-.02.2.19.21.51.02.71l-3.66 3.9c-.2.21-.33.35-.54.42a.93.93 0 0 1-.29.05v.02Z"/>
</svg>
