<svg xmlns="http://www.w3.org/2000/svg" viewBox="0 0 20 20">
  <path d="M13.15 4h1.94c.13.37.41.69.8.87.04.02.08.02.12.04v1.95c0 .28.22.5.5.5s.5-.22.5-.5V4.92a1.498 1.498 0 1 0-1.86-2.03c-.02.04-.02.08-.04.12h-1.95c-.28 0-.5.22-.5.5s.22.5.5.5L13.15 4Zm3.56-.96c.25.11.36.41.25.66-.11.25-.41.36-.66.25a.502.502 0 0 1-.25-.66c.11-.25.41-.36.66-.25ZM6.85 16H4.91c-.13-.37-.41-.69-.8-.87a.564.564 0 0 0-.12-.04v-1.94c0-.28-.22-.5-.5-.5s-.5.22-.5.5v1.94a1.498 1.498 0 1 0 1.86 2.03c.02-.04.02-.08.04-.11h1.95c.28 0 .5-.22.5-.5s-.22-.5-.5-.5l.01-.01Zm-3.55.96a.502.502 0 0 1-.25-.66c.11-.25.41-.36.66-.25.25.11.36.41.25.66-.11.25-.41.36-.66.25ZM10 3.21C10 2.49 9.36 2 8.7 2H3.3C2.64 2 2 2.49 2 3.21v3.57C2 7.51 2.64 8 3.3 8h2.21s-.01.04-.01.07V9H4.24c-.28 0-.5.22-.5.5s.22.5.5.5h3.51c.28 0 .5-.22.5-.5s-.22-.5-.5-.5H6.49v-.93s-.01-.05-.01-.07h2.21c.66 0 1.3-.49 1.3-1.21V3.21H10ZM8.93 6.92A.32.32 0 0 1 8.7 7H3.3c-.1 0-.18-.04-.23-.08-.05-.05-.07-.09-.07-.13V3.21s.02-.09.07-.13A.32.32 0 0 1 3.3 3h5.4c.1 0 .18.04.23.08.05.05.07.09.07.13v3.57s-.02.09-.07.13v.01ZM16.7 10h-5.4c-.66 0-1.3.49-1.3 1.21v3.57c0 .72.64 1.21 1.3 1.21h2.21s-.01.04-.01.07v.93h-1.26c-.28 0-.5.22-.5.5s.22.5.5.5h3.51c.28 0 .5-.22.5-.5s-.22-.5-.5-.5h-1.26v-.93s-.01-.04-.01-.07h2.21c.66 0 1.3-.49 1.3-1.21v-3.57c0-.72-.64-1.21-1.3-1.21h.01Zm.3 4.79s-.02.09-.07.13a.32.32 0 0 1-.23.08h-5.4c-.1 0-.18-.04-.23-.08a.171.171 0 0 1-.07-.13v-3.57s.02-.09.07-.13a.32.32 0 0 1 .23-.08h5.4c.1 0 .18.04.23.08.05.05.07.09.07.13v3.57Z"/>
</svg>
