<svg xmlns="http://www.w3.org/2000/svg" viewBox="0 0 20 20">
  <path d="M11.4 3.33c.15-.07.31-.12.46-.17l-.18.3c-.14.24-.06.54.18.68s.54.06.68-.18.29-.46.45-.68c.68.89 1.1 1.93 1.25 3.05.04.27.28.47.56.43.27-.04.47-.29.43-.56a7.476 7.476 0 0 0-1.1-3.04c1.5.45 2.63 1.75 2.83 3.33h-1.42c-.28 0-.5.22-.5.5s.22.5.5.5h1.42c-.04.31-.12.62-.23.92-.1.26.03.55.29.65.06.02.12.03.18.03.2 0 .39-.12.47-.32.22-.57.32-1.16.32-1.77A4.987 4.987 0 0 0 11 2.42c-.25.11-.37.4-.26.66.11.25.4.37.66.26v-.01Zm3.54 5.46a.517.517 0 0 0-.31-.32L13 6.84a.51.51 0 0 0-.32-.32l-.86-.86a.508.508 0 0 0-.38-.38L8.61 2.46c-.2-.2-.51-.2-.71 0-.2.2-.2.51 0 .71l1 1C8.33 5 8 5.99 8 7c0 2.76 2.24 5 5 5 1.02 0 2-.33 2.83-.9l1.07 1.07a.485.485 0 0 0 .7 0c.2-.2.2-.51 0-.71l-2.67-2.67h.01Zm-4.15-2.74c-.02.15-.05.29-.06.45h-1.7c.07-.58.27-1.13.58-1.62l1.18 1.18v-.01ZM9.03 7.5h1.7c.1 1.19.5 2.33 1.13 3.33A4.019 4.019 0 0 1 9.03 7.5ZM13 10.72a6.462 6.462 0 0 1-1.27-3.22h.51l1.63 1.63c-.22.57-.49 1.11-.86 1.6l-.01-.01Zm1.14.11c.19-.3.35-.61.5-.93l.47.47c-.31.19-.63.36-.97.46Z"/>
  <path d="M16.48 13.62c-.12.11-.26.2-.42.27-.38.18-.98.18-2.16.18H6.1c-1.19 0-1.78 0-2.16-.18-.33-.15-.59-.39-.76-.69C3 12.88 3 12.35 3 11.29V7.84c0-1.06 0-1.59.18-1.91.16-.29.43-.54.76-.69.38-.18.98-.18 2.16-.18.28 0 .5-.22.5-.5s-.22-.5-.5-.5c-1.33 0-2 0-2.58.27-.52.24-.94.62-1.21 1.1C2 5.98 2 6.6 2 7.83v3.45c0 1.23 0 1.85.31 2.4.27.48.69.86 1.21 1.1.58.27 1.25.27 2.58.27h3.4v2H7c-.28 0-.5.22-.5.5s.22.5.5.5h6c.28 0 .5-.22.5-.5s-.22-.5-.5-.5h-2.5v-2h3.4c1.33 0 2 0 2.58-.27.24-.11.47-.26.66-.43.21-.18.23-.5.04-.71a.495.495 0 0 0-.71-.04l.01.02Z"/>
</svg>
