<svg xmlns="http://www.w3.org/2000/svg" viewBox="0 0 20 20">
  <path d="M13.35 8.88c-.28 0-.5-.22-.5-.5v-.24c0-.93.69-1.67 1.29-2.32.22-.24.45-.48.62-.72.16-.22.24-.47.24-.72C15 3.62 14.25 3 13.34 3c-.91 0-1.66.62-1.66 1.38 0 .28-.22.5-.5.5s-.5-.22-.5-.5c0-1.31 1.19-2.38 2.66-2.38C14.81 2 16 3.07 16 4.38c0 .47-.15.92-.44 1.31-.2.27-.45.54-.7.81-.5.54-1.02 1.1-1.02 1.64v.24c0 .28-.22.5-.5.5h.01Zm.01 3.03c-.36 0-.65-.29-.65-.65 0-.36.29-.65.65-.65.36 0 .65.29.65.65 0 .36-.29.65-.65.65Z"/>
  <path d="M13 18.07H7c-.28 0-.5-.22-.5-.5s.22-.5.5-.5h2.5v-1.92H6.1c-1.34 0-2.01 0-2.59-.29-.52-.26-.94-.66-1.2-1.17-.3-.58-.3-1.23-.3-2.54V7.07c0-1.31 0-1.96.3-2.54.27-.51.68-.91 1.2-1.17.42-.21.89-.26 1.48-.28h2.94c.28 0 .5.22.5.5s-.22.5-.5.5H5.01c-.53.02-.83.07-1.05.18A1.7 1.7 0 0 0 3.2 5c-.19.36-.19.93-.19 2.08v4.08c0 1.14 0 1.72.19 2.08.17.32.43.58.76.74.38.19.97.19 2.15.19h7.8c1.18 0 1.77 0 2.15-.19.33-.16.6-.42.76-.74.19-.36.19-.93.19-2.08V9.08c0-.28.22-.5.5-.5s.5.22.5.5v2.08c0 1.31 0 1.96-.3 2.54-.27.51-.68.91-1.2 1.17-.59.29-1.26.29-2.59.29h-3.4v1.92h2.5c.28 0 .5.22.5.5s-.22.5-.5.5l-.02-.01Z"/>
</svg>
