<svg xmlns="http://www.w3.org/2000/svg" viewBox="0 0 20 20">
  <path d="M13 12c-2.76 0-5-2.24-5-5s2.24-5 5-5 5 2.24 5 5-2.24 5-5 5Zm2.27-4.5c-.11 1.2-.5 2.34-1.13 3.33 1.5-.45 2.63-1.75 2.83-3.33h-1.7Zm-6.24 0c.2 1.59 1.33 2.89 2.83 3.33-.64-1-1.03-2.14-1.13-3.33h-1.7Zm2.7 0c.12 1.16.56 2.28 1.27 3.22.71-.94 1.15-2.05 1.27-3.22h-2.54Zm3.54-1h1.7a3.994 3.994 0 0 0-2.83-3.33c.64 1 1.03 2.14 1.13 3.33Zm-3.54 0h2.54A6.462 6.462 0 0 0 13 3.28c-.71.94-1.15 2.05-1.27 3.22Zm-2.7 0h1.7c.11-1.2.5-2.34 1.13-3.33-1.5.45-2.63 1.75-2.83 3.33Z"/>
  <path d="M13 18.07H7c-.28 0-.5-.22-.5-.5s.22-.5.5-.5h2.5v-2H6.1c-1.33 0-2 0-2.58-.27-.52-.24-.94-.62-1.21-1.1C2 13.15 2 12.53 2 11.3V7.85c0-1.23 0-1.85.31-2.4.27-.47.7-.87 1.21-1.1.58-.27 1.25-.27 2.58-.27.28 0 .5.22.5.5s-.22.5-.5.5c-1.19 0-1.78 0-2.16.18-.32.15-.59.39-.76.69C3 6.27 3 6.8 3 7.86v3.45c0 1.06 0 1.59.18 1.91.16.29.43.53.76.69.38.18.98.18 2.16.18h7.8c1.19 0 1.78 0 2.16-.18.16-.07.3-.17.42-.27.21-.18.52-.16.71.04.18.21.16.52-.04.71-.19.17-.42.31-.66.43-.58.27-1.25.27-2.58.27h-3.4v2h2.5c.28 0 .5.22.5.5s-.22.5-.5.5l-.01-.02Z"/>
</svg>
