<svg xmlns="http://www.w3.org/2000/svg" viewBox="0 0 20 20">
  <path d="M13 18.07H7c-.28 0-.5-.22-.5-.5s.22-.5.5-.5h2.5v-2H6.1c-1.33 0-2 0-2.58-.27-.52-.24-.94-.62-1.21-1.1C2 13.15 2 12.53 2 11.3V7.85c0-1.23 0-1.85.31-2.4.27-.48.69-.86 1.21-1.1.47-.22 1.01-.26 1.97-.27.27.03.5.22.5.5s-.22.5-.5.5c-.81 0-1.25.03-1.56.18-.33.15-.59.39-.76.68-.18.32-.18.86-.18 1.91v3.45c0 1.06 0 1.59.18 1.91.17.29.43.53.76.69.38.18.98.18 2.16.18h7.8c1.19 0 1.78 0 2.16-.18.28-.13.52-.33.69-.57a.5.5 0 0 1 .7-.13.5.5 0 0 1 .13.7c-.27.39-.64.71-1.09.91-.58.27-1.25.27-2.58.27h-3.4v2H13c.28 0 .5.22.5.5s-.22.5-.5.5v-.01Z"/>
  <path d="m17.56 9.24-2.94-2.86-.12-.12c.01-.05.03-.12.06-.24.06-.25.1-.51.1-.77 0-1.81-1.5-3.25-3.32-3.25-.48 0-.95.1-1.36.28a.506.506 0 0 0-.15.82l1.34 1.3c.08.08.13.12.16.16-.03.04-.08.08-.16.16l-.35.34c-.09.09-.14.14-.18.17-.04-.03-.09-.08-.18-.17l-1.34-1.3a.51.51 0 0 0-.44-.13.49.49 0 0 0-.36.28c-.19.41-.3.86-.3 1.34 0 1.81 1.5 3.25 3.32 3.25.27 0 .53-.03.79-.09.12-.03.19-.05.25-.06h.02c.03.02.06.06.13.12l2.94 2.86c.58.57 1.53.57 2.11 0 .59-.58.59-1.52 0-2.09h-.02Zm-.7 1.38c-.2.19-.52.19-.71 0l-2.94-2.86c-.1-.1-.23-.23-.38-.31a.827.827 0 0 0-.38-.1c-.11 0-.21 0-.28.02-.08.02-.18.04-.29.07-.18.04-.36.06-.56.06C10.02 7.5 9 6.48 9 5.25c0-.06.01-.11.02-.17l.72.7c.09.09.17.17.25.23.08.07.19.15.33.19.19.06.4.06.59 0a.87.87 0 0 0 .33-.19c.08-.07.17-.15.25-.23l.35-.34c.09-.09.17-.17.24-.25.07-.08.15-.19.2-.33.07-.19.07-.41 0-.6-.05-.14-.13-.25-.2-.33-.07-.08-.15-.16-.24-.25l-.69-.67c.06 0 .11-.02.16-.02 1.3 0 2.32 1.02 2.32 2.25 0 .18-.02.36-.07.53-.03.11-.05.2-.07.28-.01.07-.03.17-.03.28.01.14.04.25.11.38.05.09.1.15.15.21l.17.17 2.94 2.86c.19.18.19.47 0 .66l.03.01Z"/>
</svg>
