<svg xmlns="http://www.w3.org/2000/svg" viewBox="0 0 20 20">
  <path d="M11.31 11h-1.07c-.3 0-.49 0-.69-.1a.948.948 0 0 1-.42-.42c-.1-.2-.1-.39-.1-.69v-.77c0-.13 0-.22.03-.33.02-.1.06-.19.12-.28.06-.09.12-.16.21-.24l2.28-2.28.12-.12c-.03.01-.03-.06-.05-.17a3.171 3.171 0 1 1 6.31-.43c0 1.75-1.42 3.17-3.17 3.17-.14 0-.29 0-.43-.03-.12-.02-.19-.03-.24-.03.04 0 0 .04-.06.1l-.7.7a.51.51 0 0 1-.35.15h-.39v.39c0 .28-.22.5-.5.5h-.39v.39c0 .28-.22.5-.5.5l-.01-.01Zm-1.28-1h.78v-.39c0-.28.22-.5.5-.5h.39v-.39c0-.28.22-.5.5-.5h.68l.56-.56c.13-.13.21-.21.32-.27.12-.06.21-.09.33-.11.13-.02.26 0 .49.03a2.174 2.174 0 0 0 2.46-2.15c0-1.2-.97-2.17-2.17-2.17s-2.17.97-2.17 2.17c0 .1 0 .2.02.29.03.24.05.36.03.49-.02.12-.05.22-.11.33-.06.11-.15.2-.27.32l-2.35 2.35s.02.02.02.07v.98l-.01.01Zm5.72-4.33c-.28 0-.5-.22-.5-.5 0-.1-.04-.2-.11-.27a.386.386 0 0 0-.27-.11c-.28 0-.5-.22-.5-.5s.22-.5.5-.5c.37 0 .72.14.98.41.26.26.41.61.41.98 0 .28-.22.5-.5.5l-.01-.01Z"/>
  <path d="M13 18H7c-.28 0-.5-.22-.5-.5s.22-.5.5-.5h2.5v-1.92H6.1c-1.34 0-2.01 0-2.59-.29-.52-.26-.94-.66-1.2-1.17-.3-.58-.3-1.23-.3-2.54V7c0-1.31 0-1.96.3-2.54.27-.51.68-.92 1.2-1.17.42-.21.89-.26 1.48-.28h3.97c.28 0 .5.22.5.5s-.22.5-.5.5H5.01c-.53.02-.83.07-1.05.18a1.7 1.7 0 0 0-.76.74c-.19.36-.19.93-.19 2.08v4.08c0 1.14 0 1.72.19 2.08.17.32.43.58.76.74.38.19.97.19 2.15.19h7.8c1.18 0 1.77 0 2.15-.19.33-.17.6-.42.76-.74.19-.36.19-.93.19-2.08v-.57c0-.28.22-.5.5-.5s.5.22.5.5v.57c0 1.31 0 1.96-.3 2.54-.27.51-.68.91-1.2 1.17-.59.29-1.26.29-2.59.29h-3.4v1.92h2.5c.28 0 .5.22.5.5s-.22.5-.5.5L13 18Z"/>
</svg>
