<svg xmlns="http://www.w3.org/2000/svg" viewBox="0 0 20 20">
  <path d="M10.91 4.63c.14-.24.06-.54-.18-.68a.493.493 0 0 0-.68.18c-.36.63-.57 1.36-.57 2.13 0 .66-.15 1.28-.42 1.84a.5.5 0 1 0 .9.44c.33-.69.52-1.46.52-2.27 0-.6.16-1.15.44-1.63l-.01-.01Zm2.83 1.13c-.28 0-.5.22-.5.5 0 1.56-.45 3.01-1.22 4.24-.15.23-.08.54.16.69.23.15.54.08.69-.16a8.923 8.923 0 0 0 1.37-4.77c0-.28-.22-.5-.5-.5Z"/>
  <path d="M13.74 3.88a2.38 2.38 0 0 0-2.38 2.38c0 1.19-.34 2.3-.93 3.24-.01.02-.02.04-.03.05-.14.24-.06.54.17.69.24.14.54.06.69-.17 0-.01.01-.02.02-.03a7.01 7.01 0 0 0 1.08-3.77c0-.76.62-1.38 1.38-1.38.76 0 1.38.62 1.38 1.38 0 .46-.03.9-.09 1.34-.04.27.15.53.43.56.27.04.53-.15.56-.43.07-.48.1-.98.1-1.48a2.38 2.38 0 0 0-2.38-2.38Zm1.62 4.73a.499.499 0 0 0-.62.35c-.17.6-.39 1.17-.67 1.72-.12.25-.02.55.22.67.25.12.55.02.67-.22.3-.6.55-1.24.74-1.9a.501.501 0 0 0-.34-.62Z"/>
  <path d="M13.74 2c-.78 0-1.5.21-2.13.57-.24.14-.32.44-.18.68.14.24.44.32.68.18.48-.28 1.04-.44 1.63-.44 1.8 0 3.26 1.46 3.26 3.26 0 1.12-.16 2.2-.45 3.22a.501.501 0 0 0 .96.28c.32-1.11.49-2.28.49-3.49C18 3.9 16.09 2 13.74 2ZM13 18H7c-.28 0-.5-.22-.5-.5s.22-.5.5-.5h2.5v-2H6.1c-1.33 0-2 0-2.58-.27-.52-.24-.94-.62-1.21-1.1C2 13.08 2 12.46 2 11.23V7.78c0-1.23 0-1.85.31-2.4.27-.48.69-.86 1.21-1.1.58-.27 1.25-.27 2.58-.27H7c.28 0 .5.22.5.5s-.22.5-.5.5h-.9c-1.19 0-1.78 0-2.16.18-.33.15-.59.39-.76.69C3 6.2 3 6.73 3 7.79v3.45c0 1.06 0 1.59.18 1.91.17.29.43.53.76.69.38.18.98.18 2.16.18h7.8c1.19 0 1.78 0 2.16-.18.33-.15.59-.39.76-.69.04-.08.07-.16.1-.26.07-.27.34-.43.6-.37.27.07.43.34.37.6-.05.19-.11.35-.2.51-.27.48-.69.86-1.21 1.1-.58.27-1.25.27-2.58.27h-3.4v2H13c.28 0 .5.22.5.5s-.22.5-.5.5Z"/>
</svg>
