<svg xmlns="http://www.w3.org/2000/svg" viewBox="0 0 20 20">
  <path d="M3.78 12.28c-.98 0-1.78-.82-1.78-1.83V3.83C2 2.82 2.8 2 3.78 2h8.81c.98 0 1.78.82 1.78 1.83 0 .28-.22.5-.5.5s-.5-.22-.5-.5c0-.46-.35-.83-.78-.83H3.78c-.43 0-.78.37-.78.83v6.63c0 .46.35.83.78.83.28 0 .5.22.5.5s-.22.5-.5.5v-.01Z"/>
  <path d="M14.04 18H9.01c-.28 0-.5-.22-.5-.5s.22-.5.5-.5h2.02v-1.52H8.52c-1.14 0-1.71 0-2.22-.26-.45-.23-.81-.59-1.04-1.04C5 13.67 5 13.1 5 11.96V8.52c0-1.14 0-1.71.26-2.22.23-.45.59-.81 1.04-1.04C6.81 5 7.38 5 8.52 5h6.01c1.14 0 1.71 0 2.22.26.45.23.81.59 1.04 1.04.26.51.26 1.08.26 2.22v3.44c0 1.14 0 1.71-.26 2.22-.23.45-.59.81-1.04 1.04-.51.26-1.08.26-2.22.26h-2.51V17h2.02c.28 0 .5.22.5.5s-.22.5-.5.5ZM8.52 6c-.95 0-1.47 0-1.76.15-.26.13-.47.34-.61.61C6 7.06 6 7.58 6 8.52v3.44c0 .95 0 1.47.15 1.76.13.26.34.47.61.61.3.15.82.15 1.76.15h6.01c.95 0 1.47 0 1.76-.15.26-.13.47-.34.61-.61.15-.3.15-.82.15-1.76V8.52c0-.95 0-1.47-.15-1.76-.13-.26-.34-.47-.61-.61-.3-.15-.82-.15-1.76-.15H8.52Z"/>
</svg>
