<svg xmlns="http://www.w3.org/2000/svg" viewBox="0 0 20 20">
  <path d="M5 11.94c.13 0 .26-.05.35-.15.2-.2.2-.51 0-.71L3.7 9.43h5.46c.28 0 .5-.22.5-.5s-.22-.5-.5-.5H3.71l1.65-1.65c.2-.2.2-.51 0-.71-.2-.2-.51-.2-.71 0l-2.5 2.52-.01.01s-.07.09-.09.15c-.03.06-.04.13-.04.2s.01.14.04.2c.02.05.05.1.09.15l.01.01 2.5 2.5c.1.1.23.15.35.15v-.02Z"/>
  <path d="M17.71 4.6c-.26-.55-.68-.99-1.2-1.28C15.92 3 15.24 3 13.9 3H6.1c-1.34 0-2.02 0-2.61.32-.52.28-.93.72-1.2 1.28a.504.504 0 0 0 .91.43c.17-.36.44-.65.77-.83.37-.2.96-.2 2.13-.2h7.8c1.17 0 1.76 0 2.13.2.33.18.6.47.77.83.2.41.2 1.05.2 2.32v3.3c0 1.27 0 1.91-.2 2.32-.17.36-.44.65-.77.83-.37.2-.96.2-2.13.2H6.1c-1.17 0-1.76 0-2.13-.2-.33-.18-.6-.47-.77-.83a.504.504 0 0 0-.91.43c.26.55.68 1 1.19 1.28.59.33 1.27.33 2.61.33h3.4v2h-2.5c-.28 0-.5.22-.5.5s.22.5.5.5h6c.28 0 .5-.22.5-.5s-.22-.5-.5-.5h-2.5v-2h3.4c1.34 0 2.02 0 2.61-.32.52-.28.93-.72 1.2-1.28.29-.62.29-1.33.29-2.75v-3.3c0-1.42 0-2.14-.29-2.75l.01-.01Z"/>
</svg>
