<svg xmlns="http://www.w3.org/2000/svg" viewBox="0 0 20 20">
  <path d="M17.7 6.5a2.73 2.73 0 0 0-1.2-1.2c-.59-.3-1.26-.3-2.6-.3h-.91c-.02-.65-.08-1.1-.29-1.5a2.73 2.73 0 0 0-1.2-1.2C10.91 2 10.24 2 8.9 2H6.1c-1.34 0-2.01 0-2.6.3-.52.27-.94.68-1.2 1.2C2 4.09 2 4.76 2 6.1v4.8c0 1.34 0 2.01.3 2.6.27.52.68.94 1.2 1.2.47.24 1.02.29 1.94.3h.57c.02.66.09 1.1.29 1.5.27.52.68.94 1.2 1.2.59.3 1.26.3 2.6.3h3.8c1.34 0 2.01 0 2.6-.3.52-.27.94-.68 1.2-1.2.3-.59.3-1.26.3-2.6V9.1c0-1.34 0-2.01-.3-2.6Zm-11.4 0C6 7.09 6 7.76 6 9.1V14h-.56c-.75 0-1.19-.04-1.49-.19-.33-.17-.6-.43-.77-.77-.19-.37-.19-.96-.19-2.14V6.1c0-1.18 0-1.77.19-2.14.17-.33.43-.6.77-.76.37-.19.97-.19 2.14-.19h2.8c1.18 0 1.77 0 2.14.19.33.17.6.43.77.77.12.23.16.56.18 1.04h-1.89c-1.34 0-2.01 0-2.6.3-.52.27-.94.68-1.2 1.2h.01V6.5ZM17 13.9c0 1.18 0 1.77-.19 2.14-.17.33-.43.6-.76.77-.37.19-.97.19-2.14.19h-3.8c-1.18 0-1.77 0-2.14-.19-.33-.17-.6-.43-.77-.77-.19-.37-.19-.96-.19-2.14V9.1c0-1.18 0-1.77.19-2.14.17-.33.43-.6.76-.76.37-.19.97-.19 2.14-.19h3.8c1.18 0 1.77 0 2.14.19.33.17.6.43.76.76.19.38.19.97.19 2.14v4.8H17Z"/>
  <path d="M12.45 12H9.5c-.28 0-.5.22-.5.5s.22.5.5.5h2.95c.28 0 .5-.22.5-.5s-.22-.5-.5-.5Zm1.05-3h-4c-.28 0-.5.22-.5.5s.22.5.5.5h4c.28 0 .5-.22.5-.5s-.22-.5-.5-.5Z"/>
</svg>
