<svg xmlns="http://www.w3.org/2000/svg" viewBox="0 0 20 20">
  <path d="M17.5 11h-1V8.25h1c.28 0 .5-.22.5-.5s-.22-.5-.5-.5h-1c0-1.11-.03-1.71-.3-2.25A2.73 2.73 0 0 0 15 3.8c-.53-.27-1.14-.3-2.25-.3v-1c0-.28-.22-.5-.5-.5s-.5.22-.5.5v1h-3.5v-1c0-.28-.22-.5-.5-.5s-.5.22-.5.5v1c-1.11 0-1.71.03-2.25.3-.52.27-.94.68-1.2 1.2-.27.53-.3 1.14-.3 2.25h-1c-.28 0-.5.22-.5.5s.22.5.5.5h1V11h-1c-.28 0-.5.22-.5.5s.22.5.5.5h1v.4c0 1.34 0 2.01.3 2.6.27.52.68.94 1.2 1.2.53.27 1.14.3 2.25.3v1c0 .28.22.5.5.5s.5-.22.5-.5v-1h3.5v1c0 .28.22.5.5.5s.5-.22.5-.5v-1c1.11 0 1.71-.03 2.25-.3.52-.27.94-.68 1.2-1.2.3-.59.3-1.26.3-2.6V12h1c.28 0 .5-.22.5-.5s-.22-.5-.5-.5Zm-2 1.4c0 1.18 0 1.77-.19 2.14-.17.33-.43.6-.77.77-.37.19-.97.19-2.14.19H7.6c-1.18 0-1.77 0-2.14-.19-.33-.17-.6-.43-.77-.76-.19-.37-.19-.97-.19-2.14v-4.8c0-1.18 0-1.77.19-2.14.17-.33.43-.6.77-.77.37-.19.97-.19 2.14-.19h4.8c1.18 0 1.77 0 2.14.19.33.17.6.43.77.76.19.37.19.97.19 2.14v4.8Z"/>
  <path d="M12.27 7.15C11.98 7 11.69 7 11.16 7H8.83c-.53 0-.82 0-1.1.15-.25.13-.45.33-.58.58C7 8.02 7 8.31 7 8.84v2.33c0 .53 0 .82.15 1.11.13.25.33.46.58.58.29.15.58.15 1.11.15h2.33c.53 0 .82 0 1.1-.14.25-.13.45-.33.58-.58.15-.29.15-.58.15-1.1V8.86c0-.53 0-.82-.15-1.11-.13-.25-.33-.45-.58-.58v-.02ZM12 11.17c0 .31 0 .58-.04.65a.36.36 0 0 1-.15.15c-.07.04-.34.04-.65.04H8.83c-.31 0-.58 0-.65-.04a.294.294 0 0 1-.14-.15C8 11.75 8 11.48 8 11.17V8.84c0-.31 0-.58.04-.65a.36.36 0 0 1 .15-.15C8.26 8 8.53 8 8.84 8h2.33c.31 0 .58 0 .65.04.06.03.11.08.15.15.04.07.04.34.04.65v2.33H12Z"/>
</svg>
