<svg xmlns="http://www.w3.org/2000/svg" viewBox="0 0 20 20">
  <path d="M3.84 13.05c-.33 0-.64-.06-.92-.18s-.51-.32-.67-.58c-.17-.27-.25-.63-.25-1.07V8.99c0-.44.08-.8.25-1.06.17-.27.39-.47.67-.58.28-.12.59-.18.93-.18.37 0 .7.06.98.19.29.12.51.3.67.52.17.22.25.49.25.81 0 .21-.04.35-.13.42-.09.06-.22.1-.39.1-.14 0-.27-.02-.37-.07-.1-.05-.15-.14-.15-.26 0-.06-.01-.14-.03-.22a.825.825 0 0 0-.1-.26.605.605 0 0 0-.25-.22.945.945 0 0 0-.45-.09c-.27 0-.48.08-.63.23-.14.15-.22.38-.22.69v2.23c0 .32.07.55.22.7.15.15.36.22.64.22.18 0 .33-.03.43-.09.11-.06.18-.13.23-.22.05-.09.09-.18.1-.28.02-.1.04-.19.05-.27.01-.12.06-.21.16-.26.1-.05.21-.07.35-.07.18 0 .31.04.4.1.09.07.13.2.13.41 0 .32-.08.6-.25.84-.16.24-.38.42-.67.55-.29.13-.62.19-.99.19l.01-.01Zm4.26.02c-.35 0-.66-.05-.94-.15-.28-.1-.5-.23-.66-.38-.16-.15-.24-.31-.24-.46 0-.07.02-.15.06-.24.04-.09.1-.17.17-.22.07-.06.15-.1.23-.1.08 0 .17.03.24.1.07.06.16.13.26.22.1.08.21.15.35.22.14.06.31.09.51.09.16 0 .31-.02.44-.07a.73.73 0 0 0 .33-.23c.09-.1.13-.23.13-.39 0-.17-.05-.32-.14-.43-.09-.12-.21-.22-.37-.3-.15-.09-.32-.17-.5-.25-.18-.08-.37-.17-.55-.26-.18-.09-.35-.2-.5-.33-.15-.13-.27-.29-.37-.47a1.6 1.6 0 0 1-.14-.69c0-.3.06-.55.17-.75.12-.2.27-.36.46-.49s.4-.22.63-.27c.23-.06.46-.09.69-.09.12 0 .27.01.43.03.17.02.34.05.5.1.17.05.31.12.42.2.11.08.17.18.17.31 0 .06-.02.14-.05.22a.62.62 0 0 1-.14.23c-.06.06-.14.1-.23.1s-.17-.02-.26-.07c-.08-.05-.19-.1-.32-.15-.13-.05-.3-.08-.53-.08-.19 0-.35.03-.49.08s-.24.12-.31.21a.5.5 0 0 0-.1.33c0 .13.05.26.14.35.1.1.22.18.37.26.15.08.32.15.5.22.18.08.36.16.54.26.19.1.36.21.51.35.15.14.28.31.37.52.09.2.14.45.14.75 0 .38-.08.7-.25.96-.17.26-.39.45-.68.58-.28.13-.61.19-.98.19l-.01-.01Zm4.52-.02a.99.99 0 0 1-.42-.09.407.407 0 0 1-.24-.26l-1.55-5.03s-.02-.06-.02-.08c0-.09.03-.16.1-.22s.15-.11.26-.15c.11-.04.21-.06.3-.06s.16.02.22.05c.06.03.1.08.12.16l1.22 4.34 1.22-4.34c.03-.08.07-.13.13-.16a.51.51 0 0 1 .22-.05.934.934 0 0 1 .56.21c.07.06.1.14.1.22v.08L13.3 12.7c-.03.12-.11.2-.25.26a.99.99 0 0 1-.42.09h-.01Z"/>
  <path d="M13.9 18H8.13c-.38 0-.57 0-.73-.02a2.769 2.769 0 0 1-2.37-2.37c-.02-.16-.02-.35-.02-.73 0-.28.22-.5.5-.5s.5.22.5.5c0 .31 0 .47.02.6.1.78.72 1.4 1.51 1.5.13.02.29.01.6.02h5.77c1.18 0 1.77 0 2.14-.19.33-.17.6-.43.76-.77.19-.37.19-.97.19-2.14V8.49c0-.51 0-.77-.05-.97-.04-.18-.11-.35-.21-.51-.11-.17-.29-.35-.64-.71l-2.4-2.4c-.36-.36-.54-.54-.72-.65-.16-.1-.33-.17-.51-.21-.2-.05-.46-.05-.97-.05H8.12c-.32 0-.47 0-.61.01-.78.1-1.4.72-1.5 1.51-.02.13-.01.29-.01.6 0 .28-.22.5-.5.5s-.5-.22-.5-.5c0-.38 0-.57.02-.73.16-1.22 1.14-2.19 2.37-2.36.16-.02.35-.02.73-.02h3.38c.57 0 .88 0 1.2.08.28.07.55.18.8.33.28.17.5.39.9.79l2.4 2.4c.41.41.63.63.8.9.15.25.26.52.33.8.08.32.08.63.08 1.2v5.41c0 1.34 0 2.01-.3 2.6-.26.52-.68.94-1.2 1.2-.59.3-1.26.3-2.6.3L13.9 18Z"/>
</svg>
