<svg xmlns="http://www.w3.org/2000/svg" viewBox="0 0 20 20">
  <path d="M15 12c-.86 0-1.63.37-2.18.95L9.74 9.87l3.08-2.82c.55.58 1.32.95 2.18.95 1.65 0 3-1.35 3-3s-1.35-3-3-3-3 1.35-3 3c0 .44.1.86.27 1.23-.04.02-.08.04-.11.07l-10 9.16c-.2.19-.22.5-.03.71.1.11.23.16.37.16.12 0 .24-.04.34-.13l6.17-5.65 3.14 3.14s.08.06.12.08c-.17.38-.27.79-.27 1.23 0 1.65 1.35 3 3 3s3-1.35 3-3-1.35-3-3-3Zm0-9c1.1 0 2 .9 2 2s-.9 2-2 2-2-.9-2-2 .9-2 2-2Zm0 14c-1.1 0-2-.9-2-2s.9-2 2-2 2 .9 2 2-.9 2-2 2ZM6.75 8.7c.1.09.22.13.34.13.14 0 .27-.05.37-.16.19-.2.17-.52-.03-.71L2.84 3.8a.514.514 0 0 0-.71.03c-.19.2-.17.52.03.71l4.58 4.17.01-.01Z"/>
</svg>
