<svg xmlns="http://www.w3.org/2000/svg" viewBox="0 0 20 20">
  <path d="M17.78 3.09c-.19-.38-.5-.68-.87-.87C16.48 2 16.02 2 15.1 2H9.25c-.28 0-.5.23-.5.5s.22.5.5.5h5.85c.73 0 1.14 0 1.35.11.19.1.34.25.44.44.11.21.11.62.11 1.35v2.84c0 .61 0 .95-.08 1.13-.1.25-.29.44-.54.54-.19.08-1.05.08-1.51.08h-.88l.21-.24c.31-.35.35-.85.13-1.24l-.44-.77c-.23-.39-.67-.61-1.14-.51l-.89.18s-.08-.05-.12-.07l-.29-.87c-.15-.44-.55-.73-1.01-.73h-.88c-.46 0-.86.3-1.01.72l-.29.87s-.08.04-.12.07l-.89-.18c-.46-.1-.91.12-1.14.51L5.67 8c-.23.4-.18.9.13 1.24l.22.25h-.9c-.94 0-1.54.01-1.88.15-.49.2-.88.59-1.08 1.08-.16.38-.16.76-.16 1.53v2.85c0 .89 0 1.38.22 1.81.19.38.5.68.87.87.43.22.89.22 1.81.22h5.48c.28 0 .5-.22.5-.5s-.22-.5-.5-.5H4.9c-.73 0-1.14 0-1.35-.11-.19-.1-.34-.25-.44-.44C3 16.24 3 15.83 3 15.1v-2.85c0-.61 0-.95.08-1.13.1-.25.29-.44.54-.54.19-.08 1.01-.08 1.5-.08h.91l-.23.25c-.31.35-.35.85-.13 1.24l.44.77c.23.39.67.61 1.14.51l.89-.18s.08.05.12.07l.29.87c.15.44.55.72 1.01.72h.88c.46 0 .86-.3 1.01-.72l.29-.88s.08-.04.12-.07l.89.18c.46.1.91-.12 1.14-.51l.44-.77c.23-.4.18-.9-.13-1.24v.02l-.24-.26h.91c.92 0 1.55-.01 1.89-.15.49-.2.88-.59 1.08-1.08.15-.37.15-.75.15-1.52V4.91c0-.92 0-1.38-.22-1.81l.01-.01Zm-4.33 8.39v.02l-.44.76s-.02.03-.04.03h-.03l-1.08-.22c-.14-.03-.28 0-.39.08-.11.08-.23.15-.37.21-.12.06-.22.16-.26.29l-.35 1.04s-.01.03-.03.04c-.01 0-.03.01-.04.01h-.88s-.06-.02-.07-.05l-.35-1.05a.478.478 0 0 0-.24-.28 4.74 4.74 0 0 1-.4-.23c-.11-.08-.25-.1-.38-.08l-1.08.22h-.04s-.03-.02-.04-.03l-.44-.76v-.07l.73-.83c.09-.1.13-.23.13-.37 0-.09-.01-.16-.01-.23s0-.14.01-.23c0-.13-.04-.27-.13-.37l-.73-.82s-.02-.05 0-.07l.44-.77s.02-.03.04-.03h.03l1.08.22c.14.03.28 0 .39-.08.11-.08.23-.15.37-.21.12-.06.22-.16.26-.29l.35-1.04s.01-.03.03-.04h.92s.06.02.07.05l.35 1.05c.04.12.13.23.24.28.15.08.28.15.4.23.11.08.25.1.38.08l1.08-.22h.04s.03.02.04.03l.44.76v.07l-.73.82a.54.54 0 0 0-.13.37c0 .09.01.16.01.23s0 .14-.01.23c0 .13.04.27.13.37l.73.82s.02.05 0 .07v-.01Zm4.11 2.61c-.17-.09-.34-.09-.55-.09h-2.04c-.21 0-.37 0-.54.09a.79.79 0 0 0-.35.35c-.08.17-.08.33-.08.54v2.04c0 .21 0 .37.09.55.08.15.2.27.35.35.17.09.33.09.54.09h2.04c.22 0 .37 0 .55-.09.15-.08.27-.2.35-.35.09-.17.09-.33.09-.54v-2.04c0-.21 0-.37-.09-.54a.844.844 0 0 0-.35-.35l-.01-.01ZM16.99 17h-2v-2h2v2ZM2.44 5.91c.17.09.33.09.54.09h2.04c.22 0 .37 0 .55-.09.15-.08.27-.2.35-.35.08-.17.08-.33.08-.54V2.98c0-.21 0-.37-.09-.54a.844.844 0 0 0-.35-.35C5.39 2 5.22 2 5.01 2H2.98c-.21 0-.37 0-.54.09a.79.79 0 0 0-.35.35C2 2.61 2 2.77 2 2.98v2.04c0 .21 0 .37.09.55.08.15.2.27.35.35v-.01ZM3 3h2v2H3V3Z"/>
  <path d="M9.98 8.09a1.92 1.92 0 1 0 .001 3.841A1.92 1.92 0 0 0 9.98 8.09Zm0 2.84c-.51 0-.92-.41-.92-.92s.41-.92.92-.92.92.41.92.92-.41.92-.92.92Z"/>
</svg>
