<svg xmlns="http://www.w3.org/2000/svg" viewBox="0 0 20 20">
  <path d="M11.06 8.08C10.89 8 10.73 8 10.52 8H8.48c-.21 0-.37 0-.54.08a.79.79 0 0 0-.35.35c-.09.17-.09.34-.09.54v.45H4.88V6.74h.78c.25 0 .44 0 .62-.1.17-.08.3-.22.38-.38.09-.19.09-.37.09-.62V3.1c0-.25 0-.43-.09-.62a.823.823 0 0 0-.38-.38C6.09 2 5.91 2 5.66 2H3.1c-.25 0-.44 0-.62.1-.17.08-.3.22-.38.38-.1.19-.1.37-.1.62v2.55c0 .25 0 .44.1.62.08.17.22.3.38.38.19.1.37.1.62.1h.77v6.75c0 .97 0 1.45.21 1.9.19.4.49.71.87.92.43.23.92.23 1.82.23h.72v.47c0 .21 0 .37.09.54.08.15.2.27.35.35.17.09.34.09.55.09h2.04c.21 0 .37 0 .54-.09.15-.08.27-.2.35-.35.09-.17.09-.33.09-.54v-2.04c0-.21 0-.37-.09-.54a.868.868 0 0 0-.35-.36c-.17-.08-.33-.08-.54-.08H8.48c-.21 0-.37 0-.54.08a.79.79 0 0 0-.35.35c-.09.17-.09.34-.09.54v.57h-.72c-.73 0-1.13 0-1.34-.11-.19-.1-.34-.27-.44-.47-.11-.24-.11-.67-.11-1.46v-3.07h2.62v.59c0 .21 0 .37.09.54.08.15.2.27.35.35.17.09.34.09.55.09h2.04c.21 0 .37 0 .54-.09.15-.08.27-.2.35-.35.09-.17.09-.33.09-.54V8.98c0-.21 0-.37-.09-.54a.868.868 0 0 0-.35-.36h-.02ZM3 5.75V3h2.75v2.75H3ZM8.5 15h2v2h-2v-2Zm2-4h-2V9h2v2Zm7-1.57h-4c-.28 0-.5.22-.5.5s.22.5.5.5h4c.28 0 .5-.22.5-.5s-.22-.5-.5-.5Z"/>
  <path d="M8.5 4.93h9c.28 0 .5-.22.5-.5s-.22-.5-.5-.5h-9c-.28 0-.5.22-.5.5s.22.5.5.5Zm9 10.57h-4c-.28 0-.5.22-.5.5s.22.5.5.5h4c.28 0 .5-.22.5-.5s-.22-.5-.5-.5Z"/>
</svg>
