<svg xmlns="http://www.w3.org/2000/svg" viewBox="0 0 20 20">
  <path d="M6.67 18H2.9c-.5 0-.9-.4-.9-.9v-3.77c0-.5.4-.9.9-.9h3.77c.5 0 .9.4.9.9v3.77c0 .5-.4.9-.9.9ZM3 17h3.57v-3.57H3V17Zm3.67-5.86H2.9c-.5 0-.9-.4-.9-.9V6.47c0-.5.4-.9.9-.9h3.77c.5 0 .9.4.9.9v3.77c0 .5-.4.9-.9.9Zm-3.67-1h3.57V6.57H3v3.57ZM13.52 18H9.75c-.5 0-.9-.4-.9-.9v-3.77c0-.5.4-.9.9-.9h3.77c.5 0 .9.4.9.9v3.77c0 .5-.4.9-.9.9Zm-3.66-1h3.57v-3.57H9.86V17Zm6.18-8.47c-.08 0-.16-.01-.24-.03l-3.64-.97a.9.9 0 0 1-.64-1.1l.98-3.64c.13-.48.62-.76 1.1-.64l3.64.98a.9.9 0 0 1 .64 1.1l-.98 3.64a.893.893 0 0 1-.87.67l.01-.01Zm-3.53-1.92 3.46.9.92-3.45-3.45-.92-.93 3.48v-.01Z"/>
</svg>
