<svg xmlns="http://www.w3.org/2000/svg" viewBox="0 0 20 20">
  <path d="M16 18c-1.1 0-2-.9-2-2 0-.93.64-1.71 1.5-1.94 0-.99-.02-1.52-.19-1.86-.17-.33-.43-.6-.77-.77-.37-.19-.96-.19-2.14-.19h-1.9v2.81c.86.22 1.5 1.01 1.5 1.94 0 1.1-.9 2-2 2s-2-.9-2-2c0-.93.64-1.71 1.5-1.94v-2.81H7.6c-1.18 0-1.77 0-2.15.19-.33.17-.59.43-.76.76-.17.34-.19.87-.19 1.86.86.22 1.5 1.01 1.5 1.94 0 1.1-.9 2-2 2s-2-.9-2-2c0-.93.64-1.71 1.5-1.94 0-1.15.02-1.77.3-2.31.26-.52.68-.94 1.2-1.2.59-.3 1.26-.3 2.6-.3h1.9V7.49h-4c-.76 0-1.15 0-1.52-.15-.49-.2-.88-.59-1.08-1.08-.15-.37-.15-.75-.15-1.51s0-1.15.15-1.52c.2-.49.59-.88 1.08-1.08C4.35 2 4.73 2 5.5 2h9c.76 0 1.15 0 1.51.15.49.21.88.59 1.08 1.08.15.37.15.75.15 1.52s0 1.15-.15 1.51c-.2.5-.59.88-1.08 1.08-.37.15-.75.15-1.52.15h-4v2.75h1.9c1.34 0 2.01 0 2.6.3.52.27.94.68 1.2 1.2.28.54.3 1.16.3 2.31.86.22 1.5 1.01 1.5 1.94 0 1.1-.9 2-2 2L16 18Zm0-3c-.55 0-1 .45-1 1s.45 1 1 1 1-.45 1-1-.45-1-1-1Zm-6 0c-.55 0-1 .45-1 1s.45 1 1 1 1-.45 1-1-.45-1-1-1Zm-6 0c-.55 0-1 .45-1 1s.45 1 1 1 1-.45 1-1-.45-1-1-1ZM5.5 3c-.61 0-.95 0-1.13.08-.25.1-.44.29-.54.54-.08.18-.08.52-.08 1.13 0 .61 0 .95.08 1.13.1.25.29.44.54.54.18.08.52.08 1.13.08h9c.61 0 .95 0 1.13-.08.25-.1.44-.29.54-.54.08-.18.08-.52.08-1.13 0-.61 0-.95-.08-1.13a.956.956 0 0 0-.54-.54C15.45 3 15.11 3 14.5 3h-9Z"/>
</svg>
