<svg xmlns="http://www.w3.org/2000/svg" viewBox="0 0 20 20">
  <path d="M13.32 10.5c.22.86 1 1.5 1.93 1.5 1.1 0 2-.9 2-2s-.9-2-2-2c-.93 0-1.71.64-1.93 1.5H10.5v-5h2.81c.22.86 1.01 1.5 1.94 1.5 1.1 0 2-.9 2-2s-.9-2-2-2c-.93 0-1.71.64-1.94 1.5H6.69C6.47 2.64 5.68 2 4.75 2c-1.1 0-2 .9-2 2s.9 2 2 2c.93 0 1.71-.64 1.94-1.5H9.5v7.9c0 1.34 0 2.01.3 2.6.27.52.68.94 1.2 1.2.54.28 1.17.3 2.32.3.22.86 1 1.5 1.93 1.5 1.1 0 2-.9 2-2s-.9-2-2-2c-.93 0-1.7.64-1.93 1.5-.98 0-1.52-.02-1.87-.19-.33-.17-.6-.43-.77-.77-.19-.37-.19-.96-.19-2.14v-1.9h2.83ZM15.25 9c.55 0 1 .45 1 1s-.45 1-1 1-1-.45-1-1 .45-1 1-1Zm0-6c.55 0 1 .45 1 1s-.45 1-1 1-1-.45-1-1 .45-1 1-1ZM4.75 5c-.55 0-1-.45-1-1s.45-1 1-1 1 .45 1 1-.45 1-1 1Zm10.5 10c.55 0 1 .45 1 1s-.45 1-1 1-1-.45-1-1 .45-1 1-1Z"/>
</svg>
