<svg xmlns="http://www.w3.org/2000/svg" viewBox="0 0 20 20">
  <path d="M5.97 17.99c-1.28 0-1.93 0-2.49-.26-.51-.23-.91-.6-1.17-1.06-.3-.53-.3-1.12-.3-2.3V4.49c0-.28.22-.5.5-.5s.5.22.5.5v9.88c0 1 0 1.51.17 1.81.15.27.41.5.72.64.36.17.94.17 2.08.17h9.53c.28 0 .5.22.5.5s-.22.5-.5.5H5.97Z"/>
  <path d="M9.71 14.99h-3.8c-.5 0-.9-.4-.9-.9v-2.8c0-.5.4-.9.9-.9h3.8c.5 0 .9.4.9.9v2.8c0 .5-.4.9-.9.9Zm-3.7-1h3.6v-2.6h-3.6v2.6Zm3.7-4.84h-3.8c-.5 0-.9-.4-.9-.9v-2.8c0-.5.4-.9.9-.9h3.8c.5 0 .9.4.9.9v2.8c0 .5-.4.9-.9.9Zm-3.7-1h3.6v-2.6h-3.6v2.6Zm10.09 6.84h-2.8c-.5 0-.9-.4-.9-.9v-2.8c0-.5.4-.9.9-.9h2.8c.5 0 .9.4.9.9v2.8c0 .5-.4.9-.9.9Zm-2.69-1h2.6v-2.6h-2.6v2.6Zm2.97-6.76c-.08 0-.16-.01-.24-.03l-2.7-.72a.9.9 0 0 1-.64-1.1l.72-2.7a.9.9 0 0 1 1.1-.64l2.7.72a.9.9 0 0 1 .64 1.1l-.72 2.7a.893.893 0 0 1-.87.67h.01Zm-2.59-1.67 2.52.65.67-2.51-2.51-.67-.68 2.54v-.01Z"/>
</svg>
