<svg xmlns="http://www.w3.org/2000/svg" viewBox="0 0 20 20">
  <path d="M17.5 4.98h-3.92v-.53c0-.24-.02-.86-.24-1.27a2.18 2.18 0 0 0-.95-.95c-.46-.24-.97-.24-1.98-.24h-.83c-1.01 0-1.52 0-1.98.24-.41.21-.74.54-.95.95-.21.42-.24 1.03-.24 1.27v.53H2.5c-.28 0-.5.22-.5.5s.22.5.5.5H4v7.5c0 1.48 0 2.22.33 2.86.29.57.74 1.02 1.31 1.31.64.33 1.38.33 2.86.33h3.01c1.48 0 2.22 0 2.86-.33.57-.29 1.02-.74 1.31-1.31.33-.64.33-1.38.33-2.86v-7.5h1.49c.28 0 .5-.22.5-.5s-.22-.5-.5-.5ZM7.42 4.46c0-.28.04-.66.13-.82.11-.22.29-.4.51-.51C8.31 3 8.76 3 9.59 3h.83c.83 0 1.28 0 1.53.13.22.11.4.29.51.51.08.16.13.54.13.82v.53H7.43v-.53h-.01Zm7.59 9.03c0 1.32 0 1.98-.22 2.41-.19.38-.5.68-.87.87-.43.22-1.09.22-2.41.22H8.5c-1.32 0-1.98 0-2.41-.22-.38-.19-.68-.49-.87-.87C5 15.47 5 14.81 5 13.49V5.98h10.01v7.51Z"/>
  <path d="M11.5 13.49c.28 0 .5-.22.5-.5V8.98c0-.28-.22-.5-.5-.5s-.5.22-.5.5v4.01c0 .28.22.5.5.5Zm-3 0c.28 0 .5-.22.5-.5V8.98c0-.28-.22-.5-.5-.5s-.5.22-.5.5v4.01c0 .28.22.5.5.5Z"/>
</svg>
