<svg xmlns="http://www.w3.org/2000/svg" viewBox="0 0 20 20">
  <path d="M14.76 18H8.25c-1.04 0-1.56 0-2.03-.24-.42-.21-.76-.55-.97-.97-.24-.47-.24-1-.24-2.03V8.25c0-1.04 0-1.56.24-2.03.21-.42.55-.75.97-.97.47-.24.99-.24 2.03-.24h6.51c1.04 0 1.56 0 2.03.24.42.21.75.55.97.97.24.47.24 1 .24 2.03v6.51c0 1.04 0 1.56-.24 2.03-.21.42-.55.75-.97.97-.47.24-.99.24-2.03.24ZM8.24 6c-.85 0-1.32 0-1.58.13-.23.12-.41.3-.53.53C6 6.92 6 7.39 6 8.24v6.51c0 .85 0 1.32.13 1.58.12.23.3.41.53.53.26.13.73.13 1.58.13h6.51c.85 0 1.32 0 1.58-.13.23-.12.41-.3.53-.53.13-.26.13-.73.13-1.58V8.24c0-.85 0-1.32-.13-1.58-.12-.23-.3-.41-.53-.53C16.07 6 15.6 6 14.75 6H8.24Z"/>
  <path d="M3.12 14.88c-.08 0-.15-.02-.22-.05-.31-.16-.56-.41-.72-.72C2 13.76 2 13.38 2 12.68V4.33c0-.7 0-1.08.18-1.43.16-.31.41-.56.72-.72C3.25 2 3.63 2 4.33 2h8.34c.7 0 1.08 0 1.43.18.31.16.56.41.72.72.12.25.03.55-.22.67s-.55.03-.67-.22a.632.632 0 0 0-.28-.28C13.51 3 13.2 3 12.67 3H4.33c-.52 0-.84 0-.98.07-.12.06-.22.16-.28.28C3 3.49 3 3.8 3 4.33v8.34c0 .52 0 .84.07.98.06.12.16.22.28.28.25.12.35.42.22.67-.09.17-.26.27-.45.27v.01Z"/>
</svg>
