<svg xmlns="http://www.w3.org/2000/svg" viewBox="0 0 20 20">
  <path d="M10 11.96a.47.47 0 0 1-.35-.15c-.2-.2-.2-.51 0-.71l2.65-2.65L9.65 5.8c-.2-.2-.2-.51 0-.71.2-.2.51-.2.71 0l2.79 2.79c.15.15.23.35.23.57 0 .22-.08.41-.23.57l-2.79 2.79c-.1.1-.23.15-.35.15H10ZM17 9a.47.47 0 0 1-.35-.15l-2.79-2.79a.793.793 0 0 1-.23-.57c0-.22.08-.42.23-.57l2.79-2.77c.2-.2.51-.2.71 0 .2.2.2.51 0 .71l-2.65 2.65 2.65 2.65c.2.2.2.51 0 .71-.1.1-.23.15-.35.15L17 9Z"/>
  <path d="M13 17.99H7c-.28 0-.5-.22-.5-.5s.22-.5.5-.5h2.5v-2H6.1c-1.33 0-2 0-2.58-.27-.52-.24-.94-.62-1.21-1.1C2 13.07 2 12.45 2 11.22V7.77c0-1.23 0-1.85.31-2.4.27-.48.69-.86 1.21-1.1C4.1 4 4.77 4 6.1 4H7c.28 0 .5.22.5.5S7.28 5 7 5h-.9c-1.19 0-1.78 0-2.16.18-.33.15-.59.39-.76.69C3 6.19 3 6.72 3 7.78v3.45c0 1.06 0 1.59.18 1.91.16.29.43.53.76.69.38.18.98.18 2.16.18h7.8c1.19 0 1.78 0 2.16-.18.32-.15.59-.39.76-.69.1-.17.14-.39.17-.77.02-.28.25-.49.53-.47.28.02.49.25.47.53-.03.54-.12.89-.29 1.21-.27.48-.69.86-1.21 1.1-.58.27-1.25.27-2.58.27h-3.4v2h2.5c.28 0 .5.22.5.5s-.22.5-.5.5l-.01-.02Z"/>
</svg>
