<svg xmlns="http://www.w3.org/2000/svg" viewBox="0 0 20 20">
  <path d="M11.385 18h-2.77c-.94 0-1.41 0-1.85-.22-.38-.19-.69-.51-.89-.89-.22-.44-.22-.91-.22-1.85v-4.31c0-.94 0-1.41.22-1.85.2-.38.51-.7.89-.89.44-.22.91-.22 1.85-.22h2.77c.94 0 1.41 0 1.85.22.38.19.69.5.89.89.22.44.22.91.22 1.85v4.31c0 .94 0 1.41-.22 1.85-.2.39-.51.7-.89.89-.43.22-.91.22-1.85.22Zm-2.77-9.23c-.76 0-1.17 0-1.4.11-.19.1-.35.26-.45.45-.11.22-.11.64-.11 1.39v4.31c0 .76 0 1.17.11 1.39.1.2.26.36.45.45.22.11.64.11 1.4.11h2.77c.76 0 1.17 0 1.39-.11.19-.1.36-.26.46-.45.11-.22.11-.64.11-1.39v-4.31c0-.76 0-1.17-.11-1.39a.98.98 0 0 0-.45-.45c-.22-.11-.64-.11-1.4-.11h-2.77Z"/>
  <path d="M10.005 15.69a.89.89 0 0 1-.89-.88c0-.48.4-.88.89-.88s.88.4.88.88-.4.88-.88.88Zm-2.24-9.54c-.16 0-.32-.08-.42-.22a.498.498 0 0 1 .14-.69c1.43-.96 3.55-.97 5-.02.23.15.3.46.15.69a.51.51 0 0 1-.69.15c-1.11-.73-2.8-.72-3.9.02-.09.06-.18.08-.28.08v-.01Zm6.58-1.78c-.1 0-.21-.03-.3-.1-1.12-.82-2.55-1.27-4.05-1.27s-2.93.45-4.04 1.27c-.22.16-.54.12-.7-.11a.498.498 0 0 1 .11-.7C6.645 2.52 8.295 2 10.005 2c1.71 0 3.35.52 4.64 1.46.22.16.27.48.11.7-.1.13-.25.2-.4.2l-.01.01Z"/>
</svg>
