<svg xmlns="http://www.w3.org/2000/svg" viewBox="0 0 20 20">
  <path d="M17.69 2.43c-.22-.28-.53-.43-.86-.43h-5.68c-.33 0-.64.16-.86.43-.19.24-.3.56-.3.9v1.54c0 .28.22.5.5.5s.5-.22.5-.5V3.33c0-.11.03-.21.16-.33l5.75.05c.05.07.08.17.08.28v13.33c0 .11-.03.21-.16.33H15.5c-.28 0-.5.22-.5.5s.22.5.5.5h1.32c.33 0 .64-.16.86-.43.19-.25.3-.56.3-.9V3.33c0-.33-.11-.66-.3-.9h.01Z"/>
  <path d="M13.99 6.8a1 1 0 1 0 0-2 1 1 0 0 0 0 2Zm-.81 2.64c-.34-.18-.72-.18-1.39-.18h-1.05c0-.25-.02-.43-.07-.61a2.17 2.17 0 0 0-1.53-1.53c-.27-.07-.55-.07-1.11-.07s-.84 0-1.11.07c-.74.2-1.33.78-1.52 1.53-.05.18-.06.36-.07.61H4.28c-.68 0-1.05 0-1.39.17-.3.15-.55.4-.7.7-.17.34-.17.71-.17 1.39v4.2c0 .68 0 1.05.17 1.39.15.3.4.55.7.7.34.17.72.17 1.39.17h7.52c.68 0 1.05 0 1.39-.17.3-.16.55-.4.7-.7.17-.34.17-.72.17-1.39v-4.2c0-.68 0-1.05-.17-1.39-.15-.3-.4-.55-.7-.7l-.01.01Zm-6.83-.53c.11-.4.42-.71.82-.82.15-.04.4-.04.85-.04.45 0 .71 0 .85.04.4.11.71.42.82.82.02.08.03.19.04.35H6.32c0-.16.01-.27.04-.35h-.01Zm-3.28 1.68c.06-.11.15-.21.27-.26.13-.07.43-.07.94-.07h7.52c.5 0 .81 0 .94.07.11.06.21.15.26.26.07.13.07.43.07.94v.12l-3.55.71a1.18 1.18 0 0 0-.97-.52h-.51c-.24 0-.36 0-.46.02-.36.06-.66.25-.88.52l-3.68-.74v-.11c0-.5 0-.81.07-.94h-.02Zm4.25 2.67a.5.5 0 0 1 .41-.41c.06-.01.14 0 .3 0h.51c.11 0 .2.09.2.2v.67l-.72.49-.71-.46v-.47l.01-.02Zm5.67 3.41c-.06.11-.15.21-.26.26-.13.07-.43.07-.94.07H4.27c-.5 0-.81 0-.94-.07a.618.618 0 0 1-.27-.26c-.07-.13-.07-.43-.07-.94v-3.07l3.32.67v.43c0 .1 0 .19.02.28l.06.18.06.08c.07.1.15.16.23.21l.93.63c.06.04.13.09.26.13l.19.03.12-.04c.11-.03.18-.08.24-.12l.93-.63c.07-.05.16-.11.23-.21l.1-.17.02-.09c.02-.1.02-.18.02-.28v-.41l3.31-.67v3.06c0 .5 0 .81-.07.94l.03-.01Z"/>
</svg>
