<svg xmlns="http://www.w3.org/2000/svg" viewBox="0 0 20 20">
  <path d="M16.66 15.95H3.34c-.19 0-.36-.1-.44-.27-.59-1.13-.9-2.4-.9-3.68 0-4.41 3.59-8 8-8s8 3.59 8 8c0 1.28-.31 2.55-.9 3.68-.09.17-.26.27-.44.27Zm-13.01-1h12.7A7.008 7.008 0 0 0 10 5a7.008 7.008 0 0 0-6.35 9.95Zm6.35-1.7a1.25 1.25 0 0 1 0-2.5c.16 0 .31.03.46.09l2.56-2.56c.2-.2.51-.2.71 0 .2.2.2.51 0 .71l-2.56 2.56a1.25 1.25 0 0 1-1.16 1.71l-.01-.01Zm-5.25-.75c-.28 0-.5-.22-.5-.5 0-3.17 2.58-5.75 5.75-5.75.28 0 .5.22.5.5s-.22.5-.5.5c-2.62 0-4.75 2.13-4.75 4.75 0 .28-.22.5-.5.5Z"/>
</svg>
