<svg xmlns="http://www.w3.org/2000/svg" viewBox="0 0 20 20">
  <path d="M17 5.81c0-.86 0-1.33-.21-1.75a1.94 1.94 0 0 0-.85-.85C15.52 3 15.05 3 14.2 3H6.81c-.86 0-1.33 0-1.74.21-.37.19-.66.48-.85.85-.21.42-.21.89-.21 1.75v.08H2.5c-.28 0-.5.22-.5.5s.22.5.5.5H4V9.5H2.5c-.28 0-.5.22-.5.5s.22.5.5.5H4v2.61H2.5c-.28 0-.5.22-.5.5s.22.5.5.5H4v.08c0 .89 0 1.33.21 1.75.19.37.48.66.85.85.41.21.89.21 1.74.21h7.4c.86 0 1.33 0 1.74-.21.37-.19.66-.48.85-.85.21-.42.21-.86.21-1.75V5.81ZM5.51 15.9a.955.955 0 0 1-.41-.41c-.1-.2-.1-.59-.1-1.3V5.81c0-.71 0-1.09.1-1.3.09-.18.23-.32.41-.41.2-.1.59-.1 1.29-.1H7v12h-.2c-.7 0-1.09 0-1.29-.1Zm10.39-.42c-.09.18-.24.32-.41.41-.2.1-.59.1-1.29.1H8V4h6.19c.7 0 1.09 0 1.29.1.18.09.32.23.41.41.1.2.1.59.1 1.3v8.38c0 .71 0 1.09-.1 1.3l.01-.01Z"/>
  <path d="M13.49 7H10.5c-.28 0-.5.22-.5.5s.22.5.5.5h2.99c.28 0 .5-.22.5-.5s-.22-.5-.5-.5Zm-.99 3h-2c-.28 0-.5.22-.5.5s.22.5.5.5h2c.28 0 .5-.22.5-.5s-.22-.5-.5-.5Z"/>
</svg>
