<svg xmlns="http://www.w3.org/2000/svg" viewBox="0 0 20 20">
  <path d="M14.91 5.1A7.06 7.06 0 0 0 9.07 2C5.17 2 2 5.17 2 9.06c0 2.34 1.16 4.53 3.1 5.85A7.059 7.059 0 0 0 10.93 18c3.89 0 7.06-3.17 7.06-7.06 0-2.42-1.23-4.57-3.09-5.84h.01ZM3 9.06C3 5.72 5.72 3 9.06 3c1.23 0 2.4.38 3.39 1.04-.49-.11-.99-.17-1.52-.17-3.89 0-7.06 3.17-7.06 7.06 0 .52.06 1.03.17 1.52A6.06 6.06 0 0 1 3 9.05v.01ZM10.94 17c-3.34 0-6.06-2.72-6.06-6.06 0-3.34 2.72-6.06 6.06-6.06 3.34 0 6.06 2.72 6.06 6.06 0 3.34-2.72 6.06-6.06 6.06Z"/>
  <path d="M10.94 8.75a2.19 2.19 0 1 0-.001 4.379 2.19 2.19 0 0 0 .001-4.379Zm0 3.37c-.65 0-1.19-.53-1.19-1.19 0-.66.53-1.19 1.19-1.19.66 0 1.19.53 1.19 1.19 0 .66-.53 1.19-1.19 1.19Z"/>
</svg>
