<svg xmlns="http://www.w3.org/2000/svg" viewBox="0 0 20 20">
  <path d="M8.97 16.98h-.04C5.04 16.69 2 13.4 2 9.5a7.503 7.503 0 0 1 8.44-7.44c.23.03.45.07.67.11.27.06.44.33.38.6-.06.27-.33.44-.59.38-.19-.04-.39-.08-.58-.1-.27-.03-.54-.05-.81-.05C5.92 3 3 5.92 3 9.5c0 3.38 2.64 6.23 6.01 6.48a.501.501 0 0 1-.04 1Z"/>
  <path d="M8.65 11.53c-.08 0-.16-.02-.24-.06-.72-.4-1.16-1.15-1.16-1.97 0-.93.59-1.78 1.46-2.11.25-.09.52-.14.79-.14s.5.22.5.5-.22.5-.5.5A1.244 1.244 0 0 0 8.25 9.5c0 .46.25.88.65 1.09.24.13.33.44.2.68a.49.49 0 0 1-.44.26h-.01ZM14.49 18c-.87 0-3.5 0-3.5-2.5V9.24c0-.5.27-.94.67-1.19V5.48c0-.67.54-1.21 1.21-1.21h3.24c.67 0 1.21.54 1.21 1.21v2.57c.4.24.67.68.67 1.19v6.26c0 2.5-2.63 2.5-3.5 2.5Zm-2.11-9.15a.39.39 0 0 0-.39.39v6.26c0 .9.43 1.5 2.5 1.5s2.5-.6 2.5-1.5V9.24a.39.39 0 0 0-.39-.39h-4.22Zm.28-1h3.67V5.48c0-.12-.09-.21-.21-.21h-3.24c-.12 0-.21.09-.21.21v2.37h-.01Z"/>
  <path d="M15.23 6.01h-1.47v1h1.47v-1Z"/>
</svg>
