<svg xmlns="http://www.w3.org/2000/svg" viewBox="0 0 20 20">
  <path d="M10 18c-4.41 0-8-3.59-8-8s3.59-8 8-8 8 3.59 8 8-3.59 8-8 8Zm0-15c-3.86 0-7 3.14-7 7s3.14 7 7 7 7-3.14 7-7-3.14-7-7-7ZM7.04 14.5a.52.52 0 0 1-.31-.1c-.44-.34-.83-.75-1.15-1.21a.5.5 0 0 1 .13-.7.5.5 0 0 1 .7.13c.26.38.58.71.94.99a.496.496 0 0 1-.31.89ZM10 13c-1.65 0-3-1.35-3-3s1.35-3 3-3 3 1.35 3 3-1.35 3-3 3Zm0-5c-1.1 0-2 .9-2 2s.9 2 2 2 2-.9 2-2-.9-2-2-2Zm4-.36a.49.49 0 0 1-.41-.22c-.27-.39-.59-.74-.96-1.03a.496.496 0 0 1-.09-.7c.17-.22.48-.26.7-.09.46.35.85.78 1.18 1.26.15.23.09.54-.13.69a.49.49 0 0 1-.28.09H14Z"/>
</svg>
