<svg xmlns="http://www.w3.org/2000/svg" viewBox="0 0 20 20">
  <path d="M2.46 13c-.14 0-.25-.03-.34-.1a.276.276 0 0 1-.12-.22V7.47c0-.08.04-.16.12-.22.09-.06.2-.1.34-.1h1.42c.36 0 .68.06.96.18.28.12.51.31.67.58.17.27.26.62.26 1.06v2.18c0 .44-.09.8-.26 1.07s-.39.46-.67.58c-.28.12-.6.18-.96.18H2.46V13Zm1.41-.91c.27 0 .47-.08.62-.22.15-.15.22-.39.22-.7V8.99c0-.31-.07-.54-.22-.69-.15-.15-.35-.23-.62-.23h-.84v4.02h.84Zm4.67.96c-.35 0-.67-.06-.95-.18-.28-.12-.51-.32-.67-.58-.17-.27-.25-.63-.25-1.07V8.99c0-.44.08-.8.25-1.06.17-.27.39-.47.66-.58.28-.12.6-.18.96-.18s.67.06.95.18c.29.12.51.31.68.58.17.27.25.62.25 1.06v2.23c0 .44-.08.8-.25 1.07-.17.27-.39.46-.68.58-.28.12-.6.18-.95.18Zm0-.91c.26 0 .47-.07.62-.22.15-.15.22-.38.22-.7V8.99c0-.32-.07-.55-.22-.7-.15-.15-.35-.22-.62-.22s-.47.08-.62.22c-.15.15-.22.38-.22.7v2.23c0 .32.07.55.22.7.15.15.35.22.62.22Zm4.65.91c-.33 0-.64-.06-.92-.18s-.51-.32-.67-.58c-.17-.27-.25-.63-.25-1.07V8.99c0-.44.08-.8.25-1.06.17-.27.39-.47.67-.58.28-.12.59-.18.93-.18.37 0 .7.06.98.19.29.12.51.3.67.52.17.22.25.49.25.81 0 .21-.04.35-.13.42-.09.06-.22.1-.39.1-.14 0-.27-.02-.37-.07-.1-.05-.15-.14-.15-.26 0-.06-.01-.14-.03-.22a.825.825 0 0 0-.1-.26.605.605 0 0 0-.25-.22.945.945 0 0 0-.45-.09c-.27 0-.48.08-.63.23-.14.15-.22.38-.22.69v2.23c0 .32.07.55.22.7.15.15.36.22.64.22.18 0 .33-.03.43-.09.11-.06.18-.13.23-.22.05-.09.09-.18.1-.28.02-.1.04-.19.05-.27.01-.12.06-.21.16-.26.1-.05.21-.07.35-.07.18 0 .31.04.4.1.09.07.13.2.13.41 0 .32-.08.6-.25.84-.16.24-.38.42-.67.55-.29.13-.62.19-.99.19l.01-.01Z"/>
  <path d="M13.9 18H8.13c-.38 0-.57 0-.73-.02a2.769 2.769 0 0 1-2.37-2.37c-.02-.16-.02-.35-.02-.73 0-.28.22-.5.5-.5s.5.22.5.5c0 .31 0 .47.02.6.1.78.72 1.4 1.51 1.5.13.02.29.02.6.02h5.77c1.18 0 1.77 0 2.14-.19.33-.17.6-.43.76-.77.19-.37.19-.97.19-2.14V8.49c0-.51 0-.77-.05-.97-.04-.18-.11-.35-.21-.51-.11-.17-.28-.35-.63-.7L13.7 3.9c-.36-.36-.54-.54-.72-.65-.16-.1-.33-.17-.51-.21-.2-.05-.46-.05-.97-.05H8.12c-.32 0-.47 0-.61.01-.78.1-1.4.72-1.5 1.51-.02.13-.01.29-.01.6 0 .28-.22.5-.5.5s-.5-.22-.5-.5c0-.38 0-.57.02-.73.17-1.22 1.14-2.2 2.37-2.36.16-.02.35-.02.73-.02h3.38c.57 0 .88 0 1.2.08.28.07.55.18.8.33.28.17.5.39.9.79l2.4 2.4c.41.41.63.63.8.9.15.25.26.52.33.8.08.32.08.63.08 1.2v5.41c0 1.34 0 2.01-.3 2.6-.27.52-.68.94-1.2 1.2-.59.3-1.26.3-2.6.3L13.9 18Z"/>
</svg>
