<svg xmlns="http://www.w3.org/2000/svg" viewBox="0 0 20 20">
  <path d="M10 18c-.28 0-.5-.22-.5-.5v-1.23h-.85c-1.76 0-3.19-1.43-3.19-3.19 0-.28.22-.5.5-.5s.5.22.5.5c0 1.21.98 2.19 2.19 2.19h2.5c1.31 0 2.38-1.07 2.38-2.38 0-1.31-1.07-2.38-2.38-2.38H8.84c-1.87 0-3.38-1.52-3.38-3.38 0-1.86 1.52-3.4 3.38-3.4h.65V2.5c0-.28.22-.5.5-.5s.5.22.5.5v1.23h.85c1.76 0 3.19 1.43 3.19 3.19 0 .28-.22.5-.5.5s-.5-.22-.5-.5c0-1.21-.98-2.19-2.19-2.19h-2.5c-1.31 0-2.38 1.07-2.38 2.38 0 1.31 1.07 2.38 2.38 2.38h2.31c1.87 0 3.38 1.52 3.38 3.38 0 1.86-1.52 3.38-3.38 3.38h-.65v1.23c0 .28-.22.5-.5.5V18Z"/>
</svg>
