<svg xmlns="http://www.w3.org/2000/svg" viewBox="0 0 20 20">
  <path d="M10 18c-4.41 0-8-3.59-8-8s3.59-8 8-8 8 3.59 8 8-3.59 8-8 8Zm0-15c-3.86 0-7 3.14-7 7s3.14 7 7 7 7-3.14 7-7-3.14-7-7-7Zm0 12.38c-.28 0-.5-.22-.5-.5v-.62h-.38c-1.24 0-2.25-1.01-2.25-2.25 0-.28.22-.5.5-.5s.5.22.5.5c0 .69.56 1.25 1.25 1.25h1.62c.76 0 1.38-.62 1.38-1.38 0-.76-.62-1.38-1.38-1.38h-1.5c-1.31 0-2.38-1.07-2.38-2.38 0-1.31 1.07-2.38 2.38-2.38h.25v-.62c0-.28.22-.5.5-.5s.5.22.5.5v.62h.38c1.24 0 2.25 1.01 2.25 2.25 0 .28-.22.5-.5.5s-.5-.22-.5-.5c0-.69-.56-1.25-1.25-1.25H9.25c-.76 0-1.38.62-1.38 1.38 0 .76.62 1.38 1.38 1.38h1.5c1.31 0 2.38 1.07 2.38 2.38 0 1.31-1.07 2.38-2.38 2.38h-.25v.62c0 .28-.22.5-.5.5Z"/>
</svg>
