<svg xmlns="http://www.w3.org/2000/svg" viewBox="0 0 20 20">
  <path d="M7.54 17.59c-.05 0-.11 0-.16-.03A8.014 8.014 0 0 1 2 10c0-4.41 3.59-8 8-8 3.41 0 6.44 2.16 7.56 5.38.09.26-.05.55-.31.64a.506.506 0 0 1-.64-.31 7.038 7.038 0 0 0-5.48-4.62c.8 1.08 1.42 2.29 1.82 3.57a.502.502 0 1 1-.96.3c-.42-1.34-1.11-2.61-2-3.69a10.997 10.997 0 0 0-2.48 6.24h1.41c.28 0 .5.22.5.5s-.22.5-.5.5H7.51c.09 1.39.45 2.74 1.06 4.02a.5.5 0 1 1-.9.44c-.68-1.41-1.07-2.9-1.16-4.45H3.02c.2 2.77 2.03 5.19 4.68 6.11.26.09.4.38.31.64-.07.21-.27.34-.47.34v-.02ZM3.02 9.5h3.5c.15-2.33.96-4.55 2.34-6.41A7.01 7.01 0 0 0 3.02 9.5Z"/>
  <path d="M17.5 18c-.28 0-.5-.22-.5-.5 0-.54 0-.84-.05-1.02-.12-.4-.43-.71-.83-.83-.18-.05-.48-.05-1.02-.05h-2.19c-.54 0-.84 0-1.02.05-.4.12-.71.43-.83.83-.05.18-.05.48-.05 1.02 0 .28-.22.5-.5.5s-.5-.22-.5-.5c0-.66 0-.99.1-1.31.22-.72.78-1.28 1.5-1.5.32-.1.65-.1 1.31-.1h2.19c.66 0 .99 0 1.31.1.72.22 1.28.78 1.5 1.5.1.32.1.65.1 1.31 0 .28-.22.5-.5.5h-.02ZM14 14.06c-1.36 0-2.47-1.11-2.47-2.47S12.64 9.12 14 9.12s2.47 1.11 2.47 2.47-1.11 2.47-2.47 2.47Zm0-3.93c-.81 0-1.47.66-1.47 1.47 0 .81.66 1.47 1.47 1.47.81 0 1.47-.66 1.47-1.47 0-.81-.66-1.47-1.47-1.47Z"/>
</svg>
