<svg xmlns="http://www.w3.org/2000/svg" viewBox="0 0 20 20">
  <path d="M17.492 14.271h-5.24c-.28 0-.5-.22-.5-.5s.22-.5.5-.5h4.04l-5.04-5.09c-.18-.18-.36-.36-.42-.38-.05-.02-.1-.01-.15 0-.06.02-.24.2-.41.38l-2.05 2.07c-.33.33-.53.53-.82.63-.25.08-.52.08-.77 0-.28-.09-.48-.29-.81-.63l-3.65-3.68a.513.513 0 0 1 0-.71c.2-.19.51-.19.71 0l3.64 3.68c.18.18.36.36.42.38.05.02.1.02.15 0 .06-.02.24-.2.41-.38l2.05-2.07c.34-.34.53-.53.81-.63.25-.08.52-.08.77 0 .29.09.48.29.81.63l5.03 5.08v-4.06c0-.28.22-.5.5-.5s.5.22.5.5v5.29c0 .07-.01.14-.04.2a.42.42 0 0 1-.09.14l-.03.03s-.09.07-.14.09c-.06.03-.12.04-.19.04l.01-.01Z"/>
</svg>
