<svg xmlns="http://www.w3.org/2000/svg" viewBox="0 0 20 20">
  <path d="M13.5 18h-7c-1.48 0-2.22 0-2.86-.33-.57-.29-1.02-.74-1.31-1.31C2 15.72 2 14.98 2 13.5v-1c0-.28.22-.5.5-.5s.5.22.5.5v1c0 1.32 0 1.98.22 2.41.19.37.5.68.87.87.43.22 1.09.22 2.41.22h7c1.32 0 1.98 0 2.41-.22.38-.19.68-.49.87-.87.22-.43.22-1.09.22-2.41v-1c0-.28.22-.5.5-.5s.5.22.5.5v1c0 1.48 0 2.22-.33 2.86-.29.57-.74 1.02-1.31 1.31-.64.33-1.38.33-2.86.33ZM10 13h-.02c-.06 0-.12-.02-.18-.04a.36.36 0 0 1-.15-.1l-.01-.01-4.16-4.16c-.2-.2-.2-.51 0-.71.2-.2.51-.2.71 0l3.31 3.31V2.5c0-.28.22-.5.5-.5s.5.22.5.5v8.79l3.31-3.31c.2-.2.51-.2.71 0 .2.2.2.51 0 .71l-4.17 4.17-.01.01s-.1.07-.15.1c-.05.02-.11.04-.18.04h-.02L10 13Z"/>
</svg>
