<svg xmlns="http://www.w3.org/2000/svg" viewBox="0 0 20 20">
  <path d="M9.25 18H4.71c-.48-.04-.81-.11-1.09-.23-.55-.23-1-.61-1.28-1.08C2 16.14 2 15.49 2 14.31v-8.6c0-1.18 0-1.83.34-2.38.29-.47.73-.84 1.28-1.08.61-.26 1.32-.26 2.73-.26h5.29c1.42 0 2.13 0 2.73.26.55.23 1 .61 1.28 1.08.34.55.34 1.2.34 2.38v1.72c0 .28-.22.5-.5.5s-.5-.22-.5-.5V5.71c0-1.03 0-1.55-.19-1.86-.18-.29-.46-.52-.82-.68-.42-.18-1.06-.18-2.34-.18H6.35c-1.28 0-1.92 0-2.34.18-.36.15-.64.39-.82.68C3 4.16 3 4.68 3 5.71v8.61c0 1.03 0 1.55.19 1.85.18.29.47.53.82.68.18.08.41.12.74.15h4.5c.28 0 .5.22.5.5s-.22.5-.5.5Zm5.82 0h-.02c-.06 0-.12-.01-.17-.04a.452.452 0 0 1-.17-.11l-2.57-2.57c-.2-.2-.2-.51 0-.71.2-.2.51-.2.71 0l1.72 1.72V10.5c0-.28.22-.5.5-.5s.5.22.5.5v5.79l1.72-1.72c.2-.2.51-.2.71 0 .2.2.2.51 0 .71l-2.57 2.57s-.1.07-.15.09c-.05.02-.11.03-.17.04h-.02l-.02.02Z"/>
  <path d="M9 14.98c-.31 0-.62-.07-.88-.2l-1.11-.55c-.3-.15-.53-.37-.67-.63-.15-.29-.18-.62-.08-.92l.45-1.33v-.74c0-.39.2-.77.55-1.02.31-.23.72-.36 1.14-.36h1.19c.42 0 .83.13 1.14.36.35.26.55.63.55 1.02v.74l.45 1.33c.1.31.08.63-.08.92-.14.26-.37.48-.67.63l-1.11.55c-.27.13-.57.2-.88.2H9Zm-.6-4.75c-.21 0-.41.06-.55.16-.09.07-.15.15-.15.22l-.03.99-.48 1.41s-.01.09.01.14c.04.07.12.14.23.2l1.11.55c.25.12.63.12.88 0l1.11-.54c.11-.05.19-.12.23-.2.02-.05.03-.09.01-.14l-.5-1.57v-.83c0-.07-.05-.15-.15-.22a.966.966 0 0 0-.55-.16H8.38l.02-.01Zm.22-1.35H7.45c-.28 0-.5-.22-.5-.5s.22-.5.5-.5h1.17c.28 0 .5.22.5.5s-.22.5-.5.5Zm1.93-.8H9.38c-.28 0-.5-.22-.5-.5s.22-.5.5-.5h1.17c.28 0 .5.22.5.5s-.22.5-.5.5Zm-1.93-.79H7.45c-.28 0-.5-.22-.5-.5s.22-.5.5-.5h1.17c.28 0 .5.22.5.5s-.22.5-.5.5Zm1.93-.79H9.38c-.28 0-.5-.22-.5-.5s.22-.5.5-.5h1.17c.28 0 .5.22.5.5s-.22.5-.5.5Zm-1.93-.79H7.45c-.28 0-.5-.22-.5-.5s.22-.5.5-.5h1.17c.28 0 .5.22.5.5s-.22.5-.5.5Zm1.93-.8H9.38c-.28 0-.5-.22-.5-.5s.22-.5.5-.5h1.17c.28 0 .5.22.5.5s-.22.5-.5.5Zm-1.93-.79H7.45c-.28 0-.5-.22-.5-.5s.22-.5.5-.5h1.17c.28 0 .5.22.5.5s-.22.5-.5.5Z"/>
</svg>
