<svg xmlns="http://www.w3.org/2000/svg" viewBox="0 0 20 20">
  <path d="M2.5 18a.47.47 0 0 1-.35-.15.486.486 0 0 1-.14-.41l.29-2.63c.04-.34.06-.53.12-.73.06-.18.14-.34.24-.5.11-.17.25-.31.49-.55l7.91-7.91s0-.01.01-.02 0 0 .02-.01l2.31-2.31a2.698 2.698 0 0 1 3.81 0 2.698 2.698 0 0 1 0 3.81L6.96 16.85c-.24.24-.38.38-.55.49-.15.1-.32.18-.5.24-.19.06-.37.08-.69.12l-2.67.3h-.06.01Zm8.92-11.82-7.56 7.56c-.21.21-.31.31-.36.39-.05.08-.09.17-.12.26-.04.13-.05.26-.08.53l-.22 2 2.01-.22c.3-.03.43-.05.53-.08.09-.03.18-.07.26-.12.09-.06.19-.15.4-.37l7.57-7.57-2.4-2.4-.03.02Zm.71-.71 2.4 2.4L16.5 5.9c.66-.66.66-1.74 0-2.4-.66-.66-1.74-.66-2.4 0l-1.97 1.97Z"/>
</svg>
