<svg xmlns="http://www.w3.org/2000/svg" viewBox="0 0 20 20">
  <path d="M3.5 2.79c-.2-.2-.51-.2-.71 0-.2.2-.2.51 0 .71l4.95 4.95-4.59 4.59c-.24.24-.38.38-.49.55-.1.15-.18.32-.24.5-.06.2-.09.39-.12.73L2 17.44c-.02.15.04.3.14.41.09.09.22.15.35.15h.06l2.63-.29c.34-.04.53-.06.73-.12.18-.06.34-.14.5-.24.17-.11.31-.25.55-.49l4.59-4.59 4.95 4.95a.485.485 0 0 0 .7 0c.2-.2.2-.51 0-.71L3.5 2.79Zm2.75 13.35c-.2.2-.3.3-.39.36-.08.05-.16.09-.26.12s-.22.05-.53.08l-2.01.22.22-2c.03-.31.05-.43.08-.53.03-.09.07-.18.12-.26.06-.09.16-.19.36-.4l4.59-4.59 2.4 2.4-4.59 4.59.01.01Zm4.67-9.46.5-.5 2.4 2.4-.53.53c-.2.2-.2.51 0 .71a.485.485 0 0 0 .7 0l3.21-3.21a2.698 2.698 0 0 0 0-3.81 2.698 2.698 0 0 0-3.81 0l-2.32 2.32-.01.01-.01.01-.85.85c-.2.2-.2.51 0 .71.2.2.51.2.71 0l.01-.02Zm3.19-3.19c.66-.66 1.74-.66 2.4 0 .66.66.66 1.74 0 2.4l-1.97 1.97-2.4-2.4 1.97-1.97Z"/>
</svg>
