<svg xmlns="http://www.w3.org/2000/svg" viewBox="0 0 20 20">
  <path d="M4 7.5c-.79 0-1.27 0-1.63-.37C2.01 6.76 2 6.29 2 5.5V4c0-.79 0-1.27.37-1.63C2.74 2 3.21 2 4 2c.79 0 1.27 0 1.63.37C6 2.74 6 3.21 6 4v1.5c0 .79 0 1.27-.37 1.63-.37.36-.84.37-1.63.37ZM4 3c-.44 0-.85 0-.93.07-.08.07-.07.49-.07.93v1.5c0 .44 0 .85.07.93.15.15 1.71.15 1.85 0 .07-.07.07-.49.07-.93V4c0-.44 0-.85-.07-.93-.07-.08-.49-.07-.93-.07H4Zm8.63 4.5c-.79 0-1.27 0-1.63-.37-.36-.37-.37-.84-.37-1.63V4c0-.79 0-1.27.37-1.63.37-.37.84-.37 1.63-.37.79 0 1.27 0 1.63.37.37.37.37.84.37 1.63v1.5c0 .79 0 1.27-.37 1.63-.37.36-.84.37-1.63.37Zm0-4.5c-.44 0-.85 0-.93.07-.08.07-.07.49-.07.93v1.5c0 .44 0 .85.07.93.15.15 1.71.15 1.85 0 .07-.07.07-.49.07-.93V4c0-.44 0-.85-.07-.93-.07-.08-.49-.07-.93-.07h.01ZM8.88 7.5c-.28 0-.5-.22-.5-.5V3.43l-.35.23a.498.498 0 0 1-.55-.83l1.12-.75c.15-.1.35-.11.51-.02.16.09.26.26.26.44V7c0 .28-.22.5-.5.5h.01ZM3.63 15c-.28 0-.5-.22-.5-.5v-3.57l-.35.23a.498.498 0 0 1-.55-.83l1.12-.75c.15-.1.35-.11.51-.02.16.09.26.26.26.44v4.5c0 .28-.22.5-.5.5h.01ZM17.5 7.5c-.28 0-.5-.22-.5-.5V3.43l-.35.23a.498.498 0 0 1-.55-.83l1.12-.75c.15-.1.35-.11.51-.02.16.09.26.26.26.44V7c0 .28-.22.5-.5.5h.01ZM7.13 15c-.28 0-.5-.22-.5-.5v-3.57l-.35.23a.498.498 0 0 1-.55-.83l1.12-.75c.15-.1.35-.11.51-.02.16.09.26.26.26.44v4.5c0 .28-.22.5-.5.5h.01Zm10.96-1.17a2.01 2.01 0 0 0-.18-.72c-.18-.34-.46-.62-.8-.8a2.19 2.19 0 0 0-.33-.12v-.47c0-1.5-1.22-2.72-2.72-2.72-1.5 0-2.72 1.22-2.72 2.72v.47c-.11.03-.22.06-.33.12-.34.18-.63.46-.8.8-.11.23-.16.46-.18.72-.02.25-.02.55-.02.92v.62c0 .37 0 .67.02.92s.07.49.18.72c.18.35.46.62.8.8.22.11.46.16.72.18.25.02.55.02.92.02h2.84c.37 0 .67 0 .92-.02s.49-.07.72-.18c.35-.18.63-.46.8-.8.11-.22.16-.46.18-.72.02-.25.02-.55.02-.92v-.62c0-.36 0-.67-.02-.92h-.02ZM14.06 10c.95 0 1.72.77 1.72 1.72v.39h-3.44v-.39c0-.95.77-1.72 1.72-1.72Zm3.03 6.2c-.02.19-.04.28-.07.34-.08.16-.21.28-.36.36-.06.03-.15.06-.34.07-.2.02-.45.02-.83.02h-2.84c-.38 0-.64 0-.84-.02-.19-.02-.28-.04-.34-.07a.834.834 0 0 1-.36-.36c-.03-.06-.06-.15-.07-.34-.02-.2-.02-.45-.02-.84v-.62c0-.38 0-.64.02-.84.02-.19.04-.28.07-.34.08-.16.21-.28.36-.36.06-.03.15-.06.34-.07.2-.02.45-.02.84-.02h2.84c.38 0 .64 0 .83.02.19.01.28.04.34.07.16.08.28.21.36.36.03.06.06.15.07.34.02.2.02.45.02.84v.62c0 .38 0 .64-.02.84Z"/>
  <path d="M14.06 14.11c-.28 0-.5.22-.5.5v.89c0 .28.22.5.5.5s.5-.22.5-.5v-.89c0-.28-.22-.5-.5-.5Z"/>
</svg>
