<svg xmlns="http://www.w3.org/2000/svg" viewBox="0 0 20 20">
  <g clip-path="url(#encryption__a)">
    <path d="M4 8.5c-.79 0-1.27 0-1.63-.37C2 7.77 2 7.29 2 6.5V5c0-.79 0-1.27.37-1.63C2.74 3 3.21 3 4 3c.79 0 1.27 0 1.63.37C6 3.74 6 4.21 6 5v1.5c0 .79 0 1.27-.37 1.63-.36.37-.84.37-1.63.37ZM4 4c-.44 0-.85 0-.93.07-.08.07-.07.49-.07.93v1.5c0 .44 0 .85.07.93.15.15 1.71.15 1.85 0 .07-.07.07-.49.07-.93V5c0-.44 0-.85-.07-.93-.07-.08-.49-.07-.93-.07H4Zm3.38 12c-.79 0-1.27 0-1.63-.37-.37-.36-.37-.84-.37-1.63v-1.5c0-.79 0-1.27.37-1.63.37-.37.84-.37 1.63-.37.79 0 1.27 0 1.63.37.37.37.37.84.37 1.63V14c0 .79 0 1.27-.37 1.63-.36.37-.84.37-1.63.37Zm0-4.5c-.44 0-.85 0-.93.07-.08.07-.07.49-.07.93V14c0 .44 0 .85.07.93.15.15 1.71.15 1.85 0 .07-.07.07-.49.07-.93v-1.5c0-.44 0-.85-.07-.93-.07-.08-.49-.07-.93-.07h.01Zm5.25-3c-.79 0-1.27 0-1.63-.37-.37-.36-.37-.84-.37-1.63V5c0-.79 0-1.27.37-1.63.37-.37.84-.37 1.63-.37.79 0 1.27 0 1.63.37.37.37.37.84.37 1.63v1.5c0 .79 0 1.27-.37 1.63-.36.37-.84.37-1.63.37Zm0-4.5c-.44 0-.85 0-.93.07-.08.07-.07.49-.07.93v1.5c0 .44 0 .85.07.93.15.15 1.71.15 1.85 0 .07-.07.07-.49.07-.93V5c0-.44 0-.85-.07-.93-.07-.08-.49-.07-.93-.07h.01Zm0 12c-.79 0-1.27 0-1.63-.37-.37-.36-.37-.84-.37-1.63v-1.5c0-.79 0-1.27.37-1.63.37-.37.84-.37 1.63-.37.79 0 1.27 0 1.63.37.37.37.37.84.37 1.63V14c0 .79 0 1.27-.37 1.63-.36.37-.84.37-1.63.37Zm0-4.5c-.44 0-.85 0-.93.07-.08.07-.07.49-.07.93V14c0 .44 0 .85.07.93.15.15 1.71.15 1.85 0 .07-.07.07-.49.07-.93v-1.5c0-.44 0-.85-.07-.93-.07-.08-.49-.07-.93-.07h.01Zm-3.75-3c-.28 0-.5-.22-.5-.5V4.43l-.35.23a.498.498 0 0 1-.55-.83l1.12-.75c.15-.1.35-.11.51-.02.16.09.26.26.26.44V8c0 .28-.22.5-.5.5h.01ZM3.63 16c-.28 0-.5-.22-.5-.5v-3.57l-.35.23a.498.498 0 0 1-.55-.83l1.12-.75c.15-.1.35-.11.51-.02.16.09.26.26.26.44v4.5c0 .28-.22.5-.5.5h.01ZM17.5 8.5c-.28 0-.5-.22-.5-.5V4.43l-.35.23a.498.498 0 0 1-.55-.83l1.12-.75c.15-.1.35-.11.51-.02.16.09.26.26.26.44V8c0 .28-.22.5-.5.5h.01Zm0 7.5c-.28 0-.5-.22-.5-.5v-3.57l-.35.23a.498.498 0 0 1-.55-.83l1.12-.75c.15-.1.35-.11.51-.02.16.09.26.26.26.44v4.5c0 .28-.22.5-.5.5h.01Z"/>
  </g>
  <defs>
    <clipPath id="encryption__a">
      <path d="M2 3h16v13H2z"/>
    </clipPath>
  </defs>
</svg>
