<svg xmlns="http://www.w3.org/2000/svg" viewBox="0 0 20 20">
  <path d="M6.8 16c-.86 0-1.33 0-1.74-.21a1.94 1.94 0 0 1-.85-.85C4 14.52 4 14.05 4 13.19v-.08H2.5c-.28 0-.5-.22-.5-.5s.22-.5.5-.5H4V9.5H2.5c-.28 0-.5-.22-.5-.5s.22-.5.5-.5H4V5.89H2.5c-.28 0-.5-.23-.5-.5s.22-.5.5-.5H4v-.08c0-.86 0-1.33.21-1.75.19-.37.48-.66.85-.85C5.48 2 5.95 2 6.81 2h6.39c.86 0 1.33 0 1.74.21.37.19.66.48.85.85.21.42.21.89.21 1.75v1.75c0 .28-.22.5-.5.5s-.5-.22-.5-.5V4.81c0-.71 0-1.09-.1-1.3a.904.904 0 0 0-.41-.41c-.2-.1-.59-.1-1.29-.1H6.81c-.7 0-1.09 0-1.29.1-.18.09-.32.23-.41.41-.1.2-.1.59-.1 1.3v8.38c0 .71 0 1.09.1 1.3.09.18.24.32.41.41.2.1.59.1 1.29.1.28 0 .5.22.5.5s-.22.5-.5.5H6.8Z"/>
  <path d="M13.5 18C11.02 18 9 15.98 9 13.5S11.02 9 13.5 9s4.5 2.02 4.5 4.5-2.02 4.5-4.5 4.5Zm0-8c-1.93 0-3.5 1.57-3.5 3.5s1.57 3.5 3.5 3.5 3.5-1.57 3.5-3.5-1.57-3.5-3.5-3.5Z"/>
  <path d="M14.75 15.58a.47.47 0 0 1-.35-.15l-1.27-1.27a.51.51 0 0 1-.15-.35v-2.67c0-.28.22-.5.5-.5s.5.22.5.5v2.46l1.12 1.12c.2.2.2.51 0 .71-.1.1-.23.15-.35.15ZM8.5 10h-1c-.28 0-.5-.22-.5-.5s.22-.5.5-.5h1c.28 0 .5.22.5.5s-.22.5-.5.5Zm2.99-3H7.5c-.28 0-.5-.22-.5-.5s.22-.5.5-.5h3.99c.28 0 .5.22.5.5s-.22.5-.5.5Z"/>
</svg>
