<svg xmlns="http://www.w3.org/2000/svg" viewBox="0 0 20 20">
  <path d="M14.361 17.93h-8.72c-1.5 0-2.25 0-2.78-.39-.47-.34-.78-.86-.85-1.43-.08-.66.28-1.32 1-2.63l4.36-7.92c.76-1.39 1.15-2.09 1.77-2.37.54-.25 1.17-.25 1.71 0 .62.28 1.01.98 1.77 2.37l4.36 7.93c.72 1.31 1.08 1.97 1 2.63-.07.57-.38 1.09-.85 1.43-.54.39-1.29.39-2.78.39l.01-.01ZM10.001 4c-.15 0-.3.03-.44.1-.32.15-.69.82-1.31 1.95l-4.36 7.92c-.58 1.05-.93 1.69-.89 2.02.04.3.19.56.43.74.28.2 1 .2 2.2.2h8.72c1.2 0 1.92 0 2.2-.2.24-.17.4-.44.43-.74.04-.34-.31-.97-.89-2.02l-4.36-7.93c-.62-1.12-.99-1.8-1.31-1.95-.14-.06-.29-.1-.44-.1l.02.01Z"/>
  <path d="M10.001 14.93c-.44 0-.81-.36-.81-.8 0-.44.35-.8.79-.8h.01c.44 0 .8.36.8.8 0 .44-.36.8-.8.8h.01Zm-.01-3.39c-.28 0-.5-.22-.5-.5V7.93c0-.28.22-.5.5-.5s.5.22.5.5v3.11c0 .28-.22.5-.5.5Z"/>
</svg>
