<svg xmlns="http://www.w3.org/2000/svg" viewBox="0 0 20 20">
  <path d="M2.48 18c-.06 0-.12-.02-.18-.04a.36.36 0 0 1-.15-.1h.01l-.02-.02h-.01s-.07-.1-.1-.15a.478.478 0 0 1-.04-.18v-5.02c0-.28.22-.5.5-.5s.5.22.5.5v3.79l4.15-4.15c.2-.2.51-.2.71 0 .2.2.2.51 0 .71L3.71 17H7.5c.28 0 .5.22.5.5s-.22.5-.5.5H2.48ZM12.5 8a.47.47 0 0 1-.35-.15c-.2-.2-.2-.51 0-.71L16.29 3H12.5c-.28 0-.5-.22-.5-.5s.22-.5.5-.5h5.01c.06 0 .12.02.18.04.05.02.11.05.15.1l.02.02s.07.1.1.15c.02.05.04.11.04.18v5.02c0 .28-.22.5-.5.5s-.5-.22-.5-.5v-3.8l-4.15 4.15c-.1.1-.23.15-.35.15V8Z"/>
</svg>
