<svg xmlns="http://www.w3.org/2000/svg" viewBox="0 0 20 20">
  <path d="M17.97 9.715c-.05-.21-.13-.34-.25-.53-.95-1.51-3.62-5.02-7.72-5.02-.35 0-.69.03-1.03.08a.5.5 0 1 0 .15.99c.29-.04.59-.06.88-.06 3.61 0 6.01 3.19 6.88 4.56.09.14.11.18.12.22v.12c0 .04-.03.07-.12.22-.2.32-.54.82-1 1.37-.18.21-.15.53.06.7a.49.49 0 0 0 .7-.06c.49-.59.86-1.13 1.08-1.47.12-.19.2-.32.25-.53.04-.17.04-.4 0-.56v-.03Zm-3.53 4.01s-.07-.08-.11-.11l-7.95-7.94s-.06-.07-.1-.1L3.5 2.795c-.2-.2-.51-.2-.71 0-.2.2-.2.51 0 .71l2.42 2.42c-1.45 1.11-2.44 2.49-2.93 3.26-.12.19-.2.32-.25.53-.04.17-.04.4 0 .56.05.21.13.34.25.53.95 1.51 3.62 5.02 7.72 5.02 1.37 0 2.7-.39 3.96-1.17l2.55 2.55a.485.485 0 0 0 .7 0c.2-.2.2-.51 0-.71l-2.78-2.78.01.01Zm-6.01-4.58 2.43 2.43c-.26.14-.55.22-.86.22-.98 0-1.79-.8-1.79-1.79 0-.31.08-.6.22-.86Zm1.57 5.69c-3.61 0-6.01-3.19-6.88-4.56-.09-.14-.11-.17-.12-.21v-.12c0-.04.03-.07.12-.22.46-.73 1.41-2.06 2.8-3.09l1.79 1.79a2.791 2.791 0 0 0 3.88 3.88l1.64 1.64c-1.04.6-2.12.9-3.23.9v-.01Z"/>
</svg>
