<svg xmlns="http://www.w3.org/2000/svg" viewBox="0 0 20 20">
  <path d="M17.97 9.715c-.05-.21-.13-.34-.25-.53-.95-1.51-3.62-5.02-7.72-5.02s-6.77 3.51-7.72 5.03c-.12.18-.2.32-.25.52-.04.17-.04.4 0 .56.05.21.13.34.25.53.95 1.51 3.62 5.02 7.72 5.02s6.77-3.51 7.72-5.02c.12-.18.2-.32.25-.53.04-.17.04-.4 0-.56Zm-.97.34s-.03.07-.12.22c-.87 1.37-3.27 4.56-6.88 4.56s-6.01-3.19-6.88-4.56c-.09-.14-.11-.18-.12-.22v-.12c0-.04.03-.07.12-.22.87-1.37 3.27-4.56 6.88-4.56s6.01 3.19 6.88 4.56c.09.14.11.18.12.22v.12Z"/>
  <path d="M10 7.215a2.791 2.791 0 0 0 0 5.58 2.791 2.791 0 0 0 0-5.58Zm0 4.57c-.98 0-1.79-.8-1.79-1.79s.8-1.79 1.79-1.79 1.79.8 1.79 1.79-.8 1.79-1.79 1.79Z"/>
</svg>
