<svg xmlns="http://www.w3.org/2000/svg" viewBox="0 0 20 20">
  <path d="M12.17 18.01c-.13 0-.27-.02-.4-.06-.3-.1-.49-.29-.85-.65l-1.77-1.77c-.2-.2-.2-.51 0-.71.2-.2.51-.2.71 0l1.76 1.76c.2.2.39.39.46.41.06.02.12.02.19 0s.25-.21.45-.4l4.44-4.44c.2-.2.51-.2.71 0 .2.2.2.51 0 .71l-4.43 4.43c-.37.36-.56.56-.86.66-.13.04-.27.06-.4.06h-.01Z"/>
  <path d="M6.86 18H6.1c-1.34 0-2.01 0-2.6-.3a2.73 2.73 0 0 1-1.2-1.2c-.3-.59-.3-1.26-.3-2.6V6.1c0-1.34 0-2.01.3-2.6.26-.52.68-.94 1.2-1.2C4.09 2 4.76 2 6.1 2h4.8c1.34 0 2.01 0 2.6.3.52.27.94.68 1.2 1.2.27.54.3 1.17.3 2.13v3.52c0 .28-.22.5-.5.5s-.5-.22-.5-.5V5.63c0-.91-.03-1.37-.19-1.68-.17-.33-.43-.6-.76-.76C12.68 3 12.08 3 10.91 3h-4.8c-1.18 0-1.77 0-2.14.19-.33.17-.6.43-.77.76-.19.37-.19.97-.19 2.14v7.8c0 1.18 0 1.77.19 2.14.17.33.43.6.77.77.37.19.97.19 2.14.19h.76c.28 0 .5.22.5.5s-.22.5-.5.5l-.01.01Zm.64-5h-2c-.28 0-.5-.22-.5-.5s.22-.5.5-.5h2c.28 0 .5.22.5.5s-.22.5-.5.5Zm2-2.96h-4c-.28 0-.5-.22-.5-.5s.22-.5.5-.5h4c.28 0 .5.22.5.5s-.22.5-.5.5Zm1.99-3H5.5c-.28 0-.5-.22-.5-.5s.22-.5.5-.5h5.99c.28 0 .5.22.5.5s-.22.5-.5.5Z"/>
</svg>
