<svg xmlns="http://www.w3.org/2000/svg" viewBox="0 0 20 20">
  <path d="M14 18c-.07 0-.15-.02-.22-.05-.15-.07-3.78-1.84-3.78-4.62v-2.92c0-.21.13-.4.33-.47l2.55-.91c.72-.26 1.51-.26 2.23 0l2.55.91c.2.07.33.26.33.47v2.92c0 2.79-3.63 4.55-3.78 4.62-.07.03-.14.05-.22.05H14Zm-3-7.24v2.57c0 1.82 2.28 3.21 3 3.61.72-.39 3-1.78 3-3.61v-2.57l-2.22-.79a2.32 2.32 0 0 0-1.56 0l-2.22.79Z"/>
  <path d="M7.54 18H5.96c-1.16 0-1.87 0-2.45-.3a2.68 2.68 0 0 1-1.2-1.2c-.3-.59-.3-1.26-.3-2.6V6.1c0-1.34 0-2.01.3-2.6.26-.52.67-.94 1.19-1.2C4.09 2 4.76 2 6.1 2h4.8c1.34 0 2.01 0 2.6.3.52.27.94.68 1.2 1.2.27.54.3 1.17.3 2.13 0 .28-.22.5-.5.5s-.5-.22-.5-.5c0-.91-.03-1.37-.19-1.68-.17-.33-.43-.6-.77-.77-.37-.19-.97-.19-2.14-.19H6.1c-1.18 0-1.77 0-2.14.19-.33.17-.6.43-.77.77C3 4.32 3 4.92 3 6.09v7.8c0 1.18 0 1.77.19 2.14.17.33.43.6.77.76.36.18.93.19 2 .19h1.58c.28 0 .5.22.5.5s-.22.5-.5.5V18Zm-.04-7.96h-2c-.28 0-.5-.22-.5-.5s.22-.5.5-.5h2c.28 0 .5.22.5.5s-.22.5-.5.5Zm1.99-3H5.5c-.28 0-.5-.22-.5-.5s.22-.5.5-.5h3.99c.28 0 .5.22.5.5s-.22.5-.5.5Z"/>
</svg>
