<svg xmlns="http://www.w3.org/2000/svg" viewBox="0 0 20 20">
  <path d="M12.42 18c-2.78 0-4.57-2.36-5.21-3.38-.08-.12-.15-.23-.19-.4-.03-.14-.03-.31 0-.45.04-.17.11-.27.19-.4.64-1.01 2.43-3.38 5.21-3.38s4.57 2.36 5.21 3.38c.08.12.15.23.19.4.03.14.03.31 0 .45-.04.17-.11.27-.19.4-.64 1.01-2.43 3.38-5.21 3.38Zm0-7c-2.28 0-3.81 2.04-4.37 2.91-.03.04-.05.07-.06.1.01.01.03.04.06.08.55.88 2.08 2.91 4.37 2.91s3.81-2.04 4.37-2.91c.03-.04.05-.07.06-.1-.01-.01-.03-.04-.06-.08-.55-.88-2.08-2.91-4.37-2.91Z"/>
  <path d="M12.42 16c-1.1 0-2-.9-2-2s.9-2 2-2 2 .9 2 2-.9 2-2 2Zm0-3c-.55 0-1 .45-1 1s.45 1 1 1 1-.45 1-1-.45-1-1-1ZM5.2 18c-.73-.01-1.24-.07-1.69-.29a2.73 2.73 0 0 1-1.2-1.2c-.3-.59-.3-1.26-.3-2.6v-7.8c0-1.34 0-2.01.3-2.6.25-.53.67-.95 1.19-1.21C4.09 2 4.76 2 6.1 2h4.8c1.34 0 2.01 0 2.6.3.52.27.94.68 1.2 1.2.27.54.3 1.16.3 2.13v1.86c0 .28-.22.5-.5.5s-.5-.22-.5-.5V5.63c0-.91-.03-1.37-.19-1.68-.17-.33-.43-.6-.77-.77-.37-.19-.97-.19-2.14-.19H6.1c-1.18 0-1.77 0-2.14.19-.33.17-.6.43-.77.77C3 4.32 3 4.92 3 6.09v7.8c0 1.18 0 1.77.19 2.14.17.33.43.6.77.77.24.12.57.17 1.26.19.28 0 .5.23.49.51a.5.5 0 0 1-.5.49L5.2 18Zm2.3-7.96h-2c-.28 0-.5-.22-.5-.5s.22-.5.5-.5h2c.28 0 .5.22.5.5s-.22.5-.5.5Zm1.99-3H5.5c-.28 0-.5-.22-.5-.5s.22-.5.5-.5h3.99c.28 0 .5.22.5.5s-.22.5-.5.5Z"/>
</svg>
