<svg xmlns="http://www.w3.org/2000/svg" viewBox="0 0 20 20">
  <path d="M6.48 18H6.1c-1.34 0-2.01 0-2.6-.3a2.73 2.73 0 0 1-1.2-1.2c-.3-.59-.3-1.26-.3-2.6V6.1c0-1.34 0-2.01.3-2.6.26-.52.68-.94 1.2-1.2C4.09 2 4.76 2 6.1 2h4.8c1.34 0 2.01 0 2.6.3.52.27.94.68 1.2 1.2.27.54.3 1.16.3 2.13 0 .28-.22.5-.5.5s-.5-.22-.5-.5c0-.91-.03-1.37-.19-1.69-.17-.33-.43-.6-.76-.76-.37-.19-.97-.19-2.14-.19h-4.8c-1.18 0-1.77 0-2.14.19-.33.17-.6.43-.77.76-.19.37-.19.97-.19 2.14v7.8c0 1.18 0 1.77.19 2.14.17.33.43.6.76.77.37.19.97.19 2.14.19h.38c.28 0 .5.22.5.5s-.22.5-.5.5V18Zm1.02-7.96h-2c-.28 0-.5-.22-.5-.5s.22-.5.5-.5h2c.28 0 .5.22.5.5s-.22.5-.5.5Zm1.99-3H5.5c-.28 0-.5-.22-.5-.5s.22-.5.5-.5h3.99c.28 0 .5.22.5.5s-.22.5-.5.5Z"/>
  <path d="M17.5 18c-.28 0-.5-.22-.5-.5 0-.63 0-.97-.06-1.19-.15-.48-.52-.85-1-1-.21-.06-.56-.06-1.19-.06h-2.5c-.63 0-.97 0-1.19.06-.48.15-.85.52-1 1-.06.21-.06.56-.06 1.19 0 .28-.22.5-.5.5s-.5-.22-.5-.5c0-.75 0-1.12.11-1.48.24-.8.87-1.42 1.67-1.67.35-.11.73-.11 1.48-.11h2.5c.75 0 1.12 0 1.48.11.8.24 1.42.87 1.67 1.67.11.35.11.73.11 1.48 0 .28-.22.5-.5.5h-.02Zm-4-4.5c-1.52 0-2.75-1.23-2.75-2.75S11.98 8 13.5 8s2.75 1.23 2.75 2.75-1.23 2.75-2.75 2.75Zm0-4.5c-.96 0-1.75.79-1.75 1.75s.79 1.75 1.75 1.75 1.75-.79 1.75-1.75S14.46 9 13.5 9Z"/>
</svg>
