<svg xmlns="http://www.w3.org/2000/svg" viewBox="0 0 20 20">
  <path d="M6.86 18H6.1c-1.34 0-2.01 0-2.6-.3a2.73 2.73 0 0 1-1.2-1.2c-.3-.59-.3-1.26-.3-2.6V6.1c0-1.34 0-2.01.3-2.6.26-.52.68-.94 1.2-1.2C4.09 2 4.76 2 6.1 2h4.8c1.34 0 2.01 0 2.6.3.52.27.94.68 1.2 1.2.27.54.3 1.16.3 2.13 0 .28-.22.5-.5.5s-.5-.22-.5-.5c0-.91-.03-1.37-.19-1.68-.17-.33-.43-.6-.76-.77-.37-.19-.97-.19-2.14-.19h-4.8c-1.18 0-1.77 0-2.14.19-.33.17-.6.43-.77.77-.19.37-.19.97-.19 2.14v7.8c0 1.18 0 1.77.19 2.14.17.33.43.6.76.76.37.19.97.19 2.14.19h.76c.28 0 .5.22.5.5s-.22.5-.5.5V18Zm.64-7.96h-2c-.28 0-.5-.22-.5-.5s.22-.5.5-.5h2c.28 0 .5.22.5.5s-.22.5-.5.5Zm1.99-3H5.5c-.28 0-.5-.22-.5-.5s.22-.5.5-.5h3.99c.28 0 .5.22.5.5s-.22.5-.5.5Z"/>
  <path d="M15.85 18c-.19 0-.35-.09-.57-.2l-1.79-.94-1.77.94c-.26.14-.45.24-.69.19a.736.736 0 0 1-.5-.36c-.12-.22-.08-.43-.03-.71l.34-2-1.44-1.39c-.21-.2-.36-.35-.39-.6a.69.69 0 0 1 .19-.58c.17-.18.38-.21.67-.25l2.01-.29.88-1.8c.13-.26.22-.45.45-.56.19-.09.42-.09.61 0 .22.11.32.3.44.56l.9 1.82 1.99.28c.29.04.5.07.67.25a.7.7 0 0 1 .19.58c-.03.25-.18.39-.39.6l-1.45 1.41.35 1.97c.05.29.09.5-.03.71-.1.19-.29.32-.5.36-.04 0-.08.01-.12.01h-.02Zm-5.52-4.96 1.27 1.24c.06.06.12.12.17.21.03.06.08.19.08.26.01.11 0 .19-.02.28l-.3 1.74 1.57-.82c.08-.04.15-.08.25-.1.06-.01.21-.01.27 0 .1.02.17.06.25.1l1.57.82-.3-1.74c-.01-.08-.03-.17-.02-.27 0-.06.05-.2.08-.26.05-.09.11-.15.17-.21l1.27-1.24-1.75-.26a.98.98 0 0 1-.27-.07c-.06-.03-.17-.11-.21-.15-.08-.08-.11-.15-.15-.23l-.79-1.59-.78 1.59c-.04.07-.07.15-.14.23-.04.05-.16.14-.22.16-.09.04-.18.06-.25.07l-1.77.26.02-.02Z"/>
</svg>
