<svg xmlns="http://www.w3.org/2000/svg" viewBox="0 0 20 20">
  <path d="M13.5 18h-.02c-.06 0-.12-.02-.18-.04a.36.36 0 0 1-.15-.1l-.01-.01-1.2-1.2c-.2-.2-.2-.51 0-.71.2-.2.51-.2.71 0l.35.35V14h-2.29l.35.35c.2.2.2.51 0 .71-.2.2-.51.2-.71 0l-1.2-1.2s-.06-.07-.09-.12c0 0-.01-.03-.02-.04a.478.478 0 0 1-.04-.18v-.03c0-.06.01-.12.04-.18.02-.06.06-.12.11-.17l1.2-1.2c.2-.2.51-.2.71 0 .2.2.2.51 0 .71l-.35.35H13v-2.29l-.35.35c-.2.2-.51.2-.71 0-.2-.2-.2-.51 0-.71l1.2-1.2a.537.537 0 0 1 .35-.14h.01c.06 0 .12.01.18.04.06.02.11.06.16.1l1.2 1.2c.2.2.2.51 0 .71-.2.2-.51.2-.71 0l-.35-.35V13h2.29l-.35-.35c-.2-.2-.2-.51 0-.71.2-.2.51-.2.71 0l1.2 1.2c.05.05.09.11.11.17.02.05.03.11.04.17v.03a.584.584 0 0 1-.06.22s-.05.08-.09.12l-1.2 1.2c-.2.2-.51.2-.71 0-.2-.2-.2-.51 0-.71l.35-.35h-2.29v2.29l.35-.35c.2-.2.51-.2.71 0 .2.2.2.51 0 .71l-1.2 1.2-.01.01s-.1.07-.15.1c-.05.02-.11.04-.18.04h-.02l.02.01Z"/>
  <path d="M6.86 18H6.1c-1.34 0-2.01 0-2.6-.3a2.73 2.73 0 0 1-1.2-1.2c-.3-.59-.3-1.26-.3-2.6V6.1c0-1.34 0-2.01.3-2.6.26-.52.68-.93 1.2-1.2C4.09 2 4.76 2 6.1 2h4.8c1.34 0 2.01 0 2.6.3.52.27.94.68 1.2 1.2.27.54.29 1.16.3 2.13v1.01c0 .28-.22.5-.5.5s-.5-.22-.5-.5V5.63c0-.91-.03-1.37-.19-1.68-.17-.33-.43-.6-.77-.77-.37-.19-.97-.19-2.14-.19H6.1c-1.18 0-1.77 0-2.15.19-.33.17-.6.43-.76.77C3 4.32 3 4.92 3 6.09v7.8c0 1.18 0 1.77.19 2.14.17.33.43.6.77.77.37.19.97.19 2.14.19h.76c.28 0 .5.22.5.5s-.22.5-.5.5V18Zm.64-7.96h-2c-.28 0-.5-.22-.5-.5s.22-.5.5-.5h2c.28 0 .5.22.5.5s-.22.5-.5.5Zm1.99-3H5.5c-.28 0-.5-.22-.5-.5s.22-.5.5-.5h3.99c.28 0 .5.22.5.5s-.22.5-.5.5Z"/>
</svg>
