<svg xmlns="http://www.w3.org/2000/svg" viewBox="0 0 20 20">
  <path d="M7.08 8.02h3.69c.28 0 .5-.22.5-.5s-.22-.5-.5-.5H7.08c-.28 0-.5.22-.5.5s.22.5.5.5Zm0-2.02h4.65c.28 0 .5-.22.5-.5s-.22-.5-.5-.5H7.08c-.28 0-.5.22-.5.5s.22.5.5.5Z"/>
  <path d="M8.08 3h4.13c.41 0 .69 0 .91.02.21.02.31.05.39.08.18.09.32.23.41.41.04.07.07.18.08.39.02.22.02.49.02.91v4.72H6.46c-.48 0-.85 0-1.18.12V4.81c0-.41 0-.69.02-.91.02-.21.05-.31.08-.39.09-.18.23-.32.41-.41.07-.04.18-.07.39-.08C6.4 3 6.67 3 7.09 3h1m-5.9 1.91c-.11.22-.15.45-.17.69-.02.23-.02.52-.02.86v9.02c0 .35 0 .64.02.87.02.24.06.47.17.69.17.33.44.6.77.77.22.11.45.15.69.17.23.02.52.02.87.02h9.54c.48 0 .86 0 1.19-.12.27-.11.52-.28.71-.51.23-.27.34-.63.49-1.08l1.16-3.18v-.01c.15-.46.27-.89.34-1.25.07-.35.1-.71.03-.99a1.73 1.73 0 0 0-.76-1.05c-.07-.04-.14-.06-.21-.09v-.37c0-.11 0-.21-.01-.3 0-.08-.02-.19-.04-.28-.16-.61-.64-1.08-1.24-1.24a.5.5 0 0 0-.61.35.5.5 0 0 0 .35.61c.26.07.47.28.54.54v.09c0 .07 0 .16.01.26v.17c-.23 0-.48-.01-.78-.01h-.2V4.81c0-.39 0-.72-.02-.99s-.07-.52-.19-.76c-.19-.36-.48-.66-.85-.85-.24-.12-.49-.17-.76-.19-.27-.02-.59-.02-.99-.02H8.09M3.08 5.36c.07-.14.18-.25.32-.33.09-.03.18-.07.26-.1.11-.04.21-.08.31-.11.15-.04.23-.05.3-.04v5.88c-.07.17-.13.36-.21.58l-1.07 3.18V6.46c0-.36 0-.6.02-.79.01-.18.04-.26.07-.31Zm12.41 10.6c-.18.54-.23.67-.31.76-.08.1-.19.17-.3.22-.11.05-.26.05-.82.05H5.29c-.48 0-.81 0-1.05-.02s-.35-.06-.4-.1a.78.78 0 0 1-.33-.46c-.02-.06-.02-.17.04-.41.06-.24.16-.55.31-1.01l1.16-3.44c.18-.54.23-.67.31-.76.08-.1.19-.17.3-.22.11-.05.26-.05.82-.05h8.76c.48 0 .81 0 1.05.02s.35.06.4.1c.16.1.28.27.33.46.02.07.02.24-.04.57-.06.3-.16.68-.31 1.12l-1.16 3.16v.01h.01Z"/>
  <path d="M8.08 2h-1s-.72 0-.99.02-.52.07-.76.19c-.37.19-.66.48-.85.85-.12.23-.16.47-.19.73-.23 0-.44.04-.61.09-.14.04-.28.09-.39.14-.12.05-.2.08-.27.1h-.04l-.04.03c-.33.17-.6.44-.77.77"/>
</svg>
