<svg xmlns="http://www.w3.org/2000/svg" viewBox="0 0 20 20">
  <path d="M5.44 18c-.91 0-1.46-.06-1.93-.3a2.73 2.73 0 0 1-1.2-1.2c-.3-.59-.3-1.26-.3-2.6V6.1c0-1.34 0-2.01.3-2.6.25-.52.67-.93 1.19-1.2C4.09 2 4.76 2 6.1 2h4.8c1.34 0 2.01 0 2.6.3.52.27.94.68 1.2 1.2.28.55.3 1.22.3 2.25 0 .28-.22.5-.5.5s-.5-.22-.5-.5c0-.97-.02-1.47-.19-1.8-.17-.33-.43-.6-.76-.76C12.68 3 12.08 3 10.91 3h-4.8c-1.18 0-1.77 0-2.14.19-.33.17-.6.43-.76.76-.19.38-.19.97-.19 2.14v7.8c0 1.18 0 1.77.19 2.14.17.33.43.6.77.77.3.15.73.18 1.49.19.28 0 .5.23.5.5 0 .28-.23.5-.5.5l-.03.01Zm12.06-5.59h-3.68c-.28 0-.5-.22-.5-.5V9.1c0-.25.18-.45.42-.49l3.68-.6c.15-.03.29.02.4.11.11.09.18.23.18.38v3.41c0 .28-.22.5-.5.5Zm-3.18-1H17V9.09l-2.68.44v1.88Z"/>
  <path d="M8.5 12.41c-.28 0-.5-.22-.5-.5v-2.1c0-.24.18-.45.42-.49l3.15-.52c.15-.03.29.02.41.11.11.1.18.24.18.38v2.62c0 .28-.22.5-.5.5H8.5Zm.5-1h2.15V9.87L9 10.23v1.18ZM17.5 18h-.08l-3.68-.6a.503.503 0 0 1-.42-.49V14.1c0-.28.22-.5.5-.5h3.68c.28 0 .5.22.5.5v3.41c0 .15-.06.29-.18.38a.49.49 0 0 1-.32.12V18Zm-3.18-1.53 2.68.44v-2.32h-2.68v1.88Zm-2.67.74h-.08l-3.15-.53a.503.503 0 0 1-.42-.49v-2.1c0-.28.22-.5.5-.5h3.15c.28 0 .5.22.5.5v2.63c0 .15-.06.29-.18.38a.49.49 0 0 1-.32.12v-.01ZM9 15.76l2.15.36v-1.54H9v1.18Z"/>
</svg>
