<svg xmlns="http://www.w3.org/2000/svg" viewBox="0 0 20 20">
  <path d="M17.98 13.37c-.02-.28-.07-.54-.2-.78-.19-.38-.5-.68-.87-.87a1.53 1.53 0 0 0-.41-.14V11c0-1.66-1.34-3-3-3s-3 1.34-3 3v.58c-.14.03-.28.07-.41.14-.38.19-.68.5-.87.87-.12.24-.17.5-.2.78-.02.28-.02.61-.02 1.03v.7c0 .41 0 .75.02 1.03s.07.54.2.78c.19.38.5.68.87.87.24.12.5.17.78.2.28.02.61.02 1.03.02h3.2c.41 0 .75 0 1.03-.02s.54-.07.78-.2c.38-.19.68-.5.87-.87.12-.24.17-.5.2-.78.02-.28.02-.61.02-1.03v-.7c0-.41 0-.75-.02-1.03ZM13.5 9c1.1 0 2 .9 2 2v.5h-4V11c0-1.1.9-2 2-2Zm3.48 7.04c-.02.22-.05.33-.09.41-.1.19-.25.34-.44.44-.08.04-.19.07-.41.09-.23.02-.52.02-.94.02h-3.2c-.43 0-.72 0-.94-.02-.22-.02-.33-.05-.41-.09-.19-.1-.34-.25-.44-.44-.04-.08-.07-.19-.09-.41-.02-.23-.02-.52-.02-.94v-.7c0-.43 0-.72.02-.94.02-.22.05-.33.09-.41.1-.19.25-.34.44-.44.08-.04.19-.07.41-.09.23-.02.52-.02.94-.02h3.2c.43 0 .72 0 .94.02.22.02.33.05.41.09.19.1.34.25.44.44.04.08.07.19.09.41.02.23.02.52.02.94v.7c0 .43 0 .72-.02.94Z"/>
  <path d="M13.5 13.75c-.28 0-.5.22-.5.5v1c0 .28.22.5.5.5s.5-.22.5-.5v-1c0-.28-.22-.5-.5-.5ZM6.86 17H6.1c-1.18 0-1.77 0-2.14-.19-.33-.17-.6-.43-.76-.77-.19-.37-.19-.97-.19-2.14V6.1c0-1.18 0-1.77.19-2.14.17-.33.43-.6.77-.76.37-.19.97-.19 2.14-.19h4.8c1.18 0 1.77 0 2.14.19.33.17.6.43.77.77.16.31.19.77.19 1.68 0 .28.22.5.5.5s.5-.23.5-.5c0-.97-.03-1.6-.3-2.13a2.73 2.73 0 0 0-1.2-1.2c-.59-.3-1.26-.3-2.6-.3h-4.8c-1.34 0-2.01 0-2.6.3-.53.24-.95.66-1.21 1.18C2 4.09 2 4.76 2 6.1v7.8c0 1.34 0 2.01.3 2.6.27.52.68.94 1.2 1.2.59.3 1.26.3 2.6.3h.76c.28 0 .5-.22.5-.5s-.22-.5-.5-.5Z"/>
  <path d="M7.5 9.04h-2c-.28 0-.5.22-.5.5s.22.5.5.5h2c.28 0 .5-.22.5-.5s-.22-.5-.5-.5Zm-2-3c-.28 0-.5.22-.5.5s.22.5.5.5h3.99c.28 0 .5-.22.5-.5s-.22-.5-.5-.5H5.5Z"/>
</svg>
