<svg xmlns="http://www.w3.org/2000/svg" viewBox="0 0 20 20">
  <path d="M10 15.27c-.33 0-.64-.07-.92-.21l-1.17-.57a1.64 1.64 0 0 1-.7-.65c-.16-.3-.18-.64-.08-.95l.48-1.4v-.79c0-.41.21-.79.57-1.06.32-.24.74-.37 1.18-.37h1.26c.44 0 .86.13 1.18.37.36.27.57.65.57 1.06v.79l.48 1.4c.11.31.08.65-.08.95-.14.27-.38.5-.7.65l-1.17.57c-.27.13-.59.21-.92.21H10Zm-.63-5c-.23 0-.44.06-.59.17-.1.08-.16.17-.16.25l-.03 1.03-.5 1.48c-.02.05-.01.11.02.17.04.08.13.16.25.22l1.17.57c.27.13.68.13.95 0l1.17-.57c.12-.06.21-.14.25-.22.03-.06.04-.11.02-.17l-.53-1.64v-.87c0-.08-.06-.17-.16-.25-.15-.11-.37-.18-.59-.18H9.38l-.01.01Z"/>
  <path d="M5.99 18c-.53-.04-.89-.12-1.2-.25-.61-.26-1.1-.67-1.42-1.19C3 15.96 3 15.28 3 13.92V6.1c0-1.35 0-2.04.37-2.64.32-.52.81-.93 1.41-1.18.67-.29 1.47-.29 3.05-.29h4.34c1.58 0 2.38 0 3.05.29.61.26 1.1.67 1.41 1.18.37.6.37 1.29.37 2.64v7.82c0 1.36 0 2.04-.37 2.64-.32.52-.8.92-1.41 1.19-.32.13-.68.21-1.17.25H5.99ZM7.83 3c-1.45 0-2.17 0-2.66.21-.41.17-.75.45-.95.79C4 4.36 4 4.95 4 6.12v7.82c0 1.17 0 1.75.22 2.12.2.33.54.61.95.79.21.09.47.14.85.17H14c.34-.03.6-.08.81-.17.42-.18.75-.45.95-.79.22-.36.22-.95.22-2.12V6.12c0-1.17 0-1.75-.22-2.12-.2-.33-.54-.61-.95-.79C14.32 3 13.6 3 12.15 3H7.81h.02Z"/>
  <path d="M9.62 8.92H8.45c-.28 0-.5-.22-.5-.5s.22-.5.5-.5h1.17c.28 0 .5.22.5.5s-.22.5-.5.5Zm1.93-.79h-1.17c-.28 0-.5-.22-.5-.5s.22-.5.5-.5h1.17c.28 0 .5.22.5.5s-.22.5-.5.5Zm-1.93-.8H8.45c-.28 0-.5-.22-.5-.5s.22-.5.5-.5h1.17c.28 0 .5.22.5.5s-.22.5-.5.5Zm1.93-.79h-1.17c-.28 0-.5-.22-.5-.5s.22-.5.5-.5h1.17c.28 0 .5.22.5.5s-.22.5-.5.5Zm-1.93-.79H8.45c-.28 0-.5-.22-.5-.5s.22-.5.5-.5h1.17c.28 0 .5.22.5.5s-.22.5-.5.5Zm1.93-.79h-1.17c-.28 0-.5-.22-.5-.5s.22-.5.5-.5h1.17c.28 0 .5.22.5.5s-.22.5-.5.5Zm-1.93-.79H8.45c-.28 0-.5-.22-.5-.5s.22-.5.5-.5h1.17c.28 0 .5.22.5.5s-.22.5-.5.5Z"/>
</svg>
