<svg xmlns="http://www.w3.org/2000/svg" viewBox="0 0 20 20">
  <path d="M12.9 18H7.1c-1.34 0-2.01 0-2.6-.3a2.73 2.73 0 0 1-1.2-1.2c-.3-.59-.3-1.26-.3-2.6V6.1c0-1.34 0-2.01.3-2.6.27-.52.68-.94 1.2-1.2C5.09 2 5.76 2 7.1 2h5.8c1.34 0 2.01 0 2.6.3.52.26.94.68 1.2 1.2.3.59.3 1.26.3 2.6v7.8c0 1.34 0 2.01-.3 2.6-.27.52-.68.94-1.2 1.2-.59.3-1.26.3-2.6.3ZM7.1 3c-1.18 0-1.77 0-2.14.19-.33.17-.6.43-.77.76C4 4.32 4 4.92 4 6.09v7.8c0 1.18 0 1.77.19 2.14.17.33.43.6.77.77.37.19.97.19 2.14.19h5.8c1.18 0 1.77 0 2.14-.19.33-.17.6-.43.77-.76.19-.37.19-.97.19-2.14V6.1c0-1.18 0-1.77-.19-2.14-.17-.33-.43-.6-.76-.76-.38-.19-.97-.19-2.15-.19H7.1V3Z"/>
  <path d="M8 13H6.5c-.28 0-.5-.22-.5-.5s.22-.5.5-.5H8c.28 0 .5.22.5.5s-.22.5-.5.5Zm3-3H6.5c-.28 0-.5-.22-.5-.5s.22-.5.5-.5H11c.28 0 .5.22.5.5s-.22.5-.5.5Zm1.5-3h-6c-.28 0-.5-.22-.5-.5s.22-.5.5-.5h6c.28 0 .5.22.5.5s-.22.5-.5.5Z"/>
</svg>
