<svg xmlns="http://www.w3.org/2000/svg" viewBox="0 0 20 20">
  <path d="M8.5 18a.47.47 0 0 1-.35-.15.486.486 0 0 1-.14-.41l.17-1.58c.03-.24.04-.36.08-.48s.1-.24.17-.35c.07-.1.15-.19.32-.36l6.15-6.15a1.817 1.817 0 1 1 2.57 2.57l-6.15 6.15c-.15.15-.24.24-.36.32-.11.07-.23.13-.35.17-.11.04-.23.05-.46.08l-1.6.18h-.06l.01.01Zm.67-2.02-.11.95.95-.11c.15-.02.22-.02.28-.04.03-.01.07-.03.1-.05.04-.02.09-.08.21-.19l6.15-6.15a.82.82 0 0 0-1.16-1.16l-6.15 6.15c-.1.1-.16.15-.19.21-.02.03-.04.07-.05.1-.02.06-.02.14-.04.28l.01.01ZM5.95 18c-1.26 0-1.89-.01-2.45-.3a2.73 2.73 0 0 1-1.2-1.2c-.3-.59-.3-1.26-.3-2.6V6.1c0-1.34 0-2.01.3-2.6.27-.52.68-.94 1.2-1.2C4.09 2 4.76 2 6.1 2h4.8c1.34 0 2.01 0 2.6.3.52.27.94.68 1.2 1.2.27.54.3 1.17.3 2.13 0 .28-.22.5-.5.5s-.5-.22-.5-.5c0-.91-.03-1.37-.19-1.68-.17-.33-.43-.6-.77-.77-.37-.19-.97-.19-2.14-.19H6.1c-1.18 0-1.77 0-2.14.19-.33.17-.6.43-.77.77C3 4.32 3 4.92 3 6.09v7.8c0 1.18 0 1.77.19 2.14.17.33.43.6.77.77.36.18.93.19 2 .19.28 0 .5.22.5.5s-.22.5-.5.5l-.01.01Zm1.55-7.96h-2c-.28 0-.5-.22-.5-.5s.22-.5.5-.5h2c.28 0 .5.22.5.5s-.22.5-.5.5Zm1.99-3H5.5c-.28 0-.5-.22-.5-.5s.22-.5.5-.5h3.99c.28 0 .5.22.5.5s-.22.5-.5.5Z"/>
</svg>
