<svg xmlns="http://www.w3.org/2000/svg" viewBox="0 0 20 20">
  <path d="M15.36 18.02h-2.88c-.81 0-1.25 0-1.65-.2-.35-.18-.63-.46-.81-.81-.2-.4-.2-.61-.2-1.4v-.26h-.17a1.62 1.62 0 1 1 0-3.24h.18c0-.5.01-.83.14-1.14.19-.45.55-.82 1-1 .33-.14.69-.14 1.33-.14v-.17a1.62 1.62 0 1 1 3.24 0v.17c.64 0 1 0 1.33.14.46.19.81.54 1 1 .14.34.14.71.14 1.38v3.02c0 .81 0 1.25-.2 1.65-.18.35-.46.63-.81.81-.4.2-.84.2-1.65.2l.01-.01ZM9.64 13.1c-.34 0-.62.28-.62.62 0 .34.28.62.62.62h.67c.28 0 .5.22.5.5v.76c0 .76 0 .78.09.94.08.16.21.29.37.37.18.09.54.09 1.2.09h2.88c.65 0 1.01 0 1.2-.09.16-.08.29-.21.37-.37.09-.18.09-.54.09-1.2v-3.02c0-.54 0-.84-.06-1a.863.863 0 0 0-.46-.46c-.16-.06-.46-.06-1-.06h-.45c-.28 0-.5-.22-.5-.5v-.67c0-.34-.28-.62-.62-.62-.34 0-.62.28-.62.62v.67c0 .28-.22.5-.5.5h-.45c-.54 0-.84 0-1 .06-.21.09-.37.25-.46.46-.06.14-.06.42-.06.82v.43c0 .28-.22.5-.5.5h-.67l-.02.03Z"/>
  <path d="M6.86 18H6.1c-1.34 0-2.01 0-2.6-.3a2.73 2.73 0 0 1-1.2-1.2c-.3-.59-.3-1.26-.3-2.6V6.1c0-1.34 0-2.01.3-2.6.26-.52.68-.94 1.2-1.2C4.09 2 4.76 2 6.1 2h4.8c1.34 0 2.01 0 2.6.3.52.27.94.68 1.2 1.2.27.54.3 1.17.3 2.13 0 .28-.22.5-.5.5s-.5-.22-.5-.5c0-.91-.03-1.37-.19-1.68-.17-.33-.43-.6-.77-.77-.37-.19-.97-.19-2.14-.19H6.1c-1.18 0-1.77 0-2.14.19-.33.17-.6.43-.77.76C3 4.31 3 4.91 3 6.08v7.8c0 1.18 0 1.77.19 2.14.17.33.43.6.77.77.37.19.97.19 2.14.19h.76c.28 0 .5.22.5.5s-.22.5-.5.5V18Zm.64-7.96h-2c-.28 0-.5-.22-.5-.5s.22-.5.5-.5h2c.28 0 .5.22.5.5s-.22.5-.5.5Zm1.99-3H5.5c-.28 0-.5-.22-.5-.5s.22-.5.5-.5h3.99c.28 0 .5.22.5.5s-.22.5-.5.5Z"/>
</svg>
