<svg xmlns="http://www.w3.org/2000/svg" viewBox="0 0 20 20">
  <path d="M15.34 18h-2.5c-.28 0-.5-.22-.5-.5s.22-.5.5-.5h.75V9h-.75c-.28 0-.5-.22-.5-.5s.22-.5.5-.5h2.5c.28 0 .5.22.5.5s-.22.5-.5.5h-.75v1h1.31c.62 0 .96 0 1.28.16.28.15.51.37.66.66.16.32.16.66.16 1.28v1.8c0 .62 0 .96-.16 1.28-.14.28-.37.51-.66.66-.32.16-.66.16-1.28.16h-1.31v1h.75c.28 0 .5.22.5.5s-.22.5-.5.5Zm-.75-3h1.31c.43 0 .72 0 .83-.05.09-.05.17-.12.22-.22.06-.11.06-.39.06-.83v-1.8c0-.43 0-.72-.05-.83a.47.47 0 0 0-.22-.22c-.11-.05-.39-.05-.83-.05H14.6v4h-.01Zm-2.5 1H9.1c-.62 0-.96 0-1.28-.16-.28-.14-.51-.37-.66-.66C7 14.86 7 14.52 7 13.9v-1.8c0-.62 0-.96.16-1.28.14-.28.37-.51.66-.66.32-.16.66-.16 1.28-.16h2.99c.28 0 .5.22.5.5s-.22.5-.5.5H9.1c-.43 0-.72 0-.83.05-.09.05-.17.12-.22.22-.05.11-.05.39-.05.83v1.8c0 .43 0 .72.05.83.05.1.12.17.22.22.11.05.39.05.83.05h2.99c.28 0 .5.22.5.5s-.22.5-.5.5Z"/>
  <path d="M6.18 18H6.1c-1.34 0-2.01 0-2.6-.3a2.68 2.68 0 0 1-1.2-1.2c-.3-.59-.3-1.26-.3-2.6V6.1c0-1.34 0-2.01.3-2.6.27-.52.68-.94 1.2-1.2C4.09 2 4.76 2 6.1 2h4.8c1.34 0 2.01 0 2.6.3.52.27.94.68 1.2 1.2.27.54.3 1.17.3 2.13 0 .28-.22.5-.5.5s-.5-.22-.5-.5c0-.91-.03-1.37-.19-1.68-.17-.33-.43-.6-.77-.77-.37-.19-.97-.19-2.14-.19H6.1c-1.18 0-1.77 0-2.14.19-.33.17-.6.43-.77.77C3 4.32 3 4.92 3 6.09v7.8c0 1.18 0 1.77.19 2.14.17.33.43.6.77.76.37.19.97.19 2.14.19.28 0 .54.22.54.5s-.18.5-.46.5V18Z"/>
</svg>
