<svg xmlns="http://www.w3.org/2000/svg" viewBox="0 0 20 20">
  <path d="M17.49 9.79h-1.68V8.67c0-.2-.02-.58-.16-.86s-.37-.51-.66-.66c-.32-.16-.66-.16-1.28-.16h-.5c-.62 0-.96 0-1.28.16-.28.15-.51.37-.66.66-.14.28-.16.66-.16.86v1.12H9.5c-.28 0-.5.22-.5.5s.22.5.5.5h.16v4.31c0 .92 0 1.38.22 1.81.19.38.49.68.87.87.43.22.92.22 1.81.22h1.8c.92 0 1.38 0 1.81-.22.38-.19.68-.5.87-.87.22-.43.22-.89.22-1.81v-4.31h.23c.28 0 .5-.22.5-.5s-.22-.5-.5-.5Zm-5.38-1.11c0-.17.03-.35.05-.4.05-.09.12-.17.22-.22.11-.05.39-.05.83-.05h.5c.43 0 .72 0 .83.05.09.05.17.12.22.22.03.05.05.23.05.4V9.8h-2.7V8.68Zm4.15 6.42c0 .73 0 1.14-.11 1.35-.1.19-.25.34-.44.44-.21.11-.62.11-1.35.11h-1.8c-.74 0-1.14 0-1.35-.11-.19-.1-.34-.25-.44-.44-.11-.21-.11-.62-.11-1.35v-4.31h5.6v4.31Z"/>
  <path d="M14.51 15.3c.28 0 .5-.22.5-.5v-2.41c0-.28-.22-.5-.5-.5s-.5.22-.5.5v2.41c0 .28.22.5.5.5Zm-2.02 0c.28 0 .5-.22.5-.5v-2.41c0-.28-.22-.5-.5-.5s-.5.22-.5.5v2.41c0 .28.22.5.5.5ZM6.1 17c-1.18 0-1.77 0-2.14-.19-.33-.17-.6-.43-.76-.77-.19-.37-.19-.97-.19-2.14V6.1c0-1.18 0-1.77.19-2.14.17-.33.43-.6.77-.76.37-.19.97-.19 2.14-.19h4.8c1.18 0 1.77 0 2.14.19.33.17.6.43.76.76.06.12.1.25.13.43.04.27.3.46.57.41.27-.04.46-.3.41-.57-.05-.28-.12-.51-.23-.73a2.73 2.73 0 0 0-1.2-1.2c-.59-.3-1.26-.3-2.6-.3h-4.8c-1.34 0-2.01 0-2.6.3-.51.26-.93.68-1.19 1.2C2 4.09 2 4.76 2 6.1v7.8c0 1.34 0 2.01.3 2.6.27.52.68.94 1.2 1.2.59.3 1.26.3 2.6.3h.07c.28 0 .46-.22.46-.5s-.26-.5-.54-.5h.01Z"/>
  <path d="M6.5 9.04h-1c-.28 0-.5.22-.5.5s.22.5.5.5h1c.28 0 .5-.22.5-.5s-.22-.5-.5-.5Zm1.99-3H5.5c-.28 0-.5.22-.5.5s.22.5.5.5h2.99c.28 0 .5-.22.5-.5s-.22-.5-.5-.5Z"/>
</svg>
