<svg xmlns="http://www.w3.org/2000/svg" viewBox="0 0 20 20">
  <path d="M17.5 18a.47.47 0 0 1-.35-.15l-1.6-1.6c-.69.54-1.55.86-2.49.86-2.24 0-4.06-1.82-4.06-4.06 0-2.24 1.82-4.06 4.06-4.06 2.24 0 4.06 1.82 4.06 4.06 0 .94-.32 1.8-.86 2.49l1.6 1.6c.2.2.2.51 0 .71-.1.1-.23.15-.35.15h-.01Zm-4.44-8a3.06 3.06 0 1 0 0 6.12c.82 0 1.57-.33 2.12-.86.01-.01.02-.03.03-.04.01-.01.02-.02.04-.03a3.054 3.054 0 0 0-2.2-5.18l.01-.01Z"/>
  <path d="M6.86 18H6.1c-1.34 0-2.01 0-2.6-.3a2.73 2.73 0 0 1-1.2-1.2c-.3-.59-.3-1.26-.3-2.6V6.1c0-1.34 0-2.01.3-2.6.26-.52.68-.93 1.2-1.2C4.09 2 4.76 2 6.1 2h4.8c1.34 0 2.01 0 2.6.3.52.27.94.68 1.2 1.2.27.54.29 1.16.3 2.13 0 .28-.22.5-.5.5s-.5-.22-.5-.5c0-.91-.03-1.37-.19-1.68-.17-.33-.43-.6-.77-.77-.37-.19-.97-.19-2.14-.19H6.1c-1.18 0-1.77 0-2.14.19-.33.17-.6.43-.76.77-.19.37-.19.97-.19 2.14v7.8c0 1.18 0 1.77.19 2.14.17.33.43.6.77.77.37.19.97.19 2.14.19h.76c.28 0 .5.22.5.5s-.22.5-.5.5l-.01.01Zm.64-7.96h-2c-.28 0-.5-.22-.5-.5s.22-.5.5-.5h2c.28 0 .5.22.5.5s-.22.5-.5.5Zm1.99-3H5.5c-.28 0-.5-.22-.5-.5s.22-.5.5-.5h3.99c.28 0 .5.22.5.5s-.22.5-.5.5Z"/>
</svg>
