<svg xmlns="http://www.w3.org/2000/svg" viewBox="0 0 20 20">
  <path d="M14.59 18c-1.71 0-3.09-1.39-3.09-3.09v-3.55c0-.44.23-.83.58-1.06V8.12c0-.62.5-1.12 1.11-1.12H16c.61 0 1.12.5 1.12 1.12v2.18c.35.23.58.62.58 1.06v3.55c0 1.71-1.39 3.09-3.09 3.09h-.02Zm-1.82-6.91c-.15 0-.27.12-.27.27v3.55c0 1.15.94 2.09 2.09 2.09s2.09-.94 2.09-2.09v-3.55c0-.15-.12-.27-.27-.27h-3.65.01Zm.3-1h3.04V8.11c0-.06-.05-.12-.12-.12h-2.81c-.06 0-.11.05-.11.12v1.98Z"/>
  <path d="M15.3 8.5h-1.41v1h1.41v-1ZM5.47 18c-.95 0-1.49-.05-1.97-.3a2.73 2.73 0 0 1-1.2-1.2c-.3-.59-.3-1.26-.3-2.6V7c0-.74 0-1.11.09-1.46.25-.95 1-1.69 1.94-1.94.26-.07.53-.09.96-.09 0-.36.02-.59.14-.82.12-.24.31-.42.55-.55C5.95 2 6.21 2 6.7 2h3.6c.48 0 .75 0 1.02.14.24.12.43.31.55.55.12.23.13.46.14.82.43 0 .7.02.96.09a.496.496 0 1 1-.26.96c-.16-.04-.36-.05-.7-.06 0 .36-.02.59-.14.82-.12.24-.31.42-.54.55-.27.14-.53.14-1.02.14h-3.6c-.48 0-.75 0-1.02-.14a1.27 1.27 0 0 1-.55-.55c-.12-.23-.13-.46-.14-.82-.34 0-.55.02-.7.06-.6.16-1.08.64-1.24 1.24C3 6.02 3 6.35 3 7v6.9c0 1.18 0 1.77.19 2.14.17.33.43.6.77.77.3.15.75.18 1.52.19h3.44c.28 0 .5.22.5.5s-.22.5-.5.5H5.47ZM6 4.3c0 .25 0 .51.03.56.02.05.06.08.11.11s.31.03.56.03h3.6c.25 0 .51 0 .56-.03.05-.02.09-.06.11-.11.03-.05.03-.31.03-.56v-.6c0-.25 0-.51-.03-.56-.02-.05-.06-.08-.11-.11S10.55 3 10.3 3H6.7c-.25 0-.51 0-.56.03-.05.02-.09.06-.11.11C6 3.19 6 3.45 6 3.7v.6Z"/>
  <path d="M6.56 12h-1c-.28 0-.5-.22-.5-.5s.22-.5.5-.5h1c.28 0 .5.22.5.5s-.22.5-.5.5Zm1.98-3H5.55c-.28 0-.5-.22-.5-.5s.22-.5.5-.5h2.99c.28 0 .5.22.5.5s-.22.5-.5.5Z"/>
</svg>
