<svg xmlns="http://www.w3.org/2000/svg" viewBox="0 0 20 20">
  <path d="M3.42 14.08c-.08 0-.15-.02-.23-.05-.41-.21-.74-.54-.96-.96-.24-.47-.24-.98-.24-2.01V5.2c0-1.02 0-1.54.24-2.01.21-.41.55-.75.96-.96.47-.24.98-.24 2.01-.24h3.6c1.02 0 1.54 0 2.01.24.41.21.75.55.96.96.13.25.03.55-.22.67s-.55.03-.67-.22c-.11-.22-.3-.41-.52-.52-.25-.13-.72-.13-1.55-.13h-3.6c-.84 0-1.3 0-1.55.13-.22.11-.41.3-.52.52-.13.25-.13.72-.13 1.55v5.86c0 .84 0 1.3.13 1.55.11.22.3.41.52.52.25.13.34.43.22.67-.09.17-.26.27-.45.27l-.01.02Zm12.18 3.94h-2.56c-.73 0-1.13 0-1.49-.19-.32-.16-.58-.42-.74-.74-.19-.36-.19-.55-.19-1.27v-.18h-.1c-.83 0-1.5-.67-1.5-1.5s.67-1.5 1.5-1.5h.1c0-.42.02-.71.13-.97.17-.41.51-.75.92-.92.3-.12.61-.13 1.15-.13v-.1c0-.83.67-1.5 1.5-1.5s1.5.67 1.5 1.5v.1c.54 0 .85 0 1.15.13.42.17.75.51.92.92.13.31.13.65.13 1.25v2.68c0 .73 0 1.13-.19 1.49-.16.32-.42.58-.74.74-.36.19-.76.19-1.49.19Zm-5.08-4.38c-.28 0-.5.22-.5.5s.22.5.5.5h.6c.28 0 .5.22.5.5v.68c0 .66 0 .68.08.81.07.13.17.24.31.31.15.08.48.08 1.04.08h2.56c.55 0 .89 0 1.04-.08.13-.07.24-.17.31-.31.08-.15.08-.48.08-1.04v-2.68c0-.46 0-.74-.05-.87a.707.707 0 0 0-.38-.38c-.13-.05-.41-.05-.87-.05h-.4c-.28 0-.5-.22-.5-.5v-.6c0-.28-.22-.5-.5-.5s-.5.22-.5.5v.6c0 .28-.22.5-.5.5h-.4c-.46 0-.74 0-.87.05-.17.07-.31.21-.38.38-.05.12-.05.36-.05.71v.38c0 .28-.22.5-.5.5h-.6l-.02.01Z"/>
  <path d="M8 18c-1.13 0-1.7 0-2.2-.26-.45-.23-.81-.59-1.04-1.04-.26-.51-.26-1.07-.26-2.2V8c0-1.13 0-1.7.26-2.2.23-.45.59-.81 1.04-1.04.51-.26 1.07-.26 2.2-.26h4c1.13 0 1.7 0 2.2.26.45.23.81.59 1.04 1.04.19.37.23.79.25 1.18.01.28-.2.51-.48.52-.27.02-.51-.2-.52-.48-.02-.39-.06-.61-.14-.77a1.34 1.34 0 0 0-.6-.6c-.29-.15-.81-.15-1.75-.15H8c-.94 0-1.46 0-1.75.15-.26.13-.47.34-.6.6-.15.29-.15.81-.15 1.75v6.5c0 .94 0 1.46.15 1.75.13.26.34.47.6.6.29.15.81.15 1.75.15.28 0 .5.22.5.5s-.22.5-.5.5Zm.68-6.63H7.5c-.28 0-.5-.22-.5-.5s.22-.5.5-.5h1.18c.28 0 .5.22.5.5s-.22.5-.5.5Zm2.14-2.5H7.5c-.28 0-.5-.22-.5-.5s.22-.5.5-.5h3.32c.28 0 .5.22.5.5s-.22.5-.5.5Z"/>
</svg>
