<svg xmlns="http://www.w3.org/2000/svg" viewBox="0 0 20 20">
  <path d="M15.37 18h-3.73c-.8 0-1.24 0-1.63-.2a1.82 1.82 0 0 1-.8-.8c-.2-.39-.2-.83-.2-1.63v-.53c0-.28.22-.5.5-.5s.5.22.5.5v.53c0 .64 0 1 .09 1.18.08.16.21.29.36.37.18.09.53.09 1.18.09h3.73c.64 0 1 0 1.18-.09.16-.08.28-.21.36-.37.09-.18.09-.53.09-1.18v-.53c0-.28.22-.5.5-.5s.5.22.5.5v.53c0 .8 0 1.24-.2 1.63-.18.35-.45.62-.8.8-.39.2-.83.2-1.63.2Zm-1.87-2.67c-.28 0-.5-.22-.5-.5V10.7l-1.37 1.37c-.2.2-.51.2-.71 0-.2-.2-.2-.51 0-.71l2.22-2.22.01-.01a.56.56 0 0 1 .15-.1.5.5 0 0 1 .38 0c.06.02.11.05.15.1l.01.01 2.22 2.22c.2.2.2.51 0 .71-.2.2-.51.2-.71 0l-1.37-1.37v4.13c0 .28-.22.5-.5.5h.02Z"/>
  <path d="M5.95 18c-1.26 0-1.89-.01-2.45-.3a2.73 2.73 0 0 1-1.2-1.2c-.3-.59-.3-1.26-.3-2.6V6.1c0-1.34 0-2.01.3-2.6.26-.52.68-.93 1.2-1.2C4.09 2 4.76 2 6.1 2h4.8c1.34 0 2.01 0 2.6.3.52.27.94.68 1.2 1.2.27.54.3 1.16.3 2.13 0 .28-.22.5-.5.5s-.5-.22-.5-.5c0-.91-.03-1.37-.19-1.68-.17-.33-.43-.6-.77-.77-.37-.19-.97-.19-2.14-.19H6.1c-1.18 0-1.77 0-2.14.19-.33.17-.6.43-.76.76-.19.38-.19.97-.19 2.14v7.8c0 1.18 0 1.77.19 2.14.17.33.43.6.77.77.36.18.93.19 2 .19.28 0 .5.22.5.5s-.22.5-.5.5l-.02.02Zm1.55-7.96h-2c-.28 0-.5-.22-.5-.5s.22-.5.5-.5h2c.28 0 .5.22.5.5s-.22.5-.5.5Zm1.99-3H5.5c-.28 0-.5-.22-.5-.5s.22-.5.5-.5h3.99c.28 0 .5.22.5.5s-.22.5-.5.5Z"/>
</svg>
