<svg xmlns="http://www.w3.org/2000/svg" viewBox="0 0 20 20">
  <path d="M13.51 18a4.4 4.4 0 0 1-1.3-.19c-.7-.21-1.35-.59-1.87-1.11a4.513 4.513 0 0 1-.36-6.01 4.67 4.67 0 0 1 1.72-1.33c.25-.11.55 0 .66.26.11.25 0 .55-.26.66-.52.23-.99.59-1.34 1.03-.35.45-.6.98-.7 1.54-.1.56-.07 1.15.1 1.69s.47 1.04.88 1.44c.41.4.91.7 1.45.86.55.16 1.13.19 1.69.08a3.49 3.49 0 0 0 1.53-.72c.44-.36.79-.83 1.02-1.35.11-.25.4-.37.66-.27.25.11.37.4.27.66a4.508 4.508 0 0 1-3.28 2.66c-.29.06-.58.08-.87.08V18Zm.32-4c-.15 0-.29 0-.44-.08a.67.67 0 0 1-.3-.3c-.08-.15-.08-.29-.08-.44V9.82c0-.15 0-.3.09-.45.07-.13.19-.24.33-.3.16-.07.3-.06.42-.05a4.498 4.498 0 0 1 2.84 1.31c.42.42.75.91.98 1.46.18.44.29.89.33 1.36.01.14.02.28-.05.44a.71.71 0 0 1-.31.33c-.15.08-.29.08-.44.08h-3.37Zm.17-1h2.97A3.505 3.505 0 0 0 14 10.03V13Z"/>
  <path d="M6.86 18H6.1c-1.34 0-2.01 0-2.6-.3a2.73 2.73 0 0 1-1.2-1.2c-.3-.59-.3-1.26-.3-2.6V6.1c0-1.34 0-2.01.3-2.6.26-.52.68-.93 1.2-1.2C4.09 2 4.76 2 6.1 2h4.8c1.34 0 2.01 0 2.6.3.52.27.94.68 1.2 1.2.27.54.29 1.16.3 2.13 0 .28-.22.5-.5.5s-.5-.22-.5-.5c0-.91-.03-1.37-.19-1.68-.17-.33-.43-.6-.77-.77-.37-.19-.97-.19-2.14-.19H6.1c-1.18 0-1.77 0-2.15.19-.33.17-.6.43-.76.77C3 4.32 3 4.92 3 6.09v7.8c0 1.18 0 1.77.19 2.14.17.33.43.6.77.77.37.19.97.19 2.14.19h.76c.28 0 .5.22.5.5s-.22.5-.5.5V18Zm.64-7.96h-2c-.28 0-.5-.22-.5-.5s.22-.5.5-.5h2c.28 0 .5.22.5.5s-.22.5-.5.5Zm1.99-3H5.5c-.28 0-.5-.22-.5-.5s.22-.5.5-.5h3.99c.28 0 .5.22.5.5s-.22.5-.5.5Z"/>
</svg>
