<svg xmlns="http://www.w3.org/2000/svg" viewBox="0 0 20 20">
  <path d="M7.31 14a.47.47 0 0 1-.35-.15c-.2-.2-.2-.51 0-.71l2.15-2.15H2.5c-.28 0-.5-.22-.5-.5s.22-.5.5-.5h6.6L6.95 7.84c-.2-.2-.2-.51 0-.71.2-.2.51-.2.71 0l3 3 .01.01s.07.09.09.15c.03.06.04.13.04.2s-.01.14-.04.2c-.02.05-.05.1-.09.15l-.01.01-3 3c-.1.1-.23.15-.35.15Z"/>
  <path d="M12.91 18H7.14c-.38 0-.57 0-.73-.02a2.758 2.758 0 0 1-2.37-2.37c-.02-.16-.02-.35-.02-.73 0-.28.22-.5.5-.5s.5.22.5.5c0 .31 0 .47.01.6.1.78.72 1.4 1.51 1.51.13.02.29.01.6.01h5.77c1.18 0 1.77 0 2.14-.19.33-.17.6-.43.76-.76.19-.38.19-.97.19-2.14V8.5c0-.51 0-.77-.05-.97-.04-.18-.11-.35-.21-.51-.11-.17-.29-.35-.65-.71l-2.39-2.4c-.36-.36-.54-.54-.72-.65-.16-.1-.33-.17-.51-.21-.2-.05-.46-.05-.97-.05H7.12c-.31 0-.47 0-.6.01-.79.1-1.4.72-1.51 1.51-.02.13-.01.29-.01.6 0 .28-.22.5-.5.5S4 5.4 4 5.12c0-.38 0-.57.02-.73A2.79 2.79 0 0 1 6.4 2.02C6.56 2 6.75 2 7.13 2h3.38c.57 0 .88 0 1.2.08.28.07.55.18.79.33.28.17.5.39.9.79l2.39 2.4c.4.4.63.62.8.9.15.25.26.52.33.8.08.32.08.63.08 1.2v5.41c0 1.34 0 2.01-.3 2.6-.26.52-.68.94-1.2 1.2-.59.3-1.26.3-2.6.3l.01-.01Z"/>
</svg>
