<svg xmlns="http://www.w3.org/2000/svg" viewBox="0 0 20 20">
  <path d="M9.46 18c-.06 0-.11 0-.17-.01-.4-.06-.77-.28-1.01-.61-.27-.38-.27-.86-.27-1.8v-3.66c0-.18 0-.29-.01-.34a.31.31 0 0 0-.06-.13c-.03-.05-.11-.12-.25-.26L2.62 6.24c-.19-.18-.3-.29-.4-.44a1.16 1.16 0 0 1-.18-.43C2 5.2 2 5.04 2 4.78v-.72c0-.61 0-.94.17-1.26.15-.28.37-.5.66-.64C3.15 2 3.49 2 4.11 2h4.73c.28 0 .5.22.5.5s-.22.5-.5.5H4.1c-.44 0-.73 0-.83.05-.09.05-.17.12-.22.21-.05.1-.05.38-.05.8v.72c0 .19 0 .3.01.35.01.05.03.09.06.13.03.05.11.13.25.26l5.07 4.94c.19.18.3.29.4.44.08.13.15.28.18.43.04.17.04.32.04.58v3.66c0 .61 0 1.09.09 1.21.08.11.2.18.34.2.17.03.61-.19 1.17-.47l.8-.39c.27-.13.41-.2.47-.26.05-.05.09-.11.11-.18.03-.07.03-.24.03-.51V12.9c0-.28.22-.5.5-.5s.5.22.5.5v2.27c0 .39 0 .61-.08.85-.07.21-.19.39-.35.55-.18.18-.39.28-.73.45l-.8.39c-.75.37-1.18.57-1.58.57l-.02.02Z"/>
  <path d="M14 10c-.28 0-.5-.22-.5-.5v-3h-3c-.28 0-.5-.22-.5-.5s.22-.5.5-.5h3v-3c0-.28.22-.5.5-.5s.5.22.5.5v3h3c.28 0 .5.22.5.5s-.22.5-.5.5h-3v3c0 .28-.22.5-.5.5Z"/>
</svg>
