<svg xmlns="http://www.w3.org/2000/svg" viewBox="0 0 20 20">
  <path d="M10 6.75c-.28 0-.5-.22-.5-.5V2.5c0-.28.22-.5.5-.5s.5.22.5.5v3.75c0 .28-.22.5-.5.5Zm-2.83-.01c-.28 0-.5-.22-.5-.5v-2.1c0-.28.22-.5.5-.5s.5.22.5.5v2.1c0 .28-.22.5-.5.5Zm5.66 0c-.28 0-.5-.22-.5-.5V5.09c0-.28.22-.5.5-.5s.5.22.5.5v1.15c0 .28-.22.5-.5.5ZM9.106 17.98c-.33-.05-.62-.23-.81-.5-.22-.31-.22-.69-.22-1.38v-1.58a.916.916 0 0 0-.18-.22l-3.55-2.96c-.17-.17-.26-.26-.33-.38-.06-.1-.11-.22-.14-.34-.03-.14-.03-.26-.03-.46v-.52c0-.45 0-.71.13-.97.12-.23.3-.41.53-.53.26-.13.53-.13.97-.13h9.05c.45 0 .71 0 .97.13.23.12.41.3.53.53.13.26.13.53.13.97v.53c0 .19 0 .31-.03.45-.03.12-.08.24-.14.35-.08.12-.17.21-.3.35l-3.61 3.02s-.11.11-.12.13c-.03.08-.03.18-.03.28v1.08c0 .29 0 .46-.07.66-.06.17-.16.32-.28.45-.14.15-.31.23-.56.35l-.57.28c-.54.27-.86.43-1.19.43-.059 0-.11-.012-.15-.02Zm-3.65-8.99c-.23 0-.47 0-.52.02-.04.02-.07.05-.09.09-.02.05-.02.29-.02.52v.74c.04.08.11.15.17.22l3.55 2.97c.17.17.26.25.33.38.07.11.12.23.15.35.03.14.03.25.03.45v1.36c0 .36 0 .73.04.81.03.04.08.07.14.08.09 0 .42-.17.74-.33l.57-.28c.12-.06.26-.13.29-.16.06-.11.06-.26.06-.41v-1.08c0-.2 0-.32.03-.46.03-.12.08-.24.15-.35.07-.12.16-.2.29-.34l3.62-3.03s.11-.11.12-.13c.03-.08.03-.18.03-.28V9.6c0-.22 0-.47-.02-.52a.196.196 0 0 0-.09-.09c-.05-.02-.29-.02-.52-.02l-9.05.02Z"/>
</svg>
