<svg xmlns="http://www.w3.org/2000/svg" viewBox="0 0 20 20">
  <path d="M9.42 18s-.1 0-.14-.01c-.33-.05-.62-.23-.81-.5-.22-.31-.22-.69-.22-1.38v-1.58c-.04-.08-.11-.15-.18-.22l-3.55-2.96c-.17-.17-.26-.25-.33-.37s-.12-.23-.15-.36c-.03-.13-.03-.25-.03-.45v-.52c0-.45 0-.71.13-.97.12-.23.3-.42.53-.53.26-.13.53-.13.97-.13h9.06c.45 0 .71 0 .97.13.23.12.41.3.53.53.13.26.13.53.13.97v.53c0 .2 0 .31-.03.45-.03.12-.08.24-.15.35-.07.12-.16.21-.3.35l-3.62 3.02s-.11.11-.12.13c-.03.08-.03.18-.03.29v1.08c0 .29 0 .46-.07.66-.06.17-.15.32-.28.45-.14.14-.3.22-.55.35l-.57.29c-.54.27-.87.43-1.19.43V18ZM5.63 9c-.23 0-.47 0-.52.02-.04.02-.07.05-.09.09C5 9.16 5 9.4 5 9.63v.74c.04.08.11.15.18.22l3.55 2.96c.17.17.26.25.33.38.07.11.12.22.14.35.03.14.03.25.03.45v1.36c0 .36 0 .73.04.81.03.04.08.07.14.08.09 0 .41-.16.72-.32l.58-.29c.13-.07.27-.13.29-.16.06-.11.06-.26.06-.41v-1.08c0-.2 0-.32.03-.46.03-.13.08-.25.15-.35.07-.12.16-.21.29-.34l3.62-3.03s.11-.11.12-.13c.03-.08.03-.18.03-.28V9.6c0-.23 0-.47-.02-.52a.196.196 0 0 0-.09-.09c-.05-.02-.29-.02-.52-.02H5.63V9Zm.05-1.57c-.28 0-.5-.22-.5-.5V4.05c0-.6 0-.96.2-1.28.17-.27.42-.49.74-.62C6.46 2 6.83 2 7.54 2h4.79c.13 0 .26.05.35.15l2.33 2.35c.09.09.15.22.15.35v2.08c0 .28-.22.5-.5.5s-.5-.22-.5-.5V5.06l-2.04-2.05H7.54c-.55 0-.88 0-1.03.07-.12.05-.22.13-.28.22-.05.09-.05.37-.05.76v2.88c0 .28-.22.5-.5.5v-.01ZM10.19 6H8.41c-.28 0-.5-.22-.5-.5s.22-.5.5-.5h1.78c.28 0 .5.22.5.5s-.22.5-.5.5Z"/>
</svg>
