<svg xmlns="http://www.w3.org/2000/svg" viewBox="0 0 20 20">
  <path d="M9.02 18c-.06 0-.11 0-.17-.01-.39-.06-.74-.29-.97-.62-.25-.38-.25-.85-.25-1.79v-4.65c0-.18 0-.29-.01-.35a.35.35 0 0 0-.06-.14c-.03-.04-.1-.12-.23-.26L2.62 6.27c-.22-.22-.32-.33-.41-.48-.08-.13-.13-.27-.17-.42C2 5.2 2 5.05 2 4.79v-.72c0-.6 0-.94.15-1.25.14-.28.35-.5.62-.65C3.08 2 3.41 2 3.99 2h12c.59 0 .91 0 1.22.16.27.15.49.37.63.65.15.31.15.64.15 1.25v.73c0 .25 0 .41-.04.58-.03.15-.09.29-.17.42-.09.15-.2.27-.37.45l-4.79 3.99c-.09.1-.16.17-.19.22-.03.04-.04.09-.06.14-.01.06-.01.17-.01.36v4.25c0 .39 0 .61-.08.84-.07.2-.18.39-.33.55-.17.18-.36.28-.69.45l-.75.39c-.71.37-1.12.58-1.51.58l.02-.01ZM4 3c-.39 0-.66 0-.75.05a.46.46 0 0 0-.19.2c-.05.11-.05.39-.05.81v.72c0 .19 0 .3.01.36.01.05.03.1.06.14.03.05.1.13.23.26l4.71 3.91c.22.22.32.33.41.48.08.14.14.28.17.43.04.17.04.32.04.58v4.65c0 .62 0 1.1.08 1.23.07.1.18.17.29.19.13.02.56-.2 1.06-.46l.76-.39c.23-.12.37-.2.43-.25.05-.05.09-.11.11-.18.03-.08.03-.25.03-.53v-4.25c0-.26 0-.42.04-.58.03-.15.09-.29.17-.42.09-.15.2-.27.37-.44l4.79-3.99c.09-.1.16-.17.19-.22.02-.04.04-.09.06-.14.01-.06.01-.17.01-.35v-.73c0-.42 0-.7-.05-.81a.451.451 0 0 0-.2-.21c-.09-.05-.37-.05-.75-.05H4V3Z"/>
</svg>
