<svg xmlns="http://www.w3.org/2000/svg" viewBox="0 0 20 20">
  <path d="M17.52 11.48c-.48-.48-1.11-.48-2.27-.48H4.75c-1.16 0-1.8 0-2.27.48C2 11.96 2 12.59 2 13.75v1.5c0 1.16 0 1.8.48 2.27.48.48 1.11.48 2.27.48h10.5c1.16 0 1.8 0 2.27-.48.48-.48.48-1.11.48-2.27v-1.5c0-1.16 0-1.8-.48-2.27Zm-.7.7c.18.18.18.7.18 1.57V14h-6.5v-2h4.75c.86 0 1.38 0 1.57.18ZM13.25 15v2h-6.5v-2h6.5ZM3.18 12.18c.18-.18.7-.18 1.57-.18H9.5v2H3v-.25c0-.86 0-1.38.18-1.57Zm0 4.64C3 16.64 3 16.12 3 15.25V15h2.75v2h-1c-.86 0-1.38 0-1.57-.18Zm13.64 0c-.18.18-.7.18-1.57.18h-1v-2H17v.25c0 .86 0 1.38-.18 1.57ZM4.72 9.75c.27.03.52-.16.55-.44.08-.65.34-1.35.78-2.08.44.98 1.3 1.98 2.71 1.77.16-.02.3-.12.37-.27a.53.53 0 0 0 0-.46c-1.1-2.09-.05-3.91.66-4.81.38.87 1.26 2.27 3.2 3.65.9.64 1.44 1.38 1.65 2.26.06.23.26.38.49.38.04 0 .08 0 .12-.01.27-.06.43-.33.37-.6-.27-1.11-.96-2.06-2.05-2.84-2.72-1.93-3.07-3.85-3.08-3.87a.495.495 0 0 0-.32-.39.51.51 0 0 0-.5.1c-.03.03-2.83 2.56-1.77 5.78-.9-.42-1.19-1.88-1.19-1.9a.492.492 0 0 0-.38-.39.488.488 0 0 0-.51.19C4.93 7 4.41 8.15 4.29 9.21c-.03.27.16.52.44.55l-.01-.01Z"/>
</svg>
