<svg xmlns="http://www.w3.org/2000/svg" viewBox="0 0 20 20">
  <path d="M17.91 5.74c-.08-.26-.2-.5-.37-.72-.19-.25-.43-.44-.87-.8L15.1 3.01c-.42-.34-.66-.53-.95-.67a3.31 3.31 0 0 0-.82-.28C13 2 12.69 2 12.07 2H6.35c-1.41 0-2.12 0-2.73.25-.55.23-1 .59-1.28 1.05C2 3.84 2 4.47 2 5.62v8.76c0 1.15 0 1.78.34 2.32.29.46.73.82 1.29 1.05.61.25 1.32.25 2.73.25h7.29c1.41 0 2.12 0 2.73-.25.55-.23 1-.59 1.29-1.05.34-.54.34-1.17.34-2.32V6.83c0-.51 0-.79-.09-1.08l-.01-.01ZM11.99 3v3.02H7.07V3h4.92ZM7.02 17v-3.7c0-.14 0-.29-.06-.29.06-.01.14 0 .26 0h5.6c.12 0 .2 0 .19-.04v3.74c0 .15-.01.3.06.29H7.02ZM17 14.38c0 .99 0 1.49-.19 1.79-.17.28-.47.51-.82.66-.38.16-.95.17-1.99.17v-3.7c0-.33 0-.53-.09-.73a.969.969 0 0 0-.4-.45c-.21-.12-.42-.12-.71-.12H7.2c-.29 0-.5 0-.71.12-.17.1-.31.26-.4.45-.09.2-.09.4-.09.73V17c-1.06 0-1.63-.02-2.01-.17-.35-.15-.65-.38-.82-.66-.19-.29-.19-.79-.19-1.79V5.62c0-.99 0-1.49.19-1.79.17-.28.47-.51.82-.66.39-.16.97-.17 2.06-.17v3.03c0 .21 0 .38.09.55.08.15.2.27.36.35.17.08.33.08.55.08h4.94c.22 0 .38 0 .55-.09.15-.08.28-.2.36-.35.09-.17.09-.34.09-.55v-3c.06 0 .11.01.16.02.2.04.39.1.57.19.19.09.38.25.78.57L16.05 5c.39.31.58.47.69.62.1.13.17.26.21.4.04.15.05.34.05.8v7.56Z"/>
</svg>
