<svg xmlns="http://www.w3.org/2000/svg" viewBox="0 0 20 20">
  <path d="M18 7.78c-.02-.61-.12-1.06-.34-1.45-.27-.47-.7-.84-1.21-1.07-.32-.14-.66-.2-1.06-.23S14.5 5 13.88 5h-2.11c-.41 0-.49 0-.56-.03a.615.615 0 0 1-.19-.12c-.05-.05-.09-.12-.26-.49l-.41-.91s-.01-.03-.02-.04c-.22-.39-.39-.7-.65-.92-.21-.18-.47-.32-.74-.4C8.62 2 8.26 2 7.76 2H4.9c-.42 0-.75 0-1.02.02-.28.02-.53.06-.76.17-.37.16-.68.43-.88.78-.13.23-.18.47-.21.73-.03.24-.03.54-.03.9v8.75c0 .55 0 .99.03 1.34.03.36.11.69.28.99.27.47.7.84 1.21 1.07.32.14.66.2 1.06.23s.89.03 1.51.03h2.67c.28 0 .5-.22.5-.5v-2.85c0-.28 0-.46-.1-.65a.917.917 0 0 0-.39-.39c-.19-.1-.37-.1-.65-.1h-.76c.05-.07.12-.15.19-.23l2.34-2.86s.08-.1.11-.13c.03.04.07.09.11.13l2.34 2.86c.06.08.13.16.19.23h-.73c-.27 0-.46 0-.65.1a.82.82 0 0 0-.39.39c-.1.19-.1.37-.1.65v2.85c0 .28.22.5.5.5h2.64c.62 0 1.11 0 1.51-.03.4-.03.74-.09 1.06-.23.51-.23.94-.6 1.21-1.07.17-.3.25-.62.28-.99.03-.36.03-.8.03-1.34V7.78Zm-1.03 6.82c-.03.29-.08.46-.15.58-.16.27-.42.51-.75.66-.16.07-.37.12-.72.15s-.8.03-1.44.03h-2.15v-2.49h.57c.53 0 .82 0 1.07-.2.21-.17.34-.44.34-.71 0-.32-.19-.54-.52-.95l-2.34-2.86c-.2-.25-.34-.42-.57-.5a.971.971 0 0 0-.63 0c-.23.09-.36.25-.57.5l-2.34 2.86c-.33.41-.52.63-.52.95 0 .27.12.54.34.71.25.2.54.2 1.07.2h.61v2.49H6.09c-.64 0-1.09 0-1.44-.03-.35-.03-.56-.07-.72-.15-.33-.15-.59-.38-.75-.66-.07-.12-.12-.28-.15-.58C3 14.3 3 13.91 3 13.35V4.6c0-.38 0-.63.02-.82a.88.88 0 0 1 .08-.32c.09-.15.23-.28.43-.37.08-.04.2-.07.43-.08.23-.02.52-.02.95-.02h2.86c.57 0 .75 0 .9.05.15.04.28.12.38.2.1.08.17.2.42.64l.4.88c.14.31.25.58.45.78.16.16.36.29.57.37.26.09.56.09.89.09h2.11c.64 0 1.09 0 1.44.03.35.03.56.07.72.15.33.15.59.38.75.66.11.19.19.46.21.97v5.54c0 .418-.024.832-.04 1.25Z"/>
</svg>
