<svg xmlns="http://www.w3.org/2000/svg" viewBox="0 0 20 20">
  <path d="M9.65 4.84c.18.36.28.56.46.73.16.16.35.27.56.35.24.08.46.08.86.08H14c1.14 0 1.72 0 2.07.19.32.17.58.44.75.79.1.21.15.5.17.98.01.28.25.47.52.48.28-.01.49-.25.48-.52-.03-.63-.11-1.03-.27-1.38-.26-.53-.66-.96-1.17-1.23C15.97 5 15.31 5 14 5h-2.47c-.29 0-.46 0-.53-.03a.615.615 0 0 1-.19-.12c-.06-.06-.14-.21-.26-.47l-.37-.75c-.25-.52-.39-.81-.62-1.06a2.06 2.06 0 0 0-.73-.48c-.31-.11-.62-.11-1.19-.11H4.85c-.87 0-1.35 0-1.78.23-.36.19-.67.51-.85.9C2 3.55 2 4.02 2 4.96v7.85c0 1.37 0 2.05.29 2.65.26.53.66.96 1.17 1.23.58.31 1.24.31 2.55.31h.54c.28 0 .5-.22.5-.5s-.22-.5-.5-.5h-.54c-1.14 0-1.72 0-2.07-.19-.32-.17-.58-.44-.74-.79-.19-.39-.19-1-.19-2.22V4.96c0-.76 0-1.18.11-1.4.09-.19.24-.35.43-.45.2-.11.59-.11 1.3-.11h2.79c.45 0 .7 0 .85.05.13.05.25.13.35.23.12.12.22.33.44.8l.38.76h-.01Z"/>
  <path d="m17.69 14.04-.59-.67v-.16l.6-.67c.31-.35.35-.85.13-1.24l-.44-.77c-.23-.39-.67-.61-1.14-.51l-.89.18c-.04-.02-.08-.05-.12-.07l-.29-.87c-.15-.44-.55-.73-1.01-.73h-.88c-.46 0-.86.3-1.01.72l-.29.87s-.08.04-.12.07l-.89-.18c-.46-.1-.91.12-1.14.51l-.44.77c-.23.4-.18.9.13 1.24l.6.67v.16l-.6.67c-.31.35-.35.85-.13 1.24l.44.77c.23.39.67.61 1.14.51l.89-.18c.04.02.08.05.12.07l.29.87c.15.44.55.72 1.01.72h.88c.46 0 .86-.3 1.01-.72l.29-.88c.04-.02.08-.04.12-.07l.89.18c.46.1.91-.12 1.14-.51l.44-.77c.23-.4.18-.9-.13-1.24l-.01.02Zm-.74.74-.44.76s-.02.03-.04.03h-.03l-1.08-.22c-.14-.03-.28 0-.39.08-.11.08-.23.15-.37.21-.12.06-.22.16-.26.29l-.35 1.04s-.01.03-.03.04c-.01 0-.03.01-.04.01h-.88s-.06-.02-.07-.05l-.35-1.05a.478.478 0 0 0-.24-.28 4.74 4.74 0 0 1-.4-.23.512.512 0 0 0-.38-.08l-1.08.22h-.04c-.01 0-.03-.02-.04-.03l-.44-.76v-.07l.73-.83c.09-.1.13-.23.13-.37 0-.09-.01-.16-.01-.23s0-.14.01-.23c0-.13-.04-.27-.13-.37l-.73-.82a.048.048 0 0 1 0-.07l.44-.77c0-.02.02-.03.04-.03h.03l1.08.22c.14.03.28 0 .39-.08.11-.08.23-.15.37-.21.12-.06.22-.16.26-.29l.35-1.04s.01-.03.03-.04c.01 0 .03-.01.04-.01h.88s.06.02.07.05l.35 1.05c.04.12.13.23.24.28.15.08.28.15.4.23.11.08.25.1.38.08l1.08-.22h.04c.01 0 .03.02.04.03l.44.76v.07l-.73.82a.54.54 0 0 0-.13.37c0 .09.01.16.01.23s0 .14-.01.23c0 .13.04.27.13.37l.73.82s.02.05 0 .07v.02Z"/>
  <path d="M13.48 11.37a1.92 1.92 0 1 0 .001 3.841 1.92 1.92 0 0 0-.001-3.841Zm0 2.84c-.51 0-.92-.41-.92-.92s.41-.92.92-.92.92.41.92.92-.41.92-.92.92Z"/>
</svg>
