<svg xmlns="http://www.w3.org/2000/svg" viewBox="0 0 20 20">
  <path d="M17.96 9.44c-.11-.46-.4-.85-.8-1.1-.05-.03-.11-.05-.16-.07v-.08c-.02-.67-.06-1.19-.28-1.64-.25-.53-.66-.96-1.17-1.23-.32-.17-.67-.24-1.06-.28-.39-.03-.88-.03-1.48-.03h-1.47c-.4 0-.48 0-.54-.03a.436.436 0 0 1-.19-.12c-.05-.04-.09-.11-.26-.47l-.37-.76c-.22-.46-.37-.8-.62-1.05a2.06 2.06 0 0 0-.73-.48C8.49 2 8.12 2 7.63 2H4.84c-.4 0-.73 0-1 .02-.28.02-.53.08-.77.2-.37.2-.67.51-.85.9-.12.24-.17.5-.19.79C2 4.19 2 4.54 2 4.96v11.09s.01.05.02.08c-.02.19-.02.36.03.53.12.46.4.85.8 1.1.45.29 1 .29 2.1.29h8.88c.6 0 .93 0 1.25-.13.29-.11.54-.3.74-.53.23-.27.33-.58.52-1.17l1.23-4.41c.51-1.51.47-2.08.39-2.37ZM3 4.96c0-.44 0-.74.02-.97.02-.23.05-.35.09-.43.1-.2.25-.35.42-.45.07-.04.18-.07.39-.09.22-.02.5-.02.92-.02h2.79c.56 0 .72 0 .85.05s.25.13.36.23c.1.11.18.26.43.79l.37.76c.14.29.26.55.46.74.16.16.35.28.56.35.26.09.54.08.86.08h1.47c.62 0 1.06 0 1.4.03.33.03.53.08.68.16.32.17.58.44.74.79.11.22.16.52.18 1.08-.27-.01-.56-.02-.94-.02H6.18c-.6 0-.93 0-1.25.13-.29.11-.54.3-.74.53-.22.27-.33.58-.52 1.14L3 12.41V4.96Zm13.61 6.56-1.23 4.41c-.15.45-.23.7-.33.82-.09.11-.21.19-.34.24-.15.06-.41.06-.89.06H4.94c-.85 0-1.36 0-1.57-.13a.83.83 0 0 1-.36-.5c-.06-.24.1-.72.38-1.55l1.23-4.71c.15-.44.23-.68.33-.8.09-.11.21-.19.34-.24.15-.06.41-.06.89-.06h8.88c.85 0 1.36 0 1.57.13.18.12.31.29.36.5.02.07.08.47-.38 1.83Z"/>
  <path d="M13.85 10.75c-.28 0-.5.22-.5.5v2.21c0 .67-.32.79-.44.83-.12.04-.27.07-.44.07-.56 0-.81-.26-.81-.84v-2.26c0-.28-.22-.5-.5-.5s-.5.22-.5.5v2.26c0 1.14.69 1.84 1.81 1.84.29 0 .55-.04.78-.12.71-.26 1.11-.89 1.11-1.77v-2.21c0-.28-.22-.5-.5-.5l-.01-.01Zm-5.24.61c-.11-.24-.19-.43-.41-.54a.7.7 0 0 0-.6 0c-.22.11-.3.3-.41.54L5.7 14.65c-.11.25 0 .55.25.66a.522.522 0 0 0 .67-.25l.18-.39h2.24l.18.39c.11.25.41.36.66.25.25-.11.36-.41.25-.66l-1.49-3.29h-.03Zm-1.37 2.31.66-1.46.66 1.46H7.23h.01Z"/>
</svg>
