<svg xmlns="http://www.w3.org/2000/svg" viewBox="0 0 20 20">
  <path d="M17.93 13.05c-.09-.24-.23-.39-.28-.44a2.91 2.91 0 0 0-.18-.16l-3.51-3.01c-.08-.07-.17-.15-.25-.2a1.24 1.24 0 0 0-.69-.25c-.38 0-.73.15-.96.44-.23.28-.25.58-.26.68v1.35c-.78.28-1.47.75-2.02 1.37-.82.91-1.27 2.09-1.27 3.31 0 .46.26.85.69 1.01.13.05.27.08.41.08.23 0 .45-.09.64-.23.04-.02.08-.05.12-.08.01-.01.03-.02.04-.03.32-.34.69-.62 1.11-.82.09-.04.18-.08.28-.12v.85c0 .1.04.4.26.68.23.28.57.44.94.44h.03c.24 0 .47-.09.68-.24.08-.06.17-.13.28-.22l3.48-2.99c.05-.04.12-.1.17-.16.05-.05.19-.2.28-.44.09-.26.09-.55 0-.81l.01-.01Zm-4.62 3.67-.18.15c-.02.01-.07.05-.12.05-.06.01-.13-.03-.17-.08a.242.242 0 0 1-.04-.13v-1.42c0-.15-.11-.28-.23-.38a.6.6 0 0 0-.45-.09c-.36.08-.71.2-1.03.35-.53.26-1.01.61-1.41 1.04-.04.05-.11.02-.17-.06a3.98 3.98 0 0 1 2.76-3.79l.18-.06c.2-.07.34-.27.34-.48V10.2c0-.03 0-.1.04-.14.04-.05.1-.08.16-.08.05.01.11.04.14.06.06.04.12.09.2.16l3.49 3s.07.06.16.17c.02.05.02.09-.05.22-.03.03-.07.07-.11.09l-3.51 3.01v.03Z"/>
  <path d="M6.096 16H6.01c-.62 0-1.06 0-1.4-.03-.33-.03-.53-.08-.68-.16-.32-.17-.58-.44-.74-.79-.08-.17-.13-.38-.16-.74S3 13.46 3 12.8V4.96c0-.44 0-.74.02-.97.02-.23.05-.35.09-.43.1-.2.25-.35.42-.45.07-.04.18-.07.39-.09.22-.02.5-.02.92-.02h2.79c.56 0 .72 0 .85.05s.25.13.36.23c.1.11.18.26.43.79l.37.76c.14.29.26.55.46.74.16.16.35.28.56.35.26.09.54.08.86.08h2.47c.62 0 1.06 0 1.4.03.33.03.53.08.68.16.32.17.58.44.74.79.11.24.17.56.18 1.21v.91c0 .28.22.5.5.5s.5-.22.5-.5v-.91c-.02-.67-.06-1.19-.28-1.64-.25-.53-.66-.96-1.17-1.23-.32-.17-.67-.24-1.06-.28-.39-.03-.88-.03-1.48-.03h-2.47c-.4 0-.48 0-.54-.03a.436.436 0 0 1-.19-.12c-.05-.04-.09-.11-.26-.47l-.37-.76c-.22-.46-.37-.8-.62-1.05a2.06 2.06 0 0 0-.73-.48C8.49 2 8.12 2 7.63 2H4.84c-.4 0-.73 0-1 .02-.28.02-.53.08-.77.2-.37.2-.67.51-.85.9-.12.24-.17.5-.19.79C2 4.19 2 4.54 2 4.96v7.85c0 .64 0 1.15.03 1.56.03.41.1.77.26 1.09.25.53.66.96 1.17 1.23.32.17.67.24 1.06.28.39.03.88.03 1.48.03h.086c.28 0 .5-.22.5-.5s-.22-.5-.5-.5h.01Z"/>
</svg>
