<svg xmlns="http://www.w3.org/2000/svg" viewBox="0 0 20 20">
  <path d="M13.91 18H6.09c-1.33 0-1.99 0-2.57-.26-.52-.23-.94-.6-1.21-1.07C2 16.13 2 15.54 2 14.34V4.6c0-.8 0-1.24.23-1.63.2-.34.5-.61.88-.78C3.53 2 3.98 2 4.89 2h2.86c.57 0 .88 0 1.19.09.28.08.53.22.74.4.24.21.39.46.65.92l.43.95c.12.27.2.43.26.5.05.06.12.1.19.12.08.03.26.03.56.03h2.11c1.33 0 1.99 0 2.57.26.52.23.94.6 1.21 1.07.22.38.33.82.34 1.45v6.57c0 1.19 0 1.79-.31 2.33-.27.46-.69.83-1.21 1.07-.58.26-1.24.26-2.57.26V18ZM4.9 3c-.74 0-1.15 0-1.37.1a.92.92 0 0 0-.43.37C3 3.64 3 3.98 3 4.6v9.75c0 1.01 0 1.52.18 1.82.16.28.42.51.75.66.38.17.98.17 2.16.17h7.82c1.18 0 1.78 0 2.16-.17.33-.15.59-.37.75-.66.18-.31.18-.81.18-1.83V7.78c-.01-.44-.08-.73-.21-.96-.16-.28-.42-.51-.75-.66-.38-.17-.98-.17-2.16-.17h-2.11c-.42 0-.65 0-.89-.09-.22-.08-.41-.21-.57-.37-.18-.19-.28-.4-.45-.78l-.41-.91c-.2-.35-.3-.52-.41-.61-.11-.09-.24-.16-.38-.21-.17-.05-.41-.05-.9-.05H4.9V3Z"/>
</svg>
