<svg xmlns="http://www.w3.org/2000/svg" viewBox="0 0 20 20">
  <path d="m17.14 12.12-1.99-.28-.89-1.81c-.13-.26-.22-.45-.45-.56a.723.723 0 0 0-.61 0c-.22.11-.31.3-.44.56l-.88 1.8-2.01.29c-.29.04-.49.07-.66.25a.7.7 0 0 0-.19.58c.03.24.18.39.39.6l1.44 1.39-.34 2c-.05.29-.09.5.03.71.1.19.28.32.5.36h.11c.19 0 .35-.09.57-.2l1.77-.94 1.8.95c.25.13.44.23.69.19.21-.04.39-.17.49-.36.12-.22.08-.43.03-.71l-.35-1.98 1.45-1.41c.21-.21.36-.35.39-.6a.69.69 0 0 0-.19-.58c-.17-.18-.38-.21-.67-.25h.01Zm-1.74 2.17c-.06.06-.12.12-.18.22-.03.05-.07.19-.08.25-.01.11 0 .19.02.27l.3 1.75-1.56-.82a1 1 0 0 0-.27-.11h-.12c-.06 0-.12 0-.16.01-.1.02-.18.06-.24.1l-1.57.82.3-1.74c.02-.09.03-.17.02-.26 0-.07-.05-.21-.08-.27a.916.916 0 0 0-.17-.21l-1.27-1.24 1.79-.26c.07-.01.15-.02.22-.06.06-.03.18-.12.23-.16.07-.08.11-.15.15-.23l.78-1.59.79 1.6c.04.07.07.15.14.22.04.04.16.13.21.16.09.04.17.06.27.07l1.75.26-1.27 1.23v-.01Z"/>
  <path d="M2 4.96v7.85c0 .64 0 1.15.03 1.56.03.41.1.77.26 1.09.25.53.66.96 1.17 1.23.32.17.67.24 1.06.28.39.03.88.03 1.48.03h.54c.28 0 .5-.22.5-.5s-.22-.5-.5-.5H6c-.62 0-1.06 0-1.4-.03-.33-.03-.53-.08-.68-.16-.32-.17-.58-.44-.74-.78-.08-.17-.13-.38-.16-.74s-.03-.82-.03-1.48V4.96c0-.44 0-.74.02-.97.02-.23.05-.35.09-.43.1-.2.25-.35.42-.45.07-.04.18-.07.39-.09.22-.02.5-.02.92-.02h2.79c.56 0 .72 0 .85.05s.25.13.36.23c.1.11.18.26.43.79l.37.76c.14.29.26.55.46.74.16.16.35.28.56.35.26.09.54.08.86.08h2.47c.62 0 1.06 0 1.4.03.33.03.53.08.68.16.32.17.58.44.74.79.11.24.17.56.18 1.21 0 .28.24.49.51.49.28 0 .49-.23.49-.51-.02-.66-.06-1.18-.28-1.62-.25-.53-.66-.96-1.17-1.23-.32-.17-.67-.24-1.06-.28-.39-.03-.88-.03-1.48-.03h-2.47c-.4 0-.48 0-.54-.03a.436.436 0 0 1-.19-.12c-.05-.05-.09-.11-.26-.47l-.37-.75c-.22-.46-.37-.8-.62-1.05a2.06 2.06 0 0 0-.73-.48C8.49 2 8.12 2 7.63 2H4.84c-.4 0-.73 0-1 .02-.28.02-.53.08-.77.2-.37.2-.67.51-.85.9-.12.24-.17.51-.19.79C2 4.19 2 4.54 2 4.96Z"/>
</svg>
