<svg xmlns="http://www.w3.org/2000/svg" viewBox="0 0 20 20">
  <path d="M2 13.81c0 .64 0 1.15.03 1.56.03.41.1.77.26 1.1.25.53.66.96 1.17 1.23.32.17.67.24 1.06.28.39.03.88.03 1.48.03h.54s.03 0 .05-.01h7.46c.57 0 .88 0 1.19-.13.27-.11.52-.29.7-.52.21-.26.31-.56.5-1.14l1.15-4.27c.47-1.46.44-2.01.37-2.29a1.85 1.85 0 0 0-.75-1.08c-.06-.04-.14-.07-.21-.1v-.29c-.02-.67-.06-1.19-.28-1.64-.25-.53-.66-.96-1.17-1.23-.32-.17-.67-.24-1.06-.28C14.1 5 13.61 5 13.01 5h-1.47c-.4 0-.48 0-.54-.03a.436.436 0 0 1-.19-.12c-.05-.05-.09-.11-.26-.47l-.37-.75c-.22-.46-.37-.8-.62-1.05a2.06 2.06 0 0 0-.73-.48C8.49 2 8.12 2 7.63 2H4.84c-.4 0-.73 0-1 .02-.28.02-.53.07-.77.2-.37.2-.67.51-.85.9-.12.24-.17.51-.19.79C2 4.19 2 4.54 2 4.96m1 0c0-.44 0-.74.02-.97.02-.23.05-.35.09-.43.1-.2.25-.35.42-.45.07-.04.18-.07.39-.09.22-.02.5-.02.92-.02h2.79c.56 0 .72 0 .85.05s.25.13.36.23c.1.11.18.26.43.79l.37.76c.14.29.26.55.46.74.16.16.35.28.56.35.26.09.54.08.86.08h1.47c.62 0 1.06 0 1.4.03.33.03.53.08.68.16.32.17.58.44.74.79.11.24.17.56.18 1.21v.1c-.23 0-.48-.01-.79-.01H6.88c-.57 0-.88 0-1.19.13-.27.11-.52.29-.7.52-.21.26-.31.56-.49 1.11l-1.16 4.57c-.12.37-.21.66-.28.92-.01-.08-.03-.15-.03-.25C3 14.92 3 14.46 3 13.8V4.96Zm13.63 6.69-1.15 4.27c-.14.44-.22.67-.31.79-.08.1-.19.18-.3.23-.13.05-.37.05-.82.05H5.72c-.79 0-1.26 0-1.45-.12a.783.783 0 0 1-.33-.48c-.06-.23.1-.7.36-1.5l1.15-4.55c.14-.42.21-.66.31-.77.08-.1.19-.18.31-.23.13-.05.37-.05.81-.05h8.33c.79 0 1.26 0 1.45.12.17.11.28.28.33.48.02.06.07.45-.35 1.77l-.01-.01Z"/>
</svg>
