<svg xmlns="http://www.w3.org/2000/svg" viewBox="0 0 20 20">
  <path d="M6.54 17H6c-1.31 0-1.97 0-2.55-.31-.51-.27-.91-.7-1.17-1.23-.29-.6-.29-1.29-.29-2.65V4.96c0-.94 0-1.41.21-1.84.18-.38.49-.7.85-.9.42-.23.9-.23 1.77-.23h2.79c.56 0 .87 0 1.19.11.27.1.53.26.73.47.24.24.37.53.62 1.06l.37.75c.13.25.2.41.26.47.05.05.12.09.19.12.08.03.25.03.54.03h2.47c1.31 0 1.97 0 2.55.31.51.27.91.7 1.17 1.23.15.3.22.63.26 1.11.02.28-.19.52-.46.54a.51.51 0 0 1-.54-.46c-.03-.35-.07-.57-.16-.75-.17-.34-.42-.61-.74-.79C15.7 6 15.13 6 13.99 6h-2.47c-.4 0-.62 0-.86-.08-.21-.07-.41-.2-.56-.35-.18-.18-.28-.37-.46-.73l-.38-.76c-.22-.47-.32-.68-.44-.8-.1-.1-.22-.18-.36-.23C8.31 3 8.08 3 7.61 3H4.82c-.71 0-1.1 0-1.3.11-.18.1-.33.26-.43.45-.11.23-.11.64-.11 1.4v7.85c0 1.21 0 1.83.19 2.22.16.34.43.62.74.79.36.19.93.19 2.08.19h.54c.28 0 .5.22.5.5s-.22.5-.5.5l.01-.01Z"/>
  <path d="M13.5 18C11.02 18 9 15.98 9 13.5S11.02 9 13.5 9s4.5 2.02 4.5 4.5-2.02 4.5-4.5 4.5Zm0-8c-1.93 0-3.5 1.57-3.5 3.5s1.57 3.5 3.5 3.5 3.5-1.57 3.5-3.5-1.57-3.5-3.5-3.5Z"/>
  <path d="M13.5 15c-.83 0-1.5-.67-1.5-1.5s.67-1.5 1.5-1.5 1.5.67 1.5 1.5-.67 1.5-1.5 1.5Zm0-2c-.28 0-.5.22-.5.5s.22.5.5.5.5-.22.5-.5-.22-.5-.5-.5Z"/>
</svg>
