<svg xmlns="http://www.w3.org/2000/svg" viewBox="0 0 20 20">
  <path d="M10.67 5.93c.24.08.46.08.86.08H14c1.14 0 1.72 0 2.07.19.32.17.58.44.74.79.06.13.11.28.13.48.04.27.29.45.57.42a.5.5 0 0 0 .42-.57c-.04-.3-.11-.55-.22-.78-.26-.53-.66-.96-1.17-1.23C15.96 5 15.3 5 13.99 5h-2.47c-.29 0-.46 0-.54-.03a.436.436 0 0 1-.19-.12c-.06-.06-.13-.2-.26-.47l-.37-.75c-.25-.53-.39-.82-.62-1.06-.21-.21-.46-.38-.73-.47-.31-.11-.62-.11-1.19-.11H4.83c-.87 0-1.35 0-1.78.23-.36.19-.67.51-.85.9-.2.43-.2.9-.2 1.84v7.85c0 1.37 0 2.05.29 2.65.26.53.66.96 1.17 1.23.58.31 1.24.31 2.55.31h.54c.28 0 .5-.22.5-.5s-.22-.5-.5-.5h-.54c-1.14 0-1.72 0-2.07-.19a1.72 1.72 0 0 1-.74-.79c-.19-.39-.19-1-.19-2.22V4.96c0-.76 0-1.18.11-1.4.09-.19.24-.35.43-.45.2-.11.59-.11 1.3-.11h2.79c.45 0 .7 0 .85.05.13.05.26.13.36.23.12.12.22.35.44.8l.37.76c.17.35.28.56.46.73.16.16.35.28.56.35l-.01.01Zm3.39 8.18c-.28 0-.5.22-.5.5v.89c0 .28.22.5.5.5s.5-.22.5-.5v-.89c0-.28-.22-.5-.5-.5Z"/>
  <path d="M18.09 13.83a2.01 2.01 0 0 0-.18-.72c-.18-.35-.46-.62-.8-.8a2.19 2.19 0 0 0-.33-.12v-.47c0-1.5-1.22-2.72-2.72-2.72-1.5 0-2.72 1.22-2.72 2.72v.47c-.11.03-.22.06-.33.12-.34.18-.63.46-.8.8-.11.22-.16.46-.18.72-.02.25-.02.55-.02.92v.62c0 .36 0 .67.02.92s.07.49.18.72c.18.35.46.62.8.8.22.11.46.16.72.18.25.02.55.02.92.02h2.84c.37 0 .67 0 .92-.02s.49-.07.72-.18c.35-.18.63-.46.8-.8.11-.22.16-.46.18-.72.02-.25.02-.55.02-.92v-.62c0-.36 0-.67-.02-.92h-.02ZM14.06 10c.95 0 1.72.77 1.72 1.72v.39h-3.44v-.39c0-.95.77-1.72 1.72-1.72Zm3.03 6.2c-.02.19-.04.28-.07.34-.08.16-.21.28-.36.36-.06.03-.15.06-.34.07-.2.02-.45.02-.84.02h-2.84c-.38 0-.64 0-.83-.02-.19-.02-.28-.04-.34-.07a.834.834 0 0 1-.36-.36c-.03-.06-.06-.15-.07-.34-.02-.2-.02-.45-.02-.83v-.62c0-.38 0-.64.02-.83.02-.19.04-.28.07-.34.08-.16.21-.28.36-.36.06-.03.15-.06.34-.07.2-.02.45-.02.83-.02h2.84c.38 0 .64 0 .84.02.19.02.28.04.34.07.16.08.28.21.36.36.03.06.06.15.07.34.02.2.02.45.02.83v.62c0 .38 0 .64-.02.83Z"/>
</svg>
