<svg xmlns="http://www.w3.org/2000/svg" viewBox="0 0 20 20">
  <path d="M12.9 14.24c-1.25 0-2.02-.79-2.02-2.06V9.56c0-.28.22-.5.5-.5s.5.22.5.5v2.62c0 .72.32 1.06 1.02 1.06.21 0 .39-.03.54-.08.14-.05.57-.2.57-1.04V9.56c0-.28.22-.5.5-.5s.5.22.5.5v2.56c0 1-.44 1.7-1.23 1.98-.26.09-.55.14-.87.14h-.01Zm-3.34-.01c-.19 0-.37-.11-.46-.29l-.28-.62H6.24l-.28.62c-.11.25-.41.36-.66.25a.502.502 0 0 1-.25-.66l1.73-3.82c.12-.27.21-.47.44-.58.2-.1.43-.1.63 0 .22.11.31.3.43.57l1.74 3.82c.11.25 0 .55-.25.66-.07.03-.14.04-.21.04v.01Zm-2.87-1.91h1.68l-.84-1.85-.84 1.85Z"/>
  <path d="M13.91 17.99H6.09c-1.33 0-1.99 0-2.57-.26-.52-.23-.94-.6-1.21-1.07C2 16.12 2 15.52 2 14.33V5.6c0-.8 0-1.24.23-1.63.2-.34.5-.61.88-.78C3.53 3 3.98 3 4.89 3h2.86c.57 0 .88 0 1.19.09.27.08.53.22.74.4.24.21.39.46.65.91l.38.66c.13.23.21.37.27.43a.4.4 0 0 0 .18.1c.07.02.24.02.5.02h2.21c1.33 0 1.99 0 2.57.26.52.23.94.6 1.21 1.07.23.4.29.85.31 1.45l.04 5.94c0 1.19 0 1.79-.31 2.33-.27.46-.69.83-1.21 1.07-.58.26-1.24.26-2.57.26ZM4.9 4c-.74 0-1.15 0-1.37.1-.19.08-.34.21-.43.37-.1.17-.1.51-.1 1.13v8.74c0 1.01 0 1.52.18 1.83.16.28.43.51.75.65.38.17.98.17 2.16.17h7.82c1.18 0 1.78 0 2.16-.17.32-.14.59-.38.75-.66.18-.31.18-.81.18-1.83l-.04-5.92c-.01-.51-.06-.77-.17-.96-.16-.28-.43-.51-.75-.65-.38-.17-.98-.17-2.16-.17h-2.21c-.38 0-.59 0-.81-.07-.2-.07-.39-.17-.54-.32-.18-.16-.28-.34-.47-.67l-.38-.66c-.23-.4-.32-.56-.43-.65a.989.989 0 0 0-.38-.2c-.17-.05-.41-.05-.9-.05H4.9V4Z"/>
</svg>
