<svg xmlns="http://www.w3.org/2000/svg" viewBox="0 0 20 20">
  <path d="M18.02 15.52c-.02-.1-.06-.2-.12-.29-.06-.1-.13-.17-.23-.27l-2.56-2.56c-.07-.07-.11-.09-.13-.11 0-.06.01-.14.03-.28a3.504 3.504 0 0 0-3.47-3.97c-1.93 0-3.5 1.57-3.5 3.5a3.504 3.504 0 0 0 3.97 3.47c.14-.02.22-.03.24-.04.04.03.07.07.14.14l.79.79c.09.09.22.15.35.15h.5v.5c0 .28.22.5.5.5h.5v.5c0 .28.22.5.5.5h1.2c.33 0 .54 0 .75-.11.19-.09.34-.25.44-.44.11-.21.11-.43.11-.75v-.87c0-.14 0-.24-.03-.36h.02Zm-1.28 1.52h-.7v-.5c0-.28-.22-.5-.5-.5h-.5v-.5c0-.28-.22-.5-.5-.5h-.79l-.64-.64c-.14-.14-.23-.23-.34-.29a.912.912 0 0 0-.35-.12c-.14-.02-.27 0-.53.03-.11.02-.22.02-.34.02a2.5 2.5 0 0 1 0-5 2.5 2.5 0 0 1 2.5 2.5c0 .11 0 .23-.02.34-.04.26-.05.39-.03.53.02.13.05.23.12.35.07.12.15.2.29.34l2.56 2.56s.07.07.08.07v1.01c0 .14 0 .28.02.29h-.32l-.01.01Z"/>
  <path d="M11.54 10.04a1.499 1.499 0 0 0-1.5 1.5c0 .28.22.5.5.5s.5-.22.5-.5c0-.13.05-.26.15-.35a.51.51 0 0 1 .35-.15c.28 0 .5-.22.5-.5s-.22-.5-.5-.5Z"/>
  <path d="M7.88 16H6.01c-.62 0-1.06 0-1.4-.03-.33-.03-.53-.08-.68-.16-.32-.17-.58-.44-.74-.79-.08-.17-.13-.38-.16-.74S3 13.46 3 12.8V4.96c0-.44 0-.74.02-.97.02-.23.05-.35.09-.43.1-.2.25-.35.42-.45.07-.04.18-.07.39-.09.22-.02.5-.02.92-.02h2.79c.56 0 .72 0 .85.05s.25.13.36.23c.1.11.18.26.43.79l.37.76c.14.29.26.55.46.74.16.16.35.28.56.35.26.09.54.08.86.08h2.47c.62 0 1.06 0 1.4.03.33.03.53.08.68.16.32.17.58.44.74.79.11.24.17.56.18 1.21v.91c0 .28.22.5.5.5s.5-.22.5-.5v-.91c-.02-.67-.06-1.19-.28-1.64-.25-.53-.66-.96-1.17-1.23-.32-.17-.67-.24-1.06-.28-.39-.03-.88-.03-1.48-.03h-2.47c-.4 0-.48 0-.54-.03a.436.436 0 0 1-.19-.12c-.05-.04-.09-.11-.26-.47l-.37-.76c-.22-.46-.37-.8-.62-1.05a2.06 2.06 0 0 0-.73-.48C8.49 2 8.12 2 7.63 2H4.84c-.4 0-.73 0-1 .02-.28.02-.53.08-.77.2-.37.2-.67.51-.85.9-.12.24-.17.5-.19.79C2 4.19 2 4.54 2 4.96v7.85c0 .64 0 1.15.03 1.56.03.41.1.77.26 1.09.25.53.66.96 1.17 1.23.32.17.67.24 1.06.28.39.03.88.03 1.48.03h1.87c.28 0 .5-.22.5-.5s-.22-.5-.5-.5h.01Z"/>
</svg>
