<svg xmlns="http://www.w3.org/2000/svg" viewBox="0 0 20 20">
  <path d="M17.66 6.32c-.27-.46-.69-.83-1.21-1.07-.58-.26-1.24-.26-2.57-.26h-2.11c-.3 0-.48 0-.56-.03a.615.615 0 0 1-.19-.12c-.06-.06-.13-.23-.26-.49l-.43-.95c-.26-.45-.4-.7-.65-.91-.21-.18-.47-.32-.74-.4C8.63 2 8.32 2 7.75 2H4.89c-.91 0-1.36 0-1.78.19-.38.17-.68.44-.88.78C2 3.37 2 3.81 2 4.61v9.75c0 1.19 0 1.79.31 2.33.27.47.69.83 1.21 1.07.58.26 1.24.26 2.57.26h7.82c1.33 0 1.99 0 2.57-.26.52-.23.94-.6 1.21-1.07.31-.54.31-1.14.31-2.33V7.79c-.02-.62-.12-1.07-.34-1.45v-.02ZM11.77 6H14v4.94l-1.23-.78c-.16-.1-.37-.1-.54 0l-1.23.78V5.95c.2.05.42.05.77.05ZM17 14.34c0 1.01 0 1.52-.18 1.82-.16.28-.43.51-.75.66-.38.17-.98.17-2.16.17H6.09c-1.19 0-1.78 0-2.16-.17-.32-.14-.59-.38-.75-.66-.18-.3-.18-.81-.18-1.82V4.59c0-.62 0-.97.1-1.13.09-.15.24-.29.43-.37.22-.1.63-.1 1.37-.1h2.86c.49 0 .73 0 .9.05.14.04.27.11.38.2.11.09.2.26.41.61l.41.91c.06.12.1.22.15.32v6.77c0 .18.1.35.26.44.16.09.35.08.51-.02l1.73-1.1 1.73 1.1a.503.503 0 0 0 .51.02c.16-.09.26-.26.26-.44V6.01c.47.02.81.05 1.04.16.33.15.59.38.75.66.13.23.2.52.21.96v6.56l-.01-.01Z"/>
</svg>
