<svg xmlns="http://www.w3.org/2000/svg" viewBox="0 0 20 20">
  <path d="M17.8 7.47c-.21-.29-.56-.46-.94-.46h-.98c-.04-.16-.08-.32-.14-.46-.26-.53-.66-.96-1.17-1.23-.58-.31-1.24-.31-2.55-.31h-1.47c-.28 0-.46 0-.54-.03a.436.436 0 0 1-.19-.12c-.06-.06-.13-.21-.26-.47l-.37-.75c-.25-.53-.39-.81-.62-1.06-.21-.21-.46-.38-.73-.47C7.53 2 7.21 2 6.65 2h-1.8c-.87 0-1.36 0-1.78.23-.37.19-.67.51-.85.9-.21.43-.21.9-.21 1.84v11.78s0 .04.01.06c0 .28.07.53.22.74.21.29.56.46.94.46h11.57c.73-.01 1.5-.65 1.77-1.52l1.43-7.71c.16-.48.11-.96-.14-1.3l-.01-.01ZM3.11 3.56c.09-.19.24-.35.43-.45C3.74 3 4.13 3 4.85 3h1.8c.47 0 .7 0 .85.05.13.05.26.13.36.23.12.12.23.36.44.8l.38.76c.18.36.27.55.45.73.16.16.35.28.56.35.24.08.46.08.86.08h1.47c1.15 0 1.72 0 2.08.19.32.17.58.45.75.79V7H6.31c-.74 0-1.52.64-1.78 1.46L3 13.33V4.96c0-.76 0-1.18.11-1.4Zm13.87 4.97-1.43 7.72c-.14.43-.55.76-.83.76H3.17c-.09 0-.12-.04-.13-.05-.04-.06-.07-.2 0-.41l2.44-7.77c.14-.44.55-.76.83-.76h10.55c.09 0 .12.04.13.05.04.06.07.2-.01.47v-.01Z"/>
  <path d="M12.27 11.95a.88.88 0 1 0 0-1.76.88.88 0 0 0 0 1.76Zm-4.5 0a.88.88 0 1 0 0-1.76.88.88 0 0 0 0 1.76Zm2.25 1.37c-2.1 0-3.35 1.63-3.4 1.7-.17.22-.12.53.1.7.22.17.53.12.7-.1 0-.01 1.01-1.3 2.6-1.3s2.59 1.29 2.6 1.3c.1.13.25.2.4.2.1 0 .21-.03.3-.1.22-.17.26-.48.1-.7-.05-.07-1.3-1.7-3.4-1.7Z"/>
</svg>
