<svg xmlns="http://www.w3.org/2000/svg" viewBox="0 0 20 20">
  <path d="M17.5 13H14V9.5c0-.28-.22-.5-.5-.5s-.5.22-.5.5V13H9.5c-.28 0-.5.22-.5.5s.22.5.5.5H13v3.5c0 .28.22.5.5.5s.5-.22.5-.5V14h3.5c.28 0 .5-.22.5-.5s-.22-.5-.5-.5Z"/>
  <path d="M2 4.96v7.85c0 .64 0 1.15.03 1.56.03.41.1.77.26 1.09.25.53.66.96 1.17 1.23.32.17.67.24 1.06.28.39.03.88.03 1.48.03h1.54c.28 0 .5-.22.5-.5s-.22-.5-.5-.5H6c-.62 0-1.06 0-1.4-.03-.33-.03-.53-.08-.68-.16-.32-.17-.58-.44-.74-.79-.08-.17-.13-.38-.16-.74s-.03-.82-.03-1.48V4.96c0-.44 0-.74.02-.97.02-.23.05-.35.09-.43.1-.2.25-.35.42-.45.07-.04.18-.07.39-.09.22-.02.5-.02.92-.02h2.79c.56 0 .72 0 .85.05s.25.13.36.23c.1.11.18.26.43.79l.37.76c.14.29.26.55.46.74.16.16.35.28.56.35.26.09.54.08.86.08h2.47c.62 0 1.06 0 1.4.03.33.03.53.08.68.16.32.17.58.44.74.79.11.24.17.56.18 1.21 0 .28.24.49.51.49.28 0 .49-.24.49-.51-.02-.66-.06-1.18-.28-1.62-.25-.53-.66-.96-1.17-1.23-.32-.17-.67-.24-1.06-.28-.39-.03-.88-.03-1.48-.03h-2.47c-.4 0-.48 0-.54-.03a.436.436 0 0 1-.19-.12c-.05-.04-.09-.11-.26-.47l-.37-.75c-.22-.46-.37-.8-.62-1.05a2.06 2.06 0 0 0-.73-.48C8.49 2 8.12 2 7.63 2H4.84c-.4 0-.73 0-1 .02-.28.02-.53.08-.77.2-.37.2-.67.51-.85.9-.12.24-.17.51-.19.79C2 4.19 2 4.54 2 4.96Z"/>
</svg>
