<svg xmlns="http://www.w3.org/2000/svg" viewBox="0 0 20 20">
  <path d="M17.5 2.235c-.32-.23-.71-.23-1.48-.23H3.99c-.77 0-1.16 0-1.48.23-.29.21-.47.53-.51.87-.04.4.15.73.54 1.4l5.27 9.1v3.89c0 .16.07.3.2.4.09.07.19.1.3.1.04 0 .09 0 .13-.02l3.37-.94c.22-.06.37-.26.37-.48v-2.95l5.28-9.09c.39-.67.58-1 .54-1.4a1.26 1.26 0 0 0-.5-.87v-.01Zm-4.43 7.85H7s-.04.01-.07.01l-1.78-3.08h9.69l-1.77 3.06v.01Zm-1.82 3.14c-.04.08-.07.16-.07.25v2.7l-2.37.66v-3.36c0-.09-.02-.17-.07-.25l-1.24-2.14h4.99l-1.24 2.14Zm5.34-9.22-1.16 2.01H4.68s-.06.01-.09.02l-1.17-2.03c-.2-.34-.41-.7-.41-.8 0-.06.04-.12.09-.16.09-.05.5-.05.9-.05h12.02c.4 0 .81 0 .9.04.05.04.09.1.09.16 0 .1-.21.46-.41.8l-.01.01Z"/>
</svg>
