<svg xmlns="http://www.w3.org/2000/svg" viewBox="0 0 20 20">
  <path d="M15.77 15.53A7.956 7.956 0 0 0 18 10c0-.71-.1-1.39-.27-2.04 0-.03 0-.06-.01-.09 0-.01-.01-.02-.02-.03C16.75 4.48 13.67 2 10 2c-4.41 0-8 3.59-8 8s3.59 8 8 8c2.24 0 4.26-.93 5.71-2.41.02-.02.04-.04.05-.06h.01Zm.07-1.69c.01-.5.04-.75.08-.95.17-1.02-.06-1.7-.71-2.16-.17-.12-.28-.17-.35-.17-.03-.02-.05-.05-.12-.32-.03-.09-.04-.33.18-.93.1-.3.27-.57.31-.63.11-.15.24-.22.41-.23.16-.01.29.05.33.09.33.36.67.32.92.22.07.4.12.82.12 1.24 0 1.42-.43 2.74-1.16 3.84h-.01Zm-.48-8.34c-.23.09-.48.16-.62.12-.19-.05-.31-.1-.4-.13a2.75 2.75 0 0 0-.66-.16c-.04 0-.12-.07-.13-.07-.05-.22-.05-.31-.05-.3.03-.03.07-.07.13-.12.2-.17.37-.33.5-.49.45.33.86.71 1.22 1.14l.01.01ZM8.12 4.05c-.02.23-.06.55.19.8.24.24.58.27 1.09.24h.05c.07.03.18.06.18.04.04.05.06.1.08.13-.2.18-.59.5-.69.57-.16.08-.3.12-.44.16-.27.07-.61.16-.88.58-.09.14-.19.23-.3.33-.14.14-.3.29-.4.51-.02 0-.04.01-.06.02-.23.07-.61.19-.83.59-.11.22-.16.47-.13.79-.14-.04-.24-.08-.27-.1-.12-.26-.24-.77-.27-.94-.03-.19-.08-.36-.12-.53-.13-.48-.15-.61.1-.88.06-.07.11-.15.13-.24.08-.37.07-.98-.1-1.43.74-.64 1.62-1.12 2.58-1.4.13.31.11.55.09.76ZM3 10c0-1.69.6-3.24 1.6-4.45 0 .08 0 .16-.01.24-.52.64-.36 1.23-.23 1.7.04.13.08.28.1.44.01.08.15.78.35 1.2.26.53 1.21.74 1.75.82h.07c.15 0 .29-.06.38-.18.11-.13.15-.31.1-.47-.2-.62-.11-.81-.1-.83.02-.04.13-.07.23-.1.21-.07.57-.18.68-.57 0-.04.09-.12.17-.19.13-.12.3-.28.45-.52.06-.09.07-.1.29-.15.16-.04.38-.1.63-.23.12-.06 1.11-.78 1.24-1.13.12-.37-.07-.76-.25-1.03-.21-.3-.54-.38-.77-.43l-.1-.03c-.06-.02-.12-.02-.18-.02-.12 0-.21.01-.28.01.02-.24.04-.6-.1-1.02.32-.05.65-.08.98-.08 1.19 0 2.3.3 3.28.82-.11.1-.24.22-.3.27-.1.09-.19.16-.22.2-.35.4-.23.96-.18 1.2.08.4.56.76.95.82.25.04.34.07.48.12.11.04.24.09.46.15.12.03.24.05.37.05.43 0 .85-.17 1.12-.3.28.45.51.93.68 1.44h-.01a1.42 1.42 0 0 0-1.04-.33c-.47.03-.88.26-1.17.65-.1.14-.31.49-.45.89-.16.46-.33 1.05-.19 1.56.09.32.18.61.51.84.13.09.23.14.35.17.18.12.44.3.3 1.17-.04.25-.08.56-.09 1.21 0 .46.01.81.03 1.08a6.991 6.991 0 0 1-4.87 1.98c-3.86 0-7-3.14-7-7L3 10Z"/>
  <path d="M10.46 10.68c-.08-.04-.12-.06-.16-.09-.06-.06-.15-.15-.48-.36-.43-.28-.81-.35-1.09-.39-.12-.02-.23-.04-.28-.07-.5-.26-1.02.01-1.17.17l-.32.2a.5.5 0 0 0-.23.32.56.56 0 0 0 0 .44s.1.21.02.4c-.3.7.21 1.71.88 2.15.08.05.13.08.13.12.02.16.05.42.18.85.32 1.1.84 1.29 1.12 1.3h.03c.3 0 .55-.17.64-.42l.13-.13c.21-.19.52-.47.71-.98.15-.38.3-.59.56-.94.12-.15.25-.33.4-.55.26-.38.25-.71.19-.92-.16-.59-.81-.89-1.27-1.11l.01.01Zm.26 1.46c-.14.2-.26.37-.37.51-.28.37-.5.67-.7 1.19-.11.28-.28.44-.45.59-.04.04-.09.08-.13.13-.05-.09-.1-.23-.16-.41-.1-.36-.13-.56-.14-.7-.05-.44-.17-.58-.56-.84-.37-.24-.57-.78-.51-.92.15-.33.13-.65.08-.89l.1-.07s.12-.08.11-.08c.2.1.4.14.59.17.23.04.45.08.7.24.23.15.29.21.34.25.11.1.19.16.51.31.51.24.63.36.65.42 0 0 0 .03-.05.09l-.01.01Z"/>
</svg>
