<svg xmlns="http://www.w3.org/2000/svg" viewBox="0 0 20 20">
  <path d="M16.13 18h-3.26c-.54 0-.84 0-1.13-.15-.26-.13-.46-.34-.59-.59-.15-.29-.15-.59-.15-1.13v-3.26c0-.54 0-.84.15-1.13.13-.25.33-.46.59-.59.29-.15.59-.15 1.13-.15h3.26c.54 0 .84 0 1.13.15.26.13.46.34.59.59.15.29.15.59.15 1.13v3.26c0 .54 0 .84-.15 1.13-.13.25-.33.46-.59.59-.29.15-.59.15-1.13.15Zm-3.26-6c-.34 0-.6 0-.68.04-.07.03-.12.09-.15.16-.04.08-.04.34-.04.68v3.26c0 .33 0 .6.04.67.03.07.09.12.16.16.07.04.34.04.67.04h3.26c.33 0 .6 0 .68-.04.07-.03.12-.09.16-.16.04-.08.04-.34.04-.68v-3.26c0-.33 0-.6-.04-.67a.41.41 0 0 0-.16-.16c-.07-.04-.34-.04-.67-.04h-3.27Zm-5.74 6H3.87c-.54 0-.84 0-1.13-.15-.26-.13-.46-.34-.59-.59C2 16.97 2 16.67 2 16.13v-3.26c0-.54 0-.84.15-1.13.13-.25.33-.46.59-.59.29-.15.59-.15 1.13-.15h3.26c.54 0 .84 0 1.13.15.26.13.46.34.59.59.15.29.15.59.15 1.13v3.26c0 .54 0 .84-.15 1.13-.13.25-.33.46-.59.59-.29.15-.59.15-1.13.15Zm-3.26-6c-.34 0-.6 0-.68.04-.07.03-.12.09-.15.16-.04.08-.04.34-.04.68v3.26c0 .33 0 .6.04.67.03.07.09.12.16.16.07.04.34.04.67.04h3.26c.33 0 .6 0 .68-.04a.41.41 0 0 0 .16-.16c.04-.08.04-.34.04-.68v-3.26c0-.33 0-.6-.04-.67a.41.41 0 0 0-.16-.16C7.74 12 7.47 12 7.14 12H3.87Zm3.26-3H3.87c-.54 0-.84 0-1.13-.15-.26-.13-.46-.34-.59-.59C2 7.97 2 7.67 2 7.13V3.87c0-.54 0-.84.15-1.13.13-.25.33-.46.59-.59C3.03 2 3.33 2 3.87 2h3.26c.54 0 .84 0 1.13.15.26.13.46.34.59.59.15.29.15.59.15 1.13v3.26c0 .54 0 .84-.15 1.13-.13.25-.33.46-.59.59C7.97 9 7.67 9 7.13 9ZM3.87 3c-.34 0-.6 0-.68.04-.07.03-.12.09-.15.16-.04.08-.04.34-.04.68v3.26c0 .33 0 .6.04.67.03.07.09.12.16.16.07.04.34.04.67.04h3.26c.33 0 .6 0 .68-.04a.41.41 0 0 0 .16-.16c.04-.08.04-.34.04-.68V3.87c0-.33 0-.6-.04-.67a.41.41 0 0 0-.16-.16C7.74 3 7.47 3 7.14 3H3.87Zm12.26 6h-3.26c-.54 0-.84 0-1.13-.15-.26-.13-.46-.34-.59-.59C11 7.97 11 7.67 11 7.13V3.87c0-.54 0-.84.15-1.13.13-.25.33-.46.59-.59.29-.15.59-.15 1.13-.15h3.26c.54 0 .84 0 1.13.15.26.13.46.34.59.59.15.29.15.59.15 1.13v3.26c0 .54 0 .84-.15 1.13-.13.25-.33.46-.59.59-.29.15-.59.15-1.13.15Zm-3.26-6c-.34 0-.6 0-.68.04-.07.03-.12.09-.15.16-.04.08-.04.34-.04.68v3.26c0 .33 0 .6.04.67.03.07.09.12.16.16.07.04.34.04.67.04h3.26c.33 0 .6 0 .68-.04.07-.03.12-.09.16-.16.04-.08.04-.34.04-.68V3.87c0-.33 0-.6-.04-.67a.41.41 0 0 0-.16-.16C16.74 3 16.47 3 16.14 3h-3.27Z"/>
</svg>
