<svg xmlns="http://www.w3.org/2000/svg" viewBox="0 0 20 20">
  <path d="M6.1 18c-1.34 0-2.01 0-2.6-.3a2.73 2.73 0 0 1-1.2-1.2c-.3-.59-.3-1.26-.3-2.6v-1.55c0-.35 0-.53.03-.7.02-.17.06-.33.12-.5l.06-.15c.13-.32.2-.48.22-.54l.09-.31 1.37-5.3c.05-.2.08-.3.11-.41.03-.09.07-.2.11-.29.04-.1.08-.18.16-.33.25-.48.43-.79.69-1.04.29-.28.65-.5 1.03-.63C6.43 2 6.86 2 7.72 2h4.55c.86 0 1.3 0 1.73.15.38.13.74.35 1.03.63.26.25.44.56.68 1.03.08.17.13.25.17.35a3.431 3.431 0 0 1 .21.66l1.48 5.63c.02.06.09.23.23.55l.06.15c.05.16.09.33.12.5.02.17.03.35.03.7v1.55c0 1.34 0 2.01-.3 2.6-.27.52-.68.94-1.2 1.2-.59.3-1.26.3-2.6.3H6.1ZM3 12v1.9c0 1.18 0 1.77.19 2.14.17.33.43.6.76.77.37.19.97.19 2.14.19h7.8c1.18 0 1.77 0 2.14-.19.33-.17.6-.43.77-.77.19-.37.19-.97.19-2.14V12H3Zm.28-1h13.43c-.04-.11-.07-.16-.08-.19-.03-.09-.04-.1-.06-.19l-.07-.24-1.37-5.27c-.05-.18-.07-.26-.09-.34-.02-.07-.05-.14-.08-.21-.04-.08-.07-.15-.14-.29-.22-.43-.35-.63-.49-.77-.18-.18-.41-.32-.65-.4-.28-.1-.65-.1-1.41-.1H7.72c-.75 0-1.13 0-1.4.1-.24.08-.47.22-.65.4-.14.14-.27.33-.49.77-.07.14-.11.21-.14.29-.03.06-.06.14-.08.2-.03.09-.05.17-.1.34l-1.37 5.27c-.03.13-.05.18-.07.24l-.06.18s-.04.09-.08.2V11Zm5.22 4h-3c-.28 0-.5-.22-.5-.5s.22-.5.5-.5h3c.28 0 .5.22.5.5s-.22.5-.5.5Z"/>
</svg>
