<svg xmlns="http://www.w3.org/2000/svg" viewBox="0 0 20 20">
  <path d="M13.9 18H6.1c-1.34 0-2.01 0-2.6-.3a2.73 2.73 0 0 1-1.2-1.2c-.3-.59-.3-1.26-.3-2.6v-1.55c0-.35 0-.53.03-.7.02-.17.06-.33.12-.49.02-.07.04-.12.06-.16.14-.34.2-.48.22-.54l.08-.28 1.38-5.33c.06-.22.08-.31.11-.4.03-.09.07-.2.11-.29.04-.1.08-.18.16-.33.25-.48.43-.79.69-1.04.29-.28.65-.5 1.03-.64C6.42 2 6.86 2 7.72 2h1.27c.28 0 .5.22.5.5s-.22.5-.5.5H7.72c-.75 0-1.13 0-1.4.1-.24.08-.47.22-.65.4-.14.14-.27.33-.49.77-.07.14-.11.21-.14.29-.03.06-.06.14-.08.21-.02.08-.04.15-.08.29l-1.51 5.75-.08.2h3.72c.28 0 .5.22.5.5s-.22.5-.5.5H3v1.9c0 1.18 0 1.77.19 2.14.17.33.43.6.77.76.37.19.97.19 2.14.19h7.8c1.18 0 1.77 0 2.14-.19.33-.17.6-.43.77-.77.15-.3.18-.74.19-1.55 0-.27.23-.5.5-.5.28 0 .5.23.5.5 0 .97-.05 1.51-.3 2-.27.52-.68.94-1.2 1.2-.59.3-1.26.3-2.6.3V18Zm-5.4-3h-3c-.28 0-.5-.22-.5-.5s.22-.5.5-.5h3c.28 0 .5.22.5.5s-.22.5-.5.5Z"/>
  <path d="M16.78 12h-5.76c-.3 0-.5 0-.7-.1a.904.904 0 0 1-.41-.41c-.1-.2-.1-.4-.1-.7V7.82c0-.81 0-1.25.2-1.65.18-.35.46-.63.81-.81.36-.19.77-.2 1.46-.2V3.64a1.62 1.62 0 1 1 3.24 0v1.52c.69 0 1.1.02 1.46.2.35.18.63.46.81.81.2.4.2.84.2 1.65v2.96c0 .3 0 .5-.1.7-.09.18-.24.33-.42.42-.2.1-.4.1-.7.1h.01ZM10.8 8.4v2.64c.01-.04.12-.04.22-.04h6.01c-.03-.02-.03-.12-.03-.22V8.4h-6.2Zm0-1H17c0-.42-.02-.65-.09-.79a.828.828 0 0 0-.37-.37c-.18-.09-.54-.09-1.2-.09h-2.88c-.65 0-1.01 0-1.2.09-.16.08-.29.21-.37.37-.07.14-.09.38-.09.79Zm2.47-2.25h1.25V3.63c0-.34-.28-.62-.62-.62-.34 0-.62.28-.62.62v1.52h-.01Z"/>
</svg>
