<svg xmlns="http://www.w3.org/2000/svg" viewBox="0 0 20 20">
  <path d="M15.1 12h-3.2c-.92 0-1.38 0-1.81-.22-.38-.19-.68-.5-.87-.87C9 10.48 9 10.02 9 9.1v-.7c0-.92 0-1.38.22-1.81.19-.38.5-.68.88-.87.13-.07.26-.11.41-.14v-.57c0-1.65 1.35-3 3-3s3 1.35 3 3v.58c.15.03.28.08.41.14.38.19.68.5.87.87.22.43.22.89.22 1.81v.7c0 .92 0 1.38-.22 1.81-.19.38-.5.68-.88.88-.43.22-.92.22-1.81.22V12Zm-3.2-5.5c-.74 0-1.14 0-1.35.11-.19.1-.34.25-.44.44-.11.21-.11.62-.11 1.35v.7c0 .73 0 1.14.11 1.35.1.19.25.34.44.44.21.11.62.11 1.35.11h3.2c.74 0 1.14 0 1.35-.11.19-.1.34-.25.44-.44.11-.21.11-.62.11-1.35v-.7c0-.74 0-1.14-.11-1.35a.986.986 0 0 0-.44-.44c-.21-.11-.62-.11-1.35-.11h-3.2Zm0-1h3.6V5c0-1.1-.9-2-2-2s-2 .9-2 2v.5h.4Zm1.6 4.25c-.28 0-.5-.22-.5-.5v-1c0-.28.22-.5.5-.5s.5.22.5.5v1c0 .28-.22.5-.5.5Z"/>
  <path d="M13.9 18.01H6.1c-1.34 0-2.01 0-2.6-.3a2.73 2.73 0 0 1-1.2-1.2c-.3-.59-.3-1.26-.3-2.6v-1.55c0-.35 0-.53.03-.7.02-.17.06-.33.12-.49.05-.16.13-.32.28-.63l1.63-3.26c.37-.75.58-1.16.91-1.48.29-.28.65-.5 1.03-.64.43-.15.87-.15 1.73-.15.28 0 .5.22.5.5s-.22.5-.5.5c-.75 0-1.13 0-1.4.1-.24.08-.47.22-.65.4-.21.21-.38.54-.71 1.21l-1.62 3.25-.02.04h3.42c.28 0 .5.22.5.5s-.22.5-.5.5H3v1.9c0 1.18 0 1.77.19 2.14.17.33.43.6.77.76.37.19.97.19 2.14.19h7.8c1.18 0 1.77 0 2.14-.19.33-.17.6-.43.77-.77.19-.37.19-.97.19-2.14 0-.28.22-.5.5-.5s.5.22.5.5c0 1.34 0 2.01-.3 2.6-.27.52-.68.94-1.2 1.2-.59.3-1.26.3-2.6.3v.01Zm-5.4-3h-3c-.28 0-.5-.22-.5-.5s.22-.5.5-.5h3c.28 0 .5.22.5.5s-.22.5-.5.5Z"/>
</svg>
