<svg xmlns="http://www.w3.org/2000/svg" viewBox="0 0 20 20">
  <path d="M13.9 18H6.1c-1.34 0-2.01 0-2.6-.3a2.73 2.73 0 0 1-1.2-1.2c-.3-.59-.3-1.26-.3-2.6v-1.55c0-.35 0-.53.03-.7.02-.17.06-.34.12-.5l.06-.15c.13-.32.2-.48.22-.54l.1-.33 1.36-5.28c.06-.21.08-.31.11-.41.03-.09.07-.2.11-.29.04-.1.09-.18.17-.35.24-.47.42-.77.68-1.03.29-.28.65-.5 1.03-.63.44-.15.87-.15 1.73-.15h3.27c.28 0 .5.22.5.5s-.22.5-.5.5H7.72c-.75 0-1.13 0-1.41.1-.24.08-.47.22-.65.4-.14.14-.27.33-.49.77-.07.14-.11.21-.14.29-.03.06-.06.14-.08.2-.03.08-.05.16-.09.31L3.41 10.6c-.03.09-.03.1-.06.18-.01.04-.04.1-.08.2H16.7c-.04-.11-.07-.17-.08-.2l-.06-.18c-.02-.06-.03-.11-.06-.21l-.29-1.1c-.07-.27.09-.54.36-.61.27-.07.54.09.61.36l.38 1.4c.02.07.09.23.23.55l.06.15c.05.16.09.33.12.5.02.17.03.35.03.7v1.55c0 1.34 0 2.01-.3 2.6-.27.52-.68.94-1.2 1.2-.59.3-1.26.3-2.6.3V18ZM3 12v1.9c0 1.18 0 1.77.19 2.14.17.33.43.6.76.77.37.19.97.19 2.14.19h7.8c1.18 0 1.77 0 2.14-.19.33-.17.6-.43.77-.76.19-.37.19-.97.19-2.14v-1.9H3V12Zm5.5 3h-3c-.28 0-.5-.22-.5-.5s.22-.5.5-.5h3c.28 0 .5.22.5.5s-.22.5-.5.5Z"/>
  <path d="M12.17 9.17c-.09 0-.19-.01-.28-.04-.2-.07-.33-.19-.52-.39L9.15 6.52c-.2-.2-.2-.51 0-.71.2-.2.51-.2.71 0l2.21 2.21.1.1c.02-.03.06-.06.1-.1l4.88-4.87c.2-.2.51-.2.71 0 .2.2.2.51 0 .71l-4.88 4.88c-.19.19-.32.32-.53.39-.09.03-.18.04-.28.04Z"/>
</svg>
