<svg xmlns="http://www.w3.org/2000/svg" viewBox="0 0 20 20">
  <path d="M5.5 14c-.28 0-.5.22-.5.5s.22.5.5.5h3c.28 0 .5-.22.5-.5s-.22-.5-.5-.5h-3Z"/>
  <path d="M17.5 14c-.27 0-.5.22-.5.5 0 .81-.04 1.25-.19 1.55-.17.33-.43.6-.77.77-.37.19-.97.19-2.14.19H6.1c-1.18 0-1.77 0-2.14-.19-.33-.17-.6-.43-.77-.77C3 15.68 3 15.08 3 13.91v-1.9h9c.28 0 .5-.22.5-.5s-.22-.5-.5-.5H3.28c.04-.1.07-.16.08-.2l1.51-5.75c.04-.14.06-.21.08-.29.02-.07.05-.14.08-.21.03-.08.07-.15.14-.29.22-.43.35-.63.49-.77.18-.18.41-.32.65-.4.26-.09.4-.38.31-.64a.506.506 0 0 0-.64-.31c-.38.13-.74.35-1.03.64-.26.25-.44.56-.69 1.04a8 8 0 0 0-.16.33c-.04.09-.08.19-.11.29-.03.09-.05.18-.11.4L2.5 10.17l-.08.28c-.02.05-.08.19-.22.54-.02.05-.04.09-.06.16-.05.16-.09.33-.12.49-.02.17-.03.35-.03.7v1.55c0 1.34 0 2.01.3 2.6.27.52.68.94 1.2 1.2.59.3 1.26.3 2.6.3h7.8c1.34 0 2.01 0 2.6-.3.52-.27.94-.68 1.2-1.2.25-.48.29-1.03.3-2 0-.28-.22-.5-.5-.5l.01.01Z"/>
  <path d="M11.32 8.65c.27 0 .54-.03.79-.09.12-.03.19-.05.25-.06l.13.13 2.94 2.94c.59.59 1.53.59 2.12 0 .58-.59.58-1.53 0-2.12l-2.94-2.94c-.06-.07-.1-.1-.13-.13v-.01c.01-.05.03-.13.06-.25.06-.25.09-.52.09-.79 0-1.84-1.49-3.32-3.32-3.32-.49 0-.95.1-1.37.29a.501.501 0 0 0-.15.81l1.34 1.34c.09.09.14.14.17.18-.03.04-.08.09-.17.18l-.35.35c-.09.09-.14.14-.18.17-.04-.03-.09-.08-.18-.17L9.08 3.82a.487.487 0 0 0-.44-.14.52.52 0 0 0-.37.29c-.19.42-.29.88-.29 1.37 0 1.84 1.49 3.32 3.32 3.32l.02-.01Zm-2.3-3.51.71.71c.09.09.17.17.25.24.08.07.19.15.33.19.2.06.41.06.6 0 .14-.05.25-.12.33-.19.08-.07.17-.15.25-.24l.35-.35c.09-.09.17-.17.24-.25.07-.08.15-.19.2-.33.06-.19.06-.4 0-.6a.881.881 0 0 0-.2-.33c-.07-.08-.15-.17-.24-.25l-.71-.71c.06 0 .12-.02.19-.02 1.28 0 2.32 1.04 2.32 2.32 0 .19-.02.38-.07.55-.03.11-.05.21-.07.29-.01.07-.03.18-.03.28.01.14.04.25.11.38.08.15.22.28.32.38l2.94 2.94c.2.19.2.51 0 .7-.2.19-.51.19-.71 0l-2.94-2.94c-.1-.1-.23-.24-.38-.32a.837.837 0 0 0-.38-.11c-.11 0-.21.01-.28.03-.08.02-.18.04-.29.07-.18.04-.36.07-.55.07-1.28 0-2.32-1.04-2.32-2.32 0-.06.01-.12.02-.19h.01Z"/>
</svg>
