<svg xmlns="http://www.w3.org/2000/svg" viewBox="0 0 20 20">
  <path d="M17.27 12.95h-.23v-2.74C17.04 6.23 13.88 3 10 3s-7.05 3.24-7.05 7.21v2.74h-.23c-.4 0-.73.33-.73.73v.73c0 .4.33.73.73.73h.23v1.45c0 .28.22.5.5.5h1.46c1.08 0 1.95-.88 1.95-1.95v-2.18c0-1.08-.88-1.95-1.95-1.95h-.96v-.79C3.95 6.79 6.67 4 10 4c3.33 0 6.04 2.79 6.04 6.21V11h-.96c-1.08 0-1.95.88-1.95 1.95v2.18c0 1.08.88 1.95 1.95 1.95h1.46c.28 0 .5-.22.5-.5v-1.45h.23c.4 0 .73-.33.73-.73v-.73c0-.4-.33-.73-.73-.73v.01ZM4.91 12c.53 0 .95.43.95.95v2.18c0 .53-.43.95-.95.95h-.96v-4.09h.96V12Zm11.14 4.09h-.96a.95.95 0 0 1-.95-.95v-2.18c0-.53.43-.95.95-.95h.96v4.09-.01Z"/>
</svg>
