<svg xmlns="http://www.w3.org/2000/svg" viewBox="0 0 20 20">
  <path d="M10 18c-4.41 0-8-3.59-8-8s3.59-8 8-8 8 3.59 8 8-3.59 8-8 8Zm0-15c-3.86 0-7 3.14-7 7s3.14 7 7 7 7-3.14 7-7-3.14-7-7-7Z"/>
  <path d="M10 11.87c-.28 0-.5-.22-.5-.5v-.21c0-.86.62-1.55 1.16-2.15.2-.22.39-.43.55-.65.14-.19.21-.41.21-.64 0-.67-.64-1.22-1.42-1.22-.78 0-1.42.55-1.42 1.22 0 .28-.22.5-.5.5s-.5-.22-.5-.5C7.58 6.5 8.67 5.5 10 5.5c1.33 0 2.42 1 2.42 2.22 0 .44-.14.86-.4 1.22-.18.25-.4.49-.62.74-.44.49-.9 1-.9 1.48v.21c0 .28-.22.5-.5.5Zm.01 2.78c-.36 0-.65-.29-.65-.65 0-.36.29-.65.65-.65.36 0 .65.29.65.65 0 .36-.29.65-.65.65Z"/>
</svg>
