<svg xmlns="http://www.w3.org/2000/svg" viewBox="0 0 20 20">
  <path d="M17.52 12.98c-.4-.4-.93-.46-1.78-.47 0-1.19-.07-1.9-.58-2.42-.59-.59-1.41-.59-2.91-.59H10.5v-2h.29C13 7.5 13 5.84 13 4.75S13 2 10.79 2H9.22C7.01 2 7.01 3.66 7.01 4.75s0 2.75 2.21 2.75h.29v2H7.76c-1.5 0-2.33 0-2.91.59-.52.52-.58 1.23-.58 2.42-.84.01-1.38.07-1.78.47-.48.48-.48 1.11-.48 2.27s0 1.8.48 2.27c.48.48 1.11.48 2.27.48s1.8 0 2.27-.48c.48-.48.48-1.11.48-2.27s0-1.8-.48-2.27c-.4-.4-.93-.46-1.77-.47 0-.99.05-1.47.29-1.71.28-.28.88-.29 2.21-.29h4.5c1.33 0 1.93.01 2.21.29.24.24.28.73.29 1.71-.84.01-1.37.07-1.77.47-.48.48-.48 1.11-.48 2.27s0 1.8.48 2.27c.48.48 1.11.48 2.27.48s1.8 0 2.27-.48c.48-.48.48-1.11.48-2.27s0-1.8-.48-2.27h-.01ZM8 4.75C8 3.28 8.19 3 9.21 3h1.57c1.02 0 1.21.28 1.21 1.75S11.8 6.5 10.78 6.5H9.21C8.19 6.5 8 6.22 8 4.75Zm-1.5 10.5c0 .86 0 1.38-.18 1.57-.18.18-.7.18-1.57.18-.87 0-1.38 0-1.57-.18-.18-.18-.18-.7-.18-1.57 0-.87 0-1.38.18-1.57.18-.18.7-.18 1.57-.18.87 0 1.38 0 1.57.18.18.18.18.7.18 1.57Zm10.32 1.57c-.18.18-.7.18-1.57.18-.87 0-1.38 0-1.57-.18-.18-.18-.18-.7-.18-1.57 0-.87 0-1.38.18-1.57.18-.18.7-.18 1.57-.18.87 0 1.38 0 1.57.18.18.18.18.7.18 1.57 0 .87 0 1.38-.18 1.57Z"/>
</svg>
