<svg xmlns="http://www.w3.org/2000/svg" viewBox="0 0 20 20">
  <path d="M11.49 18c-.28 0-.5-.22-.5-.5v-5.49c0-.25 0-.51-.03-.56a.198.198 0 0 0-.11-.11c-.05-.03-.31-.03-.56-.03h-.6c-.25 0-.51 0-.56.03-.05.02-.08.06-.11.11s-.03.31-.03.56v5.49c0 .28-.22.5-.5.5-3.21 0-3.68-.1-3.91-.22-.38-.19-.68-.5-.87-.87-.22-.43-.22-.89-.22-1.81V8.81l-.7.52c-.22.17-.53.12-.7-.1a.498.498 0 0 1 .1-.7l6.07-4.54c.06-.04.11-.08.16-.12l.56-.42c.29-.22.46-.35.7-.41.21-.05.43-.05.64 0 .24.06.41.19.7.41l.57.42.15.12 4.56 3.42 1.49 1.12c.22.17.27.48.1.7-.17.22-.48.27-.7.1l-.7-.52v6.29c0 .92 0 1.38-.22 1.81-.19.38-.5.68-.87.87-.23.12-.69.22-3.91.22ZM4.5 8.06v7.04c0 .73 0 1.14.11 1.35.1.19.25.34.44.44.11.03.68.1 2.95.11v-4.99c0-.48 0-.75.14-1.02.12-.24.31-.43.55-.55.27-.14.53-.14 1.02-.14h.6c.48 0 .75 0 1.02.14.24.12.43.31.55.55.14.27.14.53.14 1.02V17c2.37 0 2.88-.09 2.99-.12a.98.98 0 0 0 .41-.42c.11-.21.11-.62.11-1.35V8.07l-4.52-3.39c-.35-.26-.56-.41-.73-.46-.17-.04-.34-.04-.51 0-.16.04-.37.19-.72.45l-4.53 3.4-.02-.01Z"/>
</svg>
