<svg xmlns="http://www.w3.org/2000/svg" viewBox="0 0 20 20">
  <path d="M7.51 17.01H6.4c-.92 0-1.38 0-1.81-.22-.38-.19-.68-.5-.87-.87-.22-.43-.22-.89-.22-1.81V7.82l-.7.52c-.22.17-.53.12-.7-.1a.498.498 0 0 1 .1-.7l6.06-4.55c.06-.04.11-.08.16-.12l.56-.42c.29-.22.46-.35.7-.41.21-.05.43-.05.64 0 .24.06.41.19.7.41l.57.42.15.12 4.56 3.42 1.49 1.12c.22.17.27.48.1.7-.17.22-.48.27-.7.1l-6.21-4.65c-.35-.26-.56-.41-.73-.46-.17-.04-.34-.04-.51 0-.16.04-.37.19-.72.45l-4.53 3.4v7.04c0 .74 0 1.14.11 1.35.1.19.25.34.44.44.21.11.62.11 1.35.11H7.5c.28 0 .5.22.5.5s-.22.5-.5.5h.01Z"/>
  <path d="M15.4 18h-2.8c-.79 0-1.22 0-1.61-.2-.34-.18-.62-.45-.79-.79-.2-.39-.2-.82-.2-1.61v-.61c0-.79 0-1.22.2-1.61.18-.34.45-.62.79-.79.1-.05.21-.09.32-.12v-.45c0-1.48 1.21-2.69 2.69-2.69s2.69 1.21 2.69 2.69v.45c.11.03.22.07.32.12.34.17.62.45.79.79.2.39.2.82.2 1.61v.61c0 .79 0 1.22-.2 1.61-.17.34-.45.62-.79.79-.39.2-.82.2-1.61.2Zm-2.8-4.82c-.63 0-.98 0-1.16.09a.79.79 0 0 0-.35.35c-.09.17-.09.52-.09 1.16v.61c0 .63 0 .98.09 1.16.08.15.2.28.35.36.17.09.52.09 1.16.09h2.8c.63 0 .98 0 1.16-.09.15-.08.28-.2.35-.35.09-.17.09-.52.09-1.16v-.61c0-.63 0-.98-.09-1.16a.79.79 0 0 0-.35-.35c-.17-.09-.52-.09-1.16-.09h-2.8v-.01Zm0-1h3.09v-.38c0-.93-.76-1.69-1.69-1.69-.93 0-1.69.76-1.69 1.69v.38h.29Zm1.4 3.85c-.28 0-.5-.22-.5-.5v-.88c0-.28.22-.5.5-.5s.5.22.5.5v.88c0 .28-.22.5-.5.5Z"/>
</svg>
