<svg xmlns="http://www.w3.org/2000/svg" viewBox="0 0 20 20">
  <g clip-path="url(#hourglass__a)">
    <path d="M14.05 18h-8.1c-.48 0-.75 0-1.02-.14a1.27 1.27 0 0 1-.55-.55c-.14-.27-.14-.55-.14-1.02v-1.56c0-.39 0-.61.05-.84.05-.21.13-.4.24-.58.12-.2.27-.35.54-.61l2.22-2.22c.18-.18.36-.36.38-.42.02-.05.02-.1 0-.15-.02-.06-.2-.24-.38-.42L5.1 7.31c-.29-.29-.43-.43-.56-.63-.11-.18-.19-.37-.24-.58-.06-.23-.06-.45-.06-.84V3.7c0-.48 0-.75.14-1.02.12-.24.31-.43.55-.55.27-.14.53-.14 1.02-.14h8.1c.48 0 .75 0 1.02.14.24.12.43.31.55.55.14.27.14.53.14 1.02v1.56c0 .39 0 .61-.05.84-.05.2-.13.4-.24.58-.12.2-.27.35-.54.62l-2.21 2.21c-.18.18-.36.36-.38.42-.02.05-.02.1 0 .15.02.05.2.24.37.41l2.2 2.2c.28.28.43.43.55.63.11.18.19.38.24.58.05.23.05.45.05.84v1.56c0 .47 0 .75-.14 1.02-.12.24-.31.42-.55.55-.27.14-.53.14-1.02.14l.01-.01ZM5.95 3c-.25 0-.51 0-.56.03-.05.02-.09.06-.11.11-.03.05-.03.31-.03.56v1.56c0 .33 0 .49.03.61.02.1.06.2.12.29.06.1.17.21.39.43L8 8.8c.34.34.53.53.62.81.08.25.08.52 0 .77-.09.29-.29.48-.62.81l-2.2 2.2c-.24.24-.35.35-.41.45-.06.09-.1.19-.12.29-.03.11-.03.28-.03.6v1.56c0 .25 0 .51.03.56.02.05.06.09.11.11.05.03.31.03.56.03h8.1c.25 0 .51 0 .56-.03.05-.02.08-.06.11-.11s.03-.31.03-.56v-1.56c0-.33 0-.49-.03-.61-.02-.1-.06-.2-.12-.29-.06-.1-.17-.21-.4-.44l-2.21-2.21c-.33-.33-.53-.53-.62-.81-.08-.25-.08-.52 0-.77.09-.29.28-.47.62-.82l2.2-2.2c.23-.24.35-.35.41-.45.06-.09.1-.19.12-.29.03-.11.03-.28.03-.61V3.67c0-.25 0-.51-.03-.56A.198.198 0 0 0 14.6 3c-.05-.03-.31-.03-.56-.03H5.95V3Zm6.3 12.38h-4.5c-.28 0-.5-.22-.5-.5s.22-.5.5-.5h4.5c.28 0 .5.22.5.5s-.22.5-.5.5Z"/>
  </g>
  <defs>
    <clipPath id="hourglass__a">
      <path d="M4.25 2h11.5v16H4.25z"/>
    </clipPath>
  </defs>
</svg>
