<svg xmlns="http://www.w3.org/2000/svg" viewBox="0 0 20 20">
  <path d="M13.5 18H5.78c-.27 0-.47 0-.65-.02-.64-.03-1.09-.1-1.49-.31-.57-.29-1.02-.74-1.31-1.31C2 15.72 2 14.98 2 13.5v-7c0-1.48 0-2.22.33-2.86.29-.57.74-1.02 1.31-1.31C4.28 2 5.02 2 6.5 2h7c1.48 0 2.22 0 2.86.33.57.29 1.02.74 1.31 1.31.33.64.33 1.38.33 2.86v7c0 1.48 0 2.22-.33 2.86-.29.57-.74 1.02-1.31 1.31-.64.33-1.38.33-2.86.33Zm-8.11-1.01h8.11c1.32 0 1.98 0 2.41-.22.38-.19.68-.5.87-.87.22-.43.22-1.09.22-2.41v-.79l-3.08-3.08c-.23-.23-.41-.41-.49-.44a.375.375 0 0 0-.21 0c-.08.02-.26.21-.49.44l-7.09 7.09c-.1.1-.19.19-.27.28h.02ZM6.5 3c-1.32 0-1.98 0-2.41.22-.38.19-.68.5-.87.87C3 4.52 3 5.18 3 6.5v7c0 1.32 0 1.98.22 2.41.19.38.5.68.87.87.06.03.12.06.19.08.08-.26.29-.48.67-.85l7.09-7.09c.37-.37.58-.58.88-.68.27-.09.56-.09.82 0 .3.1.51.31.88.68l2.37 2.37V6.5c0-1.32 0-1.98-.22-2.41-.19-.38-.5-.68-.87-.87C15.47 3 14.81 3 13.49 3h-7 .01Zm.58 6.25c-1.19 0-2.17-.97-2.17-2.17s.97-2.17 2.17-2.17 2.17.97 2.17 2.17-.97 2.17-2.17 2.17Zm0-3.33c-.64 0-1.17.52-1.17 1.17 0 .65.52 1.17 1.17 1.17.65 0 1.17-.52 1.17-1.17 0-.65-.52-1.17-1.17-1.17Z"/>
</svg>
