<svg xmlns="http://www.w3.org/2000/svg" viewBox="0 0 20 20">
  <path d="M2.5 18a.47.47 0 0 1-.35-.15c-.2-.2-.2-.51 0-.71l4.65-4.65H2.5c-.28 0-.5-.22-.5-.5s.22-.5.5-.5h5.51c.06 0 .12.02.18.04.05.02.11.05.15.1l.02.02s.07.1.1.15c.02.05.04.11.04.18v5.52c0 .28-.22.5-.5.5s-.5-.22-.5-.5v-4.29l-4.65 4.64c-.1.1-.23.15-.35.15Zm15 0a.47.47 0 0 1-.35-.15L12.5 13.2v4.29c0 .28-.22.5-.5.5s-.5-.22-.5-.5v-5.52c0-.06.02-.12.04-.18a.36.36 0 0 1 .1-.15l.02-.02s.1-.07.15-.1c.05-.02.11-.04.18-.04h5.51c.28 0 .5.22.5.5s-.22.5-.5.5h-4.29l4.65 4.65c.2.2.2.51 0 .71-.1.1-.23.15-.35.15l-.01.01Zm-7.52-7.22c-.06 0-.12-.02-.18-.04a.36.36 0 0 1-.15-.1l-.01-.01-3.89-3.89c-.2-.2-.2-.51 0-.71.2-.2.51-.2.71 0L9.5 9.07V2.5c0-.28.22-.5.5-.5s.5.22.5.5v6.57l3.04-3.04c.2-.2.51-.2.71 0 .2.2.2.51 0 .71l-3.89 3.89-.01.01s-.1.07-.15.1c-.05.02-.11.04-.18.04h-.04Z"/>
</svg>
