<svg xmlns="http://www.w3.org/2000/svg" viewBox="0 0 20 20">
  <path d="M14.43 2.58c-.2-.2-.51-.2-.71 0-.2.2-.2.51 0 .71 3.7 3.7 3.7 9.73 0 13.44-.2.2-.2.51 0 .71a.485.485 0 0 0 .7 0 10.44 10.44 0 0 0 3.08-7.42c0-2.8-1.09-5.44-3.08-7.42l.01-.02ZM10.89 5.4c-.2.2-.2.51 0 .71A5.46 5.46 0 0 1 12.5 10c0 1.47-.57 2.85-1.61 3.89-.2.2-.2.51 0 .71a.485.485 0 0 0 .7 0 6.45 6.45 0 0 0 1.9-4.6c0-1.74-.68-3.37-1.9-4.6-.2-.2-.51-.2-.71 0h.01ZM7.72 6.99c-.2.2-.2.51 0 .71.62.62.95 1.43.95 2.3 0 .87-.34 1.69-.95 2.3-.2.19-.2.51 0 .71a.485.485 0 0 0 .7 0c.8-.8 1.25-1.87 1.25-3.01 0-1.14-.44-2.21-1.25-3.01-.2-.2-.51-.2-.71 0h.01ZM5.16 8.47c-.19 0-.36.04-.53.1V4.23c0-.71 0-1.1-.18-1.45-.16-.31-.41-.56-.72-.73a.52.52 0 0 0-.68.22c-.12.25-.03.55.22.67.12.06.23.17.29.29.07.14.07.46.07 1v11.53c0 .53 0 .86-.07 1-.06.12-.17.23-.29.29-.25.13-.34.43-.22.67.09.17.26.27.45.27.08 0 .15-.02.23-.05.32-.16.57-.41.73-.73.18-.36.18-.75.18-1.45v-4.34c.16.06.34.1.53.1.84 0 1.53-.68 1.53-1.53s-.68-1.53-1.53-1.53l-.01.01Zm0 2.06c-.29 0-.53-.24-.53-.53 0-.29.24-.53.53-.53.29 0 .53.24.53.53 0 .29-.24.53-.53.53Z"/>
</svg>
