<svg xmlns="http://www.w3.org/2000/svg" viewBox="0 0 20 20">
  <path d="M10.22 18.15H5.51c-.28 0-.5-.22-.5-.5s.22-.5.5-.5h1.98V15H3.74C2.78 15 2 14.22 2 13.26c0-.28.22-.5.5-.5s.5.22.5.5c0 .41.33.74.74.74h4.24c.28 0 .5.22.5.5v2.65h1.74c.28 0 .5.22.5.5s-.22.5-.5.5ZM2.5 4.24c-.27 0-.5-.22-.5-.5C2 2.78 2.78 2 3.74 2h7.56c.28 0 .5.22.5.5s-.22.5-.5.5H3.74c-.41 0-.74.33-.74.74 0 .28-.22.5-.5.5Zm4.17 7.21a.47.47 0 0 1-.35-.15c-.2-.2-.2-.51 0-.71l1.65-1.65H2.5c-.28 0-.5-.22-.5-.5s.22-.5.5-.5h5.46L6.31 6.29c-.2-.2-.2-.51 0-.71.2-.2.51-.2.71 0l2.5 2.5.01.01c.04.04.07.09.09.15.03.06.04.13.04.2s-.01.14-.04.2c-.02.05-.05.1-.09.15l-.01.01-2.5 2.5c-.1.1-.23.15-.35.15Zm5.71 4.21c-.34 0-.68-.07-1.01-.2a2.737 2.737 0 0 1-1.53-3.54l2.9-7.28c.27-.68.79-1.21 1.46-1.5.67-.29 1.41-.3 2.09-.03 1.4.56 2.08 2.15 1.53 3.54l-2.9 7.28a2.72 2.72 0 0 1-2.54 1.72v.01Zm-1.61-3.37a1.725 1.725 0 0 0 .97 2.24c.43.17.9.17 1.32-.02.42-.18.75-.52.92-.95l.19-.47-3.21-1.28-.19.47v.01Zm.56-1.4 3.21 1.28 1.55-3.89L12.88 7l-1.55 3.89Zm1.91-4.82 3.21 1.28.42-1.06a1.725 1.725 0 0 0-2.29-2.22c-.42.18-.75.52-.92.95l-.42 1.06v-.01Z"/>
  <path d="M13.41 10.84a.5.5 0 1 0 0-1 .5.5 0 0 0 0 1Zm.66-1.51a.5.5 0 1 0 0-1 .5.5 0 0 0 0 1Z"/>
</svg>
