<svg xmlns="http://www.w3.org/2000/svg" viewBox="0 0 20 20">
  <path d="M17.5 12c-.28 0-.5.22-.5.5v1c0 1.32 0 1.98-.22 2.41a2 2 0 0 1-.88.87c-.43.22-1.09.22-2.41.22h-7c-1.32 0-1.98 0-2.41-.22-.37-.19-.68-.5-.87-.87-.22-.43-.22-1.09-.22-2.41v-1c0-.28-.22-.5-.5-.5s-.5.22-.5.5v1c0 1.48 0 2.22.33 2.86.29.57.74 1.02 1.31 1.31.64.33 1.38.33 2.86.33h7c1.48 0 2.22 0 2.86-.33.57-.29 1.02-.74 1.31-1.31.33-.64.33-1.38.33-2.86v-1c0-.28-.22-.5-.5-.5h.01Z"/>
  <path d="m15.34 9.07-.81-.91v-.32l.81-.91c.36-.4.4-.98.15-1.43l-.57-.99c-.26-.45-.78-.7-1.32-.59l-1.21.25c-.08-.05-.17-.1-.25-.15l-.4-1.18c-.17-.51-.64-.84-1.17-.84H9.43c-.53 0-1 .35-1.17.83l-.4 1.19c-.08.04-.17.09-.25.14L6.4 3.91c-.53-.11-1.05.14-1.31.59l-.57.99c-.27.46-.21 1.04.15 1.43l.81.91v.32l-.81.91c-.36.4-.4.98-.15 1.43l.57.99c.26.45.78.7 1.32.59l1.21-.25c.08.05.17.1.25.15l.4 1.18c.17.51.64.84 1.17.84h1.14c.53 0 1-.35 1.17-.83l.4-1.19c.08-.04.17-.09.25-.14l1.21.25c.53.11 1.05-.14 1.31-.59l.57-.99c.27-.46.21-1.04-.15-1.43Zm-.72.93-.57.99c-.06.1-.16.14-.25.12l-1.39-.29c-.14-.03-.28 0-.39.08-.16.11-.32.21-.5.29-.12.06-.22.17-.26.29l-.45 1.35c-.03.1-.13.16-.22.16H9.45c-.1 0-.19-.06-.22-.16l-.45-1.35a.509.509 0 0 0-.24-.28c-.19-.1-.37-.2-.53-.31a.512.512 0 0 0-.38-.08l-1.39.29c-.09.02-.19-.02-.25-.12L5.42 10a.24.24 0 0 1 .02-.27l.95-1.07c.09-.1.13-.23.13-.37 0-.11-.01-.21-.01-.3s0-.19.01-.3c0-.13-.04-.27-.13-.37l-.95-1.06c-.07-.08-.08-.18-.03-.26l.57-.99c.06-.1.16-.14.25-.12l1.39.29c.14.03.28 0 .39-.08.16-.11.32-.21.5-.29.12-.06.22-.17.26-.3l.45-1.35c.03-.1.13-.16.22-.16h1.14c.1 0 .19.06.22.16l.45 1.35c.04.12.13.23.24.29.19.1.37.2.53.31.11.08.25.1.38.08l1.39-.29c.09-.02.19.02.25.12l.57.98c.05.09.04.2-.02.27l-.95 1.07a.54.54 0 0 0-.13.37c0 .11.01.21.01.3 0 .1 0 .19-.01.3 0 .13.04.27.13.37l.95 1.06c.07.08.08.18.03.26Z"/>
  <path d="M10 5.67C8.71 5.67 7.67 6.71 7.67 8s1.04 2.33 2.33 2.33S12.33 9.29 12.33 8 11.29 5.67 10 5.67Zm0 3.66a1.33 1.33 0 1 1 0-2.659 1.33 1.33 0 0 1 0 2.659Z"/>
</svg>
