<svg xmlns="http://www.w3.org/2000/svg" viewBox="0 0 20 20">
  <path d="M15.25 17.34c-.54 0-1.07-.2-1.48-.61L10 12.96l-3.77 3.77c-.81.81-2.14.82-2.96 0-.82-.82-.82-2.14 0-2.96l4.9-4.9-2.88-2.88H3.25c-.22 0-.41-.14-.47-.34l-.75-2.24a.503.503 0 0 1 .12-.51l.75-.75c.13-.14.33-.18.51-.12l2.25.75c.2.07.34.26.34.47v2.04l2.87 2.87s.02-.03.03-.04c.03-.15-.02-.38-.06-.6A4.622 4.622 0 0 1 13.37 2c.82 0 1.62.22 2.32.62.13.08.22.21.24.37.02.16-.03.31-.14.42l-1.97 1.97c-.17.17-.36.36-.38.42-.02.05-.02.1 0 .15.02.06.2.24.38.42l.18.18c.17.17.36.36.42.38.05.02.11.02.16 0 .06-.02.24-.21.41-.37l1.85-1.85c.12-.12.29-.17.45-.14.16.03.3.15.36.3.23.56.35 1.15.35 1.76 0 2.29-1.67 4.19-3.86 4.56l2.58 2.58c.4.39.61.92.61 1.48 0 .56-.22 1.08-.61 1.48-.41.41-.94.61-1.48.61h.01Zm-.77-1.32c.43.43 1.12.43 1.54 0 .21-.21.32-.48.32-.77 0-.29-.11-.57-.32-.77l-3.27-3.27c-.09-.01-.18-.03-.28-.05-.23-.04-.44-.09-.51-.09h-.02c-.12.05-.24.17-.35.28l-.89.89 3.78 3.78ZM13.37 3a3.625 3.625 0 0 0-3.55 4.33c.08.41.12.62.1.8-.02.19-.06.31-.14.47-.08.16-.2.28-.42.5l-5.38 5.38c-.21.21-.32.48-.32.77 0 .29.11.57.32.77.43.43 1.12.43 1.54 0l4.11-4.11.02-.02 1.27-1.27.08-.08.1-.1c.06-.06.12-.11.18-.15a1.074 1.074 0 0 1 .58-.21h.05c.16-.01.33 0 .5.05.2.05.41.09.62.11h.01c.11 0 .22.01.33.01a3.625 3.625 0 0 0 3.57-4.24l-1.25 1.25c-.33.33-.53.53-.82.62-.25.08-.52.08-.77 0-.28-.09-.48-.29-.81-.62l-.19-.18c-.33-.33-.53-.53-.62-.82-.08-.25-.08-.52 0-.77.09-.29.29-.49.62-.82l1.47-1.47c-.39-.14-.8-.21-1.21-.21l.01.01ZM3.61 5H5V3.61l-1.61-.54-.31.31L3.62 5h-.01Z"/>
</svg>
