<svg xmlns="http://www.w3.org/2000/svg" viewBox="0 0 20 20">
  <path d="M14.5 18c-.28 0-.5-.22-.5-.5v-6.79l-2.15 2.15c-.2.2-.51.2-.71 0-.2-.2-.2-.51 0-.71l3-3 .01-.01s.1-.07.15-.1c.05-.02.11-.04.18-.04h.03c.06 0 .12.02.18.04.05.02.11.05.15.1l.01.01 3 3c.2.2.2.51 0 .71-.2.2-.51.2-.71 0l-2.15-2.15v6.79c0 .28-.22.5-.5.5h.01Z"/>
  <path d="M10 18c-4.41 0-8-3.59-8-8s3.59-8 8-8c3.53 0 6.6 2.26 7.64 5.63.08.26-.07.54-.33.63a.515.515 0 0 1-.63-.33 6.96 6.96 0 0 0-5.55-4.83c.94 1.27 1.63 2.71 2.01 4.24.07.27-.1.54-.36.61-.27.07-.54-.1-.61-.36-.39-1.58-1.14-3.06-2.17-4.31a10.997 10.997 0 0 0-2.48 6.24H9.4c.28 0 .5.22.5.5s-.22.5-.5.5H7.52c.16 2.39 1.11 4.68 2.7 6.5.27 0 .53-.03.79-.07.27-.05.53.15.57.42.04.27-.15.53-.42.57-.38.05-.76.08-1.15.08L10 18Zm-6.98-7.5c.23 3.25 2.69 5.89 5.85 6.41-1.38-1.86-2.2-4.08-2.34-6.41H3.02Zm0-1h3.5c.15-2.33.96-4.55 2.34-6.41A7.01 7.01 0 0 0 3.02 9.5Z"/>
</svg>
