<svg xmlns="http://www.w3.org/2000/svg" viewBox="0 0 20 20">
  <path d="M11.88 18c-.14 0-.28-.02-.42-.07-.31-.1-.51-.32-.88-.71l-1.63-1.73c-.19-.2-.18-.52.02-.71.2-.19.52-.18.71.02l1.62 1.73c.21.22.4.43.47.45.06.02.13.02.19 0 .07-.02.26-.23.47-.45l4.69-5.01c.19-.2.51-.21.71-.02.2.19.21.51.02.71l-4.69 5c-.37.4-.57.61-.88.72-.13.05-.28.07-.42.07h.02Z"/>
  <path d="M6.52 16.4c-.07 0-.15-.02-.21-.05C3.69 15.1 2 12.43 2 9.54 2 5.38 5.38 2 9.53 2c3.71 0 6.92 2.77 7.45 6.44.04.27-.15.53-.42.57a.505.505 0 0 1-.57-.42c-.41-2.8-2.61-5-5.33-5.48 1.27 1.73 2.02 3.79 2.16 5.94h1.5c.28 0 .5.22.5.5s-.22.5-.5.5h-1.5c-.05.8-.19 1.57-.4 2.33-.08.27-.35.42-.62.35a.507.507 0 0 1-.35-.62c.19-.67.31-1.36.36-2.06H7.23c.05.69.17 1.38.36 2.06.07.27-.08.54-.35.62a.499.499 0 0 1-.62-.35c-.21-.76-.35-1.54-.4-2.33h-3.2a6.6 6.6 0 0 0 3.71 5.41.504.504 0 0 1-.21.96v-.02Zm.73-7.36h4.58a10.28 10.28 0 0 0-2.29-5.77 10.28 10.28 0 0 0-2.29 5.77Zm-4.23 0h3.23c.14-2.16.89-4.21 2.16-5.94a6.558 6.558 0 0 0-5.39 5.94Z"/>
</svg>
