<svg xmlns="http://www.w3.org/2000/svg" viewBox="0 0 20 20">
  <path d="M3.39 12c-.15 0-.27-.04-.36-.12-.09-.08-.16-.21-.21-.38l-.77-2.8c-.01-.06-.03-.12-.04-.18 0-.06-.01-.11-.01-.16 0-.13.04-.24.13-.32.09-.08.2-.11.35-.11.25 0 .41.14.46.42l.51 2.34h.02l.59-2.36c.03-.14.09-.24.17-.31.08-.07.18-.1.31-.1.25 0 .4.13.47.4l.59 2.36h.02l.51-2.34c.06-.28.21-.42.46-.42.15 0 .27.04.35.11.08.08.13.18.13.32 0 .09-.02.21-.05.33l-.77 2.81c-.05.17-.11.3-.2.38-.09.08-.21.12-.36.12s-.28-.04-.37-.12c-.09-.08-.16-.21-.21-.38l-.57-2.07h-.02l-.57 2.07c-.05.17-.11.3-.21.38-.09.08-.21.12-.37.12l.02.01Zm5.4 0c-.15 0-.27-.04-.36-.12-.09-.08-.16-.21-.21-.38l-.77-2.8c-.01-.06-.03-.12-.04-.18 0-.06-.01-.11-.01-.16 0-.13.04-.24.13-.32.09-.08.2-.11.35-.11.25 0 .41.14.46.42l.51 2.34h.02l.59-2.36c.03-.14.09-.24.17-.31.08-.07.18-.1.31-.1.25 0 .4.13.47.4l.59 2.36h.02l.51-2.34c.06-.28.21-.42.46-.42.15 0 .27.04.35.11.08.08.13.18.13.32 0 .09-.02.21-.05.33l-.77 2.81c-.05.17-.11.3-.2.38-.09.08-.21.12-.36.12s-.28-.04-.37-.12c-.09-.08-.16-.21-.21-.38l-.57-2.07h-.02l-.57 2.07c-.05.17-.11.3-.21.38-.09.08-.21.12-.37.12l.02.01Zm5.41 0c-.15 0-.27-.04-.36-.12-.09-.08-.16-.21-.21-.38l-.77-2.8c-.01-.06-.03-.12-.04-.18 0-.06-.01-.11-.01-.16 0-.13.04-.24.13-.32.09-.08.2-.11.35-.11.25 0 .41.14.46.42l.51 2.34h.02l.59-2.36c.03-.14.09-.24.17-.31.08-.07.18-.1.31-.1.25 0 .4.13.47.4l.59 2.36h.02l.51-2.34c.06-.28.21-.42.46-.42.15 0 .27.04.35.11.08.08.13.18.13.32 0 .09-.02.21-.05.33l-.77 2.81c-.05.17-.11.3-.2.38-.09.08-.21.12-.36.12s-.28-.04-.37-.12c-.09-.08-.16-.21-.21-.38l-.57-2.07h-.02l-.57 2.07c-.05.17-.11.3-.21.38-.09.08-.21.12-.37.12l.02.01Zm-1.96-4.97a.5.5 0 0 1-.48-.36 9.837 9.837 0 0 0-1.81-3.41c-.82 1-1.44 2.17-1.81 3.41-.08.26-.36.42-.62.33a.5.5 0 0 1-.33-.62c.35-1.17.91-2.29 1.63-3.29a6.324 6.324 0 0 0-4.63 3.63c-.11.25-.41.37-.66.25a.494.494 0 0 1-.25-.66A7.322 7.322 0 0 1 9.95 2c2.88 0 5.5 1.7 6.68 4.33.11.25 0 .55-.25.66-.25.12-.55 0-.66-.25a6.324 6.324 0 0 0-4.63-3.63c.72.99 1.28 2.11 1.63 3.29a.497.497 0 0 1-.48.64v-.01Zm-2.29 11c-2.88 0-5.5-1.7-6.67-4.32-.11-.25 0-.55.25-.66.25-.12.55 0 .66.25a6.347 6.347 0 0 0 4.63 3.63c-.72-.99-1.28-2.11-1.63-3.28a.5.5 0 0 1 .33-.62.5.5 0 0 1 .62.33c.37 1.23.99 2.4 1.81 3.4.81-1 1.43-2.17 1.81-3.4.08-.26.36-.42.62-.33a.5.5 0 0 1 .33.62c-.35 1.17-.91 2.28-1.63 3.28a6.324 6.324 0 0 0 4.63-3.63c.11-.25.41-.37.66-.25.25.11.36.41.25.66a7.336 7.336 0 0 1-6.67 4.32Z"/>
</svg>
