<svg xmlns="http://www.w3.org/2000/svg" viewBox="0 0 20 20">
  <path d="M3.62 13.15a.49.49 0 0 1-.41-.22A6.958 6.958 0 0 1 2 9c0-3.86 3.14-7 7-7s7 3.14 7 7c0 .3-.02.6-.06.89-.03.22-.07.45-.12.67a.503.503 0 0 1-.98-.22c.04-.19.08-.38.1-.57l.03-.27h-2.9c0 .13-.02.25-.03.38-.02.22-.05.43-.09.65a.5.5 0 0 1-.58.41.5.5 0 0 1-.41-.58c.03-.2.06-.39.08-.59 0-.09.02-.18.02-.28H6.91c0 .09.02.18.02.28.02.2.05.39.08.59.03.17.06.35.1.53a.503.503 0 0 1-.98.22c-.04-.19-.08-.39-.11-.58-.04-.22-.07-.43-.09-.65L5.9 9.5H3.02c.08 1.03.43 2.01 1.01 2.87a.5.5 0 0 1-.13.7.49.49 0 0 1-.28.09v-.01Zm8.46-4.65h2.9c-.22-2.7-2.24-4.89-4.84-5.39a10.46 10.46 0 0 1 1.94 5.39Zm-1.01 0a9.402 9.402 0 0 0-2.08-5.23A9.475 9.475 0 0 0 6.91 8.5h4.16Zm-8.05 0h2.9c.13-1.96.81-3.82 1.94-5.39-2.6.5-4.62 2.7-4.84 5.39Z"/>
  <path d="M15.7 18H8.05c-.69 0-1.07 0-1.41-.18-.3-.15-.55-.4-.71-.71-.18-.35-.18-.73-.18-1.41v-.9c0-.69 0-1.06.18-1.41.16-.3.41-.56.71-.71.35-.18.72-.18 1.41-.18h7.65c.69 0 1.07 0 1.41.18.3.15.55.41.71.71.18.35.18.73.18 1.41v.9c0 .69 0 1.07-.18 1.41-.16.31-.41.56-.71.71-.34.18-.72.18-1.41.18Zm-7.65-4.5c-.51 0-.82 0-.96.07a.64.64 0 0 0-.27.27c-.07.13-.07.44-.07.96v.9c0 .51 0 .83.07.96.06.12.16.21.27.27.14.07.45.07.96.07h7.65c.51 0 .82 0 .96-.07a.64.64 0 0 0 .27-.27c.07-.13.07-.44.07-.96v-.9c0-.51 0-.82-.07-.96a.64.64 0 0 0-.27-.27c-.13-.07-.44-.07-.96-.07H8.05Zm7.19 2.25h-.76c-.28 0-.5-.22-.5-.5s.22-.5.5-.5h.76c.28 0 .5.22.5.5s-.22.5-.5.5Zm-3.73 0H8.5c-.28 0-.5-.22-.5-.5s.22-.5.5-.5h3.01c.28 0 .5.22.5.5s-.22.5-.5.5Z"/>
</svg>
