<svg xmlns="http://www.w3.org/2000/svg" viewBox="0 0 20 20">
  <path d="M10 18c-4.41 0-8-3.59-8-8s3.59-8 8-8 8 3.59 8 8-3.59 8-8 8Zm3.48-7.5c-.15 2.33-.96 4.55-2.34 6.41 3.16-.52 5.62-3.16 5.85-6.41h-3.51Zm-10.46 0c.23 3.25 2.69 5.89 5.85 6.41-1.38-1.86-2.2-4.08-2.34-6.41H3.02Zm4.5 0c.15 2.28 1.02 4.46 2.48 6.24 1.46-1.77 2.32-3.95 2.48-6.24H7.52Zm9.46-1c-.23-3.25-2.69-5.89-5.85-6.41 1.38 1.86 2.2 4.08 2.34 6.41h3.51Zm-9.46 0h4.96c-.15-2.28-1.02-4.46-2.48-6.24A10.997 10.997 0 0 0 7.52 9.5Zm-4.5 0h3.5c.15-2.33.96-4.55 2.34-6.41A7.01 7.01 0 0 0 3.02 9.5Z"/>
</svg>
