<svg xmlns="http://www.w3.org/2000/svg" viewBox="0 0 20 20">
  <path d="M15.1 18h-3.2c-.92 0-1.38 0-1.81-.22a2 2 0 0 1-.87-.88C9 16.47 9 16.01 9 15.09v-.7c0-.89 0-1.38.22-1.81.19-.37.5-.68.87-.87.13-.07.26-.11.41-.14V11c0-1.65 1.35-3 3-3s3 1.35 3 3v.57c.15.03.28.08.41.14.38.19.68.49.87.87.22.43.22.92.22 1.81v.7c0 .92 0 1.38-.22 1.81-.19.38-.5.68-.87.87-.43.22-.89.22-1.81.22V18Zm-3.2-5.5c-.74 0-1.14 0-1.35.11-.19.09-.34.25-.44.44-.11.21-.11.62-.11 1.35v.7c0 .73 0 1.14.11 1.35.1.19.25.34.44.44.21.11.62.11 1.35.11h3.2c.73 0 1.14 0 1.35-.11.19-.09.34-.25.44-.44.11-.21.11-.62.11-1.35v-.7c0-.74 0-1.14-.11-1.35-.1-.19-.25-.34-.44-.44-.21-.11-.62-.11-1.35-.11h-3.2Zm0-1h3.6V11c0-1.1-.9-2-2-2s-2 .9-2 2v.5h.4Zm1.6 4.25c-.28 0-.5-.22-.5-.5v-1c0-.28.22-.5.5-.5s.5.22.5.5v1c0 .28-.22.5-.5.5Z"/>
  <path d="M6.1 15.32c-.08 0-.15-.02-.22-.05A6.974 6.974 0 0 1 2 9c0-3.86 3.14-7 7-7 2.62 0 5 1.45 6.21 3.77.13.25.03.55-.21.67-.24.13-.55.03-.67-.21a5.985 5.985 0 0 0-4.19-3.12c.64.88 1.13 1.86 1.46 2.9a.51.51 0 0 1-.32.63.5.5 0 0 1-.63-.32A9.314 9.314 0 0 0 9 3.27 9.475 9.475 0 0 0 6.92 8.5H9c.28 0 .5.22.5.5s-.22.5-.5.5H6.92c.05.71.19 1.43.41 2.13a.502.502 0 1 1-.96.3c-.25-.79-.4-1.61-.46-2.43H3.02c.17 2.09 1.4 3.92 3.3 4.87.25.12.35.42.22.67-.09.17-.26.28-.45.28h.01ZM3.02 8.5h2.9c.13-1.96.81-3.82 1.94-5.39-2.6.5-4.62 2.7-4.84 5.39Z"/>
</svg>
