<svg xmlns="http://www.w3.org/2000/svg" viewBox="0 0 20 20">
  <path d="M16.17 18h-1.36c-.27 0-.46 0-.65-.1a.917.917 0 0 1-.39-.39c-.1-.2-.1-.38-.1-.65v-.53h-.53c-.27 0-.45 0-.65-.1a.91.91 0 0 1-.4-.4c-.1-.19-.1-.37-.1-.65v-.53h-.9c-.12 0-.2 0-.31-.02-.1-.03-.19-.06-.27-.11-.09-.06-.16-.12-.23-.2l-1.13-1.13c-.12-.12-.25-.25-.29-.27-.05-.03-.05-.03-.11-.04-.05 0-.27.02-.49.05-.27.04-.52.05-.77.05a5.51 5.51 0 0 1-5.5-5.5C1.99 4.45 4.47 2 7.5 2a5.51 5.51 0 0 1 5.45 6.24c-.03.25-.06.46-.06.52s0 .06.04.11c.03.04.16.17.27.29l4.26 4.26c.15.15.26.26.34.39.07.12.13.25.16.39.04.15.04.29.04.52v1.45c0 .53 0 .82-.15 1.11-.13.25-.33.45-.58.58-.28.15-.58.15-1.1.15V18Zm-3.03-2.67h.39c.28 0 .46 0 .65.1a.8.8 0 0 1 .39.4c.1.19.1.37.1.64V17h1.5c.31 0 .58 0 .65-.04a.36.36 0 0 0 .15-.15c.04-.07.04-.34.04-.65v-1.74c0-.03-.02-.07-.04-.1s-.1-.11-.19-.21l-4.26-4.26c-.21-.21-.34-.34-.44-.51-.09-.16-.13-.28-.16-.46s0-.36.05-.77c.03-.22.04-.43.04-.63 0-2.48-2.02-4.5-4.5-4.5S3 5.02 3 7.5a4.507 4.507 0 0 0 5.1 4.46c.42-.06.62-.08.8-.06.18.03.31.07.46.16.16.09.29.22.51.44l1.23 1.17h.76c.27 0 .45 0 .65.1.18.09.31.23.4.4.1.19.1.37.1.65v.53h.14l-.01-.02ZM5.83 8c-.28 0-.5-.22-.5-.5 0-.58.23-1.12.63-1.53.41-.41.95-.63 1.53-.63.28 0 .5.22.5.5s-.22.5-.5.5c-.31 0-.6.12-.83.34-.22.22-.34.51-.34.82 0 .28-.22.5-.5.5h.01Z"/>
</svg>
