<svg xmlns="http://www.w3.org/2000/svg" viewBox="0 0 20 20">
  <path d="M15.1 15H4.9c-.92 0-1.38 0-1.81-.22-.38-.19-.68-.49-.87-.87C2 13.48 2 13.02 2 12.1V7.9c0-.89 0-1.38.22-1.81.19-.38.5-.68.87-.87C3.52 5 3.98 5 4.9 5h10.2c.92 0 1.38 0 1.81.22.38.19.68.49.87.87.22.43.22.89.22 1.81v4.2c0 .92 0 1.38-.22 1.81-.19.38-.5.68-.88.88-.43.22-.89.22-1.81.22l.01-.01ZM4.9 6c-.74 0-1.14 0-1.35.11-.19.1-.34.25-.44.44C3 6.76 3 7.17 3 7.9v4.2c0 .73 0 1.14.11 1.35.1.19.25.34.44.44.21.11.62.11 1.35.11h10.2c.74 0 1.14 0 1.35-.11.19-.1.34-.25.44-.44.11-.21.11-.62.11-1.35V7.9c0-.74 0-1.14-.11-1.35-.1-.19-.25-.34-.44-.44C16.24 6 15.83 6 15.1 6H4.9Zm8.85 6.38h-7.5c-.28 0-.5-.22-.5-.5s.22-.5.5-.5h7.5c.28 0 .5.22.5.5s-.22.5-.5.5Z"/>
  <path d="M14.51 9.2c-.39 0-.7-.31-.7-.7 0-.39.31-.7.7-.7.39 0 .7.31.7.7 0 .39-.31.7-.7.7Zm-3 0c-.39 0-.7-.31-.7-.7 0-.39.31-.7.7-.7.39 0 .7.31.7.7 0 .39-.31.7-.7.7Zm-3 0c-.39 0-.7-.31-.7-.7 0-.39.31-.7.7-.7.39 0 .7.31.7.7 0 .39-.31.7-.7.7Zm-3 0c-.39 0-.7-.31-.7-.7 0-.39.31-.7.7-.7.39 0 .7.31.7.7 0 .39-.31.7-.7.7Z"/>
</svg>
