<svg xmlns="http://www.w3.org/2000/svg" viewBox="0 0 20 20">
  <path d="M14.48 7.64c0-.91-.75-1.65-1.68-1.65h-.19c-.85 0-1.6.56-1.81 1.37-.07.27.09.54.36.61.27.07.54-.09.61-.36.1-.37.45-.63.85-.63h.19c.38 0 .68.29.68.65 0 .18-.08.36-.23.48l-2.34 1.99c-.16.14-.22.36-.15.55.07.19.26.33.47.33h2.75c.28 0 .5-.22.5-.5s-.22-.5-.5-.5h-1.38l1.31-1.11c.37-.31.58-.77.58-1.24l-.02.01ZM6.02 10c-.28 0-.5.22-.5.5s.22.5.5.5h2.75c.28 0 .5-.22.5-.5s-.22-.5-.5-.5H7.9V6.5c0-.17-.09-.33-.23-.42a.513.513 0 0 0-.48-.03l-1.37.67a.5.5 0 1 0 .44.9l.65-.32V10h-.89Z"/>
  <path d="M15 3H5C3.35 3 2 4.35 2 6v8c0 1.65 1.35 3 3 3h10c1.65 0 3-1.35 3-3V6c0-1.65-1.35-3-3-3Zm2 11c0 1.1-.9 2-2 2H5c-1.1 0-2-.9-2-2V6c0-1.1.9-2 2-2h10c1.1 0 2 .9 2 2v8Z"/>
  <path d="M13.88 13H6.13c-.28 0-.5.22-.5.5s.22.5.5.5h7.75c.28 0 .5-.22.5-.5s-.22-.5-.5-.5Z"/>
</svg>
