<svg xmlns="http://www.w3.org/2000/svg" viewBox="0 0 20 20">
  <path d="M17.96 13.93c-.12-.43-.45-.77-.88-.88-.03 0-.05 0-.08-.01V5.9c0-.92 0-1.38-.22-1.81-.19-.38-.49-.68-.87-.87C15.48 3 15.02 3 14.1 3H5.9c-.92 0-1.38 0-1.81.22-.38.19-.68.5-.87.88C3 4.53 3 4.99 3 5.91v7.15c-.57.12-1 .6-1 1.2v.25c0 .51 0 .76.07 1.02.18.69.73 1.23 1.42 1.41.25.07.51.07 1.02.07h11c.51 0 .76 0 1.02-.07.69-.18 1.23-.73 1.42-1.42.07-.25.07-.51.07-1.02 0-.27 0-.41-.04-.57h-.02ZM4.11 4.55c.1-.19.25-.34.44-.44C4.76 4 5.17 4 5.9 4h8.2c.73 0 1.14 0 1.35.11.19.1.34.25.44.44.11.21.11.62.11 1.35V13h-3.25c-.21 0-.34 0-.47.03-.13.03-.26.08-.36.15-.12.08-.21.17-.42.37-.07.07-.14.14-.24.19H9c-.12 0-.22 0-.32-.04-.02-.01-.09-.08-.17-.16l-.07-.07c-.13-.13-.22-.22-.34-.29-.11-.07-.24-.12-.36-.15-.15-.04-.27-.04-.48-.04H4.01V5.9c0-.74 0-1.14.11-1.35h-.01Zm12.86 10.71a1 1 0 0 1-.71.71c-.13.03-.35.03-.76.03h-11c-.41 0-.63 0-.76-.03-.34-.09-.61-.36-.71-.71C3 15.13 3 14.91 3 14.5v-.25c0-.14.11-.25.25-.25h4c.11 0 .21 0 .32.04.02.01.09.08.16.15l.08.08c.14.14.23.23.34.3.11.07.24.12.37.15.14.03.27.03.48.03h2.01c.21 0 .33 0 .47-.03.13-.03.25-.08.36-.15.12-.08.22-.17.42-.37.07-.07.14-.14.24-.19h4.3c.09.02.15.09.18.18v.31c0 .41 0 .63-.03.76h.02Z"/>
</svg>
