<svg xmlns="http://www.w3.org/2000/svg" viewBox="0 0 20 20">
  <path d="M9.5 5.05h.39v4.36c0 .8 0 1.24.2 1.63.18.35.45.62.8.8.39.2.83.2 1.63.2h1.96c.8 0 1.24 0 1.63-.2.35-.18.62-.45.8-.8.2-.39.2-.83.2-1.63V5.05h.39c.28 0 .5-.22.5-.5s-.22-.5-.5-.5h-1.72v-.13c0-.56 0-.87-.15-1.16-.13-.26-.34-.47-.61-.6-.3-.15-.61-.15-1.17-.15h-.71c-.56 0-.87 0-1.16.15-.26.13-.47.34-.61.61-.15.3-.15.6-.15 1.16v.13H9.5c-.28 0-.5.22-.5.5s.22.5.5.5v-.01Zm2.72-1.13c0-.35 0-.63.04-.71.04-.07.1-.13.17-.17.08-.04.36-.04.71-.04h.71c.35 0 .63 0 .71.04.07.04.13.1.17.17.04.08.04.36.04.71v.13h-2.56v-.13h.01Zm-1.33 1.13h5.22v4.36c0 .64 0 1-.09 1.18-.08.16-.21.28-.36.36-.18.09-.53.09-1.18.09h-1.96c-.65 0-1 0-1.18-.09a.834.834 0 0 1-.36-.36c-.09-.18-.09-.53-.09-1.18V5.05Z"/>
  <path d="M14.39 9.44c.28 0 .5-.22.5-.5V6.72c0-.28-.22-.5-.5-.5s-.5.22-.5.5v2.22c0 .28.22.5.5.5Zm-1.78 0c.28 0 .5-.22.5-.5V6.72c0-.28-.22-.5-.5-.5s-.5.22-.5.5v2.22c0 .28.22.5.5.5Zm4.47 4.61c-.08-.02-.16-.03-.26-.04h-4.07c-.21 0-.34 0-.47.03-.13.03-.25.08-.36.15-.13.08-.22.17-.41.36-.08.08-.15.15-.24.2H9.01c-.13 0-.22 0-.31-.03-.03-.02-.1-.09-.23-.22-.15-.15-.23-.24-.36-.31-.12-.07-.24-.12-.36-.15C7.6 14 7.48 14 7.27 14H4.02V7.89c0-.74 0-1.14.11-1.35.1-.19.25-.34.44-.44.21-.11.62-.11 1.35-.11h.78c.28 0 .5-.22.5-.5s-.22-.5-.5-.5h-.78c-.92 0-1.38 0-1.81.22-.38.19-.68.5-.87.88-.22.43-.22.89-.22 1.81v6.16c-.57.12-1 .6-1 1.2v.25c0 .51 0 .76.07 1.02.18.69.73 1.23 1.42 1.41.25.07.51.07 1.02.07h11c.51 0 .76 0 1.02-.07.69-.18 1.23-.73 1.42-1.42.07-.25.07-.51.07-1.02 0-.27 0-.41-.04-.57-.12-.43-.45-.77-.88-.88h-.04Zm-.11 2.22c-.09.34-.36.61-.71.71-.13.03-.35.03-.76.03h-11c-.41 0-.63 0-.76-.03-.34-.09-.61-.36-.71-.71-.03-.13-.03-.35-.03-.76v-.25c0-.14.11-.25.25-.25h4c.11 0 .21 0 .32.04.02.01.1.09.22.21.14.14.23.24.36.32.11.07.23.12.37.15.14.03.27.03.47.03H11c.21 0 .33 0 .49-.04.13-.03.25-.08.36-.15.13-.08.22-.17.41-.36.08-.08.15-.15.25-.2h4.3c.09.02.15.09.18.17v.32c0 .41 0 .63-.03.76l.01.01Z"/>
</svg>
