<svg xmlns="http://www.w3.org/2000/svg" viewBox="0 0 20 20">
  <path d="M13 12c2.76 0 5-2.24 5-5s-2.24-5-5-5-5 2.24-5 5 2.24 5 5 5Zm0-1.28a6.462 6.462 0 0 1-1.27-3.22h2.54A6.426 6.426 0 0 1 13 10.72Zm1.14.11c.64-1 1.03-2.14 1.13-3.33h1.7a3.994 3.994 0 0 1-2.83 3.33Zm2.83-4.33h-1.7c-.1-1.19-.5-2.33-1.13-3.33 1.5.45 2.63 1.75 2.83 3.33ZM13 3.28c.71.94 1.15 2.06 1.27 3.22h-2.54A6.39 6.39 0 0 1 13 3.28Zm-1.14-.11c-.64 1-1.03 2.14-1.13 3.33h-1.7c.2-1.59 1.33-2.89 2.83-3.33ZM10.73 7.5c.1 1.19.5 2.33 1.14 3.33A4.019 4.019 0 0 1 9.04 7.5h1.7-.01Z"/>
  <path d="M17.07 14.05s-.05 0-.07-.01v-.53c0-.28-.22-.5-.5-.5s-.5.22-.5.5v.5h-3.25c-.21 0-.33 0-.48.03-.13.03-.25.08-.36.15-.13.08-.22.17-.42.37-.08.08-.14.14-.24.19H9c-.11 0-.21 0-.31-.04-.02-.02-.09-.08-.23-.22s-.23-.23-.36-.31c-.11-.07-.23-.12-.36-.15C7.6 14 7.47 14 7.26 14H4.01V7.89c0-.74 0-1.14.11-1.35.1-.19.25-.34.44-.44.21-.11.62-.11 1.35-.11.28 0 .5-.22.5-.5s-.22-.5-.5-.5c-.92 0-1.38 0-1.81.22a2 2 0 0 0-.88.87C3 6.51 3 6.97 3 7.89v6.16c-.57.12-1 .6-1 1.2v.25c0 .51 0 .76.07 1.02.18.69.73 1.23 1.42 1.42.25.07.51.07 1.02.07h11c.51 0 .76 0 1.02-.07.69-.19 1.23-.73 1.41-1.41.07-.25.07-.51.07-1.02 0-.27 0-.42-.04-.57-.12-.43-.45-.77-.88-.88l-.02-.01Zm-.1 2.21a1 1 0 0 1-.71.71c-.13.03-.35.03-.76.03h-11c-.41 0-.63 0-.76-.03a1 1 0 0 1-.71-.71C3 16.14 3 15.91 3 15.5v-.25c0-.14.11-.25.25-.25h4c.12 0 .22 0 .31.04.03.02.1.09.24.23.14.13.23.22.35.3.11.07.24.12.36.15.15.04.27.04.48.04H11c.21 0 .34 0 .47-.03.13-.03.25-.08.37-.15.12-.08.21-.16.41-.36.08-.08.15-.15.25-.2h4.31c.09.02.15.09.18.18v.32c0 .41 0 .63-.03.76l.01-.02Z"/>
</svg>
