<svg xmlns="http://www.w3.org/2000/svg" viewBox="0 0 20 20">
  <path d="M14 7.59a1.81 1.81 0 1 0 0-3.62 1.81 1.81 0 0 0 0 3.62Zm0-2.62c.45 0 .81.36.81.81 0 .45-.36.81-.81.81-.45 0-.81-.36-.81-.81 0-.45.36-.81.81-.81Z"/>
  <path d="M12.13 9.78c.58.57 1.12 1.1 1.42 1.7a.5.5 0 0 0 .9 0c.29-.59.84-1.13 1.42-1.7C16.87 8.8 18 7.68 18 6c0-2.21-1.79-4-4-4s-4 1.79-4 4c0 1.68 1.13 2.79 2.13 3.78ZM14 3c1.65 0 3 1.35 3 3 0 1.26-.89 2.14-1.84 3.07-.41.4-.82.81-1.16 1.26-.34-.45-.76-.86-1.16-1.26C11.9 8.14 11 7.26 11 6c0-1.65 1.35-3 3-3Z"/>
  <path d="M17.08 14.05s-.05 0-.08-.01v-.92c0-.28-.22-.5-.5-.5s-.5.22-.5.5v.89h-3.25c-.21 0-.34 0-.47.03-.13.03-.25.08-.36.15-.13.08-.22.17-.41.36-.08.08-.15.15-.24.2H9.01c-.13 0-.22 0-.32-.03-.03-.02-.1-.09-.23-.22-.15-.15-.23-.24-.36-.31-.12-.07-.24-.12-.36-.15-.15-.04-.27-.04-.48-.04H4.01V7.89c0-.74 0-1.14.11-1.35.1-.19.25-.34.44-.44.21-.11.62-.11 1.35-.11h.78c.28 0 .5-.22.5-.5s-.22-.5-.5-.5h-.78c-.92 0-1.38 0-1.81.22-.38.19-.68.5-.87.88-.22.43-.22.89-.22 1.81v6.16c-.57.12-1 .6-1 1.2v.25c0 .51 0 .76.07 1.02.18.69.73 1.23 1.42 1.41.25.07.51.07 1.02.07h11c.51 0 .76 0 1.02-.07a1.99 1.99 0 0 0 1.41-1.41c.07-.25.07-.51.07-1.02 0-.27 0-.41-.04-.57-.12-.43-.45-.77-.88-.88l-.02-.01Zm-.11 2.22c-.09.34-.36.61-.71.71-.13.03-.35.03-.76.03h-11c-.41 0-.63 0-.76-.03-.34-.09-.62-.36-.71-.7-.03-.13-.03-.35-.03-.76v-.25c0-.14.11-.25.25-.25h4c.11 0 .21 0 .32.04.02.01.1.09.22.21.14.14.23.24.36.32.11.07.23.12.37.15.14.03.27.03.47.03H11c.21 0 .33 0 .48-.04.13-.03.25-.08.36-.15.13-.08.22-.17.41-.36.08-.08.15-.15.25-.2h4.3c.09.02.15.09.18.18v.31c0 .41 0 .63-.03.76h.02Z"/>
</svg>
