<svg xmlns="http://www.w3.org/2000/svg" viewBox="0 0 20 20">
  <path d="M12.69 15.41c-.13 0-.27-.02-.4-.06-.3-.1-.5-.3-.86-.66l-1.28-1.28c-.2-.2-.2-.51 0-.71.2-.2.51-.2.71 0l1.28 1.28c.21.21.39.39.46.41.06.02.12.02.18 0 .07-.02.25-.2.46-.41l3.91-3.91c.2-.2.51-.2.71 0 .2.2.2.51 0 .71l-3.91 3.91c-.36.36-.56.56-.85.66-.13.04-.27.06-.41.06Zm-2.81 2.27c-.05 0-.1 0-.15-.01-.13-.02-.22-.07-.34-.13l-7.11-3.56a.488.488 0 0 1-.22-.67c.12-.25.42-.35.67-.22l7.16 3.58.04-.02c.25-.12.55-.03.67.22s.03.55-.22.67c-.12.06-.21.1-.33.13-.06 0-.11.01-.16.01h-.01Zm-2.5-4.9c-.08 0-.15-.02-.22-.05l-4.88-2.44a.488.488 0 0 1-.22-.67c.12-.25.42-.35.67-.22l4.88 2.44c.25.12.35.42.22.67-.09.17-.26.28-.45.28v-.01Zm2.5-2.48c-.05 0-.1 0-.15-.01-.13-.03-.23-.07-.33-.13L2.28 6.59A.486.486 0 0 1 2 6.15c0-.19.11-.36.28-.45L9.4 2.14c.11-.06.21-.1.33-.13a.86.86 0 0 1 .32 0c.13.02.22.07.34.13l7.12 3.56a.5.5 0 0 1 0 .9l-7.12 3.56c-.11.06-.2.1-.32.12-.06.01-.12.02-.17.02h-.02ZM3.62 6.15l6.22 3.11s.03.01.04.02c.01 0 .03-.01.04-.02l6.22-3.11-6.26-3.13-6.26 3.13Z"/>
</svg>
