<svg xmlns="http://www.w3.org/2000/svg" viewBox="0 0 20 20">
  <path d="M16.5 18h-7c-.83 0-1.5-.67-1.5-1.5v-7C8 8.67 8.67 8 9.5 8h7c.83 0 1.5.67 1.5 1.5v7c0 .83-.67 1.5-1.5 1.5Zm-7-9c-.28 0-.5.22-.5.5v7c0 .28.22.5.5.5h7c.28 0 .5-.22.5-.5v-7c0-.28-.22-.5-.5-.5h-7Zm-3.16 6h-.28C5.47 15 5 14.52 5 13.94V6.5C5 5.67 5.67 5 6.5 5h7.44c.59 0 1.06.48 1.06 1.06v.28c0 .28-.22.5-.5.5s-.5-.22-.5-.5v-.28L6.5 6c-.28 0-.5.22-.5.5v7.44l.34.06c.28 0 .5.22.5.5s-.22.5-.5.5Zm-3-3h-.28C2.47 12 2 11.52 2 10.94V3.5C2 2.67 2.67 2 3.5 2h7.44c.59 0 1.06.48 1.06 1.06v.28c0 .28-.22.5-.5.5s-.5-.22-.5-.5v-.28L3.5 3c-.28 0-.5.22-.5.5v7.44l.34.06c.28 0 .5.22.5.5s-.22.5-.5.5Z"/>
</svg>
