<svg xmlns="http://www.w3.org/2000/svg" viewBox="0 0 20 20">
  <path d="M2.72 9.51a.505.505 0 0 0-.67.22c-.12.24-.02.55.22.67l6.7 3.35a.505.505 0 0 0 .45-.9l-6.7-3.34Zm-.44-2.86 7.23 3.61c.11.06.21.1.32.13.06.01.12.02.18.02s.11 0 .16-.02c.13-.02.23-.07.33-.13l7.23-3.62a.5.5 0 0 0 0-.9l-7.25-3.61c-.11-.05-.2-.1-.32-.12a.86.86 0 0 0-.32 0c-.12.02-.2.06-.33.13L2.28 5.76a.5.5 0 0 0 0 .9v-.01Zm7.67-3.61s.02-.01.05-.02l.04.02 6.34 3.17-6.34 3.17s-.03.02-.04.02c-.01 0-.03-.01-.05-.02L3.62 6.21l6.33-3.17Zm.09 13.83s-.03.02-.04.02c-.01 0-.03-.01-.05-.02l-7.23-3.61a.505.505 0 0 0-.67.22c-.12.25-.02.55.22.67l7.23 3.61c.11.06.21.1.32.13.06.01.12.02.18.02s.11 0 .16-.02c.13-.02.23-.07.33-.13a.5.5 0 0 0-.45-.89Zm7.46-2.91h-2.54V11.5c0-.28-.22-.5-.5-.5s-.5.22-.5.5v2.46H11.5c-.28 0-.5.22-.5.5s.22.5.5.5h2.46v2.54c0 .28.22.5.5.5s.5-.22.5-.5v-2.54h2.54c.28 0 .5-.22.5-.5s-.22-.5-.5-.5Z"/>
</svg>
