<svg xmlns="http://www.w3.org/2000/svg" viewBox="0 0 20 20">
  <path d="M17.5 18a.47.47 0 0 1-.35-.15L15 15.7l-2.15 2.15c-.2.2-.51.2-.71 0-.2-.2-.2-.51 0-.71l2.15-2.15-2.15-2.15c-.2-.2-.2-.51 0-.71.2-.2.51-.2.71 0L15 14.28l2.15-2.15c.2-.2.51-.2.71 0 .2.2.2.51 0 .71l-2.15 2.15 2.15 2.15c.2.2.2.51 0 .71-.1.1-.23.15-.35.15h-.01Zm-7.62-.32c-.05 0-.1 0-.15-.01-.13-.02-.22-.07-.34-.13l-7.11-3.56a.488.488 0 0 1-.22-.67c.12-.25.42-.35.67-.22l7.22 3.61c.27-.05.49.13.54.4.05.27-.17.53-.44.57-.05 0-.1.01-.15.01h-.02Zm0-3.69c-.05 0-.1 0-.15-.01-.13-.02-.21-.07-.33-.12l-7.12-3.57a.488.488 0 0 1-.22-.67c.12-.25.42-.35.67-.22l7.21 3.61c.28-.05.49.13.54.4.05.27-.17.53-.44.57-.05 0-.1.01-.15.01h-.01Zm0-3.69c-.05 0-.1 0-.15-.01-.13-.03-.23-.07-.33-.13L2.28 6.59A.486.486 0 0 1 2 6.15c0-.19.11-.36.28-.45L9.4 2.14c.11-.06.21-.1.33-.13a.86.86 0 0 1 .32 0c.13.02.22.07.34.13l7.12 3.56a.5.5 0 0 1 0 .9l-7.12 3.56c-.11.06-.2.1-.32.12-.06.01-.12.02-.17.02h-.02ZM3.62 6.15l6.22 3.11s.03.01.04.02c.01 0 .03-.01.04-.02l6.22-3.11-6.26-3.13-6.26 3.13Z"/>
</svg>
