<svg xmlns="http://www.w3.org/2000/svg" viewBox="0 0 20 20">
  <path d="M13.82 18c-2.1 0-3.82-1.71-3.82-3.82s1.71-3.81 3.82-3.81c1.02 0 1.98.4 2.7 1.12.16.16.33.34.49.53v-.78c0-.28.22-.5.5-.5s.5.22.5.5v2.24c0 .08-.02.15-.06.21-.03.05-.07.1-.12.15a.45.45 0 0 1-.23.11c-.03 0-.06.02-.1 0h-2.21c-.28 0-.5-.22-.5-.5s.22-.5.5-.5h1.19c-.21-.26-.45-.54-.67-.75-.53-.53-1.24-.83-1.99-.83-1.55 0-2.82 1.26-2.82 2.81S12.26 17 13.82 17c.96 0 1.84-.48 2.36-1.28a.5.5 0 0 1 .69-.15c.23.15.3.46.15.69a3.8 3.8 0 0 1-3.2 1.74Z"/>
  <path d="M8.5 18h-2c-1.48 0-2.22 0-2.86-.33-.56-.28-1.02-.75-1.31-1.31C2 15.72 2 14.98 2 13.5v-7c0-1.48 0-2.22.33-2.86.29-.57.74-1.02 1.31-1.31C4.28 2 5.02 2 6.5 2h7c1.48 0 2.22 0 2.86.33.57.29 1.02.75 1.31 1.31.33.64.33 1.38.33 2.86v1.01c0 .28-.22.5-.5.5H8v9h.5c.28 0 .5.22.5.5s-.22.5-.5.5V18ZM3 8v5.5c0 1.32 0 1.98.22 2.41.19.37.5.68.87.87.43.22 1.09.22 2.41.22H7V8H3Zm4.5-1H17v-.5c0-1.32 0-1.98-.22-2.41-.19-.38-.5-.68-.87-.88-.43-.22-1.09-.22-2.41-.22h-7c-1.32 0-1.98 0-2.41.22-.38.19-.68.5-.87.87C3 4.51 3 5.17 3 6.49v.5h4.5V7Z"/>
</svg>
