<svg xmlns="http://www.w3.org/2000/svg" viewBox="0 0 20 20">
  <path d="M13.5 18h-7c-1.48 0-2.22 0-2.86-.33-.56-.28-1.02-.75-1.31-1.31C2 15.72 2 14.98 2 13.5v-7c0-1.48 0-2.22.33-2.86.29-.57.74-1.02 1.31-1.31C4.28 2 5.02 2 6.5 2h7c1.48 0 2.22 0 2.86.33.57.29 1.02.75 1.31 1.31.33.64.33 1.38.33 2.86v7c0 1.48 0 2.22-.33 2.86-.29.56-.75 1.03-1.31 1.31-.64.33-1.38.33-2.86.33ZM8 17h5.5c1.32 0 1.98 0 2.41-.22a2 2 0 0 0 .87-.88c.22-.43.22-1.09.22-2.41v-5.5H8V17ZM3 8v5.5c0 1.32 0 1.98.22 2.41.19.37.5.68.87.87.43.22 1.09.22 2.41.22H7V8H3Zm4.5-1H17v-.5c0-1.32 0-1.98-.22-2.41-.19-.38-.5-.68-.87-.88-.43-.22-1.09-.22-2.41-.22h-7c-1.32 0-1.98 0-2.41.22-.38.19-.68.5-.87.87C3 4.51 3 5.17 3 6.49v.5h4.5V7Z"/>
</svg>
