<svg xmlns="http://www.w3.org/2000/svg" viewBox="0 0 20 20">
  <path d="M17.5 18.01h-15c-.28 0-.5-.22-.5-.5s.22-.5.5-.5h15c.28 0 .5.22.5.5s-.22.5-.5.5Zm0-4.98H10c-.28 0-.5-.22-.5-.5s.22-.5.5-.5h7.5c.28 0 .5.22.5.5s-.22.5-.5.5Zm0-5H10c-.28 0-.5-.22-.5-.5s.22-.5.5-.5h7.5c.28 0 .5.22.5.5s-.22.5-.5.5Zm0-5.03h-15c-.28 0-.5-.22-.5-.5s.22-.5.5-.5h15c.28 0 .5.22.5.5s-.22.5-.5.5ZM2.92 13.93H2.9c-.28 0-.53-.13-.7-.35-.2-.25-.2-.54-.2-1.07V7.68c0-.53 0-.82.2-1.07a.89.89 0 0 1 .7-.35c.32.02.55.17.97.48l3.22 2.42c.29.21.48.36.57.6.08.21.08.45 0 .67-.09.24-.28.38-.57.6l-3.22 2.42c-.41.31-.64.48-.95.48ZM3 7.35v5.5c.07-.05.17-.13.26-.2l3.22-2.42c.06-.05.13-.1.18-.14-.05-.03-.12-.08-.18-.13L3.26 7.54c-.09-.07-.19-.14-.27-.2l.01.01Z"/>
</svg>
