<svg xmlns="http://www.w3.org/2000/svg" viewBox="0 0 20 20">
  <path d="M17.5 15.69H10c-.28 0-.5-.22-.5-.5s.22-.5.5-.5h7.5c.28 0 .5.22.5.5s-.22.5-.5.5Zm0-5.33H10c-.28 0-.5-.22-.5-.5s.22-.5.5-.5h7.5c.28 0 .5.22.5.5s-.22.5-.5.5Zm0-5.36H10c-.28 0-.5-.22-.5-.5s.22-.5.5-.5h7.5c.28 0 .5.22.5.5s-.22.5-.5.5ZM6.33 14.35a.47.47 0 0 1-.35-.15l-3.72-3.72A.9.9 0 0 1 2 9.84a.9.9 0 0 1 .26-.64l3.72-3.71c.2-.2.51-.2.71 0 .2.2.2.51 0 .71L3.04 9.85l3.65 3.65c.2.2.2.51 0 .71-.1.1-.23.15-.35.15l-.01-.01Z"/>
</svg>
