<svg xmlns="http://www.w3.org/2000/svg" viewBox="0 0 20 20">
  <path d="M5.5 6.04c-.28 0-.5.22-.5.5s.22.5.5.5h3.99c.28 0 .5-.22.5-.5s-.22-.5-.5-.5H5.5Zm2 3h-2c-.28 0-.5.22-.5.5s.22.5.5.5h2c.28 0 .5-.22.5-.5s-.22-.5-.5-.5Z"/>
  <path d="M6.48 17H6.1c-1.18 0-1.77 0-2.14-.19-.33-.17-.6-.43-.76-.77-.19-.37-.19-.97-.19-2.14V6.1c0-1.18 0-1.77.19-2.14.17-.33.43-.6.77-.76.37-.19.97-.19 2.14-.19h4.8c1.18 0 1.77 0 2.14.19.33.17.6.43.76.76.16.31.19.77.19 1.69 0 .28.22.5.5.5s.5-.23.5-.5c0-.97-.03-1.6-.3-2.13a2.73 2.73 0 0 0-1.2-1.2c-.59-.3-1.26-.3-2.6-.3H6.1c-1.34 0-2.01 0-2.6.3-.52.24-.94.66-1.2 1.18C2 4.09 2 4.76 2 6.1v7.8c0 1.34 0 2.01.3 2.6.27.52.68.94 1.2 1.2.59.3 1.26.3 2.6.3h.38c.28 0 .5-.22.5-.5s-.22-.5-.5-.5Z"/>
  <path d="m17.86 15.77-1.98-1.98 1.31-1.31c.56-.56.56-1.48 0-2.04l-2-2c-.56-.56-1.48-.56-2.04 0l-3.34 3.34c-.56.56-.56 1.48 0 2.04l2 2c.56.56 1.48.56 2.04 0l1.32-1.32 1.98 1.98c.2.2.51.2.71 0 .2-.2.2-.51 0-.71Zm-4.01-6.64c.17-.17.46-.17.63 0l2 2c.17.17.17.46 0 .63l-1.99 1.99-2.63-2.63 1.99-1.99Zm-1.34 5.97-2-2a.453.453 0 0 1 0-.63l.64-.64 2.63 2.63-.64.64c-.17.17-.46.17-.63 0Zm-.68 1.9H9.5c-.28 0-.5.22-.5.5s.22.5.5.5h2.33c.28 0 .5-.22.5-.5s-.22-.5-.5-.5Z"/>
</svg>
