<svg xmlns="http://www.w3.org/2000/svg" viewBox="0 0 20 20">
  <path d="m3.3 4.77-.45-.45c-.2-.2-.51-.2-.71 0-.2.2-.2.51 0 .71l.45.45a.485.485 0 0 0 .7 0c.2-.2.2-.51 0-.71h.01Zm4.53-1.02c.28 0 .5-.22.5-.5V2.5c0-.28-.22-.5-.5-.5s-.5.22-.5.5v.75c0 .28.22.5.5.5Zm4.87 1.87c.13 0 .26-.05.35-.15l.45-.45c.2-.2.2-.51 0-.71-.2-.2-.51-.2-.71 0l-.45.45c-.2.2-.2.51 0 .71.1.1.23.15.35.15h.01ZM6.57 15.87c.31.13.65.13 1.25.13.3 0 .53 0 .71-.01.27-.02.48-.26.46-.54a.491.491 0 0 0-.54-.46c-.14.01-.32.01-.55.01-.46 0-.81 0-.95-.05a.707.707 0 0 1-.38-.38c-.05-.13-.05-.41-.05-.87v-.4c0-.19-.11-.37-.29-.45a3.719 3.719 0 0 1-2.11-3.34c0-2.04 1.66-3.7 3.7-3.7.55 0 1.09.12 1.59.36a.504.504 0 0 0 .43-.91c-.63-.3-1.31-.45-2.01-.45-2.6-.02-4.71 2.09-4.71 4.69 0 1.7.93 3.27 2.4 4.1v.1c0 .6 0 .94.13 1.25.17.42.51.75.92.92Zm2.76 1.12h-3c-.28 0-.5.22-.5.5s.22.5.5.5h3c.28 0 .5-.22.5-.5s-.22-.5-.5-.5Z"/>
  <path d="m15.15 15.29.27-.82c.03-.02.06-.03.09-.05l.83.17c.44.09.88-.12 1.1-.49l.42-.73c.23-.39.17-.87-.12-1.2l-.56-.62v-.12l.56-.62c.3-.34.34-.82.13-1.2l-.42-.72c-.22-.37-.65-.58-1.1-.49l-.83.17a.405.405 0 0 0-.09-.05l-.27-.81c-.14-.42-.54-.7-.98-.7h-.83c-.45 0-.84.29-.98.7l-.27.82c-.03.02-.06.03-.09.05l-.83-.17c-.44-.09-.88.12-1.1.49l-.42.73c-.23.39-.17.87.12 1.2l.56.62v.12l-.56.62c-.3.34-.34.82-.13 1.2l.42.72c.22.38.65.59 1.1.5l.83-.17s.06.04.09.05l.27.81c.14.42.54.7.98.7h.83c.45 0 .84-.29.98-.7m1.44-1.71s-.01.02-.02.02h-.01l-1.02-.21c-.14-.03-.28 0-.39.08-.11.08-.22.14-.34.2-.12.06-.22.16-.26.29l-.33.98s0 .02-.02.02h-.87l-.01-.02-.33-.99a.478.478 0 0 0-.24-.28c-.14-.07-.26-.14-.37-.22a.512.512 0 0 0-.38-.08l-1.02.21h-.02s-.01 0-.02-.02l-.41-.71v-.03l.69-.78c.09-.1.13-.23.13-.37v-.42c0-.13-.04-.27-.13-.37l-.69-.78v-.03l.41-.72s.01-.02.02-.02h.01l1.02.21c.14.03.28 0 .39-.08.11-.08.22-.14.34-.2l.26-.29.33-.98s0-.02.02-.02h.87s.01 0 .01.02l.33.99c.04.12.13.23.24.28.14.07.26.14.37.22.11.08.25.1.38.08l1.02-.21h.02s.01 0 .02.02l.41.71v.03l-.69.78a.54.54 0 0 0-.13.37v.42c0 .13.04.27.13.37l.69.77v.03l-.41.72v.01Z"/>
  <path d="M13.76 9.64c-1.01 0-1.84.82-1.84 1.84s.82 1.84 1.84 1.84 1.84-.82 1.84-1.84-.82-1.84-1.84-1.84Zm0 2.67c-.46 0-.84-.37-.84-.84s.37-.84.84-.84.84.37.84.84-.37.84-.84.84Z"/>
</svg>
