<svg xmlns="http://www.w3.org/2000/svg" viewBox="0 0 20 20">
  <path d="M17.5 10.5h-.75c-.28 0-.5-.22-.5-.5s.22-.5.5-.5h.75c.28 0 .5.22.5.5s-.22.5-.5.5Zm-14.25 0H2.5c-.28 0-.5-.22-.5-.5s.22-.5.5-.5h.75c.28 0 .5.22.5.5s-.22.5-.5.5Zm11.63-4.88a.47.47 0 0 1-.35-.15c-.2-.2-.2-.51 0-.71l.45-.45c.2-.2.51-.2.71 0 .2.2.2.51 0 .71l-.45.45c-.1.1-.23.15-.35.15h-.01Zm-9.76 0a.47.47 0 0 1-.35-.15l-.45-.45c-.2-.2-.2-.51 0-.71.2-.2.51-.2.71 0l.45.45c.2.2.2.51 0 .71-.1.1-.23.15-.35.15h-.01ZM10 3.75c-.28 0-.5-.22-.5-.5V2.5c0-.28.22-.5.5-.5s.5.22.5.5v.75c0 .28-.22.5-.5.5ZM11.5 18h-3c-.28 0-.5-.22-.5-.5s.22-.5.5-.5h3c.28 0 .5.22.5.5s-.22.5-.5.5ZM10 16.21c-.61 0-.94 0-1.25-.13-.42-.17-.74-.5-.92-.92-.13-.31-.13-.65-.13-1.25v-.1c-1.47-.83-2.4-2.4-2.4-4.1 0-2.59 2.11-4.7 4.7-4.7 2.59 0 4.7 2.11 4.7 4.7 0 1.7-.93 3.27-2.4 4.1v.1c0 .6 0 .94-.13 1.25-.17.42-.5.75-.92.92-.31.13-.65.13-1.25.13ZM10 6C7.96 6 6.3 7.66 6.3 9.7c0 1.42.83 2.73 2.11 3.34.17.08.29.26.29.45v.4c0 .46 0 .74.05.87.07.17.21.3.38.38.13.05.41.05.87.05s.74 0 .87-.05c.18-.07.31-.21.38-.38.05-.13.05-.41.05-.87v-.4c0-.19.11-.37.29-.45A3.719 3.719 0 0 0 13.7 9.7C13.7 7.66 12.04 6 10 6Z"/>
</svg>
