<svg xmlns="http://www.w3.org/2000/svg" viewBox="0 0 20 20">
  <path d="M11.87 18H8.12c-.28 0-.5-.22-.5-.5s.22-.5.5-.5h3.75c.28 0 .5.22.5.5s-.22.5-.5.5ZM10 15.75c-.76 0-1.15 0-1.52-.15-.49-.2-.88-.59-1.08-1.08-.15-.37-.15-.75-.15-1.52v-.2c-1.83-1-3-2.95-3-5.05C4.25 4.58 6.83 2 10 2s5.75 2.58 5.75 5.75c0 2.1-1.17 4.05-3 5.05v.2c0 .76 0 1.15-.15 1.51-.21.5-.59.88-1.08 1.08-.37.15-.75.15-1.51.15l-.01.01ZM10 3C7.38 3 5.25 5.13 5.25 7.75c0 1.82 1.07 3.51 2.71 4.29.17.08.29.26.29.45v.5c0 .61 0 .95.08 1.13.1.25.29.44.54.54.18.08.52.08 1.13.08.61 0 .95 0 1.13-.08.25-.1.44-.29.54-.54.08-.18.08-.52.08-1.13v-.5c0-.19.11-.37.29-.45a4.766 4.766 0 0 0 2.71-4.29C14.75 5.13 12.62 3 10 3Z"/>
  <path d="M10.28 11.5a.494.494 0 0 1-.43-.74L10.83 9H8.35c-.18 0-.34-.09-.43-.25a.497.497 0 0 1 0-.5l1.39-2.5c.13-.24.44-.33.68-.19.24.13.33.44.19.68L9.2 8h2.48c.18 0 .34.09.43.25.09.15.09.34 0 .5l-1.39 2.5c-.09.16-.26.26-.44.26v-.01Z"/>
</svg>
