<svg xmlns="http://www.w3.org/2000/svg" viewBox="0 0 20 20">
  <path d="M17.51 18H3.84c-.53 0-.82 0-1.11-.15-.25-.13-.45-.33-.58-.58-.15-.28-.15-.58-.15-1.1V2.5c.01-.28.23-.5.51-.5s.5.22.5.5v13.67c0 .31 0 .58.04.65.03.06.08.11.15.15.07.04.34.04.65.04h13.67c.28 0 .5.22.5.5s-.22.5-.5.5l-.01-.01ZM5.84 14c-.1 0-.21-.03-.29-.1a.507.507 0 0 1-.11-.7l3.27-4.49c.19-.2.29-.32.46-.39.14-.07.3-.09.46-.08.16.01.29.07.42.14.01 0 .09.05.1.05.02.01.06.04.09.06l.08.07 2.57 2.28s.05.03.09.05c.02-.02.05-.05.08-.09l3.23-4.44c.16-.22.48-.27.7-.11.22.16.27.48.11.7l-3.27 4.49c-.19.21-.29.32-.46.39a.91.91 0 0 1-.87-.06s-.08-.04-.09-.05a.349.349 0 0 1-.09-.06s-.08-.06-.09-.07L9.66 9.31s-.05-.03-.09-.05c-.02.02-.05.05-.08.09l-3.23 4.44c-.1.13-.25.21-.4.21h-.02Z"/>
</svg>
