<svg xmlns="http://www.w3.org/2000/svg" viewBox="0 0 20 20">
  <path d="M6.56 18c-1.17 0-2.33-.44-3.22-1.33a4.531 4.531 0 0 1-1.33-3.22c0-1.21.47-2.36 1.33-3.22l1.15-1.15c.2-.2.51-.2.71 0 .2.2.2.51 0 .71l-1.15 1.15a3.565 3.565 0 0 0 0 5.03 3.555 3.555 0 0 0 5.03 0l1.15-1.15c.2-.2.51-.2.71 0 .2.2.2.51 0 .71l-1.15 1.15c-.89.89-2.06 1.33-3.22 1.33L6.56 18Zm.6-4.66a.47.47 0 0 1-.35-.15c-.2-.2-.2-.51 0-.71l5.68-5.68c.2-.2.51-.2.71 0 .2.2.2.51 0 .71l-5.68 5.68c-.1.1-.23.15-.35.15h-.01Zm8-2.27a.47.47 0 0 1-.35-.15c-.2-.2-.2-.51 0-.71l1.15-1.15C16.63 8.39 17 7.49 17 6.54s-.37-1.84-1.04-2.52a3.555 3.555 0 0 0-5.03 0L9.78 5.17c-.2.2-.51.2-.71 0-.2-.2-.2-.51 0-.71l1.15-1.15c1.78-1.78 4.67-1.78 6.44 0 .86.86 1.33 2.01 1.33 3.22 0 1.21-.47 2.36-1.33 3.22l-1.15 1.15c-.1.1-.23.15-.35.15v.02Z"/>
</svg>
