<svg xmlns="http://www.w3.org/2000/svg" viewBox="0 0 20 20">
  <path d="M10.836 9.67a.47.47 0 0 1-.35-.15c-.2-.2-.2-.51 0-.71L16.296 3h-3.79c-.28 0-.5-.22-.5-.5s.22-.5.5-.5h5c.07 0 .14.01.2.04.05.02.1.05.14.09 0 0 .02.01.02.02.04.04.07.09.09.15.03.06.04.13.04.2v5c0 .28-.22.5-.5.5s-.5-.22-.5-.5V3.71l-5.81 5.81c-.1.1-.23.15-.35.15Z"/>
  <path d="M11.506 18h-5c-1.48 0-2.22 0-2.86-.33-.57-.29-1.02-.74-1.31-1.31-.33-.64-.33-1.38-.33-2.86V8.49c0-1.48 0-2.22.33-2.86.29-.57.74-1.02 1.31-1.31.64-.33 1.38-.33 2.86-.33h1.83c.28 0 .5.22.5.5s-.22.5-.5.5h-1.83c-1.32 0-1.98 0-2.41.22-.38.19-.68.49-.87.87-.22.43-.22 1.09-.22 2.41v5.01c0 1.32 0 1.98.22 2.41.19.38.49.68.87.87.43.22 1.09.22 2.41.22h5c1.32 0 1.98 0 2.41-.22.38-.19.68-.5.87-.87.22-.43.22-1.09.22-2.41v-1.83c0-.28.22-.5.5-.5s.5.22.5.5v1.83c0 1.48 0 2.22-.33 2.86-.29.57-.74 1.02-1.31 1.31-.64.33-1.38.33-2.86.33Z"/>
</svg>
