<svg xmlns="http://www.w3.org/2000/svg" viewBox="0 0 20 20">
  <g clip-path="url(#list-bullet__a)">
    <path d="M3.33 16.335c-.73 0-1.33-.6-1.33-1.33 0-.73.6-1.33 1.33-1.33.73 0 1.33.6 1.33 1.33 0 .73-.6 1.33-1.33 1.33Zm14.17-.84h-10c-.28 0-.5-.22-.5-.5s.22-.5.5-.5h10c.28 0 .5.22.5.5s-.22.5-.5.5Zm-14.17-4.16c-.73 0-1.33-.6-1.33-1.33 0-.73.6-1.33 1.33-1.33.73 0 1.33.6 1.33 1.33 0 .73-.6 1.33-1.33 1.33Zm14.17-.84h-10c-.28 0-.5-.22-.5-.5s.22-.5.5-.5h10c.28 0 .5.22.5.5s-.22.5-.5.5ZM3.33 6.335c-.73 0-1.33-.6-1.33-1.33 0-.73.6-1.34 1.33-1.34.73 0 1.33.6 1.33 1.33 0 .73-.6 1.33-1.33 1.33v.01Zm14.17-.84h-10c-.28 0-.5-.22-.5-.5s.22-.5.5-.5h10c.28 0 .5.22.5.5s-.22.5-.5.5Z"/>
  </g>
  <defs>
    <clipPath id="list-bullet__a">
      <path d="M2 3.665h16v12.67H2z"/>
    </clipPath>
  </defs>
</svg>
