<svg xmlns="http://www.w3.org/2000/svg" viewBox="0 0 20 20">
  <path d="M5.83 17.33H2.5c-.21 0-.4-.13-.47-.32a.496.496 0 0 1 .14-.55l2.84-2.49c.2-.18.32-.43.32-.7 0-.51-.42-.93-.93-.93h-.23c-.53 0-1 .36-1.13.87-.07.27-.34.43-.61.36a.498.498 0 0 1-.36-.61 2.17 2.17 0 0 1 2.1-1.63h.23c1.07 0 1.93.87 1.93 1.93 0 .56-.24 1.09-.66 1.45l-1.84 1.61h2c.28 0 .5.22.5.5s-.22.5-.5.5v.01Zm11.67-1.66H8.33c-.28 0-.5-.22-.5-.5s.22-.5.5-.5h9.17c.28 0 .5.22.5.5s-.22.5-.5.5Zm0-5H8.33c-.28 0-.5-.22-.5-.5s.22-.5.5-.5h9.17c.28 0 .5.22.5.5s-.22.5-.5.5ZM2.5 9c-.28 0-.5-.22-.5-.5s.22-.5.5-.5h1.17V4.31l-.94.47c-.25.12-.55.02-.67-.22a.508.508 0 0 1 .22-.67l1.66-.84a.504.504 0 0 1 .73.45V8h1.17c.28 0 .5.22.5.5s-.22.5-.5.5H2.5Zm15-3.33H8.33c-.28 0-.5-.23-.5-.5s.22-.5.5-.5h9.17c.28 0 .5.23.5.5s-.22.5-.5.5Z"/>
</svg>
