<svg xmlns="http://www.w3.org/2000/svg" viewBox="0 0 20 20">
  <path d="M10 10.88c-1.52 0-2.75-1.23-2.75-2.75S8.48 5.38 10 5.38s2.75 1.23 2.75 2.75-1.23 2.75-2.75 2.75Zm0-4.5c-.96 0-1.75.79-1.75 1.75S9.04 9.88 10 9.88s1.75-.79 1.75-1.75-.79-1.75-1.75-1.75Z"/>
  <path d="M10 18c-.19 0-.36-.11-.45-.28-.53-1.07-1.49-2-2.5-3C5.3 13 3.5 11.23 3.5 8.5 3.5 4.92 6.42 2 10 2s6.5 2.92 6.5 6.5c0 2.73-1.81 4.51-3.55 6.22-1.01 1-1.97 1.93-2.5 3A.5.5 0 0 1 10 18Zm0-15a5.51 5.51 0 0 0-5.5 5.5c0 2.31 1.65 3.94 3.25 5.51.81.79 1.63 1.61 2.25 2.51.61-.9 1.44-1.72 2.25-2.51 1.6-1.57 3.25-3.2 3.25-5.51C15.5 5.47 13.03 3 10 3Z"/>
</svg>
