<svg xmlns="http://www.w3.org/2000/svg" viewBox="0 0 20 20">
  <path d="M15.15 18c-.51 0-1.15-.08-2.03-.2l-5.2-.69c-.3-.04-.45-.06-.58-.09a2.853 2.853 0 0 1-2.18-2.49c-.01-.13-.01-.28-.01-.59 0-.28.22-.5.5-.5s.5.22.5.5v.49c.08.78.65 1.44 1.42 1.62.11.03.23.04.48.07l5.19.69c1.39.19 2.09.28 2.54.1.4-.16.73-.45.94-.82.24-.42.24-1.13.24-2.53V6.45c0-1.4 0-2.1-.24-2.53-.21-.37-.54-.66-.94-.82-.45-.18-1.15-.09-2.53.1l-5.2.69c-.25.03-.37.05-.48.07-.77.18-1.34.83-1.42 1.62-.01.11 0 .23 0 .48 0 .28-.22.5-.5.5s-.5-.22-.5-.5c0-.3 0-.45.01-.58.12-1.21 1-2.21 2.18-2.49.13-.03.28-.05.58-.09l5.19-.7c1.56-.21 2.35-.31 3.04-.04.61.24 1.12.69 1.44 1.26.37.65.37 1.44.37 3.02v7.11c0 1.57 0 2.37-.37 3.02a2.86 2.86 0 0 1-1.44 1.26c-.3.12-.61.17-1 .17Zm-4.78-4.35a.47.47 0 0 1-.35-.15c-.2-.2-.2-.51 0-.71l2.29-2.29H3.5c-.28 0-.5-.22-.5-.5s.22-.5.5-.5h8.81l-2.29-2.3c-.2-.2-.2-.51 0-.71.2-.2.51-.2.71 0l3.15 3.15c.05.05.09.11.11.17.02.05.03.11.04.17v.04c0 .06-.01.12-.04.17-.02.06-.06.12-.11.17l-3.15 3.15c-.1.1-.23.15-.35.15l-.01-.01Z"/>
</svg>
