<svg xmlns="http://www.w3.org/2000/svg" viewBox="0 0 20 20">
  <path d="M9.5 18h-3c-1.48 0-2.22 0-2.86-.33-.57-.29-1.02-.74-1.31-1.31C2 15.72 2 14.98 2 13.5v-7c0-1.48 0-2.22.33-2.86.29-.57.74-1.02 1.31-1.31C4.28 2 5.02 2 6.5 2h3c.28 0 .5.22.5.5s-.22.5-.5.5h-3c-1.32 0-1.98 0-2.41.22-.38.19-.68.5-.87.87C3 4.52 3 5.18 3 6.5v7c0 1.32 0 1.98.22 2.41.19.38.5.68.87.87.43.22 1.09.22 2.41.22h3c.28 0 .5.22.5.5s-.22.5-.5.5Zm3.83-3.33a.47.47 0 0 1-.35-.15c-.2-.2-.2-.51 0-.71l3.31-3.31H7.5c-.28 0-.5-.22-.5-.5s.22-.5.5-.5h8.79l-3.31-3.31c-.2-.2-.2-.51 0-.71.2-.2.51-.2.71 0l4.17 4.17.01.01s.07.1.1.15c.02.06.04.12.04.19s-.01.13-.04.19c-.02.05-.05.1-.1.15l-.01.01-4.17 4.17c-.1.1-.23.15-.35.15h-.01Z"/>
</svg>
