<svg xmlns="http://www.w3.org/2000/svg" viewBox="0 0 20 20">
  <path d="M5.86 14c-1.25 0-1.88 0-2.44-.28-.49-.25-.89-.64-1.14-1.12C2 12.05 2 11.43 2 10.19V5.82c0-1.24 0-1.86.28-2.41.25-.49.64-.88 1.14-1.12.56-.28 1.18-.28 2.44-.28h7.28c1.25 0 1.88 0 2.44.28.49.25.89.64 1.14 1.12.28.55.28 1.17.28 2.41v1.35c0 .28-.22.5-.5.5s-.5-.22-.5-.5V4.84l-4.92 3.4c-.5.34-.77.53-1.11.61-.3.07-.62.07-.92 0-.34-.08-.61-.27-1.1-.61l-4.94-3.4v5.35c0 1.08 0 1.62.17 1.95.15.3.4.54.7.69.34.17.89.17 1.99.17h.84c.28 0 .5.22.5.5s-.22.5-.5.5h-.85ZM3.22 3.77 8.5 7.42c.4.28.62.43.78.47.14.04.29.04.44 0 .16-.04.38-.19.77-.46l5.29-3.65a1.57 1.57 0 0 0-.65-.6c-.34-.17-.89-.17-1.99-.17H5.86c-1.1 0-1.65 0-1.99.17-.27.14-.5.34-.65.6v-.01Z"/>
  <path d="M14 18.04c-.87 0-1.58-.71-1.58-1.58 0-.28.22-.5.5-.5s.5.22.5.5a.58.58 0 0 0 1.16 0c0-.28.22-.5.5-.5s.5.22.5.5c0 .87-.71 1.58-1.58 1.58Zm-2.96-2.15c-.57 0-1.04-.47-1.04-1.04v-.22c0-.33.13-.65.36-.89l.7-.7v-1.16c0-1.61 1.32-2.93 2.94-2.93 1.62 0 2.93 1.31 2.93 2.93v1.13l.71.73c.24.24.37.55.37.89v.22c0 .56-.45 1.02-1 1.04h-5.97ZM14 9.96c-1.06 0-1.93.86-1.93 1.93v1.13c0 .28-.11.54-.3.74l-.7.7s-.07.1-.07.19v.22l5.96.04.04-.26c0-.08-.02-.14-.07-.19l-.7-.7c-.2-.21-.3-.47-.3-.74v-1.13c0-1.06-.86-1.93-1.93-1.93Z"/>
</svg>
