<svg xmlns="http://www.w3.org/2000/svg" viewBox="0 0 20 20">
  <path d="M17.5 18.01c-.28 0-.5-.22-.5-.5 0-.54 0-.84-.05-1.02-.12-.4-.43-.71-.83-.83-.18-.05-.48-.05-1.02-.05h-2.19c-.54 0-.84 0-1.02.05-.4.12-.71.43-.83.83-.05.18-.05.48-.05 1.02 0 .28-.22.5-.5.5s-.5-.22-.5-.5c0-.66 0-.99.1-1.31.22-.72.78-1.28 1.5-1.5.32-.1.65-.1 1.31-.1h2.19c.66 0 .99 0 1.31.1.72.22 1.28.78 1.5 1.5.1.32.1.65.1 1.31 0 .28-.22.5-.5.5h-.02ZM14 14.07c-1.36 0-2.47-1.11-2.47-2.47S12.64 9.13 14 9.13s2.47 1.11 2.47 2.47-1.11 2.47-2.47 2.47Zm0-3.94c-.81 0-1.47.66-1.47 1.47 0 .81.66 1.47 1.47 1.47.81 0 1.47-.66 1.47-1.47 0-.81-.66-1.47-1.47-1.47Z"/>
  <path d="M6.7 14h-.84c-1.25 0-1.88 0-2.44-.28-.49-.25-.89-.64-1.14-1.12C2 12.05 2 11.43 2 10.19V5.82c0-1.24 0-1.86.28-2.41.25-.49.64-.87 1.14-1.12.56-.28 1.18-.28 2.44-.28h7.28c1.25 0 1.88 0 2.44.28.49.25.89.64 1.14 1.12.28.55.28 1.17.28 2.41v1.35c0 .28-.22.5-.5.5s-.5-.22-.5-.5V4.84l-4.92 3.4c-.5.34-.77.53-1.11.62-.3.07-.61.07-.92 0-.34-.08-.61-.27-1.11-.61L3.01 4.84v5.35c0 1.08 0 1.62.17 1.96.15.29.4.54.7.69.34.17.89.17 1.99.17h.84c.28 0 .5.22.5.5s-.22.5-.5.5L6.7 14ZM3.22 3.77 8.5 7.42c.4.28.62.43.78.47.14.04.3.04.44 0 .16-.04.38-.19.78-.47l5.28-3.65a1.57 1.57 0 0 0-.65-.6C14.79 3 14.24 3 13.14 3H5.86c-1.1 0-1.65 0-1.99.17-.27.14-.5.34-.65.6Z"/>
</svg>
