<svg xmlns="http://www.w3.org/2000/svg" viewBox="0 0 20 20">
  <path d="M6.7 14h-.84c-1.25 0-1.88 0-2.44-.28-.49-.25-.89-.64-1.14-1.12C2 12.05 2 11.43 2 10.19V5.82c0-1.24 0-1.86.28-2.41.25-.49.65-.88 1.14-1.12.56-.28 1.18-.28 2.44-.28h7.28c1.25 0 1.88 0 2.44.28.49.25.89.64 1.14 1.12.28.55.28 1.17.28 2.41v1.35c0 .28-.22.5-.5.5s-.5-.22-.5-.5V4.84l-4.92 3.4c-.5.34-.77.53-1.11.62-.3.07-.62.07-.92 0-.34-.08-.61-.27-1.11-.62l-4.93-3.4v5.35c0 1.08 0 1.62.17 1.96.15.3.4.54.7.69.34.17.89.17 1.99.17h.84c.28 0 .5.22.5.5s-.22.5-.5.5L6.7 14ZM3.22 3.77 8.5 7.42c.4.28.62.43.78.47.14.04.29.04.44 0 .16-.04.38-.19.78-.47l5.28-3.65a1.57 1.57 0 0 0-.65-.6C14.79 3 14.24 3 13.14 3H5.86c-1.1 0-1.65 0-1.99.17-.27.14-.5.34-.65.6Z"/>
  <path d="M13.55 18.03c-2.23 0-4.05-1.82-4.05-4.05 0-2.23 1.82-4.05 4.05-4.05 1.08 0 2.1.42 2.87 1.19.19.19.39.41.58.64v-.93c0-.28.22-.5.5-.5s.5.22.5.5v2.39c0 .08-.02.15-.06.21-.03.05-.07.1-.11.14-.07.06-.15.1-.24.11 0 0-.06.02-.09 0h-2.37c-.28 0-.5-.22-.5-.5s.22-.5.5-.5h1.35c-.24-.29-.52-.62-.77-.87-.58-.58-1.34-.9-2.16-.9-1.68 0-3.05 1.37-3.05 3.05 0 1.68 1.37 3.05 3.05 3.05.93 0 1.81-.42 2.39-1.15.17-.22.49-.25.7-.08.22.17.25.49.08.7-.77.97-1.93 1.53-3.17 1.53v.02Z"/>
</svg>
