<svg xmlns="http://www.w3.org/2000/svg" viewBox="0 0 20 20">
  <path d="M13.9 16H6.1c-1.34 0-2.01 0-2.6-.3-.52-.26-.94-.67-1.2-1.19-.3-.58-.3-1.25-.3-2.57V7.05c0-1.32 0-1.99.3-2.57.27-.51.68-.92 1.2-1.18C4.09 3 4.76 3 6.1 3h7.8c1.34 0 2.01 0 2.6.29.52.26.94.67 1.2 1.19.3.58.3 1.25.3 2.57v4.89c0 1.32 0 1.99-.3 2.57-.27.52-.68.93-1.2 1.19-.59.3-1.26.3-2.6.3ZM3.01 5.94C3 6.24 3 6.6 3 7.05v4.89c0 1.16 0 1.74.19 2.11.17.33.43.59.76.75.38.19.97.19 2.15.19h7.8c1.18 0 1.77 0 2.15-.19.33-.17.6-.43.76-.75.19-.37.19-.95.19-2.11V7.05c0-.45 0-.81-.01-1.11l-5.33 3.68c-.53.36-.82.56-1.18.65-.32.08-.65.08-.96 0-.36-.09-.65-.29-1.18-.66L3.01 5.94Zm.22-1.07 5.68 3.92c.46.32.67.46.85.51.16.04.33.04.49 0 .18-.04.4-.2.85-.51l5.68-3.92a1.8 1.8 0 0 0-.73-.69c-.37-.19-.97-.19-2.15-.19H6.1c-1.18 0-1.77 0-2.15.19-.31.16-.56.39-.73.69h.01Z"/>
</svg>
