<svg xmlns="http://www.w3.org/2000/svg" viewBox="0 0 20 20">
  <path d="M6.16 18c-.28 0-.54-.12-.71-.34-.2-.25-.2-.54-.2-1.07v-1.4c-.48 0-.79-.02-1.07-.1a2.952 2.952 0 0 1-2.08-2.08c-.1-.37-.1-.77-.1-1.57V6.4c0-1.44 0-2.17.32-2.8.28-.56.73-1 1.28-1.28C4.23 2 4.95 2 6.4 2h7.2c1.44 0 2.17 0 2.8.32.56.28 1 .73 1.28 1.28.32.63.32 1.35.32 2.8v4.39c0 1.44 0 2.17-.32 2.8-.28.56-.73 1-1.28 1.28-.63.32-1.35.32-2.8.32h-2.42c-.47 0-.71 0-.9.04-.17.04-.33.09-.49.17-.17.09-.35.23-.71.51l-1.96 1.57c-.41.33-.64.52-.96.52ZM6.4 3c-1.28 0-1.93 0-2.34.21-.37.19-.66.48-.85.85C3 4.47 3 5.12 3 6.4v5.04c0 .71 0 1.07.07 1.31.18.67.7 1.19 1.37 1.37.25.07.6.07 1.31.07.28 0 .5.22.5.5v2.21c.07-.06.16-.13.24-.2l1.94-1.55c.42-.34.64-.51.9-.64.23-.12.48-.21.74-.26.3-.06.58-.06 1.11-.06h2.42c1.28 0 1.93 0 2.34-.21.37-.19.66-.48.85-.85.21-.41.21-1.06.21-2.34V6.4c0-1.28 0-1.93-.21-2.34a1.94 1.94 0 0 0-.85-.85C15.52 3 14.88 3 13.6 3H6.4Zm5.94 7.01h-6.5c-.28 0-.5-.22-.5-.5s.22-.5.5-.5h6.5c.28 0 .5.22.5.5s-.22.5-.5.5ZM9.9 7.02H5.84c-.28 0-.5-.22-.5-.5s.22-.5.5-.5H9.9c.28 0 .5.22.5.5s-.22.5-.5.5Z"/>
</svg>
