<svg xmlns="http://www.w3.org/2000/svg" viewBox="0 0 20 20">
  <path d="M15 8c-.77 0-1.54-.29-2.12-.88a3 3 0 0 1 0-4.24 3 3 0 0 1 4.24 0A3 3 0 0 1 15 8Zm0-5c-.51 0-1.02.19-1.41.58-.78.78-.78 2.05 0 2.83.78.78 2.05.78 2.83 0 .78-.78.78-2.05 0-2.83-.39-.39-.9-.58-1.41-.58H15Zm-3 8H5.5c-.28 0-.5-.22-.5-.5s.22-.5.5-.5H12c.28 0 .5.22.5.5s-.22.5-.5.5Zm-2 3H5.5c-.28 0-.5-.22-.5-.5s.22-.5.5-.5H10c.28 0 .5.22.5.5s-.22.5-.5.5Z"/>
  <path d="M12.55 18H6.46c-1.46 0-2.2 0-2.83-.32-.56-.29-1.01-.74-1.3-1.3-.32-.64-.32-1.37-.32-2.83V7.46c0-1.46 0-2.2.32-2.83.29-.56.74-1.01 1.3-1.3.63-.32 1.37-.32 2.83-.32h2.63c.28 0 .5.22.5.5s-.22.5-.5.5H6.46c-1.3 0-1.96 0-2.38.21-.37.19-.67.49-.86.86-.21.42-.21 1.07-.21 2.38v6.09c0 1.3 0 1.96.21 2.38.19.37.49.67.86.86.42.21 1.07.21 2.38.21h6.09c1.3 0 1.96 0 2.38-.21.37-.19.67-.49.86-.86.21-.42.21-1.07.21-2.38v-2.64c0-.28.22-.5.5-.5s.5.22.5.5v2.64c0 1.46 0 2.2-.32 2.83a2.97 2.97 0 0 1-1.3 1.3c-.64.32-1.37.32-2.83.32Z"/>
</svg>
