<svg xmlns="http://www.w3.org/2000/svg" viewBox="0 0 20 20">
  <path d="M15.25 18c-.1 0-.2-.03-.29-.09l-1.63-1.14c-.2-.14-.29-.21-.39-.25a.878.878 0 0 0-.23-.07c-.11-.02-.23-.02-.46-.02H10.9c-.92 0-1.38 0-1.81-.22-.38-.19-.68-.5-.87-.87C8 14.91 8 14.45 8 13.53v-.07l-1.45 1.47c-.4.4-.61.62-.94.65a.875.875 0 0 1-.73-.3c-.21-.25-.21-.56-.21-1.12v-1.17c0-.16-.16-.25-.32-.27a2.726 2.726 0 0 1-2.32-2.32C2 10.22 2 10.01 2 9.59V6.11c0-1.34 0-2.01.3-2.6.26-.53.68-.94 1.2-1.21C4.09 2 4.76 2 6.1 2h5.81c1.34 0 2.01 0 2.6.3.52.27.94.68 1.2 1.2.3.59.3 1.26.3 2.6v2.92c.37.02.64.07.9.21.37.19.68.5.87.87.22.43.22.89.22 1.81v1.78c0 .76 0 1.15-.15 1.52-.2.49-.59.88-1.08 1.08-.28.11-.56.14-1.02.15v1.07c0 .19-.1.36-.27.44-.07.04-.15.06-.23.06V18Zm-4.35-8c-.73 0-1.14 0-1.35.11-.19.09-.34.25-.44.44-.11.21-.11.62-.11 1.35v1.63c0 .74 0 1.14.11 1.35.1.19.25.34.44.44.21.11.62.11 1.35.11h1.35c.33 0 .49 0 .64.03.16.03.31.08.46.14.14.07.28.15.53.33l.86.6v-.61c0-.28.22-.5.5-.5.61 0 .95 0 1.13-.08.25-.1.44-.29.54-.54.08-.18.08-.52.08-1.13v-1.78c0-.73 0-1.14-.11-1.35a.986.986 0 0 0-.44-.44c-.22-.11-.62-.11-1.35-.11h-4.2l.01.01ZM6.1 3c-1.18 0-1.77 0-2.15.19-.33.17-.6.43-.76.76C3 4.33 3 4.92 3 6.1v3.48c0 .35 0 .52.02.67.11.77.71 1.37 1.48 1.48.68.1 1.17.63 1.17 1.26v1.41l.17-.17L8 12.04v-.14c0-.92 0-1.38.22-1.81.19-.38.5-.68.88-.87C9.53 9 9.99 9 10.91 9h4.11V6.1c0-1.18 0-1.77-.19-2.15-.17-.33-.43-.59-.76-.76C13.7 3 13.1 3 11.93 3H6.1Z"/>
  <path d="M5.51 6c-.28 0-.5-.22-.5-.5s.22-.5.5-.5h4.2c.28 0 .5.22.5.5s-.22.5-.5.5h-4.2Zm2.23 2H5.5c-.28 0-.5-.22-.5-.5s.22-.5.5-.5h2.24c.28 0 .5.22.5.5s-.22.5-.5.5Z"/>
</svg>
