<svg xmlns="http://www.w3.org/2000/svg" viewBox="0 0 20 20">
  <path d="M13.5 18h-1.83c-.28 0-.5-.22-.5-.5s.22-.5.5-.5h1.83c1.32 0 1.98 0 2.41-.22.38-.19.68-.5.87-.87.22-.43.22-1.09.22-2.41v-1.83c0-.28.22-.5.5-.5s.5.22.5.5v1.83c0 1.48 0 2.22-.33 2.86-.29.57-.74 1.02-1.31 1.31-.64.33-1.38.33-2.86.33Zm-11-9.17c-.28 0-.5-.22-.5-.5V6.5c0-1.48 0-2.22.33-2.86.29-.57.74-1.02 1.31-1.31C4.28 2 5.02 2 6.5 2h1.83c.28 0 .5.22.5.5s-.22.5-.5.5H6.5c-1.32 0-1.98 0-2.41.22-.38.19-.68.5-.87.87C3 4.52 3 5.18 3 6.5v1.83c0 .28-.22.5-.5.5Zm0 9.17a.47.47 0 0 1-.35-.15c-.2-.2-.2-.51 0-.71l4.15-4.15H2.5c-.28 0-.5-.22-.5-.5s.22-.5.5-.5h5.02c.06 0 .12.02.18.04.05.02.11.05.15.1l.02.02s.07.1.1.15c.02.05.04.11.04.18v5.02c0 .28-.22.5-.5.5s-.5-.22-.5-.5v-3.79l-4.16 4.14c-.1.1-.23.15-.35.15Zm10-10h-.02c-.06 0-.12-.02-.18-.04a.36.36 0 0 1-.15-.1l-.02-.02s-.07-.1-.1-.15a.478.478 0 0 1-.04-.18V2.5c0-.28.22-.5.5-.5s.5.22.5.5v3.79l4.16-4.14c.2-.2.51-.2.71 0 .2.2.2.51 0 .71l-4.15 4.15h3.79c.28 0 .5.22.5.5s-.22.5-.5.5h-5V8Z"/>
</svg>
