<svg xmlns="http://www.w3.org/2000/svg" viewBox="0 0 20 20">
  <path d="M2.5 18a.47.47 0 0 1-.35-.15c-.2-.2-.2-.51 0-.71l4.15-4.15H2.5c-.28 0-.5-.22-.5-.5s.22-.5.5-.5h5.02c.06 0 .12.02.18.04.05.02.11.05.15.1l.02.02s.07.1.1.15c.02.05.04.11.04.18v5.02c0 .28-.22.5-.5.5s-.5-.22-.5-.5v-3.79l-4.16 4.14c-.1.1-.23.15-.35.15Zm10-10h-.02c-.06 0-.12-.02-.18-.04a.36.36 0 0 1-.15-.1l-.02-.02s-.07-.1-.1-.15a.478.478 0 0 1-.04-.18V2.5c0-.28.22-.5.5-.5s.5.22.5.5v3.79l4.16-4.14c.2-.2.51-.2.71 0 .2.2.2.51 0 .71l-4.15 4.15h3.79c.28 0 .5.22.5.5s-.22.5-.5.5h-5V8Z"/>
</svg>
