<svg xmlns="http://www.w3.org/2000/svg" viewBox="0 0 20 20">
  <path d="M11.1 18H4.9c-.92 0-1.38 0-1.81-.22-.38-.19-.68-.49-.87-.87C2 16.48 2 16.02 2 15.1V4.9c0-.89 0-1.38.22-1.81.19-.38.5-.68.88-.87C3.53 2 3.99 2 4.91 2h6.2c.92 0 1.38 0 1.81.22.38.19.68.49.87.87.22.43.22.92.22 1.81v2.15c0 .28-.22.5-.5.5s-.5-.22-.5-.5V4.9c0-.74 0-1.14-.11-1.35-.1-.19-.25-.34-.44-.44C12.25 3 11.84 3 11.11 3h-.35v.32c0 .48 0 .75-.14 1.02-.12.24-.31.42-.54.55-.27.14-.53.14-1.02.14h-2.1c-.48 0-.75 0-1.02-.14a1.22 1.22 0 0 1-.55-.55c-.14-.27-.14-.53-.14-1.02V3H4.9c-.73 0-1.14 0-1.35.11-.19.1-.34.25-.44.44C3 3.76 3 4.17 3 4.9v10.2c0 .74 0 1.14.11 1.35.1.19.25.34.44.44.21.11.62.11 1.35.11h6.2c.74 0 1.14 0 1.35-.11.19-.1.34-.25.44-.44.11-.21.11-.62.11-1.35 0-.28.22-.5.5-.5s.5.22.5.5c0 .92 0 1.38-.22 1.81-.19.38-.5.68-.88.87-.43.22-.89.22-1.81.22h.01ZM6.25 3v.32c0 .25 0 .51.03.56.02.05.06.08.11.11s.31.03.56.03h2.1c.25 0 .51 0 .56-.03.05-.02.09-.06.11-.11.03-.05.03-.31.03-.56V3h-3.5Z"/>
  <path d="M8 15.8a.88.88 0 1 0 0-1.76.88.88 0 0 0 0 1.76Zm4-2.62c-.1 0-.2-.02-.29-.05-.21-.07-.34-.21-.54-.42l-2.04-2.17c-.19-.2-.18-.52.02-.71.2-.19.52-.18.71.02l2.03 2.17s.08.08.1.11c.02-.03.06-.06.1-.11l5.04-5.37c.19-.2.5-.21.71-.02.2.19.21.51.02.71l-5.03 5.37c-.2.21-.33.35-.54.42a.93.93 0 0 1-.29.05Z"/>
</svg>
