<svg xmlns="http://www.w3.org/2000/svg" viewBox="0 0 20 20">
  <path d="M13.1 18H6.9c-.92 0-1.38 0-1.81-.22-.38-.2-.68-.5-.88-.88-.22-.43-.22-.89-.22-1.81V4.9c0-.92 0-1.38.22-1.81.19-.38.5-.68.87-.88.43-.22.89-.22 1.81-.22h6.2c.92 0 1.38 0 1.81.22.38.19.68.5.87.88.22.43.22.89.22 1.81v10.2c0 .92 0 1.38-.22 1.81a2 2 0 0 1-.87.88c-.43.22-.89.22-1.81.22l.01-.01ZM6.9 3c-.73 0-1.14 0-1.35.11-.19.1-.34.25-.44.44C5 3.76 5 4.17 5 4.9v10.2c0 .74 0 1.14.11 1.35.1.19.25.34.44.44.21.11.62.11 1.35.11h6.2c.74 0 1.14 0 1.36-.11.19-.1.34-.25.44-.44.11-.21.11-.62.11-1.35V4.9c0-.74 0-1.14-.11-1.35-.1-.19-.25-.34-.44-.44C14.25 3 13.84 3 13.11 3h-.35v.32c0 .48 0 .75-.14 1.02-.12.24-.31.42-.55.55-.27.14-.53.14-1.02.14h-2.1c-.48 0-.75 0-1.02-.14a1.22 1.22 0 0 1-.55-.55c-.14-.27-.14-.53-.14-1.02V3h-.35.01Zm1.35.32c0 .25 0 .51.03.56.02.05.06.08.11.11s.31.03.56.03h2.1c.25 0 .51 0 .56-.03.05-.02.09-.06.11-.11.03-.05.03-.31.03-.57v-.32h-3.5v.33Z"/>
  <path d="M10 15.8a.88.88 0 1 0 0-1.76.88.88 0 0 0 0 1.76Z"/>
</svg>
