<svg xmlns="http://www.w3.org/2000/svg" viewBox="0 0 20 20">
  <path d="M17.84 8.24c-.15-.41-.4-.75-.71-.96-.39-.27-.83-.27-1.55-.27h-.91V5.18c0-1.01 0-1.52-.24-1.98a2.18 2.18 0 0 0-.95-.95c-.46-.24-.97-.24-1.98-.24H5.17c-1.01 0-1.52 0-1.98.24-.41.21-.74.54-.95.95C2 3.66 2 4.17 2 5.18v9.67c0 1.01 0 1.52.24 1.98.21.41.54.74.95.95.46.24.97.24 1.98.24h10.41c.73 0 1.17 0 1.55-.27.31-.22.55-.55.7-.96.16-.44.16-.94.16-1.93v-4.67c0-.99 0-1.49-.16-1.93l.01-.02Zm-14.2 8.63c-.22-.11-.4-.29-.51-.51C3 16.11 3 15.65 3 14.83V5.17c0-.83 0-1.28.13-1.53.11-.22.29-.4.51-.51C3.89 3 4.34 3 5.17 3h6.33c.83 0 1.28 0 1.53.13.22.11.4.29.51.51.13.25.13.71.13 1.53V7h-.25c-.73 0-1.17 0-1.55.27-.31.22-.55.55-.71.97-.16.44-.16.94-.16 1.93v4.67c0 .99 0 1.49.16 1.93.03.09.09.16.13.24H5.17c-.83 0-1.28 0-1.53-.13v-.01ZM17 14.83c0 .85 0 1.31-.1 1.58-.08.22-.2.39-.34.49-.13.09-.45.09-.98.09h-2.16c-.53 0-.85 0-.98-.09-.14-.1-.26-.28-.34-.49-.1-.27-.1-.74-.1-1.58v-4.67c0-.85 0-1.31.1-1.58.08-.22.2-.39.34-.49.13-.09.45-.09.98-.09h2.16c.53 0 .85 0 .98.09.14.1.26.28.34.49.1.27.1.74.1 1.58v4.67Z"/>
  <path d="M14.34 16.02a.88.88 0 1 0 0-1.76.88.88 0 0 0 0 1.76ZM9.33 4.5h-2c-.28 0-.5.22-.5.5s.22.5.5.5h2c.28 0 .5-.22.5-.5s-.22-.5-.5-.5Zm-1 11.43a.88.88 0 1 0 0-1.76.88.88 0 0 0 0 1.76Z"/>
</svg>
