<svg xmlns="http://www.w3.org/2000/svg" viewBox="0 0 20 20">
  <path d="M10.43 18H4.85c-.87 0-1.35 0-1.78-.22-.37-.19-.67-.5-.86-.88C2 16.47 2 16.01 2 15.1V4.9c0-.92 0-1.38.21-1.8.19-.38.49-.68.86-.88C3.49 2 3.98 2 4.85 2h5.58c.87 0 1.35 0 1.78.22.37.2.67.5.86.88.21.43.21.89.21 1.8 0 .28-.22.5-.5.5s-.5-.22-.5-.5c0-.74 0-1.14-.11-1.36a.964.964 0 0 0-.43-.44c-.2-.11-.6-.11-1.31-.11h-.09v.55c0 .48 0 .75-.13 1.01-.12.24-.3.43-.54.55-.26.14-.54.14-1 .14H6.62c-.46 0-.74 0-1.01-.14-.23-.12-.42-.31-.54-.55-.13-.26-.13-.53-.13-1.01v-.55h-.09c-.72 0-1.11 0-1.32.11-.18.1-.33.25-.42.44C3 3.76 3 4.16 3 4.9v10.2c0 .74 0 1.14.11 1.36.09.19.24.34.42.43.21.11.6.11 1.32.11h5.58c.72 0 1.11 0 1.32-.11.18-.09.33-.25.42-.44.05-.09.07-.22.09-.42a.49.49 0 0 1 .54-.46c.28.02.48.26.46.54-.03.33-.08.58-.19.8-.19.37-.49.68-.86.88-.42.22-.9.22-1.78.22V18ZM5.94 3v.55c0 .25 0 .51.03.57.02.05.06.09.1.11.06.03.3.03.54.03h2.05c.24 0 .49 0 .54-.03.05-.02.08-.06.1-.11.03-.05.03-.32.03-.57V3h-3.4.01Z"/>
  <path d="M15.5 14.7H9.11c-.75 0-1.17 0-1.54-.19-.32-.17-.6-.44-.76-.76-.19-.37-.19-.79-.19-1.54V9.14c0-.75 0-1.17.19-1.54.17-.33.43-.59.76-.76.37-.19.79-.19 1.54-.19h1.33c.28 0 .5.22.5.5s-.22.5-.5.5H9.11c-.58 0-.93 0-1.09.08-.14.07-.25.18-.32.32-.08.16-.08.51-.08 1.09v3.07c0 .58 0 .93.08 1.09.07.14.19.25.32.33.16.08.51.08 1.09.08h6.39c.58 0 .93 0 1.08-.08.14-.07.25-.19.33-.33.08-.16.08-.51.08-1.08v-1.33c0-.28.22-.5.5-.5s.5.22.5.5v1.33c0 .75 0 1.17-.19 1.54-.17.33-.44.6-.76.76-.37.19-.79.19-1.54.19v-.01Zm-2.57-2.51H9.61c-.28 0-.5-.22-.5-.5s.22-.5.5-.5h3.32c.28 0 .5.22.5.5s-.22.5-.5.5Zm.83-2.04H9.61c-.28 0-.5-.22-.5-.5s.22-.5.5-.5h4.15c.28 0 .5.22.5.5s-.22.5-.5.5Zm2.49-1.46c-.45 0-.89-.17-1.23-.51-.33-.33-.51-.77-.51-1.23 0-.46.18-.9.51-1.23a1.75 1.75 0 0 1 2.47 0c.33.33.51.77.51 1.23a1.743 1.743 0 0 1-1.74 1.74h-.01Zm0-2.49c-.19 0-.38.07-.53.22a.75.75 0 0 0 0 1.06c.29.29.76.29 1.05 0a.75.75 0 0 0 .22-.53c0-.2-.08-.38-.22-.53a.742.742 0 0 0-.53-.22h.01Z"/>
</svg>
