<svg xmlns="http://www.w3.org/2000/svg" viewBox="0 0 20 20">
  <path d="M10.17 6.33C8.98 6.33 8 5.36 8 4.16S8.97 2 10.17 2s2.17.97 2.17 2.17-.97 2.17-2.17 2.17v-.01Zm0-3.33C9.53 3 9 3.52 9 4.17c0 .65.52 1.17 1.17 1.17.65 0 1.17-.52 1.17-1.17 0-.65-.52-1.17-1.17-1.17Zm0 9.17C8.98 12.17 8 11.2 8 10s.97-2.17 2.17-2.17 2.17.97 2.17 2.17-.97 2.17-2.17 2.17Zm0-3.34C9.53 8.83 9 9.35 9 10c0 .65.52 1.17 1.17 1.17.65 0 1.17-.52 1.17-1.17 0-.65-.52-1.17-1.17-1.17Zm0 9.17C8.98 18 8 17.03 8 15.83s.97-2.17 2.17-2.17 2.17.97 2.17 2.17S11.37 18 10.17 18Zm0-3.33c-.64 0-1.17.52-1.17 1.17 0 .65.52 1.17 1.17 1.17.65 0 1.17-.52 1.17-1.17 0-.65-.52-1.17-1.17-1.17Z"/>
</svg>
