<svg xmlns="http://www.w3.org/2000/svg" viewBox="0 0 20 20">
  <path d="M4.17 12.165c-1.19 0-2.17-.97-2.17-2.17s.97-2.16 2.17-2.16 2.17.97 2.17 2.17-.97 2.17-2.17 2.17v-.01Zm0-3.33c-.64 0-1.17.52-1.17 1.17 0 .65.52 1.17 1.17 1.17.65 0 1.17-.52 1.17-1.17 0-.65-.52-1.17-1.17-1.17Zm5.83 3.33c-1.19 0-2.17-.97-2.17-2.17s.97-2.17 2.17-2.17 2.17.97 2.17 2.17-.97 2.17-2.17 2.17Zm0-3.33c-.64 0-1.17.52-1.17 1.17 0 .65.52 1.17 1.17 1.17.65 0 1.17-.52 1.17-1.17 0-.65-.52-1.17-1.17-1.17Zm5.83 3.33c-1.19 0-2.17-.97-2.17-2.17s.97-2.17 2.17-2.17 2.17.97 2.17 2.17-.97 2.17-2.17 2.17Zm0-3.33c-.64 0-1.17.52-1.17 1.17 0 .65.52 1.17 1.17 1.17.65 0 1.17-.52 1.17-1.17 0-.65-.52-1.17-1.17-1.17Z"/>
</svg>
