<svg xmlns="http://www.w3.org/2000/svg" viewBox="0 0 20 20">
  <path d="M6.05 6.5h7.89a3.55 3.55 0 0 1 0 7.1H6.05a3.55 3.55 0 0 1 0-7.1Z"/>
  <path d="M13.95 14.1h-7.9C3.82 14.1 2 12.29 2 10.05 2 7.81 3.82 6 6.05 6h7.9C16.18 6 18 7.82 18 10.05c0 2.23-1.82 4.05-4.05 4.05ZM6.05 7C4.37 7 3 8.37 3 10.05c0 1.68 1.37 3.05 3.05 3.05h7.9c1.68 0 3.05-1.37 3.05-3.05C17 8.37 15.63 7 13.95 7h-7.9Z"/>
  <path d="M7 11.05a1 1 0 1 0 0-2 1 1 0 0 0 0 2Zm4-1c0 .55-.45 1-1 1s-1-.45-1-1 .45-1 1-1 1 .45 1 1Zm3 0c0 .55-.45 1-1 1s-1-.45-1-1 .45-1 1-1 1 .45 1 1Z"/>
</svg>
