<svg xmlns="http://www.w3.org/2000/svg" viewBox="0 0 20 20">
  <path d="M13.06 5.75c-1.03 0-1.88-.84-1.88-1.88s.84-1.88 1.88-1.88 1.88.84 1.88 1.88-.84 1.88-1.88 1.88Zm0 6.13c-1.03 0-1.88-.84-1.88-1.88s.84-1.88 1.88-1.88 1.88.84 1.88 1.88-.84 1.88-1.88 1.88Zm0 6.12c-1.03 0-1.88-.84-1.88-1.88s.84-1.88 1.88-1.88 1.88.84 1.88 1.88S14.1 18 13.06 18ZM6.94 5.75c-1.03 0-1.88-.84-1.88-1.88S5.9 2 6.94 2s1.88.84 1.88 1.88-.84 1.88-1.88 1.88v-.01Zm0 6.13c-1.03 0-1.88-.84-1.88-1.88s.84-1.88 1.88-1.88 1.88.84 1.88 1.88-.84 1.88-1.88 1.88Zm0 6.12c-1.03 0-1.88-.84-1.88-1.88s.84-1.88 1.88-1.88 1.88.84 1.88 1.88S7.98 18 6.94 18Z"/>
</svg>
