<svg xmlns="http://www.w3.org/2000/svg" viewBox="0 0 20 20">
  <path d="M11.8 18c-.08 0-.17-.02-.25-.05l-7.24-2.69c-.376-.141-.93-.19-1.11-.62a.26.26 0 0 1-.03-.11l-.02-.13V5.46c0-.31.19-.58.48-.69l7.95-2.73c.05-.02.17-.04.23-.04h.12l4.38 1.15c.32.09.54.38.54.7v12.32c0 .33-.23.62-.55.71l-4.32 1.09c-.06.02-.12.02-.18.02V18Zm-.07-.99h-.01.01Zm-4.02-1.55 4.1 1.52 4.03-1.02V4.07l-4.02-1.06-7.69 2.64v8.49h.02l2.1-.81V6.55c0-.34.24-.64.57-.71l4.45-1.13s.13-.02.17-.02c.4 0 .73.33.73.73v9.62c-.06.4-.43.67-.82.62l-3.64-.19v-.01Zm3.72-.81h.02-.02Zm-5.17-.26 4.92.25V5.75l-3.93 1v6.9c0 .21-.13.39-.32.47l-.67.26v.01Zm.81-7.58h-.02.02Z"/>
</svg>
