<svg xmlns="http://www.w3.org/2000/svg" viewBox="0 0 20 20">
  <path d="M5 17.92c-1.65 0-3-1.35-3-3s1.35-3 3-3c.77 0 1.47.29 2 .77V5.21c0-.46 0-.71.12-.97.1-.23.27-.42.48-.56.24-.16.5-.2.94-.27l7.33-1.23c.6-.1.93-.16 1.27-.03.29.11.54.32.69.59.18.31.18.64.18 1.25v9.26c0 1.65-1.35 3-3 3s-3-1.35-3-3 1.35-3 3-3c.77 0 1.47.29 2 .77V3.99c0-.36 0-.68-.04-.76a.353.353 0 0 0-.17-.15c-.08-.04-.39.02-.75.08L8.72 4.38c-.27.05-.49.08-.55.12-.05.04-.09.08-.12.14-.03.07-.03.28-.03.56v9.7c0 1.65-1.35 3-3 3l-.02.02Zm0-5c-1.1 0-2 .9-2 2s.9 2 2 2 2-.9 2-2-.9-2-2-2Zm10-1.67c-1.1 0-2 .9-2 2s.9 2 2 2 2-.9 2-2-.9-2-2-2Z"/>
</svg>
