<svg xmlns="http://www.w3.org/2000/svg" viewBox="0 0 20 20">
  <path d="M15.5 14h-11c-.83 0-1.5-.67-1.5-1.5v-.41c0-.5.2-.98.55-1.35l1.3-1.3c.09-.09.14-.22.14-.36V6.99a5 5 0 0 1 10 .01v2.09c0 .13.05.26.15.37l1.28 1.28c.36.36.56.84.56 1.35v.41c0 .81-.65 1.47-1.45 1.5h-.03ZM9.99 3c-2.21 0-4 1.79-4 4v2.09c0 .4-.15.78-.44 1.06l-1.29 1.29c-.17.18-.26.4-.26.65v.41c0 .28.22.5.5.5h10.98c.28 0 .5-.22.5-.5v-.41c0-.25-.09-.47-.26-.65l-1.29-1.29c-.28-.3-.44-.67-.44-1.06V7c0-2.21-1.79-4-4-4Zm0 15a2.5 2.5 0 0 1-2.5-2.5c0-.28.22-.5.5-.5s.5.22.5.5c0 .83.67 1.5 1.5 1.5s1.5-.67 1.5-1.5c0-.28.22-.5.5-.5s.5.22.5.5a2.5 2.5 0 0 1-2.5 2.5Z"/>
</svg>
