<svg xmlns="http://www.w3.org/2000/svg" viewBox="0 0 20 20">
  <path d="M16.82 6.1c-.66-.52-1.39-.4-2.6-.18-1.89.33-3.24.98-3.98 1.54-.73-.56-2.08-1.21-3.98-1.54-1.2-.21-1.93-.34-2.59.18-.68.54-.68 1.33-.68 2.66v4.51c0 1.23 0 1.91.44 2.41.43.49 1.17.62 2.66.89 1.3.23 2.2.59 2.74.86.82.41 1.13.56 1.41.56s.59-.15 1.41-.56c.53-.27 1.44-.63 2.75-.86 1.48-.26 2.23-.39 2.66-.88.44-.5.44-1.18.44-2.41V8.77c0-1.32 0-2.12-.68-2.66V6.1ZM6.27 15.57c-1.13-.2-1.88-.33-2.08-.56C4 14.79 4 14.22 4 13.26V8.75c0-1.17.01-1.65.3-1.88.14-.11.29-.15.53-.15.28 0 .67.06 1.27.17 1.96.35 3.15 1.02 3.65 1.44v8.42l-.46-.23c-.85-.43-1.89-.75-3.02-.95Zm10.23-2.3c0 .96 0 1.53-.19 1.75-.2.22-.94.36-2.08.56-1.12.2-2.16.53-3.01.95-.17.08-.32.16-.46.23V8.34c.5-.42 1.69-1.09 3.65-1.44 1.11-.19 1.5-.25 1.8-.02.29.23.3.71.3 1.88v4.51h-.01ZM7.9 3.69c1.41-.93 3.29-.93 4.7 0a.522.522 0 0 0 .7-.14c.15-.23.09-.54-.14-.69-1.73-1.15-4.07-1.16-5.8 0a.498.498 0 0 0 .55.83H7.9Zm.88.98a.502.502 0 1 0 .52.86c.58-.35 1.33-.35 1.92 0 .08.05.17.07.26.07.17 0 .33-.09.43-.24.14-.24.07-.54-.17-.69-.89-.54-2.05-.54-2.95 0h-.01Z"/>
</svg>
