<svg xmlns="http://www.w3.org/2000/svg" viewBox="0 0 20 20">
  <g clip-path="url(#otp-lock__a)">
    <path d="M9.25 11.01H4.9c-.91 0-1.36 0-1.78-.18-.38-.16-.69-.42-.89-.75-.24-.39-.24-.81-.24-1.58V5.49c0-.77 0-1.19.24-1.58.2-.33.51-.58.89-.75.42-.18.87-.18 1.78-.18h10.2c.91 0 1.36 0 1.78.18.38.16.69.42.89.75.24.39.24.81.24 1.58v1.75c0 .28-.22.5-.5.5s-.5-.22-.5-.5V5.49c0-.57 0-.91-.09-1.06a.952.952 0 0 0-.43-.35c-.23-.1-.64-.1-1.38-.1H4.9c-.75 0-1.16 0-1.39.1-.19.08-.34.2-.42.35C3 4.58 3 4.92 3 5.49V8.5c0 .57 0 .91.09 1.06.09.15.24.27.42.35.23.1.64.1 1.39.1h4.35c.28 0 .5.22.5.5s-.22.5-.5.5Z"/>
    <path d="M6.79 8.48c-.15 0-.3-.07-.4-.2l-.34-.45-.34.45c-.17.22-.48.27-.7.1a.498.498 0 0 1-.1-.7l.14-.19a.5.5 0 0 1 0-1l-.14-.19a.498.498 0 0 1 .1-.7c.22-.17.53-.12.7.1l.34.45.34-.45c.17-.22.48-.26.7-.1.22.17.27.48.1.7l-.14.19a.5.5 0 0 1 0 1l.14.19c.17.22.12.53-.1.7-.09.07-.19.1-.3.1Zm3.95 0c-.15 0-.3-.07-.4-.2L10 7.83l-.34.45c-.17.22-.48.27-.7.1a.498.498 0 0 1-.1-.7L9 7.49a.5.5 0 0 1 0-1l-.14-.19a.498.498 0 0 1 .1-.7c.22-.17.54-.12.7.1l.34.45.34-.45c.17-.22.48-.27.7-.1.22.17.27.48.1.7l-.14.19a.5.5 0 0 1 0 1l.14.19a.498.498 0 0 1-.4.8Zm3.95 0c-.15 0-.3-.07-.4-.2l-.34-.45-.34.45c-.17.22-.48.27-.7.1a.498.498 0 0 1-.1-.7l.14-.19a.5.5 0 0 1 0-1l-.14-.19a.498.498 0 0 1 .1-.7c.22-.17.53-.12.7.1l.34.45.34-.45c.17-.22.48-.26.7-.1.22.17.27.48.1.7l-.14.19a.5.5 0 0 1 0 1l.14.19c.17.22.12.53-.1.7-.09.07-.19.1-.3.1Zm.94 9.52h-2.49c-.71 0-1.1 0-1.46-.18-.31-.16-.57-.42-.73-.73-.18-.36-.18-.75-.18-1.46v-.54c0-.71 0-1.1.18-1.46.16-.31.41-.57.73-.73.08-.04.17-.07.26-.1v-.36c0-1.35 1.1-2.44 2.44-2.44 1.34 0 2.44 1.1 2.44 2.44v.36c.09.02.17.06.26.1.32.16.57.41.73.73.18.35.18.75.18 1.46v.54c0 .71 0 1.1-.18 1.46-.16.31-.42.57-.73.73-.36.18-.75.18-1.46.18h.01Zm-2.49-4.28c-.54 0-.86 0-1 .07-.13.06-.23.17-.29.29-.07.14-.07.47-.07 1v.54c0 .54 0 .86.07 1 .06.13.17.23.29.29.14.07.47.07 1 .07h2.49c.54 0 .86 0 1-.07.12-.06.23-.17.29-.29.07-.14.07-.47.07-1v-.54c0-.54 0-.86-.07-1a.627.627 0 0 0-.29-.29c-.14-.07-.47-.07-1-.07h-2.49ZM14.39 11c-.8 0-1.44.65-1.44 1.44v.28h2.89v-.28c0-.8-.65-1.44-1.44-1.44h-.01Zm0 5.25c-.28 0-.5-.22-.5-.5v-.78c0-.28.22-.5.5-.5s.5.22.5.5v.78c0 .28-.22.5-.5.5Z"/>
  </g>
  <defs>
    <clipPath id="otp-lock__a">
      <path d="M2 3h16v15H2z"/>
    </clipPath>
  </defs>
</svg>
