<svg xmlns="http://www.w3.org/2000/svg" viewBox="0 0 20 20">
  <path d="M6.16 17.82c-.28 0-.54-.12-.71-.34-.2-.25-.2-.54-.2-1.07v-1.4c-.48 0-.79-.02-1.07-.1a2.952 2.952 0 0 1-2.08-2.08c-.1-.37-.1-.77-.1-1.57V7.41c0-1.44 0-2.17.32-2.8.28-.56.73-1 1.28-1.28.63-.32 1.35-.32 2.8-.32h7.2c1.44 0 2.17 0 2.8.32.56.28 1 .73 1.28 1.28.32.63.32 1.35.32 2.8v3.39c0 1.4 0 1.98-.32 2.61-.28.56-.73 1-1.28 1.28-.63.32-1.35.32-2.8.32h-2.42c-.47 0-.71 0-.9.04-.17.03-.34.09-.49.17-.17.09-.33.22-.73.53L7.12 17.3c-.42.33-.64.52-.96.52ZM6.4 4c-1.28 0-1.93 0-2.34.21-.37.19-.66.48-.85.85C3 5.48 3 6.12 3 7.4v3.85c0 .71 0 1.07.07 1.31.18.67.7 1.19 1.37 1.37.25.07.6.07 1.31.07.28 0 .5.22.5.5v2.21c.06-.06.15-.13.24-.2l1.94-1.55c.41-.33.63-.51.9-.64.24-.12.49-.21.75-.26.29-.06.58-.06 1.1-.06h2.42c1.28 0 1.93 0 2.34-.21.37-.19.66-.48.85-.85.2-.4.21-.78.21-2.16V7.39c0-1.28 0-1.93-.21-2.34a1.94 1.94 0 0 0-.85-.85c-.41-.21-1.06-.21-2.34-.21H6.4V4Z"/>
  <path d="M6.75 10.5c-.15 0-.3-.07-.4-.2L6 9.83l-.35.47c-.17.22-.48.27-.7.1a.498.498 0 0 1-.1-.7L5 9.5c-.28 0-.5-.22-.5-.5s.22-.5.5-.5l-.15-.2a.498.498 0 0 1 .1-.7c.22-.17.53-.12.7.1l.35.47.35-.47c.17-.22.48-.26.7-.1.22.17.27.48.1.7L7 8.5c.28 0 .5.22.5.5s-.22.5-.5.5l.15.2c.17.22.12.53-.1.7-.09.07-.19.1-.3.1Zm4 0c-.15 0-.3-.07-.4-.2L10 9.83l-.35.47c-.17.22-.48.27-.7.1a.498.498 0 0 1-.1-.7L9 9.5c-.28 0-.5-.22-.5-.5s.22-.5.5-.5l-.15-.2a.498.498 0 0 1 .1-.7c.22-.17.53-.12.7.1l.35.47.35-.47c.17-.22.48-.26.7-.1.22.17.27.48.1.7l-.15.2c.28 0 .5.22.5.5s-.22.5-.5.5l.15.2c.17.22.12.53-.1.7-.09.07-.19.1-.3.1Zm4 0c-.15 0-.3-.07-.4-.2L14 9.83l-.35.47c-.17.22-.48.27-.7.1a.498.498 0 0 1-.1-.7l.15-.2c-.28 0-.5-.22-.5-.5s.22-.5.5-.5l-.15-.2a.498.498 0 0 1 .1-.7c.22-.17.53-.12.7.1l.35.47.35-.47c.17-.22.48-.26.7-.1.22.17.27.48.1.7l-.15.2c.28 0 .5.22.5.5s-.22.5-.5.5l.15.2c.17.22.12.53-.1.7-.09.07-.19.1-.3.1Z"/>
</svg>
