<svg xmlns="http://www.w3.org/2000/svg" viewBox="0 0 20 20">
  <path d="M7.57 8.16c-1.51 0-2.59 1.15-2.59 2.6 0 1.45 1.04 2.64 2.6 2.64.36 0 .71-.06 1.04-.21.31-.14.58-.32.81-.57.46-.48.7-1.13.7-1.83 0-.7-.24-1.37-.69-1.85-.46-.49-1.11-.78-1.87-.78Zm1.13 3.78c-.13.14-.29.25-.49.34-.18.08-.39.12-.64.12-.96 0-1.6-.69-1.6-1.64s.65-1.6 1.59-1.6c.5 0 .88.18 1.14.46.26.28.42.69.42 1.17s-.16.86-.43 1.14l.01.01Zm5.8-3.78c-.28 0-.5.22-.5.5v2.56c0 .32-.06.55-.16.71a.76.76 0 0 1-.41.33c-.14.05-.31.08-.54.08-.4 0-.64-.12-.77-.26-.14-.15-.25-.4-.25-.8V8.66c0-.28-.22-.5-.5-.5s-.5.22-.5.5v2.62c0 .57.15 1.09.52 1.48.37.39.9.58 1.5.58.31 0 .61-.04.88-.14.41-.15.73-.41.94-.77.21-.35.29-.77.29-1.22V8.65c0-.28-.22-.5-.5-.5v.01Z"/>
  <path d="M17.95 7.4c-.02-.6-.07-1.05-.31-1.45-.27-.46-.69-.83-1.21-1.07-.58-.26-1.24-.26-2.57-.26h-2.21c-.27 0-.43 0-.5-.02a.524.524 0 0 1-.18-.1c-.06-.05-.13-.18-.27-.43l-.38-.67c-.26-.45-.4-.7-.64-.91-.21-.18-.47-.32-.74-.4C8.63 2 8.32 2 7.75 2H4.89c-.91 0-1.36 0-1.78.19-.38.17-.69.44-.88.78C2 3.37 2 3.81 2 4.6v8.57c0 1.32 0 1.96.31 2.5.27.46.69.83 1.21 1.07.58.26 1.24.26 2.57.26h7.82c1.33 0 1.99 0 2.57-.26.52-.23.94-.6 1.21-1.07.31-.54.31-1.17.31-2.5l-.04-5.76-.01-.01Zm-1.14 7.76c-.16.28-.42.51-.75.66-.38.17-.98.17-2.16.17H6.08c-1.18 0-1.78 0-2.16-.17-.33-.15-.59-.37-.75-.65-.18-.3-.18-.81-.18-2V4.6c0-.62 0-.97.1-1.13.09-.16.24-.29.43-.37.22-.1.63-.1 1.37-.1h2.86c.49 0 .73 0 .9.05.14.04.27.11.38.2.11.09.2.25.43.65l.37.65c.18.32.29.51.47.67.16.14.34.25.54.31.23.07.43.07.81.07h2.21c1.18 0 1.78 0 2.16.17.33.15.59.38.75.66.11.19.16.45.17.96l.04 5.75c0 1.18 0 1.69-.18 2l.01.02Z"/>
</svg>
