<svg xmlns="http://www.w3.org/2000/svg" viewBox="0 0 20 20">
  <path d="M6.25 10.5c-.51 0-.92-.41-.92-.92s.41-.92.92-.92.92.41.92.92-.41.92-.92.92ZM12.92 8c-.51 0-.92-.41-.92-.92s.41-.92.92-.92.92.41.92.92-.41.92-.92.92Zm-4.17-.83c-.51 0-.92-.41-.92-.92s.41-.92.92-.92.92.41.92.92-.41.92-.92.92Z"/>
  <path d="M10.34 18H10c-4.41 0-8-3.59-8-8s3.59-8 8-8 8 3.59 8 8c0 1.38-.27 2.83-2.3 3.12-.91.13-1.7.13-2.33.13-1.34 0-1.82.04-2.16.72-.27.54-.11.81.24 1.34.26.39.56.83.56 1.44 0 .36-.11.65-.33.87-.35.35-.87.39-1.33.39l-.01-.01ZM10 3c-3.86 0-7 3.14-7 7s3.14 7 7 7h.17c.26 0 .69 0 .8-.1.02-.02.03-.08.03-.15 0-.3-.18-.57-.39-.88-.36-.53-.85-1.26-.31-2.34.64-1.28 1.76-1.28 3.06-1.28.63 0 1.35 0 2.19-.12C16.66 11.97 17 11.47 17 10c0-3.86-3.14-7-7-7Z"/>
</svg>
