<svg xmlns="http://www.w3.org/2000/svg" viewBox="0 0 20 20">
  <g clip-path="url(#paperclip__a)">
    <path d="M7.404 17.97a5.06 5.06 0 0 1-3.6-1.49 5.06 5.06 0 0 1-1.49-3.6c0-1.36.53-2.64 1.49-3.6l6.27-6.27c1.34-1.35 3.69-1.35 5.03 0a3.53 3.53 0 0 1 1.04 2.52c0 .96-.37 1.84-1.04 2.52l-6.26 6.26c-.77.77-2.1.77-2.87 0-.38-.38-.59-.89-.59-1.43 0-.54.21-1.05.6-1.43l5.71-5.71c.2-.2.51-.2.71 0 .2.2.2.51 0 .71l-5.71 5.71c-.19.19-.3.45-.3.73 0 .28.11.53.3.73.39.39 1.07.39 1.46 0l6.26-6.26c.48-.48.75-1.12.75-1.81s-.27-1.33-.75-1.81c-.97-.97-2.65-.97-3.62 0l-6.28 6.25c-.77.77-1.2 1.8-1.2 2.89s.43 2.12 1.2 2.89 1.8 1.2 2.89 1.2 2.12-.42 2.89-1.2l6.53-6.53c.2-.2.51-.2.71 0 .2.2.2.51 0 .71l-6.53 6.53a5.06 5.06 0 0 1-3.6 1.49Z"/>
  </g>
  <defs>
    <clipPath id="paperclip__a">
      <path d="M2.314 2h15.37v15.97H2.314z"/>
    </clipPath>
  </defs>
</svg>
