<svg xmlns="http://www.w3.org/2000/svg" viewBox="0 0 20 20">
  <path d="M7.05 18H6.1c-1.34 0-2.01 0-2.6-.3a2.73 2.73 0 0 1-1.2-1.2c-.3-.59-.3-1.26-.3-2.6V7c0-.74 0-1.11.09-1.46.25-.95 1-1.69 1.94-1.94.26-.07.53-.09.96-.09 0-.36.02-.59.14-.82.12-.24.31-.43.55-.55C5.95 2 6.21 2 6.7 2h3.6c.47 0 .75 0 1.02.14.24.12.43.31.55.55.12.23.13.45.14.82.43 0 .7.02.96.09.95.25 1.69 1 1.94 1.94a.5.5 0 0 1-.35.61.5.5 0 0 1-.61-.35c-.16-.6-.64-1.08-1.24-1.24-.16-.04-.37-.06-.7-.06 0 .36-.02.59-.14.81-.12.24-.31.43-.55.55-.27.14-.55.14-1.02.14H6.7c-.48 0-.75 0-1.02-.14a1.27 1.27 0 0 1-.55-.55c-.12-.23-.13-.46-.14-.82-.34 0-.55.02-.7.06-.6.16-1.08.64-1.24 1.24-.06.22-.06.55-.06 1.2v6.9c0 1.18 0 1.77.19 2.14.17.33.43.6.77.77.37.19.97.19 2.14.19h.95c.28 0 .5.22.5.5s-.22.5-.5.5l.01.01ZM6 4.3c0 .25 0 .51.03.56.02.05.06.08.11.11s.31.03.56.03h3.6c.25 0 .51 0 .56-.03.05-.02.09-.06.11-.11.03-.05.03-.31.03-.56v-.6c0-.25 0-.51-.03-.56a.198.198 0 0 0-.11-.11C10.8 3 10.55 3 10.3 3H6.7c-.25 0-.51 0-.56.03-.05.02-.09.06-.11.11C6 3.19 6 3.45 6 3.7v.6Z"/>
  <path d="M15.7 18h-3.9c-.69 0-1.07 0-1.41-.18-.3-.15-.55-.41-.71-.71-.18-.35-.18-.73-.18-1.41v-5.4c0-.69 0-1.07.18-1.41.16-.31.41-.56.71-.71.34-.18.72-.18 1.41-.18h3.9c.69 0 1.07 0 1.41.18.3.15.55.4.71.71.18.35.18.72.18 1.41v5.4c0 .69 0 1.06-.18 1.41-.16.3-.41.56-.71.71-.35.18-.73.18-1.41.18Zm-3.9-9c-.51 0-.82 0-.96.07a.64.64 0 0 0-.27.27c-.07.13-.07.44-.07.96v5.4c0 .51 0 .82.07.96.06.12.16.21.27.27.14.07.45.07.96.07h3.9c.51 0 .82 0 .96-.07a.64.64 0 0 0 .27-.27c.07-.13.07-.44.07-.96v-5.4c0-.51 0-.83-.07-.96a.64.64 0 0 0-.27-.27C16.52 9 16.21 9 15.7 9h-3.9Z"/>
  <path d="M13.75 14.25h-1.5c-.28 0-.5-.22-.5-.5s.22-.5.5-.5h1.5c.28 0 .5.22.5.5s-.22.5-.5.5ZM15.24 12h-2.99c-.28 0-.5-.22-.5-.5s.22-.5.5-.5h2.99c.28 0 .5.22.5.5s-.22.5-.5.5Z"/>
</svg>
