<svg xmlns="http://www.w3.org/2000/svg" viewBox="0 0 20 20">
  <path d="M16.9 3.09c-1.45-1.46-3.99-1.46-5.44 0l-8.33 8.33C2.4 12.15 2 13.11 2 14.14c0 1.03.4 2 1.13 2.72.73.73 1.69 1.13 2.72 1.13 1.03 0 2-.4 2.72-1.13l8.33-8.33c.73-.73 1.13-1.69 1.13-2.72 0-1.03-.4-2-1.13-2.72ZM9.26 14.76l-4.03-4.03 5.5-5.5 4.03 4.03-5.5 5.5Zm-5.43 1.39C3.29 15.61 3 14.9 3 14.14c0-.76.3-1.48.83-2.02l.69-.69 4.03 4.03-.69.69c-1.08 1.08-2.95 1.08-4.03 0Zm12.36-8.32-.73.73-4.03-4.03.72-.72c.54-.54 1.25-.83 2.02-.83s1.48.3 2.02.83.83 1.25.83 2.01c0 .76-.3 1.48-.83 2.01Z"/>
  <path d="M8.95 10.24c-.2-.2-.51-.2-.71 0-.2.2-.2.51 0 .71l.85.85a.485.485 0 0 0 .7 0c.2-.2.2-.51 0-.71l-.85-.85h.01Zm2.83-1.23-.85-.85c-.2-.2-.51-.2-.71 0-.2.2-.2.51 0 .71l.85.85a.485.485 0 0 0 .7 0c.2-.2.2-.51 0-.71h.01Z"/>
</svg>
