<svg xmlns="http://www.w3.org/2000/svg" viewBox="0 0 20 20">
  <path d="m5.23 10.73 5.5-5.5 4.32 4.32c.05.05.12.09.18.11.19.11.44.1.6-.07l1.06-1.06c.73-.73 1.13-1.69 1.13-2.72 0-1.03-.4-2-1.13-2.72-1.45-1.46-3.99-1.46-5.44 0l-8.32 8.33C2.4 12.15 2 13.11 2 14.14c0 1.03.4 2 1.13 2.72.73.73 1.69 1.13 2.72 1.13 1.03 0 2-.4 2.72-1.13l1.02-1.02s0-.01.01-.02c.2-.2.2-.51 0-.71l-4.38-4.38h.01Zm6.93-6.93c1.08-1.08 2.95-1.08 4.03 0 .54.54.83 1.25.83 2.01 0 .76-.3 1.48-.83 2.01l-.72.73-4.03-4.03.72-.72ZM3.83 16.15C3.29 15.61 3 14.9 3 14.14c0-.76.3-1.48.83-2.02l.69-.69 4.03 4.03-.69.69c-1.08 1.08-2.95 1.08-4.03 0Z"/>
  <path d="M16.84 11.15s-.01 0-.02-.01a3.969 3.969 0 0 0-2.81-1.16c-2.21 0-4 1.79-4 4 0 1.1.45 2.1 1.17 2.82a3.99 3.99 0 0 0 2.83 1.17c2.21 0 4-1.79 4-4 0-1.1-.44-2.09-1.16-2.81 0 0 0-.01-.01-.02v.01Zm-2.83-.17c.65 0 1.24.21 1.73.56l-4.17 4.17c-.35-.49-.56-1.09-.56-1.73 0-1.65 1.35-3 3-3Zm0 6c-.65 0-1.24-.21-1.73-.56l4.17-4.17c.35.49.56 1.09.56 1.73 0 1.65-1.35 3-3 3Zm-6.53-6.86c-.2.2-.2.51 0 .71l.85.85a.485.485 0 0 0 .7 0c.2-.2.2-.51 0-.71l-.85-.85c-.2-.2-.51-.2-.71 0h.01Zm1.98-2.07c-.2.2-.2.51 0 .71l.85.85a.485.485 0 0 0 .7 0c.2-.2.2-.51 0-.71l-.85-.85c-.2-.2-.51-.2-.71 0h.01Z"/>
</svg>
