<svg xmlns="http://www.w3.org/2000/svg" viewBox="0 0 20 20">
  <path d="M2.52 13c-.13 0-.25-.03-.36-.08-.11-.06-.16-.14-.16-.25v-5.2c0-.08.04-.16.11-.22s.17-.1.29-.1H4c.34 0 .65.06.92.18.28.12.5.31.66.58.16.26.24.61.24 1.05v.05c0 .44-.08.79-.25 1.06-.17.27-.39.46-.68.58-.28.12-.6.18-.95.18h-.9v1.86c0 .11-.05.19-.16.25-.11.05-.23.08-.36.08V13Zm.52-3h.9c.27 0 .47-.08.62-.22.15-.15.22-.39.22-.7v-.1c0-.31-.07-.54-.22-.69-.14-.15-.35-.23-.62-.23h-.9V10Zm3.95 3c-.14 0-.25-.03-.34-.1a.276.276 0 0 1-.12-.22V7.47c0-.08.04-.16.12-.22.09-.06.2-.1.34-.1h1.42c.36 0 .68.06.96.18.28.12.51.31.67.58.17.27.26.62.26 1.06v2.18c0 .44-.09.8-.26 1.07s-.39.46-.67.58c-.28.12-.6.18-.96.18H6.99V13Zm1.41-.91c.27 0 .47-.08.62-.22.15-.15.22-.39.22-.7V8.99c0-.31-.07-.54-.22-.69-.15-.15-.35-.23-.62-.23h-.84v4.02h.84Zm3.38.91c-.13 0-.25-.03-.36-.08-.11-.06-.16-.14-.16-.25V7.48c0-.11.05-.19.14-.24.1-.06.2-.09.31-.09h2.79c.12 0 .2.05.25.14.05.1.08.2.08.3 0 .13-.03.24-.09.33-.05.09-.13.14-.24.14h-2.21v1.6h1.22c.11 0 .19.04.24.13.06.08.09.18.09.29 0 .09-.03.18-.08.27-.05.09-.13.13-.25.13h-1.22v2.19c0 .11-.05.19-.16.25-.11.05-.23.08-.36.08h.01Z"/>
  <path d="M13.89 18H8.12c-.38 0-.57 0-.73-.02a2.769 2.769 0 0 1-2.37-2.37C5 15.45 5 15.26 5 14.88c0-.28.22-.5.5-.5s.5.22.5.5c0 .31 0 .47.02.6.1.78.72 1.4 1.51 1.5.13.02.29.02.6.02h5.77c1.18 0 1.77 0 2.14-.19.33-.17.6-.43.76-.77.19-.37.19-.97.19-2.14V8.49c0-.51 0-.76-.05-.97-.04-.18-.11-.35-.21-.51-.1-.17-.28-.35-.63-.7L13.69 3.9c-.36-.36-.54-.54-.72-.65-.16-.1-.33-.17-.51-.21-.2-.05-.46-.05-.97-.05H8.11c-.31 0-.47 0-.61.01-.78.1-1.4.72-1.5 1.51-.02.13-.01.29-.01.6 0 .28-.22.5-.5.5s-.5-.22-.5-.5c0-.38 0-.57.02-.73.17-1.22 1.14-2.2 2.37-2.36.16-.02.35-.02.73-.02h3.38c.57 0 .88 0 1.2.08.28.07.55.18.8.33.28.17.5.39.9.79l2.39 2.4c.41.41.63.63.8.9.15.25.26.52.33.79.08.32.08.63.08 1.2v5.41c0 1.34 0 2.01-.3 2.6-.27.52-.68.94-1.2 1.2-.59.3-1.26.3-2.6.3Z"/>
</svg>
