<svg xmlns="http://www.w3.org/2000/svg" viewBox="0 0 20 20">
  <path d="M8.51 18c-.42 0-.85-.04-1.27-.12a6.463 6.463 0 0 1-3.33-1.78 6.463 6.463 0 0 1-1.78-3.33C1.88 11.5 2 10.2 2.5 9c.49-1.19 1.32-2.2 2.4-2.92a6.45 6.45 0 0 1 2.96-1.06c.23-.02.41-.04.61.05.18.07.34.22.43.39.11.19.11.38.11.64V11h4.9c.26 0 .44 0 .64.11.17.09.31.25.39.42.09.21.07.39.05.61a6.605 6.605 0 0 1-1.06 2.97 6.584 6.584 0 0 1-2.92 2.4c-.8.33-1.64.5-2.49.5L8.51 18Zm-.5-11.99h-.05a5.505 5.505 0 0 0-4.54 3.37 5.414 5.414 0 0 0-.31 3.18c.21 1.07.73 2.05 1.51 2.82s1.75 1.29 2.82 1.51c1.07.21 2.17.1 3.18-.31a5.505 5.505 0 0 0 3.37-4.54v-.05H9.11c-.25 0-.44 0-.62-.1a.872.872 0 0 1-.38-.38c-.1-.19-.1-.37-.1-.62V6.01Z"/>
  <path d="M16.91 8.99h-4.8c-.25 0-.44 0-.62-.1a.823.823 0 0 1-.38-.38c-.09-.19-.09-.37-.09-.62v-4.8c0-.26 0-.44.11-.64.09-.17.25-.31.43-.39.2-.09.38-.07.61-.05 1.49.15 2.89.81 3.95 1.87a6.514 6.514 0 0 1 1.87 3.95c.02.23.04.41-.05.62a.91.91 0 0 1-.38.42c-.2.11-.38.11-.64.11l-.01.01Zm-4.9-5.98v4.98h4.98v-.05A5.5 5.5 0 0 0 15.4 4.6c-.9-.9-2.08-1.46-3.34-1.58h-.05v-.01Z"/>
</svg>
