<svg xmlns="http://www.w3.org/2000/svg" viewBox="0 0 20 20">
  <path d="M10 18c-4.41 0-8-3.59-8-8s3.59-8 8-8 8 3.59 8 8-3.59 8-8 8Zm0-15c-3.86 0-7 3.14-7 7s3.14 7 7 7 7-3.14 7-7-3.14-7-7-7Z"/>
  <path d="M7.95 14.23h-.06a.97.97 0 0 1-.7-.38C7 13.6 7 13.3 7 12.78V7.24c0-.53 0-.82.19-1.08a.97.97 0 0 1 .7-.38c.32-.02.56.13 1.01.42l4.31 2.77c.38.24.61.39.72.66.1.24.1.51 0 .74-.12.27-.34.42-.72.66L8.9 13.8c-.42.27-.66.42-.95.42v.01Zm.06-7.41v6.36c.09-.05.22-.14.35-.22l4.31-2.77c.11-.07.22-.14.29-.19-.07-.05-.18-.12-.29-.19L8.36 7.04c-.13-.08-.26-.17-.35-.22Z"/>
</svg>
