<svg xmlns="http://www.w3.org/2000/svg" viewBox="0 0 20 20">
  <path d="M6.19 16.86h-.06c-.35-.02-.68-.19-.89-.48C5 16.06 5 15.66 5 14.86V4.99c0-.79 0-1.19.24-1.51.22-.28.54-.46.89-.48.4-.03.74.2 1.4.64l7.41 4.94c.54.36.83.55.97.89.12.29.12.63 0 .92-.14.34-.44.53-.97.89l-7.41 4.94c-.63.42-.96.64-1.34.64ZM6.18 4s-.1.03-.14.08C6 4.17 6 4.59 6 4.99v9.88c0 .41 0 .83.05.92.03.04.09.07.15.07.09-.01.44-.25.78-.47l7.41-4.94c.28-.18.56-.37.6-.45.02-.04.02-.1 0-.15-.04-.07-.33-.26-.6-.44L6.98 4.47c-.34-.23-.69-.46-.79-.47h-.01Z"/>
</svg>
