<svg xmlns="http://www.w3.org/2000/svg" viewBox="0 0 20 20">
  <path d="M10 18c-4.41 0-8-3.59-8-8s3.59-8 8-8 8 3.59 8 8c0 2.54-1.17 4.87-3.2 6.4-.22.17-.53.12-.7-.1a.496.496 0 0 1 .1-.7A6.953 6.953 0 0 0 17 10c0-3.86-3.14-7-7-7s-7 3.14-7 7 2.87 6.72 6.5 6.98v-3.15h-.33c-1.01 0-1.52 0-1.98-.23a2.18 2.18 0 0 1-.95-.95C6 12.19 6 11.68 6 10.67v-1.5c0-.28.22-.5.5-.5H8V6.42c0-.28.22-.5.5-.5s.5.22.5.5v2.25h2V6.42c0-.28.22-.5.5-.5s.5.22.5.5v2.25h1.49c.28 0 .5.22.5.5v1.5c0 1.01 0 1.52-.24 1.98-.21.41-.53.74-.95.95-.46.24-.97.24-1.98.24h-.33v3.67c0 .28-.22.5-.5.5L10 18ZM7.01 9.67v1c0 .83 0 1.28.13 1.53.11.22.29.4.51.51.25.13.7.13 1.53.13h1.66c.83 0 1.28 0 1.53-.13.22-.11.4-.29.51-.51.13-.25.13-.7.13-1.53v-1h-6Z"/>
</svg>
