<svg xmlns="http://www.w3.org/2000/svg" viewBox="0 0 20 20">
  <path d="M5.42 14.62a2.58 2.58 0 0 1-2.52-1.99L2.07 9.2c-.19-.78 0-1.58.49-2.21C3.06 6.36 3.8 6 4.6 6h10.81c.8 0 1.54.36 2.04.99s.67 1.43.49 2.21l-.82 3.43a2.588 2.588 0 0 1-2.52 1.99H5.42ZM4.6 7c-.49 0-.95.22-1.25.61-.3.39-.41.88-.3 1.36l.82 3.43c.17.72.81 1.23 1.55 1.23h9.17c.74 0 1.38-.5 1.55-1.23l.82-3.43c.11-.48 0-.97-.3-1.36-.3-.39-.76-.61-1.25-.61H4.6Z"/>
  <path d="M7.37 12.29c-.39 0-.7-.31-.7-.7 0-.39.31-.7.7-.7.39 0 .7.31.7.7 0 .39-.31.7-.7.7Zm2.64 0c-.39 0-.7-.31-.7-.7 0-.39.31-.7.7-.7.39 0 .7.31.7.7 0 .39-.31.7-.7.7Zm2.63 0c-.39 0-.7-.31-.7-.7 0-.39.31-.7.7-.7.39 0 .7.31.7.7 0 .39-.31.7-.7.7ZM6.05 9.73c-.39 0-.7-.31-.7-.7 0-.39.31-.7.7-.7.39 0 .7.31.7.7 0 .39-.31.7-.7.7Zm2.64 0c-.39 0-.7-.31-.7-.7 0-.39.31-.7.7-.7.39 0 .7.31.7.7 0 .39-.31.7-.7.7Zm2.63 0c-.39 0-.7-.31-.7-.7 0-.39.31-.7.7-.7.39 0 .7.31.7.7 0 .39-.31.7-.7.7Zm2.63 0c-.39 0-.7-.31-.7-.7 0-.39.31-.7.7-.7.39 0 .7.31.7.7 0 .39-.31.7-.7.7Z"/>
</svg>
