<svg xmlns="http://www.w3.org/2000/svg" viewBox="0 0 20 20">
  <path d="M10 18c-1.59 0-3.12-.47-4.44-1.35a7.97 7.97 0 0 1-2.95-3.59 7.938 7.938 0 0 1-.46-4.62 8.025 8.025 0 0 1 2.19-4.1c.2-.2.51-.2.71 0 .2.2.2.51 0 .71-.98.98-1.65 2.22-1.92 3.58-.27 1.36-.13 2.76.4 4.04a6.944 6.944 0 0 0 2.58 3.14c2.31 1.54 5.47 1.54 7.78 0a6.944 6.944 0 0 0 2.58-3.14c.53-1.28.67-2.68.4-4.04a6.91 6.91 0 0 0-1.92-3.58c-.2-.2-.2-.51 0-.71.2-.2.51-.2.71 0a7.986 7.986 0 0 1 2.19 4.1c.31 1.56.15 3.16-.46 4.62A8.022 8.022 0 0 1 10 18Z"/>
  <path d="M10 10c-.28 0-.5-.22-.5-.5v-7c0-.28.22-.5.5-.5s.5.22.5.5v7c0 .28-.22.5-.5.5Z"/>
</svg>
