<svg xmlns="http://www.w3.org/2000/svg" viewBox="0 0 20 20">
  <g clip-path="url(#power-triangle__a)">
    <path d="M16.01 17.16H3.99c-.77 0-1.16 0-1.48-.24-.28-.2-.46-.52-.5-.87-.04-.4.15-.73.54-1.4L8.56 4.27c.39-.67.58-1 .94-1.16.32-.14.68-.14 1 0 .37.16.56.5.94 1.16l6.01 10.38c.39.67.58 1 .54 1.4-.04.35-.22.66-.5.87-.32.23-.71.23-1.48.23v.01ZM10 4s-.07 0-.1.02c-.08.05-.29.41-.49.75l-6 10.38c-.2.34-.41.7-.41.8 0 .06.04.12.09.15.09.05.5.05.9.05h12.02c.4 0 .81 0 .9-.05.05-.04.08-.09.09-.16 0-.1-.21-.45-.41-.8L10.58 4.77c-.2-.34-.4-.7-.49-.75A.292.292 0 0 0 10 4Zm.26 10.14a.494.494 0 0 1-.43-.74l.9-1.63H8.42c-.18 0-.34-.09-.43-.25a.497.497 0 0 1 0-.5l1.32-2.37c.13-.24.44-.33.68-.19.24.13.33.44.19.68l-.9 1.63h2.31c.18 0 .34.09.43.25.09.15.09.34 0 .5l-1.32 2.37c-.09.16-.26.26-.44.26v-.01Z"/>
  </g>
  <defs>
    <clipPath id="power-triangle__a">
      <path d="M2 3h16v14.16H2z"/>
    </clipPath>
  </defs>
</svg>
