<svg xmlns="http://www.w3.org/2000/svg" viewBox="0 0 20 20">
  <path d="M7.9 18c-.92 0-1.38 0-1.81-.22-.38-.19-.68-.5-.87-.87C5 16.48 5 16.02 5 15.1V15c-.43 0-.7-.02-.96-.09-.95-.25-1.69-1-1.94-1.94-.09-.35-.09-.72-.09-1.46V9.86c0-1.34 0-2.01.3-2.6.27-.52.68-.94 1.2-1.2.4-.2.84-.27 1.5-.29v-.86c0-.89 0-1.38.22-1.81.19-.38.5-.68.87-.87.43-.22.89-.22 1.81-.22h4.2c.89 0 1.38 0 1.81.22.38.19.68.49.87.87.22.43.22.92.22 1.81v.86c.66.02 1.1.09 1.5.29.52.27.94.68 1.2 1.2.3.59.3 1.26.3 2.6v1.65c0 .74 0 1.11-.09 1.46-.25.95-1 1.69-1.94 1.94-.26.07-.53.09-.96.09v.1c0 .92 0 1.38-.22 1.81-.19.38-.5.68-.87.87-.43.22-.92.22-1.81.22H7.9ZM6 15.1c0 .73 0 1.14.11 1.35.1.19.25.34.44.44.21.11.62.11 1.35.11h4.2c.74 0 1.14 0 1.35-.11.19-.1.34-.25.44-.44.11-.21.11-.62.11-1.35v-1.2c0-.74 0-1.14-.11-1.35-.1-.19-.25-.34-.44-.44-.21-.11-.62-.11-1.35-.11H7.9c-.73 0-1.14 0-1.35.11-.19.1-.34.25-.44.44-.11.21-.11.62-.11 1.35v1.2ZM7.9 11h4.2c.89 0 1.38 0 1.81.22.38.19.68.49.87.87.22.43.22.92.22 1.81v.1c.34 0 .55-.02.7-.06.6-.16 1.08-.64 1.24-1.24.06-.22.06-.55.06-1.2V9.85c0-1.18 0-1.77-.19-2.14-.17-.33-.43-.6-.76-.77-.37-.19-.97-.19-2.14-.19h-7.8c-1.18 0-1.77 0-2.14.19-.33.17-.6.43-.77.76-.19.37-.19.97-.19 2.14v1.65c0 .65 0 .98.06 1.2.16.6.64 1.08 1.24 1.24.16.04.37.05.7.06v-.1c0-.89 0-1.38.22-1.81.19-.38.5-.68.87-.87.43-.22.89-.22 1.81-.22L7.9 11ZM14 5.75V4.9c0-.74 0-1.14-.11-1.35-.1-.19-.25-.34-.44-.44C13.24 3 12.83 3 12.1 3H7.9c-.73 0-1.14 0-1.35.11-.19.1-.34.25-.44.44C6 3.76 6 4.17 6 4.9v.85h8Zm.5 3.63h-2.25c-.28 0-.5-.22-.5-.5s.22-.5.5-.5h2.25c.28 0 .5.22.5.5s-.22.5-.5.5Z"/>
</svg>
