<svg xmlns="http://www.w3.org/2000/svg" viewBox="0 0 20 20">
  <path d="M14.1 7.1h-1.8c-.28 0-.5.22-.5.5s.22.5.5.5h1.8c.28 0 .5-.22.5-.5s-.22-.5-.5-.5Z"/>
  <path d="M16.75 6.26c-.22-.44-.57-.78-1.01-1-.32-.16-.65-.22-1.14-.24v-.59c0-.73 0-1.13-.19-1.49-.16-.32-.42-.58-.74-.74-.37-.2-.77-.2-1.49-.2H7.82c-.73 0-1.13 0-1.49.19-.32.16-.58.42-.74.74-.19.36-.19.76-.19 1.49v.59c-.49.02-.83.08-1.14.24-.44.22-.78.57-1 1-.25.49-.25 1.04-.25 2.12v1.32c0 .6 0 .9.08 1.2.21.79.84 1.41 1.63 1.63.2.05.41.07.71.08.02.27.07.48.17.67.16.32.42.58.74.74.36.19.76.19 1.49.19h4.36c.73 0 1.13 0 1.49-.19.32-.16.58-.42.74-.74.1-.2.15-.41.17-.67a2.313 2.313 0 0 0 2.34-1.71c.08-.29.08-.59.08-1.19V8.38c0-1.09 0-1.63-.25-2.12h-.01ZM6.4 4.42c0-.55 0-.89.08-1.04.07-.13.17-.24.31-.31.15-.08.48-.08 1.04-.08h4.36c.55 0 .89 0 1.04.08.13.07.24.17.31.31.08.15.08.48.08 1.04V5H6.4v-.58Zm7.2 7.36c0 .55 0 .89-.08 1.04-.07.13-.17.24-.31.31-.15.08-.48.08-1.04.08H7.81c-.55 0-.89 0-1.04-.08a.714.714 0 0 1-.31-.31c-.08-.15-.08-.48-.08-1.04v-.16c0-.55 0-.89.08-1.04.07-.13.17-.24.31-.31.15-.08.48-.08 1.04-.08h4.36c.55 0 .89 0 1.04.08.13.07.24.17.31.31.08.15.08.48.08 1.04v.16ZM16 9.7c0 .5 0 .77-.04.94-.12.45-.47.8-.92.92-.1.03-.24.04-.44.04 0-.71 0-1.11-.19-1.47-.16-.32-.42-.58-.74-.74-.36-.19-.76-.19-1.49-.19H7.82c-.73 0-1.13 0-1.49.19-.32.16-.58.42-.74.74-.18.36-.19.76-.19 1.47-.2 0-.34-.02-.44-.04-.45-.12-.8-.47-.92-.92C4 10.47 4 10.2 4 9.7V8.38c0-.9 0-1.39.14-1.67.13-.25.32-.44.57-.57C4.99 6 5.48 6 6.38 6h7.24c.9 0 1.39 0 1.67.14.25.12.44.32.57.57.14.28.14.77.14 1.67V9.7Zm-.5 6.3h-4.09c-.21-.58-.76-1-1.41-1-.65 0-1.2.42-1.41 1h-4.1c-.28 0-.5.22-.5.5s.22.5.5.5h4.1c.21.58.76 1 1.41 1 .65 0 1.2-.42 1.41-1h4.09c.28 0 .5-.22.5-.5s-.22-.5-.5-.5ZM10 17c-.28 0-.5-.22-.5-.5s.22-.5.5-.5.5.22.5.5-.22.5-.5.5Z"/>
</svg>
