<svg xmlns="http://www.w3.org/2000/svg" viewBox="0 0 20 20">
  <path d="M17.28 6.25a1.43 1.43 0 0 0-.27-.46c-.14-.15-.29-.23-.55-.38l-5.63-3.13c-.24-.14-.39-.22-.58-.26-.17-.04-.34-.04-.51 0-.19.04-.34.12-.58.26L3.52 5.42c-.25.14-.4.22-.54.37-.12.13-.21.29-.27.46-.06.19-.06.37-.06.66v6.18c0 .29 0 .47.06.67.06.17.15.33.27.46.14.15.29.23.55.38l5.64 3.13c.24.13.39.21.57.25.09.02.17.03.26.03s.17 0 .25-.03c.19-.04.34-.12.58-.26l5.64-3.14c.25-.14.4-.22.54-.37.12-.13.21-.29.27-.46.06-.19.06-.37.06-.66V6.91c0-.29 0-.47-.06-.67v.01ZM9.65 3.16c.13-.07.25-.14.3-.15h.1c.04 0 .16.08.3.15l5.47 3.04-2.4 1.33L7.6 4.3l2.05-1.14Zm-.15 13.6-5.49-3.05c-.14-.08-.26-.14-.29-.17a.207.207 0 0 1-.06-.1c-.01-.04-.01-.18-.01-.35V7.05L9.5 10.3v6.46Zm.5-7.33L4.18 6.19l2.39-1.33 5.82 3.23L10 9.42v.01Zm6.35 3.66c0 .17 0 .31-.01.35-.01.04-.03.07-.06.1s-.15.1-.3.18l-5.48 3.04V10.3l5.85-3.25v6.04Z"/>
</svg>
