<svg xmlns="http://www.w3.org/2000/svg" viewBox="0 0 20 20">
  <path d="M16.83 16.82C17.55 16.1 18 15.1 18 14c0-2.21-1.79-4-4-4-1.1 0-2.09.44-2.81 1.16h-.01v.01c-.72.72-1.16 1.72-1.16 2.82 0 2.21 1.79 4 4 4 1.1 0 2.1-.45 2.82-1.17h-.01ZM17 14c0 .65-.21 1.24-.56 1.73l-4.17-4.17c.49-.35 1.09-.56 1.73-.56 1.65 0 3 1.35 3 3Zm-6 0c0-.65.21-1.24.56-1.73l4.17 4.17c-.49.35-1.09.56-1.73.56-1.65 0-3-1.35-3-3Z"/>
  <path d="M14 7.66c0 .28.22.5.5.5s.5-.22.5-.5v-1.3c0-.26 0-.42-.06-.6-.05-.16-.14-.3-.25-.43-.13-.14-.28-.22-.5-.34L9.24 2.24c-.2-.11-.33-.18-.49-.22-.16-.03-.32-.03-.47 0-.17.03-.31.11-.53.23L2.81 5c-.22.12-.37.2-.5.34-.11.12-.2.27-.25.42-.06.18-.06.34-.06.6v5.41c0 .26 0 .42.06.6.05.16.14.3.25.43.13.14.27.21.5.34l4.93 2.74c.08.04.16.06.24.06.18 0 .35-.09.44-.26.13-.24.05-.55-.19-.68L3.3 12.26c-.11-.06-.23-.13-.28-.21V6.57l5 2.78v1.47c0 .28.22.5.5.5s.5-.22.5-.5V9.35l5-2.78v1.08l-.02.01Zm-5.5.84L3.53 5.74 5.5 4.65l4.97 2.76L8.5 8.5Zm3-1.67L6.53 4.07l1.72-.95c.09-.05.19-.1.29-.11.03 0 .12.06.24.12l4.7 2.61-1.97 1.09h-.01Z"/>
</svg>
