<svg xmlns="http://www.w3.org/2000/svg" viewBox="0 0 20 20">
  <path d="m9 9.37 5-2.78v1.08c0 .28.22.5.5.5s.5-.22.5-.5v-1.3c0-.26 0-.42-.06-.6-.05-.16-.14-.3-.25-.43-.13-.14-.27-.22-.5-.34L9.26 2.26c-.21-.12-.35-.2-.52-.23-.16-.03-.32-.03-.47 0-.18.04-.32.11-.53.23L2.8 5c-.23.13-.37.2-.5.34-.11.12-.2.27-.25.42-.06.18-.06.34-.06.6v5.41c0 .26 0 .42.06.6.05.16.14.3.25.42.13.14.27.22.5.34l3.62 2.01c.08.04.16.06.24.06.18 0 .35-.09.44-.26.13-.24.05-.55-.19-.68l-3.62-2.01c-.11-.06-.22-.12-.28-.21V6.56l5 2.78v2.21c0 .28.22.5.5.5s.5-.22.5-.5V9.34L9 9.37Zm-.77-6.24c.1-.05.21-.12.31-.12.03 0 .14.07.24.13l4.7 2.61-1.97 1.1-4.97-2.76 1.7-.94-.01-.02ZM8.5 8.5 3.53 5.74 5.5 4.65l4.97 2.76L8.5 8.5Z"/>
  <path d="M17.96 13.58c-.06-.18-.18-.28-.33-.4l-3.72-3.19c-.24-.2-.41-.35-.66-.36-.22 0-.44.09-.58.26-.16.2-.16.41-.16.74v1.48c-.88.24-1.69.73-2.3 1.42C9.43 14.4 9 15.52 9 16.69v.27a.496.496 0 0 0 .88.32 4.491 4.491 0 0 1 2.63-1.54v1.27c0 .33 0 .54.16.74.14.17.34.26.55.26h.02c.25 0 .43-.15.67-.36l3.72-3.19c.14-.12.26-.22.32-.4.06-.16.06-.33 0-.48h.01Zm-4.45 3.1v-1.52c0-.14-.06-.27-.16-.37a.467.467 0 0 0-.34-.13h-.03c-.7.05-1.38.23-2.01.53-.29.14-.57.31-.83.49.15-.55.43-1.06.81-1.49.56-.62 1.32-1.05 2.15-1.19.24-.04.41-.25.41-.49v-1.56l3.34 2.86-3.34 2.86v.01Z"/>
</svg>
