<svg xmlns="http://www.w3.org/2000/svg" viewBox="0 0 20 20">
  <path d="m18 10.835-.06-3.04c-.09-.89-.31-1.46-.75-1.9-.56-.56-1.29-.71-2.22-.77a4.24 4.24 0 0 0-3.48-1.82c-1.44 0-2.67.71-3.45 1.78H6.99c-2.26 0-3.39 0-4.19.81-.81.81-.81 1.94-.81 4.19 0 2.25 0 3.39.81 4.19.46.46 1.04.65 1.86.74l-.42.84a.55.55 0 0 0 .25.75c.28.14.61.03.75-.25l.64-1.28h8.22l.64 1.28c.14.28.48.39.76.25s.39-.48.25-.75l-.42-.84c.82-.08 1.4-.28 1.86-.74.74-.74.8-1.79.8-3.45l.01.01Zm-6.5-6.52c1.79 0 3.25 1.46 3.25 3.25s-1.46 3.25-3.25 3.25-3.25-1.46-3.25-3.25 1.46-3.25 3.25-3.25Zm4.99 9.27c-.51.51-1.51.51-3.49.51H7c-1.98 0-2.98 0-3.49-.51-.51-.51-.51-1.51-.51-3.49 0-1.98 0-2.98.51-3.49.51-.51 1.51-.51 3.49-.51h.53c-.17.46-.28.95-.28 1.47a4.26 4.26 0 0 0 4.25 4.25 4.26 4.26 0 0 0 4.25-4.25c0-.48-.1-.94-.25-1.37.47.08.77.2.98.42.26.26.39.63.46 1.25l.06 2.99c0 1.58-.08 2.31-.51 2.74v-.01Z"/>
  <path d="M5.1 7.955c-.28 0-.5.22-.5.5v1.13c0 .28.22.5.5.5s.5-.22.5-.5v-1.13c0-.28-.22-.5-.5-.5Z"/>
</svg>
