<svg xmlns="http://www.w3.org/2000/svg" viewBox="0 0 20 20">
  <path d="M6.5 17h-.4c-1.34 0-2.01 0-2.6-.3a2.68 2.68 0 0 1-1.2-1.2c-.3-.59-.3-1.26-.3-2.6V6.1c0-1.34 0-2.01.3-2.6.27-.52.68-.94 1.2-1.2C4.09 2 4.76 2 6.1 2h7.8c1.34 0 2.01 0 2.6.3.52.27.94.68 1.2 1.2.3.59.3 1.26.3 2.6v1.26c0 .28-.22.5-.5.5s-.5-.22-.5-.5v-.35H3v5.89c0 1.18 0 1.77.19 2.14.17.33.43.6.76.77.37.19.97.19 2.14.19h.4c.28 0 .5.22.5.5s-.22.5-.5.5h.01ZM3 6.01h13.99c0-1.12 0-1.69-.19-2.05-.17-.33-.43-.59-.76-.76-.37-.19-.96-.19-2.14-.19H6.1c-1.18 0-1.77 0-2.14.19-.33.17-.6.43-.76.76-.19.36-.19.93-.19 2.05H3Z"/>
  <path d="m17.73 14-.6-.67v-.16l.6-.67c.31-.35.35-.85.13-1.24l-.44-.77c-.23-.39-.67-.61-1.14-.51l-.89.18c-.04-.02-.08-.05-.12-.07l-.29-.87c-.15-.44-.55-.73-1.01-.73h-.88c-.46 0-.86.3-1.01.72l-.29.88c-.04.02-.08.04-.12.07l-.89-.18c-.46-.1-.91.12-1.14.51l-.44.77c-.23.4-.18.9.13 1.24l.6.67v.16l-.6.67c-.31.35-.35.85-.13 1.24l.44.77c.23.39.67.61 1.14.51l.89-.18c.04.02.08.05.12.07l.29.87c.15.44.55.73 1.01.73h.88c.46 0 .86-.3 1.01-.72l.29-.88c.04-.02.08-.04.12-.07l.89.18c.46.1.91-.12 1.14-.51l.44-.77c.23-.4.18-.9-.13-1.24Zm-.74.74-.44.76s-.02.03-.04.03h-.03l-1.08-.22c-.14-.03-.28 0-.39.08-.11.08-.23.15-.37.21-.12.06-.22.16-.26.29l-.35 1.04s-.01.03-.03.04c-.01 0-.03.01-.04.01h-.88s-.06-.02-.07-.05l-.35-1.05a.509.509 0 0 0-.24-.28 4.74 4.74 0 0 1-.4-.23.512.512 0 0 0-.38-.08l-1.08.22h-.04c-.01 0-.03-.02-.04-.04l-.44-.76v-.08l.73-.83c.09-.1.13-.23.13-.37 0-.09-.01-.16-.01-.23s0-.14.01-.23c0-.13-.04-.27-.13-.37l-.73-.82s-.02-.05 0-.07l.44-.77s.02-.03.04-.03h.03l1.08.22c.14.03.28 0 .39-.08.11-.08.23-.15.37-.21.12-.06.22-.16.26-.29L13 9.51s.01-.03.03-.04c.01 0 .03-.01.04-.01h.88s.06.02.07.05l.35 1.05c.04.12.13.23.24.29.15.08.28.15.4.23.11.08.25.1.38.08l1.08-.22h.04c.01 0 .03.02.04.03l.44.76v.08l-.73.83a.54.54 0 0 0-.13.37c0 .09.01.16.01.23s0 .14-.01.23c0 .13.04.27.13.37l.73.82s.02.05 0 .07v.01Z"/>
  <path d="M13.52 11.33a1.92 1.92 0 1 0 .001 3.841 1.92 1.92 0 0 0-.001-3.841Zm0 2.84c-.51 0-.92-.41-.92-.92s.41-.92.92-.92.92.41.92.92-.41.92-.92.92Z"/>
</svg>
