<svg xmlns="http://www.w3.org/2000/svg" viewBox="0 0 20 20">
  <path d="M9.39 18.02c-.47 0-.76 0-1.01-.18a.941.941 0 0 1-.38-.66c-.03-.31.11-.55.35-.96l3.61-6.23c.24-.41.38-.66.66-.78a.94.94 0 0 1 .77 0c.27.12.42.37.65.78l3.61 6.23c.24.41.38.66.35.96-.03.27-.17.51-.38.66-.25.18-.53.18-1.01.18H9.39Zm3.43-7.53-3.61 6.23c-.06.11-.13.22-.17.3h7.91a7.84 7.84 0 0 0-.18-.3l-3.61-6.23c-.06-.11-.13-.22-.18-.3-.04.07-.1.19-.17.3h.01Zm.17 4.24c-.28 0-.5-.22-.5-.5v-1.75c0-.28.22-.5.5-.5s.5.22.5.5v1.75c0 .28-.22.5-.5.5Z"/>
  <path d="M12.99 16.48c-.33 0-.6-.26-.6-.59 0-.34.27-.61.6-.61.33 0 .6.27.6.6 0 .33-.27.61-.6.61v-.01Zm-8.06.51h-.02c-.23 0-.43-.02-.6-.05-.32-.04-.58-.12-.81-.24a2.73 2.73 0 0 1-1.2-1.2c-.3-.59-.3-1.26-.3-2.6V6.1c0-1.34 0-2.01.3-2.6.25-.52.67-.93 1.19-1.2.59-.3 1.26-.3 2.6-.3h7.8c1.34 0 2.01 0 2.6.3.52.27.94.68 1.2 1.2.3.59.3 1.26.3 2.6v3.41c0 .28-.22.5-.5.5s-.5-.22-.5-.5v-2.5h-14v5.89c0 1.18 0 1.77.19 2.14.17.33.44.6.77.77.13.07.28.11.5.14.15.02.31.03.5.04.28.01.49.24.48.52 0 .27-.23.48-.5.48ZM2.99 6.01h13.99c0-1.12 0-1.69-.19-2.05-.17-.33-.43-.59-.76-.76-.37-.19-.96-.19-2.14-.19h-7.8c-1.18 0-1.77 0-2.14.19-.33.17-.59.43-.76.76C3 4.32 3 4.89 3 6.01h-.01Z"/>
</svg>
