<svg xmlns="http://www.w3.org/2000/svg" viewBox="0 0 20 20">
  <path d="M13.5 18C11.02 18 9 15.98 9 13.5c0-1.22.49-2.34 1.29-3.15 0-.01.02-.02.03-.03l.03-.03C11.16 9.49 12.27 9 13.5 9c2.48 0 4.5 2.02 4.5 4.5 0 1.22-.49 2.34-1.29 3.15 0 .01-.02.02-.03.03l-.03.03c-.81.8-1.92 1.29-3.15 1.29Zm-2.8-6.59c-.44.58-.7 1.31-.7 2.09 0 1.93 1.57 3.5 3.5 3.5.79 0 1.51-.26 2.1-.7l-4.9-4.9v.01Zm.7-.71 4.9 4.9c.44-.58.7-1.31.7-2.09 0-1.93-1.57-3.5-3.5-3.5-.79 0-1.51.26-2.1.7v-.01Z"/>
  <path d="M6.1 17c-1.34 0-2.01 0-2.6-.3a2.68 2.68 0 0 1-1.2-1.2c-.3-.59-.3-1.26-.3-2.6V6.1c0-1.34 0-2.01.3-2.6.27-.52.68-.94 1.2-1.2C4.09 2 4.76 2 6.1 2h7.8c1.34 0 2.01 0 2.6.3.52.26.94.68 1.2 1.2.3.59.3 1.26.3 2.6v2.05c0 .28-.22.5-.5.5s-.5-.22-.5-.5V7.01H3v5.89c0 1.18 0 1.77.19 2.14.17.33.43.6.76.77.37.19.97.19 2.14.19.28 0 .5.22.5.5s-.22.5-.5.5h.01ZM3 6.01h13.99c0-1.12 0-1.69-.19-2.05-.17-.33-.43-.59-.76-.76-.37-.19-.97-.19-2.14-.19H6.1c-1.18 0-1.77 0-2.14.19-.33.17-.6.43-.76.76-.19.36-.19.93-.19 2.05H3Z"/>
</svg>
