<svg xmlns="http://www.w3.org/2000/svg" viewBox="0 0 20 20">
  <path d="M14.62 18H8.38c-1.06 0-1.64 0-2.14-.28-.43-.24-.78-.62-.99-1.1-.24-.53-.24-1.12-.24-2.32V8.7c0-1.19 0-1.79.24-2.32.22-.47.56-.85.99-1.1C6.74 5 7.32 5 8.38 5h6.24c1.06 0 1.64 0 2.14.28.43.25.78.63.99 1.1.24.53.24 1.13.24 2.32v5.6c0 1.19 0 1.79-.24 2.32-.22.48-.56.86-1 1.1-.5.28-1.08.28-2.14.28h.01ZM6 9.99v4.31c0 1.05 0 1.57.15 1.9.13.28.33.51.58.65.27.15.76.15 1.65.15h6.24c.89 0 1.38 0 1.65-.15.25-.14.45-.37.58-.65.15-.33.15-.85.15-1.9V9.99H6Zm0-1h11V8.7c0-1.05 0-1.57-.15-1.9-.13-.28-.33-.51-.58-.65C16 6 15.51 6 14.62 6H8.38C7.49 6 7 6 6.73 6.15c-.25.14-.45.37-.58.65C6 7.13 6 7.65 6 8.7v.29Z"/>
  <path d="M3.42 15.01c-.08 0-.15-.02-.23-.05-.42-.21-.75-.54-.96-.96-.24-.47-.24-.98-.24-2.01V5.2c0-1.02 0-1.54.24-2.01.21-.42.54-.75.96-.96.47-.24.98-.24 2.01-.24h6.78c1.02 0 1.54 0 2.01.24.42.21.75.54.96.96.13.25.03.55-.22.67s-.55.03-.67-.22c-.11-.22-.3-.41-.52-.52-.25-.13-.72-.13-1.55-.13H5.2c-.84 0-1.3 0-1.55.13-.22.11-.41.3-.52.52C3 3.9 3 4.36 3 5.19v6.79c0 .84 0 1.3.13 1.55.11.23.29.41.52.52a.5.5 0 0 1 .22.67c-.09.17-.26.27-.45.27v.02Z"/>
</svg>
