<svg xmlns="http://www.w3.org/2000/svg" viewBox="0 0 20 20">
  <path d="M8.32 18H6.47c-1.02 0-1.84-.83-1.84-1.84V6.37c0-1.02.83-1.84 1.84-1.84h9.69c1.02 0 1.84.83 1.84 1.84v2.85c0 .28-.22.5-.5.5s-.5-.22-.5-.5V9H5.63v7.16c0 .46.38.84.84.84h1.85c.28 0 .5.22.5.5s-.22.5-.5.5ZM5.63 8H17V6.37c0-.46-.38-.84-.84-.84H6.47c-.46 0-.84.38-.84.84V8Z"/>
  <path d="M12.17 18a.47.47 0 0 1-.35-.15l-2.67-2.67c-.2-.2-.2-.51 0-.71.2-.2.51-.2.71 0l2.31 2.31 4.98-4.98c.2-.2.51-.2.71 0 .2.2.2.51 0 .71l-5.33 5.33a.51.51 0 0 1-.35.15l-.01.01Zm-.65-5.96H8.51c-.28 0-.5-.22-.5-.5s.22-.5.5-.5h3.01c.28 0 .5.22.5.5s-.22.5-.5.5Zm-8.1 2.97c-.08 0-.15-.02-.23-.05-.42-.21-.75-.54-.96-.96-.24-.47-.24-.98-.24-2.01V5.2c0-1.02 0-1.54.24-2.01.21-.42.54-.75.96-.96.47-.24.98-.24 2.01-.24h6.78c1.02 0 1.54 0 2.01.24.42.21.75.54.96.96.13.25.03.55-.22.67s-.55.03-.67-.22c-.11-.22-.3-.41-.52-.52-.25-.13-.72-.13-1.55-.13H5.2c-.84 0-1.3 0-1.55.13-.22.11-.41.3-.52.52C3 3.9 3 4.36 3 5.19v6.79c0 .84 0 1.3.13 1.55.11.23.29.41.52.52a.5.5 0 0 1 .22.67c-.09.17-.26.27-.45.27v.02Z"/>
</svg>
