<svg xmlns="http://www.w3.org/2000/svg" viewBox="0 0 20 20">
  <path d="M17.73 3.53c-.24-.53-.62-.95-1.1-1.21-.55-.31-1.17-.31-2.39-.31H5.76c-1.23 0-1.84 0-2.39.31-.48.27-.86.69-1.1 1.22C2 4.12 2 4.79 2 6.13v7.76c0 1.34 0 2.01.27 2.59.24.53.62.95 1.1 1.21.55.31 1.17.31 2.39.31H9.7c.28 0 .5-.22.5-.5s-.22-.5-.5-.5H5.76c-1.05 0-1.58 0-1.9-.18-.29-.17-.53-.43-.68-.76C3 15.68 3 15.08 3 13.88V6h14v2.65c0 .28.22.5.5.5s.5-.22.5-.5V6.12c0-1.34 0-2.01-.27-2.59ZM3.01 5c.02-.48.05-.82.16-1.06.15-.33.39-.6.68-.76C4.17 3 4.7 3 5.75 3h8.49c1.05 0 1.58 0 1.9.18.29.16.53.43.68.76.11.24.15.57.16 1.06H3.01Z"/>
  <path d="M8.98 9H5.5c-.28 0-.5.22-.5.5s.22.5.5.5h3.48c.28 0 .5-.22.5-.5s-.22-.5-.5-.5Zm0 3H5.5c-.28 0-.5.22-.5.5s.22.5.5.5h3.48c.28 0 .5-.22.5-.5s-.22-.5-.5-.5Zm8.52 2H15v-2.5c0-.28-.22-.5-.5-.5s-.5.22-.5.5V14h-2.5c-.28 0-.5.22-.5.5s.22.5.5.5H14v2.5c0 .28.22.5.5.5s.5-.22.5-.5V15h2.5c.28 0 .5-.22.5-.5s-.22-.5-.5-.5Z"/>
</svg>
