<svg xmlns="http://www.w3.org/2000/svg" viewBox="0 0 20 20">
  <path d="M13.9 18H6.1c-1.35 0-2.02 0-2.62-.34-.52-.29-.93-.75-1.19-1.32C2 15.71 2 14.97 2 13.5v-7c0-1.47 0-2.21.29-2.84.26-.57.67-1.03 1.19-1.32C4.08 2 4.75 2 6.1 2h7.8c1.35 0 2.02 0 2.62.34.52.29.93.75 1.19 1.32.29.63.29 1.37.29 2.84v7c0 1.47 0 2.21-.29 2.84-.26.57-.67 1.03-1.19 1.32-.6.34-1.27.34-2.62.34ZM3 6v7.5c0 1.33 0 1.99.2 2.43.17.37.45.68.78.87.37.21.95.21 2.12.21h7.8c1.17 0 1.76 0 2.13-.21.33-.19.6-.49.78-.87.2-.44.2-1.1.2-2.43V6H3Zm.02-1h13.96c-.02-.41-.07-.7-.18-.93-.17-.37-.45-.68-.78-.87-.37-.21-.95-.21-2.12-.21H6.1c-1.17 0-1.76 0-2.13.21-.33.19-.6.49-.77.87-.1.23-.15.51-.18.93Z"/>
  <path d="M7.94 12.42c-.15 0-.29-.06-.39-.19a.495.495 0 0 1 .08-.7c1.34-1.07 3.37-1.08 4.72-.02a.495.495 0 1 1-.61.78c-1-.79-2.48-.78-3.48.02a.51.51 0 0 1-.31.11h-.01ZM14 10.45c-.12 0-.24-.04-.33-.12A5.557 5.557 0 0 0 10 8.95c-1.35 0-2.66.49-3.67 1.38-.21.18-.52.16-.71-.04a.514.514 0 0 1 .04-.71 6.561 6.561 0 0 1 4.33-1.63c1.6 0 3.13.58 4.33 1.63.21.18.23.5.04.71-.1.11-.24.17-.38.17l.02-.01Zm-4 4.66c-.49 0-.9-.4-.9-.9s.4-.9.9-.9.9.4.9.9-.4.9-.9.9Z"/>
</svg>
