<svg xmlns="http://www.w3.org/2000/svg" viewBox="0 0 20 20">
  <path d="M6.85 18H6.5c-1.48 0-2.22 0-2.86-.33-.57-.29-1.02-.74-1.31-1.31C2 15.72 2 14.98 2 13.5v-7c0-1.48 0-2.22.33-2.86.29-.56.75-1.03 1.31-1.31C4.28 2 5.02 2 6.5 2h7c1.48 0 2.22 0 2.86.33.57.29 1.02.74 1.31 1.31.33.64.33 1.39.33 2.86v1.3c0 .28-.23.5-.5.5-.28 0-.5-.22-.5-.5V7H3v6.5c0 1.32 0 1.98.22 2.41.19.38.49.68.87.87.43.22 1.09.22 2.41.22h.35c.28 0 .5.22.5.5s-.22.5-.5.5ZM3 6h14c0-.99-.03-1.54-.22-1.91-.19-.38-.5-.68-.87-.87C15.48 3 14.82 3 13.5 3h-7c-1.32 0-1.98 0-2.41.22-.37.19-.68.5-.87.87C3.03 4.46 3.01 5 3 6Z"/>
  <path d="M17.5 18a.47.47 0 0 1-.35-.15l-1.6-1.6c-.69.54-1.55.86-2.49.86-2.24 0-4.06-1.82-4.06-4.06 0-2.24 1.82-4.06 4.06-4.06 2.24 0 4.06 1.82 4.06 4.06 0 .94-.32 1.8-.86 2.49l1.6 1.6c.2.2.2.51 0 .71-.1.1-.23.15-.35.15h-.01Zm-4.45-8a3.06 3.06 0 1 0 2.13 5.26c0-.01.02-.02.03-.04.01-.02.02-.02.04-.03.53-.55.86-1.3.86-2.13 0-1.68-1.37-3.06-3.06-3.06Z"/>
</svg>
