<svg xmlns="http://www.w3.org/2000/svg" viewBox="0 0 20 20">
  <path d="M14.5 16h-9C3.57 16 2 14.43 2 12.5c0-1.27.68-2.39 1.7-3a3.495 3.495 0 0 1-1.7-3C2 4.57 3.57 3 5.5 3h9C16.43 3 18 4.57 18 6.5c0 1.27-.68 2.39-1.7 3 1.02.61 1.7 1.73 1.7 3 0 1.93-1.57 3.5-3.5 3.5Zm-9-6a2.5 2.5 0 0 0 0 5h9a2.5 2.5 0 0 0 0-5h-9Zm0-1h9a2.5 2.5 0 0 0 0-5h-9a2.5 2.5 0 0 0 0 5Zm4.01 4H5.5c-.28 0-.5-.22-.5-.5s.22-.5.5-.5h4.01c.28 0 .5.22.5.5s-.22.5-.5.5Zm0-6H5.5c-.28 0-.5-.22-.5-.5s.22-.5.5-.5h4.01c.28 0 .5.22.5.5s-.22.5-.5.5Z"/>
</svg>
