<svg xmlns="http://www.w3.org/2000/svg" viewBox="0 0 20 20">
  <path d="M10.37 18c-.28 0-.5-.22-.5-.5v-1.31c0-.66-.53-1.19-1.19-1.19-.66 0-1.19.53-1.19 1.19v1.31c0 .28-.22.5-.5.5h-.9c-1.34 0-2.01 0-2.6-.3a2.73 2.73 0 0 1-1.2-1.2c-.3-.59-.3-1.26-.3-2.6v-1.27c0-.28.22-.5.5-.5h1.12c.76 0 1.38-.62 1.38-1.38 0-.76-.62-1.38-1.38-1.38H2.5c-.28 0-.5-.22-.5-.5 0-1.11 0-1.67.21-2.18.28-.67.82-1.21 1.49-1.49.5-.21 1.06-.21 2.18-.21h.25v-.62c0-1.31 1.07-2.38 2.38-2.38 1.31 0 2.38 1.07 2.38 2.38v.62h.25c1.11 0 1.67 0 2.18.21.67.28 1.21.82 1.49 1.49.18.42.2.88.21 1.68h.63c1.31 0 2.38 1.07 2.38 2.38 0 1.31-1.07 2.38-2.38 2.38h-.62v.77c0 1.34 0 2.01-.3 2.6-.27.52-.68.94-1.2 1.2-.59.3-1.26.3-2.6.3h-.56Zm.51-1h.03c1.18 0 1.77 0 2.14-.19.33-.17.6-.43.77-.77.19-.37.19-.97.19-2.14v-1.27c0-.28.22-.5.5-.5h1.12c.76 0 1.38-.62 1.38-1.38 0-.76-.62-1.38-1.38-1.38h-1.12c-.28 0-.5-.22-.5-.5 0-.98 0-1.47-.13-1.8-.18-.42-.52-.77-.95-.95-.32-.13-.81-.13-1.8-.13h-.75c-.28 0-.5-.22-.5-.5V4.37c0-.76-.62-1.38-1.38-1.38-.76 0-1.38.62-1.38 1.38v1.12c0 .28-.22.5-.5.5h-.75c-.98 0-1.47 0-1.79.13-.43.18-.77.52-.95.95-.11.26-.13.64-.13 1.29h.62C4.93 8.36 6 9.43 6 10.74c0 1.31-1.07 2.38-2.38 2.38H3v.77c0 1.18 0 1.77.19 2.14.17.33.44.6.76.77.37.19.97.19 2.14.19h.4v-.81a2.19 2.19 0 1 1 4.38 0v.81l.01.01Z"/>
</svg>
