<svg xmlns="http://www.w3.org/2000/svg" viewBox="0 0 20 20">
  <path d="M17.85 15.29c-.09-.2-.23-.44-.39-.72L11.44 4.19c-.16-.28-.3-.52-.43-.7-.13-.18-.29-.36-.52-.47-.32-.14-.68-.14-1 0-.23.1-.39.29-.52.47s-.26.42-.43.7L2.55 14.57c-.16.28-.3.52-.39.72-.09.2-.17.43-.15.68.04.35.22.66.5.87.21.15.45.2.67.22.22.02.5.02.82.02h12.02c.32 0 .6 0 .82-.02.22-.02.46-.06.67-.22.28-.21.46-.52.5-.87.03-.26-.06-.49-.15-.68h-.01ZM6.93 9H13s.04-.01.07-.01l1.78 3.08h-9.7l1.77-3.06.01-.01Zm2.49-4.31c.17-.3.28-.49.38-.62.1-.13.13-.14.11-.13.06-.03.13-.03.19 0-.02 0 .01 0 .11.13.09.13.21.32.38.62L12.5 8H7.51l1.91-3.31Zm7.32 11.37c-.16.01-.38.02-.73.02H3.99c-.34 0-.56 0-.73-.02-.16-.02-.18-.04-.17-.03-.05-.04-.09-.1-.09-.16 0 .02 0-.01.06-.16.07-.15.18-.34.35-.64l1.16-2.01h10.75s.06-.01.09-.02l1.17 2.03c.17.3.28.49.35.64.07.15.06.18.06.16 0 .07-.04.12-.09.16.02-.01 0 .01-.17.03h.01Z"/>
</svg>
