<svg xmlns="http://www.w3.org/2000/svg" viewBox="0 0 20 20">
  <path d="M5.5 10c-1.5 0-2.33 0-2.91-.58C2 8.83 2 8.01 2 6.5s0-2.33.59-2.91C3.18 3.01 4 3 5.5 3c1.5 0 2.33 0 2.91.59C9 4.18 9 5 9 6.5 9 8 9 8.83 8.41 9.42 7.82 10 7 10 5.5 10Zm0-6c-1.33 0-1.93.01-2.21.29-.28.28-.29.88-.29 2.21s.01 1.93.29 2.21c.28.28.88.29 2.21.29s1.93-.01 2.21-.29c.28-.28.29-.88.29-2.21s-.01-1.93-.29-2.21C7.43 4.01 6.83 4 5.5 4Z"/>
  <path d="M4 16c-.21 0-.4-.13-.47-.34-.09-.26.05-.55.31-.63C6.33 14.19 8 11.81 8 9.12V5.76c0-.28.22-.5.5-.5s.5.22.5.5v3.36c0 3.13-1.95 5.88-4.84 6.86-.05.02-.11.03-.16.03V16Zm10.5-6c-1.5 0-2.33 0-2.91-.58C11 8.83 11 8.01 11 6.5s0-2.33.59-2.91C12.18 3.01 13 3 14.5 3c1.5 0 2.33 0 2.91.59C18 4.18 18 5 18 6.5c0 1.5 0 2.33-.59 2.92-.59.58-1.41.58-2.91.58Zm0-6c-1.33 0-1.93.01-2.21.29-.28.28-.29.88-.29 2.21s.01 1.93.29 2.21c.28.28.88.29 2.21.29s1.93-.01 2.21-.29c.28-.28.29-.88.29-2.21s-.01-1.93-.29-2.21c-.28-.28-.88-.29-2.21-.29Z"/>
  <path d="M13 16c-.21 0-.4-.13-.47-.34-.09-.26.05-.55.31-.63 2.49-.84 4.16-3.22 4.16-5.91V5.76c0-.28.22-.5.5-.5s.5.22.5.5v3.36c0 3.13-1.95 5.88-4.84 6.86-.05.02-.11.03-.16.03V16Z"/>
</svg>
