<svg xmlns="http://www.w3.org/2000/svg" viewBox="0 0 20 20">
  <path d="M17.87 7.82a.832.832 0 0 0-.11-.2c-.21-.28-1.19-1.52-2.57-2.56L13.7 3.94c-1.51-1.13-3.11-1.76-3.45-1.89 0 0-.03 0-.04-.01-.02 0-.05 0-.09-.02-.04 0-.07-.02-.11-.02-.04 0-.07.01-.11.02-.04 0-.06 0-.09.02-.02 0-.04.01-.04.01-.35.13-1.95.75-3.45 1.89L4.83 5.06a13.95 13.95 0 0 0-2.58 2.56s-.07.09-.11.2c-.04.11-.03.23-.03.23 0 .35.08 1.92.59 3.55l.68 2.17c.54 1.72 1.44 3.11 1.64 3.41 0 0 .06.1.16.18.1.08.21.1.22.1.35.1 1.96.54 3.79.54h1.62c1.83 0 3.44-.44 3.79-.54 0 0 .12-.03.22-.1s.16-.17.16-.18c.2-.3 1.1-1.69 1.64-3.41l.68-2.17c.51-1.63.58-3.21.59-3.55 0 0 0-.12-.03-.23h.01Zm-3.28-1.96c.91.68 1.63 1.46 2.04 1.94l-3.46 1.57c-.07-.08-.13-.17-.21-.24-.21-.2-.48-.4-.8-.65l-.52-.39c-.31-.24-.58-.44-.82-.58-.1-.06-.21-.11-.32-.15V3.24c.64.28 1.63.78 2.59 1.5l1.49 1.12h.01Zm-2.83 6.77c-.08.16-.13.23-.19.28-.06.04-.14.09-.32.12-.19.04-.44.07-.83.1l-.43.04c-.5.05-.82.08-1.07.08-.24 0-.34-.04-.41-.09-.07-.05-.15-.13-.24-.34-.1-.23-.18-.54-.32-1.02l-.2-.72c-.12-.43-.2-.7-.23-.92-.03-.2-.02-.3.01-.37s.08-.16.25-.29c.17-.14.42-.29.8-.53l.27-.17c.35-.22.58-.36.77-.45.18-.08.27-.1.35-.1.08 0 .17.03.34.13.18.11.39.27.72.52l.52.39c.34.26.56.43.72.57.15.14.19.22.22.3.02.07.03.17-.01.36-.05.21-.13.47-.27.87l-.16.46c-.12.36-.21.6-.29.78ZM5.42 5.86l1.49-1.12c.96-.72 1.95-1.21 2.59-1.5v4.08c-.11.03-.21.07-.31.12-.25.12-.53.3-.87.5l-.27.17c-.36.22-.66.41-.89.59-.12.1-.24.2-.33.32L3.41 7.78c.41-.49 1.12-1.25 2.02-1.92h-.01Zm-1.08 7.61-.68-2.17c-.3-.96-.44-1.91-.5-2.55l3.36 1.22c0 .11 0 .22.02.33.05.29.14.63.26 1.04l.2.72c.12.42.22.77.33 1.06l-1.72 3.1c-.34-.56-.9-1.57-1.27-2.75ZM9.2 17c-1.06 0-2.04-.16-2.71-.3l1.5-2.7c.28.18.59.24.91.25.33 0 .72-.03 1.19-.08l.43-.04c.37-.04.68-.07.93-.12.08-.02.15-.04.23-.07l2.1 2.7c-.65.15-1.76.36-2.97.36H9.19h.01Zm5.35-1.01-2.06-2.64c.06-.09.12-.19.17-.3.11-.23.21-.53.33-.88l.16-.46c.13-.38.24-.71.3-.98.03-.14.05-.27.05-.41l3.35-1.52c-.06.64-.2 1.56-.49 2.5l-.68 2.17c-.32 1.03-.79 1.93-1.13 2.52Z"/>
</svg>
