<svg xmlns="http://www.w3.org/2000/svg" viewBox="0 0 20 20">
  <path d="M10 10c.28 0 .5-.22.5-.5v-7c0-.28-.22-.5-.5-.5s-.5.22-.5.5v7c0 .28.22.5.5.5Z"/>
  <path d="M17.85 8.44a8.025 8.025 0 0 0-2.19-4.1c-.2-.2-.51-.2-.71 0-.2.2-.2.51 0 .71.98.98 1.64 2.22 1.92 3.58.27 1.36.13 2.76-.4 4.04a6.944 6.944 0 0 1-2.58 3.14c-2.31 1.54-5.47 1.54-7.78 0a7.008 7.008 0 0 1-2.58-3.14A6.98 6.98 0 0 1 5 5.1v1.89c0 .28.22.5.5.5s.5-.22.5-.5v-3c0-.28-.22-.5-.5-.5h-3A.51.51 0 0 0 2 4c0 .28.22.5.5.5h1.71a8.034 8.034 0 0 0-2.06 3.94C1.84 10 2 11.6 2.61 13.06A8.022 8.022 0 0 0 10 18c1.58 0 3.12-.47 4.44-1.35a7.97 7.97 0 0 0 2.95-3.59c.61-1.47.77-3.07.46-4.62Z"/>
</svg>
