<svg xmlns="http://www.w3.org/2000/svg" viewBox="0 0 20 20">
  <path d="M13.29 14.49c.3 0 .49 0 .69-.1.18-.09.32-.23.42-.42.1-.2.1-.4.1-.69v-.77c0-.13 0-.22-.03-.33a.767.767 0 0 0-.12-.28c-.06-.1-.13-.17-.21-.25l-2.28-2.28c-.05-.05-.09-.09-.09-.05 0-.05.01-.12.03-.24a3.171 3.171 0 1 0-6.31-.43c0 1.89 1.7 3.39 3.6 3.14.12-.02.19-.03.17-.05.03.02.06.06.12.12l.53.53c.07.07.13.13.21.18.08.05.18.09.28.12.1.02.18.02.29.02h.13v.07c.04.44.38.78.82.82h.07v.07c.04.44.38.78.82.82h.76ZM11.9 12.6h-.07v-.07a.898.898 0 0 0-.82-.82h-.12l-.28-.04-.53-.53c-.12-.12-.2-.2-.31-.26a.92.92 0 0 0-.33-.11c-.13-.02-.25 0-.49.03-.1.01-.19.02-.29.02-1.19 0-2.17-.97-2.17-2.17s.97-2.17 2.17-2.17 2.17.97 2.17 2.17c0 .1 0 .2-.02.29-.03.23-.05.36-.03.49.02.12.05.21.11.32.06.12.14.2.27.33l2.27 2.27s.06.06.06.03v1.09h-.78v-.07a.898.898 0 0 0-.82-.82l.01.02Z"/>
  <path d="M8.67 7.27c-.37 0-.72.14-.98.41-.26.26-.41.61-.41.98 0 .28.22.5.5.5s.5-.22.5-.5c0-.1.04-.2.11-.27s.17-.11.28-.11c.28 0 .5-.22.5-.5s-.22-.5-.5-.5v-.01Zm1.85 9.72c-.47.03-.94.01-1.4-.05a.49.49 0 0 0-.56.43c-.04.27.15.53.43.56.36.05.72.07 1.08.07.17 0 .34 0 .52-.02.28-.02.48-.26.47-.53a.515.515 0 0 0-.53-.47l-.01.01Zm-3.61-.75c-.18-.09-.37-.2-.54-.31a.495.495 0 0 0-.69.16c-.15.23-.08.54.16.69.2.13.41.24.62.35.07.04.15.05.23.05.18 0 .36-.1.45-.27.13-.25.03-.55-.22-.67h-.01Zm7.09-.46c-.38.26-.8.49-1.22.67-.25.11-.37.4-.27.65.08.19.27.31.46.31.06 0 .13-.01.19-.04.49-.21.96-.47 1.4-.77a.51.51 0 0 0 .13-.7.51.51 0 0 0-.7-.13l.01.01Zm3.97-6.56a.49.49 0 0 0-.55-.44c-.27.03-.47.27-.44.55.03.24.04.49.04.73 0 .22-.01.44-.03.67-.03.27.17.52.45.55h.05c.25 0 .47-.19.5-.45a7.872 7.872 0 0 0 0-1.6l-.02-.01Zm-.93 3.5c-.25-.12-.55 0-.66.25-.19.42-.43.83-.71 1.2-.16.22-.12.54.11.7.09.07.19.1.3.1.15 0 .31-.07.4-.2.32-.43.59-.89.81-1.38.12-.25 0-.55-.25-.66v-.01Z"/>
  <path d="M3 9.94c0-1.86.72-3.6 2.03-4.91a6.959 6.959 0 0 1 9.83 0c.15.15.28.3.41.46h-1.59c-.28 0-.5.22-.5.5s.22.5.5.5h2.83c.13 0 .26-.05.35-.15.09-.1.15-.22.15-.35V3.16c0-.28-.23-.5-.5-.5s-.5.22-.5.5v1.65c-.14-.17-.28-.33-.44-.49-3.1-3.09-8.15-3.09-11.24 0C2.83 5.82 2 7.82 2 9.94s.83 4.12 2.33 5.62a.485.485 0 0 0 .7 0c.2-.2.2-.51 0-.71A6.907 6.907 0 0 1 3 9.94Z"/>
</svg>
