<svg xmlns="http://www.w3.org/2000/svg" viewBox="0 0 20 20">
  <path d="M17.5 3.185c-.28 0-.5.22-.5.5v3.26c-.57-.72-1.33-1.64-2.02-2.32a7.557 7.557 0 0 0-5.38-2.23c-.57 0-1.14.06-1.69.19a.503.503 0 0 0 .22.98c.48-.11.97-.16 1.47-.16 1.77 0 3.42.69 4.67 1.94.76.76 1.64 1.85 2.21 2.59h-3.73c-.28 0-.5.22-.5.5s.22.5.5.5h4.74s.08 0 .12-.01a.68.68 0 0 0 .21-.1c.05-.04.09-.1.12-.15.03-.06.05-.13.06-.2v-4.79c0-.28-.22-.5-.5-.5Zm-1.19 9.68c.21 0 .4-.13.47-.33v-.04h.02c.04-.12.08-.24.12-.37a.501.501 0 0 0-.34-.62.514.514 0 0 0-.62.34c-.03.11-.06.21-.1.32v.04a.496.496 0 0 0 .47.67l-.02-.01ZM3.89 2.795c-.2-.2-.51-.2-.71 0-.2.2-.2.51 0 .71l1.09 1.09A7.595 7.595 0 0 0 2 10.005c0 4.19 3.41 7.61 7.6 7.61 2.05 0 3.99-.83 5.41-2.28l1.88 1.88a.485.485 0 0 0 .7 0c.2-.2.2-.51 0-.71L3.89 2.795Zm5.71 13.81c-3.64 0-6.6-2.96-6.6-6.61 0-1.78.72-3.47 1.98-4.7l9.33 9.33a6.605 6.605 0 0 1-4.71 1.98Z"/>
</svg>
