<svg xmlns="http://www.w3.org/2000/svg" viewBox="0 0 20 20">
  <path d="M10.07 18c-.27 0-.5-.22-.5-.5s.22-.5.5-.5a7.03 7.03 0 0 0 6-3.5c1.93-3.34.78-7.63-2.56-9.56a6.943 6.943 0 0 0-5.31-.7A6.91 6.91 0 0 0 3.95 6.5a7.006 7.006 0 0 0 2.09 9.26l-.38-1.42a.5.5 0 0 1 .35-.61.5.5 0 0 1 .61.35l.61 2.28c.03.13.02.26-.05.38s-.18.2-.3.23l-2.28.61a.5.5 0 0 1-.61-.35.5.5 0 0 1 .35-.61l.85-.23C2 13.99 1.03 9.54 3.07 6a7.92 7.92 0 0 1 4.86-3.72c2.06-.56 4.22-.28 6.07.8 3.82 2.21 5.13 7.11 2.93 10.93a8.052 8.052 0 0 1-6.86 4V18Z"/>
  <path d="M11.84 12.39c-.1 0-.19-.03-.28-.08l-2.28-1.52a.495.495 0 0 1-.22-.42V6.56c0-.28.22-.5.5-.5s.5.22.5.5v3.54l2.06 1.37c.23.15.29.46.14.69-.1.14-.25.22-.42.22v.01Z"/>
</svg>
