<svg xmlns="http://www.w3.org/2000/svg" viewBox="0 0 20 20">
  <path d="M9.6 17.605c-4.19 0-7.6-3.41-7.6-7.61s3.41-7.6 7.6-7.6c2.03 0 3.94.79 5.38 2.23.69.69 1.44 1.6 2.02 2.32v-3.26c0-.28.22-.5.5-.5s.5.22.5.5v4.76c0 .07-.02.14-.05.2a.61.61 0 0 1-.12.16c-.05.05-.12.08-.19.1-.04.01-.1.02-.13.02h-4.73c-.28 0-.5-.22-.5-.5s.22-.5.5-.5h3.73c-.57-.74-1.45-1.83-2.21-2.59a6.567 6.567 0 0 0-4.67-1.94c-3.67 0-6.63 2.96-6.63 6.6 0 3.64 2.96 6.61 6.6 6.61 2.93 0 5.54-1.96 6.35-4.77a.501.501 0 0 1 .96.28c-.93 3.23-3.94 5.49-7.31 5.49Z"/>
</svg>
