<svg xmlns="http://www.w3.org/2000/svg" viewBox="0 0 20 20">
  <path d="M17.5 18.01h-15c-.28 0-.5-.22-.5-.5s.22-.5.5-.5h15c.28 0 .5.22.5.5s-.22.5-.5.5ZM17.5 3h-15c-.28 0-.5-.22-.5-.5s.22-.5.5-.5h15c.28 0 .5.22.5.5s-.22.5-.5.5Zm-.41 10.93c-.31 0-.54-.17-.95-.48l-3.23-2.42c-.29-.21-.48-.36-.57-.6a.937.937 0 0 1 0-.66c.09-.24.28-.39.57-.6l3.23-2.42c.42-.32.66-.48.97-.48.28 0 .53.13.7.35.19.25.19.54.19 1.06v4.83c0 .53 0 .82-.19 1.06a.89.89 0 0 1-.7.35h-.02v.01Zm-3.76-3.83s.12.08.18.13l3.22 2.42c.1.07.19.14.27.2V7.36c-.07.05-.17.13-.26.2l-3.22 2.42c-.06.05-.13.1-.18.14l-.01-.02ZM10 13.03H2.5c-.28 0-.5-.22-.5-.5s.22-.5.5-.5H10c.28 0 .5.22.5.5s-.22.5-.5.5Zm0-5H2.5c-.28 0-.5-.22-.5-.5s.22-.5.5-.5H10c.28 0 .5.22.5.5s-.22.5-.5.5Z"/>
</svg>
