<svg xmlns="http://www.w3.org/2000/svg" viewBox="0 0 20 20">
  <path d="M2.5 18a.506.506 0 0 1-.49-.57c.04-.31.45-3.1 1.71-4.16.41-.35.94-.52 1.47-.51.54.02 1.05.23 1.44.6.79.78.83 2.06.11 2.92-1.06 1.27-3.85 1.67-4.16 1.71h-.07L2.5 18Zm2.62-4.24c-.28 0-.55.1-.76.28-.64.53-1.04 1.91-1.24 2.85.94-.2 2.31-.61 2.85-1.24.39-.46.37-1.16-.04-1.56-.2-.19-.48-.31-.77-.32h-.04v-.01Zm4.69 3.09a.51.51 0 0 1-.5-.5v-3.64L7.3 10.7H3.65c-.15 0-.29-.07-.38-.18a.5.5 0 0 1-.11-.41c.05-.26.5-2.56 1.75-3.4 1.16-.77 3.11-.38 3.93-.16a10.53 10.53 0 0 1 3.58-3.25c1.53-.84 3.27-1.29 5.02-1.29h.06c.27 0 .5.22.5.5 0 2.5-.8 6.01-4.54 8.67.22.82.6 2.76-.16 3.92-.84 1.26-3.14 1.71-3.4 1.75h-.09Zm.5-4.01v2.87c.74-.21 1.77-.6 2.16-1.18.44-.66.29-1.94.1-2.79-.73.42-1.49.79-2.26 1.1Zm-2.22-2.77 1.84 1.84c.93-.37 1.83-.83 2.68-1.37 3.37-2.26 4.27-5.25 4.38-7.53-1.43.07-2.83.46-4.08 1.15a9.49 9.49 0 0 0-3.44 3.25c-.54.84-1 1.73-1.38 2.65v.01Zm-3.8-.38h2.88c.32-.78.69-1.53 1.12-2.26-.86-.19-2.15-.34-2.81.1-.58.39-.98 1.42-1.18 2.16h-.01Z"/>
</svg>
