<svg xmlns="http://www.w3.org/2000/svg" viewBox="0 0 20 20">
  <path d="M4.9 18.02c-.92 0-1.38 0-1.81-.22-.38-.19-.68-.5-.87-.88C2 16.5 2 16.03 2 15.12v-.45c0-.92 0-1.39.22-1.81.19-.38.49-.68.87-.87.43-.22.89-.22 1.81-.22h4.6v-4c0-.28.22-.5.5-.5s.5.22.5.5v4h4.6c.92 0 1.38 0 1.81.22.38.19.68.5.88.87.22.43.22.89.22 1.81v.45c0 .92 0 1.38-.22 1.81-.19.38-.5.68-.87.87-.43.22-.89.22-1.81.22H4.9Zm0-5.25c-.74 0-1.14 0-1.35.11-.19.1-.34.25-.44.44-.11.22-.11.62-.11 1.35v.45c0 .73 0 1.14.11 1.35.09.19.25.34.44.44.21.11.62.11 1.35.11h10.2c.73 0 1.14 0 1.35-.11.19-.1.34-.25.44-.44.11-.21.11-.62.11-1.35v-.45c0-.74 0-1.14-.11-1.35a.986.986 0 0 0-.44-.44c-.21-.11-.62-.11-1.35-.11H4.9Zm10.24 2.62h-.79c-.28 0-.5-.22-.5-.5s.22-.5.5-.5h.79c.28 0 .5.22.5.5s-.22.5-.5.5Zm-7.01 0h-3c-.28 0-.5-.22-.5-.5s.22-.5.5-.5h3c.28 0 .5.22.5.5s-.22.5-.5.5Zm9.11-5.52s-.09 0-.13-.02a.496.496 0 0 1-.35-.61c.6-2.26.05-4.65-1.47-6.41a.506.506 0 0 1 .05-.71c.21-.18.52-.16.71.05a8.007 8.007 0 0 1 1.68 7.32c-.06.22-.26.37-.48.37l-.01.01Zm-14.48 0c-.22 0-.42-.15-.48-.37-.7-2.58-.07-5.32 1.68-7.33.18-.21.5-.23.71-.05.21.18.23.5.05.71a6.998 6.998 0 0 0-1.48 6.41.5.5 0 0 1-.48.63Zm2.9-.79c-.22 0-.42-.15-.48-.37-.41-1.52-.07-3.16.9-4.4.17-.22.49-.25.7-.08.22.17.25.49.08.7-.78.98-1.05 2.3-.72 3.52a.5.5 0 0 1-.48.63Zm8.69 0s-.09 0-.13-.02a.489.489 0 0 1-.35-.61c.33-1.22.06-2.53-.72-3.52a.504.504 0 0 1 .08-.7c.22-.17.53-.13.7.08.97 1.23 1.31 2.87.9 4.4-.06.22-.26.37-.48.37Z"/>
</svg>
