<svg xmlns="http://www.w3.org/2000/svg" viewBox="0 0 20 20">
  <path d="M15.25 18c-1.52 0-2.75-1.23-2.75-2.75s1.23-2.75 2.75-2.75S18 13.73 18 15.25 16.77 18 15.25 18Zm0-4.5c-.96 0-1.75.79-1.75 1.75S14.29 17 15.25 17 17 16.21 17 15.25s-.79-1.75-1.75-1.75Zm-4.87 2.62h-.7c-2.49 0-3.63 0-4.21-.55-.5-.48-.72-1.17-.59-1.85.16-.78 1.08-1.44 3.11-2.87l3.06-2.16c1.53-1.08 2.64-1.86 2.71-2.25a.98.98 0 0 0-.29-.92c-.29-.27-1.64-.27-3.52-.27h-.33c-.28 0-.5-.22-.5-.5s.22-.5.5-.5h.33c2.49 0 3.63 0 4.2.54.5.48.72 1.17.59 1.85-.16.78-1.08 1.44-3.11 2.87l-3.06 2.16c-1.53 1.08-2.64 1.86-2.71 2.25-.07.34.04.69.29.92.29.27 1.64.27 3.52.27h.7c.28 0 .5.22.5.5s-.22.5-.5.5l.01.01ZM4.75 7.5C3.23 7.5 2 6.27 2 4.75S3.23 2 4.75 2 7.5 3.23 7.5 4.75 6.27 7.5 4.75 7.5Zm0-4.5C3.79 3 3 3.79 3 4.75S3.79 6.5 4.75 6.5 6.5 5.71 6.5 4.75 5.71 3 4.75 3Z"/>
</svg>
