<svg xmlns="http://www.w3.org/2000/svg" viewBox="0 0 20 20">
  <path d="M17.51 18H3.84c-.53 0-.82 0-1.11-.15-.25-.13-.45-.33-.58-.58C2 16.98 2 16.69 2 16.16V2.5c.01-.28.23-.5.51-.5s.5.22.5.5v13.67c0 .31 0 .58.04.65.03.06.08.11.15.15.07.04.34.04.65.04h13.67c.28 0 .5.22.5.5s-.22.5-.5.5l-.01-.01Z"/>
  <path d="M7.52 14.08a.749.749 0 1 1-.002-1.502.749.749 0 0 1 .002 1.502Zm7.5-4.16a.749.749 0 1 1-.002-1.502.749.749 0 0 1 .002 1.502Zm-5.84 0a.749.749 0 1 1-.002-1.502.749.749 0 0 1 .002 1.502Zm2-4.17a.749.749 0 1 1-.002-1.502.749.749 0 0 1 .002 1.502Zm5.5-1.67a.749.749 0 1 1-.002-1.502.749.749 0 0 1 .002 1.502Z"/>
</svg>
