<svg xmlns="http://www.w3.org/2000/svg" viewBox="0 0 20 20">
  <path d="M10.01 7.84c.28 0 .5-.22.5-.5V6.25c0-.28-.22-.5-.5-.5s-.5.22-.5.5v1.09c0 .28.22.5.5.5ZM7.52 5.75c-.28 0-.5.22-.5.5v1.09c0 .28.22.5.5.5s.5-.22.5-.5V6.25c0-.28-.22-.5-.5-.5Z"/>
  <path d="m15.81 6.25-3.02-3.04a.712.712 0 0 0-.5-.21H4.71c-.39 0-.7.31-.7.7v5.09c0 .19.07.36.2.49l.64.65.02 1.63-.67.67c-.13.13-.2.31-.2.49v2.5C4 16.2 4.79 17 5.77 17h8.46c.98 0 1.77-.8 1.77-1.78V6.75c0-.18-.07-.36-.2-.49l.01-.01Zm-.8 8.97c0 .43-.35.78-.77.78H5.78c-.42 0-.77-.35-.77-.78v-2.38l.58-.58c.17-.17.27-.41.27-.65V9.9c0-.24-.1-.48-.27-.65l-.58-.58V4h7.15l2.85 2.87v8.35Z"/>
  <path d="M12 7.1v.24c0 .28.22.5.5.5s.5-.22.5-.5V7.1c0-.28-.22-.5-.5-.5s-.5.22-.5.5Zm-1.44 5.32a.596.596 0 0 0-.5-.27l-.35.04-.87 1.31a.6.6 0 0 0-.03.62c.1.2.31.32.53.32h1.45a.603.603 0 0 0 .5-.94l-.72-1.08h-.01Z"/>
</svg>
