<svg xmlns="http://www.w3.org/2000/svg" viewBox="0 0 20 20">
  <path d="M17.5 17a.47.47 0 0 1-.35-.15l-3.04-3.04c-.44.38-.92.7-1.45.96a.5.5 0 1 1-.44-.9c.56-.27 1.07-.64 1.51-1.06.01-.02.03-.03.04-.05l.04-.04a5.755 5.755 0 0 0 1.64-4C15.45 5.56 12.88 3 9.73 3S4 5.57 4 8.72c0 .46.06.93.17 1.37.07.27-.1.54-.37.6a.49.49 0 0 1-.6-.37 6.69 6.69 0 0 1-.19-1.61C3 5.02 6.02 2 9.72 2s6.72 3.02 6.72 6.72c0 1.63-.6 3.18-1.63 4.38l3.04 3.04c.2.2.2.51 0 .71-.1.1-.23.15-.35.15Z"/>
  <path d="M10.61 18H3.39c-.48 0-.76 0-1.01-.18a.978.978 0 0 1-.38-.66c-.03-.3.11-.55.35-.96l3.61-6.23c.24-.41.38-.66.66-.78.24-.11.52-.11.76 0 .28.12.42.37.66.78l3.61 6.23c.24.41.38.66.35.96-.03.27-.17.51-.38.66-.25.18-.53.18-1.01.18ZM7 10.17c-.04.07-.11.19-.17.3L3.22 16.7c-.06.11-.13.22-.17.31h7.91c-.04-.07-.11-.18-.18-.3l-3.61-6.23c-.06-.11-.13-.22-.18-.3l.01-.01Z"/>
  <path d="M7 14.78c-.28 0-.5-.22-.5-.5v-1.56c0-.28.22-.5.5-.5s.5.22.5.5v1.56c0 .28-.22.5-.5.5Zm-.02 1.69c-.33 0-.62-.27-.62-.6 0-.33.25-.6.58-.6h.03c.33 0 .6.27.6.6 0 .33-.27.6-.6.6h.01Z"/>
</svg>
