<svg xmlns="http://www.w3.org/2000/svg" viewBox="0 0 20 20">
  <path d="M9.479 17.328c.167.09.25.135.366.158.09.018.22.018.31 0 .116-.023.2-.068.366-.158 1.543-.833 5.979-3.554 5.979-7.31V6.836c0-.673 0-1.01-.106-1.299a1.686 1.686 0 0 0-.445-.664c-.224-.205-.528-.323-1.136-.56L10.456 2.62a1.63 1.63 0 0 0-.34-.111.785.785 0 0 0-.232 0 1.683 1.683 0 0 0-.34.111L5.187 4.313c-.608.236-.912.354-1.136.559-.198.18-.35.409-.445.664-.106.29-.106.626-.106 1.299v3.184c0 3.755 4.436 6.476 5.979 7.309Z"/>
  <path d="M9 12.5a.47.47 0 0 1-.35-.15l-2-2c-.2-.2-.2-.51 0-.71.2-.2.51-.2.71 0l1.65 1.65 3.65-3.65c.2-.2.51-.2.71 0 .2.2.2.51 0 .71l-4 4c-.1.1-.23.15-.35.15H9Z"/>
  <path d="M10 18c-.09 0-.18 0-.26-.02-.19-.04-.32-.11-.5-.21C7.36 16.75 3 13.97 3 10.02V6.84c0-.71 0-1.1.14-1.47.12-.33.32-.63.58-.86.29-.27.65-.41 1.29-.66l4.35-1.7c.19-.07.31-.12.45-.14.13-.02.26-.02.38 0 .14.02.26.07.45.14L15 3.84c.65.25 1 .39 1.29.66.26.23.46.53.58.86.14.37.14.76.14 1.47v3.18c0 3.95-4.36 6.74-6.24 7.75-.19.1-.32.17-.51.21-.08.02-.16.02-.25.02L10 18Zm-.28-1.11c.14.08.18.1.22.11h.11c.04 0 .08-.03.22-.1 1.35-.73 5.73-3.36 5.73-6.87V6.85c0-.61 0-.92-.08-1.13-.07-.18-.17-.34-.31-.47-.16-.14-.43-.25-.98-.46L10.27 3.1c-.12-.04-.2-.08-.23-.08-.11 0-.2.04-.32.08L5.36 4.79c-.55.21-.83.32-.98.46-.14.13-.25.29-.31.47-.08.2-.08.51-.08 1.13v3.18c0 3.51 4.38 6.15 5.72 6.87l.01-.01Z"/>
</svg>
