<svg xmlns="http://www.w3.org/2000/svg" viewBox="0 0 20 20">
  <path d="M15.61 10.5c-.32 3.47-4.1 5.99-5.51 6.81-.17.1-.25.15-.37.17-.05 0-.1.01-.16.01v-7.5l5.58.03c.26 0 .48.21.45.48h.01Zm-12.1-.58c0 .05.05.09.1.08h5.96V2.5h-.11c-.08.01-.16.04-.32.1L5.08 4.12c-.57.21-.85.32-1.06.5-.18.16-.33.37-.41.6-.1.26-.1.56-.1 1.17v3.53Z"/>
  <path d="M9.57 18c-.09 0-.19 0-.27-.03-.2-.04-.33-.12-.52-.23C7.04 16.73 3 13.94 3 10.02V6.4c0-.65 0-1 .13-1.35.12-.31.31-.58.55-.8.28-.25.61-.37 1.21-.6l4.08-1.51c.18-.07.29-.11.42-.13.12-.02.24-.02.36 0 .13.02.24.06.42.13l4.06 1.52c.6.23.94.35 1.21.6.24.21.44.49.55.79.13.35.13.7.13 1.35v3.62c0 3.92-4.04 6.7-5.78 7.72-.19.11-.32.19-.52.23-.08.02-.17.03-.26.03h.01Zm-.27-1.12c.15.08.19.11.22.12h.11c.04 0 .08-.03.22-.12 1.24-.72 5.29-3.35 5.29-6.85V6.41c0-.54 0-.82-.07-.99-.06-.15-.15-.29-.28-.4-.14-.12-.41-.23-.9-.41L9.83 3.09a.962.962 0 0 0-.21-.07c-.1 0-.19.04-.29.07L5.27 4.61c-.49.18-.76.29-.9.41-.12.11-.22.25-.28.4-.07.17-.07.45-.07.99v3.62c0 3.5 4.05 6.13 5.29 6.85H9.3Z"/>
</svg>
