<svg xmlns="http://www.w3.org/2000/svg" viewBox="0 0 20 20">
  <path d="M16.86 5.36c-.12-.33-.32-.63-.58-.86-.29-.27-.65-.41-1.29-.66l-4.35-1.69c-.18-.07-.3-.12-.45-.14a1.21 1.21 0 0 0-.38 0c-.14.02-.26.07-.45.14L5 3.85c-.64.25-1 .39-1.29.66-.26.23-.46.53-.58.86-.14.37-.14.76-.14 1.47v3.18c0 3.95 4.36 6.74 6.24 7.75.18.1.31.17.49.2.08.02.17.02.26.02s.18 0 .25-.02c.19-.04.32-.11.51-.21 1.88-1.01 6.24-3.8 6.24-7.75V6.83c0-.71 0-1.1-.14-1.47h.02ZM16 10.02c0 3.51-4.38 6.15-5.73 6.87-.14.08-.18.1-.22.1h-.11c-.04 0-.08-.03-.22-.1C8.38 16.17 4 13.53 4 10.02V6.84c0-.61 0-.92.08-1.13.07-.18.17-.34.31-.47.16-.14.43-.25.98-.46l4.36-1.69c.11-.04.2-.08.32-.08.03 0 .12.04.23.08l4.36 1.69c.55.21.82.32.98.46.14.13.25.29.31.47.08.21.08.51.08 1.13v3.18H16Z"/>
  <path d="M13.43 8.63c-.16-.31-.41-.57-.73-.73-.08-.04-.17-.07-.26-.09v-.37C12.44 6.09 11.35 5 10 5 8.65 5 7.55 6.09 7.55 7.44v.37c-.09.02-.17.05-.26.09-.31.16-.57.41-.73.73-.1.21-.15.42-.16.65-.02.22-.02.49-.02.81v.54c0 .32 0 .59.02.81.02.23.06.44.16.65.16.31.41.57.73.73.21.11.42.15.65.16.22.02.49.02.81.02h2.49c.32 0 .59 0 .81-.02.23-.02.44-.06.65-.16.31-.16.57-.41.73-.73.11-.21.15-.42.16-.65.02-.22.02-.49.02-.81v-.54c0-.32 0-.59-.02-.81-.02-.23-.06-.44-.16-.65ZM10 6c.8 0 1.44.65 1.44 1.44v.28H8.55v-.28C8.55 6.64 9.2 6 10 6Zm2.61 4.63c0 .34 0 .56-.01.73-.01.16-.04.23-.06.28-.06.13-.17.23-.29.29-.04.02-.11.05-.28.06-.17.01-.39.01-.73.01H8.75c-.33 0-.56 0-.72-.01-.16-.01-.23-.04-.28-.06a.627.627 0 0 1-.29-.29c-.02-.04-.04-.11-.06-.28-.01-.17-.01-.39-.01-.73v-.54c0-.33 0-.56.01-.73.01-.16.04-.23.06-.28.06-.13.17-.23.29-.29.04-.02.11-.05.28-.06.17-.01.39-.01.72-.01h2.49c.34 0 .56 0 .73.01.16.01.23.04.28.06.12.06.23.17.29.29.02.04.04.11.06.28.01.17.01.39.01.73v.54Z"/>
</svg>
