<svg xmlns="http://www.w3.org/2000/svg" viewBox="0 0 20 20">
  <path d="M8.56 18c-.09 0-.19 0-.27-.03-.2-.04-.33-.12-.52-.23-1.74-1.01-5.78-3.8-5.78-7.72V6.4c0-.65 0-1 .13-1.35.12-.31.31-.58.55-.8.28-.25.61-.37 1.21-.6l4.08-1.51c.18-.07.29-.11.42-.13.12-.02.24-.02.36 0 .13.02.24.06.42.13l4.06 1.52c.6.23.94.35 1.21.6.24.21.44.49.55.79.1.27.12.55.13.94 0 .28-.22.5-.49.51-.29-.02-.5-.22-.51-.49 0-.33-.02-.48-.06-.6-.06-.15-.15-.29-.28-.4-.14-.12-.41-.23-.9-.41L8.81 3.08a.962.962 0 0 0-.21-.07c-.1 0-.19.04-.29.07L4.25 4.6c-.49.18-.76.29-.9.41-.12.11-.22.25-.28.4C3 5.58 3 5.86 3 6.4v3.62c0 3.5 4.05 6.13 5.29 6.85.15.08.19.11.22.12h.11c.04 0 .08-.03.22-.12.68-.4 2-1.24 3.14-2.41.19-.2.51-.2.71 0 .2.19.2.51 0 .71-1.23 1.26-2.63 2.15-3.35 2.58-.19.11-.32.19-.52.23-.08.02-.17.03-.26.03V18Z"/>
  <path d="M7.01 12.5c-.62 0-1.03 0-1.35-.32-.32-.32-.32-.73-.32-1.35V9.66c0-.62 0-1.03.32-1.35.32-.32.73-.32 1.35-.32.62 0 1.03 0 1.35.32.32.32.32.73.32 1.35v1.17c0 .62 0 1.03-.32 1.35-.32.32-.73.32-1.35.32Zm0-3.5c-.27 0-.58 0-.66.04-.01.05-.01.36-.01.63v1.17c0 .27 0 .58.04.66.1.02 1.14.05 1.29-.02.01-.05.01-.36.01-.63V9.68c0-.27 0-.58-.04-.66-.05-.01-.36-.01-.63-.01V9Zm6.71 3.5c-.62 0-1.03 0-1.35-.32-.32-.32-.32-.73-.32-1.35V9.66c0-.62 0-1.03.32-1.35.32-.32.73-.32 1.35-.32.62 0 1.03 0 1.35.32.32.32.32.73.32 1.35v1.17c0 .62 0 1.03-.32 1.35-.32.32-.73.32-1.35.32Zm0-3.5c-.27 0-.58 0-.66.04-.01.05-.01.36-.01.63v1.17c0 .27 0 .58.04.66.1.02 1.14.05 1.29-.02.01-.05.01-.36.01-.63V9.68c0-.27 0-.58-.04-.66-.05-.01-.36-.01-.63-.01V9Zm-2.92 3.5c-.28 0-.5-.22-.5-.5V9.43l-.1.06a.498.498 0 0 1-.55-.83l.88-.58c.15-.1.35-.11.51-.02.16.09.26.26.26.44V12c0 .28-.22.5-.5.5Zm6.71 0c-.28 0-.5-.22-.5-.5V9.43l-.1.06a.498.498 0 0 1-.55-.83l.88-.58c.15-.1.35-.11.51-.02.16.09.26.26.26.44V12c0 .28-.22.5-.5.5Z"/>
</svg>
