<svg xmlns="http://www.w3.org/2000/svg" viewBox="0 0 20 20">
  <path d="M8.06 13h-.93c-.27 0-.45 0-.64-.1a.952.952 0 0 1-.39-.38c-.1-.2-.1-.37-.1-.64v-.68c0-.12 0-.2.02-.3.02-.09.06-.17.1-.25.06-.09.12-.15.2-.23l1.99-1.99.06-.06c0-.04-.01-.08-.02-.14a2.34 2.34 0 0 1-.03-.38c0-1.56 1.27-2.83 2.83-2.83s2.83 1.27 2.83 2.83-1.27 2.83-2.83 2.83c-.13 0-.26 0-.38-.03-.06 0-.11-.02-.15-.02l-.06.06-.62.62a.51.51 0 0 1-.35.15h-.28v.28c0 .28-.22.5-.5.5h-.28v.28c0 .28-.22.5-.5.5l.03-.02Zm3.11-7c-1.01 0-1.83.82-1.83 1.83 0 .08 0 .17.02.25.03.21.04.32.03.44a.82.82 0 0 1-.11.31c-.06.1-.13.17-.24.28l-2 2-.04.76v.12h.55v-.28c0-.28.22-.5.5-.5h.28v-.28c0-.28.22-.5.5-.5h.57l.47-.47c.12-.12.19-.19.3-.25.1-.06.19-.09.31-.1.12-.02.24 0 .45.03.08.01.16.02.25.02a1.83 1.83 0 0 0 0-3.66h-.01Zm.77 2.33c-.28 0-.5-.22-.5-.5a.274.274 0 0 0-.28-.28c-.28 0-.5-.22-.5-.5s.22-.5.5-.5a1.263 1.263 0 0 1 1.27 1.27c0 .28-.22.5-.5.5l.01.01Z"/>
  <path d="M10 18c-.09 0-.18 0-.26-.02-.18-.04-.31-.11-.49-.2-1.88-1.01-6.24-3.8-6.24-7.75V6.85c0-.71 0-1.1.14-1.47.12-.33.32-.63.58-.86.29-.27.65-.41 1.29-.66l4.34-1.71c.18-.07.3-.12.45-.14.13-.02.26-.02.38 0 .14.02.26.07.45.14L15 3.84c.65.25 1 .39 1.29.66.26.23.46.53.58.86.14.37.14.76.14 1.47v3.18c0 3.95-4.36 6.74-6.24 7.75-.19.1-.32.17-.51.21-.07.02-.16.02-.25.02L10 18Zm-.28-1.11c.14.08.18.1.22.1h.11c.04 0 .08-.03.22-.1 1.35-.73 5.73-3.36 5.73-6.87V6.84c0-.61 0-.92-.08-1.13-.07-.18-.17-.34-.31-.47-.15-.14-.43-.25-.98-.46l-4.36-1.69c-.11-.04-.2-.08-.23-.08-.12 0-.21.04-.32.08L5.36 4.78c-.55.21-.83.32-.98.46-.14.13-.25.29-.31.47-.08.2-.08.51-.08 1.13v3.18c0 3.51 4.38 6.15 5.72 6.87h.01Z"/>
</svg>
