<svg xmlns="http://www.w3.org/2000/svg" viewBox="0 0 20 20">
  <path d="M12.105 17.99c-.19 0-.37-.04-.55-.11-.47-.2-.721-.7-1.271-1.799l-1.991-3.967c-.06-.11-.08-.17-.12-.22l-.07-.07c-.05-.04-.11-.06-.22-.12L3.91 9.716c-1.1-.55-1.6-.8-1.8-1.27a1.43 1.43 0 0 1 .08-1.259c.26-.44.79-.62 1.96-1.02L15.136 2.41c.99-.34 1.491-.51 1.951-.35.4.14.71.45.85.85.16.46 0 .95-.35 1.949L13.836 15.84c-.4 1.17-.58 1.7-1.02 1.96-.22.129-.46.199-.71.199v-.01Zm-2.972-6.436s.03.07.05.11l1.991 3.968c.32.65.63 1.259.77 1.329.11.05.25.04.35-.02.13-.09.35-.74.591-1.42L16.637 4.54c.08-.25.17-.49.23-.71l-7.744 7.725h.01Zm7.034-8.434c-.21.07-.46.15-.7.23L4.47 7.107c-.68.23-1.33.45-1.42.59-.06.11-.07.24-.02.35.07.14.68.45 1.33.77l3.983 1.988s.07.04.1.05l7.724-7.735Z"/>
</svg>
