<svg xmlns="http://www.w3.org/2000/svg" viewBox="0 0 20 20">
  <path d="M7.46 18H4.9c-.89 0-1.38 0-1.81-.22-.38-.19-.68-.49-.87-.87C2 16.48 2 15.99 2 15.1v-1.2c0-.92 0-1.38.22-1.81.19-.38.5-.68.87-.87.43-.22.92-.22 1.81-.22h1.57c.28 0 .5.22.5.5s-.22.5-.5.5H4.9c-.74 0-1.14 0-1.35.11-.19.1-.34.25-.44.44-.11.21-.11.62-.11 1.35v1.2c0 .74 0 1.14.11 1.35.1.19.25.34.44.44.21.11.62.11 1.35.11h2.56c.28 0 .5.22.5.5s-.22.5-.5.5Zm-.99-3H5.5c-.28 0-.5-.22-.5-.5s.22-.5.5-.5h.97c.28 0 .5.22.5.5s-.22.5-.5.5Zm1.12-6H4.9c-.89 0-1.38 0-1.81-.22-.38-.19-.68-.49-.87-.87C2 7.48 2 6.99 2 6.1V4.9c0-.92 0-1.38.22-1.81.19-.38.5-.68.87-.87C3.52 2 4.01 2 4.9 2h10.2c.92 0 1.38 0 1.81.22.38.19.68.5.87.87.22.43.22.89.22 1.81v1.2c0 .89 0 1.38-.22 1.81-.13.25-.43.34-.67.22a.502.502 0 0 1-.22-.67c.11-.21.11-.62.11-1.35v-1.2c0-.73 0-1.14-.11-1.35-.1-.19-.25-.34-.44-.44-.21-.11-.62-.11-1.35-.11H4.9c-.74 0-1.14 0-1.35.11-.19.1-.34.25-.44.44C3 3.77 3 4.18 3 4.91v1.2c0 .74 0 1.14.11 1.35.1.19.25.34.44.44.21.11.62.11 1.35.11h2.69c.28 0 .5.22.5.5s-.22.5-.5.5V9Zm2.92-3H5.5c-.28 0-.5-.22-.5-.5s.22-.5.5-.5h5.01c.28 0 .5.22.5.5s-.22.5-.5.5Z"/>
  <path d="m17.73 14-.59-.67v-.16l.6-.67c.31-.35.35-.85.13-1.24l-.44-.77c-.23-.39-.67-.61-1.14-.51l-.89.18c-.04-.02-.08-.05-.12-.07l-.29-.87c-.15-.44-.55-.73-1.01-.73h-.88c-.46 0-.86.3-1.01.72l-.29.87s-.08.04-.12.07l-.89-.18c-.46-.1-.91.12-1.14.51l-.44.77c-.23.4-.18.9.13 1.24l.6.67v.16l-.6.67c-.31.35-.35.85-.13 1.24l.44.77c.23.39.67.61 1.14.51l.89-.18c.04.02.08.05.12.07l.29.87c.15.44.55.72 1.01.72h.88c.46 0 .86-.3 1.01-.72l.29-.88c.04-.02.08-.04.12-.07l.89.18c.46.1.91-.12 1.14-.51l.44-.77c.23-.4.18-.9-.13-1.24l-.01.02Zm-.74.74-.44.76s-.02.03-.04.03h-.03l-1.08-.22c-.14-.03-.28 0-.39.08-.11.08-.23.15-.37.21-.12.06-.22.16-.26.29l-.35 1.04s-.01.03-.03.04c-.01 0-.03.01-.04.01h-.88s-.06-.02-.07-.05l-.35-1.05a.478.478 0 0 0-.24-.28 4.74 4.74 0 0 1-.4-.23.512.512 0 0 0-.38-.08l-1.08.22h-.04c-.01 0-.03-.02-.04-.03l-.44-.76v-.07l.73-.83c.09-.1.13-.23.13-.37 0-.09-.01-.16-.01-.23s0-.14.01-.23c0-.13-.04-.27-.13-.37l-.73-.82a.048.048 0 0 1 0-.07l.44-.77c0-.02.02-.03.04-.03h.03l1.08.22c.14.03.28 0 .39-.08.11-.08.23-.15.37-.21.12-.06.22-.16.26-.29L13 9.53s.01-.03.03-.04c.01 0 .03-.01.04-.01h.88s.06.02.07.05l.35 1.05c.04.12.13.23.24.28.15.08.28.15.4.23.11.08.25.1.38.08l1.08-.22h.04c.01 0 .03.02.04.03l.44.76v.07l-.73.82a.54.54 0 0 0-.13.37c0 .09.01.16.01.23s0 .14-.01.23c0 .13.04.27.13.37l.73.82s.02.05 0 .07v.02Z"/>
  <path d="M13.52 11.33a1.92 1.92 0 1 0 .001 3.841 1.92 1.92 0 0 0-.001-3.841Zm0 2.84c-.51 0-.92-.41-.92-.92s.41-.92.92-.92.92.41.92.92-.41.92-.92.92Z"/>
</svg>
