<svg xmlns="http://www.w3.org/2000/svg" viewBox="0 0 20 20">
  <path d="M13.5 18C11.02 18 9 15.98 9 13.5S11.02 9 13.5 9s4.5 2.02 4.5 4.5-2.02 4.5-4.5 4.5Zm0-8c-1.93 0-3.5 1.57-3.5 3.5s1.57 3.5 3.5 3.5 3.5-1.57 3.5-3.5-1.57-3.5-3.5-3.5Zm-.6 5.2a.47.47 0 0 1-.35-.15l-1.2-1.2c-.2-.2-.2-.51 0-.71.2-.2.51-.2.71 0l.85.85 2.05-2.05c.2-.2.51-.2.71 0 .2.2.2.51 0 .71l-2.4 2.4a.51.51 0 0 1-.35.15h-.02Z"/>
  <path d="M6.36 15H5.5C3.57 15 2 13.43 2 11.5c0-1.27.68-2.39 1.7-3a3.495 3.495 0 0 1-1.7-3C2 3.57 3.57 2 5.5 2h9a3.504 3.504 0 0 1 2.87 5.51c-.16.23-.47.28-.7.12a.499.499 0 0 1-.12-.7A2.5 2.5 0 0 0 14.5 3h-9a2.5 2.5 0 0 0 0 5h2.69c.28 0 .5.22.5.5s-.22.5-.5.5H5.5a2.5 2.5 0 0 0 0 5h.86c.28 0 .5.22.5.5s-.22.5-.5.5Zm.15-3H5.5c-.28 0-.5-.22-.5-.5s.22-.5.5-.5h1.01c.28 0 .5.22.5.5s-.22.5-.5.5Zm3-6H5.5c-.28 0-.5-.22-.5-.5s.22-.5.5-.5h4.01c.28 0 .5.22.5.5s-.22.5-.5.5Z"/>
</svg>
