<svg xmlns="http://www.w3.org/2000/svg" viewBox="0 0 20 20">
  <path d="M15.1 18H4.9c-.89 0-1.38 0-1.81-.22-.38-.19-.68-.49-.87-.87C2 16.48 2 15.99 2 15.1v-1.2c0-.92 0-1.38.22-1.81.19-.38.5-.68.87-.87.43-.22.92-.22 1.81-.22h10.2c.92 0 1.38 0 1.81.22.38.19.68.5.87.87.22.43.22.89.22 1.81v1.2c0 .89 0 1.38-.22 1.81-.19.38-.49.68-.87.87-.43.22-.89.22-1.81.22ZM4.9 12c-.74 0-1.14 0-1.35.11-.19.1-.34.25-.44.44-.11.21-.11.62-.11 1.35v1.2c0 .74 0 1.14.11 1.35.1.19.25.34.44.44.21.11.62.11 1.35.11h10.2c.73 0 1.14 0 1.35-.11.19-.1.34-.25.44-.44.11-.21.11-.62.11-1.35v-1.2c0-.73 0-1.14-.11-1.35-.1-.19-.25-.34-.44-.44-.21-.11-.62-.11-1.35-.11H4.9Zm9.59 3h-1.01c-.28 0-.5-.22-.5-.5s.22-.5.5-.5h1.01c.28 0 .5.22.5.5s-.22.5-.5.5Zm-4.98 0H5.5c-.28 0-.5-.22-.5-.5s.22-.5.5-.5h4.01c.28 0 .5.22.5.5s-.22.5-.5.5Zm5.59-6H4.9c-.89 0-1.38 0-1.81-.22-.38-.19-.68-.49-.87-.87C2 7.48 2 6.99 2 6.1V4.9c0-.89 0-1.38.22-1.81.19-.38.49-.68.87-.87C3.52 2 4.01 2 4.9 2h10.2c.92 0 1.38 0 1.81.22.38.19.68.5.87.87.22.43.22.92.22 1.81v1.2c0 .89 0 1.38-.22 1.81-.19.38-.49.68-.87.87-.43.22-.89.22-1.81.22ZM4.9 3c-.74 0-1.14 0-1.35.11-.19.1-.34.25-.44.44C3 3.76 3 4.17 3 4.9v1.2c0 .74 0 1.14.11 1.35.1.19.25.34.44.44.21.11.62.11 1.35.11h10.2c.73 0 1.14 0 1.35-.11.19-.1.34-.25.44-.44.11-.21.11-.62.11-1.35V4.9c0-.74 0-1.14-.11-1.35-.1-.19-.25-.34-.44-.44C16.24 3 15.83 3 15.1 3H4.9Zm9.58 3h-1c-.28 0-.5-.22-.5-.5s.22-.5.5-.5h1c.28 0 .5.22.5.5s-.22.5-.5.5ZM9.5 6h-4c-.28 0-.5-.22-.5-.5s.22-.5.5-.5h4c.28 0 .5.22.5.5s-.22.5-.5.5Z"/>
</svg>
