<svg xmlns="http://www.w3.org/2000/svg" viewBox="0 0 20 20">
  <path d="M17.5 13H14V9.5c0-.28-.22-.5-.5-.5s-.5.22-.5.5V13H9.5c-.28 0-.5.22-.5.5s.22.5.5.5H13v3.5c0 .28.22.5.5.5s.5-.22.5-.5V14h3.5c.28 0 .5-.22.5-.5s-.22-.5-.5-.5ZM6.47 14H5.5c-.28 0-.5.22-.5.5s.22.5.5.5h.97c.28 0 .5-.22.5-.5s-.22-.5-.5-.5Zm4.04-9H5.5c-.28 0-.5.22-.5.5s.22.5.5.5h5.01c.28 0 .5-.22.5-.5s-.22-.5-.5-.5Z"/>
  <path d="M8.46 17H4.9c-.73 0-1.14 0-1.35-.11-.19-.1-.34-.25-.44-.44C3 16.24 3 15.83 3 15.1v-1.2c0-.74 0-1.14.11-1.35.1-.19.25-.34.44-.44.21-.11.62-.11 1.35-.11h1.57c.28 0 .5-.22.5-.5s-.22-.5-.5-.5H4.9c-.89 0-1.38 0-1.81.22-.38.19-.68.5-.87.87-.22.43-.22.92-.22 1.81v1.2c0 .92 0 1.38.22 1.81.19.38.49.68.87.87.43.22.92.22 1.81.22h3.56c.28 0 .5-.22.5-.5s-.22-.5-.5-.5Zm9.32-13.91c-.19-.38-.5-.68-.87-.87C16.48 2 16.02 2 15.1 2H4.9c-.89 0-1.38 0-1.81.22-.38.19-.68.5-.87.87C2 3.52 2 3.98 2 4.9v1.2c0 .92 0 1.38.22 1.81.19.38.5.68.87.87.43.22.92.22 1.81.22h4.69c.28 0 .5-.22.5-.5s-.22-.5-.5-.5H4.9c-.74 0-1.14 0-1.35-.11-.19-.1-.34-.25-.44-.44C3 7.24 3 6.83 3 6.1V4.9c0-.73 0-1.14.11-1.35.1-.19.25-.34.44-.44C3.76 3 4.17 3 4.9 3h10.2c.73 0 1.14 0 1.35.11.19.1.34.25.44.44.11.21.11.62.11 1.35v1.2c0 .73 0 1.14-.11 1.35-.12.25-.03.55.22.67s.55.03.67-.22c.22-.43.22-.89.22-1.81v-1.2c0-.92 0-1.38-.22-1.81v.01Z"/>
</svg>
