<svg xmlns="http://www.w3.org/2000/svg" viewBox="0 0 20 20">
  <path d="M9.4 17.977c-.49 0-.76 0-1.01-.18a.941.941 0 0 1-.38-.66c-.03-.3.1-.54.35-.96l3.61-6.23c.24-.41.38-.66.66-.78.24-.11.52-.11.76 0 .28.12.42.37.66.78l3.61 6.23c.24.41.38.66.35.96-.03.26-.17.51-.38.66-.25.18-.52.18-1.01.18H9.4Zm3.6-7.83v.01c-.04.07-.1.18-.16.28l-3.61 6.23c-.06.11-.13.22-.17.31h7.91a7.84 7.84 0 0 0-.18-.3l-3.61-6.23c-.06-.1-.12-.21-.17-.29v-.01H13Zm0 4.54c-.28 0-.5-.22-.5-.5v-1.75c0-.28.22-.5.5-.5s.5.22.5.5v1.75c0 .28-.22.5-.5.5Z"/>
  <path d="M13 16.427c-.33 0-.6-.26-.6-.6 0-.34.27-.61.6-.61.33 0 .6.27.6.6 0 .33-.27.6-.6.6v.01Zm-7.64 1.12s-.08 0-.11-.01c-2.09-.49-3.25-1.32-3.25-2.33v-10.5c0-3.61 14.5-3.61 14.5 0v3.08c0 .28-.22.5-.5.5s-.5-.22-.5-.5v-1.61c-2.66 1.69-9.84 1.69-12.5 0v3.78c0 .54 1.6 1.42 4.59 1.68.28.02.48.27.46.54a.51.51 0 0 1-.54.46c-1.69-.14-3.44-.53-4.51-1.2v3.77c0 .31.66.93 2.48 1.36.27.06.44.33.37.6-.05.23-.26.39-.49.39v-.01ZM3 4.707c0 .71 2.43 1.75 6.25 1.75s6.25-1.04 6.25-1.75-2.43-1.75-6.25-1.75S3 3.987 3 4.707Z"/>
</svg>
