<svg xmlns="http://www.w3.org/2000/svg" viewBox="0 0 20 20">
  <path d="M14.88 18H5.13C3.4 18 2 16.6 2 14.87c0-1.1.57-2.06 1.43-2.62A3.137 3.137 0 0 1 2 9.62c0-.09 0-.18.01-.27a.484.484 0 0 1 0-.17l.44-3.53c.14-1.2.24-1.96.49-2.36.28-.45.69-.81 1.18-1.04C4.67 2 5.27 2 6.47 2h7.14c1.2 0 1.8 0 2.35.25.49.23.89.58 1.18 1.04.24.39.32 1.06.42 2.14.03.3.06.61.1.91l.36 2.85v.17c0 .09.01.18.01.27 0 1.1-.57 2.07-1.43 2.62.86.56 1.43 1.53 1.43 2.62 0 1.72-1.4 3.12-3.12 3.12l-.03.01Zm-9.75-5.25a2.121 2.121 0 0 0 0 4.24h9.75a2.121 2.121 0 0 0 0-4.24H5.13Zm0-1h9.75a2.121 2.121 0 0 0 0-4.24H5.13a2.121 2.121 0 0 0 0 4.24Zm0-5.25h9.75c.69 0 1.33.23 1.85.61l-.08-.65c-.04-.3-.07-.62-.1-.94-.06-.63-.15-1.5-.28-1.71-.18-.29-.44-.52-.75-.66-.35-.16-.88-.16-1.93-.16H6.45c-1.05 0-1.58 0-1.93.16-.31.14-.57.37-.75.66-.15.24-.26 1.23-.34 1.94l-.16 1.34c.52-.38 1.16-.61 1.85-.61l.01.02Zm9.37 8.87H10c-.28 0-.5-.22-.5-.5s.22-.5.5-.5h4.5c.28 0 .5.22.5.5s-.22.5-.5.5Zm-7.99 0H5.5c-.28 0-.5-.22-.5-.5s.22-.5.5-.5h1.01c.28 0 .5.22.5.5s-.22.5-.5.5Zm7.99-5.25H10c-.28 0-.5-.22-.5-.5s.22-.5.5-.5h4.5c.28 0 .5.22.5.5s-.22.5-.5.5Zm-8 0h-.99c-.28 0-.5-.22-.5-.5s.22-.5.5-.5h.99c.28 0 .5.22.5.5s-.22.5-.5.5Z"/>
</svg>
