<svg xmlns="http://www.w3.org/2000/svg" viewBox="0 0 20 20">
  <path d="M13.5 18C11.02 18 9 15.98 9 13.5S11.02 9 13.5 9s4.5 2.02 4.5 4.5-2.02 4.5-4.5 4.5Zm0-8c-1.93 0-3.5 1.57-3.5 3.5s1.57 3.5 3.5 3.5 3.5-1.57 3.5-3.5-1.57-3.5-3.5-3.5Z"/>
  <path d="M15 15.5a.47.47 0 0 1-.35-.15L13.5 14.2l-1.15 1.15c-.2.2-.51.2-.71 0-.2-.2-.2-.51 0-.71l1.15-1.15-1.15-1.15c-.2-.2-.2-.51 0-.71.2-.2.51-.2.71 0l1.15 1.15 1.15-1.15c.2-.2.51-.2.71 0 .2.2.2.51 0 .71l-1.15 1.15 1.15 1.15c.2.2.2.51 0 .71-.1.1-.23.15-.35.15H15ZM6.36 15H5.5C3.57 15 2 13.43 2 11.5c0-1.27.68-2.39 1.7-3a3.495 3.495 0 0 1-1.7-3C2 3.57 3.57 2 5.5 2h9C16.43 2 18 3.57 18 5.5c0 .72-.22 1.42-.63 2-.16.23-.47.28-.7.12a.499.499 0 0 1-.12-.7 2.5 2.5 0 0 0-2.05-3.93h-9a2.5 2.5 0 0 0 0 5h2.69c.28 0 .5.22.5.5s-.22.5-.5.5H5.5a2.5 2.5 0 0 0 0 5h.86c.28 0 .5.22.5.5s-.22.5-.5.5V15Zm.15-3H5.5c-.28 0-.5-.22-.5-.5s.22-.5.5-.5h1.01c.28 0 .5.22.5.5s-.22.5-.5.5Zm3-6H5.5c-.28 0-.5-.22-.5-.5s.22-.5.5-.5h4.01c.28 0 .5.22.5.5s-.22.5-.5.5Z"/>
</svg>
