<svg xmlns="http://www.w3.org/2000/svg" viewBox="0 0 20 20">
  <path d="M6.52 15.004H5.5c-1.93 0-3.5-1.57-3.5-3.5 0-1.27.68-2.39 1.7-3a3.495 3.495 0 0 1-1.7-3c0-1.93 1.57-3.5 3.5-3.5h9c1.93 0 3.5 1.57 3.5 3.5 0 1.35-.75 2.55-1.96 3.15a.5.5 0 1 1-.44-.9c.87-.42 1.4-1.28 1.4-2.25a2.5 2.5 0 0 0-2.5-2.5h-9a2.5 2.5 0 0 0 0 5h4.01c.28 0 .5.22.5.5s-.22.5-.5.5H5.5a2.5 2.5 0 0 0 0 5h1.02c.28 0 .5.22.5.5s-.22.5-.5.5Zm.99-3H5.5c-.28 0-.5-.22-.5-.5s.22-.5.5-.5h2.01c.28 0 .5.22.5.5s-.22.5-.5.5Zm2-6H5.5c-.28 0-.5-.22-.5-.5s.22-.5.5-.5h4.01c.28 0 .5.22.5.5s-.22.5-.5.5Z"/>
  <path d="M9.4 18.024c-.47 0-.76 0-1.01-.18a.941.941 0 0 1-.38-.66c-.03-.3.11-.55.35-.96l3.61-6.23c.24-.41.38-.66.66-.78.24-.11.52-.11.76 0 .28.12.42.37.66.78l3.61 6.23c.24.41.38.66.35.96-.03.27-.17.51-.38.66-.25.18-.53.18-1.01.18H9.4Zm3.6-7.83c-.04.07-.11.19-.17.3l-3.61 6.23c-.06.11-.13.22-.17.31h7.91c-.04-.07-.11-.18-.18-.3l-3.61-6.23c-.06-.11-.13-.22-.18-.3l.01-.01Zm0 4.54c-.28 0-.5-.22-.5-.5v-1.75c0-.28.22-.5.5-.5s.5.22.5.5v1.75c0 .28-.22.5-.5.5Z"/>
  <path d="M13 16.474c-.33 0-.6-.26-.6-.59 0-.34.27-.61.6-.61.33 0 .6.27.6.6 0 .33-.27.6-.6.6Z"/>
</svg>
