<svg xmlns="http://www.w3.org/2000/svg" viewBox="0 0 20 20">
  <path d="M3.99 18h-.5c-.4 0-.64 0-.88-.12-.21-.11-.38-.28-.49-.49-.12-.24-.12-.48-.12-.88v-2.75c0-.4 0-.64.12-.88.11-.21.28-.38.49-.49.24-.12.48-.12.88-.12h.5c.4 0 .64 0 .88.12.21.11.38.28.49.49l1.25-.52s.08-.03.12-.03c.22-.03 2.2-.33 2.82-.33.29 0 .57.03.85.1l1.36.18c.73.17 1.28.83 1.28 1.48v.02l1-.73c.59-.43 1.4-.37 1.92.13.28.27.44.64.44 1.03s-.16.76-.44 1.03l-1.34 1.3c-.43.42-.97.7-1.57.82l-1.89.37c-.44.09-.91.08-1.35-.03l-2.67-.41a2.3 2.3 0 0 0-.55-.07H5.41a1.158 1.158 0 0 1-.56.66c-.24.12-.48.12-.88.12h.02Zm-.5-4.73c-.19 0-.38 0-.43.02-.06.09-.06.29-.06.48v2.75c0 .19 0 .38.02.43.09.06.29.06.48.06H4c.19 0 .38 0 .43-.02.06-.09.06-.29.06-.48v-2.75c0-.19 0-.38-.02-.43-.09-.06-.29-.06-.48-.06h-.5Zm1.99 2.95H6.6c.25 0 .5.03.74.09l2.67.41c.34.08.66.09.96.03l1.89-.37c.41-.08.77-.27 1.07-.55l1.34-1.3c.09-.08.14-.2.14-.31 0-.11-.05-.23-.14-.31a.498.498 0 0 0-.63-.04l-1.56 1.14c-.31.22-.69.35-1.07.35H10.5c-.28 0-.5-.22-.5-.5s.22-.5.5-.5h.96c.27 0 .58-.17.58-.39v-.19c0-.19-.24-.44-.46-.5l-1.36-.18a2.77 2.77 0 0 0-.67-.08c-.45 0-1.98.21-2.61.31l-1.45.61v2.31l-.01-.03Zm12.26-9.03-.55-.62v-.12l.55-.62c.3-.34.34-.82.13-1.2l-.42-.72c-.22-.37-.65-.58-1.1-.49l-.83.17a.405.405 0 0 0-.09-.05l-.27-.81c-.14-.42-.54-.7-.98-.7h-.83c-.45 0-.84.29-.98.7l-.27.82c-.03.02-.06.03-.09.05l-.83-.17c-.44-.09-.88.12-1.1.49l-.42.73c-.23.39-.17.87.12 1.2l.55.62v.12l-.55.62c-.3.34-.34.82-.13 1.2l.42.72c.22.37.65.58 1.1.49l.83-.17s.06.04.09.05l.27.81c.14.42.54.7.98.7h.83c.45 0 .84-.29.98-.7l.27-.82c.03-.02.06-.03.09-.05l.83.17c.44.09.88-.12 1.1-.49l.42-.73c.23-.39.17-.87-.12-1.2ZM16.58 8.6s-.01.02-.02.02h-.01l-1.01-.21c-.14-.03-.28 0-.39.08-.11.08-.22.14-.34.2-.12.06-.22.16-.26.29l-.33.98s0 .02-.02.02h-.87l-.01-.02-.33-.98a.478.478 0 0 0-.24-.28c-.14-.07-.26-.14-.37-.21a.512.512 0 0 0-.38-.08l-1.01.21h-.02s-.01 0-.02-.02l-.41-.71v-.03l.69-.78c.09-.1.13-.23.13-.37v-.42c0-.13-.04-.27-.13-.37l-.69-.77v-.03l.41-.71s.01-.02.02-.02h.01l1.01.21c.14.03.28 0 .39-.08.11-.08.22-.14.34-.2.12-.06.22-.16.26-.29l.33-.98s0-.02.02-.02h.87l.01.02.33.98c.04.12.13.23.24.29.14.07.26.14.37.21.11.08.25.1.38.08l1.01-.21h.02s.01 0 .02.02l.41.71v.03l-.69.78a.54.54 0 0 0-.13.37v.42c0 .13.04.27.13.37l.69.77v.03l-.41.72V8.6Z"/>
  <path d="M13.75 4.67a1.83 1.83 0 1 0 .002 3.662 1.83 1.83 0 0 0-.002-3.662Zm0 2.66c-.46 0-.83-.37-.83-.83 0-.46.37-.83.83-.83.46 0 .83.37.83.83 0 .46-.37.83-.83.83Z"/>
</svg>
