<svg xmlns="http://www.w3.org/2000/svg" viewBox="0 0 20 20">
  <path d="M14.88 18H5.12C3.4 18 2 16.6 2 14.88c0-.13 0-.24.02-.35l.5-8.71c.09-1.26.13-1.89.44-2.44.28-.48.69-.87 1.19-1.11C4.72 2 5.35 2 6.61 2h6.78c1.26 0 1.89 0 2.46.27.5.24.91.63 1.19 1.11.31.55.36 1.18.44 2.43l.5 8.71a3.126 3.126 0 0 1-3.1 3.47V18ZM3 14.88c0 1.17.96 2.11 2.12 2.11h9.75c1.17 0 2.12-.95 2.12-2.11l-.02-.27a2.137 2.137 0 0 0-2.11-1.87H5.12c-1.08 0-1.98.82-2.11 1.87l-.02.27H3ZM6.61 3c-1.11 0-1.66 0-2.02.17-.32.15-.58.4-.76.71-.2.35-.24.9-.31 2l-.38 6.58c.54-.45 1.23-.71 1.99-.71h9.75c.75 0 1.45.27 1.99.71l-.38-6.58c-.08-1.1-.11-1.65-.31-2-.18-.31-.44-.55-.76-.71C15.06 3 14.5 3 13.4 3H6.61Zm7.89 12.37H10c-.28 0-.5-.22-.5-.5s.22-.5.5-.5h4.5c.28 0 .5.22.5.5s-.22.5-.5.5Zm-8.99 0c-.28 0-.5-.22-.5-.5s.22-.5.5-.5.5.22.5.5-.22.5-.5.5Z"/>
</svg>
