<svg xmlns="http://www.w3.org/2000/svg" viewBox="0 0 20 20">
  <path d="M5.46 18H4.9c-.89 0-1.38 0-1.81-.22-.38-.19-.68-.5-.87-.87C2 16.48 2 16.02 2 15.1v-1.2c0-.92 0-1.38.22-1.81.19-.38.5-.68.87-.87.43-.22.89-.22 1.81-.22h2.57c.28 0 .5.22.5.5s-.22.5-.5.5H4.9c-.74 0-1.14 0-1.35.11-.19.1-.34.25-.44.44-.11.21-.11.62-.11 1.35v1.2c0 .74 0 1.14.11 1.35.1.19.25.34.44.44.21.11.62.11 1.35.11h.56c.28 0 .5.22.5.5s-.22.5-.5.5Zm1.01-3H5.5c-.28 0-.5-.22-.5-.5s.22-.5.5-.5h.97c.28 0 .5.22.5.5s-.22.5-.5.5Zm2.12-6H4.9c-.89 0-1.38 0-1.81-.22-.38-.19-.68-.5-.87-.87C2 7.48 2 6.99 2 6.1V4.9c0-.92 0-1.38.22-1.81.19-.38.5-.68.87-.87C3.52 2 3.98 2 4.9 2h10.2c.92 0 1.38 0 1.81.22.38.19.68.5.88.88.22.43.22.89.22 1.81v1.2c0 .89 0 1.38-.22 1.81a.5.5 0 0 1-.67.22.508.508 0 0 1-.22-.67c.11-.21.11-.62.11-1.35v-1.2c0-.74 0-1.14-.11-1.35-.1-.19-.25-.34-.44-.44-.21-.11-.62-.11-1.35-.11H4.9c-.74 0-1.14 0-1.35.11-.19.1-.34.25-.44.44C3 3.78 3 4.19 3 4.92v1.2c0 .74 0 1.14.11 1.35.1.19.25.34.44.44.21.11.62.11 1.35.11h3.69c.28 0 .5.22.5.5s-.22.5-.5.5V9Zm1.92-3H5.5c-.28 0-.5-.22-.5-.5s.22-.5.5-.5h5.01c.28 0 .5.22.5.5s-.22.5-.5.5ZM13 18c-.37 0-.71-.16-.94-.44-.23-.28-.25-.58-.26-.68v-.85c-.1.04-.19.08-.28.12-.42.2-.8.48-1.11.82-.31.33-.79.44-1.21.27-.42-.17-.69-.55-.69-1.01 0-1.22.45-2.4 1.27-3.31a4.98 4.98 0 0 1 2.02-1.37V10.2c0-.1.04-.4.26-.68.24-.29.59-.45.96-.45.36 0 .6.19.68.24.08.06.18.14.26.21l3.5 3c.06.05.12.11.18.16.05.05.2.2.28.44.09.26.09.55 0 .81-.09.24-.23.39-.28.44-.06.06-.12.11-.17.16l-3.49 2.99c-.11.09-.2.17-.27.22-.08.06-.33.23-.68.24H13V18Zm-.77-3.11a.549.549 0 0 1 .56.48v1.42c0 .03 0 .1.04.13.04.05.11.08.17.08.05 0 .1-.04.13-.06.06-.04.12-.09.18-.15l3.51-3.01s.08-.07.11-.1c.07-.12.07-.17.05-.22-.09-.11-.13-.14-.16-.17l-3.5-3c-.08-.07-.14-.12-.2-.17-.03-.02-.1-.07-.13-.06-.06 0-.12.03-.16.08a.25.25 0 0 0-.04.14v1.62c0 .21-.14.41-.34.48l-.18.06c-.67.21-1.28.61-1.75 1.14a3.98 3.98 0 0 0-1.01 2.65s.01.07.05.08c0 0 .07.03.12-.02.4-.44.88-.79 1.42-1.04.33-.16.68-.28 1.03-.35.04 0 .08-.01.12-.01h-.02Z"/>
</svg>
