<svg xmlns="http://www.w3.org/2000/svg" viewBox="0 0 20 20">
  <path d="M16.386 17.49c-.41 0-.82-.16-1.14-.47l-3.75-3.75-.04-.04-.09-.09s-.02-.01-.02-.02c-.27.05-.47.08-.66.1-1.95.18-3.7-1.39-3.7-3.36 0-.44.08-.88.25-1.28.06-.15.2-.27.36-.3.16-.03.33.02.45.14l1.29 1.29c.1.1.21.21.25.24.01-.02.12-.13.22-.23l.13-.13c.11-.11.21-.21.24-.25-.02-.01-.13-.12-.24-.23l-1.37-1.37a.496.496 0 0 1-.14-.42c.02-.16.11-.29.24-.37.51-.3 1.1-.46 1.69-.46 1.86 0 3.38 1.51 3.38 3.38 0 .22-.02.44-.06.66-.03.17-.06.27-.06.34.02.01.07.06.15.14l3.75 3.75a1.611 1.611 0 0 1-1.14 2.75l.01-.02Zm-3.3-4.05 2.88 2.88c.23.23.63.23.86 0 .24-.24.24-.62 0-.86l-3.74-3.74c-.16-.16-.26-.26-.33-.39a.996.996 0 0 1-.12-.38c-.01-.15.02-.3.07-.61.03-.15.04-.3.04-.46 0-1.31-1.07-2.38-2.38-2.38-.19 0-.38.02-.56.07l.84.84c.25.25.4.4.47.63.07.21.07.42 0 .63-.08.23-.22.38-.47.63l-.13.13c-.25.25-.4.4-.63.47-.21.07-.42.07-.63 0-.23-.08-.38-.22-.63-.47l-.64-.64v.1c0 1.31 1.07 2.38 2.38 2.38h.29c.06 0 .12-.02.17-.03h.02c.05-.01.1-.02.15-.04.13-.04.26-.05.39-.04h.05c.14.01.25.04.38.11.03.02.07.04.1.06l.15.12 1.01 1.02.01-.03Z"/>
  <path d="M11.256 17.99h-1.56c-.64 0-1.22-.41-1.42-1.02l-.56-1.66c-.16-.09-.32-.18-.48-.28l-1.7.35a1.52 1.52 0 0 1-1.6-.71l-.78-1.36c-.32-.57-.25-1.27.18-1.75l1.15-1.29v-.56l-1.15-1.29c-.44-.48-.51-1.19-.18-1.75l.78-1.34c.34-.57.98-.85 1.61-.72l1.69.35c.16-.1.32-.2.49-.29l.55-1.65c.21-.61.79-1.02 1.42-1.02h1.56c.64 0 1.22.41 1.42 1.02l.56 1.66c.16.09.32.18.48.28l1.7-.35c.62-.13 1.27.16 1.6.71l.78 1.36c.32.57.25 1.27-.18 1.75l-1.29 1.45c-.18.21-.5.22-.71.04a.504.504 0 0 1-.04-.71l1.29-1.45c.14-.16.17-.39.06-.58l-.78-1.35a.483.483 0 0 0-.53-.24l-1.9.39a.47.47 0 0 1-.38-.08c-.23-.16-.49-.3-.74-.43a.498.498 0 0 1-.24-.29l-.62-1.85a.495.495 0 0 0-.48-.34h-1.56c-.21 0-.41.14-.48.35l-.62 1.84c-.04.13-.14.24-.26.29-.26.12-.49.26-.71.41-.11.08-.26.11-.39.08l-1.9-.39a.518.518 0 0 0-.54.25l-.78 1.34c-.11.19-.09.42.06.57l1.29 1.45c.09.1.13.23.13.37 0 .14-.02.28-.02.43 0 .15 0 .29.02.43 0 .13-.04.27-.13.37l-1.29 1.45c-.14.16-.17.39-.06.58l.78 1.35c.11.19.32.29.53.24l1.9-.39c.13-.03.27 0 .38.08.23.16.49.3.74.43.11.06.2.16.24.29l.62 1.85c.07.21.26.34.48.34h1.56c.21 0 .41-.14.48-.35.09-.26.38-.4.64-.31.26.09.4.38.31.64-.21.61-.78 1.02-1.42 1.02v-.01Z"/>
</svg>
