<svg xmlns="http://www.w3.org/2000/svg" viewBox="0 0 20 20">
  <path d="M18 9c0-.27-.22-.5-.5-.5-.99 0-2.07.25-2.98.76-.8.44-1.49 1.05-2.02 1.79-.55-.13-1.59-.28-2.25.16-.79.53-1.06 1.91-1.09 2.07-.03.15.01.3.11.41.09.11.24.18.38.18h1.97l1.01 1.02v1.97c0 .15.07.29.18.38.09.08.2.12.32.12h.09c.16-.03 1.54-.3 2.07-1.09.44-.66.29-1.7.16-2.25 2.2-1.64 2.54-3.82 2.54-5L18 9Zm-7.69 3.86c.12-.35.3-.7.5-.83.23-.15.7-.15 1.14-.08-.16.29-.31.6-.44.91h-1.2Zm4.16 2.84c-.13.2-.48.37-.83.5v-1.19c.31-.13.61-.28.91-.44.07.44.07.9-.08 1.13Zm.14-2.32c-.43.27-.88.51-1.35.7l-.84-.84c.2-.46.43-.91.71-1.34a5.12 5.12 0 0 1 3.85-2.38c-.11 1.2-.65 2.7-2.36 3.85l-.01.01Z"/>
  <path d="M10.53 14.6c-.35 0-.7.11-.98.34-.78.65-1.02 2.31-1.05 2.5a.506.506 0 0 0 .49.57h.07c.19-.02 1.84-.27 2.5-1.04.49-.57.45-1.43-.08-1.95-.26-.25-.6-.39-.96-.4l.01-.02Zm.27 1.71c-.19.23-.68.42-1.15.55.13-.48.32-.96.55-1.15.09-.07.17-.11.3-.11.11 0 .22.05.29.12.15.15.16.42 0 .59h.01ZM3.07 7.19l.78-1.35c.12-.2.34-.29.54-.25l1.9.39c.14.03.28 0 .39-.08.22-.16.46-.29.71-.41.12-.06.22-.17.26-.29l.62-1.84c.07-.21.27-.34.48-.34h1.56c.22 0 .41.13.48.34l.62 1.85c.04.12.13.22.24.28.26.14.51.28.74.43.11.08.25.1.38.08l1.9-.39c.21-.04.42.05.54.25.14.24.45.32.69.17.24-.14.32-.45.17-.69-.32-.54-.95-.85-1.6-.71l-1.72.35a5.5 5.5 0 0 0-.46-.27l-.56-1.67c-.21-.61-.78-1.02-1.42-1.02H8.75c-.65 0-1.21.42-1.42 1.02l-.56 1.68c-.16.08-.31.17-.46.27l-1.72-.35c-.64-.13-1.28.17-1.6.71L2.21 6.7c-.33.56-.25 1.26.18 1.74l1.15 1.29c0 .09-.01.18-.01.28 0 .1 0 .19.01.28l-1.15 1.3c-.44.49-.49 1.19-.18 1.74l.78 1.35c.32.55.95.86 1.6.72l.95-.19c.27-.06.44-.32.39-.59a.507.507 0 0 0-.59-.39l-.95.19a.51.51 0 0 1-.54-.25l-.77-1.34a.496.496 0 0 1 .06-.58l1.29-1.45c.09-.1.13-.23.13-.36-.01-.15-.02-.29-.02-.43s0-.28.02-.43c0-.13-.04-.27-.13-.36L3.14 7.77a.484.484 0 0 1-.06-.57l-.01-.01Z"/>
  <path d="M9.53 8c.65 0 1.24.31 1.6.8.17.22.48.27.7.1.22-.16.27-.48.1-.7-.55-.73-1.42-1.2-2.4-1.2a2.996 2.996 0 0 0-2.43 4.75c.16.22.47.27.7.11.22-.16.27-.47.11-.7-.24-.33-.38-.73-.38-1.17 0-1.1.9-2 2-2V8Z"/>
</svg>
