<svg xmlns="http://www.w3.org/2000/svg" viewBox="0 0 20 20">
  <path d="M17.47 8.53c-.69-.69-1.88-.69-2.57 0l-1.39 1.39h-.01l-4.76 4.76c-.16.16-.24.25-.31.35-.07.11-.13.23-.17.35-.04.11-.05.23-.08.48L8 17.44c-.02.15.04.3.14.41.09.09.22.15.35.15h.06l1.6-.18c.2-.02.32-.04.45-.08.12-.04.24-.1.34-.17.12-.08.21-.17.36-.32l4.74-4.74s.01 0 .02-.01l.02-.02 1.38-1.38a1.809 1.809 0 0 0 0-2.56l.01-.01Zm-6.86 8.02c-.1.1-.17.17-.2.19a.37.37 0 0 1-.11.05c-.04.01-.12.02-.28.04l-.96.11.11-.96c.02-.14.02-.21.04-.28.01-.04.03-.07.05-.1.04-.06.09-.1.19-.21l4.4-4.4 1.16 1.16-4.4 4.4Zm6.15-6.16-1.04 1.04-1.15-1.16 1.04-1.04a.84.84 0 0 1 1.16 0c.15.15.24.36.24.58 0 .22-.08.42-.24.58h-.01ZM3.07 7.19l.78-1.35c.12-.2.34-.29.54-.25l1.9.39c.14.03.28 0 .39-.08.22-.16.46-.29.71-.41.12-.06.22-.17.26-.29l.62-1.84c.07-.21.27-.34.48-.34h1.56c.22 0 .41.13.48.34l.62 1.85c.04.12.13.22.24.28.26.14.51.28.74.43.11.08.25.1.38.08l1.9-.39c.21-.04.42.05.54.25.14.24.45.32.69.17.24-.14.32-.45.17-.69-.32-.54-.95-.85-1.6-.71l-1.72.35a5.5 5.5 0 0 0-.46-.27l-.56-1.67c-.21-.61-.78-1.02-1.42-1.02H8.75c-.65 0-1.21.42-1.42 1.02l-.56 1.68c-.16.08-.31.17-.46.27l-1.72-.35c-.64-.13-1.28.17-1.6.71L2.21 6.7c-.33.56-.25 1.26.18 1.74l1.15 1.29c0 .09-.01.18-.01.28 0 .1 0 .19.01.28l-1.15 1.3c-.44.49-.49 1.19-.18 1.74l.78 1.35c.32.55.95.86 1.6.72l.95-.19c.27-.06.44-.32.39-.59a.507.507 0 0 0-.59-.39l-.95.19a.51.51 0 0 1-.54-.25l-.77-1.34a.496.496 0 0 1 .06-.58l1.29-1.45c.09-.1.13-.23.13-.36-.01-.15-.02-.29-.02-.43s0-.28.02-.43c0-.13-.04-.27-.13-.36L3.14 7.77a.484.484 0 0 1-.06-.57l-.01-.01Z"/>
  <path d="M8.24 11.53c-.43-.37-.71-.92-.71-1.53 0-1.1.9-2 2-2 .86 0 1.6.55 1.88 1.31a.501.501 0 0 0 .94-.34A2.997 2.997 0 0 0 9.53 7c-1.66 0-3 1.34-3 3 0 .92.41 1.74 1.06 2.29.21.18.53.15.7-.06.17-.21.15-.53-.06-.7h.01Z"/>
</svg>
