<svg xmlns="http://www.w3.org/2000/svg" viewBox="0 0 20 20">
  <path d="M10 7c-1.66 0-3 1.34-3 3s1.34 3 3 3 3-1.34 3-3-1.34-3-3-3Zm0 5a2 2 0 1 1-.001-3.999 2 2 0 0 1 0 3.999Z"/>
  <path d="M17.32 13.32c.33-.56.25-1.26-.18-1.74l-1.15-1.29c0-.09.01-.18.01-.28 0-.1 0-.19-.01-.28l1.15-1.3c.44-.49.49-1.19.18-1.74l-.78-1.35c-.32-.54-.95-.85-1.6-.71l-1.72.35a5.5 5.5 0 0 0-.46-.27l-.56-1.67c-.21-.61-.78-1.02-1.42-1.02H9.22c-.65 0-1.21.42-1.42 1.02l-.56 1.68c-.16.08-.31.17-.46.27l-1.72-.35c-.64-.13-1.28.17-1.6.71L2.68 6.7c-.33.56-.25 1.26.18 1.74l1.15 1.29c0 .09-.01.18-.01.28 0 .1 0 .19.01.28l-1.15 1.3c-.44.49-.49 1.19-.18 1.74l.78 1.35c.32.55.95.86 1.6.72l1.72-.35c.15.1.31.19.46.27l.56 1.67c.21.61.78 1.02 1.42 1.02h1.56c.65 0 1.21-.42 1.42-1.02l.56-1.68c.16-.08.31-.17.46-.27l1.72.35c.64.13 1.28-.17 1.6-.71l.78-1.35v-.01Zm-.87-.5-.78 1.34c-.12.2-.34.29-.54.25l-1.9-.39c-.14-.03-.28 0-.39.08-.22.16-.46.29-.71.41-.12.06-.22.17-.26.3l-.62 1.84c-.07.21-.27.34-.48.34H9.21c-.22 0-.41-.13-.48-.34l-.62-1.85a.53.53 0 0 0-.24-.29c-.26-.14-.51-.28-.74-.43a.512.512 0 0 0-.38-.08l-1.9.39a.51.51 0 0 1-.54-.25l-.77-1.34a.496.496 0 0 1 .06-.58l1.29-1.45c.09-.1.13-.23.13-.36-.01-.15-.02-.29-.02-.43s0-.27.02-.43c0-.13-.04-.26-.13-.36L3.6 7.74a.484.484 0 0 1-.06-.57l.78-1.35c.12-.2.34-.29.54-.25l1.9.39c.14.03.28 0 .39-.08.22-.16.46-.29.71-.41.12-.06.22-.16.26-.29l.62-1.84c.07-.21.27-.34.48-.34h1.56c.22 0 .41.13.48.34l.62 1.85c.04.12.13.22.24.28.26.14.51.28.74.43.11.08.25.1.38.08l1.9-.39c.21-.04.42.05.54.25l.77 1.34c.11.19.08.43-.06.58L15.1 9.21c-.09.1-.13.23-.13.36.01.15.02.3.02.43 0 .14 0 .28-.02.43 0 .13.04.27.13.36l1.29 1.45c.14.16.17.39.06.57v.01Z"/>
</svg>
