<svg xmlns="http://www.w3.org/2000/svg" viewBox="0 0 20 20">
  <path d="M9.5 17.405c-.28 0-.54-.12-.71-.34-.2-.25-.2-.55-.2-1.11v-2.9c-.94.12-1.85.39-2.71.8a9.067 9.067 0 0 0-2.99 2.33.496.496 0 0 1-.88-.32v-.5c0-2.08.76-4.08 2.15-5.63a8.566 8.566 0 0 1 4.43-2.61v-3.11c0-.55 0-.86.2-1.11.18-.22.44-.33.73-.33.32 0 .55.2.97.56l6.97 5.98c.24.21.4.34.48.57.07.2.07.42 0 .62-.08.23-.24.36-.48.57l-6.97 5.98c-.42.36-.65.56-.98.57h-.02l.01-.02Zm-.42-5.39c.13 0 .25.05.34.13.1.09.16.23.16.37v3.8c.07-.06.16-.14.26-.22l6.97-5.98s.1-.09.14-.12c-.03-.03-.08-.06-.14-.12l-6.97-5.98c-.09-.08-.19-.16-.26-.22v3.87c0 .24-.17.45-.41.49a7.512 7.512 0 0 0-4.27 2.37 7.38 7.38 0 0 0-1.85 4.18c.72-.66 1.53-1.21 2.4-1.63 1.14-.54 2.35-.86 3.6-.95h.03v.01Z"/>
</svg>
