<svg xmlns="http://www.w3.org/2000/svg" viewBox="0 0 20 20">
  <path d="M13.5 18h-7c-1.48 0-2.22 0-2.86-.33-.57-.29-1.02-.74-1.31-1.31C2 15.72 2 14.98 2 13.5v-7c0-1.48 0-2.22.33-2.86.29-.57.74-1.02 1.31-1.31C4.28 2 5.02 2 6.5 2h.83c.28 0 .5.22.5.5s-.22.5-.5.5H6.5c-1.32 0-1.98 0-2.41.22-.38.19-.68.5-.87.87C3 4.52 3 5.18 3 6.5v7c0 1.32 0 1.98.22 2.41.19.38.5.68.87.87.43.22 1.09.22 2.41.22h7c1.32 0 1.98 0 2.41-.22.38-.19.68-.5.87-.88.22-.43.22-1.09.22-2.41v-.83c0-.28.22-.5.5-.5s.5.22.5.5v.83c0 1.48 0 2.22-.33 2.86-.29.57-.74 1.02-1.31 1.31-.64.33-1.38.33-2.86.33V18Z"/>
  <path d="M11.72 13c-.24 0-.47-.11-.62-.29-.18-.22-.18-.47-.18-.89V9.89a6.24 6.24 0 0 0-3.86 2.19.496.496 0 0 1-.88-.32v-.36c0-1.54.56-3.01 1.59-4.16.84-.94 1.95-1.6 3.17-1.9V3.18c0-.42 0-.67.18-.89.14-.19.38-.29.62-.29.29 0 .48.17.79.44l5.03 4.31c.18.15.32.27.39.47.06.17.06.37 0 .54-.07.2-.21.32-.39.47l-5.03 4.31c-.32.27-.51.44-.79.44h-.02V13Zm-.3-4.18c.13 0 .25.05.34.13.1.09.16.23.16.37v2.44l4.97-4.26-4.97-4.26v2.5c0 .24-.17.45-.41.49-1.16.2-2.22.8-3.01 1.67-.65.73-1.08 1.62-1.25 2.57.45-.37.95-.69 1.48-.95.83-.4 1.73-.63 2.65-.7h.04Z"/>
</svg>
