<svg xmlns="http://www.w3.org/2000/svg" viewBox="0 0 20 20">
  <path d="M10 14.32c-.28 0-.5-.22-.5-.5v-.64h-.36c-.71 0-1.36-.39-1.7-1.02a.51.51 0 0 1 .21-.68.51.51 0 0 1 .68.21c.16.3.47.49.81.49h1.62c.56 0 1.02-.46 1.02-1.02s-.46-1.02-1.02-1.02H9.24a2.02 2.02 0 0 1 0-4.04h.26v-.64c0-.28.22-.5.5-.5s.5.22.5.5v.64h.36c.71 0 1.36.39 1.7 1.03.13.24.03.55-.21.68-.25.13-.55.03-.68-.21a.92.92 0 0 0-.81-.49H9.24c-.56 0-1.02.46-1.02 1.02s.46 1.02 1.02 1.02h1.52a2.02 2.02 0 0 1 0 4.04h-.26v.64c0 .28-.22.5-.5.5v-.01Z"/>
  <path d="M10 18c-.09 0-.18 0-.26-.02-.19-.04-.32-.11-.5-.21C7.36 16.75 3 13.97 3 10.02V6.84c0-.71 0-1.1.14-1.47.12-.33.32-.63.58-.86.29-.27.65-.41 1.29-.66l4.35-1.7c.19-.07.31-.12.45-.14.13-.02.26-.02.38 0 .14.02.26.07.45.14L15 3.84c.65.25 1 .39 1.29.66.26.23.46.53.58.86.14.37.14.76.14 1.47v3.18c0 3.95-4.36 6.74-6.24 7.75-.19.1-.32.17-.51.21-.08.02-.16.02-.25.02L10 18Zm-.28-1.11c.14.08.18.1.22.11h.11c.04 0 .08-.03.22-.1 1.35-.73 5.73-3.36 5.73-6.87V6.85c0-.61 0-.92-.08-1.13-.07-.18-.17-.34-.31-.47-.16-.14-.43-.25-.98-.46L10.27 3.1c-.12-.04-.2-.08-.23-.08-.11 0-.2.04-.32.08L5.36 4.79c-.55.21-.83.32-.98.46-.14.13-.25.29-.31.47-.08.2-.08.51-.08 1.13v3.18c0 3.51 4.38 6.15 5.72 6.87l.01-.01Z"/>
</svg>
