<svg xmlns="http://www.w3.org/2000/svg" viewBox="0 0 20 20">
  <path d="M7.711 8.584c-.7 0-1.26.57-1.26 1.26 0 .69.57 1.26 1.26 1.26.69 0 1.26-.57 1.26-1.26 0-.69-.57-1.26-1.26-1.26Zm-.26 1.27c0-.15.12-.26.26-.26s.26.12.26.26c0 .29-.52.29-.52 0Zm4.84-1.27c-.7 0-1.26.57-1.26 1.26 0 .69.57 1.26 1.26 1.26.69 0 1.26-.57 1.26-1.26 0-.69-.57-1.26-1.26-1.26Zm-.27 1.27c0-.15.12-.26.26-.26s.26.12.26.26c0 .29-.52.29-.52 0Zm-1.57 2.82a.5.5 0 0 0-.9 0l-.38.76a.504.504 0 0 0 .45.73h.76c.17 0 .33-.09.43-.24.09-.15.1-.33.02-.49l-.38-.76Z"/>
  <path d="M16.341 6.254a6.791 6.791 0 0 0-2.52-3.11c-2.27-1.52-5.38-1.52-7.64.01a6.766 6.766 0 0 0-2.52 3.1 6.891 6.891 0 0 0-.35 3.99c.26 1.2.82 2.3 1.65 3.21-.11.21-.17.45-.2.69-.04.39.02.78.19 1.14.17.35.44.65.77.86.22.14.47.22.73.27v1.08c0 .28.22.5.5.5h6.1c.28 0 .5-.22.5-.5v-1.08c.26-.05.51-.13.73-.27.33-.21.6-.51.77-.86.17-.35.24-.75.19-1.14-.03-.24-.1-.47-.2-.69.83-.9 1.4-2 1.65-3.21.28-1.34.16-2.71-.35-3.98v-.01Zm-.63 3.78a5.845 5.845 0 0 1-1.65 2.99c-.19.18-.2.47-.04.67.13.16.21.35.23.55a1.089 1.089 0 0 1-1.08 1.21c-.02 0-.04 0-.06.01-.02 0-.04-.01-.06-.01-.28 0-.5.22-.5.5v1.02h-5.1v-1.02c0-.28-.22-.5-.5-.5-.02 0-.04 0-.06.01-.02 0-.04-.01-.06-.01a1.09 1.09 0 0 1-1.08-1.21c.02-.2.1-.39.23-.55.16-.2.14-.49-.04-.67a5.767 5.767 0 0 1-1.65-2.99c-.24-1.14-.14-2.32.3-3.4s1.18-2 2.15-2.65c1.94-1.31 4.59-1.31 6.53 0 .97.65 1.71 1.57 2.15 2.65.44 1.08.54 2.26.3 3.4h-.01Z"/>
</svg>
