<svg xmlns="http://www.w3.org/2000/svg" viewBox="0 0 20 20">
  <path d="M8.47 4.18C8.12 4 7.74 4 7.04 4H6.7c-.7 0-1.08 0-1.43.18-.31.16-.56.41-.72.72-.18.35-.18.73-.18 1.43v1.62H2.5c-.28 0-.5.22-.5.5v2.37c0 .28.22.5.5.5h1.87v1.62c0 .7 0 1.08.18 1.43.16.31.41.56.72.72.35.18.73.18 1.43.18h.34c.7 0 1.08 0 1.43-.18.31-.16.56-.41.72-.72.18-.35.18-.73.18-1.43V6.32c0-.7 0-1.08-.18-1.43-.16-.31-.41-.56-.72-.72v.01Zm-4.1 6.14H3V8.95h1.37v1.37Zm3.99 2.62c0 .52 0 .84-.07.97-.06.12-.16.22-.28.28-.14.07-.45.07-.97.07H6.7c-.52 0-.84 0-.98-.07a.632.632 0 0 1-.28-.28c-.07-.14-.07-.45-.07-.97V6.32c0-.52 0-.84.07-.98.06-.12.16-.22.28-.28.14-.07.45-.07.97-.07h.34c.52 0 .84 0 .98.07.12.06.22.16.28.28.07.14.07.45.07.98v6.62Zm9.14-4.99h-1.87V6.33c0-.7 0-1.08-.18-1.43-.16-.31-.41-.56-.72-.72C14.38 4 14 4 13.3 4h-.34c-.7 0-1.08 0-1.43.18-.31.16-.56.41-.72.72-.18.35-.18.73-.18 1.43v6.61c0 .7 0 1.08.18 1.43.16.31.41.56.72.72.35.18.73.18 1.43.18h.34c.7 0 1.08 0 1.43-.18.31-.16.56-.41.72-.72.18-.35.18-.73.18-1.43v-1.62h1.87c.28 0 .5-.22.5-.5V8.45c0-.28-.22-.5-.5-.5Zm-2.94 5.96c-.06.12-.16.22-.28.28-.14.07-.45.07-.97.07h-.34c-.52 0-.84 0-.98-.07a.632.632 0 0 1-.28-.28c-.07-.14-.07-.45-.07-.97V6.32c0-.52 0-.84.07-.98.06-.12.16-.22.28-.28.14-.07.45-.07.97-.07h.34c.52 0 .84 0 .98.07.12.06.22.16.28.28.07.14.07.45.07.98v6.6c0 .52 0 .84-.07.97v.02ZM17 10.32h-1.37V8.95H17v1.37Z"/>
</svg>
