<svg xmlns="http://www.w3.org/2000/svg" viewBox="0 0 20 20">
  <path d="M7.75 18.01a2.5 2.5 0 0 1-2.45-2H3.75c-.28 0-.5-.22-.5-.5s.22-.5.5-.5H5.3a2.5 2.5 0 0 1 4.9 0h6.05c.28 0 .5.22.5.5s-.22.5-.5.5H10.2a2.5 2.5 0 0 1-2.45 2Zm-1.5-2.5c0 .83.67 1.5 1.5 1.5s1.5-.67 1.5-1.5-.67-1.5-1.5-1.5-1.5.67-1.5 1.5Zm6-3.01a2.5 2.5 0 0 1-2.45-2H3.75c-.28 0-.5-.22-.5-.5s.22-.5.5-.5H9.8a2.5 2.5 0 0 1 4.9 0h1.55c.28 0 .5.22.5.5s-.22.5-.5.5H14.7a2.5 2.5 0 0 1-2.45 2Zm-1.5-2.5c0 .83.67 1.5 1.5 1.5s1.5-.67 1.5-1.5-.67-1.5-1.5-1.5-1.5.67-1.5 1.5Zm-3-3A2.5 2.5 0 0 1 5.3 5H3.75c-.28 0-.5-.22-.5-.5s.22-.5.5-.5H5.3a2.5 2.5 0 0 1 4.9 0h6.05c.28 0 .5.22.5.5s-.22.5-.5.5H10.2a2.5 2.5 0 0 1-2.45 2Zm-1.5-2.5c0 .83.67 1.5 1.5 1.5s1.5-.67 1.5-1.5S8.58 3 7.75 3s-1.5.67-1.5 1.5Z"/>
</svg>
