<svg xmlns="http://www.w3.org/2000/svg" viewBox="0 0 20 20">
  <path d="M14.49 7.95V6.33c0-.7 0-1.08-.18-1.43-.16-.31-.41-.56-.72-.72C13.24 4 12.86 4 12.16 4h-.34c-.69 0-1.08 0-1.43.18-.15.08-.28.17-.39.29a1.95 1.95 0 0 0-.4-.29C9.25 4 8.87 4 8.17 4h-.34c-.69 0-1.08 0-1.43.18-.31.16-.56.41-.71.72-.18.35-.18.73-.18 1.43v1.62H2.5c-.28 0-.5.22-.5.5v2.37c0 .28.22.5.5.5h3.01v1.62c0 .7 0 1.08.18 1.43.16.31.41.56.72.72.35.18.73.18 1.43.18h.34c.69 0 1.08 0 1.43-.18.15-.08.28-.17.4-.29.12.11.25.21.4.29.35.18.73.18 1.43.18h.34c.69 0 1.08 0 1.43-.18.31-.16.56-.41.72-.72.18-.35.18-.73.18-1.43v-1.62h3.01c.28 0 .5-.22.5-.5V8.45c0-.28-.22-.5-.5-.5h-3.03ZM3 10.32V8.95h2.51v1.37H3Zm6.5 2.62c0 .52 0 .84-.07.97-.06.12-.16.22-.28.28-.14.07-.45.07-.97.07h-.34c-.52 0-.84 0-.98-.07a.632.632 0 0 1-.28-.28c-.07-.14-.07-.45-.07-.97V6.33c0-.52 0-.84.07-.98.06-.12.16-.22.28-.28C7 5 7.31 5 7.84 5h.34c.52 0 .84 0 .97.07.12.06.22.16.28.28.07.14.07.45.07.98v6.61Zm3.99 0c0 .52 0 .84-.07.97-.06.12-.16.22-.28.28-.14.07-.45.07-.97.07h-.34c-.52 0-.84 0-.98-.07a.632.632 0 0 1-.28-.28c-.07-.14-.07-.45-.07-.97V6.32c0-.52 0-.84.07-.98.06-.12.16-.22.28-.28.14-.07.45-.07.98-.07h.34c.52 0 .84 0 .97.07.12.06.22.16.28.28.07.14.07.45.07.98v6.62ZM17 10.32h-2.51V8.95H17v1.37Z"/>
</svg>
