<svg xmlns="http://www.w3.org/2000/svg" viewBox="0 0 20 20">
  <path d="M10.43 18H4.85c-.87 0-1.35 0-1.78-.22-.37-.19-.67-.5-.86-.88C2 16.47 2 16.01 2 15.1V4.9c0-.92 0-1.38.21-1.8.19-.38.48-.68.86-.88C3.49 2 3.98 2 4.85 2h5.58c.87 0 1.35 0 1.78.22.37.2.67.5.86.88.21.43.21.89.21 1.8 0 .28-.22.5-.5.5s-.5-.22-.5-.5c0-.74 0-1.14-.11-1.36a.964.964 0 0 0-.43-.44c-.2-.11-.6-.11-1.32-.11h-.09v.55c0 .48 0 .75-.13 1.01-.12.24-.3.43-.54.55-.26.14-.54.14-1 .14H6.61c-.46 0-.74 0-1.01-.14-.23-.12-.42-.31-.54-.55-.13-.26-.13-.53-.13-1.01v-.55h-.09c-.72 0-1.11 0-1.32.11-.18.1-.33.25-.42.44-.11.22-.11.62-.11 1.36v10.2c0 .74 0 1.14.11 1.36.09.19.24.34.42.43.21.11.6.11 1.32.11h5.58c.72 0 1.11 0 1.32-.11a.97.97 0 0 0 .42-.43c.12-.25.42-.35.67-.22.25.12.35.42.22.67-.19.37-.49.68-.86.88-.42.22-.9.22-1.78.22l.02-.01ZM5.94 3v.55c0 .25 0 .51.03.57.02.05.06.09.1.11.05.03.3.03.54.03h2.05c.24 0 .49 0 .54-.03.05-.02.08-.06.1-.11.03-.06.03-.32.03-.57V3h-3.4.01Z"/>
  <path d="M9.7 15.5c-.19 0-.38-.08-.5-.22-.16-.18-.16-.39-.16-.61V8.95c0-.55 0-.88.18-1.18.15-.26.38-.46.66-.59.31-.14.65-.14 1.26-.14h4.81c.61 0 .94 0 1.26.14.28.13.51.33.66.59.17.31.17.64.17 1.18v3.62c0 .57 0 .88-.17 1.18-.15.26-.38.46-.66.59-.31.14-.65.14-1.26.14h-4.51c-.04 0-.09.02-.13.04-.07.03-.13.08-.25.17l-.79.56c-.19.13-.34.24-.56.24l-.01.01Zm1.43-7.47c-.44 0-.73 0-.84.05a.47.47 0 0 0-.21.18c-.04.07-.04.34-.04.68v5.24l.44-.31c.2-.14.3-.21.42-.26.12-.05.24-.09.37-.12.13-.02.25-.03.5-.03h4.19c.44 0 .73 0 .84-.05a.47.47 0 0 0 .21-.18c.04-.07.04-.36.04-.68V8.93c0-.34 0-.61-.04-.69a.417.417 0 0 0-.21-.18c-.11-.05-.4-.05-.84-.05h-4.81l-.02.02Zm3.98 4h-3.36c-.28 0-.5-.22-.5-.5s.22-.5.5-.5h3.36c.28 0 .5.22.5.5s-.22.5-.5.5Zm-.69-2.01h-2.67c-.28 0-.5-.22-.5-.5s.22-.5.5-.5h2.67c.28 0 .5.22.5.5s-.22.5-.5.5Z"/>
</svg>
