<svg xmlns="http://www.w3.org/2000/svg" viewBox="0 0 20 20">
  <path d="M17.5 18h-15c-.28 0-.5-.22-.5-.5v-4.17c0-.28.22-.5.5-.5h15c.28 0 .5.22.5.5v4.17c0 .28-.22.5-.5.5ZM3 17h14v-3.17H3V17Zm.82-5.47c-.21 0-.41-.13-.48-.34A7.02 7.02 0 0 1 2.99 9C3 5.14 6.14 2 10 2a7.008 7.008 0 0 1 6.65 9.19.5.5 0 0 1-.95-.31c.2-.6.3-1.23.3-1.87 0-3.31-2.69-6-6-6S4 5.69 4 9c0 .64.1 1.27.3 1.87a.5.5 0 0 1-.32.63c-.05.02-.1.03-.16.03Z"/>
  <path d="M10 11.12a2.121 2.121 0 0 1 0-4.24 2.121 2.121 0 0 1 0 4.24Zm0-3.24c-.62 0-1.12.5-1.12 1.12 0 .62.5 1.12 1.12 1.12.62 0 1.12-.5 1.12-1.12 0-.62-.5-1.12-1.12-1.12Z"/>
</svg>
