<svg xmlns="http://www.w3.org/2000/svg" viewBox="0 0 20 20">
  <path d="M13.42 15.19h-2.85c-.28 0-.5-.22-.5-.5s.22-.5.5-.5h2.85c.28 0 .5.22.5.5s-.22.5-.5.5Zm1.74-3.06h-4.6c-.28 0-.5-.22-.5-.5s.22-.5.5-.5h4.6c.28 0 .5.22.5.5s-.22.5-.5.5Zm1.53-3.07h-6.13c-.28 0-.5-.22-.5-.5s.22-.5.5-.5h6.13c.28 0 .5.22.5.5s-.22.5-.5.5Zm.81-3.27h-6.94c-.28 0-.5-.22-.5-.5s.22-.5.5-.5h6.94c.28 0 .5.22.5.5s-.22.5-.5.5ZM5.32 16.98c-.07 0-.13-.01-.19-.04 0 0-.07-.03-.1-.06l-.01-.01-2.87-2.86c-.2-.2-.2-.51 0-.71.2-.2.51-.2.71 0l1.97 1.97V3.5c0-.28.22-.5.5-.5s.5.22.5.5v11.77L7.8 13.3c.2-.2.51-.2.71 0 .2.2.2.51 0 .71l-2.82 2.82c-.05.05-.1.08-.16.11s-.12.04-.19.04h-.02Z"/>
</svg>
