<svg xmlns="http://www.w3.org/2000/svg" viewBox="0 0 20 20">
  <path d="M17.51 15.19h-6.94c-.28 0-.5-.22-.5-.5s.22-.5.5-.5h6.94c.28 0 .5.22.5.5s-.22.5-.5.5Zm-.81-3.27h-6.13c-.28 0-.5-.22-.5-.5s.22-.5.5-.5h6.13c.28 0 .5.22.5.5s-.22.5-.5.5Zm-1.53-3.07h-4.6c-.28 0-.5-.22-.5-.5s.22-.5.5-.5h4.6c.28 0 .5.22.5.5s-.22.5-.5.5Zm-1.74-3.06h-2.85c-.28 0-.5-.22-.5-.5s.22-.5.5-.5h2.85c.28 0 .5.22.5.5s-.22.5-.5.5Zm-8.1 11.19c-.28 0-.5-.22-.5-.5V4.71L2.86 6.68c-.2.2-.51.2-.71 0-.2-.2-.2-.51 0-.71l2.83-2.82.01-.01s.1-.08.15-.1c.05-.02.11-.04.18-.04h.03c.06 0 .12.01.17.04.06.02.12.06.17.11l2.82 2.82c.2.2.2.51 0 .71-.2.2-.51.2-.71 0L5.83 4.71v11.77c0 .28-.22.5-.5.5Z"/>
</svg>
