<svg xmlns="http://www.w3.org/2000/svg" viewBox="0 0 20 20">
  <path d="m10.75 3.25 1.3 3.38c.21.55.32.82.48 1.06.15.21.32.38.53.53.23.16.51.27 1.06.48L17.5 10l-3.38 1.3c-.55.21-.82.32-1.06.48-.2.15-.38.33-.53.53-.16.23-.27.51-.48 1.06l-1.3 3.38-1.3-3.38c-.21-.55-.32-.82-.48-1.06-.15-.21-.32-.38-.53-.53-.23-.16-.51-.27-1.06-.48L4 10l3.38-1.3c.55-.21.82-.32 1.06-.48.2-.15.38-.33.53-.53.16-.23.27-.51.48-1.06l1.3-3.38Z"/>
  <path d="M4.38 18c-.28 0-.5-.22-.5-.5v-1.38H2.5c-.28 0-.5-.22-.5-.5s.22-.5.5-.5h1.38v-1.38c0-.28.22-.5.5-.5s.5.22.5.5v1.38h1.38c.28 0 .5.22.5.5s-.22.5-.5.5H4.88v1.38c0 .28-.22.5-.5.5Zm6.37-.75c-.21 0-.39-.13-.47-.32l-1.3-3.38c-.2-.51-.29-.77-.42-.95-.11-.16-.25-.3-.41-.41-.18-.13-.43-.22-.94-.42l-3.38-1.3a.501.501 0 0 1-.32-.47c0-.21.13-.39.32-.47l3.38-1.3c.53-.2.77-.3.95-.42.16-.11.3-.25.41-.41.12-.17.21-.4.42-.95l1.3-3.38c.15-.39.79-.39.93 0l1.3 3.38c.2.51.29.77.42.95.11.16.25.3.41.41.17.12.42.22.94.42l3.38 1.3c.19.07.32.26.32.47 0 .21-.13.39-.32.47l-3.38 1.3c-.51.2-.77.29-.95.42-.16.11-.3.25-.41.41-.13.18-.22.43-.42.94l-1.3 3.39c-.07.19-.26.32-.47.32h.01ZM5.39 10l2.17.83c.57.22.88.34 1.17.54.25.18.47.4.65.65.2.28.32.6.54 1.17l.83 2.17.83-2.17c.22-.57.34-.89.54-1.17.18-.25.4-.47.65-.65.28-.2.6-.32 1.17-.54l2.17-.83-2.17-.83c-.57-.22-.88-.34-1.16-.54-.25-.18-.47-.4-.65-.65-.2-.28-.32-.6-.54-1.17l-.83-2.17-.83 2.17c-.22.57-.34.88-.54 1.17-.18.25-.4.47-.65.65-.29.2-.6.32-1.17.54L5.4 10h-.01ZM4.38 6.75c-.28 0-.5-.22-.5-.5V4.87H2.5c-.28 0-.5-.22-.5-.5s.22-.5.5-.5h1.38V2.5c0-.28.22-.5.5-.5s.5.22.5.5v1.38h1.38c.28 0 .5.22.5.5s-.22.5-.5.5H4.88v1.38c0 .28-.22.5-.5.5v-.01Z"/>
</svg>
