<svg xmlns="http://www.w3.org/2000/svg" viewBox="0 0 20 20">
  <path d="m12.02 10.777-1.57 1.57c-.14-.05-.29-.09-.45-.09a1.25 1.25 0 1 0 1.25 1.25c0-.16-.04-.31-.09-.45l1.57-1.57c.2-.2.2-.51 0-.71-.2-.2-.51-.2-.71 0Z"/>
  <path d="M10 5.507c-4.41 0-8 3.59-8 8 0 .28.22.5.5.5h1.88c.28 0 .5-.22.5-.5s-.22-.5-.5-.5H3.02c.11-1.54.72-2.94 1.67-4.05l.96.96c.2.2.51.2.71 0 .2-.2.2-.51 0-.71l-.96-.96a6.96 6.96 0 0 1 4.11-1.72v1.36c0 .28.22.5.5.5s.5-.22.5-.5v-1.36c1.57.11 3 .74 4.11 1.72l-.89.89c-.2.2-.2.51 0 .71.2.2.51.2.71 0l.89-.89a6.977 6.977 0 0 1 1.67 4.05h-1.36c-.28 0-.5.22-.5.5s.22.5.5.5h1.88c.28 0 .5-.22.5-.5-.02-4.41-3.61-8-8.02-8Z"/>
</svg>
