<svg xmlns="http://www.w3.org/2000/svg" viewBox="0 0 20 20">
  <path d="M16.985 16.995V3.825c0-.53 0-.82-.15-1.1-.13-.25-.33-.45-.58-.58-.29-.15-.58-.15-1.1-.15h-1.78c-.53 0-.82 0-1.11.15-.25.13-.45.33-.58.58-.15.29-.15.58-.15 1.11v1.5h-2.33c-.53 0-.82 0-1.1.15-.25.13-.45.33-.58.58-.15.29-.15.58-.15 1.1v1.5h-2.55c-.53 0-.82 0-1.11.15-.25.13-.45.33-.58.58-.15.29-.15.58-.15 1.11v6.51c-.24.04-.42.25-.42.49 0 .28.22.5.5.5h13.87c.28 0 .5-.22.5-.5s-.2-.48-.46-.5l.01-.01Zm-4.44-9.99h3.31s.09-.01.13-.03v6.05s-.09-.03-.13-.03h-3.31v-6 .01Zm.04-3.83a.36.36 0 0 1 .15-.15c.07-.04.34-.04.65-.04h1.78c.31 0 .58 0 .65.04.06.03.11.08.15.15.04.07.04.34.04.65v2.2s-.09-.03-.13-.03h-3.31v-2.17c0-.31 0-.58.04-.65h-.02Zm-4.17 3.34a.36.36 0 0 1 .15-.15c.07-.04.34-.04.65-.04h2.33v3.67h-3.17v-2.84c0-.31 0-.58.04-.65v.01Zm-4.39 3.33a.36.36 0 0 1 .15-.15c.07-.04.34-.04.65-.04h2.55v3.34h-3.38v-2.5c0-.31 0-.58.04-.65h-.01Zm-.03 7.15v-3h3.39v3h-3.39Zm4.38 0v-5.99h3.17v5.99h-3.17Zm4.17 0v-2.99h3.31s.09-.01.13-.03v3.02h-3.44Z"/>
</svg>
