<svg xmlns="http://www.w3.org/2000/svg" viewBox="0 0 20 20">
  <path d="M14.4 17.645c-.15 0-.3-.04-.43-.11L10 15.315l-3.97 2.22c-.3.17-.67.15-.95-.05a.872.872 0 0 1-.35-.89l.89-4.46-3.34-3.09a.863.863 0 0 1-.24-.92c.11-.33.39-.56.73-.6l4.52-.54 1.91-4.13a.882.882 0 0 1 1.6 0l1.91 4.13 4.52.54c.34.04.63.27.73.6.11.33.02.68-.24.92l-3.34 3.09.89 4.46c.07.34-.06.68-.35.89-.16.11-.34.17-.52.17v-.01Zm-4.4-3.35c.15 0 .3.04.43.11l3.8 2.13-.85-4.27c-.06-.3.04-.61.27-.82l3.2-2.96-4.33-.51a.905.905 0 0 1-.7-.51L10 3.515l-1.83 3.96a.89.89 0 0 1-.7.51l-4.33.51 3.2 2.96a.9.9 0 0 1 .27.82l-.85 4.27 3.8-2.13c.13-.07.28-.11.43-.11l.01-.01Z"/>
</svg>
