<svg xmlns="http://www.w3.org/2000/svg" viewBox="0 0 20 20">
  <path d="M6.5 18c-1.48 0-2.22 0-2.86-.33-.56-.28-1.02-.75-1.31-1.31C2 15.72 2 14.98 2 13.5v-7c0-1.48 0-2.22.33-2.86.29-.57.74-1.02 1.31-1.31C4.28 2 5.02 2 6.5 2h2.68c.65 0 .98 0 1.32.08.31.07.6.19.87.36.3.18.54.43.99.87l4.33 4.33c.44.44.69.69.88.99.17.27.29.56.36.87.08.34.08.67.08 1.32v2.68c0 1.48 0 2.22-.33 2.86-.29.56-.75 1.03-1.31 1.31-.64.33-1.38.33-2.86.33H6.5Zm0-15c-1.32 0-1.98 0-2.41.22-.38.19-.68.5-.87.87C3 4.52 3 5.18 3 6.5v7c0 1.32 0 1.98.22 2.41.19.37.5.68.87.87.43.22 1.09.22 2.41.22h7c1.32 0 1.98 0 2.41-.22.37-.19.68-.5.87-.87.22-.43.22-1.09.22-2.41v-2.68c0-.57 0-.86-.06-1.09 0-.02-.01-.05-.02-.07h-2.09c-1.48 0-2.22 0-2.86-.33-.57-.29-1.02-.74-1.31-1.31-.33-.64-.33-1.38-.33-2.86V3.07s-.04-.01-.07-.02c-.23-.06-.52-.06-1.09-.06H6.49L6.5 3Zm4.83.71v1.46c0 1.32 0 1.98.22 2.41.19.38.5.68.87.87.43.22 1.09.22 2.41.22h1.46l-.32-.32-4.32-4.32-.32-.32Z"/>
</svg>
