<svg xmlns="http://www.w3.org/2000/svg" viewBox="0 0 20 20">
  <path d="M11.9 18H7.1c-1.34 0-2.01 0-2.6-.3a2.68 2.68 0 0 1-1.2-1.2c-.3-.59-.3-1.26-.3-2.6V7c0-.74 0-1.11.09-1.46.25-.95 1-1.69 1.94-1.94.26-.07.53-.09.96-.09 0-.36.02-.59.14-.82.12-.23.31-.42.55-.55C6.95 2 7.21 2 7.7 2h3.6c.48 0 .75 0 1.02.14.24.12.43.31.55.55.12.23.13.45.14.82.43 0 .7.02.96.09.95.25 1.69 1 1.94 1.94.09.35.09.72.09 1.46v6.9c0 1.34 0 2.01-.3 2.6-.26.52-.68.94-1.2 1.2-.59.3-1.26.3-2.6.3ZM6 4.5c-.34 0-.55.02-.7.06-.6.16-1.08.64-1.24 1.24C4 6.02 4 6.35 4 7v6.9c0 1.18 0 1.77.19 2.14.17.33.43.6.76.76.37.19.97.19 2.14.19h4.8c1.18 0 1.77 0 2.14-.19.33-.17.6-.43.76-.76.19-.38.19-.97.19-2.14V7c0-.65 0-.98-.06-1.2-.16-.6-.64-1.08-1.24-1.24-.16-.04-.37-.05-.7-.06 0 .36-.02.59-.14.82-.12.24-.31.42-.55.55-.27.14-.53.14-1.02.14h-3.6c-.48 0-.75 0-1.02-.14a1.22 1.22 0 0 1-.55-.55c-.12-.23-.13-.45-.14-.81L6 4.5Zm1-.2c0 .25 0 .51.03.56.02.05.06.08.11.11s.31.03.56.03h3.6c.25 0 .51 0 .56-.03.05-.02.09-.06.11-.11.03-.05.03-.31.03-.56v-.6c0-.25 0-.51-.03-.56a.198.198 0 0 0-.11-.11C11.81 3 11.55 3 11.3 3H7.7c-.25 0-.51 0-.56.03-.05.02-.09.06-.11.11C7 3.19 7 3.45 7 3.7v.6Zm3 8.7H6.5c-.28 0-.5-.22-.5-.5s.22-.5.5-.5H10c.28 0 .5.22.5.5s-.22.5-.5.5Zm2-3H6.5c-.28 0-.5-.22-.5-.5s.22-.5.5-.5H12c.28 0 .5.22.5.5s-.22.5-.5.5Z"/>
</svg>
