<svg xmlns="http://www.w3.org/2000/svg" viewBox="0 0 20 20">
  <path d="M6.5 18h-.4c-1.34 0-2.01 0-2.6-.3a2.68 2.68 0 0 1-1.2-1.2c-.3-.59-.3-1.26-.3-2.6V7c0-.74 0-1.11.09-1.46.25-.95 1-1.69 1.94-1.94.26-.07.53-.09.96-.09 0-.36.02-.59.14-.82.12-.24.31-.42.55-.55C5.95 2 6.21 2 6.7 2h3.6c.48 0 .75 0 1.02.14.24.12.43.31.55.55.12.23.13.45.14.82.43 0 .7.02.96.09.78.21 1.42.75 1.77 1.47.02.04.03.09.04.14.04.13.12.41.13.48.04.18.04.24.05.35l.04.42c.03.27-.18.52-.45.54a.502.502 0 0 1-.54-.45l-.04-.42c0-.08-.01-.12-.04-.24-.01-.07-.07-.28-.09-.34 0-.02-.01-.05-.02-.07a1.7 1.7 0 0 0-1.11-.9c-.16-.04-.37-.06-.7-.06 0 .36-.02.59-.14.82-.12.23-.31.42-.54.55-.27.14-.53.14-1.02.14h-3.6c-.48 0-.75 0-1.02-.14a1.22 1.22 0 0 1-.55-.55c-.11-.23-.13-.45-.13-.81-.34 0-.55.02-.7.06-.6.16-1.08.64-1.24 1.24-.06.22-.06.55-.06 1.2v6.9c0 1.18 0 1.77.19 2.14.17.33.43.6.76.76.37.19.97.19 2.14.19h.4c.28 0 .5.22.5.5s-.22.5-.5.5V18ZM6 4.3c0 .25 0 .51.03.56.02.05.06.08.11.11s.31.03.56.03h3.6c.25 0 .51 0 .56-.03.05-.02.09-.06.11-.11.03-.06.03-.32.03-.57v-.6c0-.25 0-.51-.03-.56a.198.198 0 0 0-.11-.11c-.05-.03-.31-.03-.56-.03H6.7c-.25 0-.51 0-.56.03-.05.02-.09.06-.11.11-.03.05-.03.31-.03.56v.61Z"/>
  <path d="M6.51 12h-1c-.28 0-.5-.22-.5-.5s.22-.5.5-.5h1c.28 0 .5.22.5.5s-.22.5-.5.5ZM8.5 9H5.51c-.28 0-.5-.22-.5-.5s.22-.5.5-.5H8.5c.28 0 .5.22.5.5s-.22.5-.5.5Zm9.19 4.99-.59-.67v-.16l.6-.67c.31-.35.35-.85.13-1.24l-.44-.77c-.23-.39-.67-.61-1.14-.51l-.89.18c-.04-.02-.08-.05-.12-.07l-.29-.87c-.15-.44-.55-.73-1.01-.73h-.88c-.46 0-.86.3-1.01.72l-.29.87s-.08.04-.12.07l-.89-.18c-.46-.1-.91.12-1.14.51l-.44.77c-.23.4-.18.9.13 1.24l.6.67v.16l-.6.67c-.31.35-.35.85-.13 1.24l.44.77c.23.39.67.61 1.14.51l.89-.18c.04.02.08.05.12.07l.29.87c.15.44.55.72 1.01.72h.88c.46 0 .86-.3 1.01-.72l.29-.88c.04-.02.08-.04.12-.07l.89.18c.46.1.91-.12 1.14-.51l.44-.77c.23-.4.18-.9-.13-1.24l-.01.02Zm-.74.74-.44.76s-.02.03-.04.03h-.03l-1.08-.22c-.14-.03-.28 0-.39.08-.11.08-.23.15-.37.21-.12.06-.22.16-.26.29l-.35 1.04s-.01.03-.03.04c-.01 0-.03.01-.04.01h-.88s-.06-.02-.07-.05l-.35-1.05a.478.478 0 0 0-.24-.28 4.74 4.74 0 0 1-.4-.23.512.512 0 0 0-.38-.08l-1.08.22h-.04c-.01 0-.03-.02-.04-.03l-.44-.76v-.07l.73-.83c.09-.1.13-.23.13-.37 0-.09-.01-.16-.01-.23s0-.14.01-.23c0-.13-.04-.27-.13-.37l-.73-.82a.048.048 0 0 1 0-.07l.44-.77c0-.02.02-.03.04-.03h.03l1.08.22c.14.03.28 0 .39-.08.11-.08.23-.15.37-.21.12-.06.22-.16.26-.29l.35-1.04s.01-.03.03-.04c.01 0 .03-.01.04-.01h.88s.06.02.07.05l.35 1.05c.04.12.13.23.24.28.15.08.28.15.4.23.11.08.25.1.38.08l1.08-.22h.04c.01 0 .03.02.04.03l.44.76v.07l-.73.82a.54.54 0 0 0-.13.37c0 .09.01.16.01.23s0 .14-.01.23c0 .13.04.27.13.37l.73.82s.02.05 0 .07v.02Z"/>
  <path d="M13.48 11.33a1.92 1.92 0 1 0 .001 3.841 1.92 1.92 0 0 0-.001-3.841Zm0 2.83c-.51 0-.92-.41-.92-.92s.41-.92.92-.92.92.41.92.92-.41.92-.92.92Z"/>
</svg>
