<svg xmlns="http://www.w3.org/2000/svg" viewBox="0 0 20 20">
  <path d="M17.67 3.64c-.29-.57-.74-1.02-1.31-1.31C15.72 2 14.98 2 13.5 2h-7c-1.48 0-2.22 0-2.86.33-.57.29-1.02.74-1.31 1.31C2 4.28 2 5.02 2 6.5v7c0 1.48 0 2.22.33 2.86.29.57.74 1.02 1.31 1.31.64.33 1.38.33 2.86.33h7c1.48 0 2.22 0 2.86-.33.57-.29 1.02-.74 1.31-1.31.33-.64.33-1.38.33-2.86v-7c0-1.48 0-2.22-.33-2.86ZM3 8h3.99v4H3V8Zm4.99 4V8H12v4H7.99ZM12 13v4H7.99v-4H12Zm-7.91 3.78c-.38-.19-.68-.5-.87-.87C3 15.48 3 14.82 3 13.5V13h3.99v4H6.5c-1.32 0-1.98 0-2.41-.22ZM17 13.5c0 1.32 0 1.98-.22 2.41-.19.38-.5.68-.87.87-.43.22-1.09.22-2.41.22H13v-4h4v.5Zm0-1.5h-4V8h4v4Zm0-5H3v-.5c0-1.32 0-1.98.22-2.41.19-.38.5-.68.87-.87C4.52 3 5.18 3 6.5 3h7c1.32 0 1.98 0 2.41.22.38.19.68.5.87.87.22.43.22 1.09.22 2.41V7Z"/>
</svg>
