<svg xmlns="http://www.w3.org/2000/svg" viewBox="0 0 20 20">
  <path d="M18 7.73c0-1.25 0-1.67-.22-2.23-.2-.51-.53-.92-.94-1.18C16.35 4 15.79 4 14.76 4H5.24c-1.02 0-1.59 0-2.08.32-.41.26-.73.67-.94 1.18C2 6.05 2 6.47 2 7.73v4.96c0 1.07 0 1.6.24 2.08.21.43.55.77.97.99.48.25 1 .25 2.04.25h9.51c1.04 0 1.56 0 2.04-.25.42-.22.75-.56.97-.99.24-.48.24-1.02.24-2.08V7.74L18 7.73ZM13.55 5l-.85 1.94s-.05.06-.09.06H7.39s-.07-.02-.09-.06L6.45 5h7.1ZM17 12.68c0 .88 0 1.37-.14 1.64-.12.24-.3.43-.53.55-.26.14-.73.14-1.57.14H5.24c-.85 0-1.32 0-1.58-.14-.23-.12-.41-.31-.53-.55-.14-.27-.14-.76-.14-1.64V7.71c0-1.21 0-1.48.15-1.84.12-.31.32-.56.56-.71C3.94 5 4.4 5 5.24 5h.12l1.02 2.34c.17.4.57.66 1.01.66h5.22c.44 0 .83-.26 1.01-.66L14.65 5h.11c.83 0 1.29 0 1.54.16.23.15.43.4.56.71.15.36.15.63.15 1.86v4.94l-.01.01Z"/>
  <path d="M7 9.5c-1.1 0-2 .9-2 2s.9 2 2 2 2-.9 2-2-.9-2-2-2Zm0 3c-.55 0-1-.45-1-1s.45-1 1-1 1 .45 1 1-.45 1-1 1Zm6-3c-1.1 0-2 .9-2 2s.9 2 2 2 2-.9 2-2-.9-2-2-2Zm0 3c-.55 0-1-.45-1-1s.45-1 1-1 1 .45 1 1-.45 1-1 1Z"/>
</svg>
