<svg xmlns="http://www.w3.org/2000/svg" viewBox="0 0 20 20">
  <path d="M6.5 17h-.4c-1.18 0-1.77 0-2.14-.19-.33-.17-.6-.43-.77-.77C3 15.67 3 15.08 3 13.9V7c0-.65 0-.98.06-1.2.16-.6.64-1.08 1.24-1.24.16-.04.37-.05.7-.06 0 .36.02.59.14.81.12.24.31.43.55.55.27.14.53.14 1.02.14h3.6c.47 0 .75 0 1.02-.14.24-.12.43-.31.54-.55.12-.23.13-.45.14-.82.34 0 .55.02.7.06.49.13.89.46 1.11.91 0 .03.01.05.02.07.02.06.08.28.09.34.03.13.03.17.04.24l.04.43c.03.27.27.47.54.45a.5.5 0 0 0 .45-.54l-.04-.43c-.01-.11-.02-.17-.05-.35-.01-.07-.09-.34-.13-.47 0-.05-.02-.09-.04-.14-.35-.73-.99-1.27-1.77-1.48-.26-.07-.53-.09-.96-.09 0-.36-.02-.59-.14-.82a1.22 1.22 0 0 0-.55-.55c-.27-.14-.55-.14-1.02-.14H6.7c-.48 0-.75 0-1.02.14-.24.12-.43.31-.55.55-.12.23-.13.46-.14.82-.43 0-.7.02-.96.09-.95.25-1.69 1-1.94 1.95C2 5.88 2 6.25 2 6.99v6.9c0 1.34 0 2.01.3 2.6.27.52.68.94 1.2 1.2.59.3 1.26.3 2.6.3h.4c.28 0 .5-.22.5-.5s-.22-.5-.5-.5V17ZM6 3.7c0-.25 0-.51.03-.56.02-.05.06-.08.11-.11S6.45 3 6.7 3h3.6c.25 0 .51 0 .56.03.05.02.08.06.11.11s.03.31.03.56v.6c0 .25 0 .51-.03.56-.02.05-.06.08-.11.11s-.31.03-.56.03H6.7c-.25 0-.51 0-.56-.03a.198.198 0 0 1-.11-.11C6 4.81 6 4.55 6 4.3v-.6Zm7.99 9.91v-2.46c0-.28-.22-.5-.5-.5s-.5.22-.5.5v2.67c0 .13.05.26.15.35l1.27 1.27c.2.2.51.2.71 0 .2-.19.2-.51 0-.71L14 13.61h-.01Z"/>
  <path d="M13.5 9a4.5 4.5 0 1 0 0 9 4.5 4.5 0 0 0 0-9Zm0 8c-1.93 0-3.5-1.57-3.5-3.5s1.57-3.5 3.5-3.5 3.5 1.57 3.5 3.5-1.57 3.5-3.5 3.5Zm-5-9H5.51c-.28 0-.5.22-.5.5s.22.5.5.5H8.5c.28 0 .5-.22.5-.5S8.78 8 8.5 8Zm-1.99 3h-1c-.28 0-.5.22-.5.5s.22.5.5.5h1c.28 0 .5-.22.5-.5s-.22-.5-.5-.5Z"/>
</svg>
