<svg xmlns="http://www.w3.org/2000/svg" viewBox="0 0 20 20">
  <path d="M15.5 18h-11A2.5 2.5 0 0 1 2 15.5v-11A2.5 2.5 0 0 1 4.5 2h11A2.5 2.5 0 0 1 18 4.5v11a2.5 2.5 0 0 1-2.5 2.5ZM4.5 3C3.67 3 3 3.67 3 4.5v11c0 .83.67 1.5 1.5 1.5h11c.83 0 1.5-.67 1.5-1.5v-11c0-.83-.67-1.5-1.5-1.5h-11Z"/>
  <path d="M6.45 14.58a.47.47 0 0 1-.35-.15c-.2-.2-.2-.51 0-.71l2.7-2.7-2.7-2.7c-.2-.2-.2-.51 0-.71.2-.2.51-.2.71 0l3.05 3.05c.09.09.15.22.15.35 0 .13-.05.26-.15.35l-3.05 3.05c-.1.1-.23.15-.35.15l-.01.02Zm7.14.48h-3.07c-.28 0-.5-.22-.5-.5s.22-.5.5-.5h3.07c.28 0 .5.22.5.5s-.22.5-.5.5Z"/>
</svg>
