<svg xmlns="http://www.w3.org/2000/svg" viewBox="0 0 20 20">
  <path d="M13.9 18H6.1c-1.35 0-2.02 0-2.62-.34-.52-.29-.93-.75-1.19-1.32C2 15.71 2 14.97 2 13.5v-7c0-1.47 0-2.21.29-2.84.26-.57.67-1.03 1.19-1.32C4.08 2 4.75 2 6.1 2h7.8c1.35 0 2.02 0 2.62.34.52.29.93.75 1.19 1.32.29.63.29 1.37.29 2.84v7c0 1.47 0 2.21-.29 2.84-.26.57-.67 1.03-1.19 1.32-.6.34-1.27.34-2.62.34ZM3 6.01v7.49c0 1.33 0 1.99.2 2.43.17.37.45.68.77.87.37.21.95.21 2.12.21h7.8c1.17 0 1.76 0 2.12-.21.33-.19.6-.5.78-.87.2-.44.2-1.1.2-2.43V6.01H3Zm.02-1h13.96c-.02-.42-.07-.71-.18-.93-.17-.37-.45-.68-.78-.87C15.65 3 15.07 3 13.9 3H6.1c-1.17 0-1.76 0-2.13.21-.33.19-.6.49-.77.87-.1.23-.15.52-.18.93Z"/>
  <path d="M6.43 15a.47.47 0 0 1-.35-.15c-.2-.2-.2-.51 0-.71l2.7-2.7-2.7-2.7c-.2-.2-.2-.51 0-.71.2-.2.51-.2.71 0l3.05 3.05c.09.09.15.22.15.35 0 .13-.05.26-.15.35l-3.05 3.05c-.1.1-.23.15-.35.15l-.01.02Zm7.14 0H10.5c-.28 0-.5-.22-.5-.5s.22-.5.5-.5h3.07c.28 0 .5.22.5.5s-.22.5-.5.5Z"/>
</svg>
