<svg xmlns="http://www.w3.org/2000/svg" viewBox="0 0 20 20">
  <path d="M13.5 18h-7c-1.48 0-2.22 0-2.86-.33-.57-.29-1.02-.74-1.31-1.31C2 15.72 2 14.98 2 13.5v-7c0-1.48 0-2.22.33-2.86.29-.57.74-1.02 1.31-1.31C4.28 2 5.02 2 6.5 2h7c1.48 0 2.22 0 2.86.33.57.29 1.02.74 1.31 1.31.33.64.33 1.38.33 2.86v7c0 1.48 0 2.22-.33 2.86-.29.57-.74 1.02-1.31 1.31-.64.33-1.38.33-2.86.33Zm-7-15c-1.32 0-1.98 0-2.41.22-.38.19-.68.5-.87.88C3 4.53 3 5.19 3 6.51v7c0 1.32 0 1.98.22 2.41.19.38.5.68.87.87.43.22 1.09.22 2.41.22h7c1.32 0 1.98 0 2.41-.22.38-.19.68-.5.87-.87.22-.43.22-1.09.22-2.41v-7c0-1.32 0-1.98-.22-2.41-.19-.38-.5-.68-.87-.87-.43-.22-1.09-.22-2.41-.22h-7V3Z"/>
  <path d="M11.31 14H8.69c-.28 0-.5-.22-.5-.5s.22-.5.5-.5h.81V7H7.81c-.29 0-.51 0-.58.03a.41.41 0 0 0-.21.2c-.03.07-.03.29-.03.58s-.22.5-.5.5-.5-.22-.5-.5c0-.46 0-.71.1-.96.14-.34.41-.61.75-.75.25-.1.5-.1.96-.1h4.38c.46 0 .71 0 .97.11.33.14.6.41.74.74.1.25.1.51.1.96 0 .28-.22.5-.5.5s-.5-.22-.5-.5 0-.51-.03-.58a.39.39 0 0 0-.2-.2c-.07-.03-.3-.03-.58-.03h-1.69v6h.81c.28 0 .5.22.5.5s-.22.5-.5.5h.01Z"/>
</svg>
