<svg xmlns="http://www.w3.org/2000/svg" viewBox="0 0 20 20">
  <path d="M14.44 18H4c-1.1 0-2-.9-2-2v-5.25c0-1.1.9-2 2-2h2.14c.1 0 .19-.06.23-.15L9 2.66c.18-.4.58-.66 1.02-.66 1.3 0 2.35 1.05 2.35 2.35V7c0 .14.11.25.25.25h2.63c.8 0 1.56.35 2.09.96.53.61.75 1.41.63 2.21l-.81 5.25A2.736 2.736 0 0 1 14.44 18Zm0-1c.87 0 1.6-.62 1.73-1.48l.81-5.25c.08-.51-.07-1.02-.4-1.41-.33-.39-.82-.61-1.33-.61h-2.63c-.69 0-1.25-.56-1.25-1.25V4.35c0-.74-.61-1.35-1.35-1.35-.04 0-.09.03-.11.07L7.27 9.01c-.04.09-.09.18-.16.26V17h7.33ZM4 9.75c-.55 0-1 .45-1 1V16c0 .55.45 1 1 1h2.12V9.75H4Z"/>
</svg>
