<svg xmlns="http://www.w3.org/2000/svg" viewBox="0 0 20 20">
  <path d="M4.896 17c-.92 0-1.38 0-1.81-.22-.37-.19-.68-.5-.87-.87-.22-.43-.22-.89-.22-1.81v-.98c0-.28.22-.5.5-.5a2.121 2.121 0 0 0 0-4.24c-.28 0-.5-.22-.5-.5v-.97c0-.92 0-1.38.22-1.81a2 2 0 0 1 .87-.88c.43-.22.89-.22 1.81-.22h10.2c.92 0 1.38 0 1.81.22.38.2.68.5.88.88.22.43.22.89.22 1.81v.97c0 .28-.22.5-.5.5a2.121 2.121 0 0 0 0 4.24c.28 0 .5.22.5.5v.98c0 .92 0 1.38-.22 1.81-.19.37-.5.68-.87.87-.43.22-.89.22-1.81.22H4.896Zm-1.9-3.42v.52c0 .74 0 1.14.11 1.35.1.19.25.34.44.44.21.11.62.11 1.35.11h10.2c.74 0 1.14 0 1.35-.11.19-.09.34-.25.44-.44.11-.21.11-.62.11-1.35v-.52a3.12 3.12 0 0 1 0-6.16v-.51c0-.74 0-1.14-.11-1.35-.1-.19-.25-.34-.44-.44-.21-.11-.62-.11-1.35-.11h-10.2c-.74 0-1.14 0-1.35.11-.19.1-.34.25-.44.44-.11.21-.11.62-.11 1.35v.51a3.12 3.12 0 0 1 0 6.16Zm5.5 1.17c-.28 0-.5-.22-.5-.5v-.75c0-.28.22-.5.5-.5s.5.22.5.5v.75c0 .28-.22.5-.5.5Zm0-3.37c-.28 0-.5-.22-.5-.5v-.75c0-.28.22-.5.5-.5s.5.22.5.5v.75c0 .28-.22.5-.5.5Zm0-3.38c-.28 0-.5-.22-.5-.5v-.75c0-.28.22-.5.5-.5s.5.22.5.5v.75c0 .28-.22.5-.5.5Z"/>
</svg>
