<svg xmlns="http://www.w3.org/2000/svg" viewBox="0 0 20 20">
  <path d="M2.5 13.295s-.07 0-.11-.01a.503.503 0 0 1-.38-.6c.32-1.41 1.03-2.7 2.06-3.73a7.673 7.673 0 0 1 5.44-2.25c2.05 0 3.99.8 5.44 2.25.95.94 1.6 1.66 2.05 2.21v-3.16c0-.28.22-.5.5-.5s.5.22.5.5v4.79s0 .1-.02.14c-.02.07-.06.14-.11.2s-.11.1-.18.13a.42.42 0 0 1-.16.04H12.7c-.28 0-.5-.22-.5-.5s.22-.5.5-.5h3.91c-.37-.49-1.06-1.32-2.38-2.63-1.32-1.31-2.94-1.96-4.73-1.96-1.79 0-3.47.7-4.73 1.96-.89.89-1.51 2.02-1.79 3.24-.05.23-.26.39-.49.39l.01-.01Z"/>
</svg>
