<svg xmlns="http://www.w3.org/2000/svg" viewBox="0 0 20 20">
  <path d="M10.22 18.15H5.51c-.28 0-.5-.22-.5-.5s.22-.5.5-.5h1.98V15H3.74C2.78 15 2 14.22 2 13.26c0-.28.22-.5.5-.5s.5.22.5.5c0 .41.33.74.74.74h4.24c.28 0 .5.22.5.5v2.65h1.74c.28 0 .5.22.5.5s-.22.5-.5.5ZM2.5 4.24c-.27 0-.5-.22-.5-.5C2 2.78 2.78 2 3.74 2h7.56c.28 0 .5.22.5.5s-.22.5-.5.5H3.74c-.41 0-.74.33-.74.74 0 .28-.22.5-.5.5ZM5 11.5a.47.47 0 0 1-.35-.15l-2.5-2.5-.01-.01a.377.377 0 0 1-.09-.15.448.448 0 0 1-.04-.2c0-.07.01-.14.04-.2.02-.05.05-.1.09-.15l.01-.01 2.5-2.5c.2-.2.51-.2.71 0 .2.2.2.51 0 .71L3.71 7.99h5.46c.28 0 .5.22.5.5s-.22.5-.5.5H3.71l1.65 1.65c.2.2.2.51 0 .71-.1.1-.23.15-.35.15H5Zm7.38 4.16c-.34 0-.68-.06-1.01-.2A2.72 2.72 0 0 1 9.87 14c-.29-.67-.3-1.41-.03-2.09l2.9-7.28c.27-.68.79-1.21 1.46-1.5.67-.29 1.41-.3 2.09-.03 1.4.56 2.08 2.15 1.53 3.54l-2.9 7.28a2.72 2.72 0 0 1-2.54 1.72v.02Zm-1.61-3.37a1.725 1.725 0 0 0 2.29 2.22c.42-.18.75-.52.92-.95l.19-.47-3.21-1.28-.19.47v.01Zm.55-1.4 3.21 1.28 1.55-3.89L12.87 7l-1.55 3.89Zm1.92-4.82 3.21 1.28.42-1.06a1.725 1.725 0 0 0-2.29-2.22c-.42.18-.75.52-.92.95l-.42 1.06v-.01Z"/>
  <path d="M13.4 10.85a.5.5 0 1 0 0-1 .5.5 0 0 0 0 1Zm.67-1.52a.5.5 0 1 0 0-1 .5.5 0 0 0 0 1Z"/>
</svg>
