<svg xmlns="http://www.w3.org/2000/svg" viewBox="0 0 20 20">
  <path d="M9.98 11.58c-.28 0-.5.22-.5.5v1.67c0 .28.22.5.5.5s.5-.22.5-.5v-1.67c0-.28-.22-.5-.5-.5Z"/>
  <path d="M16.67 9.47c-.29-.57-.74-1.02-1.31-1.31-.64-.33-1.38-.33-2.86-.33H7.01V5.99c0-1.65 1.35-3 3-3 1.32 0 2.5.88 2.88 2.14.08.26.36.42.62.34.26-.08.42-.36.34-.62a4.03 4.03 0 0 0-3.83-2.86C7.79 2 6 3.79 6 6v1.86h-.03c-.59.04-.99.13-1.33.3-.57.29-1.02.74-1.31 1.31C3 10.11 3 10.85 3 12.33v1.17c0 1.48 0 2.22.33 2.86.29.57.74 1.02 1.31 1.31.64.33 1.38.33 2.86.33h4.99c1.48 0 2.22 0 2.86-.33.57-.29 1.02-.74 1.31-1.31.33-.64.33-1.38.33-2.86v-1.17c0-1.48 0-2.22-.33-2.86h.01ZM16 13.5c0 1.32 0 1.98-.22 2.41-.19.38-.5.68-.88.87-.43.22-1.09.22-2.41.22H7.5c-1.32 0-1.98 0-2.41-.22-.38-.19-.68-.5-.88-.87-.22-.43-.22-1.09-.22-2.41v-1.17c0-1.32 0-1.98.22-2.41.19-.38.5-.68.88-.87.22-.11.5-.17.94-.2.37-.02.83-.02 1.4-.02h5.06c1.32 0 1.98 0 2.41.22.38.19.68.5.88.87.22.43.22 1.09.22 2.41v1.17Z"/>
</svg>
