<svg xmlns="http://www.w3.org/2000/svg" viewBox="0 0 20 20">
  <path d="M2.5 14.55c-.13 0-.25-.05-.35-.15-.2-.19-.2-.51 0-.71l3.64-3.68c.33-.33.53-.53.81-.63.25-.08.52-.08.77 0 .28.09.48.29.81.62l2.05 2.07c.18.18.36.36.42.38.05.02.1.02.15 0 .06-.02.25-.21.42-.38L16.27 7h-4.04c-.28 0-.5-.22-.5-.5s.22-.5.5-.5h5.24c.07 0 .13.01.19.04.05.02.1.05.15.09.01 0 .02.02.03.03.04.04.07.09.09.14.03.06.04.13.04.2v5.29c0 .28-.22.5-.5.5s-.5-.22-.5-.5V7.71l-5.03 5.08c-.33.33-.53.53-.81.63-.25.08-.52.08-.78 0-.29-.09-.48-.3-.81-.63l-2.05-2.07c-.18-.18-.36-.36-.42-.38a.195.195 0 0 0-.15 0c-.06.02-.24.2-.41.38L2.86 14.4c-.1.1-.23.15-.35.15H2.5Z"/>
</svg>
