<svg xmlns="http://www.w3.org/2000/svg" viewBox="0 0 20 20">
  <path d="M10 17.595a7.2 7.2 0 0 1-5.13-2.12c-.77-.77-1.4-1.45-1.87-2.01v2.89c0 .28-.22.5-.5.5s-.5-.23-.5-.51v-4.49s0-.1.02-.14c.02-.07.05-.14.1-.19.05-.06.11-.1.18-.13.05-.02.1-.03.16-.04H7c.28 0 .5.22.5.5s-.22.5-.5.5H3.39c.35.46 1 1.23 2.19 2.42a6.186 6.186 0 0 0 4.42 1.83c1.67 0 3.24-.65 4.42-1.83.84-.84 1.42-1.88 1.67-3.03a.503.503 0 0 1 .98.22c-.3 1.33-.97 2.55-1.94 3.52a7.2 7.2 0 0 1-5.13 2.12v-.01Zm-6.58-8.94s-.07 0-.11-.01a.503.503 0 0 1-.38-.6c.3-1.33.97-2.55 1.94-3.52 2.83-2.83 7.43-2.83 10.25 0 .77.77 1.4 1.45 1.87 2.01v-2.88c0-.28.22-.5.5-.5s.5.22.5.5v4.49s0 .1-.02.14c-.02.07-.06.14-.1.19-.05.06-.11.1-.18.13a.47.47 0 0 1-.16.04H13c-.28 0-.5-.22-.5-.5s.22-.5.5-.5h3.61c-.35-.46-1-1.23-2.19-2.42a6.262 6.262 0 0 0-8.84.01c-.84.84-1.42 1.88-1.67 3.03-.05.23-.26.39-.49.39Z"/>
</svg>
