<svg xmlns="http://www.w3.org/2000/svg" viewBox="0 0 20 20">
  <path d="M16 12.93c-.16 0-.32-.08-.42-.22a.498.498 0 0 1 .14-.69c.8-.54 1.28-1.43 1.28-2.39 0-1.5-1.12-2.73-2.61-2.86a.5.5 0 0 1-.45-.42A3.988 3.988 0 0 0 9.99 3C8.02 3 6.36 4.41 6.04 6.35a.51.51 0 0 1-.45.42 2.862 2.862 0 0 0-2.61 2.86c0 .96.48 1.86 1.28 2.39a.498.498 0 0 1-.55.83 3.867 3.867 0 0 1-1.72-3.22c0-1.89 1.33-3.46 3.14-3.81A5.01 5.01 0 0 1 10 2a4.99 4.99 0 0 1 4.86 3.82C16.67 6.16 18 7.74 18 9.63c0 1.3-.64 2.5-1.72 3.22-.09.06-.18.08-.28.08Z"/>
  <path d="M10 16.75c-.28 0-.5-.22-.5-.5v-5.79l-2.26 2.26c-.2.2-.51.2-.71 0-.2-.2-.2-.51 0-.71L9.64 8.9c.05-.05.1-.08.16-.1.06-.02.12-.04.19-.04H10c.06 0 .12.01.18.04.06.02.11.06.16.11l3.11 3.11c.2.2.2.51 0 .71-.2.2-.51.2-.71 0l-2.26-2.26v5.79c0 .28-.22.5-.5.5l.02-.01Z"/>
</svg>
