<svg xmlns="http://www.w3.org/2000/svg" viewBox="0 0 20 20">
  <path d="M10.83 15.02a.47.47 0 0 1-.35-.15l-3.33-3.33c-.2-.2-.2-.51 0-.71.2-.2.51-.2.71 0l2.98 2.98 6.31-6.31c.2-.2.51-.2.71 0 .2.2.2.51 0 .71l-6.67 6.67a.51.51 0 0 1-.35.15l-.01-.01Z"/>
  <path d="M7.89 18.02H6.1c-1.34 0-2.01 0-2.6-.3a2.68 2.68 0 0 1-1.2-1.2c-.3-.59-.3-1.26-.3-2.6V9.9c0-.92 0-1.38.22-1.81.18-.35.45-.64.79-.83V3.7c0-.47 0-.75.14-1.02.12-.24.31-.42.54-.54C3.96 2 4.23 2 4.71 2H9.3c.48 0 .75 0 1.02.14.24.12.43.31.55.55.14.27.14.55.14 1.02v3.57c.33.19.6.47.77.82.13.25.03.55-.22.67s-.55.03-.67-.22c-.1-.19-.25-.34-.44-.44C10.24 8 9.83 8 9.1 8H4.9c-.73 0-1.14 0-1.35.11-.19.09-.34.25-.44.44C3 8.76 3 9.17 3 9.9v4.02c0 1.18 0 1.77.19 2.14.17.33.43.6.76.76.37.19.97.19 2.14.19h1.79c1.18 0 1.77 0 2.15-.19.25-.12.55-.03.67.22s.03.55-.22.67c-.59.3-1.26.3-2.6.3l.01.01ZM9.09 7c.37 0 .66 0 .91.01V3.7c0-.25 0-.51-.03-.56a.198.198 0 0 0-.11-.11C9.81 3 9.55 3 9.3 3H4.71c-.25 0-.51 0-.57.03a.29.29 0 0 0-.11.11C4 3.19 4 3.45 4 3.7v3.31C4.24 7 4.53 7 4.89 7h4.2Zm-1.1-1c-.28 0-.5-.22-.5-.5v-.75c0-.28.22-.5.5-.5s.5.22.5.5v.75c0 .28-.22.5-.5.5Zm-2 0c-.28 0-.5-.22-.5-.5v-.75c0-.28.22-.5.5-.5s.5.22.5.5v.75c0 .28-.22.5-.5.5Z"/>
</svg>
