<svg xmlns="http://www.w3.org/2000/svg" viewBox="0 0 20 20">
  <path d="M13.5 18c-.28 0-.5-.22-.5-.5V14H9.5c-.28 0-.5-.22-.5-.5s.22-.5.5-.5H13V9.5c0-.28.22-.5.5-.5s.5.22.5.5V13h3.5c.28 0 .5.22.5.5s-.22.5-.5.5H14v3.5c0 .28-.22.5-.5.5Z"/>
  <path d="M8.49 18.02H6.1c-1.34 0-2.01 0-2.6-.3a2.73 2.73 0 0 1-1.2-1.2c-.3-.59-.3-1.26-.3-2.6V9.9c0-.92 0-1.38.22-1.81.18-.35.45-.64.79-.83V3.7c0-.47 0-.75.14-1.02.12-.24.31-.42.54-.54C3.96 2 4.22 2 4.71 2H9.3c.48 0 .75 0 1.02.14.24.12.43.32.55.55.14.26.14.55.14 1.01v3.58c.17.15.22.4.12.6-.13.25-.43.34-.67.22-.21-.11-.62-.11-1.35-.11H4.9c-.73 0-1.14 0-1.35.11-.19.09-.34.25-.44.44C3 8.75 3 9.16 3 9.89v4.02c0 1.18 0 1.77.19 2.14.17.33.43.6.77.77.37.19.97.19 2.14.19h2.39c.28 0 .5.22.5.5s-.22.5-.5.5v.01ZM4.9 7h4.19c.37 0 .66 0 .91.01V3.7c0-.25 0-.51-.03-.56a.198.198 0 0 0-.11-.11C9.81 3 9.55 3 9.3 3H4.71c-.25 0-.51 0-.56.03-.05.02-.09.06-.11.11-.03.05-.03.31-.03.56v3.31C4.25 7 4.54 7 4.9 7Zm3.09-1c-.28 0-.5-.22-.5-.5v-.75c0-.28.22-.5.5-.5s.5.22.5.5v.75c0 .28-.22.5-.5.5Zm-2 0c-.28 0-.5-.22-.5-.5v-.75c0-.28.22-.5.5-.5s.5.22.5.5v.75c0 .28-.22.5-.5.5Z"/>
</svg>
