<svg xmlns="http://www.w3.org/2000/svg" viewBox="0 0 20 20">
  <path d="M8.1 18.02c-1.34 0-2.01 0-2.6-.3a2.73 2.73 0 0 1-1.2-1.2c-.3-.59-.3-1.26-.3-2.6V9.9c0-.89 0-1.38.22-1.81a1.928 1.928 0 0 1 1.29-1.02V3.7c0-.48 0-.75.14-1.02.12-.24.31-.42.55-.55.27-.14.54-.14 1.02-.14h5.59c.48 0 .75 0 1.02.14.24.12.43.31.55.55.14.27.14.53.14 1.02v3.38c.14.03.27.08.39.14.38.19.68.49.87.87.22.43.22.92.22 1.81v4.02c0 1.34 0 2.01-.3 2.6-.26.52-.68.94-1.2 1.2-.59.3-1.26.3-2.6.3H8.1ZM6.9 8c-.74 0-1.14 0-1.35.11-.19.1-.34.25-.44.44C5 8.76 5 9.17 5 9.9v4.02c0 1.18 0 1.77.19 2.14.17.33.43.6.76.77.37.19.97.19 2.14.19h3.79c1.18 0 1.77 0 2.14-.19.33-.17.6-.43.76-.76.19-.37.19-.97.19-2.14V9.91c0-.74 0-1.14-.11-1.35-.1-.19-.25-.34-.44-.44-.21-.11-.62-.11-1.35-.11H6.9V8Zm6.19-1h.42V3.7c0-.25 0-.51-.03-.56a.198.198 0 0 0-.11-.11C13.32 3 13.06 3 12.81 3h-5.6c-.25 0-.51 0-.56.03-.05.02-.08.06-.11.11s-.03.31-.03.56V7h6.58Zm-1.6-1c-.28 0-.5-.22-.5-.5v-.75c0-.28.22-.5.5-.5s.5.22.5.5v.75c0 .28-.22.5-.5.5Zm-3 0c-.28 0-.5-.22-.5-.5v-.75c0-.28.22-.5.5-.5s.5.22.5.5v.75c0 .28-.22.5-.5.5Z"/>
</svg>
