<svg xmlns="http://www.w3.org/2000/svg" viewBox="0 0 20 20">
  <path d="M8.79 13.4c-.15 0-.29-.06-.39-.19a.495.495 0 0 1 .08-.7c.86-.69 2.17-.69 3.03-.01.22.17.26.48.08.7-.17.22-.48.26-.7.08-.51-.4-1.28-.4-1.79 0a.51.51 0 0 1-.31.11v.01Zm-1.14-1.69c-.14 0-.28-.06-.38-.17a.514.514 0 0 1 .04-.71c1.48-1.31 3.89-1.31 5.37 0 .21.18.23.5.04.71-.18.21-.5.23-.71.04-1.12-.98-2.93-.99-4.05 0-.1.08-.21.12-.33.12l.02.01ZM10 15.15a.5.5 0 1 0 0-1 .5.5 0 0 0 0 1Z"/>
  <path d="M8.1 18.02c-1.34 0-2.01 0-2.6-.3a2.73 2.73 0 0 1-1.2-1.2c-.3-.59-.3-1.26-.3-2.6V9.9c0-.92 0-1.38.22-1.81.19-.38.5-.68.87-.87.13-.07.27-.12.42-.15V3.7c0-.47 0-.75.14-1.02.12-.24.31-.42.55-.55.27-.14.53-.14 1.02-.14h5.59c.48 0 .75 0 1.02.14.24.12.43.31.55.55.14.27.14.55.14 1.02v3.38c.14.03.27.08.39.14.38.19.68.49.87.87.22.43.22.89.22 1.81v4.02c0 1.34 0 2.01-.3 2.6-.27.52-.68.94-1.2 1.2-.59.3-1.26.3-2.6.3H8.1ZM6.9 8c-.73 0-1.14 0-1.35.11-.19.09-.34.25-.44.44C5 8.76 5 9.17 5 9.9v4.02c0 1.18 0 1.77.19 2.14.17.33.43.6.77.77.37.19.97.19 2.14.19h3.79c1.18 0 1.77 0 2.15-.19.33-.17.59-.43.76-.76.19-.37.19-.97.19-2.14V9.91c0-.74 0-1.14-.11-1.35a.986.986 0 0 0-.44-.44c-.21-.11-.62-.11-1.35-.11H6.9V8Zm6.19-1h.42V3.7c0-.25 0-.51-.03-.56a.198.198 0 0 0-.11-.11C13.32 3 13.06 3 12.81 3h-5.6c-.25 0-.51 0-.56.03-.05.02-.08.06-.11.11s-.03.31-.03.56V7h6.58Zm-1.6-1c-.28 0-.5-.22-.5-.5v-.75c0-.28.22-.5.5-.5s.5.22.5.5v.75c0 .28-.22.5-.5.5Zm-3 0c-.28 0-.5-.22-.5-.5v-.75c0-.28.22-.5.5-.5s.5.22.5.5v.75c0 .28-.22.5-.5.5Z"/>
</svg>
