<svg xmlns="http://www.w3.org/2000/svg" viewBox="0 0 20 20">
  <path d="M14 18c-2.21 0-4-1.79-4-4s1.79-4 4-4 4 1.79 4 4-1.79 4-4 4Zm0-7c-1.65 0-3 1.35-3 3s1.35 3 3 3 3-1.35 3-3-1.35-3-3-3Zm1.1 4.89a.47.47 0 0 1-.35-.15l-1.11-1.11a.51.51 0 0 1-.15-.35v-2.33c0-.28.22-.5.5-.5s.5.22.5.5v2.13l.96.96c.2.2.2.51 0 .71-.1.1-.23.15-.35.15v-.01ZM2.5 18c-.28 0-.5-.22-.5-.5v-.88c0-1.09 0-1.64.15-2.14a3.488 3.488 0 0 1 2.33-2.33C4.98 12 5.53 12 6.62 12h1.49c.28 0 .5.22.5.5s-.22.5-.5.5H6.62c-1 0-1.5 0-1.85.11-.8.24-1.42.87-1.67 1.67-.11.35-.11.85-.11 1.85v.88c0 .28-.22.5-.5.5L2.5 18Zm5.62-9c-1.93 0-3.5-1.57-3.5-3.5S6.2 2 8.12 2s3.5 1.57 3.5 3.5S10.05 9 8.12 9Zm0-6a2.5 2.5 0 0 0 0 5 2.5 2.5 0 0 0 0-5Z"/>
</svg>
