<svg xmlns="http://www.w3.org/2000/svg" viewBox="0 0 20 20">
  <path d="M10 7a2.5 2.5 0 0 1 0-5 2.5 2.5 0 0 1 0 5Zm0-4c-.83 0-1.5.67-1.5 1.5S9.17 6 10 6s1.5-.67 1.5-1.5S10.83 3 10 3Zm4 8.34c-.15 0-.3-.07-.4-.2-.87-1.15-2.18-1.81-3.6-1.81s-2.73.66-3.6 1.81c-.17.22-.48.26-.7.1a.507.507 0 0 1-.1-.7c1.06-1.4 2.66-2.21 4.4-2.21 1.74 0 3.34.8 4.4 2.21a.498.498 0 0 1-.4.8Z"/>
  <path d="M13 17.983H7c-.28 0-.5-.22-.5-.5s.22-.5.5-.5h2.5v-2H6.1c-1.34 0-2.01 0-2.6-.3a2.68 2.68 0 0 1-1.2-1.2c-.3-.59-.3-1.26-.3-2.6v-2.79c0-1.34 0-2.01.3-2.6.27-.52.68-.94 1.2-1.2.42-.21.9-.27 1.48-.29.28-.03.51.21.52.48 0 .28-.21.51-.48.52-.54.02-.84.07-1.06.18-.33.17-.6.43-.77.76-.19.37-.19.97-.19 2.14v2.79c0 1.18 0 1.77.19 2.14.17.33.43.6.76.76.38.19.97.19 2.15.19h7.8c1.18 0 1.77 0 2.14-.19.33-.17.6-.43.77-.76.19-.37.19-.97.19-2.14v-2.79c0-1.18 0-1.77-.19-2.14-.17-.33-.43-.6-.76-.76-.22-.11-.52-.16-1.06-.18a.49.49 0 0 1-.48-.52c0-.28.25-.49.52-.48.59.02 1.06.08 1.48.29.52.26.94.68 1.2 1.2.3.59.3 1.26.3 2.6v2.79c0 1.34 0 2.01-.3 2.6-.27.52-.68.94-1.2 1.2-.59.3-1.26.3-2.6.3h-3.4v2h2.5c.28 0 .5.22.5.5s-.22.5-.5.5H13Z"/>
</svg>
