<svg xmlns="http://www.w3.org/2000/svg" viewBox="0 0 20 20">
  <path d="M6.14 17.01c-.28 0-.5-.22-.5-.5v-.92c0-1.42 0-2.13.26-2.76.35-.84 1.01-1.5 1.85-1.85.47-.19 1-.24 1.71-.25.27 0 .49.22.5.49 0 .28-.21.5-.49.51-.7.01-1.07.06-1.35.18a2.4 2.4 0 0 0-1.3 1.3c-.18.44-.18 1.09-.18 2.38v.92c0 .28-.22.5-.5.5Zm-3.64 0c-.28 0-.5-.22-.5-.5v-2.37c0-1.56 1.05-2.92 2.56-3.3.27-.07.54.09.61.36.07.27-.09.54-.36.61A2.408 2.408 0 0 0 3 14.14v2.37c0 .28-.22.5-.5.5Zm9.09-8.19c-1.88 0-3.41-1.53-3.41-3.41C8.18 3.53 9.71 2 11.59 2 13.47 2 15 3.53 15 5.41c0 1.88-1.53 3.41-3.41 3.41Zm0-5.82c-1.33 0-2.41 1.08-2.41 2.41s1.08 2.41 2.41 2.41S14 6.74 14 5.41 12.92 3 11.59 3ZM7.23 8.61c-.06 0-.13-.01-.19-.04a3.403 3.403 0 0 1-2.13-3.16c0-1.39.84-2.64 2.13-3.16.25-.11.55.02.65.28.1.26-.02.55-.28.65A2.4 2.4 0 0 0 5.9 5.42c0 .99.59 1.86 1.51 2.23.26.1.38.4.28.65a.51.51 0 0 1-.46.31ZM13.45 18c-.22 0-.42-.1-.55-.27-.16-.19-.16-.41-.16-.71v-1.18c-.02 0-.05.01-.07.02a4.241 4.241 0 0 0-2.22 1.26c-.17.18-.43.24-.66.15a.594.594 0 0 1-.38-.55c0-1.11.41-2.18 1.15-3.01.54-.6 1.23-1.05 2-1.3.07-.02.13-.04.17-.05v-1.38c0-.31 0-.53.16-.72a.76.76 0 0 1 .56-.26c.25 0 .42.15.65.35l3.52 3.02c.14.12.25.22.32.4.06.15.06.32 0 .48-.06.17-.18.27-.31.39l-3.52 3.02c-.23.2-.4.34-.65.35h-.02l.01-.01Zm-.59-3.17c.09 0 .17.01.27.04.2.07.38.22.49.39.13.21.13.42.13.7v.69l3.1-2.66-3.1-2.66v.89c0 .23 0 .38-.06.54-.06.15-.14.26-.27.37-.14.11-.29.16-.54.24-.6.19-1.14.54-1.56 1.01-.35.39-.6.84-.75 1.33.23-.16.47-.3.73-.43.37-.18.76-.31 1.16-.4.14-.03.27-.06.4-.06v.01Z"/>
</svg>
