<svg xmlns="http://www.w3.org/2000/svg" viewBox="0 0 20 20">
  <path d="M2.5 17c-.28 0-.5-.22-.5-.5v-1.93c0-1.01.41-1.96 1.16-2.67.74-.71 1.72-1.09 2.77-1.09h6.85c.28 0 .5.22.5.5s-.22.5-.5.5H5.93c-.78 0-1.53.3-2.08.82S3 13.84 3 14.58v1.93c0 .28-.22.5-.5.5V17Zm14.99 0c-.28 0-.5-.22-.5-.5v-1.93c0-.28.22-.5.5-.5s.5.22.5.5v1.93c0 .28-.22.5-.5.5ZM10 8.86c-1.89 0-3.43-1.54-3.43-3.43C6.57 3.54 8.11 2 10 2c1.89 0 3.43 1.54 3.43 3.43 0 1.89-1.54 3.43-3.43 3.43ZM10 3C8.66 3 7.57 4.09 7.57 5.43S8.66 7.86 10 7.86s2.43-1.09 2.43-2.43S11.34 3 10 3Z"/>
  <path d="M10.28 18c-.33 0-.67-.13-.92-.38l-2.19-2.19c-.2-.2-.2-.51 0-.71.2-.2.51-.2.71 0l2.19 2.19c.11.11.31.11.42 0l5.49-5.49c.2-.2.51-.2.71 0 .2.2.2.51 0 .71l-5.49 5.49c-.25.25-.59.38-.92.38Z"/>
</svg>
