<svg xmlns="http://www.w3.org/2000/svg" viewBox="0 0 20 20">
  <path d="M2.5 17.95c-.28 0-.5-.22-.5-.5v-.83c0-1.09 0-1.64.15-2.14a3.488 3.488 0 0 1 2.33-2.33C4.98 12 5.53 12 6.62 12c.28 0 .5.22.5.5s-.22.5-.5.5c-1 0-1.5 0-1.85.11-.8.24-1.42.87-1.67 1.67-.11.35-.11.85-.11 1.85v.83c0 .28-.22.5-.5.5l.01-.01ZM8.12 9c-1.93 0-3.5-1.57-3.5-3.5S6.2 2 8.12 2s3.5 1.57 3.5 3.5S10.05 9 8.12 9Zm0-6a2.5 2.5 0 0 0 0 5 2.5 2.5 0 0 0 0-5Zm5.68 8.7a1.83 1.83 0 1 0 .002 3.662 1.83 1.83 0 0 0-.001-3.662Zm0 2.66c-.46 0-.83-.37-.83-.83 0-.46.37-.83.83-.83.46 0 .83.37.83.83 0 .46-.37.83-.83.83Z"/>
  <path d="M17.86 15.383c.23-.39.17-.87-.12-1.2l-.55-.62v-.12l.55-.62c.3-.34.34-.82.13-1.2l-.42-.72c-.22-.38-.65-.59-1.1-.5l-.83.17a.405.405 0 0 0-.09-.05l-.27-.81c-.14-.42-.54-.7-.98-.7h-.83c-.45 0-.84.29-.98.7l-.27.82c-.03.02-.06.03-.09.05l-.83-.17c-.44-.09-.88.12-1.1.49l-.42.72c-.23.39-.17.87.12 1.2l.55.62v.12l-.55.62c-.3.34-.34.82-.13 1.2l.42.72c.22.38.65.59 1.1.5l.83-.17s.06.04.09.05l.27.81c.14.42.54.7.98.7h.83c.45 0 .84-.29.98-.7l.27-.82c.03-.02.06-.03.09-.05l.83.17c.44.09.88-.12 1.1-.49l.41-.71.01-.01Zm-.86-.5-.41.71s-.01.02-.02.02h-.01l-1.01-.21c-.14-.03-.28 0-.39.08-.11.08-.22.14-.34.2-.12.06-.22.16-.26.29l-.33.98s0 .02-.02.02h-.87l-.01-.02-.33-.98a.478.478 0 0 0-.24-.28c-.14-.07-.26-.14-.37-.21a.512.512 0 0 0-.38-.08l-1.01.21h-.02s-.01 0-.02-.02l-.41-.71v-.03l.69-.78c.09-.1.13-.23.13-.37v-.42c0-.13-.04-.27-.13-.37l-.69-.77v-.03l.41-.72s.01-.02.02-.02h.01l1.01.21c.14.03.28 0 .39-.08.11-.08.22-.14.34-.2.12-.06.22-.16.26-.29l.33-.98s0-.02.02-.02h.87l.01.02.33.98c.04.12.13.23.24.28.14.07.26.14.37.21.11.08.25.1.38.08l1.01-.21h.02s.01 0 .02.02l.41.71v.03l-.69.78a.54.54 0 0 0-.13.37v.42c0 .13.04.27.13.37l.69.77v.04Z"/>
</svg>
