<svg xmlns="http://www.w3.org/2000/svg" viewBox="0 0 20 20">
  <path d="M17.5 18c-.28 0-.5-.22-.5-.5V17c0-1.33 0-2-.19-2.46-.26-.62-.74-1.1-1.35-1.35C15 13 14.33 13 13 13h-2.25c-1.33 0-2 0-2.46.19-.62.26-1.1.74-1.35 1.35-.19.46-.19 1.13-.19 2.46v.5c0 .28-.22.5-.5.5s-.5-.22-.5-.5V17c0-1.46 0-2.2.27-2.84.36-.86 1.03-1.54 1.89-1.89.64-.27 1.38-.27 2.84-.27H13c1.46 0 2.2 0 2.84.27.86.36 1.54 1.03 1.89 1.89.27.64.27 1.38.27 2.84v.5c0 .28-.22.5-.5.5Zm-15 0c-.28 0-.5-.22-.5-.5v-2c0-1.6 1.08-2.99 2.63-3.39.26-.07.54.09.61.36.07.27-.09.54-.36.61-1.1.28-1.87 1.28-1.87 2.42v2c0 .28-.22.5-.5.5H2.5Zm9.38-8c-1.93 0-3.5-1.57-3.5-3.5S9.95 3 11.88 3s3.5 1.57 3.5 3.5-1.57 3.5-3.5 3.5Zm0-6a2.5 2.5 0 0 0 0 5 2.5 2.5 0 0 0 0-5Zm-4.5 5.78c-.06 0-.13-.01-.19-.04A3.49 3.49 0 0 1 5 6.49c0-1.44.86-2.7 2.19-3.24.26-.1.55.02.65.28.1.26-.02.55-.28.65A2.48 2.48 0 0 0 6 6.5c0 1.03.61 1.93 1.56 2.32.26.1.38.4.28.65a.51.51 0 0 1-.46.31Z"/>
</svg>
