<svg xmlns="http://www.w3.org/2000/svg" viewBox="0 0 20 20">
  <path d="M17.49 18c-.28 0-.5-.22-.5-.5v-.7c.01-.72.02-1.24-.07-1.54-.28-.91-.99-1.61-1.9-1.89-.4-.12-.97-.12-2.08-.12H7.16c-1.12 0-1.68 0-2.08.12-.91.28-1.62.98-1.9 1.89-.12.39-.17 1.06-.17 2.24 0 .28-.22.5-.5.5s-.5-.22-.5-.5c0-1.3.06-2.03.21-2.53a3.801 3.801 0 0 1 2.57-2.55c.55-.17 1.16-.17 2.37-.17h5.78c1.22 0 1.83 0 2.37.17a3.86 3.86 0 0 1 2.57 2.55c.14.44.13 1 .12 1.84v.69c0 .28-.23.5-.5.5h-.01ZM10 10.12c-2.25 0-4.08-1.82-4.08-4.06C5.92 3.82 7.75 2 10 2s4.08 1.82 4.08 4.06c0 2.24-1.83 4.06-4.08 4.06ZM10 3C8.3 3 6.92 4.37 6.92 6.06S8.3 9.12 10 9.12c1.7 0 3.08-1.37 3.08-3.06S11.7 3 10 3Z"/>
</svg>
