<svg xmlns="http://www.w3.org/2000/svg" viewBox="0 0 20 20">
  <path d="M2.5 18c-.28 0-.5-.22-.5-.5v-.88c0-1.09 0-1.64.15-2.14a3.488 3.488 0 0 1 2.33-2.33C4.98 12 5.53 12 6.62 12h1.49c.28 0 .5.22.5.5s-.22.5-.5.5H6.62c-1 0-1.5 0-1.85.11-.8.24-1.42.87-1.67 1.67-.11.35-.11.85-.11 1.85v.88c0 .28-.22.5-.5.5L2.5 18Zm5.62-9c-1.93 0-3.5-1.57-3.5-3.5S6.2 2 8.12 2s3.5 1.57 3.5 3.5S10.05 9 8.12 9Zm0-6a2.5 2.5 0 0 0 0 5 2.5 2.5 0 0 0 0-5Zm5.92 15c-.86 0-1.57-.7-1.57-1.57 0-.28.22-.5.5-.5s.5.22.5.5c0 .31.25.57.57.57.32 0 .57-.25.57-.57 0-.28.22-.5.5-.5s.5.22.5.5c0 .86-.7 1.57-1.57 1.57Zm-2.93-2.13c-.57 0-1.03-.46-1.03-1.03v-.22c0-.33.13-.64.36-.88l.69-.69v-1.14c0-1.6 1.31-2.9 2.91-2.9s2.9 1.3 2.9 2.9v1.11l.7.71c.24.24.37.55.37.89v.22c0 .56-.44 1.01-1 1.03h-5.9ZM14.04 10a1.9 1.9 0 0 0-1.9 1.9v1.11c0 .28-.11.54-.3.73l-.69.69s-.07.11-.07.18v.22l5.89.03.03-.25c0-.07-.02-.13-.07-.18l-.69-.69c-.2-.21-.3-.46-.3-.73V11.9a1.9 1.9 0 0 0-1.9-1.9Z"/>
</svg>
