<svg xmlns="http://www.w3.org/2000/svg" viewBox="0 0 20 20">
  <path d="M17.5 16h-6c-.28 0-.5-.22-.5-.5s.22-.5.5-.5h6c.28 0 .5.22.5.5s-.22.5-.5.5Zm-15 1.97c-.28 0-.5-.22-.5-.5v-.83c0-1.09 0-1.64.15-2.14a3.488 3.488 0 0 1 2.33-2.33c.5-.15 1.05-.15 2.14-.15h1.9c.28 0 .5.22.5.5s-.22.5-.5.5h-1.9c-1 0-1.5 0-1.85.11-.8.24-1.42.87-1.67 1.67-.11.35-.11.85-.11 1.85v.83c0 .28-.22.5-.5.5l.01-.01ZM8.12 9c-1.93 0-3.5-1.57-3.5-3.5S6.2 2 8.12 2s3.5 1.57 3.5 3.5S10.05 9 8.12 9Zm0-6a2.5 2.5 0 0 0 0 5 2.5 2.5 0 0 0 0-5Z"/>
</svg>
