<svg xmlns="http://www.w3.org/2000/svg" viewBox="0 0 20 20">
  <path d="M6.25 17.28c-.28 0-.5-.22-.5-.5V16c0-1.46 0-2.2.27-2.84.36-.86 1.03-1.54 1.89-1.89.64-.27 1.38-.27 2.84-.27h3.01c.28.02.49.25.48.53 0 .28-.24.51-.52.48h-.19a9.246 9.246 0 0 0-.54-.01h-2.25c-1.33 0-2 0-2.46.19-.61.25-1.1.74-1.35 1.35-.19.46-.19 1.13-.19 2.46v.78c0 .28-.22.5-.5.5h.01Zm-3.75 0c-.28 0-.5-.22-.5-.5V14.5c0-1.6 1.08-2.99 2.63-3.39.27-.07.54.09.61.36.07.27-.09.54-.36.61-1.1.28-1.87 1.28-1.87 2.42v2.28c0 .28-.22.5-.5.5H2.5ZM11.88 9c-1.93 0-3.5-1.57-3.5-3.5S9.95 2 11.88 2s3.5 1.57 3.5 3.5S13.81 9 11.88 9Zm0-6a2.5 2.5 0 0 0 0 5 2.5 2.5 0 0 0 0-5Zm-4.5 5.78c-.06 0-.13-.01-.19-.04A3.49 3.49 0 0 1 5 5.49c0-1.44.86-2.7 2.19-3.24.26-.1.55.02.65.28.1.26-.02.55-.28.65A2.48 2.48 0 0 0 6 5.5c0 1.03.61 1.93 1.56 2.32.26.1.38.4.28.65a.51.51 0 0 1-.46.31ZM12.487 18c-.35 0-.67-.13-.92-.38l-1.71-1.71c-.2-.2-.2-.51 0-.71.2-.2.51-.2.71 0l1.71 1.71c.12.12.31.12.42 0l4.44-4.43c.2-.2.51-.2.71 0 .2.2.2.51 0 .71l-4.44 4.43c-.25.25-.57.38-.92.38Z"/>
</svg>
