<svg xmlns="http://www.w3.org/2000/svg" viewBox="0 0 20 20">
  <path d="M17.79 6.59a.858.858 0 0 0-.73-.3c-.32.02-.53.24-.92.62L14 8.88V7.5A2.5 2.5 0 0 0 11.5 5h-7A2.5 2.5 0 0 0 2 7.5v5A2.5 2.5 0 0 0 4.5 15h7a2.5 2.5 0 0 0 2.5-2.5v-1.38l2.13 1.97c.39.39.61.6.93.63h.07c.25 0 .5-.11.67-.31.21-.25.21-.55.21-1.11V7.7c0-.56 0-.87-.21-1.11h-.01ZM13 12.5c0 .83-.67 1.5-1.5 1.5h-7c-.83 0-1.5-.67-1.5-1.5v-5C3 6.67 3.67 6 4.5 6h7c.83 0 1.5.67 1.5 1.5v5Zm3.81-.14L14.26 10l2.58-2.38.16-.16v5.08l-.19-.19v.01Z"/>
</svg>
