<svg xmlns="http://www.w3.org/2000/svg" viewBox="0 0 20 20">
  <path d="M9.12 15.94h-.07c-.32-.03-.54-.24-.94-.64l-2.6-2.36c-.1-.1-.17-.17-.2-.19-.1-.04-.2-.04-.32-.04h-1.3c-.48 0-.75 0-1.02-.14-.23-.12-.42-.31-.55-.55-.14-.27-.14-.53-.14-1.02V8.9c0-.48 0-.75.14-1.02.12-.24.31-.43.55-.55.26-.14.53-.14 1.02-.14h1.54c.1-.05.17-.12.25-.2l2.65-2.36c.39-.39.6-.6.92-.63.27-.02.55.09.73.31.21.24.21.55.21 1.11v9.1c0 .56 0 .87-.21 1.11-.16.19-.41.31-.66.31ZM3.7 8.22c-.25 0-.51 0-.56.03-.05.02-.09.06-.11.11-.03.05-.03.31-.03.56v2.1c0 .25 0 .51.03.56.02.05.06.09.11.11.06.03.31.03.56.03H5c.21 0 .33 0 .48.03.13.03.25.08.36.15.13.08.22.17.36.31l2.6 2.36.19.19V5.18l-.17.17-.02.02-2.62 2.37c-.12.12-.22.22-.34.3-.11.07-.23.12-.36.15-.14.03-.27.03-.48.03H3.7Zm12.11 7.5c-.1 0-.2-.03-.29-.09a.497.497 0 0 1-.11-.7A8.47 8.47 0 0 0 17 9.97c0-1.79-.55-3.51-1.59-4.96a.507.507 0 0 1 .11-.7c.22-.16.54-.11.7.11A9.406 9.406 0 0 1 18 9.96c0 2-.62 3.92-1.78 5.54-.1.14-.25.21-.41.21v.01Zm-3-2.25a.499.499 0 0 1-.41-.79c.56-.8.85-1.74.85-2.71s-.29-1.92-.85-2.71c-.16-.23-.1-.54.12-.7.23-.16.54-.1.7.12.67.97 1.03 2.1 1.03 3.29s-.36 2.32-1.03 3.29c-.1.14-.25.21-.41.21Z"/>
</svg>
