<svg xmlns="http://www.w3.org/2000/svg" viewBox="0 0 20 20">
  <path d="M13.23 18.01a.76.76 0 0 1-.56-.26c-.16-.2-.16-.41-.16-.74v-1.27c-.38.07-.75.19-1.11.37-.59.28-1.1.68-1.52 1.18a.496.496 0 0 1-.88-.32v-.27c0-1.17.43-2.29 1.21-3.16a4.74 4.74 0 0 1 2.3-1.42v-1.48c0-.32 0-.54.16-.74.14-.17.33-.25.57-.27.26 0 .42.15.67.36l3.72 3.19c.14.13.26.23.33.41.06.15.06.33 0 .49-.06.17-.18.28-.31.39l-3.72 3.19c-.24.21-.41.35-.67.36h-.02l-.01-.01Zm-.22-3.35c.13 0 .25.05.34.13.1.09.16.23.16.37v1.51l3.34-2.86-3.34-2.86v1.56c0 .24-.17.45-.41.49-.82.14-1.59.57-2.14 1.19-.38.43-.66.94-.81 1.49a5.597 5.597 0 0 1 2.84-1.02h.03-.01Z"/>
  <path d="M6.65 17.21c-.07 0-.15-.02-.22-.05A7.962 7.962 0 0 1 2 10c0-4.41 3.59-8 8-8s8 3.59 8 8c0 .28-.22.5-.5.5s-.5-.22-.5-.5c0-3.47-2.54-6.36-5.86-6.91 1.06 1.42 1.79 3.06 2.14 4.81.05.27-.12.53-.39.59a.495.495 0 0 1-.59-.39c-.35-1.78-1.14-3.44-2.29-4.83a10.997 10.997 0 0 0-2.48 6.24h2.48c.28 0 .5.22.5.5s-.22.5-.5.5H7.53c.06.86.22 1.72.48 2.56a.502.502 0 1 1-.96.3c-.29-.93-.47-1.89-.53-2.86h-3.5a6.964 6.964 0 0 0 3.86 5.77c.25.12.35.42.22.67-.09.17-.26.28-.45.28v-.02ZM3.02 9.5h3.5c.15-2.33.96-4.55 2.34-6.41A7.01 7.01 0 0 0 3.02 9.5Z"/>
</svg>
