<svg xmlns="http://www.w3.org/2000/svg" viewBox="0 0 20 20">
  <path d="M7.4 12.79c-.15 0-.29-.06-.39-.19a.495.495 0 0 1 .08-.7c1.64-1.31 4.13-1.33 5.79-.03.22.17.26.48.08.7-.17.22-.48.26-.7.08-1.31-1.03-3.24-1.02-4.54.02a.51.51 0 0 1-.31.11l-.01.01Zm7.64-2.48c-.12 0-.24-.04-.33-.12A7.114 7.114 0 0 0 10 8.41c-1.73 0-3.41.63-4.71 1.78-.21.18-.52.16-.71-.04a.514.514 0 0 1 .04-.71A8.123 8.123 0 0 1 10 7.41c1.99 0 3.89.72 5.37 2.03.21.18.23.5.04.71-.1.11-.24.17-.38.17l.01-.01ZM2.5 7.86c-.14 0-.27-.05-.37-.16-.19-.2-.17-.52.03-.71C4.31 5.02 7.09 3.94 10 3.94s5.69 1.08 7.84 3.05c.2.19.22.5.03.71-.19.21-.5.22-.71.03-1.96-1.79-4.5-2.78-7.16-2.78s-5.2.98-7.16 2.77c-.1.09-.22.13-.34.13v.01Zm7.5 8.2c-.55 0-1.01-.45-1.01-1s.44-1 1-1H10c.55 0 1 .45 1 1s-.45 1-1 1Z"/>
</svg>
