<svg xmlns="http://www.w3.org/2000/svg" viewBox="0 0 20 20">
  <path d="M5.47 18c-.95 0-1.48-.05-1.96-.3a2.73 2.73 0 0 1-1.2-1.2c-.3-.59-.3-1.26-.3-2.6V7c0-.74 0-1.11.09-1.46.25-.95 1-1.69 1.94-1.94.26-.07.53-.09.96-.09 0-.36.02-.59.14-.82.12-.24.31-.42.55-.55C5.96 2 6.22 2 6.71 2h3.6c.48 0 .75 0 1.02.14.24.12.43.31.55.55.12.23.13.45.14.82.43 0 .7.02.96.09.95.25 1.69 1 1.94 1.94a.5.5 0 0 1-.35.61.5.5 0 0 1-.61-.35c-.16-.6-.64-1.08-1.24-1.24-.16-.04-.37-.06-.7-.06 0 .36-.02.59-.14.81-.12.24-.31.43-.55.55-.27.14-.53.14-1.02.14h-3.6c-.48 0-.75 0-1.02-.14a1.27 1.27 0 0 1-.55-.55c-.12-.23-.13-.46-.14-.82-.34 0-.55.02-.7.06-.6.16-1.08.64-1.24 1.24C3 6.01 3 6.34 3 6.99v6.9c0 1.18 0 1.77.19 2.14.17.33.43.6.77.77.3.15.75.18 1.52.19.28 0 .5.23.5.5s-.23.5-.5.5l-.01.01ZM6 4.3c0 .25 0 .51.03.56.02.05.06.08.11.11s.31.03.56.03h3.6c.25 0 .51 0 .56-.03.05-.02.09-.06.11-.11.03-.05.03-.31.03-.56v-.6c0-.25 0-.51-.03-.56-.02-.05-.06-.08-.11-.11S10.55 3 10.3 3H6.7c-.25 0-.51 0-.56.03-.05.02-.09.06-.11.11C6 3.19 6 3.45 6 3.7v.6Z"/>
  <path d="M6.51 12h-1c-.28 0-.5-.22-.5-.5s.22-.5.5-.5h1c.28 0 .5.22.5.5s-.22.5-.5.5ZM8.5 9H5.51c-.28 0-.5-.22-.5-.5s.22-.5.5-.5H8.5c.28 0 .5.22.5.5s-.22.5-.5.5Zm0 9a.47.47 0 0 1-.35-.15.486.486 0 0 1-.14-.41l.18-1.58c.02-.21.04-.34.08-.48.04-.12.09-.24.17-.34.07-.1.15-.19.32-.37l6.15-6.15c.69-.69 1.88-.69 2.57 0 .34.34.53.8.53 1.28s-.19.94-.53 1.29l-6.15 6.15c-.17.17-.26.25-.36.32-.12.08-.23.13-.35.17-.1.03-.22.05-.43.08l-1.62.18h-.06L8.5 18Zm7.68-9c-.22 0-.42.08-.58.24l-6.15 6.15c-.1.1-.16.15-.2.21-.02.03-.04.06-.05.1-.01.04-.02.14-.04.28l-.11.96.95-.11c.16-.02.22-.02.28-.04.04-.01.07-.03.11-.05.05-.04.1-.09.2-.19l6.15-6.15c.15-.15.24-.36.24-.58 0-.22-.08-.42-.24-.58a.801.801 0 0 0-.58-.24h.02Z"/>
</svg>
