<svg xmlns="http://www.w3.org/2000/svg" viewBox="0 0 20 20">
  <path d="M2.546 13.03c-.08 0-.16-.02-.25-.06a.712.712 0 0 1-.22-.15.328.328 0 0 1-.09-.22c0-.05.02-.1.05-.16l1.14-1.86-1.11-1.85a.323.323 0 0 1-.06-.18c0-.08.03-.14.09-.21.06-.06.13-.11.21-.14.09-.04.17-.05.25-.05.07 0 .13.02.17.05.05.03.09.07.11.13l.9 1.62.9-1.62c.03-.06.07-.1.11-.13.05-.04.11-.05.17-.05a.687.687 0 0 1 .46.19c.06.06.09.13.09.21 0 .06-.02.12-.06.18l-1.1 1.85 1.14 1.86c.04.06.05.11.05.16 0 .08-.03.15-.09.22-.06.06-.14.11-.22.15-.08.04-.17.06-.25.06a.25.25 0 0 1-.23-.14l-.97-1.7-.96 1.7s-.06.07-.1.1c-.04.03-.08.04-.13.04Zm3.81-.03c-.09 0-.18-.02-.26-.07-.08-.05-.12-.12-.12-.2V8.44c0-.09.04-.16.13-.2.09-.04.19-.07.3-.07.11 0 .21.02.3.07.09.04.13.11.13.2v3.81h1.62c.08 0 .15.04.18.12.04.08.07.16.07.26s-.02.18-.07.26c-.04.08-.1.12-.18.12h-2.1V13Zm4.1.06c-.29 0-.55-.04-.78-.12-.23-.08-.41-.19-.55-.31-.13-.13-.2-.26-.2-.38a.534.534 0 0 1 .19-.38c.06-.05.12-.08.19-.08s.14.03.2.08.13.11.21.18c.08.07.18.13.29.18.11.05.26.07.42.07.13 0 .25-.02.36-.06.11-.04.2-.11.27-.19s.11-.19.11-.32c0-.14-.04-.26-.11-.36a.932.932 0 0 0-.3-.25c-.13-.07-.27-.14-.42-.2-.15-.06-.3-.14-.46-.21-.15-.08-.29-.17-.42-.27-.12-.11-.22-.24-.3-.39-.07-.15-.11-.34-.11-.57 0-.25.05-.45.14-.62.1-.17.22-.3.38-.4.16-.1.33-.18.52-.22.19-.05.38-.07.57-.07.1 0 .22 0 .36.03.14.01.28.04.42.08.14.04.26.1.34.17.09.07.14.15.14.26 0 .05-.01.11-.04.18-.02.07-.06.13-.11.19-.05.05-.11.08-.19.08a.42.42 0 0 1-.21-.06c-.07-.04-.15-.09-.26-.12-.11-.04-.25-.07-.44-.07-.15 0-.29.02-.4.07-.11.04-.2.1-.26.17a.4.4 0 0 0-.09.27c0 .11.04.21.11.29.08.08.18.15.3.21.13.06.27.12.42.18.15.06.3.13.45.22.15.08.29.18.42.29.13.11.23.26.3.43.07.17.11.37.11.62 0 .31-.07.58-.2.79-.14.21-.32.37-.56.48-.23.11-.5.16-.81.16v-.03Zm2.41-.03c-.08 0-.16-.02-.25-.06a.712.712 0 0 1-.22-.15.328.328 0 0 1-.09-.22c0-.05.02-.1.05-.16l1.14-1.86-1.1-1.85a.323.323 0 0 1-.06-.18c0-.08.03-.14.09-.21.06-.06.13-.11.21-.14.09-.04.17-.05.25-.05.07 0 .13.02.17.05.05.03.09.07.11.13l.9 1.62.9-1.62c.03-.06.07-.1.11-.13.05-.04.11-.05.17-.05a.687.687 0 0 1 .46.19c.06.06.09.13.09.21 0 .06-.02.12-.06.18l-1.1 1.85 1.14 1.86c.04.06.05.11.05.16 0 .08-.03.15-.09.22-.06.06-.14.11-.22.15-.08.04-.17.06-.25.06a.25.25 0 0 1-.23-.14l-.97-1.7-.96 1.7s-.06.07-.1.1c-.04.03-.08.04-.13.04h-.01Z"/>
  <path d="M13.91 18H8.14c-.38 0-.57 0-.73-.02a2.758 2.758 0 0 1-2.37-2.37c-.02-.16-.02-.35-.02-.73 0-.28.22-.5.5-.5s.5.22.5.5c0 .31 0 .47.01.6.1.78.72 1.4 1.51 1.51.13.02.29.01.6.01h5.77c1.18 0 1.77 0 2.14-.19.33-.17.6-.43.76-.76.19-.38.19-.97.19-2.14V8.5c0-.51 0-.77-.05-.97-.04-.18-.11-.35-.21-.51-.11-.17-.29-.35-.65-.71l-2.39-2.4c-.36-.36-.54-.54-.72-.65-.16-.1-.33-.17-.51-.21-.2-.05-.46-.05-.97-.05H8.12c-.31 0-.47 0-.6.01-.79.1-1.4.72-1.51 1.51-.02.13-.01.29-.01.6 0 .28-.22.5-.5.5S5 5.4 5 5.12c0-.38 0-.57.02-.73A2.8 2.8 0 0 1 7.4 2.02C7.56 2 7.75 2 8.13 2h3.38c.57 0 .88 0 1.2.08.28.07.55.18.79.33.28.17.5.39.9.79l2.39 2.4c.4.4.63.62.8.9.15.25.26.52.33.8.08.32.08.63.08 1.2v5.41c0 1.34 0 2.01-.3 2.6-.26.52-.68.94-1.2 1.2-.59.3-1.26.3-2.6.3l.01-.01Z"/>
</svg>
