<svg xmlns="http://www.w3.org/2000/svg" viewBox="0 0 20 20">
  <path d="M9.165 18c-.06 0-.12-.01-.18-.04a.497.497 0 0 1-.31-.53l.76-5.68h-3.56c-.51 0-.8 0-1.05-.19a.912.912 0 0 1-.36-.69c-.01-.31.16-.56.45-.96l5.51-7.7c.13-.19.38-.26.59-.17.21.08.34.3.31.53l-.76 5.68h3.55c.52 0 .8 0 1.05.19.21.16.34.42.36.69.01.31-.15.54-.45.96l-5.5 7.7c-.1.13-.25.21-.41.21Zm-3.29-7.25h4.12c.14 0 .28.06.38.17.1.11.14.25.12.4l-.57 4.26 4.33-6.06c.07-.09.13-.19.19-.27h-4.44c-.14 0-.28-.06-.38-.17a.483.483 0 0 1-.12-.4l.57-4.26-4.33 6.07c-.06.09-.13.19-.19.27h.32v-.01Z"/>
</svg>
