<svg xmlns="http://www.w3.org/2000/svg" viewBox="0 0 20 20">
  <path d="M17.5 18a.47.47 0 0 1-.35-.15l-3.28-3.28a7.111 7.111 0 0 1-4.7 1.76C5.22 16.33 2 13.12 2 9.16S5.21 2 9.17 2a7.17 7.17 0 0 1 7.17 7.17c0 1.8-.66 3.44-1.76 4.7l3.28 3.28c.2.2.2.51 0 .71-.1.1-.23.15-.35.15L17.5 18ZM9.17 3A6.18 6.18 0 0 0 3 9.17c0 3.4 2.77 6.17 6.17 6.17 1.68 0 3.2-.67 4.31-1.76.01-.02.03-.03.04-.05.01-.02.03-.03.05-.04a6.127 6.127 0 0 0 1.76-4.31c0-3.4-2.77-6.17-6.17-6.17L9.17 3Zm0 9.67c-.28 0-.5-.22-.5-.5v-2.5h-2.5c-.28 0-.5-.22-.5-.5s.22-.5.5-.5h2.5v-2.5c0-.28.22-.5.5-.5s.5.22.5.5v2.5h2.5c.28 0 .5.22.5.5s-.22.5-.5.5h-2.5v2.5c0 .28-.22.5-.5.5Z"/>
</svg>
