<svg width="264" height="232" viewBox="0 0 264 232" fill="none" xmlns="http://www.w3.org/2000/svg">
<g filter="url(#filter0_d_205_4206)">
<rect x="12" y="8" width="240" height="208" rx="8" fill="white"/>
<rect x="12.5" y="8.5" width="239" height="207" rx="7.5" stroke="#C3C9D6"/>
<mask id="path-3-inside-1_205_4206" fill="white">
<path d="M12 12H252V48H12V12Z"/>
</mask>
<path d="M252 48V47H12V48V49H252V48Z" fill="#E1E4EB" mask="url(#path-3-inside-1_205_4206)"/>
<path d="M29.1621 35V24.9922H32.4365C32.9378 24.9922 33.4072 25.0492 33.8447 25.1631C34.2868 25.2725 34.6696 25.4502 34.9932 25.6963C35.3213 25.9424 35.5788 26.2614 35.7656 26.6533C35.957 27.0407 36.0527 27.5124 36.0527 28.0684C36.0527 28.4785 36.0003 28.8385 35.8955 29.1484C35.7907 29.4583 35.6471 29.7249 35.4648 29.9482C35.278 30.1761 35.057 30.363 34.8018 30.5088C34.5465 30.6546 34.2686 30.7708 33.9678 30.8574C33.6624 30.944 33.3503 31.0033 33.0312 31.0352C32.7168 31.0671 32.4023 31.083 32.0879 31.083C32.0469 31.083 32.0059 31.083 31.9648 31.083L30.7139 31.0693V35H29.1621ZM30.7139 29.9072H32.4844C33.1315 29.9072 33.6283 29.7614 33.9746 29.4697C34.3255 29.1735 34.501 28.6973 34.501 28.041C34.501 27.6992 34.4531 27.4144 34.3574 27.1865C34.2663 26.9541 34.1318 26.765 33.9541 26.6191C33.7809 26.4779 33.569 26.3776 33.3184 26.3184C33.0723 26.2546 32.7943 26.2227 32.4844 26.2227H30.7139V29.9072ZM37.6045 35V24.876L39.0605 24.2334V35H37.6045ZM45.4316 35V34.0908C45.1582 34.46 44.8232 34.7266 44.4268 34.8906C44.0348 35.0547 43.6178 35.1367 43.1758 35.1367C42.8431 35.1367 42.5264 35.0911 42.2256 35C41.9294 34.9089 41.6719 34.7721 41.4531 34.5898C41.2298 34.4076 41.0521 34.182 40.9199 33.9131C40.7923 33.6396 40.7285 33.3252 40.7285 32.9697C40.7285 32.6462 40.7832 32.3636 40.8926 32.1221C41.002 31.8805 41.1501 31.6755 41.3369 31.5068C41.5238 31.3337 41.7402 31.1947 41.9863 31.0898C42.237 30.9805 42.5036 30.8962 42.7861 30.8369C43.0641 30.7731 43.3512 30.7298 43.6475 30.707C43.9437 30.6842 44.2308 30.6729 44.5088 30.6729H45.418C45.418 30.3766 45.402 30.1077 45.3701 29.8662C45.3382 29.6201 45.2676 29.4082 45.1582 29.2305C45.0488 29.0527 44.8916 28.916 44.6865 28.8203C44.4814 28.7201 44.208 28.6699 43.8662 28.6699C43.6839 28.6699 43.5016 28.6973 43.3193 28.752C43.1416 28.8066 42.9753 28.8818 42.8203 28.9775C42.6699 29.0778 42.5355 29.2008 42.417 29.3467C42.2985 29.488 42.2074 29.6475 42.1436 29.8252L40.9541 29.3125C41.0863 28.998 41.2572 28.7292 41.4668 28.5059C41.6764 28.2826 41.9134 28.098 42.1777 27.9521C42.4421 27.8109 42.7269 27.7061 43.0322 27.6377C43.3421 27.5693 43.6566 27.5352 43.9756 27.5352C44.3994 27.5352 44.7868 27.5921 45.1377 27.7061C45.4932 27.82 45.7985 27.9886 46.0537 28.2119C46.3089 28.4352 46.5072 28.7155 46.6484 29.0527C46.7897 29.3854 46.8604 29.7705 46.8604 30.208V35H45.4316ZM45.418 31.623H44.4951C44.3493 31.623 44.1898 31.6276 44.0166 31.6367C43.8434 31.6458 43.6725 31.6663 43.5039 31.6982C43.3307 31.7301 43.1644 31.778 43.0049 31.8418C42.8454 31.901 42.7018 31.9808 42.5742 32.0811C42.4512 32.1813 42.3532 32.3066 42.2803 32.457C42.2074 32.6029 42.1709 32.7783 42.1709 32.9834C42.1709 33.1702 42.2005 33.332 42.2598 33.4688C42.3236 33.6009 42.4124 33.7103 42.5264 33.7969C42.6357 33.8835 42.7679 33.9473 42.9229 33.9883C43.0824 34.0293 43.2555 34.0498 43.4424 34.0498C43.6839 34.0498 43.9209 34.0179 44.1533 33.9541C44.3903 33.8857 44.6022 33.7832 44.7891 33.6465C44.9759 33.5143 45.1263 33.348 45.2402 33.1475C45.3587 32.9424 45.418 32.7054 45.418 32.4365V31.623ZM52.4316 34.9453C52.0853 35.0547 51.7207 35.1094 51.3379 35.1094C50.6543 35.1094 50.1348 34.9408 49.7793 34.6035C49.4284 34.2663 49.2529 33.749 49.2529 33.0518V28.8066H48.2275V27.6719H49.2529V26.2295L50.6953 25.6006V27.6719H52.3428V28.8066H50.6953V32.915C50.6953 33.0609 50.7113 33.1953 50.7432 33.3184C50.7751 33.4414 50.8275 33.5485 50.9004 33.6396C50.9688 33.7262 51.0622 33.7946 51.1807 33.8447C51.2992 33.8949 51.4427 33.9199 51.6113 33.9199C51.7344 33.9199 51.8643 33.9085 52.001 33.8857C52.1423 33.8584 52.2858 33.8197 52.4316 33.7695V34.9453ZM54.2842 35V28.8066H53.2588V27.6719H54.2842C54.2842 27.3711 54.2887 27.0771 54.2979 26.79C54.307 26.4984 54.3343 26.2227 54.3799 25.9629C54.4255 25.7031 54.4938 25.4639 54.585 25.2451C54.6807 25.0264 54.8128 24.8372 54.9814 24.6777C55.1546 24.5182 55.3711 24.3952 55.6309 24.3086C55.8906 24.2174 56.2074 24.1719 56.5811 24.1719C56.7861 24.1719 56.9775 24.1878 57.1553 24.2197C57.3376 24.2471 57.513 24.2926 57.6816 24.3564L57.2373 25.3887C57.1553 25.375 57.0732 25.3636 56.9912 25.3545C56.9092 25.3408 56.8271 25.334 56.7451 25.334C56.5446 25.334 56.3783 25.3704 56.2461 25.4434C56.1139 25.5117 56.0114 25.6051 55.9385 25.7236C55.861 25.8421 55.8063 25.9811 55.7744 26.1406C55.7471 26.2956 55.7334 26.4596 55.7334 26.6328V27.6719H57.4629V28.8066H55.7402V35H54.2842ZM59.0762 34.0361C58.7572 33.6943 58.5111 33.2887 58.3379 32.8193C58.1647 32.3454 58.0781 31.8327 58.0781 31.2812C58.0781 30.7435 58.1693 30.2467 58.3516 29.791C58.5384 29.3307 58.7982 28.9342 59.1309 28.6016C59.459 28.2643 59.8532 28.0023 60.3135 27.8154C60.7738 27.624 61.2773 27.5283 61.8242 27.5283C62.3802 27.5283 62.8838 27.6263 63.335 27.8223C63.7861 28.0137 64.1712 28.2803 64.4902 28.6221C64.8138 28.9593 65.0622 29.3604 65.2354 29.8252C65.4085 30.2855 65.4951 30.7845 65.4951 31.3223C65.4951 31.8783 65.4017 32.391 65.2148 32.8604C65.0326 33.3252 64.7751 33.7262 64.4424 34.0635C64.1097 34.4007 63.7132 34.665 63.2529 34.8564C62.7926 35.0433 62.2891 35.1367 61.7422 35.1367C61.1862 35.1367 60.6826 35.041 60.2314 34.8496C59.7803 34.6536 59.3952 34.3825 59.0762 34.0361ZM60.1016 33.209C60.2839 33.446 60.514 33.6328 60.792 33.7695C61.0745 33.9062 61.4072 33.9746 61.79 33.9746C62.1865 33.9746 62.5238 33.9017 62.8018 33.7559C63.0843 33.61 63.3145 33.4163 63.4922 33.1748C63.6699 32.9333 63.7998 32.653 63.8818 32.334C63.9684 32.015 64.0117 31.6846 64.0117 31.3428C64.0117 30.9873 63.9661 30.6501 63.875 30.3311C63.7884 30.0075 63.654 29.7249 63.4717 29.4834C63.2848 29.2373 63.0501 29.0436 62.7676 28.9023C62.485 28.7611 62.1501 28.6904 61.7627 28.6904C61.3662 28.6904 61.029 28.7633 60.751 28.9092C60.473 29.055 60.2451 29.2487 60.0674 29.4902C59.8942 29.7363 59.7666 30.0189 59.6846 30.3379C59.6025 30.6569 59.5615 30.9896 59.5615 31.3359C59.5615 31.7051 59.6048 32.0492 59.6914 32.3682C59.7826 32.6872 59.9193 32.9674 60.1016 33.209ZM67.1562 35V27.6719H68.6123V29.0186C68.8721 28.5127 69.1934 28.1413 69.5762 27.9043C69.9635 27.6628 70.4398 27.542 71.0049 27.542V28.9023C70.6312 28.916 70.2962 28.9616 70 29.0391C69.7038 29.1165 69.4531 29.2396 69.248 29.4082C69.043 29.5768 68.8857 29.7979 68.7764 30.0713C68.667 30.3447 68.6123 30.6842 68.6123 31.0898V35H67.1562ZM72.584 35V27.6719H74.04V28.793C74.2497 28.3646 74.5368 28.0479 74.9014 27.8428C75.2705 27.6331 75.6875 27.5283 76.1523 27.5283C76.3848 27.5283 76.6172 27.5557 76.8496 27.6104C77.082 27.665 77.3008 27.7471 77.5059 27.8564C77.7064 27.9658 77.8864 28.1048 78.0459 28.2734C78.2054 28.4421 78.3307 28.6426 78.4219 28.875C78.5449 28.6562 78.693 28.4626 78.8662 28.2939C79.0439 28.1253 79.2399 27.984 79.4541 27.8701C79.6683 27.7607 79.8962 27.6764 80.1377 27.6172C80.3838 27.5579 80.6367 27.5283 80.8965 27.5283C81.3158 27.5283 81.6826 27.6012 81.9971 27.7471C82.3161 27.8929 82.5827 28.0934 82.7969 28.3486C83.0065 28.6084 83.1637 28.9137 83.2686 29.2646C83.3779 29.611 83.4326 29.9893 83.4326 30.3994V35H81.9766V30.4268C81.9766 29.8981 81.849 29.4902 81.5938 29.2031C81.3385 28.9115 80.9375 28.7656 80.3906 28.7656C80.1263 28.7656 79.8893 28.8135 79.6797 28.9092C79.4746 29.0003 79.3014 29.1257 79.1602 29.2852C79.0189 29.4492 78.9118 29.6406 78.8389 29.8594C78.766 30.0781 78.7295 30.3151 78.7295 30.5703V35H77.2734V30.4268C77.2734 29.9027 77.1458 29.4948 76.8906 29.2031C76.64 28.9115 76.2617 28.7656 75.7559 28.7656C75.4733 28.7656 75.2249 28.8135 75.0107 28.9092C74.7965 29.0003 74.6188 29.1257 74.4775 29.2852C74.3317 29.4492 74.2223 29.6406 74.1494 29.8594C74.0765 30.0781 74.04 30.3151 74.04 30.5703V35H72.584ZM86.0645 32.8193C86.1328 33.0107 86.2285 33.1816 86.3516 33.332C86.4746 33.4779 86.6159 33.6032 86.7754 33.708C86.9303 33.8083 87.1012 33.8857 87.2881 33.9404C87.4795 33.9951 87.6732 34.0225 87.8691 34.0225C88.0469 34.0225 88.2223 34.0065 88.3955 33.9746C88.5732 33.9427 88.7327 33.888 88.874 33.8105C89.0107 33.7331 89.1224 33.6305 89.209 33.5029C89.2956 33.3708 89.3389 33.2067 89.3389 33.0107C89.3389 32.8057 89.291 32.637 89.1953 32.5049C89.0996 32.3682 88.9697 32.2565 88.8057 32.1699C88.6416 32.0788 88.4525 32.0059 88.2383 31.9512C88.0241 31.8919 87.7962 31.835 87.5547 31.7803C87.2812 31.7165 87.0033 31.6436 86.7207 31.5615C86.4427 31.4795 86.1898 31.3633 85.9619 31.2129C85.734 31.0625 85.5472 30.8665 85.4014 30.625C85.2601 30.3789 85.1895 30.0599 85.1895 29.668C85.1895 29.3216 85.2669 29.0163 85.4219 28.752C85.5768 28.4831 85.7796 28.2598 86.0303 28.082C86.2764 27.8997 86.5544 27.763 86.8643 27.6719C87.1742 27.5807 87.484 27.5352 87.7939 27.5352C88.0902 27.5352 88.375 27.5693 88.6484 27.6377C88.9219 27.7015 89.1771 27.8018 89.4141 27.9385C89.6556 28.0752 89.8721 28.2461 90.0635 28.4512C90.2549 28.6517 90.4144 28.8887 90.542 29.1621L89.4482 29.6406C89.3708 29.472 89.2751 29.3262 89.1611 29.2031C89.0472 29.0755 88.9196 28.9707 88.7783 28.8887C88.6416 28.8066 88.4912 28.7474 88.3271 28.7109C88.1676 28.6699 88.0036 28.6494 87.835 28.6494C87.68 28.6494 87.5251 28.6676 87.3701 28.7041C87.2152 28.736 87.0762 28.7884 86.9531 28.8613C86.8301 28.9388 86.7298 29.0368 86.6523 29.1553C86.5749 29.2738 86.5361 29.4196 86.5361 29.5928C86.5361 29.7796 86.5817 29.9323 86.6729 30.0508C86.7686 30.1693 86.8939 30.2695 87.0488 30.3516C87.2038 30.4336 87.3838 30.4997 87.5889 30.5498C87.7939 30.5954 88.0081 30.641 88.2314 30.6865C88.5231 30.7458 88.8171 30.8164 89.1133 30.8984C89.4095 30.9759 89.6761 31.0898 89.9131 31.2402C90.1546 31.3906 90.3506 31.5911 90.501 31.8418C90.6514 32.0879 90.7266 32.4137 90.7266 32.8193C90.7266 33.2295 90.6468 33.5827 90.4873 33.8789C90.3278 34.1706 90.1182 34.4098 89.8584 34.5967C89.5941 34.7835 89.2933 34.9202 88.9561 35.0068C88.6188 35.0934 88.2725 35.1367 87.917 35.1367C87.5889 35.1367 87.2699 35.1003 86.96 35.0273C86.6546 34.959 86.3721 34.8496 86.1123 34.6992C85.8525 34.5488 85.6224 34.3597 85.4219 34.1318C85.2214 33.8994 85.0664 33.6237 84.957 33.3047L86.0645 32.8193Z" fill="#15181E"/>
<path d="M233.3 33.3L230 30M230 30L226.7 26.7M230 30L233.3 26.7M230 30L226.7 33.3" stroke="#55607A" stroke-linecap="round" stroke-linejoin="round"/>
<path d="M16 60C16 55.5817 19.5817 52 24 52H240C244.418 52 248 55.5817 248 60V80C248 84.4183 244.418 88 240 88H24C19.5817 88 16 84.4183 16 80V60Z" fill="white"/>
<rect x="28.5" y="62.5" width="15" height="15" rx="3.5" fill="white"/>
<rect x="28.5" y="62.5" width="15" height="15" rx="3.5" stroke="#B4BBCC"/>
<g clip-path="url(#clip0_205_4206)">
<path d="M55.213 75L52.539 64.99H53.778L55.871 73.089L58.209 64.99H59.14L61.443 73.117L63.522 64.99H64.656L62.045 75H60.925L58.657 67.139L56.319 75H55.213ZM66.418 75V67.692H67.58V75H66.418ZM66.432 66.124C66.362 66.054 66.306 65.9723 66.264 65.879C66.2267 65.781 66.208 65.6783 66.208 65.571C66.208 65.4637 66.2267 65.3633 66.264 65.27C66.306 65.1767 66.362 65.095 66.432 65.025C66.502 64.955 66.5837 64.9013 66.677 64.864C66.7704 64.822 66.8707 64.801 66.978 64.801C67.0854 64.801 67.1857 64.822 67.279 64.864C67.3724 64.9013 67.454 64.955 67.524 65.025C67.594 65.095 67.6477 65.1767 67.685 65.27C67.727 65.3633 67.748 65.4637 67.748 65.571C67.748 65.6783 67.727 65.781 67.685 65.879C67.6477 65.9723 67.594 66.054 67.524 66.124C67.454 66.1893 67.3724 66.243 67.279 66.285C67.1857 66.327 67.0854 66.348 66.978 66.348C66.8707 66.348 66.7704 66.327 66.677 66.285C66.5837 66.243 66.502 66.1893 66.432 66.124ZM69.9644 75V67.678H71.1264V68.791C71.2431 68.5763 71.3831 68.392 71.5464 68.238C71.7097 68.0793 71.8917 67.9487 72.0924 67.846C72.2931 67.7433 72.5077 67.6687 72.7364 67.622C72.9651 67.5753 73.1984 67.552 73.4364 67.552C73.8844 67.552 74.2741 67.629 74.6054 67.783C74.9367 67.9323 75.2097 68.1423 75.4244 68.413C75.6437 68.6837 75.8071 69.0033 75.9144 69.372C76.0217 69.7407 76.0754 70.142 76.0754 70.576V75H74.9064V70.492C74.9064 69.8713 74.7617 69.3953 74.4724 69.064C74.1877 68.728 73.7537 68.56 73.1704 68.56C72.8624 68.56 72.5824 68.6067 72.3304 68.7C72.0784 68.7933 71.8637 68.9263 71.6864 69.099C71.5091 69.2717 71.3714 69.4817 71.2734 69.729C71.1754 69.9763 71.1264 70.254 71.1264 70.562V75H69.9644ZM83.5819 75V73.775C83.4466 73.9803 83.2809 74.167 83.0849 74.335C82.8936 74.4983 82.6836 74.6383 82.4549 74.755C82.2263 74.8717 81.9883 74.9627 81.7409 75.028C81.4936 75.0933 81.2486 75.126 81.0059 75.126C80.4646 75.126 79.9909 75.028 79.5849 74.832C79.1836 74.6313 78.8476 74.3607 78.5769 74.02C78.3063 73.6793 78.1033 73.2827 77.9679 72.83C77.8373 72.3727 77.7719 71.885 77.7719 71.367C77.7719 70.863 77.8466 70.38 77.9959 69.918C78.1453 69.456 78.3623 69.05 78.6469 68.7C78.9316 68.35 79.2793 68.0723 79.6899 67.867C80.1053 67.657 80.5766 67.552 81.1039 67.552C81.3513 67.552 81.5939 67.5777 81.8319 67.629C82.0746 67.6803 82.3009 67.7573 82.5109 67.86C82.7256 67.9627 82.9239 68.0933 83.1059 68.252C83.2879 68.4107 83.4466 68.5973 83.5819 68.812V64.36H84.7439V75H83.5819ZM79.5079 73.313C79.6899 73.565 79.9186 73.768 80.1939 73.922C80.4739 74.076 80.8006 74.153 81.1739 74.153C81.5939 74.153 81.9556 74.0783 82.2589 73.929C82.5669 73.7797 82.8236 73.5743 83.0289 73.313C83.2296 73.0517 83.3789 72.746 83.4769 72.396C83.5749 72.046 83.6239 71.6703 83.6239 71.269C83.6239 70.8817 83.5773 70.52 83.4839 70.184C83.3906 69.848 83.2506 69.5563 83.0639 69.309C82.8726 69.0663 82.6299 68.875 82.3359 68.735C82.0419 68.5903 81.6919 68.518 81.2859 68.518C80.8566 68.518 80.4949 68.5973 80.2009 68.756C79.9069 68.9147 79.6689 69.127 79.4869 69.393C79.3049 69.659 79.1743 69.967 79.0949 70.317C79.0156 70.667 78.9759 71.0357 78.9759 71.423C78.9759 71.773 79.0203 72.1113 79.1089 72.438C79.1976 72.7647 79.3306 73.0563 79.5079 73.313ZM87.5093 74.076C87.1919 73.7447 86.9446 73.348 86.7673 72.886C86.5946 72.424 86.5083 71.913 86.5083 71.353C86.5083 70.793 86.5946 70.2797 86.7673 69.813C86.9446 69.3417 87.1919 68.9403 87.5093 68.609C87.8266 68.273 88.2046 68.014 88.6433 67.832C89.0819 67.6453 89.5649 67.552 90.0923 67.552C90.6243 67.552 91.1073 67.643 91.5413 67.825C91.9799 68.007 92.3533 68.2637 92.6613 68.595C92.9739 68.9263 93.2143 69.3253 93.3823 69.792C93.5549 70.254 93.6413 70.765 93.6413 71.325C93.6413 71.885 93.5549 72.3983 93.3823 72.865C93.2143 73.3317 92.9739 73.733 92.6613 74.069C92.3533 74.4003 91.9799 74.6593 91.5413 74.846C91.1073 75.0327 90.6243 75.126 90.0923 75.126C89.5649 75.126 89.0819 75.035 88.6433 74.853C88.2046 74.6663 87.8266 74.4073 87.5093 74.076ZM88.3773 73.355C88.5873 73.5977 88.8369 73.7867 89.1263 73.922C89.4203 74.0527 89.7423 74.118 90.0923 74.118C90.4469 74.118 90.7666 74.0527 91.0513 73.922C91.3406 73.7867 91.5879 73.5953 91.7933 73.348C91.9986 73.1053 92.1573 72.8137 92.2693 72.473C92.3813 72.1323 92.4373 71.7543 92.4373 71.339C92.4373 70.9237 92.3813 70.5433 92.2693 70.198C92.1573 69.8527 91.9986 69.5563 91.7933 69.309C91.5879 69.0663 91.3406 68.8773 91.0513 68.742C90.7666 68.602 90.4469 68.532 90.0923 68.532C89.7423 68.532 89.4203 68.602 89.1263 68.742C88.8369 68.8773 88.5873 69.0687 88.3773 69.316C88.1673 69.5633 88.0039 69.8597 87.8873 70.205C87.7706 70.5457 87.7123 70.926 87.7123 71.346C87.7123 71.7567 87.7706 72.1323 87.8873 72.473C88.0039 72.8137 88.1673 73.1077 88.3773 73.355ZM96.695 75L94.392 67.678H95.652L97.409 73.523L99.131 67.678H100.139L101.833 73.523L103.59 67.678H104.78L102.47 75H101.182L99.628 69.554L97.976 75H96.695ZM106.545 72.816C106.68 73.2453 106.907 73.5743 107.224 73.803C107.546 74.0317 107.919 74.146 108.344 74.146C108.54 74.146 108.731 74.1273 108.918 74.09C109.109 74.0527 109.28 73.9897 109.429 73.901C109.578 73.8123 109.7 73.6957 109.793 73.551C109.886 73.4063 109.933 73.2243 109.933 73.005C109.933 72.781 109.884 72.599 109.786 72.459C109.693 72.3143 109.567 72.1953 109.408 72.102C109.249 72.004 109.065 71.9247 108.855 71.864C108.645 71.8033 108.428 71.745 108.204 71.689C107.929 71.6237 107.653 71.549 107.378 71.465C107.107 71.381 106.865 71.2667 106.65 71.122C106.431 70.9727 106.251 70.779 106.111 70.541C105.976 70.303 105.908 69.9927 105.908 69.61C105.908 69.288 105.976 69.001 106.111 68.749C106.251 68.4923 106.435 68.2753 106.664 68.098C106.888 67.9207 107.142 67.7853 107.427 67.692C107.716 67.5987 108.01 67.552 108.309 67.552C108.58 67.552 108.841 67.5917 109.093 67.671C109.345 67.7457 109.578 67.8553 109.793 68C110.008 68.1447 110.204 68.3197 110.381 68.525C110.563 68.7303 110.719 68.959 110.85 69.211L109.954 69.617C109.791 69.2623 109.557 68.9917 109.254 68.805C108.955 68.6183 108.626 68.525 108.267 68.525C108.108 68.525 107.952 68.546 107.798 68.588C107.649 68.6253 107.513 68.686 107.392 68.77C107.271 68.854 107.173 68.9637 107.098 69.099C107.028 69.2297 106.993 69.3907 106.993 69.582C106.993 69.792 107.04 69.967 107.133 70.107C107.226 70.2423 107.352 70.352 107.511 70.436C107.67 70.5247 107.852 70.597 108.057 70.653C108.267 70.709 108.484 70.7603 108.708 70.807C108.988 70.8677 109.266 70.9377 109.541 71.017C109.821 71.0917 110.071 71.2013 110.29 71.346C110.514 71.486 110.696 71.675 110.836 71.913C110.976 72.151 111.046 72.4613 111.046 72.844C111.046 73.2407 110.971 73.5813 110.822 73.866C110.673 74.1507 110.474 74.3863 110.227 74.573C109.984 74.7597 109.704 74.8997 109.387 74.993C109.07 75.0817 108.741 75.126 108.4 75.126C108.073 75.126 107.765 75.084 107.476 75C107.187 74.9207 106.923 74.7993 106.685 74.636C106.452 74.4773 106.246 74.279 106.069 74.041C105.892 73.803 105.749 73.53 105.642 73.222L106.545 72.816Z" fill="#15181E"/>
</g>
<path d="M225.4 75.2L230.388 70.2122C230.505 70.095 230.505 69.9051 230.388 69.7879L225.4 64.8" stroke="#15181E" stroke-linecap="round" stroke-linejoin="round"/>
<path d="M16 100C16 95.5817 19.5817 92 24 92H240C244.418 92 248 95.5817 248 100V120C248 124.418 244.418 128 240 128H24C19.5817 128 16 124.418 16 120V100Z" fill="white"/>
<rect x="28.5" y="102.5" width="15" height="15" rx="3.5" fill="white"/>
<rect x="28.5" y="102.5" width="15" height="15" rx="3.5" stroke="#B4BBCC"/>
<g clip-path="url(#clip1_205_4206)">
<path d="M53.225 115V104.99H54.443V114.006H59.049V115H53.225ZM60.6895 115V107.692H61.8515V115H60.6895ZM60.7035 106.124C60.6335 106.054 60.5775 105.972 60.5355 105.879C60.4982 105.781 60.4795 105.678 60.4795 105.571C60.4795 105.464 60.4982 105.363 60.5355 105.27C60.5775 105.177 60.6335 105.095 60.7035 105.025C60.7735 104.955 60.8552 104.901 60.9485 104.864C61.0418 104.822 61.1422 104.801 61.2495 104.801C61.3568 104.801 61.4572 104.822 61.5505 104.864C61.6438 104.901 61.7255 104.955 61.7955 105.025C61.8655 105.095 61.9192 105.177 61.9565 105.27C61.9985 105.363 62.0195 105.464 62.0195 105.571C62.0195 105.678 61.9985 105.781 61.9565 105.879C61.9192 105.972 61.8655 106.054 61.7955 106.124C61.7255 106.189 61.6438 106.243 61.5505 106.285C61.4572 106.327 61.3568 106.348 61.2495 106.348C61.1422 106.348 61.0418 106.327 60.9485 106.285C60.8552 106.243 60.7735 106.189 60.7035 106.124ZM64.2359 115V107.678H65.3979V108.791C65.5146 108.576 65.6546 108.392 65.8179 108.238C65.9812 108.079 66.1632 107.949 66.3639 107.846C66.5646 107.743 66.7792 107.669 67.0079 107.622C67.2366 107.575 67.4699 107.552 67.7079 107.552C68.1559 107.552 68.5456 107.629 68.8769 107.783C69.2082 107.932 69.4812 108.142 69.6959 108.413C69.9152 108.684 70.0786 109.003 70.1859 109.372C70.2932 109.741 70.3469 110.142 70.3469 110.576V115H69.1779V110.492C69.1779 109.871 69.0332 109.395 68.7439 109.064C68.4592 108.728 68.0252 108.56 67.4419 108.56C67.1339 108.56 66.8539 108.607 66.6019 108.7C66.3499 108.793 66.1352 108.926 65.9579 109.099C65.7806 109.272 65.6429 109.482 65.5449 109.729C65.4469 109.976 65.3979 110.254 65.3979 110.562V115H64.2359ZM77.146 115V113.894C76.9313 114.319 76.628 114.631 76.236 114.832C75.8486 115.028 75.424 115.126 74.962 115.126C74.5233 115.126 74.136 115.063 73.8 114.937C73.464 114.806 73.1816 114.62 72.953 114.377C72.7243 114.139 72.5516 113.847 72.435 113.502C72.3183 113.152 72.26 112.755 72.26 112.312V107.678H73.422V112.256C73.422 112.886 73.5783 113.355 73.891 113.663C74.2036 113.966 74.661 114.118 75.263 114.118C75.557 114.118 75.8206 114.071 76.054 113.978C76.2873 113.88 76.4856 113.742 76.649 113.565C76.8076 113.388 76.929 113.178 77.013 112.935C77.1016 112.688 77.146 112.415 77.146 112.116V107.678H78.308V115H77.146ZM79.5968 115L82.1518 111.234L79.7648 107.678H81.1158L82.8518 110.317L84.5738 107.678H85.8198L83.4608 111.15L86.0718 115H84.7068L82.7958 112.067L80.8428 115H79.5968Z" fill="#15181E"/>
</g>
<path d="M225.4 115.2L230.388 110.212C230.505 110.095 230.505 109.905 230.388 109.788L225.4 104.8" stroke="#15181E" stroke-linecap="round" stroke-linejoin="round"/>
<path d="M16 140C16 135.582 19.5817 132 24 132H240C244.418 132 248 135.582 248 140V160C248 164.418 244.418 168 240 168H24C19.5817 168 16 164.418 16 160V140Z" fill="white"/>
<rect x="28.5" y="142.5" width="15" height="15" rx="3.5" fill="white"/>
<rect x="28.5" y="142.5" width="15" height="15" rx="3.5" stroke="#B4BBCC"/>
<g clip-path="url(#clip2_205_4206)">
<path d="M53.288 155V144.99H55.045L58.16 152.893L61.163 144.99H62.836V155H61.618V146.649L58.405 155H57.873L54.485 146.642V155H53.288ZM68.8891 155V154.146C68.7585 154.309 68.6091 154.452 68.4411 154.573C68.2731 154.694 68.0935 154.797 67.9021 154.881C67.7061 154.96 67.5031 155.021 67.2931 155.063C67.0831 155.105 66.8731 155.126 66.6631 155.126C66.3085 155.126 65.9841 155.075 65.6901 154.972C65.3961 154.869 65.1465 154.725 64.9411 154.538C64.7311 154.347 64.5678 154.12 64.4511 153.859C64.3391 153.598 64.2831 153.306 64.2831 152.984C64.2831 152.233 64.5911 151.666 65.2071 151.283C65.8278 150.896 66.7378 150.702 67.9371 150.702H68.8891V150.303C68.8891 150.023 68.8518 149.773 68.7771 149.554C68.7025 149.335 68.5951 149.15 68.4551 149.001C68.3198 148.847 68.1541 148.73 67.9581 148.651C67.7621 148.572 67.5428 148.532 67.3001 148.532C67.0901 148.532 66.8895 148.562 66.6981 148.623C66.5068 148.679 66.3295 148.763 66.1661 148.875C66.0075 148.987 65.8675 149.122 65.7461 149.281C65.6295 149.435 65.5385 149.61 65.4731 149.806L64.4581 149.358C64.5841 149.055 64.7451 148.791 64.9411 148.567C65.1371 148.338 65.3588 148.149 65.6061 148C65.8488 147.851 66.1148 147.739 66.4041 147.664C66.6935 147.589 66.9945 147.552 67.3071 147.552C67.7131 147.552 68.0865 147.613 68.4271 147.734C68.7678 147.851 69.0618 148.023 69.3091 148.252C69.5565 148.481 69.7478 148.758 69.8831 149.085C70.0231 149.412 70.0931 149.783 70.0931 150.198V155H68.8891ZM68.9171 151.64H67.9371C67.5638 151.64 67.2255 151.668 66.9221 151.724C66.6188 151.78 66.3621 151.864 66.1521 151.976C65.9375 152.088 65.7718 152.228 65.6551 152.396C65.5431 152.559 65.4871 152.751 65.4871 152.97C65.4871 153.376 65.5921 153.684 65.8021 153.894C66.0168 154.099 66.3388 154.202 66.7681 154.202C67.0248 154.202 67.2768 154.165 67.5241 154.09C67.7715 154.011 67.9955 153.896 68.1961 153.747C68.3968 153.602 68.5601 153.42 68.6861 153.201C68.8121 152.977 68.8798 152.723 68.8891 152.438L68.9171 151.64ZM78.434 152.872C78.154 153.6 77.734 154.158 77.174 154.545C76.614 154.932 75.9583 155.126 75.207 155.126C74.6516 155.126 74.157 155.028 73.723 154.832C73.2936 154.631 72.932 154.358 72.638 154.013C72.344 153.672 72.12 153.269 71.966 152.802C71.812 152.335 71.735 151.836 71.735 151.304C71.735 150.781 71.819 150.294 71.987 149.841C72.1596 149.384 72.3976 148.985 72.701 148.644C73.009 148.308 73.3753 148.042 73.8 147.846C74.2246 147.65 74.6936 147.552 75.207 147.552C75.9583 147.552 76.5976 147.722 77.125 148.063C77.657 148.399 78.077 148.903 78.385 149.575L77.328 150.051C77.2486 149.827 77.1366 149.624 76.992 149.442C76.852 149.255 76.6886 149.097 76.502 148.966C76.3153 148.835 76.11 148.735 75.886 148.665C75.6666 148.59 75.4403 148.553 75.207 148.553C74.8196 148.553 74.4836 148.635 74.199 148.798C73.9143 148.961 73.6786 149.176 73.492 149.442C73.3053 149.708 73.1653 150.014 73.072 150.359C72.9833 150.7 72.939 151.05 72.939 151.409C72.939 151.782 72.9856 152.135 73.079 152.466C73.177 152.797 73.3193 153.084 73.506 153.327C73.6973 153.574 73.933 153.77 74.213 153.915C74.4976 154.06 74.829 154.132 75.207 154.132C75.4823 154.132 75.7366 154.09 75.97 154.006C76.208 153.922 76.4226 153.805 76.614 153.656C76.8006 153.507 76.9616 153.327 77.097 153.117C77.237 152.907 77.3466 152.676 77.426 152.424L78.434 152.872ZM81.0256 153.698C80.6009 153.245 80.2719 152.704 80.0386 152.074C79.8053 151.444 79.6886 150.746 79.6886 149.981C79.6886 149.22 79.8053 148.527 80.0386 147.902C80.2766 147.272 80.6079 146.731 81.0326 146.278C81.4619 145.83 81.9729 145.482 82.5656 145.235C83.1583 144.988 83.8139 144.864 84.5326 144.864C85.2373 144.864 85.8813 144.988 86.4646 145.235C87.0526 145.482 87.5543 145.83 87.9696 146.278C88.3896 146.731 88.7139 147.272 88.9426 147.902C89.1759 148.527 89.2926 149.22 89.2926 149.981C89.2926 150.746 89.1759 151.444 88.9426 152.074C88.7093 152.704 88.3826 153.245 87.9626 153.698C87.5426 154.151 87.0386 154.503 86.4506 154.755C85.8626 155.002 85.2139 155.126 84.5046 155.126C83.7906 155.126 83.1373 155.002 82.5446 154.755C81.9566 154.503 81.4503 154.151 81.0256 153.698ZM81.9426 152.935C82.2599 153.29 82.6379 153.565 83.0766 153.761C83.5199 153.952 84.0076 154.048 84.5396 154.048C85.0576 154.048 85.5313 153.948 85.9606 153.747C86.3899 153.546 86.7586 153.264 87.0666 152.9C87.3746 152.536 87.6126 152.1 87.7806 151.591C87.9486 151.082 88.0326 150.52 88.0326 149.904C88.0326 149.311 87.9463 148.77 87.7736 148.28C87.6056 147.79 87.3676 147.37 87.0596 147.02C86.7469 146.67 86.3736 146.399 85.9396 146.208C85.5103 146.012 85.0343 145.914 84.5116 145.914C83.9843 145.914 83.5013 146.014 83.0626 146.215C82.6239 146.416 82.2483 146.698 81.9356 147.062C81.6229 147.421 81.3803 147.855 81.2076 148.364C81.0349 148.868 80.9486 149.428 80.9486 150.044C80.9486 150.637 81.0349 151.18 81.2076 151.675C81.3849 152.165 81.6299 152.585 81.9426 152.935ZM91.7301 151.927C91.8328 152.277 91.9681 152.59 92.1361 152.865C92.3041 153.136 92.5001 153.367 92.7241 153.558C92.9481 153.745 93.1931 153.889 93.4591 153.992C93.7298 154.09 94.0191 154.139 94.3271 154.139C94.6351 154.139 94.9198 154.092 95.1811 153.999C95.4471 153.901 95.6781 153.768 95.8741 153.6C96.0701 153.432 96.2218 153.234 96.3291 153.005C96.4411 152.772 96.4971 152.52 96.4971 152.249C96.4971 151.904 96.4295 151.624 96.2941 151.409C96.1588 151.194 95.9791 151.019 95.7551 150.884C95.5265 150.749 95.2651 150.641 94.9711 150.562C94.6818 150.483 94.3785 150.408 94.0611 150.338C93.6925 150.259 93.3261 150.168 92.9621 150.065C92.5981 149.962 92.2715 149.815 91.9821 149.624C91.6928 149.428 91.4571 149.169 91.2751 148.847C91.0931 148.525 91.0021 148.103 91.0021 147.58C91.0021 147.193 91.0791 146.836 91.2331 146.509C91.3871 146.178 91.6018 145.888 91.8771 145.641C92.1478 145.398 92.4675 145.209 92.8361 145.074C93.2095 144.934 93.6108 144.864 94.0401 144.864C94.8288 144.864 95.4845 145.058 96.0071 145.445C96.5345 145.832 96.9638 146.406 97.2951 147.167L96.2661 147.643C96.0421 147.083 95.7435 146.644 95.3701 146.327C94.9968 146.005 94.5535 145.844 94.0401 145.844C93.4521 145.844 92.9925 145.989 92.6611 146.278C92.3345 146.567 92.1711 146.973 92.1711 147.496C92.1711 147.832 92.2388 148.107 92.3741 148.322C92.5095 148.532 92.6915 148.705 92.9201 148.84C93.1488 148.975 93.4101 149.085 93.7041 149.169C93.9981 149.248 94.3038 149.325 94.6211 149.4C94.9945 149.484 95.3631 149.58 95.7271 149.687C96.0958 149.794 96.4271 149.946 96.7211 150.142C97.0151 150.338 97.2531 150.597 97.4351 150.919C97.6171 151.236 97.7081 151.652 97.7081 152.165C97.7081 152.571 97.6171 152.954 97.4351 153.313C97.2578 153.672 97.0151 153.987 96.7071 154.258C96.3991 154.524 96.0375 154.736 95.6221 154.895C95.2115 155.049 94.7705 155.126 94.2991 155.126C93.3471 155.126 92.5678 154.904 91.9611 154.461C91.3591 154.018 90.9088 153.339 90.6101 152.424L91.7301 151.927Z" fill="#15181E"/>
</g>
<path d="M225.4 155.2L230.388 150.212C230.505 150.095 230.505 149.905 230.388 149.788L225.4 144.8" stroke="#15181E" stroke-linecap="round" stroke-linejoin="round"/>
<mask id="path-19-inside-2_205_4206" fill="white">
<path d="M12 172H252V212H12V172Z"/>
</mask>
<path d="M12 172V173H252V172V171H12V172Z" fill="#E1E4EB" mask="url(#path-19-inside-2_205_4206)"/>
<path d="M133.112 193.558C132.972 193.918 132.784 194.254 132.548 194.566C132.312 194.874 132.044 195.142 131.744 195.37C131.44 195.602 131.108 195.784 130.748 195.916C130.388 196.044 130.012 196.108 129.62 196.108C128.968 196.108 128.392 195.996 127.892 195.772C127.392 195.548 126.972 195.238 126.632 194.842C126.292 194.446 126.034 193.978 125.858 193.438C125.682 192.894 125.594 192.304 125.594 191.668C125.594 191.08 125.686 190.522 125.87 189.994C126.058 189.466 126.324 189.004 126.668 188.608C127.008 188.212 127.422 187.898 127.91 187.666C128.402 187.43 128.95 187.312 129.554 187.312C129.934 187.312 130.302 187.368 130.658 187.48C131.018 187.588 131.352 187.744 131.66 187.948C131.964 188.156 132.234 188.406 132.47 188.698C132.71 188.986 132.896 189.31 133.028 189.67L132.158 190.06C132.05 189.772 131.91 189.51 131.738 189.274C131.57 189.038 131.374 188.836 131.15 188.668C130.93 188.5 130.686 188.37 130.418 188.278C130.15 188.186 129.866 188.14 129.566 188.14C129.062 188.14 128.63 188.242 128.27 188.446C127.91 188.646 127.612 188.912 127.376 189.244C127.144 189.58 126.972 189.962 126.86 190.39C126.752 190.814 126.698 191.252 126.698 191.704C126.698 192.184 126.758 192.64 126.878 193.072C127.002 193.5 127.188 193.876 127.436 194.2C127.68 194.524 127.986 194.782 128.354 194.974C128.722 195.162 129.152 195.256 129.644 195.256C129.944 195.256 130.23 195.202 130.502 195.094C130.774 194.982 131.026 194.832 131.258 194.644C131.49 194.456 131.694 194.238 131.87 193.99C132.046 193.738 132.188 193.472 132.296 193.192L133.112 193.558ZM134.604 196V186.928L135.612 186.472V196H134.604ZM138.034 193.09C138.034 193.418 138.082 193.716 138.178 193.984C138.274 194.252 138.412 194.48 138.592 194.668C138.772 194.856 138.986 195.002 139.234 195.106C139.486 195.206 139.764 195.256 140.068 195.256C140.236 195.256 140.402 195.232 140.566 195.184C140.734 195.132 140.894 195.058 141.046 194.962C141.194 194.866 141.33 194.752 141.454 194.62C141.578 194.488 141.682 194.34 141.766 194.176L142.702 194.566C142.574 194.794 142.412 195.004 142.216 195.196C142.024 195.384 141.812 195.546 141.58 195.682C141.344 195.818 141.096 195.924 140.836 196C140.576 196.072 140.316 196.108 140.056 196.108C139.6 196.108 139.184 196.036 138.808 195.892C138.436 195.748 138.116 195.54 137.848 195.268C137.584 194.996 137.378 194.668 137.23 194.284C137.082 193.896 137.008 193.458 137.008 192.97V192.538C137.008 192.102 137.078 191.706 137.218 191.35C137.362 190.99 137.562 190.682 137.818 190.426C138.074 190.17 138.38 189.972 138.736 189.832C139.096 189.688 139.494 189.616 139.93 189.616C140.346 189.616 140.728 189.686 141.076 189.826C141.424 189.966 141.724 190.166 141.976 190.426C142.228 190.682 142.426 190.99 142.57 191.35C142.714 191.706 142.79 192.1 142.798 192.532L142.81 193.09H138.034ZM141.766 192.28C141.758 192.012 141.706 191.768 141.61 191.548C141.518 191.324 141.392 191.132 141.232 190.972C141.068 190.812 140.876 190.688 140.656 190.6C140.436 190.508 140.194 190.462 139.93 190.462C139.686 190.462 139.458 190.508 139.246 190.6C139.038 190.688 138.852 190.812 138.688 190.972C138.524 191.132 138.388 191.324 138.28 191.548C138.176 191.768 138.106 192.012 138.07 192.28H141.766ZM147.633 196V195.268C147.521 195.408 147.393 195.53 147.249 195.634C147.105 195.738 146.951 195.826 146.787 195.898C146.619 195.966 146.445 196.018 146.265 196.054C146.085 196.09 145.905 196.108 145.725 196.108C145.421 196.108 145.143 196.064 144.891 195.976C144.639 195.888 144.425 195.764 144.249 195.604C144.069 195.44 143.929 195.246 143.829 195.022C143.733 194.798 143.685 194.548 143.685 194.272C143.685 193.628 143.949 193.142 144.477 192.814C145.009 192.482 145.789 192.316 146.817 192.316H147.633V191.974C147.633 191.734 147.601 191.52 147.537 191.332C147.473 191.144 147.381 190.986 147.261 190.858C147.145 190.726 147.003 190.626 146.835 190.558C146.667 190.49 146.479 190.456 146.271 190.456C146.091 190.456 145.919 190.482 145.755 190.534C145.591 190.582 145.439 190.654 145.299 190.75C145.163 190.846 145.043 190.962 144.939 191.098C144.839 191.23 144.761 191.38 144.705 191.548L143.835 191.164C143.943 190.904 144.081 190.678 144.249 190.486C144.417 190.29 144.607 190.128 144.819 190C145.027 189.872 145.255 189.776 145.503 189.712C145.751 189.648 146.009 189.616 146.277 189.616C146.625 189.616 146.945 189.668 147.237 189.772C147.529 189.872 147.781 190.02 147.993 190.216C148.205 190.412 148.369 190.65 148.485 190.93C148.605 191.21 148.665 191.528 148.665 191.884V196H147.633ZM147.657 193.12H146.817C146.497 193.12 146.207 193.144 145.947 193.192C145.687 193.24 145.467 193.312 145.287 193.408C145.103 193.504 144.961 193.624 144.861 193.768C144.765 193.908 144.717 194.072 144.717 194.26C144.717 194.608 144.807 194.872 144.987 195.052C145.171 195.228 145.447 195.316 145.815 195.316C146.035 195.316 146.251 195.284 146.463 195.22C146.675 195.152 146.867 195.054 147.039 194.926C147.211 194.802 147.351 194.646 147.459 194.458C147.567 194.266 147.625 194.048 147.633 193.804L147.657 193.12ZM150.341 196V189.724H151.337V190.804C151.561 190.4 151.837 190.102 152.165 189.91C152.493 189.714 152.889 189.616 153.353 189.616V190.558C153.017 190.57 152.723 190.614 152.471 190.69C152.219 190.762 152.009 190.878 151.841 191.038C151.673 191.194 151.547 191.396 151.463 191.644C151.379 191.892 151.337 192.196 151.337 192.556V196H150.341ZM158.356 192.82H161.326L159.838 188.41L158.356 192.82ZM156.328 196L159.202 187.42H160.48L163.402 196H162.364L161.596 193.648H158.086L157.312 196H156.328ZM164.757 196V186.928L165.765 186.472V196H164.757ZM167.839 196V186.928L168.847 186.472V196H167.839Z" fill="#2A303D"/>
<rect x="178" y="180" width="58" height="24" rx="4" fill="url(#paint0_linear_205_4206)"/>
<path d="M190.334 196L193.217 187.422H194.98L197.863 196H196.504L195.795 193.838H192.314L191.6 196H190.334ZM192.643 192.818H195.461L194.055 188.523L192.643 192.818ZM199.129 198.174V189.719H200.377V190.762C200.482 190.578 200.617 190.416 200.781 190.275C200.945 190.131 201.125 190.008 201.32 189.906C201.516 189.809 201.719 189.734 201.93 189.684C202.145 189.629 202.354 189.602 202.557 189.602C203.037 189.602 203.455 189.689 203.811 189.865C204.166 190.041 204.461 190.277 204.695 190.574C204.93 190.875 205.104 191.221 205.217 191.611C205.334 191.998 205.393 192.406 205.393 192.836C205.393 193.277 205.332 193.697 205.211 194.096C205.09 194.494 204.91 194.842 204.672 195.139C204.434 195.439 204.137 195.678 203.781 195.854C203.43 196.029 203.021 196.117 202.557 196.117C202.35 196.117 202.139 196.094 201.924 196.047C201.713 196 201.51 195.93 201.314 195.836C201.119 195.742 200.939 195.625 200.775 195.484C200.615 195.344 200.482 195.18 200.377 194.992V198.174H199.129ZM200.811 194.471C200.975 194.67 201.18 194.826 201.426 194.939C201.672 195.053 201.959 195.109 202.287 195.109C202.635 195.109 202.926 195.049 203.16 194.928C203.395 194.803 203.582 194.635 203.723 194.424C203.867 194.217 203.969 193.975 204.027 193.697C204.09 193.42 204.121 193.127 204.121 192.818C204.121 192.533 204.084 192.258 204.01 191.992C203.936 191.727 203.82 191.49 203.664 191.283C203.512 191.08 203.314 190.918 203.072 190.797C202.834 190.672 202.549 190.609 202.217 190.609C201.889 190.609 201.605 190.672 201.367 190.797C201.129 190.918 200.932 191.082 200.775 191.289C200.623 191.5 200.51 191.742 200.436 192.016C200.361 192.285 200.324 192.57 200.324 192.871C200.324 193.191 200.363 193.488 200.441 193.762C200.523 194.035 200.646 194.271 200.811 194.471ZM206.816 198.174V189.719H208.064V190.762C208.17 190.578 208.305 190.416 208.469 190.275C208.633 190.131 208.812 190.008 209.008 189.906C209.203 189.809 209.406 189.734 209.617 189.684C209.832 189.629 210.041 189.602 210.244 189.602C210.725 189.602 211.143 189.689 211.498 189.865C211.854 190.041 212.148 190.277 212.383 190.574C212.617 190.875 212.791 191.221 212.904 191.611C213.021 191.998 213.08 192.406 213.08 192.836C213.08 193.277 213.02 193.697 212.898 194.096C212.777 194.494 212.598 194.842 212.359 195.139C212.121 195.439 211.824 195.678 211.469 195.854C211.117 196.029 210.709 196.117 210.244 196.117C210.037 196.117 209.826 196.094 209.611 196.047C209.4 196 209.197 195.93 209.002 195.836C208.807 195.742 208.627 195.625 208.463 195.484C208.303 195.344 208.17 195.18 208.064 194.992V198.174H206.816ZM208.498 194.471C208.662 194.67 208.867 194.826 209.113 194.939C209.359 195.053 209.646 195.109 209.975 195.109C210.322 195.109 210.613 195.049 210.848 194.928C211.082 194.803 211.27 194.635 211.41 194.424C211.555 194.217 211.656 193.975 211.715 193.697C211.777 193.42 211.809 193.127 211.809 192.818C211.809 192.533 211.771 192.258 211.697 191.992C211.623 191.727 211.508 191.49 211.352 191.283C211.199 191.08 211.002 190.918 210.76 190.797C210.521 190.672 210.236 190.609 209.904 190.609C209.576 190.609 209.293 190.672 209.055 190.797C208.816 190.918 208.619 191.082 208.463 191.289C208.311 191.5 208.197 191.742 208.123 192.016C208.049 192.285 208.012 192.57 208.012 192.871C208.012 193.191 208.051 193.488 208.129 193.762C208.211 194.035 208.334 194.271 208.498 194.471ZM214.521 196V187.322L215.77 186.771V196H214.521ZM218.055 198.174L219.221 195.35L216.771 189.725H218.113L219.865 193.984L221.5 189.725H222.736L219.291 198.174H218.055Z" fill="white"/>
</g>
<defs>
<filter id="filter0_d_205_4206" x="0" y="0" width="264" height="232" filterUnits="userSpaceOnUse" color-interpolation-filters="sRGB">
<feFlood flood-opacity="0" result="BackgroundImageFix"/>
<feColorMatrix in="SourceAlpha" type="matrix" values="0 0 0 0 0 0 0 0 0 0 0 0 0 0 0 0 0 0 127 0" result="hardAlpha"/>
<feOffset dy="4"/>
<feGaussianBlur stdDeviation="6"/>
<feColorMatrix type="matrix" values="0 0 0 0 0 0 0 0 0 0 0 0 0 0 0 0 0 0 0.12 0"/>
<feBlend mode="normal" in2="BackgroundImageFix" result="effect1_dropShadow_205_4206"/>
<feBlend mode="normal" in="SourceGraphic" in2="effect1_dropShadow_205_4206" result="shape"/>
</filter>
<linearGradient id="paint0_linear_205_4206" x1="236" y1="204" x2="178" y2="204" gradientUnits="userSpaceOnUse">
<stop stop-color="#006AFF"/>
<stop offset="1" stop-color="#1E52BB"/>
</linearGradient>
<clipPath id="clip0_205_4206">
<rect width="160" height="20" fill="white" transform="translate(52 60)"/>
</clipPath>
<clipPath id="clip1_205_4206">
<rect width="160" height="20" fill="white" transform="translate(52 100)"/>
</clipPath>
<clipPath id="clip2_205_4206">
<rect width="160" height="20" fill="white" transform="translate(52 140)"/>
</clipPath>
</defs>
</svg>
