<svg width="80" height="40" viewBox="0 0 80 40" fill="none" xmlns="http://www.w3.org/2000/svg">
<path d="M0 8C0 3.58172 3.58172 0 8 0H72C76.4183 0 80 3.58172 80 8V32C80 36.4183 76.4183 40 72 40H8C3.58172 40 0 36.4183 0 32V8Z" fill="url(#paint0_linear_17469_3266)"/>
<path d="M17.873 21.9512C17.9642 22.252 18.0872 22.5254 18.2422 22.7715C18.3971 23.013 18.5794 23.2204 18.7891 23.3936C19.0033 23.5667 19.2425 23.7012 19.5068 23.7969C19.7712 23.888 20.0583 23.9336 20.3682 23.9336C20.637 23.9336 20.8968 23.8971 21.1475 23.8242C21.4027 23.7513 21.6283 23.6442 21.8242 23.5029C22.0202 23.3571 22.1774 23.1771 22.2959 22.9629C22.4189 22.7441 22.4805 22.4889 22.4805 22.1973C22.4805 21.8919 22.4121 21.6436 22.2754 21.4521C22.1432 21.2562 21.9655 21.099 21.7422 20.9805C21.5189 20.8574 21.2614 20.7617 20.9697 20.6934C20.6781 20.6204 20.375 20.5544 20.0605 20.4951C19.8053 20.445 19.5479 20.3926 19.2881 20.3379C19.0329 20.2786 18.7891 20.2035 18.5566 20.1123C18.3197 20.0257 18.0986 19.9186 17.8936 19.791C17.693 19.6634 17.5176 19.5016 17.3672 19.3057C17.2168 19.1143 17.0983 18.8841 17.0117 18.6152C16.9297 18.3464 16.8887 18.0296 16.8887 17.665C16.8887 17.2139 16.973 16.8128 17.1416 16.4619C17.3148 16.111 17.5495 15.8171 17.8457 15.5801C18.1419 15.3385 18.4928 15.1562 18.8984 15.0332C19.304 14.9102 19.7393 14.8486 20.2041 14.8486C21.8128 14.8486 22.943 15.6051 23.5947 17.1182L22.3438 17.665C22.1341 17.182 21.8538 16.806 21.5029 16.5371C21.1566 16.2682 20.7168 16.1338 20.1836 16.1338C19.9512 16.1338 19.7233 16.1611 19.5 16.2158C19.2812 16.2705 19.0876 16.3548 18.9189 16.4688C18.7503 16.5827 18.6136 16.7285 18.5088 16.9062C18.4085 17.0794 18.3584 17.2845 18.3584 17.5215C18.3584 17.8268 18.4222 18.0775 18.5498 18.2734C18.6774 18.4648 18.8506 18.6221 19.0693 18.7451C19.2881 18.8636 19.541 18.9593 19.8281 19.0322C20.1198 19.1051 20.4274 19.1735 20.751 19.2373C21.0062 19.2874 21.2614 19.3421 21.5166 19.4014C21.7764 19.4561 22.027 19.529 22.2686 19.6201C22.5101 19.7067 22.7357 19.8161 22.9453 19.9482C23.1549 20.0758 23.3372 20.2376 23.4922 20.4336C23.6517 20.6296 23.7747 20.8643 23.8613 21.1377C23.9525 21.4066 23.998 21.7279 23.998 22.1016C23.998 22.5846 23.8932 23.0153 23.6836 23.3936C23.4785 23.7673 23.2074 24.084 22.8701 24.3438C22.5283 24.6035 22.1432 24.8018 21.7148 24.9385C21.2865 25.0706 20.8512 25.1367 20.4092 25.1367C19.9398 25.1367 19.5023 25.0889 19.0967 24.9932C18.6911 24.8929 18.3242 24.738 17.9961 24.5283C17.668 24.3187 17.3809 24.0498 17.1348 23.7217C16.8887 23.3936 16.6904 22.9993 16.54 22.5391L17.873 21.9512ZM30.6494 25V23.8379C30.54 24.0612 30.4033 24.2549 30.2393 24.4189C30.0752 24.583 29.8906 24.7174 29.6855 24.8223C29.4805 24.9271 29.2594 25.0046 29.0225 25.0547C28.7855 25.1094 28.5394 25.1367 28.2842 25.1367C27.8604 25.1367 27.4867 25.0706 27.1631 24.9385C26.8395 24.8063 26.5684 24.6172 26.3496 24.3711C26.1263 24.1296 25.9577 23.8379 25.8438 23.4961C25.7344 23.1497 25.6797 22.7646 25.6797 22.3408V17.6787H27.1152V22.2109C27.1152 22.776 27.252 23.2044 27.5254 23.4961C27.7988 23.7878 28.2067 23.9336 28.749 23.9336C29.0498 23.9336 29.3164 23.8903 29.5488 23.8037C29.7858 23.7126 29.9863 23.585 30.1504 23.4209C30.3099 23.2568 30.4329 23.0609 30.5195 22.833C30.6061 22.6051 30.6494 22.3522 30.6494 22.0742V17.6787H32.085V25H30.6494ZM34.252 25V14.2266H35.708V18.8887C35.8311 18.6745 35.986 18.4854 36.1729 18.3213C36.3643 18.1527 36.5739 18.0091 36.8018 17.8906C37.0251 17.7721 37.2598 17.6833 37.5059 17.624C37.7565 17.5602 38.0003 17.5283 38.2373 17.5283C38.7979 17.5283 39.2855 17.6331 39.7002 17.8428C40.1149 18.0479 40.4613 18.3236 40.7393 18.6699C41.0127 19.0208 41.2178 19.4242 41.3545 19.8799C41.4912 20.3356 41.5596 20.8141 41.5596 21.3154C41.5596 21.835 41.4867 22.3271 41.3408 22.792C41.1995 23.2523 40.9922 23.6556 40.7188 24.002C40.4408 24.3529 40.099 24.6309 39.6934 24.8359C39.2878 25.0365 38.8229 25.1367 38.2988 25.1367C38.0391 25.1367 37.7793 25.1094 37.5195 25.0547C37.2643 25 37.0228 24.918 36.7949 24.8086C36.5671 24.6992 36.3597 24.5625 36.1729 24.3984C35.986 24.2298 35.8311 24.0339 35.708 23.8105V25H34.252ZM36.2207 23.2227C36.4076 23.4551 36.6445 23.6374 36.9316 23.7695C37.2188 23.8971 37.5537 23.9609 37.9365 23.9609C38.3467 23.9609 38.6885 23.888 38.9619 23.7422C39.2354 23.5964 39.4564 23.4004 39.625 23.1543C39.7891 22.9082 39.9053 22.6234 39.9736 22.2998C40.042 21.9762 40.0762 21.639 40.0762 21.2881C40.0762 20.96 40.0329 20.641 39.9463 20.3311C39.8643 20.0166 39.7367 19.7409 39.5635 19.5039C39.3903 19.2624 39.1693 19.0687 38.9004 18.9229C38.6315 18.777 38.3125 18.7041 37.9434 18.7041C37.5423 18.7041 37.196 18.777 36.9043 18.9229C36.6126 19.0641 36.3757 19.2555 36.1934 19.4971C36.0065 19.7432 35.8675 20.0257 35.7764 20.3447C35.6898 20.6637 35.6465 21.001 35.6465 21.3564C35.6465 21.7301 35.6943 22.0765 35.79 22.3955C35.8857 22.7145 36.0293 22.9902 36.2207 23.2227ZM43.2207 25V17.6719H44.6768V18.793C44.8864 18.3646 45.1735 18.0479 45.5381 17.8428C45.9072 17.6331 46.3242 17.5283 46.7891 17.5283C47.0215 17.5283 47.2539 17.5557 47.4863 17.6104C47.7188 17.665 47.9375 17.7471 48.1426 17.8564C48.3431 17.9658 48.5231 18.1048 48.6826 18.2734C48.8421 18.4421 48.9674 18.6426 49.0586 18.875C49.1816 18.6562 49.3298 18.4626 49.5029 18.2939C49.6807 18.1253 49.8766 17.984 50.0908 17.8701C50.305 17.7607 50.5329 17.6764 50.7744 17.6172C51.0205 17.5579 51.2734 17.5283 51.5332 17.5283C51.9525 17.5283 52.3193 17.6012 52.6338 17.7471C52.9528 17.8929 53.2194 18.0934 53.4336 18.3486C53.6432 18.6084 53.8005 18.9137 53.9053 19.2646C54.0146 19.611 54.0693 19.9893 54.0693 20.3994V25H52.6133V20.4268C52.6133 19.8981 52.4857 19.4902 52.2305 19.2031C51.9753 18.9115 51.5742 18.7656 51.0273 18.7656C50.763 18.7656 50.526 18.8135 50.3164 18.9092C50.1113 19.0003 49.9382 19.1257 49.7969 19.2852C49.6556 19.4492 49.5485 19.6406 49.4756 19.8594C49.4027 20.0781 49.3662 20.3151 49.3662 20.5703V25H47.9102V20.4268C47.9102 19.9027 47.7826 19.4948 47.5273 19.2031C47.2767 18.9115 46.8984 18.7656 46.3926 18.7656C46.11 18.7656 45.8617 18.8135 45.6475 18.9092C45.4333 19.0003 45.2555 19.1257 45.1143 19.2852C44.9684 19.4492 44.859 19.6406 44.7861 19.8594C44.7132 20.0781 44.6768 20.3151 44.6768 20.5703V25H43.2207ZM56.209 25V17.6924H57.6514V25H56.209ZM56.2773 16.1885C56.1953 16.111 56.1292 16.0199 56.0791 15.915C56.0335 15.8057 56.0107 15.6895 56.0107 15.5664C56.0107 15.4434 56.0335 15.3294 56.0791 15.2246C56.1292 15.1152 56.1953 15.0195 56.2773 14.9375C56.3594 14.86 56.4551 14.7985 56.5645 14.7529C56.6738 14.7074 56.79 14.6846 56.9131 14.6846C57.0361 14.6846 57.1523 14.7074 57.2617 14.7529C57.3711 14.7939 57.4668 14.8555 57.5488 14.9375C57.6309 15.015 57.6947 15.1084 57.7402 15.2178C57.7904 15.3226 57.8154 15.4388 57.8154 15.5664C57.8154 15.6895 57.7904 15.8057 57.7402 15.915C57.6947 16.0199 57.6309 16.111 57.5488 16.1885C57.4668 16.2705 57.3711 16.3343 57.2617 16.3799C57.1523 16.4255 57.0361 16.4482 56.9131 16.4482C56.79 16.4482 56.6738 16.4255 56.5645 16.3799C56.4551 16.3343 56.3594 16.2705 56.2773 16.1885ZM63.332 24.9453C62.9857 25.0547 62.6211 25.1094 62.2383 25.1094C61.5547 25.1094 61.0352 24.9408 60.6797 24.6035C60.3288 24.2663 60.1533 23.749 60.1533 23.0518V18.8066H59.1279V17.6719H60.1533V16.2295L61.5957 15.6006V17.6719H63.2432V18.8066H61.5957V22.915C61.5957 23.0609 61.6117 23.1953 61.6436 23.3184C61.6755 23.4414 61.7279 23.5485 61.8008 23.6396C61.8691 23.7262 61.9626 23.7946 62.0811 23.8447C62.1995 23.8949 62.3431 23.9199 62.5117 23.9199C62.6348 23.9199 62.7646 23.9085 62.9014 23.8857C63.0426 23.8584 63.1862 23.8197 63.332 23.7695V24.9453Z" fill="white"/>
<defs>
<linearGradient id="paint0_linear_17469_3266" x1="80" y1="40" x2="-1.39589e-06" y2="40" gradientUnits="userSpaceOnUse">
<stop stop-color="#006AFF"/>
<stop offset="1" stop-color="#1E52BB"/>
</linearGradient>
</defs>
</svg>
