<svg width="514" height="118" viewBox="0 0 514 118" fill="none" xmlns="http://www.w3.org/2000/svg">
<path d="M499.991 8V8.5H502C502.475 8.5 502.928 8.59478 503.34 8.76562L503.53 8.30371C504.508 8.70902 505.29 9.49099 505.695 10.4688L505.234 10.6602C505.405 11.0721 505.5 11.5245 505.5 12V13.9443H506V17.833H505.5V21.7227H506V25.6113H505.5V29.5H506V33.3887H505.5V37.2773H506V41.167H505.5V45.0557H506V48.9443H505.5V52.833H506V56.7227H505.5V60.6113H506V64.5H505.5V68.3887H506V72.2773H505.5V76.167H506V80.0557H505.5V82C505.5 82.4755 505.405 82.9279 505.234 83.3398L505.695 83.5303C505.29 84.5083 504.508 85.2898 503.53 85.6953L503.34 85.2344C502.928 85.4052 502.475 85.5 502 85.5H499.992V86H495.976V85.5H491.959V86H487.942V85.5H483.926V86H479.91V85.5H475.894V86H471.877V85.5H467.86V86H463.845V85.5H459.828V86H455.812V85.5H451.795V86H447.778V85.5H443.763V86H439.746V85.5H435.729V86H431.713V85.5H427.696V86H423.681V85.5H419.664V86H415.647V85.5H411.631V86H407.614V85.5H403.599V86H399.582V85.5H395.565V86H391.549V85.5H387.533V86H383.517V85.5H379.5V86H375.483V85.5H371.467V86H367.451V85.5H363.435V86H359.418V85.5H355.401V86H351.385V85.5H347.369V86H343.353V85.5H339.336V86H335.319V85.5H331.304V86H327.287V85.5H323.271V86H319.254V85.5H315.237V86H311.222V85.5H307.205V86H303.188V85.5H299.172V86H295.156V85.5H291.14V86H287.123V85.5H283.106V86H279.09V85.5H275.074V86H271.058V85.5H267.041V86H263.024V85.5H259.008V86H254.992V85.5H250.976V86H246.959V85.5H242.942V86H238.927V85.5H234.91V86H230.894V85.5H226.877V86H222.86V85.5H218.845V86H214.828V85.5H210.812V86H206.795V85.5H202.779V86H198.763V85.5H194.746V86H190.729V85.5H186.713V86H182.697V85.5H178.681V86H174.664V85.5H170.647V86H166.632V85.5H162.615V86H158.599V85.5H154.582V86H150.565V85.5H146.55V86H142.533V85.5H138.517V86H134.5V85.5H130.483V86H126.468V85.5H122.451V86H118.435V85.5H114.418V86H110.402V85.5H106.386V86H102.369V85.5H98.3525V86H94.3359V85.5H90.3203V86H86.3037V85.5H82.2871V86H78.2705V85.5H74.2549V86H70.2383V85.5H66.2217V86H62.2051V85.5H58.1885V86H54.1729V85.5H50.1562V86H46.1396V85.5H42.123V86H38.1074V85.5H34.0908V86H30.0742V85.5H26.0576V86H22.041V85.5H18.0254V86H14.0088V85.5H12C11.5245 85.5 11.0721 85.4052 10.6602 85.2344L10.4688 85.6953C9.49099 85.2897 8.70902 84.5082 8.30371 83.5303L8.76562 83.3398C8.61609 82.9792 8.52528 82.5876 8.50488 82.1768L8.5 82V80.0557H8V76.167H8.5V72.2773H8V68.3887H8.5V64.5H8V60.6113H8.5V56.7227H8V52.833H8.5V48.9443H8V45.0557H8.5V41.167H8V37.2773H8.5V33.3887H8V29.5H8.5V25.6113H8V21.7227H8.5V17.833H8V13.9443H8.5V12C8.5 11.5245 8.59478 11.0721 8.76562 10.6602L8.30371 10.4688C8.70917 9.49111 9.49111 8.70917 10.4688 8.30371L10.6602 8.76562C11.0721 8.59478 11.5245 8.5 12 8.5H14.0078V8H18.0244V8.5H22.041V8H26.0576V8.5H30.0742V8H34.0898V8.5H38.1064V8H42.123V8.5H46.1396V8H50.1553V8.5H54.1719V8H58.1885V8.5H62.2051V8H66.2217V8.5H70.2373V8H74.2539V8.5H78.2705V8H82.2871V8.5H86.3037V8H90.3193V8.5H94.3359V8H98.3525V8.5H102.369V8H106.386V8.5H110.401V8H114.418V8.5H118.435V8H122.451V8.5H126.467V8H130.483V8.5H134.5V8H138.517V8.5H142.533V8H146.549V8.5H150.565V8H154.582V8.5H158.599V8H162.615V8.5H166.631V8H170.647V8.5H174.664V8H178.681V8.5H182.696V8H186.713V8.5H190.729V8H194.746V8.5H198.763V8H202.778V8.5H206.795V8H210.812V8.5H214.828V8H218.844V8.5H222.86V8H226.877V8.5H230.894V8H234.91V8.5H238.926V8H242.942V8.5H246.959V8H250.976V8.5H254.992V8H259.008V8.5H263.024V8H267.041V8.5H271.058V8H275.073V8.5H279.09V8H283.106V8.5H287.123V8H291.14V8.5H295.155V8H299.172V8.5H303.188V8H307.205V8.5H311.221V8H315.237V8.5H319.254V8H323.271V8.5H327.287V8H331.303V8.5H335.319V8H339.336V8.5H343.353V8H347.368V8.5H351.385V8H355.401V8.5H359.418V8H363.435V8.5H367.45V8H371.467V8.5H375.483V8H379.5V8.5H383.517V8H387.532V8.5H391.549V8H395.565V8.5H399.582V8H403.598V8.5H407.614V8H411.631V8.5H415.647V8H419.664V8.5H423.68V8H427.696V8.5H431.713V8H435.729V8.5H439.745V8H443.762V8.5H447.778V8H451.795V8.5H455.812V8H459.827V8.5H463.844V8H467.86V8.5H471.877V8H475.893V8.5H479.909V8H483.926V8.5H487.942V8H491.959V8.5H495.975V8H499.991Z" fill="white"/>
<path d="M499.991 8V8.5H502C502.475 8.5 502.928 8.59478 503.34 8.76562L503.53 8.30371C504.508 8.70902 505.29 9.49099 505.695 10.4688L505.234 10.6602C505.405 11.0721 505.5 11.5245 505.5 12V13.9443H506V17.833H505.5V21.7227H506V25.6113H505.5V29.5H506V33.3887H505.5V37.2773H506V41.167H505.5V45.0557H506V48.9443H505.5V52.833H506V56.7227H505.5V60.6113H506V64.5H505.5V68.3887H506V72.2773H505.5V76.167H506V80.0557H505.5V82C505.5 82.4755 505.405 82.9279 505.234 83.3398L505.695 83.5303C505.29 84.5083 504.508 85.2898 503.53 85.6953L503.34 85.2344C502.928 85.4052 502.475 85.5 502 85.5H499.992V86H495.976V85.5H491.959V86H487.942V85.5H483.926V86H479.91V85.5H475.894V86H471.877V85.5H467.86V86H463.845V85.5H459.828V86H455.812V85.5H451.795V86H447.778V85.5H443.763V86H439.746V85.5H435.729V86H431.713V85.5H427.696V86H423.681V85.5H419.664V86H415.647V85.5H411.631V86H407.614V85.5H403.599V86H399.582V85.5H395.565V86H391.549V85.5H387.533V86H383.517V85.5H379.5V86H375.483V85.5H371.467V86H367.451V85.5H363.435V86H359.418V85.5H355.401V86H351.385V85.5H347.369V86H343.353V85.5H339.336V86H335.319V85.5H331.304V86H327.287V85.5H323.271V86H319.254V85.5H315.237V86H311.222V85.5H307.205V86H303.188V85.5H299.172V86H295.156V85.5H291.14V86H287.123V85.5H283.106V86H279.09V85.5H275.074V86H271.058V85.5H267.041V86H263.024V85.5H259.008V86H254.992V85.5H250.976V86H246.959V85.5H242.942V86H238.927V85.5H234.91V86H230.894V85.5H226.877V86H222.86V85.5H218.845V86H214.828V85.5H210.812V86H206.795V85.5H202.779V86H198.763V85.5H194.746V86H190.729V85.5H186.713V86H182.697V85.5H178.681V86H174.664V85.5H170.647V86H166.632V85.5H162.615V86H158.599V85.5H154.582V86H150.565V85.5H146.55V86H142.533V85.5H138.517V86H134.5V85.5H130.483V86H126.468V85.5H122.451V86H118.435V85.5H114.418V86H110.402V85.5H106.386V86H102.369V85.5H98.3525V86H94.3359V85.5H90.3203V86H86.3037V85.5H82.2871V86H78.2705V85.5H74.2549V86H70.2383V85.5H66.2217V86H62.2051V85.5H58.1885V86H54.1729V85.5H50.1562V86H46.1396V85.5H42.123V86H38.1074V85.5H34.0908V86H30.0742V85.5H26.0576V86H22.041V85.5H18.0254V86H14.0088V85.5H12C11.5245 85.5 11.0721 85.4052 10.6602 85.2344L10.4688 85.6953C9.49099 85.2897 8.70902 84.5082 8.30371 83.5303L8.76562 83.3398C8.61609 82.9792 8.52528 82.5876 8.50488 82.1768L8.5 82V80.0557H8V76.167H8.5V72.2773H8V68.3887H8.5V64.5H8V60.6113H8.5V56.7227H8V52.833H8.5V48.9443H8V45.0557H8.5V41.167H8V37.2773H8.5V33.3887H8V29.5H8.5V25.6113H8V21.7227H8.5V17.833H8V13.9443H8.5V12C8.5 11.5245 8.59478 11.0721 8.76562 10.6602L8.30371 10.4688C8.70917 9.49111 9.49111 8.70917 10.4688 8.30371L10.6602 8.76562C11.0721 8.59478 11.5245 8.5 12 8.5H14.0078V8H18.0244V8.5H22.041V8H26.0576V8.5H30.0742V8H34.0898V8.5H38.1064V8H42.123V8.5H46.1396V8H50.1553V8.5H54.1719V8H58.1885V8.5H62.2051V8H66.2217V8.5H70.2373V8H74.2539V8.5H78.2705V8H82.2871V8.5H86.3037V8H90.3193V8.5H94.3359V8H98.3525V8.5H102.369V8H106.386V8.5H110.401V8H114.418V8.5H118.435V8H122.451V8.5H126.467V8H130.483V8.5H134.5V8H138.517V8.5H142.533V8H146.549V8.5H150.565V8H154.582V8.5H158.599V8H162.615V8.5H166.631V8H170.647V8.5H174.664V8H178.681V8.5H182.696V8H186.713V8.5H190.729V8H194.746V8.5H198.763V8H202.778V8.5H206.795V8H210.812V8.5H214.828V8H218.844V8.5H222.86V8H226.877V8.5H230.894V8H234.91V8.5H238.926V8H242.942V8.5H246.959V8H250.976V8.5H254.992V8H259.008V8.5H263.024V8H267.041V8.5H271.058V8H275.073V8.5H279.09V8H283.106V8.5H287.123V8H291.14V8.5H295.155V8H299.172V8.5H303.188V8H307.205V8.5H311.221V8H315.237V8.5H319.254V8H323.271V8.5H327.287V8H331.303V8.5H335.319V8H339.336V8.5H343.353V8H347.368V8.5H351.385V8H355.401V8.5H359.418V8H363.435V8.5H367.45V8H371.467V8.5H375.483V8H379.5V8.5H383.517V8H387.532V8.5H391.549V8H395.565V8.5H399.582V8H403.598V8.5H407.614V8H411.631V8.5H415.647V8H419.664V8.5H423.68V8H427.696V8.5H431.713V8H435.729V8.5H439.745V8H443.762V8.5H447.778V8H451.795V8.5H455.812V8H459.827V8.5H463.844V8H467.86V8.5H471.877V8H475.893V8.5H479.909V8H483.926V8.5H487.942V8H491.959V8.5H495.975V8H499.991Z" stroke="#B4BBCC" stroke-dasharray="4 4"/>
<path d="M157.328 53V41.5625H160.914C161.836 41.5625 162.659 41.6875 163.383 41.9375C164.107 42.1823 164.719 42.5469 165.219 43.0312C165.719 43.5104 166.102 44.1016 166.367 44.8047C166.633 45.5078 166.766 46.3151 166.766 47.2266C166.766 48.1641 166.628 48.9922 166.352 49.7109C166.076 50.4245 165.682 51.026 165.172 51.5156C164.661 52.0052 164.044 52.375 163.32 52.625C162.596 52.875 161.784 53 160.883 53H157.328ZM159.125 51.5781H160.836C161.549 51.5781 162.161 51.4766 162.672 51.2734C163.188 51.0703 163.612 50.7786 163.945 50.3984C164.273 50.0234 164.516 49.5677 164.672 49.0312C164.833 48.4896 164.914 47.8828 164.914 47.2109C164.914 45.8255 164.578 44.776 163.906 44.0625C163.24 43.3438 162.211 42.9844 160.82 42.9844H159.125V51.5781ZM168.766 53V44.625H170.43V46.1641C170.727 45.5859 171.094 45.1615 171.531 44.8906C171.974 44.6146 172.518 44.4766 173.164 44.4766V46.0312C172.737 46.0469 172.354 46.099 172.016 46.1875C171.677 46.276 171.391 46.4167 171.156 46.6094C170.922 46.8021 170.742 47.0547 170.617 47.3672C170.492 47.6797 170.43 48.0677 170.43 48.5312V53H168.766ZM179.5 53V51.9609C179.188 52.3828 178.805 52.6875 178.352 52.875C177.904 53.0625 177.427 53.1562 176.922 53.1562C176.542 53.1562 176.18 53.1042 175.836 53C175.497 52.8958 175.203 52.7396 174.953 52.5312C174.698 52.3229 174.495 52.0651 174.344 51.7578C174.198 51.4453 174.125 51.0859 174.125 50.6797C174.125 50.3099 174.188 49.987 174.312 49.7109C174.438 49.4349 174.607 49.2005 174.82 49.0078C175.034 48.8099 175.281 48.651 175.562 48.5312C175.849 48.4062 176.154 48.3099 176.477 48.2422C176.794 48.1693 177.122 48.1198 177.461 48.0938C177.799 48.0677 178.128 48.0547 178.445 48.0547H179.484C179.484 47.7161 179.466 47.4089 179.43 47.1328C179.393 46.8516 179.312 46.6094 179.188 46.4062C179.062 46.2031 178.883 46.0469 178.648 45.9375C178.414 45.8229 178.102 45.7656 177.711 45.7656C177.503 45.7656 177.294 45.7969 177.086 45.8594C176.883 45.9219 176.693 46.0078 176.516 46.1172C176.344 46.2318 176.19 46.3724 176.055 46.5391C175.919 46.7005 175.815 46.8828 175.742 47.0859L174.383 46.5C174.534 46.1406 174.729 45.8333 174.969 45.5781C175.208 45.3229 175.479 45.112 175.781 44.9453C176.083 44.7839 176.409 44.6641 176.758 44.5859C177.112 44.5078 177.471 44.4688 177.836 44.4688C178.32 44.4688 178.763 44.5339 179.164 44.6641C179.57 44.7943 179.919 44.987 180.211 45.2422C180.503 45.4974 180.729 45.8177 180.891 46.2031C181.052 46.5833 181.133 47.0234 181.133 47.5234V53H179.5ZM179.484 49.1406H178.43C178.263 49.1406 178.081 49.1458 177.883 49.1562C177.685 49.1667 177.49 49.1901 177.297 49.2266C177.099 49.263 176.909 49.3177 176.727 49.3906C176.544 49.4583 176.38 49.5495 176.234 49.6641C176.094 49.7786 175.982 49.9219 175.898 50.0938C175.815 50.2604 175.773 50.4609 175.773 50.6953C175.773 50.9089 175.807 51.0938 175.875 51.25C175.948 51.401 176.049 51.526 176.18 51.625C176.305 51.724 176.456 51.7969 176.633 51.8438C176.815 51.8906 177.013 51.9141 177.227 51.9141C177.503 51.9141 177.773 51.8776 178.039 51.8047C178.31 51.7266 178.552 51.6094 178.766 51.4531C178.979 51.3021 179.151 51.112 179.281 50.8828C179.417 50.6484 179.484 50.3776 179.484 50.0703V49.1406ZM184.492 53.4609C184.602 53.7057 184.747 53.9089 184.93 54.0703C185.112 54.237 185.315 54.3724 185.539 54.4766C185.763 54.5755 186 54.6458 186.25 54.6875C186.505 54.7344 186.755 54.7578 187 54.7578C187.385 54.7578 187.737 54.7083 188.055 54.6094C188.378 54.5104 188.654 54.362 188.883 54.1641C189.112 53.9661 189.289 53.7161 189.414 53.4141C189.544 53.1172 189.609 52.7656 189.609 52.3594V51.125C189.464 51.3698 189.284 51.5911 189.07 51.7891C188.857 51.9818 188.622 52.1458 188.367 52.2812C188.112 52.4167 187.841 52.5208 187.555 52.5938C187.273 52.6615 186.992 52.6953 186.711 52.6953C186.122 52.6953 185.596 52.5885 185.133 52.375C184.669 52.1562 184.279 51.862 183.961 51.4922C183.638 51.1276 183.391 50.7005 183.219 50.2109C183.052 49.7214 182.969 49.2031 182.969 48.6562C182.969 48.0833 183.06 47.5443 183.242 47.0391C183.424 46.5339 183.682 46.0885 184.016 45.7031C184.349 45.3229 184.75 45.0234 185.219 44.8047C185.693 44.5807 186.219 44.4688 186.797 44.4688C187.078 44.4688 187.354 44.4974 187.625 44.5547C187.901 44.612 188.161 44.7005 188.406 44.8203C188.651 44.9401 188.875 45.0911 189.078 45.2734C189.286 45.4557 189.464 45.6719 189.609 45.9219V44.625H191.258V52.4062C191.258 53.0417 191.146 53.5885 190.922 54.0469C190.698 54.5104 190.391 54.8932 190 55.1953C189.615 55.4922 189.159 55.7109 188.633 55.8516C188.112 55.9974 187.555 56.0703 186.961 56.0703C186.576 56.0703 186.195 56.0365 185.82 55.9688C185.445 55.9062 185.091 55.7969 184.758 55.6406C184.424 55.4844 184.122 55.276 183.852 55.0156C183.581 54.7552 183.357 54.4297 183.18 54.0391L184.492 53.4609ZM185.32 50.5547C185.529 50.8047 185.781 51.0052 186.078 51.1562C186.38 51.3073 186.719 51.3828 187.094 51.3828C187.51 51.3828 187.878 51.3073 188.195 51.1562C188.513 51.0052 188.781 50.7995 189 50.5391C189.214 50.2786 189.375 49.974 189.484 49.625C189.599 49.276 189.656 48.9036 189.656 48.5078C189.656 48.1224 189.602 47.7656 189.492 47.4375C189.388 47.1042 189.234 46.8151 189.031 46.5703C188.823 46.3255 188.562 46.1328 188.25 45.9922C187.943 45.8516 187.586 45.7812 187.18 45.7812C186.753 45.7812 186.38 45.8594 186.062 46.0156C185.75 46.1667 185.49 46.3724 185.281 46.6328C185.073 46.8932 184.917 47.2005 184.812 47.5547C184.714 47.9036 184.664 48.2734 184.664 48.6641C184.664 49.0182 184.719 49.3594 184.828 49.6875C184.943 50.0156 185.107 50.3047 185.32 50.5547ZM197.164 53V45.9219H195.992V44.625H197.164C197.164 44.2812 197.169 43.9453 197.18 43.6172C197.19 43.2839 197.221 42.9688 197.273 42.6719C197.326 42.375 197.404 42.1016 197.508 41.8516C197.617 41.6016 197.768 41.3854 197.961 41.2031C198.159 41.0208 198.406 40.8802 198.703 40.7812C199 40.6771 199.362 40.625 199.789 40.625C200.023 40.625 200.242 40.6432 200.445 40.6797C200.654 40.7109 200.854 40.763 201.047 40.8359L200.539 42.0156C200.445 42 200.352 41.987 200.258 41.9766C200.164 41.9609 200.07 41.9531 199.977 41.9531C199.747 41.9531 199.557 41.9948 199.406 42.0781C199.255 42.1562 199.138 42.263 199.055 42.3984C198.966 42.5339 198.904 42.6927 198.867 42.875C198.836 43.0521 198.82 43.2396 198.82 43.4375V44.625H200.797V45.9219H198.828V53H197.164ZM202.719 53V44.6484H204.367V53H202.719ZM202.797 42.9297C202.703 42.8411 202.628 42.737 202.57 42.6172C202.518 42.4922 202.492 42.3594 202.492 42.2188C202.492 42.0781 202.518 41.9479 202.57 41.8281C202.628 41.7031 202.703 41.5938 202.797 41.5C202.891 41.4115 203 41.3411 203.125 41.2891C203.25 41.237 203.383 41.2109 203.523 41.2109C203.664 41.2109 203.797 41.237 203.922 41.2891C204.047 41.3359 204.156 41.4062 204.25 41.5C204.344 41.5885 204.417 41.6953 204.469 41.8203C204.526 41.9401 204.555 42.0729 204.555 42.2188C204.555 42.3594 204.526 42.4922 204.469 42.6172C204.417 42.737 204.344 42.8411 204.25 42.9297C204.156 43.0234 204.047 43.0964 203.922 43.1484C203.797 43.2005 203.664 43.2266 203.523 43.2266C203.383 43.2266 203.25 43.2005 203.125 43.1484C203 43.0964 202.891 43.0234 202.797 42.9297ZM206.93 53V41.4297L208.594 40.6953V53H206.93ZM212.258 49.1562C212.258 49.5417 212.307 49.901 212.406 50.2344C212.51 50.5625 212.664 50.8464 212.867 51.0859C213.07 51.3307 213.323 51.5234 213.625 51.6641C213.927 51.7995 214.279 51.8672 214.68 51.8672C215.195 51.8672 215.643 51.7526 216.023 51.5234C216.404 51.2891 216.706 50.9609 216.93 50.5391L218.305 51.125C218.122 51.4792 217.904 51.7865 217.648 52.0469C217.398 52.3021 217.122 52.5104 216.82 52.6719C216.513 52.8385 216.185 52.9609 215.836 53.0391C215.492 53.1172 215.133 53.1562 214.758 53.1562C214.096 53.1562 213.505 53.0469 212.984 52.8281C212.469 52.6042 212.031 52.2995 211.672 51.9141C211.312 51.5286 211.036 51.0729 210.844 50.5469C210.656 50.0208 210.562 49.4531 210.562 48.8438C210.562 48.2292 210.656 47.6562 210.844 47.125C211.036 46.5885 211.31 46.125 211.664 45.7344C212.013 45.3385 212.438 45.0286 212.938 44.8047C213.438 44.5807 213.995 44.4688 214.609 44.4688C215.344 44.4688 215.956 44.5911 216.445 44.8359C216.94 45.0807 217.339 45.4141 217.641 45.8359C217.938 46.2578 218.148 46.7552 218.273 47.3281C218.404 47.8958 218.469 48.5052 218.469 49.1562H212.258ZM216.82 47.9688C216.799 47.6302 216.74 47.3255 216.641 47.0547C216.542 46.7786 216.404 46.5417 216.227 46.3438C216.044 46.151 215.823 46.0026 215.562 45.8984C215.307 45.7891 215.01 45.7344 214.672 45.7344C214.318 45.7344 214.003 45.7917 213.727 45.9062C213.456 46.0208 213.221 46.1797 213.023 46.3828C212.831 46.5807 212.674 46.8177 212.555 47.0938C212.435 47.3646 212.352 47.6562 212.305 47.9688H216.82ZM221 50.5078C221.078 50.7266 221.188 50.9219 221.328 51.0938C221.469 51.2604 221.63 51.4036 221.812 51.5234C221.99 51.638 222.185 51.7266 222.398 51.7891C222.617 51.8516 222.839 51.8828 223.062 51.8828C223.266 51.8828 223.466 51.8646 223.664 51.8281C223.867 51.7917 224.049 51.7292 224.211 51.6406C224.367 51.5521 224.495 51.4349 224.594 51.2891C224.693 51.138 224.742 50.9505 224.742 50.7266C224.742 50.4922 224.688 50.2995 224.578 50.1484C224.469 49.9922 224.32 49.8646 224.133 49.7656C223.945 49.6615 223.729 49.5781 223.484 49.5156C223.24 49.4479 222.979 49.3828 222.703 49.3203C222.391 49.2474 222.073 49.1641 221.75 49.0703C221.432 48.9766 221.143 48.8438 220.883 48.6719C220.622 48.5 220.409 48.276 220.242 48C220.081 47.7188 220 47.3542 220 46.9062C220 46.5104 220.089 46.1615 220.266 45.8594C220.443 45.5521 220.674 45.2969 220.961 45.0938C221.242 44.8854 221.56 44.7292 221.914 44.625C222.268 44.5208 222.622 44.4688 222.977 44.4688C223.315 44.4688 223.641 44.5078 223.953 44.5859C224.266 44.6589 224.557 44.7734 224.828 44.9297C225.104 45.0859 225.352 45.2812 225.57 45.5156C225.789 45.7448 225.971 46.0156 226.117 46.3281L224.867 46.875C224.779 46.6823 224.669 46.5156 224.539 46.375C224.409 46.2292 224.263 46.1094 224.102 46.0156C223.945 45.9219 223.773 45.8542 223.586 45.8125C223.404 45.7656 223.216 45.7422 223.023 45.7422C222.846 45.7422 222.669 45.763 222.492 45.8047C222.315 45.8411 222.156 45.901 222.016 45.9844C221.875 46.0729 221.76 46.1849 221.672 46.3203C221.583 46.4557 221.539 46.6224 221.539 46.8203C221.539 47.0339 221.591 47.2083 221.695 47.3438C221.805 47.4792 221.948 47.5938 222.125 47.6875C222.302 47.7812 222.508 47.8568 222.742 47.9141C222.977 47.9661 223.221 48.0182 223.477 48.0703C223.81 48.138 224.146 48.2188 224.484 48.3125C224.823 48.401 225.128 48.5312 225.398 48.7031C225.674 48.875 225.898 49.1042 226.07 49.3906C226.242 49.6719 226.328 50.0443 226.328 50.5078C226.328 50.9766 226.237 51.3802 226.055 51.7188C225.872 52.0521 225.633 52.3255 225.336 52.5391C225.034 52.7526 224.69 52.9089 224.305 53.0078C223.919 53.1068 223.523 53.1562 223.117 53.1562C222.742 53.1562 222.378 53.1146 222.023 53.0312C221.674 52.9531 221.352 52.8281 221.055 52.6562C220.758 52.4844 220.495 52.2682 220.266 52.0078C220.036 51.7422 219.859 51.4271 219.734 51.0625L221 50.5078ZM231.266 53V40.6953H232.93V45.9531C233.055 45.6927 233.214 45.4688 233.406 45.2812C233.599 45.0938 233.815 44.9401 234.055 44.8203C234.294 44.6953 234.549 44.6042 234.82 44.5469C235.091 44.4896 235.37 44.4609 235.656 44.4609C236.167 44.4609 236.609 44.5469 236.984 44.7188C237.365 44.8854 237.682 45.1172 237.938 45.4141C238.193 45.7109 238.38 46.0677 238.5 46.4844C238.625 46.901 238.688 47.3542 238.688 47.8438V53H237.023V47.8906C237.023 47.2292 236.862 46.7266 236.539 46.3828C236.221 46.0339 235.745 45.8594 235.109 45.8594C234.766 45.8594 234.458 45.9115 234.188 46.0156C233.917 46.1146 233.688 46.2578 233.5 46.4453C233.312 46.6328 233.169 46.8594 233.07 47.125C232.977 47.3854 232.93 47.6771 232.93 48V53H231.266ZM242.211 49.1562C242.211 49.5417 242.26 49.901 242.359 50.2344C242.464 50.5625 242.617 50.8464 242.82 51.0859C243.023 51.3307 243.276 51.5234 243.578 51.6641C243.88 51.7995 244.232 51.8672 244.633 51.8672C245.148 51.8672 245.596 51.7526 245.977 51.5234C246.357 51.2891 246.659 50.9609 246.883 50.5391L248.258 51.125C248.076 51.4792 247.857 51.7865 247.602 52.0469C247.352 52.3021 247.076 52.5104 246.773 52.6719C246.466 52.8385 246.138 52.9609 245.789 53.0391C245.445 53.1172 245.086 53.1562 244.711 53.1562C244.049 53.1562 243.458 53.0469 242.938 52.8281C242.422 52.6042 241.984 52.2995 241.625 51.9141C241.266 51.5286 240.99 51.0729 240.797 50.5469C240.609 50.0208 240.516 49.4531 240.516 48.8438C240.516 48.2292 240.609 47.6562 240.797 47.125C240.99 46.5885 241.263 46.125 241.617 45.7344C241.966 45.3385 242.391 45.0286 242.891 44.8047C243.391 44.5807 243.948 44.4688 244.562 44.4688C245.297 44.4688 245.909 44.5911 246.398 44.8359C246.893 45.0807 247.292 45.4141 247.594 45.8359C247.891 46.2578 248.102 46.7552 248.227 47.3281C248.357 47.8958 248.422 48.5052 248.422 49.1562H242.211ZM246.773 47.9688C246.753 47.6302 246.693 47.3255 246.594 47.0547C246.495 46.7786 246.357 46.5417 246.18 46.3438C245.997 46.151 245.776 46.0026 245.516 45.8984C245.26 45.7891 244.964 45.7344 244.625 45.7344C244.271 45.7344 243.956 45.7917 243.68 45.9062C243.409 46.0208 243.174 46.1797 242.977 46.3828C242.784 46.5807 242.628 46.8177 242.508 47.0938C242.388 47.3646 242.305 47.6562 242.258 47.9688H246.773ZM250.297 53V44.625H251.961V46.1641C252.258 45.5859 252.625 45.1615 253.062 44.8906C253.505 44.6146 254.049 44.4766 254.695 44.4766V46.0312C254.268 46.0469 253.885 46.099 253.547 46.1875C253.208 46.276 252.922 46.4167 252.688 46.6094C252.453 46.8021 252.273 47.0547 252.148 47.3672C252.023 47.6797 251.961 48.0677 251.961 48.5312V53H250.297ZM257.023 49.1562C257.023 49.5417 257.073 49.901 257.172 50.2344C257.276 50.5625 257.43 50.8464 257.633 51.0859C257.836 51.3307 258.089 51.5234 258.391 51.6641C258.693 51.7995 259.044 51.8672 259.445 51.8672C259.961 51.8672 260.409 51.7526 260.789 51.5234C261.169 51.2891 261.471 50.9609 261.695 50.5391L263.07 51.125C262.888 51.4792 262.669 51.7865 262.414 52.0469C262.164 52.3021 261.888 52.5104 261.586 52.6719C261.279 52.8385 260.951 52.9609 260.602 53.0391C260.258 53.1172 259.898 53.1562 259.523 53.1562C258.862 53.1562 258.271 53.0469 257.75 52.8281C257.234 52.6042 256.797 52.2995 256.438 51.9141C256.078 51.5286 255.802 51.0729 255.609 50.5469C255.422 50.0208 255.328 49.4531 255.328 48.8438C255.328 48.2292 255.422 47.6562 255.609 47.125C255.802 46.5885 256.076 46.125 256.43 45.7344C256.779 45.3385 257.203 45.0286 257.703 44.8047C258.203 44.5807 258.76 44.4688 259.375 44.4688C260.109 44.4688 260.721 44.5911 261.211 44.8359C261.706 45.0807 262.104 45.4141 262.406 45.8359C262.703 46.2578 262.914 46.7552 263.039 47.3281C263.169 47.8958 263.234 48.5052 263.234 49.1562H257.023ZM261.586 47.9688C261.565 47.6302 261.505 47.3255 261.406 47.0547C261.307 46.7786 261.169 46.5417 260.992 46.3438C260.81 46.151 260.589 46.0026 260.328 45.8984C260.073 45.7891 259.776 45.7344 259.438 45.7344C259.083 45.7344 258.768 45.7917 258.492 45.9062C258.221 46.0208 257.987 46.1797 257.789 46.3828C257.596 46.5807 257.44 46.8177 257.32 47.0938C257.201 47.3646 257.117 47.6562 257.07 47.9688H261.586ZM268.766 51.8984C268.401 51.5078 268.12 51.0443 267.922 50.5078C267.724 49.9661 267.625 49.3802 267.625 48.75C267.625 48.1354 267.729 47.5677 267.938 47.0469C268.151 46.5208 268.448 46.0677 268.828 45.6875C269.203 45.3021 269.654 45.0026 270.18 44.7891C270.706 44.5703 271.281 44.4609 271.906 44.4609C272.542 44.4609 273.117 44.5729 273.633 44.7969C274.148 45.0156 274.589 45.3203 274.953 45.7109C275.323 46.0964 275.607 46.5547 275.805 47.0859C276.003 47.612 276.102 48.1823 276.102 48.7969C276.102 49.4323 275.995 50.0182 275.781 50.5547C275.573 51.0859 275.279 51.5443 274.898 51.9297C274.518 52.3151 274.065 52.6172 273.539 52.8359C273.013 53.0495 272.438 53.1562 271.812 53.1562C271.177 53.1562 270.602 53.0469 270.086 52.8281C269.57 52.6042 269.13 52.2943 268.766 51.8984ZM269.938 50.9531C270.146 51.224 270.409 51.4375 270.727 51.5938C271.049 51.75 271.43 51.8281 271.867 51.8281C272.32 51.8281 272.706 51.7448 273.023 51.5781C273.346 51.4115 273.609 51.1901 273.812 50.9141C274.016 50.638 274.164 50.3177 274.258 49.9531C274.357 49.5885 274.406 49.2109 274.406 48.8203C274.406 48.4141 274.354 48.0286 274.25 47.6641C274.151 47.2943 273.997 46.9714 273.789 46.6953C273.576 46.4141 273.307 46.1927 272.984 46.0312C272.661 45.8698 272.279 45.7891 271.836 45.7891C271.383 45.7891 270.997 45.8724 270.68 46.0391C270.362 46.2057 270.102 46.4271 269.898 46.7031C269.701 46.9844 269.555 47.3073 269.461 47.6719C269.367 48.0365 269.32 48.4167 269.32 48.8125C269.32 49.2344 269.37 49.6276 269.469 49.9922C269.573 50.3568 269.729 50.6771 269.938 50.9531ZM278 53V44.625H279.664V46.1641C279.961 45.5859 280.328 45.1615 280.766 44.8906C281.208 44.6146 281.753 44.4766 282.398 44.4766V46.0312C281.971 46.0469 281.589 46.099 281.25 46.1875C280.911 46.276 280.625 46.4167 280.391 46.6094C280.156 46.8021 279.977 47.0547 279.852 47.3672C279.727 47.6797 279.664 48.0677 279.664 48.5312V53H278Z" fill="#55607A"/>
<path d="M287 37C287 34.7909 288.791 33 291 33H354C356.209 33 358 34.7909 358 37V57C358 59.2091 356.209 61 354 61H291C288.791 61 287 59.2091 287 57V37Z" fill="url(#paint0_linear_205_7043)"/>
<path d="M296.234 41.5625H298.039V48.5703C298.039 49.0286 298.073 49.4505 298.141 49.8359C298.214 50.2161 298.346 50.5443 298.539 50.8203C298.727 51.0964 298.987 51.3125 299.32 51.4688C299.654 51.625 300.083 51.7031 300.609 51.7031C301.151 51.7031 301.591 51.6224 301.93 51.4609C302.273 51.2943 302.542 51.0651 302.734 50.7734C302.927 50.4766 303.06 50.1276 303.133 49.7266C303.206 49.3203 303.242 48.875 303.242 48.3906V41.5625H305.047V48.5859C305.047 49.3203 304.951 49.9714 304.758 50.5391C304.57 51.1068 304.289 51.5833 303.914 51.9688C303.544 52.3594 303.083 52.6562 302.531 52.8594C301.979 53.0573 301.341 53.1562 300.617 53.1562C299.893 53.1562 299.258 53.0573 298.711 52.8594C298.164 52.6562 297.706 52.3646 297.336 51.9844C296.971 51.6094 296.695 51.1484 296.508 50.6016C296.326 50.0495 296.234 49.4245 296.234 48.7266V41.5625ZM307.469 55.8984V44.625H309.133V46.0156C309.273 45.7708 309.453 45.5547 309.672 45.3672C309.891 45.1745 310.13 45.0104 310.391 44.875C310.651 44.7448 310.922 44.6458 311.203 44.5781C311.49 44.5052 311.768 44.4688 312.039 44.4688C312.68 44.4688 313.237 44.5859 313.711 44.8203C314.185 45.0547 314.578 45.3698 314.891 45.7656C315.203 46.1667 315.435 46.6276 315.586 47.1484C315.742 47.6641 315.82 48.2083 315.82 48.7812C315.82 49.3698 315.74 49.9297 315.578 50.4609C315.417 50.9922 315.177 51.4557 314.859 51.8516C314.542 52.2526 314.146 52.5703 313.672 52.8047C313.203 53.0391 312.659 53.1562 312.039 53.1562C311.763 53.1562 311.482 53.125 311.195 53.0625C310.914 53 310.643 52.9062 310.383 52.7812C310.122 52.6562 309.883 52.5 309.664 52.3125C309.451 52.125 309.273 51.9062 309.133 51.6562V55.8984H307.469ZM309.711 50.9609C309.93 51.2266 310.203 51.4349 310.531 51.5859C310.859 51.737 311.242 51.8125 311.68 51.8125C312.143 51.8125 312.531 51.7318 312.844 51.5703C313.156 51.4036 313.406 51.1797 313.594 50.8984C313.786 50.6224 313.922 50.2995 314 49.9297C314.083 49.5599 314.125 49.1693 314.125 48.7578C314.125 48.3776 314.076 48.0104 313.977 47.6562C313.878 47.3021 313.724 46.987 313.516 46.7109C313.312 46.4401 313.049 46.224 312.727 46.0625C312.409 45.8958 312.029 45.8125 311.586 45.8125C311.148 45.8125 310.771 45.8958 310.453 46.0625C310.135 46.224 309.872 46.4427 309.664 46.7188C309.461 47 309.31 47.3229 309.211 47.6875C309.112 48.0469 309.062 48.4271 309.062 48.8281C309.062 49.2552 309.115 49.651 309.219 50.0156C309.328 50.3802 309.492 50.6953 309.711 50.9609ZM317.742 53V41.4297L319.406 40.6953V53H317.742ZM322.516 51.8984C322.151 51.5078 321.87 51.0443 321.672 50.5078C321.474 49.9661 321.375 49.3802 321.375 48.75C321.375 48.1354 321.479 47.5677 321.688 47.0469C321.901 46.5208 322.198 46.0677 322.578 45.6875C322.953 45.3021 323.404 45.0026 323.93 44.7891C324.456 44.5703 325.031 44.4609 325.656 44.4609C326.292 44.4609 326.867 44.5729 327.383 44.7969C327.898 45.0156 328.339 45.3203 328.703 45.7109C329.073 46.0964 329.357 46.5547 329.555 47.0859C329.753 47.612 329.852 48.1823 329.852 48.7969C329.852 49.4323 329.745 50.0182 329.531 50.5547C329.323 51.0859 329.029 51.5443 328.648 51.9297C328.268 52.3151 327.815 52.6172 327.289 52.8359C326.763 53.0495 326.188 53.1562 325.562 53.1562C324.927 53.1562 324.352 53.0469 323.836 52.8281C323.32 52.6042 322.88 52.2943 322.516 51.8984ZM323.688 50.9531C323.896 51.224 324.159 51.4375 324.477 51.5938C324.799 51.75 325.18 51.8281 325.617 51.8281C326.07 51.8281 326.456 51.7448 326.773 51.5781C327.096 51.4115 327.359 51.1901 327.562 50.9141C327.766 50.638 327.914 50.3177 328.008 49.9531C328.107 49.5885 328.156 49.2109 328.156 48.8203C328.156 48.4141 328.104 48.0286 328 47.6641C327.901 47.2943 327.747 46.9714 327.539 46.6953C327.326 46.4141 327.057 46.1927 326.734 46.0312C326.411 45.8698 326.029 45.7891 325.586 45.7891C325.133 45.7891 324.747 45.8724 324.43 46.0391C324.112 46.2057 323.852 46.4271 323.648 46.7031C323.451 46.9844 323.305 47.3073 323.211 47.6719C323.117 48.0365 323.07 48.4167 323.07 48.8125C323.07 49.2344 323.12 49.6276 323.219 49.9922C323.323 50.3568 323.479 50.6771 323.688 50.9531ZM336.484 53V51.9609C336.172 52.3828 335.789 52.6875 335.336 52.875C334.888 53.0625 334.411 53.1562 333.906 53.1562C333.526 53.1562 333.164 53.1042 332.82 53C332.482 52.8958 332.188 52.7396 331.938 52.5312C331.682 52.3229 331.479 52.0651 331.328 51.7578C331.182 51.4453 331.109 51.0859 331.109 50.6797C331.109 50.3099 331.172 49.987 331.297 49.7109C331.422 49.4349 331.591 49.2005 331.805 49.0078C332.018 48.8099 332.266 48.651 332.547 48.5312C332.833 48.4062 333.138 48.3099 333.461 48.2422C333.779 48.1693 334.107 48.1198 334.445 48.0938C334.784 48.0677 335.112 48.0547 335.43 48.0547H336.469C336.469 47.7161 336.451 47.4089 336.414 47.1328C336.378 46.8516 336.297 46.6094 336.172 46.4062C336.047 46.2031 335.867 46.0469 335.633 45.9375C335.398 45.8229 335.086 45.7656 334.695 45.7656C334.487 45.7656 334.279 45.7969 334.07 45.8594C333.867 45.9219 333.677 46.0078 333.5 46.1172C333.328 46.2318 333.174 46.3724 333.039 46.5391C332.904 46.7005 332.799 46.8828 332.727 47.0859L331.367 46.5C331.518 46.1406 331.714 45.8333 331.953 45.5781C332.193 45.3229 332.464 45.112 332.766 44.9453C333.068 44.7839 333.393 44.6641 333.742 44.5859C334.096 44.5078 334.456 44.4688 334.82 44.4688C335.305 44.4688 335.747 44.5339 336.148 44.6641C336.555 44.7943 336.904 44.987 337.195 45.2422C337.487 45.4974 337.714 45.8177 337.875 46.2031C338.036 46.5833 338.117 47.0234 338.117 47.5234V53H336.484ZM336.469 49.1406H335.414C335.247 49.1406 335.065 49.1458 334.867 49.1562C334.669 49.1667 334.474 49.1901 334.281 49.2266C334.083 49.263 333.893 49.3177 333.711 49.3906C333.529 49.4583 333.365 49.5495 333.219 49.6641C333.078 49.7786 332.966 49.9219 332.883 50.0938C332.799 50.2604 332.758 50.4609 332.758 50.6953C332.758 50.9089 332.792 51.0938 332.859 51.25C332.932 51.401 333.034 51.526 333.164 51.625C333.289 51.724 333.44 51.7969 333.617 51.8438C333.799 51.8906 333.997 51.9141 334.211 51.9141C334.487 51.9141 334.758 51.8776 335.023 51.8047C335.294 51.7266 335.536 51.6094 335.75 51.4531C335.964 51.3021 336.135 51.112 336.266 50.8828C336.401 50.6484 336.469 50.3776 336.469 50.0703V49.1406ZM346.406 53V51.5781C346.271 51.8229 346.094 52.0443 345.875 52.2422C345.656 52.4349 345.414 52.599 345.148 52.7344C344.883 52.8698 344.607 52.974 344.32 53.0469C344.034 53.1198 343.753 53.1562 343.477 53.1562C342.841 53.1562 342.286 53.0417 341.812 52.8125C341.344 52.5833 340.956 52.2734 340.648 51.8828C340.336 51.4922 340.102 51.0365 339.945 50.5156C339.794 49.9896 339.719 49.4323 339.719 48.8438C339.719 48.2656 339.802 47.7135 339.969 47.1875C340.141 46.6562 340.391 46.1875 340.719 45.7812C341.042 45.3802 341.44 45.0599 341.914 44.8203C342.393 44.5807 342.938 44.4609 343.547 44.4609C343.839 44.4609 344.122 44.4896 344.398 44.5469C344.68 44.6042 344.945 44.6953 345.195 44.8203C345.44 44.9401 345.667 45.0964 345.875 45.2891C346.083 45.4766 346.26 45.6979 346.406 45.9531V40.6875H348.07V53H346.406ZM342.008 50.9219C342.201 51.1927 342.448 51.4089 342.75 51.5703C343.052 51.7318 343.411 51.8125 343.828 51.8125C344.292 51.8125 344.688 51.7318 345.016 51.5703C345.349 51.4089 345.625 51.1901 345.844 50.9141C346.057 50.638 346.214 50.3125 346.312 49.9375C346.417 49.5625 346.469 49.1641 346.469 48.7422C346.469 48.3307 346.419 47.9479 346.32 47.5938C346.227 47.2344 346.078 46.9219 345.875 46.6562C345.667 46.3906 345.404 46.1823 345.086 46.0312C344.768 45.8802 344.388 45.8047 343.945 45.8047C343.477 45.8047 343.081 45.8906 342.758 46.0625C342.435 46.2292 342.177 46.4557 341.984 46.7422C341.786 47.0234 341.643 47.3516 341.555 47.7266C341.471 48.1016 341.43 48.4948 341.43 48.9062C341.43 49.2812 341.477 49.6458 341.57 50C341.664 50.349 341.81 50.6562 342.008 50.9219Z" fill="white"/>
<path d="M9.758 104.884C9.394 104.496 9.112 104.032 8.912 103.492C8.712 102.952 8.612 102.354 8.612 101.698C8.612 101.046 8.712 100.452 8.912 99.916C9.116 99.376 9.4 98.912 9.764 98.524C10.132 98.14 10.57 97.842 11.078 97.63C11.586 97.418 12.148 97.312 12.764 97.312C13.368 97.312 13.92 97.418 14.42 97.63C14.924 97.842 15.354 98.14 15.71 98.524C16.07 98.912 16.348 99.376 16.544 99.916C16.744 100.452 16.844 101.046 16.844 101.698C16.844 102.354 16.744 102.952 16.544 103.492C16.344 104.032 16.064 104.496 15.704 104.884C15.344 105.272 14.912 105.574 14.408 105.79C13.904 106.002 13.348 106.108 12.74 106.108C12.128 106.108 11.568 106.002 11.06 105.79C10.556 105.574 10.122 105.272 9.758 104.884ZM10.544 104.23C10.816 104.534 11.14 104.77 11.516 104.938C11.896 105.102 12.314 105.184 12.77 105.184C13.214 105.184 13.62 105.098 13.988 104.926C14.356 104.754 14.672 104.512 14.936 104.2C15.2 103.888 15.404 103.514 15.548 103.078C15.692 102.642 15.764 102.16 15.764 101.632C15.764 101.124 15.69 100.66 15.542 100.24C15.398 99.82 15.194 99.46 14.93 99.16C14.662 98.86 14.342 98.628 13.97 98.464C13.602 98.296 13.194 98.212 12.746 98.212C12.294 98.212 11.88 98.298 11.504 98.47C11.128 98.642 10.806 98.884 10.538 99.196C10.27 99.504 10.062 99.876 9.914 100.312C9.766 100.744 9.692 101.224 9.692 101.752C9.692 102.26 9.766 102.726 9.914 103.15C10.066 103.57 10.276 103.93 10.544 104.23ZM18.4879 106V99.724H19.4839V100.678C19.5839 100.494 19.7039 100.336 19.8439 100.204C19.9839 100.068 20.1399 99.956 20.3119 99.868C20.4839 99.78 20.6679 99.716 20.8639 99.676C21.0599 99.636 21.2599 99.616 21.4639 99.616C21.8479 99.616 22.1819 99.682 22.4659 99.814C22.7499 99.942 22.9839 100.122 23.1679 100.354C23.3559 100.586 23.4959 100.86 23.5879 101.176C23.6799 101.492 23.7259 101.836 23.7259 102.208V106H22.7239V102.136C22.7239 101.604 22.5999 101.196 22.3519 100.912C22.1079 100.624 21.7359 100.48 21.2359 100.48C20.9719 100.48 20.7319 100.52 20.5159 100.6C20.2999 100.68 20.1159 100.794 19.9639 100.942C19.8119 101.09 19.6939 101.27 19.6099 101.482C19.5259 101.694 19.4839 101.932 19.4839 102.196V106H18.4879ZM25.7021 106V96.928L26.7101 96.472V106H25.7021ZM29.1478 108.184L30.3058 105.352L27.9418 99.724H29.0038L30.8338 104.194L32.5198 99.724H33.5398L30.1558 108.184H29.1478ZM37.606 105.838C37.538 105.77 37.484 105.69 37.444 105.598C37.404 105.502 37.384 105.4 37.384 105.292C37.384 105.184 37.404 105.084 37.444 104.992C37.484 104.9 37.538 104.818 37.606 104.746C37.678 104.678 37.76 104.624 37.852 104.584C37.944 104.544 38.044 104.524 38.152 104.524C38.26 104.524 38.36 104.544 38.452 104.584C38.544 104.624 38.626 104.678 38.698 104.746C38.766 104.818 38.82 104.9 38.86 104.992C38.9 105.084 38.92 105.184 38.92 105.292C38.92 105.4 38.9 105.5 38.86 105.592C38.82 105.684 38.766 105.766 38.698 105.838C38.626 105.906 38.544 105.96 38.452 106C38.36 106.04 38.26 106.06 38.152 106.06C38.044 106.06 37.942 106.04 37.846 106C37.754 105.96 37.674 105.906 37.606 105.838ZM46.1733 104.176C45.9333 104.8 45.5733 105.278 45.0933 105.61C44.6133 105.942 44.0513 106.108 43.4073 106.108C42.9313 106.108 42.5073 106.024 42.1353 105.856C41.7673 105.684 41.4573 105.45 41.2053 105.154C40.9533 104.862 40.7613 104.516 40.6293 104.116C40.4973 103.716 40.4313 103.288 40.4313 102.832C40.4313 102.384 40.5033 101.966 40.6473 101.578C40.7953 101.186 40.9993 100.844 41.2593 100.552C41.5233 100.264 41.8373 100.036 42.2013 99.868C42.5653 99.7 42.9673 99.616 43.4073 99.616C44.0513 99.616 44.5993 99.762 45.0513 100.054C45.5073 100.342 45.8673 100.774 46.1313 101.35L45.2253 101.758C45.1573 101.566 45.0613 101.392 44.9373 101.236C44.8173 101.076 44.6773 100.94 44.5173 100.828C44.3573 100.716 44.1813 100.63 43.9893 100.57C43.8013 100.506 43.6073 100.474 43.4073 100.474C43.0753 100.474 42.7873 100.544 42.5433 100.684C42.2993 100.824 42.0973 101.008 41.9373 101.236C41.7773 101.464 41.6573 101.726 41.5773 102.022C41.5013 102.314 41.4633 102.614 41.4633 102.922C41.4633 103.242 41.5033 103.544 41.5833 103.828C41.6673 104.112 41.7893 104.358 41.9493 104.566C42.1133 104.778 42.3153 104.946 42.5553 105.07C42.7993 105.194 43.0833 105.256 43.4073 105.256C43.6433 105.256 43.8613 105.22 44.0613 105.148C44.2653 105.076 44.4493 104.976 44.6133 104.848C44.7733 104.72 44.9113 104.566 45.0273 104.386C45.1473 104.206 45.2413 104.008 45.3093 103.792L46.1733 104.176ZM47.6863 104.128C47.8023 104.496 47.9963 104.778 48.2683 104.974C48.5443 105.17 48.8643 105.268 49.2283 105.268C49.3963 105.268 49.5603 105.252 49.7203 105.22C49.8843 105.188 50.0303 105.134 50.1583 105.058C50.2863 104.982 50.3903 104.882 50.4703 104.758C50.5503 104.634 50.5903 104.478 50.5903 104.29C50.5903 104.098 50.5483 103.942 50.4643 103.822C50.3843 103.698 50.2763 103.596 50.1403 103.516C50.0043 103.432 49.8463 103.364 49.6663 103.312C49.4863 103.26 49.3003 103.21 49.1083 103.162C48.8723 103.106 48.6363 103.042 48.4003 102.97C48.1683 102.898 47.9603 102.8 47.7763 102.676C47.5883 102.548 47.4343 102.382 47.3143 102.178C47.1983 101.974 47.1403 101.708 47.1403 101.38C47.1403 101.104 47.1983 100.858 47.3143 100.642C47.4343 100.422 47.5923 100.236 47.7883 100.084C47.9803 99.932 48.1983 99.816 48.4423 99.736C48.6903 99.656 48.9423 99.616 49.1983 99.616C49.4303 99.616 49.6543 99.65 49.8703 99.718C50.0863 99.782 50.2863 99.876 50.4703 100C50.6543 100.124 50.8223 100.274 50.9743 100.45C51.1303 100.626 51.2643 100.822 51.3763 101.038L50.6083 101.386C50.4683 101.082 50.2683 100.85 50.0083 100.69C49.7523 100.53 49.4703 100.45 49.1623 100.45C49.0263 100.45 48.8923 100.468 48.7603 100.504C48.6323 100.536 48.5163 100.588 48.4123 100.66C48.3083 100.732 48.2243 100.826 48.1603 100.942C48.1003 101.054 48.0703 101.192 48.0703 101.356C48.0703 101.536 48.1103 101.686 48.1903 101.806C48.2703 101.922 48.3783 102.016 48.5143 102.088C48.6503 102.164 48.8063 102.226 48.9823 102.274C49.1623 102.322 49.3483 102.366 49.5403 102.406C49.7803 102.458 50.0183 102.518 50.2543 102.586C50.4943 102.65 50.7083 102.744 50.8963 102.868C51.0883 102.988 51.2443 103.15 51.3643 103.354C51.4843 103.558 51.5443 103.824 51.5443 104.152C51.5443 104.492 51.4803 104.784 51.3523 105.028C51.2243 105.272 51.0543 105.474 50.8423 105.634C50.6343 105.794 50.3943 105.914 50.1223 105.994C49.8503 106.07 49.5683 106.108 49.2763 106.108C48.9963 106.108 48.7323 106.072 48.4843 106C48.2363 105.932 48.0103 105.828 47.8063 105.688C47.6063 105.552 47.4303 105.382 47.2783 105.178C47.1263 104.974 47.0043 104.74 46.9123 104.476L47.6863 104.128ZM54.413 106L52.235 99.724H53.315L55.073 104.956L56.801 99.724H57.833L55.679 106H54.413ZM61.9407 106V100.564H61.0647V99.724H61.9407V99.448C61.9407 99.092 61.9547 98.752 61.9827 98.428C62.0107 98.104 62.0867 97.82 62.2107 97.576C62.3307 97.328 62.5147 97.132 62.7627 96.988C63.0107 96.844 63.3567 96.772 63.8007 96.772C63.9367 96.772 64.0747 96.782 64.2147 96.802C64.3547 96.818 64.4947 96.848 64.6347 96.892L64.3227 97.66C64.2307 97.644 64.1427 97.632 64.0587 97.624C63.9787 97.616 63.9047 97.612 63.8367 97.612C63.6687 97.612 63.5267 97.638 63.4107 97.69C63.2987 97.742 63.2067 97.816 63.1347 97.912C63.0667 98.008 63.0167 98.122 62.9847 98.254C62.9567 98.382 62.9427 98.524 62.9427 98.68V99.724H64.4367V100.564H62.9427V106H61.9407ZM66.0146 106V99.736H67.0106V106H66.0146ZM66.0266 98.392C65.9666 98.332 65.9186 98.262 65.8826 98.182C65.8506 98.098 65.8346 98.01 65.8346 97.918C65.8346 97.826 65.8506 97.74 65.8826 97.66C65.9186 97.58 65.9666 97.51 66.0266 97.45C66.0866 97.39 66.1566 97.344 66.2366 97.312C66.3166 97.276 66.4026 97.258 66.4946 97.258C66.5866 97.258 66.6726 97.276 66.7526 97.312C66.8326 97.344 66.9026 97.39 66.9626 97.45C67.0226 97.51 67.0686 97.58 67.1006 97.66C67.1366 97.74 67.1546 97.826 67.1546 97.918C67.1546 98.01 67.1366 98.098 67.1006 98.182C67.0686 98.262 67.0226 98.332 66.9626 98.392C66.9026 98.448 66.8326 98.494 66.7526 98.53C66.6726 98.566 66.5866 98.584 66.4946 98.584C66.4026 98.584 66.3166 98.566 66.2366 98.53C66.1566 98.494 66.0866 98.448 66.0266 98.392ZM69.1083 106V96.928L70.1163 96.472V106H69.1083ZM72.5383 103.09C72.5383 103.418 72.5863 103.716 72.6823 103.984C72.7783 104.252 72.9163 104.48 73.0963 104.668C73.2763 104.856 73.4903 105.002 73.7383 105.106C73.9903 105.206 74.2683 105.256 74.5723 105.256C74.7403 105.256 74.9063 105.232 75.0703 105.184C75.2383 105.132 75.3983 105.058 75.5503 104.962C75.6983 104.866 75.8343 104.752 75.9583 104.62C76.0823 104.488 76.1863 104.34 76.2703 104.176L77.2063 104.566C77.0783 104.794 76.9163 105.004 76.7203 105.196C76.5283 105.384 76.3163 105.546 76.0843 105.682C75.8483 105.818 75.6003 105.924 75.3403 106C75.0803 106.072 74.8203 106.108 74.5603 106.108C74.1043 106.108 73.6883 106.036 73.3123 105.892C72.9403 105.748 72.6203 105.54 72.3523 105.268C72.0883 104.996 71.8823 104.668 71.7343 104.284C71.5863 103.896 71.5123 103.458 71.5123 102.97V102.538C71.5123 102.102 71.5823 101.706 71.7223 101.35C71.8663 100.99 72.0663 100.682 72.3223 100.426C72.5783 100.17 72.8843 99.972 73.2403 99.832C73.6003 99.688 73.9983 99.616 74.4343 99.616C74.8503 99.616 75.2323 99.686 75.5803 99.826C75.9283 99.966 76.2283 100.166 76.4803 100.426C76.7323 100.682 76.9303 100.99 77.0743 101.35C77.2183 101.706 77.2943 102.1 77.3023 102.532L77.3143 103.09H72.5383ZM76.2703 102.28C76.2623 102.012 76.2103 101.768 76.1143 101.548C76.0223 101.324 75.8963 101.132 75.7363 100.972C75.5723 100.812 75.3803 100.688 75.1603 100.6C74.9403 100.508 74.6983 100.462 74.4343 100.462C74.1903 100.462 73.9623 100.508 73.7503 100.6C73.5423 100.688 73.3563 100.812 73.1923 100.972C73.0283 101.132 72.8923 101.324 72.7843 101.548C72.6803 101.768 72.6103 102.012 72.5743 102.28H76.2703ZM84.7733 106V105.268C84.6613 105.408 84.5333 105.53 84.3893 105.634C84.2453 105.738 84.0913 105.826 83.9273 105.898C83.7593 105.966 83.5853 106.018 83.4053 106.054C83.2253 106.09 83.0453 106.108 82.8653 106.108C82.5613 106.108 82.2833 106.064 82.0313 105.976C81.7793 105.888 81.5653 105.764 81.3893 105.604C81.2093 105.44 81.0693 105.246 80.9693 105.022C80.8733 104.798 80.8253 104.548 80.8253 104.272C80.8253 103.628 81.0893 103.142 81.6173 102.814C82.1493 102.482 82.9293 102.316 83.9573 102.316H84.7733V101.974C84.7733 101.734 84.7413 101.52 84.6773 101.332C84.6133 101.144 84.5213 100.986 84.4013 100.858C84.2853 100.726 84.1433 100.626 83.9753 100.558C83.8073 100.49 83.6193 100.456 83.4113 100.456C83.2313 100.456 83.0593 100.482 82.8953 100.534C82.7313 100.582 82.5793 100.654 82.4393 100.75C82.3033 100.846 82.1833 100.962 82.0793 101.098C81.9793 101.23 81.9013 101.38 81.8453 101.548L80.9753 101.164C81.0833 100.904 81.2213 100.678 81.3893 100.486C81.5573 100.29 81.7473 100.128 81.9593 100C82.1673 99.872 82.3953 99.776 82.6433 99.712C82.8913 99.648 83.1493 99.616 83.4173 99.616C83.7653 99.616 84.0853 99.668 84.3773 99.772C84.6693 99.872 84.9213 100.02 85.1333 100.216C85.3453 100.412 85.5093 100.65 85.6253 100.93C85.7453 101.21 85.8053 101.528 85.8053 101.884V106H84.7733ZM84.7973 103.12H83.9573C83.6373 103.12 83.3473 103.144 83.0873 103.192C82.8273 103.24 82.6073 103.312 82.4273 103.408C82.2433 103.504 82.1013 103.624 82.0013 103.768C81.9053 103.908 81.8573 104.072 81.8573 104.26C81.8573 104.608 81.9473 104.872 82.1273 105.052C82.3113 105.228 82.5873 105.316 82.9553 105.316C83.1753 105.316 83.3913 105.284 83.6033 105.22C83.8153 105.152 84.0073 105.054 84.1793 104.926C84.3513 104.802 84.4913 104.646 84.5993 104.458C84.7073 104.266 84.7653 104.048 84.7733 103.804L84.7973 103.12ZM87.4812 106V99.724H88.4772V100.804C88.7012 100.4 88.9772 100.102 89.3052 99.91C89.6332 99.714 90.0292 99.616 90.4932 99.616V100.558C90.1572 100.57 89.8632 100.614 89.6112 100.69C89.3592 100.762 89.1492 100.878 88.9812 101.038C88.8132 101.194 88.6872 101.396 88.6032 101.644C88.5192 101.892 88.4772 102.196 88.4772 102.556V106H87.4812ZM91.8274 103.09C91.8274 103.418 91.8754 103.716 91.9714 103.984C92.0674 104.252 92.2054 104.48 92.3854 104.668C92.5654 104.856 92.7794 105.002 93.0274 105.106C93.2794 105.206 93.5574 105.256 93.8614 105.256C94.0294 105.256 94.1954 105.232 94.3594 105.184C94.5274 105.132 94.6874 105.058 94.8394 104.962C94.9874 104.866 95.1234 104.752 95.2474 104.62C95.3714 104.488 95.4754 104.34 95.5594 104.176L96.4954 104.566C96.3674 104.794 96.2054 105.004 96.0094 105.196C95.8174 105.384 95.6054 105.546 95.3734 105.682C95.1374 105.818 94.8894 105.924 94.6294 106C94.3694 106.072 94.1094 106.108 93.8494 106.108C93.3934 106.108 92.9774 106.036 92.6014 105.892C92.2294 105.748 91.9094 105.54 91.6414 105.268C91.3774 104.996 91.1714 104.668 91.0234 104.284C90.8754 103.896 90.8014 103.458 90.8014 102.97V102.538C90.8014 102.102 90.8714 101.706 91.0114 101.35C91.1554 100.99 91.3554 100.682 91.6114 100.426C91.8674 100.17 92.1734 99.972 92.5294 99.832C92.8894 99.688 93.2874 99.616 93.7234 99.616C94.1394 99.616 94.5214 99.686 94.8694 99.826C95.2174 99.966 95.5174 100.166 95.7694 100.426C96.0214 100.682 96.2194 100.99 96.3634 101.35C96.5074 101.706 96.5834 102.1 96.5914 102.532L96.6034 103.09H91.8274ZM95.5594 102.28C95.5514 102.012 95.4994 101.768 95.4034 101.548C95.3114 101.324 95.1854 101.132 95.0254 100.972C94.8614 100.812 94.6694 100.688 94.4494 100.6C94.2294 100.508 93.9874 100.462 93.7234 100.462C93.4794 100.462 93.2514 100.508 93.0394 100.6C92.8314 100.688 92.6454 100.812 92.4814 100.972C92.3174 101.132 92.1814 101.324 92.0734 101.548C91.9694 101.768 91.8994 102.012 91.8634 102.28H95.5594ZM100.936 104.128C101.052 104.496 101.246 104.778 101.518 104.974C101.794 105.17 102.114 105.268 102.478 105.268C102.646 105.268 102.81 105.252 102.97 105.22C103.134 105.188 103.28 105.134 103.408 105.058C103.536 104.982 103.64 104.882 103.72 104.758C103.8 104.634 103.84 104.478 103.84 104.29C103.84 104.098 103.798 103.942 103.714 103.822C103.634 103.698 103.526 103.596 103.39 103.516C103.254 103.432 103.096 103.364 102.916 103.312C102.736 103.26 102.55 103.21 102.358 103.162C102.122 103.106 101.886 103.042 101.65 102.97C101.418 102.898 101.21 102.8 101.026 102.676C100.838 102.548 100.684 102.382 100.564 102.178C100.448 101.974 100.39 101.708 100.39 101.38C100.39 101.104 100.448 100.858 100.564 100.642C100.684 100.422 100.842 100.236 101.038 100.084C101.23 99.932 101.448 99.816 101.692 99.736C101.94 99.656 102.192 99.616 102.448 99.616C102.68 99.616 102.904 99.65 103.12 99.718C103.336 99.782 103.536 99.876 103.72 100C103.904 100.124 104.072 100.274 104.224 100.45C104.38 100.626 104.514 100.822 104.626 101.038L103.858 101.386C103.718 101.082 103.518 100.85 103.258 100.69C103.002 100.53 102.72 100.45 102.412 100.45C102.276 100.45 102.142 100.468 102.01 100.504C101.882 100.536 101.766 100.588 101.662 100.66C101.558 100.732 101.474 100.826 101.41 100.942C101.35 101.054 101.32 101.192 101.32 101.356C101.32 101.536 101.36 101.686 101.44 101.806C101.52 101.922 101.628 102.016 101.764 102.088C101.9 102.164 102.056 102.226 102.232 102.274C102.412 102.322 102.598 102.366 102.79 102.406C103.03 102.458 103.268 102.518 103.504 102.586C103.744 102.65 103.958 102.744 104.146 102.868C104.338 102.988 104.494 103.15 104.614 103.354C104.734 103.558 104.794 103.824 104.794 104.152C104.794 104.492 104.73 104.784 104.602 105.028C104.474 105.272 104.304 105.474 104.092 105.634C103.884 105.794 103.644 105.914 103.372 105.994C103.1 106.07 102.818 106.108 102.526 106.108C102.246 106.108 101.982 106.072 101.734 106C101.486 105.932 101.26 105.828 101.056 105.688C100.856 105.552 100.68 105.382 100.528 105.178C100.376 104.974 100.254 104.74 100.162 104.476L100.936 104.128ZM110.46 106V105.052C110.276 105.416 110.016 105.684 109.68 105.856C109.348 106.024 108.984 106.108 108.588 106.108C108.212 106.108 107.88 106.054 107.592 105.946C107.304 105.834 107.062 105.674 106.866 105.466C106.67 105.262 106.522 105.012 106.422 104.716C106.322 104.416 106.272 104.076 106.272 103.696V99.724H107.268V103.648C107.268 104.188 107.402 104.59 107.67 104.854C107.938 105.114 108.33 105.244 108.846 105.244C109.098 105.244 109.324 105.204 109.524 105.124C109.724 105.04 109.894 104.922 110.034 104.77C110.17 104.618 110.274 104.438 110.346 104.23C110.422 104.018 110.46 103.784 110.46 103.528V99.724H111.456V106H110.46ZM113.615 108.184V99.724H114.611V100.744C114.723 100.568 114.861 100.41 115.025 100.27C115.189 100.13 115.369 100.01 115.565 99.91C115.761 99.814 115.963 99.742 116.171 99.694C116.383 99.642 116.589 99.616 116.789 99.616C117.257 99.616 117.665 99.702 118.013 99.874C118.365 100.042 118.657 100.274 118.889 100.57C119.121 100.862 119.295 101.202 119.411 101.59C119.531 101.978 119.591 102.388 119.591 102.82C119.591 103.26 119.531 103.68 119.411 104.08C119.291 104.476 119.113 104.824 118.877 105.124C118.645 105.424 118.357 105.664 118.013 105.844C117.669 106.02 117.273 106.108 116.825 106.108C116.605 106.108 116.387 106.084 116.171 106.036C115.955 105.992 115.751 105.924 115.559 105.832C115.367 105.74 115.189 105.626 115.025 105.49C114.865 105.35 114.727 105.186 114.611 104.998V108.184H113.615ZM115.091 104.59C115.263 104.802 115.477 104.97 115.733 105.094C115.989 105.214 116.291 105.274 116.639 105.274C117.003 105.274 117.307 105.208 117.551 105.076C117.795 104.944 117.993 104.766 118.145 104.542C118.293 104.318 118.399 104.058 118.463 103.762C118.527 103.462 118.559 103.148 118.559 102.82C118.559 102.516 118.519 102.222 118.439 101.938C118.359 101.65 118.239 101.396 118.079 101.176C117.919 100.956 117.717 100.78 117.473 100.648C117.233 100.512 116.951 100.444 116.627 100.444C116.271 100.444 115.963 100.51 115.703 100.642C115.447 100.774 115.235 100.95 115.067 101.17C114.899 101.394 114.775 101.654 114.695 101.95C114.619 102.242 114.581 102.55 114.581 102.874C114.581 103.218 114.623 103.536 114.707 103.828C114.791 104.12 114.919 104.374 115.091 104.59ZM121.103 108.184V99.724H122.099V100.744C122.211 100.568 122.349 100.41 122.513 100.27C122.677 100.13 122.857 100.01 123.053 99.91C123.249 99.814 123.451 99.742 123.659 99.694C123.871 99.642 124.077 99.616 124.277 99.616C124.745 99.616 125.153 99.702 125.501 99.874C125.853 100.042 126.145 100.274 126.377 100.57C126.609 100.862 126.783 101.202 126.899 101.59C127.019 101.978 127.079 102.388 127.079 102.82C127.079 103.26 127.019 103.68 126.899 104.08C126.779 104.476 126.601 104.824 126.365 105.124C126.133 105.424 125.845 105.664 125.501 105.844C125.157 106.02 124.761 106.108 124.313 106.108C124.093 106.108 123.875 106.084 123.659 106.036C123.443 105.992 123.239 105.924 123.047 105.832C122.855 105.74 122.677 105.626 122.513 105.49C122.353 105.35 122.215 105.186 122.099 104.998V108.184H121.103ZM122.579 104.59C122.751 104.802 122.965 104.97 123.221 105.094C123.477 105.214 123.779 105.274 124.127 105.274C124.491 105.274 124.795 105.208 125.039 105.076C125.283 104.944 125.481 104.766 125.633 104.542C125.781 104.318 125.887 104.058 125.951 103.762C126.015 103.462 126.047 103.148 126.047 102.82C126.047 102.516 126.007 102.222 125.927 101.938C125.847 101.65 125.727 101.396 125.567 101.176C125.407 100.956 125.205 100.78 124.961 100.648C124.721 100.512 124.439 100.444 124.115 100.444C123.759 100.444 123.451 100.51 123.191 100.642C122.935 100.774 122.723 100.95 122.555 101.17C122.387 101.394 122.263 101.654 122.183 101.95C122.107 102.242 122.069 102.55 122.069 102.874C122.069 103.218 122.111 103.536 122.195 103.828C122.279 104.12 122.407 104.374 122.579 104.59ZM129.222 105.208C128.95 104.924 128.738 104.584 128.586 104.188C128.438 103.792 128.364 103.354 128.364 102.874C128.364 102.394 128.438 101.954 128.586 101.554C128.738 101.15 128.95 100.806 129.222 100.522C129.494 100.234 129.818 100.012 130.194 99.856C130.57 99.696 130.984 99.616 131.436 99.616C131.892 99.616 132.306 99.694 132.678 99.85C133.054 100.006 133.374 100.226 133.638 100.51C133.906 100.794 134.112 101.136 134.256 101.536C134.404 101.932 134.478 102.37 134.478 102.85C134.478 103.33 134.404 103.77 134.256 104.17C134.112 104.57 133.906 104.914 133.638 105.202C133.374 105.486 133.054 105.708 132.678 105.868C132.306 106.028 131.892 106.108 131.436 106.108C130.984 106.108 130.57 106.03 130.194 105.874C129.818 105.714 129.494 105.492 129.222 105.208ZM129.966 104.59C130.146 104.798 130.36 104.96 130.608 105.076C130.86 105.188 131.136 105.244 131.436 105.244C131.74 105.244 132.014 105.188 132.258 105.076C132.506 104.96 132.718 104.796 132.894 104.584C133.07 104.376 133.206 104.126 133.302 103.834C133.398 103.542 133.446 103.218 133.446 102.862C133.446 102.506 133.398 102.18 133.302 101.884C133.206 101.588 133.07 101.334 132.894 101.122C132.718 100.914 132.506 100.752 132.258 100.636C132.014 100.516 131.74 100.456 131.436 100.456C131.136 100.456 130.86 100.516 130.608 100.636C130.36 100.752 130.146 100.916 129.966 101.128C129.786 101.34 129.646 101.594 129.546 101.89C129.446 102.182 129.396 102.508 129.396 102.868C129.396 103.22 129.446 103.542 129.546 103.834C129.646 104.126 129.786 104.378 129.966 104.59ZM135.774 106V99.724H136.77V100.804C136.994 100.4 137.27 100.102 137.598 99.91C137.926 99.714 138.322 99.616 138.786 99.616V100.558C138.45 100.57 138.156 100.614 137.904 100.69C137.652 100.762 137.442 100.878 137.274 101.038C137.106 101.194 136.98 101.396 136.896 101.644C136.812 101.892 136.77 102.196 136.77 102.556V106H135.774ZM142.9 105.976C142.628 106.064 142.344 106.108 142.048 106.108C141.508 106.108 141.096 105.974 140.812 105.706C140.532 105.434 140.392 105.016 140.392 104.452V100.564H139.516V99.724H140.392V98.548L141.394 98.104V99.724H142.822V100.564H141.394V104.356C141.394 104.488 141.406 104.61 141.43 104.722C141.458 104.834 141.502 104.93 141.562 105.01C141.622 105.09 141.702 105.154 141.802 105.202C141.902 105.246 142.028 105.268 142.18 105.268C142.4 105.268 142.64 105.222 142.9 105.13V105.976ZM144.972 103.09C144.972 103.418 145.02 103.716 145.116 103.984C145.212 104.252 145.35 104.48 145.53 104.668C145.71 104.856 145.924 105.002 146.172 105.106C146.424 105.206 146.702 105.256 147.006 105.256C147.174 105.256 147.34 105.232 147.504 105.184C147.672 105.132 147.832 105.058 147.984 104.962C148.132 104.866 148.268 104.752 148.392 104.62C148.516 104.488 148.62 104.34 148.704 104.176L149.64 104.566C149.512 104.794 149.35 105.004 149.154 105.196C148.962 105.384 148.75 105.546 148.518 105.682C148.282 105.818 148.034 105.924 147.774 106C147.514 106.072 147.254 106.108 146.994 106.108C146.538 106.108 146.122 106.036 145.746 105.892C145.374 105.748 145.054 105.54 144.786 105.268C144.522 104.996 144.316 104.668 144.168 104.284C144.02 103.896 143.946 103.458 143.946 102.97V102.538C143.946 102.102 144.016 101.706 144.156 101.35C144.3 100.99 144.5 100.682 144.756 100.426C145.012 100.17 145.318 99.972 145.674 99.832C146.034 99.688 146.432 99.616 146.868 99.616C147.284 99.616 147.666 99.686 148.014 99.826C148.362 99.966 148.662 100.166 148.914 100.426C149.166 100.682 149.364 100.99 149.508 101.35C149.652 101.706 149.728 102.1 149.736 102.532L149.748 103.09H144.972ZM148.704 102.28C148.696 102.012 148.644 101.768 148.548 101.548C148.456 101.324 148.33 101.132 148.17 100.972C148.006 100.812 147.814 100.688 147.594 100.6C147.374 100.508 147.132 100.462 146.868 100.462C146.624 100.462 146.396 100.508 146.184 100.6C145.976 100.688 145.79 100.812 145.626 100.972C145.462 101.132 145.326 101.324 145.218 101.548C145.114 101.768 145.044 102.012 145.008 102.28H148.704ZM155.656 106V104.95C155.54 105.126 155.398 105.286 155.23 105.43C155.066 105.57 154.886 105.69 154.69 105.79C154.494 105.89 154.29 105.968 154.078 106.024C153.866 106.08 153.656 106.108 153.448 106.108C152.984 106.108 152.578 106.024 152.23 105.856C151.886 105.684 151.598 105.452 151.366 105.16C151.134 104.868 150.96 104.528 150.844 104.14C150.732 103.748 150.676 103.33 150.676 102.886C150.676 102.454 150.74 102.04 150.868 101.644C150.996 101.248 151.182 100.9 151.426 100.6C151.67 100.3 151.968 100.062 152.32 99.886C152.676 99.706 153.08 99.616 153.532 99.616C153.744 99.616 153.952 99.638 154.156 99.682C154.364 99.726 154.558 99.792 154.738 99.88C154.922 99.968 155.092 100.08 155.248 100.216C155.404 100.352 155.54 100.512 155.656 100.696V96.88H156.652V106H155.656ZM152.164 104.554C152.32 104.77 152.516 104.944 152.752 105.076C152.992 105.208 153.272 105.274 153.592 105.274C153.952 105.274 154.262 105.21 154.522 105.082C154.786 104.954 155.006 104.778 155.182 104.554C155.354 104.33 155.482 104.068 155.566 103.768C155.65 103.468 155.692 103.146 155.692 102.802C155.692 102.47 155.652 102.16 155.572 101.872C155.492 101.584 155.372 101.334 155.212 101.122C155.048 100.914 154.84 100.75 154.588 100.63C154.336 100.506 154.036 100.444 153.688 100.444C153.32 100.444 153.01 100.512 152.758 100.648C152.506 100.784 152.302 100.966 152.146 101.194C151.99 101.422 151.878 101.686 151.81 101.986C151.742 102.286 151.708 102.602 151.708 102.934C151.708 103.234 151.746 103.524 151.822 103.804C151.898 104.084 152.012 104.334 152.164 104.554Z" fill="url(#paint1_linear_205_7043)"/>
<defs>
<linearGradient id="paint0_linear_205_7043" x1="358" y1="61" x2="287" y2="61" gradientUnits="userSpaceOnUse">
<stop stop-color="#006AFF"/>
<stop offset="1" stop-color="#1E52BB"/>
</linearGradient>
<linearGradient id="paint1_linear_205_7043" x1="506" y1="110" x2="7.99999" y2="110" gradientUnits="userSpaceOnUse">
<stop stop-color="#006AFF"/>
<stop offset="1" stop-color="#1E52BB"/>
</linearGradient>
</defs>
</svg>
