<svg width="366" height="96" viewBox="0 0 366 96" fill="none" xmlns="http://www.w3.org/2000/svg">
<g filter="url(#filter0_d_205_2797)">
<g clip-path="url(#clip0_205_2797)">
<path d="M8 14C8 9.58172 11.5817 6 16 6H350C354.418 6 358 9.58172 358 14V78C358 82.4183 354.418 86 350 86H16C11.5817 86 8 82.4183 8 78V14Z" fill="#F9FAFB"/>
<g clip-path="url(#clip1_205_2797)">
<path d="M24.3618 33L27.4849 23.707H29.3955L32.5186 33H31.0459L30.2778 30.6577H26.5073L25.7329 33H24.3618ZM26.8628 29.5532H29.916L28.3926 24.9004L26.8628 29.5532ZM38.79 33V31.8447C38.68 32.0436 38.5361 32.2235 38.3584 32.3843C38.1807 32.5409 37.9839 32.6742 37.7681 32.7842C37.5522 32.8942 37.328 32.9788 37.0952 33.0381C36.8625 33.0973 36.634 33.127 36.4097 33.127C35.8934 33.127 35.4427 33.0339 35.0576 32.8477C34.6768 32.6615 34.3615 32.4097 34.1118 32.0923C33.8579 31.7749 33.6675 31.4046 33.5405 30.9814C33.4178 30.554 33.3564 30.1012 33.3564 29.623C33.3564 29.1533 33.4242 28.7048 33.5596 28.2773C33.6992 27.8457 33.9023 27.4648 34.1689 27.1348C34.4313 26.8089 34.755 26.5487 35.1401 26.354C35.5295 26.1593 35.9717 26.062 36.4668 26.062C36.7038 26.062 36.9344 26.0853 37.1587 26.1318C37.3872 26.1784 37.603 26.2524 37.8062 26.354C38.005 26.4513 38.1891 26.5783 38.3584 26.7349C38.5277 26.8872 38.6715 27.0671 38.79 27.2744V22.9961H40.1421V33H38.79ZM35.2163 31.3115C35.3729 31.5316 35.5739 31.7072 35.8193 31.8384C36.0648 31.9696 36.3568 32.0352 36.6953 32.0352C37.0719 32.0352 37.3936 31.9696 37.6602 31.8384C37.931 31.7072 38.1553 31.5295 38.333 31.3052C38.5065 31.0809 38.6335 30.8164 38.7139 30.5117C38.7985 30.207 38.8408 29.8833 38.8408 29.5405C38.8408 29.2062 38.8006 28.8952 38.7202 28.6074C38.644 28.3154 38.5234 28.0615 38.3584 27.8457C38.1891 27.6299 37.9754 27.4606 37.7173 27.3379C37.4591 27.2152 37.1502 27.1538 36.7905 27.1538C36.4097 27.1538 36.0881 27.2236 35.8257 27.3633C35.5633 27.4987 35.3538 27.6828 35.1973 27.9155C35.0365 28.144 34.9201 28.4106 34.8481 28.7153C34.7804 29.02 34.7466 29.3395 34.7466 29.6738C34.7466 29.9785 34.7847 30.2747 34.8608 30.5625C34.937 30.846 35.0555 31.0957 35.2163 31.3115ZM42.1543 33V26.1953H43.5063V27.2363C43.701 26.8385 43.9676 26.5444 44.3062 26.354C44.6489 26.1593 45.0361 26.062 45.4678 26.062C45.6836 26.062 45.8994 26.0874 46.1152 26.1382C46.3311 26.189 46.5342 26.2651 46.7246 26.3667C46.9108 26.4683 47.078 26.5973 47.2261 26.7539C47.3742 26.9105 47.4906 27.0967 47.5752 27.3125C47.6895 27.1094 47.827 26.9295 47.9878 26.7729C48.1528 26.6164 48.3348 26.4852 48.5337 26.3794C48.7326 26.2778 48.9442 26.1995 49.1685 26.1445C49.397 26.0895 49.6318 26.062 49.873 26.062C50.2624 26.062 50.603 26.1297 50.895 26.2651C51.1912 26.4006 51.4388 26.5868 51.6377 26.8237C51.8324 27.0649 51.9784 27.3485 52.0757 27.6743C52.1772 27.9959 52.228 28.3472 52.228 28.728V33H50.876V28.7534C50.876 28.2625 50.7575 27.8838 50.5205 27.6172C50.2835 27.3464 49.9111 27.2109 49.4033 27.2109C49.1579 27.2109 48.9378 27.2554 48.7432 27.3442C48.5527 27.4289 48.3919 27.5452 48.2607 27.6934C48.1296 27.8457 48.0301 28.0234 47.9624 28.2266C47.8947 28.4297 47.8608 28.6497 47.8608 28.8867V33H46.5088V28.7534C46.5088 28.2668 46.3903 27.888 46.1533 27.6172C45.9206 27.3464 45.5693 27.2109 45.0996 27.2109C44.8372 27.2109 44.6066 27.2554 44.4077 27.3442C44.2088 27.4289 44.0438 27.5452 43.9126 27.6934C43.7772 27.8457 43.6756 28.0234 43.6079 28.2266C43.5402 28.4297 43.5063 28.6497 43.5063 28.8867V33H42.1543ZM54.2148 33V26.2144H55.5542V33H54.2148ZM54.2783 24.8179C54.2021 24.7459 54.1408 24.6613 54.0942 24.564C54.0519 24.4624 54.0308 24.3545 54.0308 24.2402C54.0308 24.126 54.0519 24.0202 54.0942 23.9229C54.1408 23.8213 54.2021 23.7324 54.2783 23.6562C54.3545 23.5843 54.4434 23.5272 54.5449 23.4849C54.6465 23.4425 54.7544 23.4214 54.8687 23.4214C54.9829 23.4214 55.0908 23.4425 55.1924 23.4849C55.2939 23.5229 55.3828 23.5801 55.459 23.6562C55.5352 23.7282 55.5944 23.8149 55.6367 23.9165C55.6833 24.0138 55.7065 24.1217 55.7065 24.2402C55.7065 24.3545 55.6833 24.4624 55.6367 24.564C55.5944 24.6613 55.5352 24.7459 55.459 24.8179C55.3828 24.894 55.2939 24.9533 55.1924 24.9956C55.0908 25.0379 54.9829 25.0591 54.8687 25.0591C54.7544 25.0591 54.6465 25.0379 54.5449 24.9956C54.4434 24.9533 54.3545 24.894 54.2783 24.8179ZM57.6172 33V26.1953H58.9692V27.2744C59.0708 27.0628 59.1999 26.8809 59.3564 26.7285C59.5173 26.5762 59.695 26.4513 59.8896 26.354C60.0843 26.2567 60.2938 26.1847 60.5181 26.1382C60.7424 26.0916 60.9688 26.0684 61.1973 26.0684C61.612 26.0684 61.9696 26.1382 62.27 26.2778C62.5747 26.4175 62.8286 26.6079 63.0317 26.8491C63.2306 27.0946 63.3787 27.3844 63.4761 27.7188C63.5734 28.0531 63.6221 28.417 63.6221 28.8105V33H62.27V28.8486C62.27 28.3239 62.1431 27.9198 61.8892 27.6362C61.6395 27.3485 61.2544 27.2046 60.7339 27.2046C60.4588 27.2046 60.2113 27.2448 59.9912 27.3252C59.7754 27.4056 59.5913 27.5199 59.439 27.668C59.2866 27.8203 59.1702 28.0044 59.0898 28.2202C59.0094 28.4318 58.9692 28.6709 58.9692 28.9375V33H57.6172ZM76.165 30.3975C76.0127 30.8164 75.8053 31.1951 75.543 31.5337C75.2848 31.8722 74.9844 32.1579 74.6416 32.3906C74.2988 32.6276 73.9222 32.8096 73.5117 32.9365C73.1055 33.0635 72.6802 33.127 72.2358 33.127C71.4995 33.127 70.8499 33.0106 70.2871 32.7778C69.7243 32.5409 69.2524 32.2087 68.8716 31.7812C68.4907 31.3581 68.2008 30.8524 68.002 30.2642C67.8073 29.6717 67.71 29.02 67.71 28.3091C67.71 27.8732 67.7565 27.4543 67.8496 27.0522C67.9469 26.6502 68.0845 26.2736 68.2622 25.9224C68.4442 25.5711 68.6642 25.2516 68.9224 24.9639C69.1805 24.6761 69.4725 24.4285 69.7983 24.2212C70.1242 24.0138 70.4818 23.8551 70.8711 23.7451C71.2646 23.6309 71.6815 23.5737 72.1216 23.5737C72.5575 23.5737 72.9785 23.6309 73.3848 23.7451C73.791 23.8551 74.1655 24.0181 74.5083 24.2339C74.8511 24.4497 75.1558 24.7163 75.4224 25.0337C75.689 25.3468 75.9006 25.7065 76.0571 26.1128L74.8765 26.627C74.7622 26.3434 74.6183 26.0853 74.4448 25.8525C74.2713 25.6198 74.0724 25.4188 73.8481 25.2495C73.6239 25.0802 73.3742 24.9512 73.0991 24.8623C72.8283 24.7734 72.5363 24.729 72.2231 24.729C71.6984 24.729 71.2477 24.8327 70.8711 25.04C70.4945 25.2432 70.1834 25.514 69.938 25.8525C69.6925 26.1911 69.5127 26.5783 69.3984 27.0142C69.2884 27.45 69.2334 27.8965 69.2334 28.3535C69.2334 28.8359 69.2948 29.2951 69.4175 29.731C69.5444 30.1668 69.7349 30.5477 69.9888 30.8735C70.2384 31.2036 70.5537 31.466 70.9346 31.6606C71.3197 31.8511 71.7703 31.9463 72.2866 31.9463C72.6082 31.9463 72.9108 31.8955 73.1943 31.7939C73.4779 31.6882 73.7381 31.5443 73.9751 31.3623C74.2078 31.1803 74.4131 30.9645 74.5908 30.7148C74.7686 30.4609 74.9103 30.188 75.0161 29.896L76.165 30.3975ZM78.0693 32.105C77.7731 31.7876 77.5446 31.411 77.3838 30.9751C77.223 30.535 77.1426 30.0589 77.1426 29.5469C77.1426 29.0475 77.2272 28.5863 77.3965 28.1631C77.57 27.7357 77.8112 27.3675 78.1201 27.0586C78.4248 26.7454 78.7909 26.5021 79.2183 26.3286C79.6457 26.1509 80.1133 26.062 80.6211 26.062C81.1374 26.062 81.605 26.153 82.0239 26.335C82.4429 26.5127 82.8005 26.7603 83.0967 27.0776C83.3971 27.3908 83.6278 27.7632 83.7886 28.1948C83.9494 28.6222 84.0298 29.0856 84.0298 29.585C84.0298 30.1012 83.943 30.5773 83.7695 31.0132C83.6003 31.4448 83.3612 31.8172 83.0522 32.1304C82.7433 32.4435 82.3752 32.689 81.9478 32.8667C81.5203 33.0402 81.0527 33.127 80.5449 33.127C80.0286 33.127 79.561 33.0381 79.1421 32.8604C78.7231 32.6784 78.3656 32.4266 78.0693 32.105ZM79.0215 31.3369C79.1908 31.557 79.4045 31.7305 79.6626 31.8574C79.925 31.9844 80.2339 32.0479 80.5894 32.0479C80.9575 32.0479 81.2707 31.9801 81.5288 31.8447C81.7912 31.7093 82.0049 31.5295 82.1699 31.3052C82.335 31.0809 82.4556 30.8206 82.5317 30.5244C82.6121 30.2282 82.6523 29.9214 82.6523 29.604C82.6523 29.2739 82.61 28.9608 82.5254 28.6646C82.445 28.3641 82.3201 28.1017 82.1509 27.8774C81.9774 27.6489 81.7594 27.4691 81.4971 27.3379C81.2347 27.2067 80.9237 27.1411 80.564 27.1411C80.1958 27.1411 79.8826 27.2088 79.6245 27.3442C79.3664 27.4797 79.1548 27.6595 78.9897 27.8838C78.8289 28.1123 78.7104 28.3747 78.6343 28.6709C78.5581 28.9671 78.52 29.276 78.52 29.5977C78.52 29.9404 78.5602 30.2599 78.6406 30.5562C78.7253 30.8524 78.8522 31.1126 79.0215 31.3369ZM85.5723 33V26.1953H86.9243V27.2744C87.0259 27.0628 87.1549 26.8809 87.3115 26.7285C87.4723 26.5762 87.6501 26.4513 87.8447 26.354C88.0394 26.2567 88.2489 26.1847 88.4731 26.1382C88.6974 26.0916 88.9238 26.0684 89.1523 26.0684C89.5671 26.0684 89.9246 26.1382 90.2251 26.2778C90.5298 26.4175 90.7837 26.6079 90.9868 26.8491C91.1857 27.0946 91.3338 27.3844 91.4312 27.7188C91.5285 28.0531 91.5771 28.417 91.5771 28.8105V33H90.2251V28.8486C90.2251 28.3239 90.0981 27.9198 89.8442 27.6362C89.5946 27.3485 89.2095 27.2046 88.689 27.2046C88.4139 27.2046 88.1663 27.2448 87.9463 27.3252C87.7305 27.4056 87.5464 27.5199 87.394 27.668C87.2417 27.8203 87.1253 28.0044 87.0449 28.2202C86.9645 28.4318 86.9243 28.6709 86.9243 28.9375V33H85.5723ZM96.7441 32.9492C96.4225 33.0508 96.084 33.1016 95.7285 33.1016C95.0938 33.1016 94.6113 32.945 94.2812 32.6318C93.9554 32.3187 93.7925 31.8384 93.7925 31.1909V27.249H92.8403V26.1953H93.7925V24.856L95.1318 24.272V26.1953H96.6616V27.249H95.1318V31.064C95.1318 31.1994 95.1466 31.3242 95.1763 31.4385C95.2059 31.5527 95.2546 31.6522 95.3223 31.7368C95.3857 31.8172 95.4725 31.8807 95.5825 31.9272C95.6925 31.9738 95.8258 31.9971 95.9824 31.9971C96.0967 31.9971 96.2173 31.9865 96.3442 31.9653C96.4754 31.9399 96.6087 31.904 96.7441 31.8574V32.9492ZM98.2422 33V26.1953H99.5942V27.4458C99.8354 26.9761 100.134 26.6312 100.489 26.4111C100.849 26.1868 101.291 26.0747 101.816 26.0747V27.3379C101.469 27.3506 101.158 27.3929 100.883 27.4648C100.608 27.5368 100.375 27.651 100.185 27.8076C99.9941 27.9642 99.8481 28.1694 99.7466 28.4233C99.645 28.6772 99.5942 28.9925 99.5942 29.3691V33H98.2422ZM103.447 32.105C103.151 31.7876 102.923 31.411 102.762 30.9751C102.601 30.535 102.521 30.0589 102.521 29.5469C102.521 29.0475 102.605 28.5863 102.774 28.1631C102.948 27.7357 103.189 27.3675 103.498 27.0586C103.803 26.7454 104.169 26.5021 104.596 26.3286C105.024 26.1509 105.491 26.062 105.999 26.062C106.515 26.062 106.983 26.153 107.402 26.335C107.821 26.5127 108.178 26.7603 108.475 27.0776C108.775 27.3908 109.006 27.7632 109.167 28.1948C109.327 28.6222 109.408 29.0856 109.408 29.585C109.408 30.1012 109.321 30.5773 109.147 31.0132C108.978 31.4448 108.739 31.8172 108.43 32.1304C108.121 32.4435 107.753 32.689 107.326 32.8667C106.898 33.0402 106.431 33.127 105.923 33.127C105.407 33.127 104.939 33.0381 104.52 32.8604C104.101 32.6784 103.743 32.4266 103.447 32.105ZM104.399 31.3369C104.569 31.557 104.782 31.7305 105.041 31.8574C105.303 31.9844 105.612 32.0479 105.967 32.0479C106.335 32.0479 106.649 31.9801 106.907 31.8447C107.169 31.7093 107.383 31.5295 107.548 31.3052C107.713 31.0809 107.833 30.8206 107.91 30.5244C107.99 30.2282 108.03 29.9214 108.03 29.604C108.03 29.2739 107.988 28.9608 107.903 28.6646C107.823 28.3641 107.698 28.1017 107.529 27.8774C107.355 27.6489 107.137 27.4691 106.875 27.3379C106.613 27.2067 106.302 27.1411 105.942 27.1411C105.574 27.1411 105.261 27.2088 105.002 27.3442C104.744 27.4797 104.533 27.6595 104.368 27.8838C104.207 28.1123 104.088 28.3747 104.012 28.6709C103.936 28.9671 103.898 29.276 103.898 29.5977C103.898 29.9404 103.938 30.2599 104.019 30.5562C104.103 30.8524 104.23 31.1126 104.399 31.3369ZM111.071 33V23.5991L112.423 23.0024V33H111.071Z" fill="#15181E"/>
<path d="M25.014 45.42H26.058V50.748C26.058 51.116 26.086 51.454 26.142 51.762C26.202 52.066 26.308 52.328 26.46 52.548C26.612 52.768 26.82 52.94 27.084 53.064C27.348 53.184 27.686 53.244 28.098 53.244C28.522 53.244 28.868 53.18 29.136 53.052C29.408 52.924 29.62 52.744 29.772 52.512C29.928 52.276 30.034 51.996 30.09 51.672C30.15 51.348 30.18 50.988 30.18 50.592V45.42H31.224V50.736C31.224 51.268 31.156 51.744 31.02 52.164C30.888 52.58 30.69 52.932 30.426 53.22C30.162 53.508 29.83 53.728 29.43 53.88C29.034 54.032 28.568 54.108 28.032 54.108C27.536 54.108 27.098 54.032 26.718 53.88C26.342 53.724 26.028 53.506 25.776 53.226C25.524 52.942 25.334 52.602 25.206 52.206C25.078 51.806 25.014 51.36 25.014 50.868V45.42ZM33.2879 52.128C33.4039 52.496 33.5979 52.778 33.8699 52.974C34.1459 53.17 34.4659 53.268 34.8299 53.268C34.9979 53.268 35.1619 53.252 35.3219 53.22C35.4859 53.188 35.6319 53.134 35.7599 53.058C35.8879 52.982 35.9919 52.882 36.0719 52.758C36.1519 52.634 36.1919 52.478 36.1919 52.29C36.1919 52.098 36.1499 51.942 36.0659 51.822C35.9859 51.698 35.8779 51.596 35.7419 51.516C35.6059 51.432 35.4479 51.364 35.2679 51.312C35.0879 51.26 34.9019 51.21 34.7099 51.162C34.4739 51.106 34.2379 51.042 34.0019 50.97C33.7699 50.898 33.5619 50.8 33.3779 50.676C33.1899 50.548 33.0359 50.382 32.9159 50.178C32.7999 49.974 32.7419 49.708 32.7419 49.38C32.7419 49.104 32.7999 48.858 32.9159 48.642C33.0359 48.422 33.1939 48.236 33.3899 48.084C33.5819 47.932 33.7999 47.816 34.0439 47.736C34.2919 47.656 34.5439 47.616 34.7999 47.616C35.0319 47.616 35.2559 47.65 35.4719 47.718C35.6879 47.782 35.8879 47.876 36.0719 48C36.2559 48.124 36.4239 48.274 36.5759 48.45C36.7319 48.626 36.8659 48.822 36.9779 49.038L36.2099 49.386C36.0699 49.082 35.8699 48.85 35.6099 48.69C35.3539 48.53 35.0719 48.45 34.7639 48.45C34.6279 48.45 34.4939 48.468 34.3619 48.504C34.2339 48.536 34.1179 48.588 34.0139 48.66C33.9099 48.732 33.8259 48.826 33.7619 48.942C33.7019 49.054 33.6719 49.192 33.6719 49.356C33.6719 49.536 33.7119 49.686 33.7919 49.806C33.8719 49.922 33.9799 50.016 34.1159 50.088C34.2519 50.164 34.4079 50.226 34.5839 50.274C34.7639 50.322 34.9499 50.366 35.1419 50.406C35.3819 50.458 35.6199 50.518 35.8559 50.586C36.0959 50.65 36.3099 50.744 36.4979 50.868C36.6899 50.988 36.8459 51.15 36.9659 51.354C37.0859 51.558 37.1459 51.824 37.1459 52.152C37.1459 52.492 37.0819 52.784 36.9539 53.028C36.8259 53.272 36.6559 53.474 36.4439 53.634C36.2359 53.794 35.9959 53.914 35.7239 53.994C35.4519 54.07 35.1699 54.108 34.8779 54.108C34.5979 54.108 34.3339 54.072 34.0859 54C33.8379 53.932 33.6119 53.828 33.4079 53.688C33.2079 53.552 33.0319 53.382 32.8799 53.178C32.7279 52.974 32.6059 52.74 32.5139 52.476L33.2879 52.128ZM39.0149 51.09C39.0149 51.418 39.0629 51.716 39.1589 51.984C39.2549 52.252 39.3929 52.48 39.5729 52.668C39.7529 52.856 39.9669 53.002 40.2149 53.106C40.4669 53.206 40.7449 53.256 41.0489 53.256C41.2169 53.256 41.3829 53.232 41.5469 53.184C41.7149 53.132 41.8749 53.058 42.0269 52.962C42.1749 52.866 42.3109 52.752 42.4349 52.62C42.5589 52.488 42.6629 52.34 42.7469 52.176L43.6829 52.566C43.5549 52.794 43.3929 53.004 43.1969 53.196C43.0049 53.384 42.7929 53.546 42.5609 53.682C42.3249 53.818 42.0769 53.924 41.8169 54C41.5569 54.072 41.2969 54.108 41.0369 54.108C40.5809 54.108 40.1649 54.036 39.7889 53.892C39.4169 53.748 39.0969 53.54 38.8289 53.268C38.5649 52.996 38.3589 52.668 38.2109 52.284C38.0629 51.896 37.9889 51.458 37.9889 50.97V50.538C37.9889 50.102 38.0589 49.706 38.1989 49.35C38.3429 48.99 38.5429 48.682 38.7989 48.426C39.0549 48.17 39.3609 47.972 39.7169 47.832C40.0769 47.688 40.4749 47.616 40.9109 47.616C41.3269 47.616 41.7089 47.686 42.0569 47.826C42.4049 47.966 42.7049 48.166 42.9569 48.426C43.2089 48.682 43.4069 48.99 43.5509 49.35C43.6949 49.706 43.7709 50.1 43.7789 50.532L43.7909 51.09H39.0149ZM42.7469 50.28C42.7389 50.012 42.6869 49.768 42.5909 49.548C42.4989 49.324 42.3729 49.132 42.2129 48.972C42.0489 48.812 41.8569 48.688 41.6369 48.6C41.4169 48.508 41.1749 48.462 40.9109 48.462C40.6669 48.462 40.4389 48.508 40.2269 48.6C40.0189 48.688 39.8329 48.812 39.6689 48.972C39.5049 49.132 39.3689 49.324 39.2609 49.548C39.1569 49.768 39.0869 50.012 39.0509 50.28H42.7469ZM49.2578 50.82H52.2278L50.7398 46.41L49.2578 50.82ZM47.2298 54L50.1038 45.42H51.3818L54.3038 54H53.2658L52.4978 51.648H48.9878L48.2138 54H47.2298ZM60.1171 54V52.95C60.0011 53.126 59.8591 53.286 59.6911 53.43C59.5271 53.57 59.3471 53.69 59.1511 53.79C58.9551 53.89 58.7511 53.968 58.5391 54.024C58.3271 54.08 58.1171 54.108 57.9091 54.108C57.4451 54.108 57.0391 54.024 56.6911 53.856C56.3471 53.684 56.0591 53.452 55.8271 53.16C55.5951 52.868 55.4211 52.528 55.3051 52.14C55.1931 51.748 55.1371 51.33 55.1371 50.886C55.1371 50.454 55.2011 50.04 55.3291 49.644C55.4571 49.248 55.6431 48.9 55.8871 48.6C56.1311 48.3 56.4291 48.062 56.7811 47.886C57.1371 47.706 57.5411 47.616 57.9931 47.616C58.2051 47.616 58.4131 47.638 58.6171 47.682C58.8251 47.726 59.0191 47.792 59.1991 47.88C59.3831 47.968 59.5531 48.08 59.7091 48.216C59.8651 48.352 60.0011 48.512 60.1171 48.696V44.88H61.1131V54H60.1171ZM56.6251 52.554C56.7811 52.77 56.9771 52.944 57.2131 53.076C57.4531 53.208 57.7331 53.274 58.0531 53.274C58.4131 53.274 58.7231 53.21 58.9831 53.082C59.2471 52.954 59.4671 52.778 59.6431 52.554C59.8151 52.33 59.9431 52.068 60.0271 51.768C60.1111 51.468 60.1531 51.146 60.1531 50.802C60.1531 50.47 60.1131 50.16 60.0331 49.872C59.9531 49.584 59.8331 49.334 59.6731 49.122C59.5091 48.914 59.3011 48.75 59.0491 48.63C58.7971 48.506 58.4971 48.444 58.1491 48.444C57.7811 48.444 57.4711 48.512 57.2191 48.648C56.9671 48.784 56.7631 48.966 56.6071 49.194C56.4511 49.422 56.3391 49.686 56.2711 49.986C56.2031 50.286 56.1691 50.602 56.1691 50.934C56.1691 51.234 56.2071 51.524 56.2831 51.804C56.3591 52.084 56.4731 52.334 56.6251 52.554ZM63.0934 54V47.724H64.0894V48.636C64.2534 48.28 64.4814 48.022 64.7734 47.862C65.0694 47.698 65.4054 47.616 65.7814 47.616C65.9814 47.616 66.1814 47.64 66.3814 47.688C66.5854 47.732 66.7754 47.802 66.9514 47.898C67.1274 47.994 67.2854 48.114 67.4254 48.258C67.5694 48.402 67.6794 48.572 67.7554 48.768C67.9554 48.38 68.2294 48.092 68.5774 47.904C68.9294 47.712 69.3254 47.616 69.7654 47.616C70.1254 47.616 70.4434 47.68 70.7194 47.808C70.9954 47.932 71.2274 48.106 71.4154 48.33C71.5994 48.55 71.7394 48.814 71.8354 49.122C71.9354 49.426 71.9854 49.756 71.9854 50.112V54H70.9894V50.04C70.9894 49.532 70.8694 49.146 70.6294 48.882C70.3894 48.614 70.0214 48.48 69.5254 48.48C69.2894 48.48 69.0794 48.526 68.8954 48.618C68.7114 48.706 68.5554 48.826 68.4274 48.978C68.3034 49.13 68.2074 49.308 68.1394 49.512C68.0714 49.716 68.0374 49.932 68.0374 50.16V54H67.0414V50.04C67.0414 49.532 66.9214 49.146 66.6814 48.882C66.4454 48.614 66.0774 48.48 65.5774 48.48C65.3454 48.48 65.1374 48.526 64.9534 48.618C64.7694 48.706 64.6134 48.826 64.4854 48.978C64.3574 49.13 64.2594 49.308 64.1914 49.512C64.1234 49.716 64.0894 49.932 64.0894 50.16V54H63.0934ZM73.9638 54V47.736H74.9598V54H73.9638ZM73.9758 46.392C73.9158 46.332 73.8678 46.262 73.8318 46.182C73.7998 46.098 73.7838 46.01 73.7838 45.918C73.7838 45.826 73.7998 45.74 73.8318 45.66C73.8678 45.58 73.9158 45.51 73.9758 45.45C74.0358 45.39 74.1058 45.344 74.1858 45.312C74.2658 45.276 74.3518 45.258 74.4438 45.258C74.5358 45.258 74.6218 45.276 74.7018 45.312C74.7818 45.344 74.8518 45.39 74.9118 45.45C74.9718 45.51 75.0178 45.58 75.0498 45.66C75.0858 45.74 75.1038 45.826 75.1038 45.918C75.1038 46.01 75.0858 46.098 75.0498 46.182C75.0178 46.262 74.9718 46.332 74.9118 46.392C74.8518 46.448 74.7818 46.494 74.7018 46.53C74.6218 46.566 74.5358 46.584 74.4438 46.584C74.3518 46.584 74.2658 46.566 74.1858 46.53C74.1058 46.494 74.0358 46.448 73.9758 46.392ZM77.0035 54V47.724H77.9995V48.678C78.0995 48.494 78.2195 48.336 78.3595 48.204C78.4995 48.068 78.6555 47.956 78.8275 47.868C78.9995 47.78 79.1835 47.716 79.3795 47.676C79.5755 47.636 79.7755 47.616 79.9795 47.616C80.3635 47.616 80.6975 47.682 80.9815 47.814C81.2655 47.942 81.4995 48.122 81.6835 48.354C81.8715 48.586 82.0115 48.86 82.1035 49.176C82.1955 49.492 82.2415 49.836 82.2415 50.208V54H81.2395V50.136C81.2395 49.604 81.1155 49.196 80.8675 48.912C80.6235 48.624 80.2515 48.48 79.7515 48.48C79.4875 48.48 79.2475 48.52 79.0315 48.6C78.8155 48.68 78.6315 48.794 78.4795 48.942C78.3275 49.09 78.2095 49.27 78.1255 49.482C78.0415 49.694 77.9995 49.932 77.9995 50.196V54H77.0035ZM84.2177 54V47.736H85.2137V54H84.2177ZM84.2297 46.392C84.1697 46.332 84.1217 46.262 84.0857 46.182C84.0537 46.098 84.0377 46.01 84.0377 45.918C84.0377 45.826 84.0537 45.74 84.0857 45.66C84.1217 45.58 84.1697 45.51 84.2297 45.45C84.2897 45.39 84.3597 45.344 84.4397 45.312C84.5197 45.276 84.6057 45.258 84.6977 45.258C84.7897 45.258 84.8757 45.276 84.9557 45.312C85.0357 45.344 85.1057 45.39 85.1657 45.45C85.2257 45.51 85.2717 45.58 85.3037 45.66C85.3397 45.74 85.3577 45.826 85.3577 45.918C85.3577 46.01 85.3397 46.098 85.3037 46.182C85.2717 46.262 85.2257 46.332 85.1657 46.392C85.1057 46.448 85.0357 46.494 84.9557 46.53C84.8757 46.566 84.7897 46.584 84.6977 46.584C84.6057 46.584 84.5197 46.566 84.4397 46.53C84.3597 46.494 84.2897 46.448 84.2297 46.392ZM87.5574 52.128C87.6734 52.496 87.8674 52.778 88.1394 52.974C88.4154 53.17 88.7354 53.268 89.0994 53.268C89.2674 53.268 89.4314 53.252 89.5914 53.22C89.7554 53.188 89.9014 53.134 90.0294 53.058C90.1574 52.982 90.2614 52.882 90.3414 52.758C90.4214 52.634 90.4614 52.478 90.4614 52.29C90.4614 52.098 90.4194 51.942 90.3354 51.822C90.2554 51.698 90.1474 51.596 90.0114 51.516C89.8754 51.432 89.7174 51.364 89.5374 51.312C89.3574 51.26 89.1714 51.21 88.9794 51.162C88.7434 51.106 88.5074 51.042 88.2714 50.97C88.0394 50.898 87.8314 50.8 87.6474 50.676C87.4594 50.548 87.3054 50.382 87.1854 50.178C87.0694 49.974 87.0114 49.708 87.0114 49.38C87.0114 49.104 87.0694 48.858 87.1854 48.642C87.3054 48.422 87.4634 48.236 87.6594 48.084C87.8514 47.932 88.0694 47.816 88.3134 47.736C88.5614 47.656 88.8134 47.616 89.0694 47.616C89.3014 47.616 89.5254 47.65 89.7414 47.718C89.9574 47.782 90.1574 47.876 90.3414 48C90.5254 48.124 90.6934 48.274 90.8454 48.45C91.0014 48.626 91.1354 48.822 91.2474 49.038L90.4794 49.386C90.3394 49.082 90.1394 48.85 89.8794 48.69C89.6234 48.53 89.3414 48.45 89.0334 48.45C88.8974 48.45 88.7634 48.468 88.6314 48.504C88.5034 48.536 88.3874 48.588 88.2834 48.66C88.1794 48.732 88.0954 48.826 88.0314 48.942C87.9714 49.054 87.9414 49.192 87.9414 49.356C87.9414 49.536 87.9814 49.686 88.0614 49.806C88.1414 49.922 88.2494 50.016 88.3854 50.088C88.5214 50.164 88.6774 50.226 88.8534 50.274C89.0334 50.322 89.2194 50.366 89.4114 50.406C89.6514 50.458 89.8894 50.518 90.1254 50.586C90.3654 50.65 90.5794 50.744 90.7674 50.868C90.9594 50.988 91.1154 51.15 91.2354 51.354C91.3554 51.558 91.4154 51.824 91.4154 52.152C91.4154 52.492 91.3514 52.784 91.2234 53.028C91.0954 53.272 90.9254 53.474 90.7134 53.634C90.5054 53.794 90.2654 53.914 89.9934 53.994C89.7214 54.07 89.4394 54.108 89.1474 54.108C88.8674 54.108 88.6034 54.072 88.3554 54C88.1074 53.932 87.8814 53.828 87.6774 53.688C87.4774 53.552 87.3014 53.382 87.1494 53.178C86.9974 52.974 86.8754 52.74 86.7834 52.476L87.5574 52.128ZM95.9114 53.976C95.6394 54.064 95.3554 54.108 95.0594 54.108C94.5194 54.108 94.1074 53.974 93.8234 53.706C93.5434 53.434 93.4034 53.016 93.4034 52.452V48.564H92.5274V47.724H93.4034V46.548L94.4054 46.104V47.724H95.8334V48.564H94.4054V52.356C94.4054 52.488 94.4174 52.61 94.4414 52.722C94.4694 52.834 94.5134 52.93 94.5734 53.01C94.6334 53.09 94.7134 53.154 94.8134 53.202C94.9134 53.246 95.0394 53.268 95.1914 53.268C95.4114 53.268 95.6514 53.222 95.9114 53.13V53.976ZM97.446 54V47.724H98.442V48.804C98.666 48.4 98.942 48.102 99.27 47.91C99.598 47.714 99.994 47.616 100.458 47.616V48.558C100.122 48.57 99.828 48.614 99.576 48.69C99.324 48.762 99.114 48.878 98.946 49.038C98.778 49.194 98.652 49.396 98.568 49.644C98.484 49.892 98.442 50.196 98.442 50.556V54H97.446ZM104.933 54V53.268C104.821 53.408 104.693 53.53 104.549 53.634C104.405 53.738 104.251 53.826 104.087 53.898C103.919 53.966 103.745 54.018 103.565 54.054C103.385 54.09 103.205 54.108 103.025 54.108C102.721 54.108 102.443 54.064 102.191 53.976C101.939 53.888 101.725 53.764 101.549 53.604C101.369 53.44 101.229 53.246 101.129 53.022C101.033 52.798 100.985 52.548 100.985 52.272C100.985 51.628 101.249 51.142 101.777 50.814C102.309 50.482 103.089 50.316 104.117 50.316H104.933V49.974C104.933 49.734 104.901 49.52 104.837 49.332C104.773 49.144 104.681 48.986 104.561 48.858C104.445 48.726 104.303 48.626 104.135 48.558C103.967 48.49 103.779 48.456 103.571 48.456C103.391 48.456 103.219 48.482 103.055 48.534C102.891 48.582 102.739 48.654 102.599 48.75C102.463 48.846 102.343 48.962 102.239 49.098C102.139 49.23 102.061 49.38 102.005 49.548L101.135 49.164C101.243 48.904 101.381 48.678 101.549 48.486C101.717 48.29 101.907 48.128 102.119 48C102.327 47.872 102.555 47.776 102.803 47.712C103.051 47.648 103.309 47.616 103.577 47.616C103.925 47.616 104.245 47.668 104.537 47.772C104.829 47.872 105.081 48.02 105.293 48.216C105.505 48.412 105.669 48.65 105.785 48.93C105.905 49.21 105.965 49.528 105.965 49.884V54H104.933ZM104.957 51.12H104.117C103.797 51.12 103.507 51.144 103.247 51.192C102.987 51.24 102.767 51.312 102.587 51.408C102.403 51.504 102.261 51.624 102.161 51.768C102.065 51.908 102.017 52.072 102.017 52.26C102.017 52.608 102.107 52.872 102.287 53.052C102.471 53.228 102.747 53.316 103.115 53.316C103.335 53.316 103.551 53.284 103.763 53.22C103.975 53.152 104.167 53.054 104.339 52.926C104.511 52.802 104.651 52.646 104.759 52.458C104.867 52.266 104.925 52.048 104.933 51.804L104.957 51.12ZM110.665 53.976C110.393 54.064 110.109 54.108 109.813 54.108C109.273 54.108 108.861 53.974 108.577 53.706C108.297 53.434 108.157 53.016 108.157 52.452V48.564H107.281V47.724H108.157V46.548L109.159 46.104V47.724H110.587V48.564H109.159V52.356C109.159 52.488 109.171 52.61 109.195 52.722C109.223 52.834 109.267 52.93 109.327 53.01C109.387 53.09 109.467 53.154 109.567 53.202C109.667 53.246 109.793 53.268 109.945 53.268C110.165 53.268 110.405 53.222 110.665 53.13V53.976ZM112.214 54V47.736H113.21V54H112.214ZM112.226 46.392C112.166 46.332 112.118 46.262 112.082 46.182C112.05 46.098 112.034 46.01 112.034 45.918C112.034 45.826 112.05 45.74 112.082 45.66C112.118 45.58 112.166 45.51 112.226 45.45C112.286 45.39 112.356 45.344 112.436 45.312C112.516 45.276 112.602 45.258 112.694 45.258C112.786 45.258 112.872 45.276 112.952 45.312C113.032 45.344 113.102 45.39 113.162 45.45C113.222 45.51 113.268 45.58 113.3 45.66C113.336 45.74 113.354 45.826 113.354 45.918C113.354 46.01 113.336 46.098 113.3 46.182C113.268 46.262 113.222 46.332 113.162 46.392C113.102 46.448 113.032 46.494 112.952 46.53C112.872 46.566 112.786 46.584 112.694 46.584C112.602 46.584 112.516 46.566 112.436 46.53C112.356 46.494 112.286 46.448 112.226 46.392ZM116.808 54L114.63 47.724H115.71L117.468 52.956L119.196 47.724H120.228L118.074 54H116.808ZM121.831 51.09C121.831 51.418 121.879 51.716 121.975 51.984C122.071 52.252 122.209 52.48 122.389 52.668C122.569 52.856 122.783 53.002 123.031 53.106C123.283 53.206 123.561 53.256 123.865 53.256C124.033 53.256 124.199 53.232 124.363 53.184C124.531 53.132 124.691 53.058 124.843 52.962C124.991 52.866 125.127 52.752 125.251 52.62C125.375 52.488 125.479 52.34 125.563 52.176L126.499 52.566C126.371 52.794 126.209 53.004 126.013 53.196C125.821 53.384 125.609 53.546 125.377 53.682C125.141 53.818 124.893 53.924 124.633 54C124.373 54.072 124.113 54.108 123.853 54.108C123.397 54.108 122.981 54.036 122.605 53.892C122.233 53.748 121.913 53.54 121.645 53.268C121.381 52.996 121.175 52.668 121.027 52.284C120.879 51.896 120.805 51.458 120.805 50.97V50.538C120.805 50.102 120.875 49.706 121.015 49.35C121.159 48.99 121.359 48.682 121.615 48.426C121.871 48.17 122.177 47.972 122.533 47.832C122.893 47.688 123.291 47.616 123.727 47.616C124.143 47.616 124.525 47.686 124.873 47.826C125.221 47.966 125.521 48.166 125.773 48.426C126.025 48.682 126.223 48.99 126.367 49.35C126.511 49.706 126.587 50.1 126.595 50.532L126.607 51.09H121.831ZM125.563 50.28C125.555 50.012 125.503 49.768 125.407 49.548C125.315 49.324 125.189 49.132 125.029 48.972C124.865 48.812 124.673 48.688 124.453 48.6C124.233 48.508 123.991 48.462 123.727 48.462C123.483 48.462 123.255 48.508 123.043 48.6C122.835 48.688 122.649 48.812 122.485 48.972C122.321 49.132 122.185 49.324 122.077 49.548C121.973 49.768 121.903 50.012 121.867 50.28H125.563ZM134.522 50.658V49.794H137.972V52.596C137.48 53.1 136.932 53.478 136.328 53.73C135.728 53.982 135.082 54.108 134.39 54.108C133.738 54.108 133.156 53.998 132.644 53.778C132.136 53.558 131.706 53.252 131.354 52.86C131.002 52.468 130.734 52.002 130.55 51.462C130.366 50.918 130.274 50.324 130.274 49.68C130.274 49.06 130.372 48.484 130.568 47.952C130.764 47.42 131.042 46.958 131.402 46.566C131.762 46.178 132.194 45.872 132.698 45.648C133.206 45.424 133.77 45.312 134.39 45.312C134.766 45.312 135.124 45.358 135.464 45.45C135.804 45.538 136.12 45.672 136.412 45.852C136.7 46.032 136.96 46.256 137.192 46.524C137.424 46.788 137.62 47.098 137.78 47.454L136.844 47.868C136.732 47.608 136.592 47.374 136.424 47.166C136.26 46.954 136.072 46.774 135.86 46.626C135.644 46.478 135.41 46.364 135.158 46.284C134.906 46.204 134.638 46.164 134.354 46.164C133.87 46.164 133.44 46.268 133.064 46.476C132.692 46.68 132.376 46.95 132.116 47.286C131.86 47.626 131.664 48.012 131.528 48.444C131.396 48.872 131.33 49.31 131.33 49.758C131.33 50.25 131.394 50.71 131.522 51.138C131.654 51.562 131.848 51.932 132.104 52.248C132.364 52.56 132.686 52.806 133.07 52.986C133.454 53.166 133.902 53.256 134.414 53.256C134.65 53.256 134.884 53.236 135.116 53.196C135.352 53.156 135.58 53.092 135.8 53.004C136.02 52.92 136.228 52.814 136.424 52.686C136.624 52.554 136.806 52.402 136.97 52.23V50.658H134.522ZM139.528 54V47.724H140.524V48.804C140.748 48.4 141.024 48.102 141.352 47.91C141.68 47.714 142.076 47.616 142.54 47.616V48.558C142.204 48.57 141.91 48.614 141.658 48.69C141.406 48.762 141.196 48.878 141.028 49.038C140.86 49.194 140.734 49.396 140.65 49.644C140.566 49.892 140.524 50.196 140.524 50.556V54H139.528ZM143.862 53.208C143.59 52.924 143.378 52.584 143.226 52.188C143.078 51.792 143.004 51.354 143.004 50.874C143.004 50.394 143.078 49.954 143.226 49.554C143.378 49.15 143.59 48.806 143.862 48.522C144.134 48.234 144.458 48.012 144.834 47.856C145.21 47.696 145.624 47.616 146.076 47.616C146.532 47.616 146.946 47.694 147.318 47.85C147.694 48.006 148.014 48.226 148.278 48.51C148.546 48.794 148.752 49.136 148.896 49.536C149.044 49.932 149.118 50.37 149.118 50.85C149.118 51.33 149.044 51.77 148.896 52.17C148.752 52.57 148.546 52.914 148.278 53.202C148.014 53.486 147.694 53.708 147.318 53.868C146.946 54.028 146.532 54.108 146.076 54.108C145.624 54.108 145.21 54.03 144.834 53.874C144.458 53.714 144.134 53.492 143.862 53.208ZM144.606 52.59C144.786 52.798 145 52.96 145.248 53.076C145.5 53.188 145.776 53.244 146.076 53.244C146.38 53.244 146.654 53.188 146.898 53.076C147.146 52.96 147.358 52.796 147.534 52.584C147.71 52.376 147.846 52.126 147.942 51.834C148.038 51.542 148.086 51.218 148.086 50.862C148.086 50.506 148.038 50.18 147.942 49.884C147.846 49.588 147.71 49.334 147.534 49.122C147.358 48.914 147.146 48.752 146.898 48.636C146.654 48.516 146.38 48.456 146.076 48.456C145.776 48.456 145.5 48.516 145.248 48.636C145 48.752 144.786 48.916 144.606 49.128C144.426 49.34 144.286 49.594 144.186 49.89C144.086 50.182 144.036 50.508 144.036 50.868C144.036 51.22 144.086 51.542 144.186 51.834C144.286 52.126 144.426 52.378 144.606 52.59ZM154.784 54V53.052C154.6 53.416 154.34 53.684 154.004 53.856C153.672 54.024 153.308 54.108 152.912 54.108C152.536 54.108 152.204 54.054 151.916 53.946C151.628 53.834 151.386 53.674 151.19 53.466C150.994 53.262 150.846 53.012 150.746 52.716C150.646 52.416 150.596 52.076 150.596 51.696V47.724H151.592V51.648C151.592 52.188 151.726 52.59 151.994 52.854C152.262 53.114 152.654 53.244 153.17 53.244C153.422 53.244 153.648 53.204 153.848 53.124C154.048 53.04 154.218 52.922 154.358 52.77C154.494 52.618 154.598 52.438 154.67 52.23C154.746 52.018 154.784 51.784 154.784 51.528V47.724H155.78V54H154.784ZM157.939 56.184V47.724H158.935V48.744C159.047 48.568 159.185 48.41 159.349 48.27C159.513 48.13 159.693 48.01 159.889 47.91C160.085 47.814 160.287 47.742 160.495 47.694C160.707 47.642 160.913 47.616 161.113 47.616C161.581 47.616 161.989 47.702 162.337 47.874C162.689 48.042 162.981 48.274 163.213 48.57C163.445 48.862 163.619 49.202 163.735 49.59C163.855 49.978 163.915 50.388 163.915 50.82C163.915 51.26 163.855 51.68 163.735 52.08C163.615 52.476 163.437 52.824 163.201 53.124C162.969 53.424 162.681 53.664 162.337 53.844C161.993 54.02 161.597 54.108 161.149 54.108C160.929 54.108 160.711 54.084 160.495 54.036C160.279 53.992 160.075 53.924 159.883 53.832C159.691 53.74 159.513 53.626 159.349 53.49C159.189 53.35 159.051 53.186 158.935 52.998V56.184H157.939ZM159.415 52.59C159.587 52.802 159.801 52.97 160.057 53.094C160.313 53.214 160.615 53.274 160.963 53.274C161.327 53.274 161.631 53.208 161.875 53.076C162.119 52.944 162.317 52.766 162.469 52.542C162.617 52.318 162.723 52.058 162.787 51.762C162.851 51.462 162.883 51.148 162.883 50.82C162.883 50.516 162.843 50.222 162.763 49.938C162.683 49.65 162.563 49.396 162.403 49.176C162.243 48.956 162.041 48.78 161.797 48.648C161.557 48.512 161.275 48.444 160.951 48.444C160.595 48.444 160.287 48.51 160.027 48.642C159.771 48.774 159.559 48.95 159.391 49.17C159.223 49.394 159.099 49.654 159.019 49.95C158.943 50.242 158.905 50.55 158.905 50.874C158.905 51.218 158.947 51.536 159.031 51.828C159.115 52.12 159.243 52.374 159.415 52.59ZM165.733 52.128C165.849 52.496 166.043 52.778 166.315 52.974C166.591 53.17 166.911 53.268 167.275 53.268C167.443 53.268 167.607 53.252 167.767 53.22C167.931 53.188 168.077 53.134 168.205 53.058C168.333 52.982 168.437 52.882 168.517 52.758C168.597 52.634 168.637 52.478 168.637 52.29C168.637 52.098 168.595 51.942 168.511 51.822C168.431 51.698 168.323 51.596 168.187 51.516C168.051 51.432 167.893 51.364 167.713 51.312C167.533 51.26 167.347 51.21 167.155 51.162C166.919 51.106 166.683 51.042 166.447 50.97C166.215 50.898 166.007 50.8 165.823 50.676C165.635 50.548 165.481 50.382 165.361 50.178C165.245 49.974 165.187 49.708 165.187 49.38C165.187 49.104 165.245 48.858 165.361 48.642C165.481 48.422 165.639 48.236 165.835 48.084C166.027 47.932 166.245 47.816 166.489 47.736C166.737 47.656 166.989 47.616 167.245 47.616C167.477 47.616 167.701 47.65 167.917 47.718C168.133 47.782 168.333 47.876 168.517 48C168.701 48.124 168.869 48.274 169.021 48.45C169.177 48.626 169.311 48.822 169.423 49.038L168.655 49.386C168.515 49.082 168.315 48.85 168.055 48.69C167.799 48.53 167.517 48.45 167.209 48.45C167.073 48.45 166.939 48.468 166.807 48.504C166.679 48.536 166.563 48.588 166.459 48.66C166.355 48.732 166.271 48.826 166.207 48.942C166.147 49.054 166.117 49.192 166.117 49.356C166.117 49.536 166.157 49.686 166.237 49.806C166.317 49.922 166.425 50.016 166.561 50.088C166.697 50.164 166.853 50.226 167.029 50.274C167.209 50.322 167.395 50.366 167.587 50.406C167.827 50.458 168.065 50.518 168.301 50.586C168.541 50.65 168.755 50.744 168.943 50.868C169.135 50.988 169.291 51.15 169.411 51.354C169.531 51.558 169.591 51.824 169.591 52.152C169.591 52.492 169.527 52.784 169.399 53.028C169.271 53.272 169.101 53.474 168.889 53.634C168.681 53.794 168.441 53.914 168.169 53.994C167.897 54.07 167.615 54.108 167.323 54.108C167.043 54.108 166.779 54.072 166.531 54C166.283 53.932 166.057 53.828 165.853 53.688C165.653 53.552 165.477 53.382 165.325 53.178C165.173 52.974 165.051 52.74 164.959 52.476L165.733 52.128ZM176.372 53.976C176.1 54.064 175.816 54.108 175.52 54.108C174.98 54.108 174.568 53.974 174.284 53.706C174.004 53.434 173.864 53.016 173.864 52.452V48.564H172.988V47.724H173.864V46.548L174.866 46.104V47.724H176.294V48.564H174.866V52.356C174.866 52.488 174.878 52.61 174.902 52.722C174.93 52.834 174.974 52.93 175.034 53.01C175.094 53.09 175.174 53.154 175.274 53.202C175.374 53.246 175.5 53.268 175.652 53.268C175.872 53.268 176.112 53.222 176.372 53.13V53.976ZM178.433 53.208C178.161 52.924 177.949 52.584 177.797 52.188C177.649 51.792 177.575 51.354 177.575 50.874C177.575 50.394 177.649 49.954 177.797 49.554C177.949 49.15 178.161 48.806 178.433 48.522C178.705 48.234 179.029 48.012 179.405 47.856C179.781 47.696 180.195 47.616 180.647 47.616C181.103 47.616 181.517 47.694 181.889 47.85C182.265 48.006 182.585 48.226 182.849 48.51C183.117 48.794 183.323 49.136 183.467 49.536C183.615 49.932 183.689 50.37 183.689 50.85C183.689 51.33 183.615 51.77 183.467 52.17C183.323 52.57 183.117 52.914 182.849 53.202C182.585 53.486 182.265 53.708 181.889 53.868C181.517 54.028 181.103 54.108 180.647 54.108C180.195 54.108 179.781 54.03 179.405 53.874C179.029 53.714 178.705 53.492 178.433 53.208ZM179.177 52.59C179.357 52.798 179.571 52.96 179.819 53.076C180.071 53.188 180.347 53.244 180.647 53.244C180.951 53.244 181.225 53.188 181.469 53.076C181.717 52.96 181.929 52.796 182.105 52.584C182.281 52.376 182.417 52.126 182.513 51.834C182.609 51.542 182.657 51.218 182.657 50.862C182.657 50.506 182.609 50.18 182.513 49.884C182.417 49.588 182.281 49.334 182.105 49.122C181.929 48.914 181.717 48.752 181.469 48.636C181.225 48.516 180.951 48.456 180.647 48.456C180.347 48.456 180.071 48.516 179.819 48.636C179.571 48.752 179.357 48.916 179.177 49.128C178.997 49.34 178.857 49.594 178.757 49.89C178.657 50.182 178.607 50.508 178.607 50.868C178.607 51.22 178.657 51.542 178.757 51.834C178.857 52.126 178.997 52.378 179.177 52.59ZM187.734 54V47.724H188.73V48.636C188.894 48.28 189.122 48.022 189.414 47.862C189.71 47.698 190.046 47.616 190.422 47.616C190.622 47.616 190.822 47.64 191.022 47.688C191.226 47.732 191.416 47.802 191.592 47.898C191.768 47.994 191.926 48.114 192.066 48.258C192.21 48.402 192.32 48.572 192.396 48.768C192.596 48.38 192.87 48.092 193.218 47.904C193.57 47.712 193.966 47.616 194.406 47.616C194.766 47.616 195.084 47.68 195.36 47.808C195.636 47.932 195.868 48.106 196.056 48.33C196.24 48.55 196.38 48.814 196.476 49.122C196.576 49.426 196.626 49.756 196.626 50.112V54H195.63V50.04C195.63 49.532 195.51 49.146 195.27 48.882C195.03 48.614 194.662 48.48 194.166 48.48C193.93 48.48 193.72 48.526 193.536 48.618C193.352 48.706 193.196 48.826 193.068 48.978C192.944 49.13 192.848 49.308 192.78 49.512C192.712 49.716 192.678 49.932 192.678 50.16V54H191.682V50.04C191.682 49.532 191.562 49.146 191.322 48.882C191.086 48.614 190.718 48.48 190.218 48.48C189.986 48.48 189.778 48.526 189.594 48.618C189.41 48.706 189.254 48.826 189.126 48.978C188.998 49.13 188.9 49.308 188.832 49.512C188.764 49.716 188.73 49.932 188.73 50.16V54H187.734ZM198.604 54V47.736H199.6V54H198.604ZM198.616 46.392C198.556 46.332 198.508 46.262 198.472 46.182C198.44 46.098 198.424 46.01 198.424 45.918C198.424 45.826 198.44 45.74 198.472 45.66C198.508 45.58 198.556 45.51 198.616 45.45C198.676 45.39 198.746 45.344 198.826 45.312C198.906 45.276 198.992 45.258 199.084 45.258C199.176 45.258 199.262 45.276 199.342 45.312C199.422 45.344 199.492 45.39 199.552 45.45C199.612 45.51 199.658 45.58 199.69 45.66C199.726 45.74 199.744 45.826 199.744 45.918C199.744 46.01 199.726 46.098 199.69 46.182C199.658 46.262 199.612 46.332 199.552 46.392C199.492 46.448 199.422 46.494 199.342 46.53C199.262 46.566 199.176 46.584 199.084 46.584C198.992 46.584 198.906 46.566 198.826 46.53C198.746 46.494 198.676 46.448 198.616 46.392ZM201.356 54V47.724H202.352V48.804C202.576 48.4 202.852 48.102 203.18 47.91C203.508 47.714 203.904 47.616 204.368 47.616V48.558C204.032 48.57 203.738 48.614 203.486 48.69C203.234 48.762 203.024 48.878 202.856 49.038C202.688 49.194 202.562 49.396 202.478 49.644C202.394 49.892 202.352 50.196 202.352 50.556V54H201.356ZM205.071 54V47.724H206.067V48.804C206.291 48.4 206.567 48.102 206.895 47.91C207.223 47.714 207.619 47.616 208.083 47.616V48.558C207.747 48.57 207.453 48.614 207.201 48.69C206.949 48.762 206.739 48.878 206.571 49.038C206.403 49.194 206.277 49.396 206.193 49.644C206.109 49.892 206.067 50.196 206.067 50.556V54H205.071ZM209.405 53.208C209.133 52.924 208.921 52.584 208.769 52.188C208.621 51.792 208.547 51.354 208.547 50.874C208.547 50.394 208.621 49.954 208.769 49.554C208.921 49.15 209.133 48.806 209.405 48.522C209.677 48.234 210.001 48.012 210.377 47.856C210.753 47.696 211.167 47.616 211.619 47.616C212.075 47.616 212.489 47.694 212.861 47.85C213.237 48.006 213.557 48.226 213.821 48.51C214.089 48.794 214.295 49.136 214.439 49.536C214.587 49.932 214.661 50.37 214.661 50.85C214.661 51.33 214.587 51.77 214.439 52.17C214.295 52.57 214.089 52.914 213.821 53.202C213.557 53.486 213.237 53.708 212.861 53.868C212.489 54.028 212.075 54.108 211.619 54.108C211.167 54.108 210.753 54.03 210.377 53.874C210.001 53.714 209.677 53.492 209.405 53.208ZM210.149 52.59C210.329 52.798 210.543 52.96 210.791 53.076C211.043 53.188 211.319 53.244 211.619 53.244C211.923 53.244 212.197 53.188 212.441 53.076C212.689 52.96 212.901 52.796 213.077 52.584C213.253 52.376 213.389 52.126 213.485 51.834C213.581 51.542 213.629 51.218 213.629 50.862C213.629 50.506 213.581 50.18 213.485 49.884C213.389 49.588 213.253 49.334 213.077 49.122C212.901 48.914 212.689 48.752 212.441 48.636C212.197 48.516 211.923 48.456 211.619 48.456C211.319 48.456 211.043 48.516 210.791 48.636C210.543 48.752 210.329 48.916 210.149 49.128C209.969 49.34 209.829 49.594 209.729 49.89C209.629 50.182 209.579 50.508 209.579 50.868C209.579 51.22 209.629 51.542 209.729 51.834C209.829 52.126 209.969 52.378 210.149 52.59ZM215.958 54V47.724H216.954V48.804C217.178 48.4 217.454 48.102 217.782 47.91C218.11 47.714 218.506 47.616 218.97 47.616V48.558C218.634 48.57 218.34 48.614 218.088 48.69C217.836 48.762 217.626 48.878 217.458 49.038C217.29 49.194 217.164 49.396 217.08 49.644C216.996 49.892 216.954 50.196 216.954 50.556V54H215.958ZM25.554 72.184L26.712 69.352L24.348 63.724H25.41L27.24 68.194L28.926 63.724H29.946L26.562 72.184H25.554ZM31.4678 69.208C31.1958 68.924 30.9838 68.584 30.8318 68.188C30.6838 67.792 30.6098 67.354 30.6098 66.874C30.6098 66.394 30.6838 65.954 30.8318 65.554C30.9838 65.15 31.1958 64.806 31.4678 64.522C31.7398 64.234 32.0638 64.012 32.4398 63.856C32.8158 63.696 33.2298 63.616 33.6818 63.616C34.1378 63.616 34.5518 63.694 34.9238 63.85C35.2998 64.006 35.6198 64.226 35.8838 64.51C36.1518 64.794 36.3578 65.136 36.5018 65.536C36.6498 65.932 36.7238 66.37 36.7238 66.85C36.7238 67.33 36.6498 67.77 36.5018 68.17C36.3578 68.57 36.1518 68.914 35.8838 69.202C35.6198 69.486 35.2998 69.708 34.9238 69.868C34.5518 70.028 34.1378 70.108 33.6818 70.108C33.2298 70.108 32.8158 70.03 32.4398 69.874C32.0638 69.714 31.7398 69.492 31.4678 69.208ZM32.2118 68.59C32.3918 68.798 32.6058 68.96 32.8538 69.076C33.1058 69.188 33.3818 69.244 33.6818 69.244C33.9858 69.244 34.2598 69.188 34.5038 69.076C34.7518 68.96 34.9638 68.796 35.1398 68.584C35.3158 68.376 35.4518 68.126 35.5478 67.834C35.6438 67.542 35.6918 67.218 35.6918 66.862C35.6918 66.506 35.6438 66.18 35.5478 65.884C35.4518 65.588 35.3158 65.334 35.1398 65.122C34.9638 64.914 34.7518 64.752 34.5038 64.636C34.2598 64.516 33.9858 64.456 33.6818 64.456C33.3818 64.456 33.1058 64.516 32.8538 64.636C32.6058 64.752 32.3918 64.916 32.2118 65.128C32.0318 65.34 31.8918 65.594 31.7918 65.89C31.6918 66.182 31.6418 66.508 31.6418 66.868C31.6418 67.22 31.6918 67.542 31.7918 67.834C31.8918 68.126 32.0318 68.378 32.2118 68.59ZM42.3896 70V69.052C42.2056 69.416 41.9456 69.684 41.6096 69.856C41.2776 70.024 40.9136 70.108 40.5176 70.108C40.1416 70.108 39.8096 70.054 39.5216 69.946C39.2336 69.834 38.9916 69.674 38.7956 69.466C38.5996 69.262 38.4516 69.012 38.3516 68.716C38.2516 68.416 38.2016 68.076 38.2016 67.696V63.724H39.1976V67.648C39.1976 68.188 39.3316 68.59 39.5996 68.854C39.8676 69.114 40.2596 69.244 40.7756 69.244C41.0276 69.244 41.2536 69.204 41.4536 69.124C41.6536 69.04 41.8236 68.922 41.9636 68.77C42.0996 68.618 42.2036 68.438 42.2756 68.23C42.3516 68.018 42.3896 67.784 42.3896 67.528V63.724H43.3856V70H42.3896ZM45.2624 70V63.724H46.2584V64.804C46.4824 64.4 46.7584 64.102 47.0864 63.91C47.4144 63.714 47.8104 63.616 48.2744 63.616V64.558C47.9384 64.57 47.6444 64.614 47.3924 64.69C47.1404 64.762 46.9304 64.878 46.7624 65.038C46.5944 65.194 46.4684 65.396 46.3844 65.644C46.3004 65.892 46.2584 66.196 46.2584 66.556V70H45.2624ZM52.2334 69.208C51.9614 68.924 51.7494 68.584 51.5974 68.188C51.4494 67.792 51.3754 67.354 51.3754 66.874C51.3754 66.394 51.4494 65.954 51.5974 65.554C51.7494 65.15 51.9614 64.806 52.2334 64.522C52.5054 64.234 52.8294 64.012 53.2054 63.856C53.5814 63.696 53.9954 63.616 54.4474 63.616C54.9034 63.616 55.3174 63.694 55.6894 63.85C56.0654 64.006 56.3854 64.226 56.6494 64.51C56.9174 64.794 57.1234 65.136 57.2674 65.536C57.4154 65.932 57.4894 66.37 57.4894 66.85C57.4894 67.33 57.4154 67.77 57.2674 68.17C57.1234 68.57 56.9174 68.914 56.6494 69.202C56.3854 69.486 56.0654 69.708 55.6894 69.868C55.3174 70.028 54.9034 70.108 54.4474 70.108C53.9954 70.108 53.5814 70.03 53.2054 69.874C52.8294 69.714 52.5054 69.492 52.2334 69.208ZM52.9774 68.59C53.1574 68.798 53.3714 68.96 53.6194 69.076C53.8714 69.188 54.1474 69.244 54.4474 69.244C54.7514 69.244 55.0254 69.188 55.2694 69.076C55.5174 68.96 55.7294 68.796 55.9054 68.584C56.0814 68.376 56.2174 68.126 56.3134 67.834C56.4094 67.542 56.4574 67.218 56.4574 66.862C56.4574 66.506 56.4094 66.18 56.3134 65.884C56.2174 65.588 56.0814 65.334 55.9054 65.122C55.7294 64.914 55.5174 64.752 55.2694 64.636C55.0254 64.516 54.7514 64.456 54.4474 64.456C54.1474 64.456 53.8714 64.516 53.6194 64.636C53.3714 64.752 53.1574 64.916 52.9774 65.128C52.7974 65.34 52.6574 65.594 52.5574 65.89C52.4574 66.182 52.4074 66.508 52.4074 66.868C52.4074 67.22 52.4574 67.542 52.5574 67.834C52.6574 68.126 52.7974 68.378 52.9774 68.59ZM58.7858 70V63.724H59.7818V64.804C60.0058 64.4 60.2818 64.102 60.6098 63.91C60.9378 63.714 61.3338 63.616 61.7978 63.616V64.558C61.4618 64.57 61.1678 64.614 60.9158 64.69C60.6638 64.762 60.4538 64.878 60.2858 65.038C60.1178 65.194 59.9918 65.396 59.9078 65.644C59.8238 65.892 59.7818 66.196 59.7818 66.556V70H58.7858ZM63.2853 70.414C63.3733 70.61 63.4893 70.774 63.6333 70.906C63.7813 71.038 63.9433 71.144 64.1193 71.224C64.2993 71.304 64.4853 71.362 64.6773 71.398C64.8733 71.434 65.0673 71.452 65.2593 71.452C65.5553 71.452 65.8293 71.412 66.0813 71.332C66.3373 71.252 66.5593 71.13 66.7473 70.966C66.9353 70.806 67.0813 70.604 67.1853 70.36C67.2893 70.12 67.3413 69.838 67.3413 69.514V68.626C67.2253 68.806 67.0853 68.968 66.9213 69.112C66.7613 69.256 66.5853 69.38 66.3933 69.484C66.2053 69.584 66.0053 69.662 65.7933 69.718C65.5853 69.77 65.3753 69.796 65.1633 69.796C64.7353 69.796 64.3493 69.716 64.0053 69.556C63.6613 69.392 63.3673 69.172 63.1233 68.896C62.8793 68.62 62.6913 68.3 62.5593 67.936C62.4273 67.568 62.3613 67.178 62.3613 66.766C62.3613 66.338 62.4313 65.934 62.5713 65.554C62.7113 65.174 62.9073 64.84 63.1593 64.552C63.4153 64.264 63.7173 64.036 64.0653 63.868C64.4173 63.7 64.8053 63.616 65.2293 63.616C65.4373 63.616 65.6433 63.638 65.8473 63.682C66.0513 63.726 66.2453 63.794 66.4293 63.886C66.6093 63.978 66.7773 64.092 66.9333 64.228C67.0893 64.364 67.2253 64.522 67.3413 64.702V63.724H68.3373V69.574C68.3373 70.03 68.2553 70.428 68.0913 70.768C67.9273 71.108 67.7053 71.392 67.4253 71.62C67.1413 71.844 66.8113 72.012 66.4353 72.124C66.0593 72.236 65.6593 72.292 65.2353 72.292C64.9513 72.292 64.6733 72.266 64.4013 72.214C64.1333 72.162 63.8813 72.076 63.6453 71.956C63.4053 71.836 63.1873 71.678 62.9913 71.482C62.7953 71.29 62.6293 71.052 62.4933 70.768L63.2853 70.414ZM63.9273 68.29C64.0993 68.494 64.3033 68.656 64.5393 68.776C64.7753 68.896 65.0373 68.956 65.3253 68.956C65.6533 68.956 65.9433 68.896 66.1953 68.776C66.4513 68.656 66.6673 68.492 66.8433 68.284C67.0153 68.08 67.1473 67.838 67.2393 67.558C67.3313 67.278 67.3773 66.976 67.3773 66.652C67.3773 66.34 67.3333 66.05 67.2453 65.782C67.1573 65.514 67.0293 65.28 66.8613 65.08C66.6973 64.884 66.4933 64.73 66.2493 64.618C66.0053 64.506 65.7273 64.45 65.4153 64.45C65.0833 64.45 64.7893 64.514 64.5333 64.642C64.2813 64.766 64.0713 64.934 63.9033 65.146C63.7353 65.362 63.6073 65.61 63.5193 65.89C63.4353 66.17 63.3933 66.466 63.3933 66.778C63.3933 67.062 63.4393 67.336 63.5313 67.6C63.6273 67.86 63.7593 68.09 63.9273 68.29ZM73.7264 70V69.268C73.6144 69.408 73.4864 69.53 73.3424 69.634C73.1984 69.738 73.0444 69.826 72.8804 69.898C72.7124 69.966 72.5384 70.018 72.3584 70.054C72.1784 70.09 71.9984 70.108 71.8184 70.108C71.5144 70.108 71.2364 70.064 70.9844 69.976C70.7324 69.888 70.5184 69.764 70.3424 69.604C70.1624 69.44 70.0224 69.246 69.9224 69.022C69.8264 68.798 69.7784 68.548 69.7784 68.272C69.7784 67.628 70.0424 67.142 70.5704 66.814C71.1024 66.482 71.8824 66.316 72.9104 66.316H73.7264V65.974C73.7264 65.734 73.6944 65.52 73.6304 65.332C73.5664 65.144 73.4744 64.986 73.3544 64.858C73.2384 64.726 73.0964 64.626 72.9284 64.558C72.7604 64.49 72.5724 64.456 72.3644 64.456C72.1844 64.456 72.0124 64.482 71.8484 64.534C71.6844 64.582 71.5324 64.654 71.3924 64.75C71.2564 64.846 71.1364 64.962 71.0324 65.098C70.9324 65.23 70.8544 65.38 70.7984 65.548L69.9284 65.164C70.0364 64.904 70.1744 64.678 70.3424 64.486C70.5104 64.29 70.7004 64.128 70.9124 64C71.1204 63.872 71.3484 63.776 71.5964 63.712C71.8444 63.648 72.1024 63.616 72.3704 63.616C72.7184 63.616 73.0384 63.668 73.3304 63.772C73.6224 63.872 73.8744 64.02 74.0864 64.216C74.2984 64.412 74.4624 64.65 74.5784 64.93C74.6984 65.21 74.7584 65.528 74.7584 65.884V70H73.7264ZM73.7504 67.12H72.9104C72.5904 67.12 72.3004 67.144 72.0404 67.192C71.7804 67.24 71.5604 67.312 71.3804 67.408C71.1964 67.504 71.0544 67.624 70.9544 67.768C70.8584 67.908 70.8104 68.072 70.8104 68.26C70.8104 68.608 70.9004 68.872 71.0804 69.052C71.2644 69.228 71.5404 69.316 71.9084 69.316C72.1284 69.316 72.3444 69.284 72.5564 69.22C72.7684 69.152 72.9604 69.054 73.1324 68.926C73.3044 68.802 73.4444 68.646 73.5524 68.458C73.6604 68.266 73.7184 68.048 73.7264 67.804L73.7504 67.12ZM76.7223 70V63.724H77.7183V64.678C77.8183 64.494 77.9383 64.336 78.0783 64.204C78.2183 64.068 78.3743 63.956 78.5463 63.868C78.7183 63.78 78.9023 63.716 79.0983 63.676C79.2943 63.636 79.4943 63.616 79.6983 63.616C80.0823 63.616 80.4163 63.682 80.7003 63.814C80.9843 63.942 81.2183 64.122 81.4023 64.354C81.5903 64.586 81.7303 64.86 81.8223 65.176C81.9143 65.492 81.9603 65.836 81.9603 66.208V70H80.9583V66.136C80.9583 65.604 80.8343 65.196 80.5863 64.912C80.3423 64.624 79.9703 64.48 79.4703 64.48C79.2063 64.48 78.9663 64.52 78.7503 64.6C78.5343 64.68 78.3503 64.794 78.1983 64.942C78.0463 65.09 77.9283 65.27 77.8443 65.482C77.7603 65.694 77.7183 65.932 77.7183 66.196V70H76.7223ZM83.9364 70V63.736H84.9324V70H83.9364ZM83.9484 62.392C83.8884 62.332 83.8404 62.262 83.8044 62.182C83.7724 62.098 83.7564 62.01 83.7564 61.918C83.7564 61.826 83.7724 61.74 83.8044 61.66C83.8404 61.58 83.8884 61.51 83.9484 61.45C84.0084 61.39 84.0784 61.344 84.1584 61.312C84.2384 61.276 84.3244 61.258 84.4164 61.258C84.5084 61.258 84.5944 61.276 84.6744 61.312C84.7544 61.344 84.8244 61.39 84.8844 61.45C84.9444 61.51 84.9904 61.58 85.0224 61.66C85.0584 61.74 85.0764 61.826 85.0764 61.918C85.0764 62.01 85.0584 62.098 85.0224 62.182C84.9904 62.262 84.9444 62.332 84.8844 62.392C84.8244 62.448 84.7544 62.494 84.6744 62.53C84.5944 62.566 84.5084 62.584 84.4164 62.584C84.3244 62.584 84.2384 62.566 84.1584 62.53C84.0784 62.494 84.0084 62.448 83.9484 62.392ZM86.2442 70V69.568L90.0182 64.564H86.5922V63.724H91.3862V64.156L87.6842 69.124H91.3442V70H86.2442ZM96.1092 70V69.268C95.9972 69.408 95.8692 69.53 95.7252 69.634C95.5812 69.738 95.4272 69.826 95.2632 69.898C95.0952 69.966 94.9212 70.018 94.7412 70.054C94.5612 70.09 94.3812 70.108 94.2012 70.108C93.8972 70.108 93.6192 70.064 93.3672 69.976C93.1152 69.888 92.9012 69.764 92.7252 69.604C92.5452 69.44 92.4052 69.246 92.3052 69.022C92.2092 68.798 92.1612 68.548 92.1612 68.272C92.1612 67.628 92.4252 67.142 92.9532 66.814C93.4852 66.482 94.2652 66.316 95.2932 66.316H96.1092V65.974C96.1092 65.734 96.0772 65.52 96.0132 65.332C95.9492 65.144 95.8572 64.986 95.7372 64.858C95.6212 64.726 95.4792 64.626 95.3112 64.558C95.1432 64.49 94.9552 64.456 94.7472 64.456C94.5672 64.456 94.3952 64.482 94.2312 64.534C94.0672 64.582 93.9152 64.654 93.7752 64.75C93.6392 64.846 93.5192 64.962 93.4152 65.098C93.3152 65.23 93.2372 65.38 93.1812 65.548L92.3112 65.164C92.4192 64.904 92.5572 64.678 92.7252 64.486C92.8932 64.29 93.0832 64.128 93.2952 64C93.5032 63.872 93.7312 63.776 93.9792 63.712C94.2272 63.648 94.4852 63.616 94.7532 63.616C95.1012 63.616 95.4212 63.668 95.7132 63.772C96.0052 63.872 96.2572 64.02 96.4692 64.216C96.6812 64.412 96.8452 64.65 96.9612 64.93C97.0812 65.21 97.1412 65.528 97.1412 65.884V70H96.1092ZM96.1332 67.12H95.2932C94.9732 67.12 94.6832 67.144 94.4232 67.192C94.1632 67.24 93.9432 67.312 93.7632 67.408C93.5792 67.504 93.4372 67.624 93.3372 67.768C93.2412 67.908 93.1932 68.072 93.1932 68.26C93.1932 68.608 93.2832 68.872 93.4632 69.052C93.6472 69.228 93.9232 69.316 94.2912 69.316C94.5112 69.316 94.7272 69.284 94.9392 69.22C95.1512 69.152 95.3432 69.054 95.5152 68.926C95.6872 68.802 95.8272 68.646 95.9352 68.458C96.0432 68.266 96.1012 68.048 96.1092 67.804L96.1332 67.12ZM101.841 69.976C101.569 70.064 101.285 70.108 100.989 70.108C100.449 70.108 100.037 69.974 99.7531 69.706C99.4731 69.434 99.3331 69.016 99.3331 68.452V64.564H98.4571V63.724H99.3331V62.548L100.335 62.104V63.724H101.763V64.564H100.335V68.356C100.335 68.488 100.347 68.61 100.371 68.722C100.399 68.834 100.443 68.93 100.503 69.01C100.563 69.09 100.643 69.154 100.743 69.202C100.843 69.246 100.969 69.268 101.121 69.268C101.341 69.268 101.581 69.222 101.841 69.13V69.976ZM103.39 70V63.736H104.386V70H103.39ZM103.402 62.392C103.342 62.332 103.294 62.262 103.258 62.182C103.226 62.098 103.21 62.01 103.21 61.918C103.21 61.826 103.226 61.74 103.258 61.66C103.294 61.58 103.342 61.51 103.402 61.45C103.462 61.39 103.532 61.344 103.612 61.312C103.692 61.276 103.778 61.258 103.87 61.258C103.962 61.258 104.048 61.276 104.128 61.312C104.208 61.344 104.278 61.39 104.338 61.45C104.398 61.51 104.444 61.58 104.476 61.66C104.512 61.74 104.53 61.826 104.53 61.918C104.53 62.01 104.512 62.098 104.476 62.182C104.444 62.262 104.398 62.332 104.338 62.392C104.278 62.448 104.208 62.494 104.128 62.53C104.048 62.566 103.962 62.584 103.87 62.584C103.778 62.584 103.692 62.566 103.612 62.53C103.532 62.494 103.462 62.448 103.402 62.392ZM106.854 69.208C106.582 68.924 106.37 68.584 106.218 68.188C106.07 67.792 105.996 67.354 105.996 66.874C105.996 66.394 106.07 65.954 106.218 65.554C106.37 65.15 106.582 64.806 106.854 64.522C107.126 64.234 107.45 64.012 107.826 63.856C108.202 63.696 108.616 63.616 109.068 63.616C109.524 63.616 109.938 63.694 110.31 63.85C110.686 64.006 111.006 64.226 111.27 64.51C111.538 64.794 111.744 65.136 111.888 65.536C112.036 65.932 112.11 66.37 112.11 66.85C112.11 67.33 112.036 67.77 111.888 68.17C111.744 68.57 111.538 68.914 111.27 69.202C111.006 69.486 110.686 69.708 110.31 69.868C109.938 70.028 109.524 70.108 109.068 70.108C108.616 70.108 108.202 70.03 107.826 69.874C107.45 69.714 107.126 69.492 106.854 69.208ZM107.598 68.59C107.778 68.798 107.992 68.96 108.24 69.076C108.492 69.188 108.768 69.244 109.068 69.244C109.372 69.244 109.646 69.188 109.89 69.076C110.138 68.96 110.35 68.796 110.526 68.584C110.702 68.376 110.838 68.126 110.934 67.834C111.03 67.542 111.078 67.218 111.078 66.862C111.078 66.506 111.03 66.18 110.934 65.884C110.838 65.588 110.702 65.334 110.526 65.122C110.35 64.914 110.138 64.752 109.89 64.636C109.646 64.516 109.372 64.456 109.068 64.456C108.768 64.456 108.492 64.516 108.24 64.636C107.992 64.752 107.778 64.916 107.598 65.128C107.418 65.34 107.278 65.594 107.178 65.89C107.078 66.182 107.028 66.508 107.028 66.868C107.028 67.22 107.078 67.542 107.178 67.834C107.278 68.126 107.418 68.378 107.598 68.59ZM113.695 70V63.724H114.691V64.678C114.791 64.494 114.911 64.336 115.051 64.204C115.191 64.068 115.347 63.956 115.519 63.868C115.691 63.78 115.875 63.716 116.071 63.676C116.267 63.636 116.467 63.616 116.671 63.616C117.055 63.616 117.389 63.682 117.673 63.814C117.957 63.942 118.191 64.122 118.375 64.354C118.563 64.586 118.703 64.86 118.795 65.176C118.887 65.492 118.933 65.836 118.933 66.208V70H117.931V66.136C117.931 65.604 117.807 65.196 117.559 64.912C117.315 64.624 116.943 64.48 116.443 64.48C116.179 64.48 115.939 64.52 115.723 64.6C115.507 64.68 115.323 64.794 115.171 64.942C115.019 65.09 114.901 65.27 114.817 65.482C114.733 65.694 114.691 65.932 114.691 66.196V70H113.695ZM120.561 63.826L121.611 61.288L122.565 61.738L121.197 64.162L120.561 63.826ZM123.874 68.128C123.99 68.496 124.184 68.778 124.456 68.974C124.732 69.17 125.052 69.268 125.416 69.268C125.584 69.268 125.748 69.252 125.908 69.22C126.072 69.188 126.218 69.134 126.346 69.058C126.474 68.982 126.578 68.882 126.658 68.758C126.738 68.634 126.778 68.478 126.778 68.29C126.778 68.098 126.736 67.942 126.652 67.822C126.572 67.698 126.464 67.596 126.328 67.516C126.192 67.432 126.034 67.364 125.854 67.312C125.674 67.26 125.488 67.21 125.296 67.162C125.06 67.106 124.824 67.042 124.588 66.97C124.356 66.898 124.148 66.8 123.964 66.676C123.776 66.548 123.622 66.382 123.502 66.178C123.386 65.974 123.328 65.708 123.328 65.38C123.328 65.104 123.386 64.858 123.502 64.642C123.622 64.422 123.78 64.236 123.976 64.084C124.168 63.932 124.386 63.816 124.63 63.736C124.878 63.656 125.13 63.616 125.386 63.616C125.618 63.616 125.842 63.65 126.058 63.718C126.274 63.782 126.474 63.876 126.658 64C126.842 64.124 127.01 64.274 127.162 64.45C127.318 64.626 127.452 64.822 127.564 65.038L126.796 65.386C126.656 65.082 126.456 64.85 126.196 64.69C125.94 64.53 125.658 64.45 125.35 64.45C125.214 64.45 125.08 64.468 124.948 64.504C124.82 64.536 124.704 64.588 124.6 64.66C124.496 64.732 124.412 64.826 124.348 64.942C124.288 65.054 124.258 65.192 124.258 65.356C124.258 65.536 124.298 65.686 124.378 65.806C124.458 65.922 124.566 66.016 124.702 66.088C124.838 66.164 124.994 66.226 125.17 66.274C125.35 66.322 125.536 66.366 125.728 66.406C125.968 66.458 126.206 66.518 126.442 66.586C126.682 66.65 126.896 66.744 127.084 66.868C127.276 66.988 127.432 67.15 127.552 67.354C127.672 67.558 127.732 67.824 127.732 68.152C127.732 68.492 127.668 68.784 127.54 69.028C127.412 69.272 127.242 69.474 127.03 69.634C126.822 69.794 126.582 69.914 126.31 69.994C126.038 70.07 125.756 70.108 125.464 70.108C125.184 70.108 124.92 70.072 124.672 70C124.424 69.932 124.198 69.828 123.994 69.688C123.794 69.552 123.618 69.382 123.466 69.178C123.314 68.974 123.192 68.74 123.1 68.476L123.874 68.128ZM131.789 70V60.88H132.785V64.678C132.981 64.31 133.249 64.042 133.589 63.874C133.933 63.702 134.311 63.616 134.723 63.616C135.103 63.616 135.437 63.682 135.725 63.814C136.013 63.942 136.253 64.122 136.445 64.354C136.637 64.586 136.781 64.862 136.877 65.182C136.977 65.498 137.027 65.84 137.027 66.208V70H136.025V66.136C136.025 65.596 135.897 65.186 135.641 64.906C135.385 64.622 135.005 64.48 134.501 64.48C134.233 64.48 133.993 64.52 133.781 64.6C133.569 64.68 133.389 64.794 133.241 64.942C133.093 65.09 132.979 65.27 132.899 65.482C132.823 65.694 132.785 65.932 132.785 66.196V70H131.789ZM139.015 70V63.736H140.011V70H139.015ZM139.027 62.392C138.967 62.332 138.919 62.262 138.883 62.182C138.851 62.098 138.835 62.01 138.835 61.918C138.835 61.826 138.851 61.74 138.883 61.66C138.919 61.58 138.967 61.51 139.027 61.45C139.087 61.39 139.157 61.344 139.237 61.312C139.317 61.276 139.403 61.258 139.495 61.258C139.587 61.258 139.673 61.276 139.753 61.312C139.833 61.344 139.903 61.39 139.963 61.45C140.023 61.51 140.069 61.58 140.101 61.66C140.137 61.74 140.155 61.826 140.155 61.918C140.155 62.01 140.137 62.098 140.101 62.182C140.069 62.262 140.023 62.332 139.963 62.392C139.903 62.448 139.833 62.494 139.753 62.53C139.673 62.566 139.587 62.584 139.495 62.584C139.403 62.584 139.317 62.566 139.237 62.53C139.157 62.494 139.087 62.448 139.027 62.392ZM142.491 67.09C142.491 67.418 142.539 67.716 142.635 67.984C142.731 68.252 142.869 68.48 143.049 68.668C143.229 68.856 143.443 69.002 143.691 69.106C143.943 69.206 144.221 69.256 144.525 69.256C144.693 69.256 144.859 69.232 145.023 69.184C145.191 69.132 145.351 69.058 145.503 68.962C145.651 68.866 145.787 68.752 145.911 68.62C146.035 68.488 146.139 68.34 146.223 68.176L147.159 68.566C147.031 68.794 146.869 69.004 146.673 69.196C146.481 69.384 146.269 69.546 146.037 69.682C145.801 69.818 145.553 69.924 145.293 70C145.033 70.072 144.773 70.108 144.513 70.108C144.057 70.108 143.641 70.036 143.265 69.892C142.893 69.748 142.573 69.54 142.305 69.268C142.041 68.996 141.835 68.668 141.687 68.284C141.539 67.896 141.465 67.458 141.465 66.97V66.538C141.465 66.102 141.535 65.706 141.675 65.35C141.819 64.99 142.019 64.682 142.275 64.426C142.531 64.17 142.837 63.972 143.193 63.832C143.553 63.688 143.951 63.616 144.387 63.616C144.803 63.616 145.185 63.686 145.533 63.826C145.881 63.966 146.181 64.166 146.433 64.426C146.685 64.682 146.883 64.99 147.027 65.35C147.171 65.706 147.247 66.1 147.255 66.532L147.267 67.09H142.491ZM146.223 66.28C146.215 66.012 146.163 65.768 146.067 65.548C145.975 65.324 145.849 65.132 145.689 64.972C145.525 64.812 145.333 64.688 145.113 64.6C144.893 64.508 144.651 64.462 144.387 64.462C144.143 64.462 143.915 64.508 143.703 64.6C143.495 64.688 143.309 64.812 143.145 64.972C142.981 65.132 142.845 65.324 142.737 65.548C142.633 65.768 142.563 66.012 142.527 66.28H146.223ZM148.551 70V63.724H149.547V64.804C149.771 64.4 150.047 64.102 150.375 63.91C150.703 63.714 151.099 63.616 151.563 63.616V64.558C151.227 64.57 150.933 64.614 150.681 64.69C150.429 64.762 150.219 64.878 150.051 65.038C149.883 65.194 149.757 65.396 149.673 65.644C149.589 65.892 149.547 66.196 149.547 66.556V70H148.551ZM156.039 70V69.268C155.927 69.408 155.799 69.53 155.655 69.634C155.511 69.738 155.357 69.826 155.193 69.898C155.025 69.966 154.851 70.018 154.671 70.054C154.491 70.09 154.311 70.108 154.131 70.108C153.827 70.108 153.549 70.064 153.297 69.976C153.045 69.888 152.831 69.764 152.655 69.604C152.475 69.44 152.335 69.246 152.235 69.022C152.139 68.798 152.091 68.548 152.091 68.272C152.091 67.628 152.355 67.142 152.883 66.814C153.415 66.482 154.195 66.316 155.223 66.316H156.039V65.974C156.039 65.734 156.007 65.52 155.943 65.332C155.879 65.144 155.787 64.986 155.667 64.858C155.551 64.726 155.409 64.626 155.241 64.558C155.073 64.49 154.885 64.456 154.677 64.456C154.497 64.456 154.325 64.482 154.161 64.534C153.997 64.582 153.845 64.654 153.705 64.75C153.569 64.846 153.449 64.962 153.345 65.098C153.245 65.23 153.167 65.38 153.111 65.548L152.241 65.164C152.349 64.904 152.487 64.678 152.655 64.486C152.823 64.29 153.013 64.128 153.225 64C153.433 63.872 153.661 63.776 153.909 63.712C154.157 63.648 154.415 63.616 154.683 63.616C155.031 63.616 155.351 63.668 155.643 63.772C155.935 63.872 156.187 64.02 156.399 64.216C156.611 64.412 156.775 64.65 156.891 64.93C157.011 65.21 157.071 65.528 157.071 65.884V70H156.039ZM156.063 67.12H155.223C154.903 67.12 154.613 67.144 154.353 67.192C154.093 67.24 153.873 67.312 153.693 67.408C153.509 67.504 153.367 67.624 153.267 67.768C153.171 67.908 153.123 68.072 153.123 68.26C153.123 68.608 153.213 68.872 153.393 69.052C153.577 69.228 153.853 69.316 154.221 69.316C154.441 69.316 154.657 69.284 154.869 69.22C155.081 69.152 155.273 69.054 155.445 68.926C155.617 68.802 155.757 68.646 155.865 68.458C155.973 68.266 156.031 68.048 156.039 67.804L156.063 67.12ZM158.747 70V63.724H159.743V64.804C159.967 64.4 160.243 64.102 160.571 63.91C160.899 63.714 161.295 63.616 161.759 63.616V64.558C161.423 64.57 161.129 64.614 160.877 64.69C160.625 64.762 160.415 64.878 160.247 65.038C160.079 65.194 159.953 65.396 159.869 65.644C159.785 65.892 159.743 66.196 159.743 66.556V70H158.747ZM167.935 68.176C167.695 68.8 167.335 69.278 166.855 69.61C166.375 69.942 165.813 70.108 165.169 70.108C164.693 70.108 164.269 70.024 163.897 69.856C163.529 69.684 163.219 69.45 162.967 69.154C162.715 68.862 162.523 68.516 162.391 68.116C162.259 67.716 162.193 67.288 162.193 66.832C162.193 66.384 162.265 65.966 162.409 65.578C162.557 65.186 162.761 64.844 163.021 64.552C163.285 64.264 163.599 64.036 163.963 63.868C164.327 63.7 164.729 63.616 165.169 63.616C165.813 63.616 166.361 63.762 166.813 64.054C167.269 64.342 167.629 64.774 167.893 65.35L166.987 65.758C166.919 65.566 166.823 65.392 166.699 65.236C166.579 65.076 166.439 64.94 166.279 64.828C166.119 64.716 165.943 64.63 165.751 64.57C165.563 64.506 165.369 64.474 165.169 64.474C164.837 64.474 164.549 64.544 164.305 64.684C164.061 64.824 163.859 65.008 163.699 65.236C163.539 65.464 163.419 65.726 163.339 66.022C163.263 66.314 163.225 66.614 163.225 66.922C163.225 67.242 163.265 67.544 163.345 67.828C163.429 68.112 163.551 68.358 163.711 68.566C163.875 68.778 164.077 68.946 164.317 69.07C164.561 69.194 164.845 69.256 165.169 69.256C165.405 69.256 165.623 69.22 165.823 69.148C166.027 69.076 166.211 68.976 166.375 68.848C166.535 68.72 166.673 68.566 166.789 68.386C166.909 68.206 167.003 68.008 167.071 67.792L167.935 68.176ZM169.394 70V60.88H170.39V64.678C170.586 64.31 170.854 64.042 171.194 63.874C171.538 63.702 171.916 63.616 172.328 63.616C172.708 63.616 173.042 63.682 173.33 63.814C173.618 63.942 173.858 64.122 174.05 64.354C174.242 64.586 174.386 64.862 174.482 65.182C174.582 65.498 174.632 65.84 174.632 66.208V70H173.63V66.136C173.63 65.596 173.502 65.186 173.246 64.906C172.99 64.622 172.61 64.48 172.106 64.48C171.838 64.48 171.598 64.52 171.386 64.6C171.174 64.68 170.994 64.794 170.846 64.942C170.698 65.09 170.584 65.27 170.504 65.482C170.428 65.694 170.39 65.932 170.39 66.196V70H169.394ZM176.714 72.184L177.872 69.352L175.508 63.724H176.57L178.4 68.194L180.086 63.724H181.106L177.722 72.184H176.714ZM182.653 69.838C182.585 69.77 182.531 69.69 182.491 69.598C182.451 69.502 182.431 69.4 182.431 69.292C182.431 69.184 182.451 69.084 182.491 68.992C182.531 68.9 182.585 68.818 182.653 68.746C182.725 68.678 182.807 68.624 182.899 68.584C182.991 68.544 183.091 68.524 183.199 68.524C183.307 68.524 183.407 68.544 183.499 68.584C183.591 68.624 183.673 68.678 183.745 68.746C183.813 68.818 183.867 68.9 183.907 68.992C183.947 69.084 183.967 69.184 183.967 69.292C183.967 69.4 183.947 69.5 183.907 69.592C183.867 69.684 183.813 69.766 183.745 69.838C183.673 69.906 183.591 69.96 183.499 70C183.407 70.04 183.307 70.06 183.199 70.06C183.091 70.06 182.989 70.04 182.893 70C182.801 69.96 182.721 69.906 182.653 69.838Z" fill="#2A303D"/>
</g>
<path d="M247.158 70L244.275 61.4219H245.658L248.008 68.6699L250.375 61.4219H251.635L248.729 70H247.158ZM252.836 70V63.7363H254.072V70H252.836ZM252.895 62.4473C252.824 62.3809 252.768 62.3027 252.725 62.2129C252.686 62.1191 252.666 62.0195 252.666 61.9141C252.666 61.8086 252.686 61.7109 252.725 61.6211C252.768 61.5273 252.824 61.4453 252.895 61.375C252.965 61.3086 253.047 61.2559 253.141 61.2168C253.234 61.1777 253.334 61.1582 253.439 61.1582C253.545 61.1582 253.645 61.1777 253.738 61.2168C253.832 61.252 253.914 61.3047 253.984 61.375C254.055 61.4414 254.109 61.5215 254.148 61.6152C254.191 61.7051 254.213 61.8047 254.213 61.9141C254.213 62.0195 254.191 62.1191 254.148 62.2129C254.109 62.3027 254.055 62.3809 253.984 62.4473C253.914 62.5176 253.832 62.5723 253.738 62.6113C253.645 62.6504 253.545 62.6699 253.439 62.6699C253.334 62.6699 253.234 62.6504 253.141 62.6113C253.047 62.5723 252.965 62.5176 252.895 62.4473ZM256.814 67.1172C256.814 67.4062 256.852 67.6758 256.926 67.9258C257.004 68.1719 257.119 68.3848 257.271 68.5645C257.424 68.748 257.613 68.8926 257.84 68.998C258.066 69.0996 258.33 69.1504 258.631 69.1504C259.018 69.1504 259.354 69.0645 259.639 68.8926C259.924 68.7168 260.15 68.4707 260.318 68.1543L261.35 68.5938C261.213 68.8594 261.049 69.0898 260.857 69.2852C260.67 69.4766 260.463 69.6328 260.236 69.7539C260.006 69.8789 259.76 69.9707 259.498 70.0293C259.24 70.0879 258.971 70.1172 258.689 70.1172C258.193 70.1172 257.75 70.0352 257.359 69.8711C256.973 69.7031 256.645 69.4746 256.375 69.1855C256.105 68.8965 255.898 68.5547 255.754 68.1602C255.613 67.7656 255.543 67.3398 255.543 66.8828C255.543 66.4219 255.613 65.9922 255.754 65.5938C255.898 65.1914 256.104 64.8438 256.369 64.5508C256.631 64.2539 256.949 64.0215 257.324 63.8535C257.699 63.6855 258.117 63.6016 258.578 63.6016C259.129 63.6016 259.588 63.6934 259.955 63.877C260.326 64.0605 260.625 64.3105 260.852 64.627C261.074 64.9434 261.232 65.3164 261.326 65.7461C261.424 66.1719 261.473 66.6289 261.473 67.1172H256.814ZM260.236 66.2266C260.221 65.9727 260.176 65.7441 260.102 65.541C260.027 65.334 259.924 65.1562 259.791 65.0078C259.654 64.8633 259.488 64.752 259.293 64.6738C259.102 64.5918 258.879 64.5508 258.625 64.5508C258.359 64.5508 258.123 64.5938 257.916 64.6797C257.713 64.7656 257.537 64.8848 257.389 65.0371C257.244 65.1855 257.127 65.3633 257.037 65.5703C256.947 65.7734 256.885 65.9922 256.85 66.2266H260.236ZM264.197 70L262.205 63.7246H263.535L264.953 68.5L266.371 63.7246H267.426L268.797 68.5L270.232 63.7246H271.469L269.453 70H268.146L266.863 65.541L265.504 70H264.197ZM275.078 70V61.4219H277.768C278.459 61.4219 279.076 61.5156 279.619 61.7031C280.162 61.8867 280.621 62.1602 280.996 62.5234C281.371 62.8828 281.658 63.3262 281.857 63.8535C282.057 64.3809 282.156 64.9863 282.156 65.6699C282.156 66.373 282.053 66.9941 281.846 67.5332C281.639 68.0684 281.344 68.5195 280.961 68.8867C280.578 69.2539 280.115 69.5312 279.572 69.7188C279.029 69.9062 278.42 70 277.744 70H275.078ZM276.426 68.9336H277.709C278.244 68.9336 278.703 68.8574 279.086 68.7051C279.473 68.5527 279.791 68.334 280.041 68.0488C280.287 67.7676 280.469 67.4258 280.586 67.0234C280.707 66.6172 280.768 66.1621 280.768 65.6582C280.768 64.6191 280.516 63.832 280.012 63.2969C279.512 62.7578 278.74 62.4883 277.697 62.4883H276.426V68.9336ZM284.494 67.1172C284.494 67.4062 284.531 67.6758 284.605 67.9258C284.684 68.1719 284.799 68.3848 284.951 68.5645C285.104 68.748 285.293 68.8926 285.52 68.998C285.746 69.0996 286.01 69.1504 286.311 69.1504C286.697 69.1504 287.033 69.0645 287.318 68.8926C287.604 68.7168 287.83 68.4707 287.998 68.1543L289.029 68.5938C288.893 68.8594 288.729 69.0898 288.537 69.2852C288.35 69.4766 288.143 69.6328 287.916 69.7539C287.686 69.8789 287.439 69.9707 287.178 70.0293C286.92 70.0879 286.65 70.1172 286.369 70.1172C285.873 70.1172 285.43 70.0352 285.039 69.8711C284.652 69.7031 284.324 69.4746 284.055 69.1855C283.785 68.8965 283.578 68.5547 283.434 68.1602C283.293 67.7656 283.223 67.3398 283.223 66.8828C283.223 66.4219 283.293 65.9922 283.434 65.5938C283.578 65.1914 283.783 64.8438 284.049 64.5508C284.311 64.2539 284.629 64.0215 285.004 63.8535C285.379 63.6855 285.797 63.6016 286.258 63.6016C286.809 63.6016 287.268 63.6934 287.635 63.877C288.006 64.0605 288.305 64.3105 288.531 64.627C288.754 64.9434 288.912 65.3164 289.006 65.7461C289.104 66.1719 289.152 66.6289 289.152 67.1172H284.494ZM287.916 66.2266C287.9 65.9727 287.855 65.7441 287.781 65.541C287.707 65.334 287.604 65.1562 287.471 65.0078C287.334 64.8633 287.168 64.752 286.973 64.6738C286.781 64.5918 286.559 64.5508 286.305 64.5508C286.039 64.5508 285.803 64.5938 285.596 64.6797C285.393 64.7656 285.217 64.8848 285.068 65.0371C284.924 65.1855 284.807 65.3633 284.717 65.5703C284.627 65.7734 284.564 65.9922 284.529 66.2266H287.916ZM293.523 69.9531C293.227 70.0469 292.914 70.0938 292.586 70.0938C292 70.0938 291.555 69.9492 291.25 69.6602C290.949 69.3711 290.799 68.9277 290.799 68.3301V64.6914H289.92V63.7188H290.799V62.4824L292.035 61.9434V63.7188H293.447V64.6914H292.035V68.2129C292.035 68.3379 292.049 68.4531 292.076 68.5586C292.104 68.6641 292.148 68.7559 292.211 68.834C292.27 68.9082 292.35 68.9668 292.451 69.0098C292.553 69.0527 292.676 69.0742 292.82 69.0742C292.926 69.0742 293.037 69.0645 293.154 69.0449C293.275 69.0215 293.398 68.9883 293.523 68.9453V69.9531ZM298.492 70V69.2207C298.258 69.5371 297.971 69.7656 297.631 69.9062C297.295 70.0469 296.938 70.1172 296.559 70.1172C296.273 70.1172 296.002 70.0781 295.744 70C295.49 69.9219 295.27 69.8047 295.082 69.6484C294.891 69.4922 294.738 69.2988 294.625 69.0684C294.516 68.834 294.461 68.5645 294.461 68.2598C294.461 67.9824 294.508 67.7402 294.602 67.5332C294.695 67.3262 294.822 67.1504 294.982 67.0059C295.143 66.8574 295.328 66.7383 295.539 66.6484C295.754 66.5547 295.982 66.4824 296.225 66.4316C296.463 66.377 296.709 66.3398 296.963 66.3203C297.217 66.3008 297.463 66.291 297.701 66.291H298.48C298.48 66.0371 298.467 65.8066 298.439 65.5996C298.412 65.3887 298.352 65.207 298.258 65.0547C298.164 64.9023 298.029 64.7852 297.854 64.7031C297.678 64.6172 297.443 64.5742 297.15 64.5742C296.994 64.5742 296.838 64.5977 296.682 64.6445C296.529 64.6914 296.387 64.7559 296.254 64.8379C296.125 64.9238 296.01 65.0293 295.908 65.1543C295.807 65.2754 295.729 65.4121 295.674 65.5645L294.654 65.125C294.768 64.8555 294.914 64.625 295.094 64.4336C295.273 64.2422 295.477 64.084 295.703 63.959C295.93 63.8379 296.174 63.748 296.436 63.6895C296.701 63.6309 296.971 63.6016 297.244 63.6016C297.607 63.6016 297.939 63.6504 298.24 63.748C298.545 63.8457 298.807 63.9902 299.025 64.1816C299.244 64.373 299.414 64.6133 299.535 64.9023C299.656 65.1875 299.717 65.5176 299.717 65.8926V70H298.492ZM298.48 67.1055H297.689C297.564 67.1055 297.428 67.1094 297.279 67.1172C297.131 67.125 296.984 67.1426 296.84 67.1699C296.691 67.1973 296.549 67.2383 296.412 67.293C296.275 67.3438 296.152 67.4121 296.043 67.498C295.938 67.584 295.854 67.6914 295.791 67.8203C295.729 67.9453 295.697 68.0957 295.697 68.2715C295.697 68.4316 295.723 68.5703 295.773 68.6875C295.828 68.8008 295.904 68.8945 296.002 68.9688C296.096 69.043 296.209 69.0977 296.342 69.1328C296.479 69.168 296.627 69.1855 296.787 69.1855C296.994 69.1855 297.197 69.1582 297.396 69.1035C297.6 69.0449 297.781 68.957 297.941 68.8398C298.102 68.7266 298.23 68.584 298.328 68.4121C298.43 68.2363 298.48 68.0332 298.48 67.8027V67.1055ZM301.562 70V63.7363H302.799V70H301.562ZM301.621 62.4473C301.551 62.3809 301.494 62.3027 301.451 62.2129C301.412 62.1191 301.393 62.0195 301.393 61.9141C301.393 61.8086 301.412 61.7109 301.451 61.6211C301.494 61.5273 301.551 61.4453 301.621 61.375C301.691 61.3086 301.773 61.2559 301.867 61.2168C301.961 61.1777 302.061 61.1582 302.166 61.1582C302.271 61.1582 302.371 61.1777 302.465 61.2168C302.559 61.252 302.641 61.3047 302.711 61.375C302.781 61.4414 302.836 61.5215 302.875 61.6152C302.918 61.7051 302.939 61.8047 302.939 61.9141C302.939 62.0195 302.918 62.1191 302.875 62.2129C302.836 62.3027 302.781 62.3809 302.711 62.4473C302.641 62.5176 302.559 62.5723 302.465 62.6113C302.371 62.6504 302.271 62.6699 302.166 62.6699C302.061 62.6699 301.961 62.6504 301.867 62.6113C301.773 62.5723 301.691 62.5176 301.621 62.4473ZM304.721 70V61.3223L305.969 60.7715V70H304.721ZM308.336 68.1309C308.395 68.2949 308.477 68.4414 308.582 68.5703C308.688 68.6953 308.809 68.8027 308.945 68.8926C309.078 68.9785 309.225 69.0449 309.385 69.0918C309.549 69.1387 309.715 69.1621 309.883 69.1621C310.035 69.1621 310.186 69.1484 310.334 69.1211C310.486 69.0938 310.623 69.0469 310.744 68.9805C310.861 68.9141 310.957 68.8262 311.031 68.7168C311.105 68.6035 311.143 68.4629 311.143 68.2949C311.143 68.1191 311.102 67.9746 311.02 67.8613C310.938 67.7441 310.826 67.6484 310.686 67.5742C310.545 67.4961 310.383 67.4336 310.199 67.3867C310.016 67.3359 309.82 67.2871 309.613 67.2402C309.379 67.1855 309.141 67.123 308.898 67.0527C308.66 66.9824 308.443 66.8828 308.248 66.7539C308.053 66.625 307.893 66.457 307.768 66.25C307.646 66.0391 307.586 65.7656 307.586 65.4297C307.586 65.1328 307.652 64.8711 307.785 64.6445C307.918 64.4141 308.092 64.2227 308.307 64.0703C308.518 63.9141 308.756 63.7969 309.021 63.7188C309.287 63.6406 309.553 63.6016 309.818 63.6016C310.072 63.6016 310.316 63.6309 310.551 63.6895C310.785 63.7441 311.004 63.8301 311.207 63.9473C311.414 64.0645 311.6 64.2109 311.764 64.3867C311.928 64.5586 312.064 64.7617 312.174 64.9961L311.236 65.4062C311.17 65.2617 311.088 65.1367 310.99 65.0312C310.893 64.9219 310.783 64.832 310.662 64.7617C310.545 64.6914 310.416 64.6406 310.275 64.6094C310.139 64.5742 309.998 64.5566 309.854 64.5566C309.721 64.5566 309.588 64.5723 309.455 64.6035C309.322 64.6309 309.203 64.6758 309.098 64.7383C308.992 64.8047 308.906 64.8887 308.84 64.9902C308.773 65.0918 308.74 65.2168 308.74 65.3652C308.74 65.5254 308.779 65.6562 308.857 65.7578C308.939 65.8594 309.047 65.9453 309.18 66.0156C309.312 66.0859 309.467 66.1426 309.643 66.1855C309.818 66.2246 310.002 66.2637 310.193 66.3027C310.443 66.3535 310.695 66.4141 310.949 66.4844C311.203 66.5508 311.432 66.6484 311.635 66.7773C311.842 66.9062 312.01 67.0781 312.139 67.293C312.268 67.5039 312.332 67.7832 312.332 68.1309C312.332 68.4824 312.264 68.7852 312.127 69.0391C311.99 69.2891 311.811 69.4941 311.588 69.6543C311.361 69.8145 311.104 69.9316 310.814 70.0059C310.525 70.0801 310.229 70.1172 309.924 70.1172C309.643 70.1172 309.369 70.0859 309.104 70.0234C308.842 69.9648 308.6 69.8711 308.377 69.7422C308.154 69.6133 307.957 69.4512 307.785 69.2559C307.613 69.0566 307.48 68.8203 307.387 68.5469L308.336 68.1309Z" fill="#0E2553"/>
<path d="M244 71.2012H312.801V71.7988H244V71.2012Z" fill="#0E2553"/>
<path d="M338.4 30.4001L334 26.0001M334 26.0001L329.6 21.6001M334 26.0001L338.4 21.6001M334 26.0001L329.6 30.4001" stroke="#55607A" stroke-linecap="round" stroke-linejoin="round"/>
</g>
</g>
<defs>
<filter id="filter0_d_205_2797" x="0" y="0" width="366" height="96" filterUnits="userSpaceOnUse" color-interpolation-filters="sRGB">
<feFlood flood-opacity="0" result="BackgroundImageFix"/>
<feColorMatrix in="SourceAlpha" type="matrix" values="0 0 0 0 0 0 0 0 0 0 0 0 0 0 0 0 0 0 127 0" result="hardAlpha"/>
<feOffset dy="2"/>
<feGaussianBlur stdDeviation="4"/>
<feComposite in2="hardAlpha" operator="out"/>
<feColorMatrix type="matrix" values="0 0 0 0 0.0509804 0 0 0 0 0.0666667 0 0 0 0 0.113725 0 0 0 0.12 0"/>
<feBlend mode="normal" in2="BackgroundImageFix" result="effect1_dropShadow_205_2797"/>
<feBlend mode="normal" in="SourceGraphic" in2="effect1_dropShadow_205_2797" result="shape"/>
</filter>
<clipPath id="clip0_205_2797">
<path d="M8 14C8 9.58172 11.5817 6 16 6H350C354.418 6 358 9.58172 358 14V78C358 82.4183 354.418 86 350 86H16C11.5817 86 8 82.4183 8 78V14Z" fill="white"/>
</clipPath>
<clipPath id="clip1_205_2797">
<rect width="208" height="56" fill="white" transform="translate(24 18)"/>
</clipPath>
</defs>
</svg>
