<?xml version="1.0" encoding="UTF-8"?>
<svg id="Layer_2" data-name="Layer 2" xmlns="http://www.w3.org/2000/svg" viewBox="0 0 3122.49 288">
  <defs>
    <style>
      .cls-1 {
        fill: #fff;
      }

      .cls-2 {
        fill: #ce1432;
      }

      .cls-3 {
        fill: #007ac1;
      }
    </style>
  </defs>
  <g id="Layer_1" data-name="Layer 1">
    <g>
      <g>
        <path class="cls-1" d="M403.63,57.6h43.32l57.96,172.81h-34.59l-12.87-39.9h-67.87l-12.51,39.9h-31.75l58.31-172.81ZM450.02,166.56l-26.32-81.92-26.44,81.92h52.76Z"/>
        <path class="cls-1" d="M525.79,103.99h30.22v20.42c8.74-14.75,26.44-23.14,43.32-23.14,38.6,0,57.25,31.04,57.25,65.51s-19.83,65.99-56.42,65.99c-17.71,0-35.65-7.08-44.15-22.19v63.15h-30.22V103.99ZM625.42,166.08c0-21.37-10.62-41.2-35.41-41.2s-35.06,19.95-35.06,42.73,10.86,41.55,36,41.55c26.68,0,34.47-19.83,34.47-43.09Z"/>
        <path class="cls-1" d="M681.37,103.99h30.22v20.42c8.74-14.75,26.44-23.14,43.32-23.14,38.6,0,57.25,31.04,57.25,65.51s-19.83,65.99-56.42,65.99c-17.71,0-35.65-7.08-44.15-22.19v63.15h-30.22V103.99ZM780.99,166.08c0-21.37-10.62-41.2-35.41-41.2s-35.06,19.95-35.06,42.73,10.86,41.55,36,41.55c26.68,0,34.47-19.83,34.47-43.09Z"/>
        <path class="cls-1" d="M837.76,52.76l30.22-13.1v190.76h-30.22V52.76Z"/>
        <path class="cls-1" d="M918.03,50.52c9.8,0,17.59,7.2,17.59,17.23s-7.55,17.12-17.47,17.12-18.06-7.32-18.06-17.23,8.14-17.12,17.94-17.12ZM902.8,104.23h30.22v126.19h-30.22v-126.19Z"/>
        <path class="cls-1" d="M1081.28,194.65c-8.38,26.44-31.99,38.13-58.43,38.13-40.13,0-64.1-26.91-64.1-65.99s26.8-65.51,64.8-65.51c25.62,0,47.69,10.74,57.01,35.53l-24.43,10.74c-5.08-14.17-17.35-22.31-32.58-22.31-24.67,0-33.76,21.37-33.76,43.09s9.8,41.55,34.23,41.55c17.35,0,29.04-9.56,34.23-25.38l23.02,10.15Z"/>
        <path class="cls-1" d="M1177.71,214.95c-9.56,12.75-23.61,17.82-39.19,17.82-23.73,0-42.38-12.04-42.38-36.83,0-35.06,37.06-40.61,66.46-40.61h14.87v-2.01c0-18.06-4.25-29.51-24.67-29.51-12.28,0-23.61,6.37-28.09,18.06l-23.49-10.15c8.5-22.31,32.11-30.45,54.65-30.45,29.87,0,51.58,14.4,51.58,46.51v82.63h-29.75v-15.46ZM1162.25,173.87c-13.93,0-36.12,1.65-36.12,20.78,0,12.16,8.85,16.64,20.19,16.64,15.34,0,31.16-8.03,31.16-25.14v-12.28h-15.23Z"/>
        <path class="cls-1" d="M1303.31,229.47c-6.49,1.89-13.22,3.07-20.78,3.07-24.08,0-38.36-12.51-38.36-37.66v-68.7h-17v-22.19h17v-26.09l30.22-13.1v39.19h27.86v22.19h-27.86v65.99c0,9.92,4.25,16.05,15.35,16.05,4.25,0,8.97-.94,13.57-2.48v23.73Z"/>
        <path class="cls-1" d="M1344.5,50.52c9.8,0,17.59,7.2,17.59,17.23s-7.55,17.12-17.47,17.12-18.06-7.32-18.06-17.23,8.14-17.12,17.94-17.12ZM1329.27,104.23h30.22v126.19h-30.22v-126.19Z"/>
        <path class="cls-1" d="M1452.03,101.28c38.36,0,67.87,26.91,67.87,65.63s-31.04,65.87-69.17,65.87-69.41-26.68-69.41-65.28,32.7-66.22,70.71-66.22ZM1487.45,167.15c0-23.25-11.81-42.61-36.59-42.61s-35.65,20.3-35.65,43.44,11.92,41.55,36.36,41.55,35.89-20.3,35.89-42.38Z"/>
        <path class="cls-1" d="M1541.97,103.99h30.22v20.07c8.14-15.58,25.14-22.78,42.73-22.78,30.34,0,44.03,21.37,44.03,50.05v79.09h-30.69v-76.14c0-17.71-7.91-28.09-25.85-28.09-19.01,0-30.22,11.8-30.22,29.98v74.25h-30.22v-126.42Z"/>
        <path class="cls-1" d="M1897.63,182.85c-10.74,32.82-41.67,49.93-75.07,49.93-55.72,0-86.41-35.29-86.41-89.59,0-49.58,34.47-88.06,85.46-88.06,32.7,0,61.26,15.7,74.25,46.63l-27.62,11.69c-7.32-19-24.44-32.23-45.21-32.23-36.59,0-51.7,31.28-51.7,63.15s16.53,61.62,52.53,61.62c22.78,0,39.31-13.81,47.1-34.59l26.68,11.45Z"/>
        <path class="cls-1" d="M1978.36,101.28c38.36,0,67.87,26.91,67.87,65.63s-31.04,65.87-69.17,65.87-69.41-26.68-69.41-65.28,32.7-66.22,70.71-66.22ZM2013.77,167.15c0-23.25-11.8-42.61-36.59-42.61s-35.65,20.3-35.65,43.44,11.92,41.55,36.36,41.55,35.88-20.3,35.88-42.38Z"/>
        <path class="cls-1" d="M2068.3,103.99h30.22v20.07c8.14-15.58,25.14-22.78,42.73-22.78,30.34,0,44.03,21.37,44.03,50.05v79.09h-30.69v-76.14c0-17.71-7.91-28.09-25.85-28.09-19,0-30.22,11.8-30.22,29.98v74.25h-30.22v-126.42Z"/>
        <path class="cls-1" d="M2281.01,229.47c-6.49,1.89-13.22,3.07-20.78,3.07-24.08,0-38.36-12.51-38.36-37.66v-68.7h-17v-22.19h17v-26.09l30.22-13.1v39.19h27.86v22.19h-27.86v65.99c0,9.92,4.25,16.05,15.35,16.05,4.25,0,8.97-.94,13.57-2.48v23.73Z"/>
        <path class="cls-1" d="M2306.15,103.99h30.22v23.73c8.5-17.35,22.31-25.62,41.55-25.62v27.98c-24.44,0-41.55,8.03-41.55,35.06v65.28h-30.22v-126.42Z"/>
        <path class="cls-1" d="M2457.24,101.28c38.36,0,67.87,26.91,67.87,65.63s-31.04,65.87-69.17,65.87-69.41-26.68-69.41-65.28,32.7-66.22,70.71-66.22ZM2492.65,167.15c0-23.25-11.8-42.61-36.59-42.61s-35.65,20.3-35.65,43.44,11.92,41.55,36.36,41.55,35.88-20.3,35.88-42.38Z"/>
        <path class="cls-1" d="M2548,52.76l30.22-13.1v190.76h-30.22V52.76Z"/>
        <path class="cls-1" d="M2666.51,57.6h60.08c36.36,0,64.8,14.64,64.8,54.42,0,43.79-34.59,53.24-71.53,53.24h-19.83v65.16h-33.52V57.6ZM2726.36,141.18c20.66,0,32.34-8.5,32.34-29.39s-12.75-28.8-32.34-28.8h-26.32v58.19h26.32Z"/>
        <path class="cls-1" d="M2814.77,52.76l30.22-13.1v190.76h-30.22V52.76Z"/>
        <path class="cls-1" d="M2963.73,210.59c-7.91,15.35-24.2,22.19-41.67,22.19-29.04,0-44.38-19.12-44.38-47.81v-80.98h30.22v77.32c0,17.23,7.91,27.86,25.5,27.86,18.89,0,30.34-12.16,30.34-30.22v-74.96h30.1v126.42h-30.1v-19.83Z"/>
        <path class="cls-1" d="M3040.34,192.76c4.72,12.39,17.59,18.3,31.28,18.3,9.8,0,21.96-3.07,21.96-14.99,0-12.63-13.69-15.58-29.27-18.89-20.3-4.25-43.09-9.21-43.09-37.54,0-25.97,24.2-38.36,47.1-38.36,20.07,0,42.97,7.55,51.23,27.5l-22.43,9.68c-4.96-11.21-17.35-15.46-27.74-15.46s-19.71,4.01-19.71,14.28c0,11.57,12.39,14.05,27.62,17,20.66,4.01,45.21,8.74,45.21,38.25s-24.91,40.25-51.23,40.25c-22.31,0-46.27-7.55-54.18-30.22l23.25-9.8Z"/>
      </g>
      <g>
        <rect class="cls-3" x="78.55" y="78.16" width="49.79" height="50.21"/>
        <rect class="cls-3" x="155.49" y="78.16" width="49.79" height="50.21"/>
        <rect class="cls-3" x="78.55" y="155.51" width="49.79" height="50.21"/>
        <polygon class="cls-2" points="193.52 180.62 205.21 192.4 191.99 205.73 180.31 193.95 168.63 205.73 155.4 192.4 167.09 180.62 155.4 168.84 168.63 155.51 180.31 167.29 191.99 155.51 205.21 168.84 193.52 180.62"/>
        <path class="cls-3" d="M99.17,233.97v40.46h-.08v13.57h-17.36C36.66,288,0,251.34,0,206.28v-80.17h27.14v80.17c0,26.78,19.39,49.12,44.88,53.7v-26.01h27.14Z"/>
        <path class="cls-3" d="M161.45,0v27.14h-79.71c-26.74,0-49.06,19.32-53.7,44.74h25.74v27.14h-26.63v.05H0v-17.36C0,36.66,36.66,0,81.73,0h79.71Z"/>
        <g>
          <path class="cls-3" d="M287.68,81.72v80.11h-27.14v-80.11c0-26.75-19.35-49.07-44.79-53.69v26h-27.14v-26.89h-.01V0h17.36c45.07,0,81.73,36.66,81.73,81.72Z"/>
          <path class="cls-3" d="M287.71,188.92v17.36c0,45.06-36.66,81.72-81.72,81.72h-79.76v-27.14h79.76c26.74,0,49.04-19.33,53.69-44.74h-25.88v-27.14h26.77v-.05h27.14Z"/>
        </g>
      </g>
    </g>
  </g>
</svg>