<?xml version="1.0" encoding="UTF-8"?>
<svg id="Layer_2" data-name="Layer 2" xmlns="http://www.w3.org/2000/svg" viewBox="0 0 287.71 288">
  <defs>
    <style>
      .cls-1 {
        fill: #ce1432;
      }

      .cls-2 {
        fill: #007ac1;
      }
    </style>
  </defs>
  <g id="Layer_1" data-name="Layer 1">
    <g>
      <rect class="cls-2" x="78.55" y="78.16" width="49.79" height="50.21"/>
      <rect class="cls-2" x="155.49" y="78.16" width="49.79" height="50.21"/>
      <rect class="cls-2" x="78.55" y="155.51" width="49.79" height="50.21"/>
      <polygon class="cls-1" points="193.52 180.62 205.21 192.4 191.99 205.73 180.31 193.95 168.63 205.73 155.4 192.4 167.09 180.62 155.4 168.84 168.63 155.51 180.31 167.29 191.99 155.51 205.21 168.84 193.52 180.62"/>
      <path class="cls-2" d="M99.17,233.97v40.46h-.08v13.57h-17.36C36.66,288,0,251.34,0,206.28v-80.17h27.14v80.17c0,26.78,19.39,49.12,44.88,53.7v-26.01h27.14Z"/>
      <path class="cls-2" d="M161.45,0v27.14h-79.71c-26.74,0-49.06,19.32-53.7,44.74h25.74v27.14h-26.63v.05H0v-17.36C0,36.66,36.66,0,81.73,0h79.71Z"/>
      <g>
        <path class="cls-2" d="M287.68,81.72v80.11h-27.14v-80.11c0-26.75-19.35-49.07-44.79-53.69v26h-27.14v-26.89h-.01V0h17.36c45.07,0,81.73,36.66,81.73,81.72Z"/>
        <path class="cls-2" d="M287.71,188.92v17.36c0,45.06-36.66,81.72-81.72,81.72h-79.76v-27.14h79.76c26.74,0,49.04-19.33,53.69-44.74h-25.88v-27.14h26.77v-.05h27.14Z"/>
      </g>
    </g>
  </g>
</svg>