<?xml version="1.0" encoding="UTF-8"?>
<svg id="Layer_2" data-name="Layer 2" xmlns="http://www.w3.org/2000/svg" viewBox="0 0 288 287.61">
  <defs>
    <style>
      .cls-1 {
        fill: #faa61a;
      }

      .cls-2 {
        fill: #007ac1;
      }
    </style>
  </defs>
  <g id="Layer_1" data-name="Layer 1">
    <g>
      <path class="cls-2" d="M287.33,130.43c-2.08-23.48-10.17-46.37-23.2-66C185.95-53.31,1.16.47,0,143.63c0,79.39,64.58,143.97,143.97,143.97,84.03.45,151.5-73.56,143.36-157.17ZM143.97,260.67c-155.25-6.42-155.23-227.66,0-234.07,60.11,0,109.75,45.59,116.29,103.83,8.22,68.67-47.07,130.69-116.29,130.23Z"/>
      <path class="cls-2" d="M126.2,120.13l14,51.41c.51,1.86,3.05,2.06,3.85.31l9.53-20.91c.25-.56.74-.97,1.34-1.13l22.2-5.96c1.86-.5,2.07-3.05.33-3.85l-48.41-22.28c-1.58-.73-3.3.72-2.84,2.41Z"/>
      <path class="cls-1" d="M287.35,130.43c-2.25,135.58-196.53,158.61-221.29,18.59-4.46-23.41-3.74-46.08-2.92-57.5.33-4.62,3.02-8.75,7.12-10.94,45.06-24.26,102.38-24.27,147.43,0,4.1,2.18,6.79,6.32,7.12,10.94.82,11.4,1.53,34.02-2.98,57.46-3.31,17.63-10.57,38.45-23.75,54.36-14.79,4.55-28.78,3.44-39.71.84,29.75-14.75,40.85-61.07,40.11-95.41,0-2.75-.06-5.34-.13-7.69-16.96-7.75-35.6-11.82-54.37-11.82s-37.43,4.07-54.39,11.82c-1.13,37.61,6.88,83.72,42.34,104.31,56.79,32.98,128.62-8.01,128.3-74.97-2.26-20.61-10.04-39.69-21.72-55.66,0,0,22.02-15.52,22.02-15.52,15.12,20.76,24.51,45.61,26.8,71.19Z"/>
    </g>
  </g>
</svg>