<?xml version="1.0" encoding="UTF-8"?>
<svg id="Layer_3" data-name="Layer 3" xmlns="http://www.w3.org/2000/svg" viewBox="0 0 2821.31 287.61">
  <defs>
    <style>
      .cls-1 {
        fill: #231f20;
      }

      .cls-2 {
        fill: #faa61a;
      }

      .cls-3 {
        fill: #007ac1;
      }
    </style>
  </defs>
  <g id="Layer_1" data-name="Layer 1">
    <g>
      <g>
        <path class="cls-1" d="M345.6,57.41h68.11c31.52,0,57.49,10.03,57.49,45.92,0,18.77-9.68,31.52-27.86,36.71,23.49,4.72,35.06,17.71,35.06,41.67,0,36.83-27.62,48.52-60.08,48.52h-72.71V57.41ZM409.58,129.88c18.77,0,29.39-5.55,29.39-25.85,0-18.89-13.46-23.14-29.87-23.14h-30.81v48.99h31.28ZM414.18,206.73c19.12,0,31.28-7.44,31.28-27.27,0-21.96-14.99-27.39-33.52-27.39h-33.64v54.65h35.88Z"/>
        <path class="cls-1" d="M503.3,103.8h30.22v23.73c8.5-17.35,22.31-25.62,41.55-25.62v27.98c-24.43,0-41.55,8.03-41.55,35.06v65.28h-30.22v-126.42Z"/>
        <path class="cls-1" d="M654.39,101.08c38.36,0,67.87,26.91,67.87,65.63s-31.04,65.87-69.17,65.87-69.41-26.68-69.41-65.28,32.7-66.22,70.71-66.22ZM689.8,166.95c0-23.25-11.8-42.61-36.59-42.61s-35.65,20.3-35.65,43.44,11.92,41.55,36.36,41.55,35.88-20.3,35.88-42.38Z"/>
        <path class="cls-1" d="M730.52,103.8h32.11l25.97,90.66,27.03-90.66h25.14l25.5,90.66,26.44-90.66h29.51l-40.49,126.42h-30.69l-23.84-84.4-25.97,84.4h-30.93l-39.78-126.42Z"/>
        <path class="cls-1" d="M956.09,192.56c4.72,12.39,17.59,18.3,31.28,18.3,9.8,0,21.96-3.07,21.96-14.99,0-12.63-13.69-15.58-29.27-18.89-20.3-4.25-43.09-9.21-43.09-37.54,0-25.97,24.2-38.36,47.1-38.36,20.07,0,42.97,7.55,51.23,27.5l-22.43,9.68c-4.96-11.21-17.35-15.46-27.74-15.46s-19.71,4.01-19.71,14.28c0,11.57,12.39,14.05,27.62,17,20.66,4.01,45.21,8.74,45.21,38.25s-24.91,40.25-51.23,40.25c-22.31,0-46.27-7.55-54.18-30.22l23.25-9.8Z"/>
        <path class="cls-1" d="M1175.28,202.71c-10.5,22.31-33.17,29.86-56.42,29.86-39.9,0-65.04-26.68-65.04-65.99,0-37.07,25.62-65.51,63.62-65.51,40.84,0,60.79,23.84,60.79,72.6h-93.61c0,21.37,12.39,36.95,35.41,36.95,13.69,0,25.02-5.55,31.63-18.42l23.61,10.51ZM1148.14,153.85c-.94-19.12-12.51-30.81-30.34-30.81-19,0-30.1,13.34-32.7,30.81h63.03Z"/>
        <path class="cls-1" d="M1202.55,103.8h30.22v23.73c8.5-17.35,22.31-25.62,41.55-25.62v27.98c-24.43,0-41.55,8.03-41.55,35.06v65.28h-30.22v-126.42Z"/>
        <path class="cls-1" d="M1365.91,178.16c7.08,19.71,24.55,29.86,45.56,29.86,15.94,0,32.7-8.38,32.7-26.44,0-19.12-18.89-22.55-39.9-26.32-26.8-4.84-56.19-10.51-56.19-50.29,0-33.17,29.75-50.05,59.61-50.05,27.62,0,52.06,11.33,62.8,38.25l-24.55,11.1c-7.32-15.23-21.13-24.44-38.6-24.44-14.05,0-28.09,5.9-28.09,22.78,0,18.65,17.47,21.96,38.48,25.73,27.15,4.84,58.31,10.27,58.31,50.64,0,35.06-32.7,53.59-64.57,53.59s-62.21-11.1-71.65-43.2l26.09-11.21Z"/>
        <path class="cls-1" d="M1614.5,202.71c-10.5,22.31-33.17,29.86-56.42,29.86-39.9,0-65.04-26.68-65.04-65.99,0-37.07,25.62-65.51,63.62-65.51,40.84,0,60.79,23.84,60.79,72.6h-93.61c0,21.37,12.39,36.95,35.41,36.95,13.69,0,25.02-5.55,31.63-18.42l23.61,10.51ZM1587.35,153.85c-.94-19.12-12.51-30.81-30.34-30.81-19,0-30.1,13.34-32.7,30.81h63.03Z"/>
        <path class="cls-1" d="M1755.79,194.45c-8.38,26.44-31.99,38.13-58.43,38.13-40.13,0-64.1-26.91-64.1-65.99s26.8-65.51,64.8-65.51c25.62,0,47.69,10.74,57.01,35.53l-24.43,10.74c-5.08-14.17-17.35-22.31-32.58-22.31-24.67,0-33.76,21.37-33.76,43.09s9.8,41.55,34.23,41.55c17.35,0,29.04-9.56,34.23-25.38l23.02,10.15Z"/>
        <path class="cls-1" d="M1864.5,210.39c-7.91,15.35-24.2,22.19-41.67,22.19-29.04,0-44.38-19.12-44.38-47.81v-80.98h30.22v77.32c0,17.23,7.91,27.86,25.5,27.86,18.89,0,30.34-12.16,30.34-30.22v-74.96h30.1v126.42h-30.1v-19.83Z"/>
        <path class="cls-1" d="M1927.77,103.8h30.22v23.73c8.5-17.35,22.31-25.62,41.55-25.62v27.98c-24.43,0-41.55,8.03-41.55,35.06v65.28h-30.22v-126.42Z"/>
        <path class="cls-1" d="M2039.55,50.32c9.8,0,17.59,7.2,17.59,17.23s-7.55,17.12-17.47,17.12-18.06-7.32-18.06-17.23,8.14-17.12,17.94-17.12ZM2024.32,104.03h30.22v126.19h-30.22v-126.19Z"/>
        <path class="cls-1" d="M2152.75,229.27c-6.49,1.89-13.22,3.07-20.78,3.07-24.08,0-38.36-12.51-38.36-37.66v-68.7h-17v-22.19h17v-26.09l30.22-13.1v39.19h27.86v22.19h-27.86v65.99c0,9.92,4.25,16.05,15.35,16.05,4.25,0,8.97-.94,13.57-2.48v23.73Z"/>
        <path class="cls-1" d="M2214.6,217.35l-49.58-113.56h32.34l33.17,80.74,30.93-80.74h29.39l-69.53,169.74h-29.63l22.9-56.19Z"/>
        <path class="cls-1" d="M2365.33,57.41h60.08c36.36,0,64.8,14.64,64.8,54.42,0,43.79-34.59,53.24-71.53,53.24h-19.83v65.16h-33.52V57.41ZM2425.18,140.98c20.66,0,32.34-8.5,32.34-29.39s-12.75-28.8-32.34-28.8h-26.32v58.19h26.32Z"/>
        <path class="cls-1" d="M2513.58,52.57l30.22-13.1v190.76h-30.22V52.57Z"/>
        <path class="cls-1" d="M2662.55,210.39c-7.91,15.35-24.2,22.19-41.67,22.19-29.04,0-44.38-19.12-44.38-47.81v-80.98h30.22v77.32c0,17.23,7.91,27.86,25.5,27.86,18.89,0,30.34-12.16,30.34-30.22v-74.96h30.1v126.42h-30.1v-19.83Z"/>
        <path class="cls-1" d="M2739.16,192.56c4.72,12.39,17.59,18.3,31.28,18.3,9.8,0,21.96-3.07,21.96-14.99,0-12.63-13.69-15.58-29.28-18.89-20.3-4.25-43.08-9.21-43.08-37.54,0-25.97,24.2-38.36,47.1-38.36,20.07,0,42.97,7.55,51.23,27.5l-22.43,9.68c-4.96-11.21-17.35-15.46-27.74-15.46s-19.71,4.01-19.71,14.28c0,11.57,12.39,14.05,27.62,17,20.66,4.01,45.21,8.74,45.21,38.25s-24.91,40.25-51.23,40.25c-22.31,0-46.27-7.55-54.18-30.22l23.25-9.8Z"/>
      </g>
      <g>
        <path class="cls-3" d="M287.33,130.43c-2.08-23.48-10.17-46.37-23.2-66C185.95-53.31,1.16.47,0,143.63c0,79.39,64.58,143.97,143.97,143.97,84.03.45,151.5-73.56,143.36-157.17ZM143.97,260.67c-155.25-6.42-155.23-227.66,0-234.07,60.11,0,109.75,45.59,116.29,103.83,8.22,68.67-47.07,130.69-116.29,130.23Z"/>
        <path class="cls-3" d="M126.2,120.13l14,51.41c.51,1.86,3.05,2.06,3.85.31l9.53-20.91c.25-.56.74-.97,1.34-1.13l22.2-5.96c1.86-.5,2.07-3.05.33-3.85l-48.41-22.28c-1.58-.73-3.3.72-2.84,2.41Z"/>
        <path class="cls-2" d="M287.35,130.43c-2.25,135.58-196.53,158.61-221.29,18.59-4.46-23.41-3.74-46.08-2.92-57.5.33-4.62,3.02-8.75,7.12-10.94,45.06-24.26,102.38-24.27,147.43,0,4.1,2.18,6.79,6.32,7.12,10.94.82,11.4,1.53,34.02-2.98,57.46-3.31,17.63-10.57,38.45-23.75,54.36-14.79,4.55-28.78,3.44-39.71.84,29.75-14.75,40.85-61.07,40.11-95.41,0-2.75-.06-5.34-.13-7.69-16.96-7.75-35.6-11.82-54.37-11.82s-37.43,4.07-54.39,11.82c-1.13,37.61,6.88,83.72,42.34,104.31,56.79,32.98,128.62-8.01,128.3-74.97-2.26-20.61-10.04-39.69-21.72-55.66,0,0,22.02-15.52,22.02-15.52,15.12,20.76,24.51,45.61,26.8,71.19Z"/>
      </g>
    </g>
  </g>
</svg>