<?xml version="1.0" encoding="UTF-8"?>
<svg id="Layer_3" data-name="Layer 3" xmlns="http://www.w3.org/2000/svg" viewBox="0 0 1808.66 287.61">
  <defs>
    <style>
      .cls-1 {
        fill: #231f20;
      }

      .cls-2 {
        fill: #faa61a;
      }

      .cls-3 {
        fill: #007ac1;
      }
    </style>
  </defs>
  <g id="Layer_1" data-name="Layer 1">
    <g>
      <g>
        <path class="cls-1" d="M345.6,28.59h21.13l17.61,46.22,17.18-46.22h20.75v70.64h-15.92v-49.6l-19.54,49.6h-7.24l-19.64-49.6v49.6h-14.33V28.59Z"/>
        <path class="cls-1" d="M465.4,93.01c-3.67,5.45-9.12,7.33-15.25,7.33-10.04,0-17.56-5.02-17.56-15.34,0-13.12,12.26-16.65,23.4-16.65h9.26c0-6.95-.68-11.63-8.78-11.63-4.54,0-9.02,2.07-10.57,6.66l-10.95-4.78c3.38-9.31,13.85-12.26,23.16-12.26,12.5,0,21.28,5.36,21.28,19.2v33.68h-13.99v-6.22ZM459.76,76.79c-5.11,0-13.17.39-13.17,7.33,0,4.58,3.43,6.22,7.58,6.22,5.6,0,11.1-2.94,11.1-9.22v-4.34h-5.5Z"/>
        <path class="cls-1" d="M491.75,47.55h14.33v8.2c3.33-6.37,10.37-9.41,17.47-9.41,12.06,0,17.23,8.73,17.23,19.98v32.91h-14.33v-30.83c0-6.42-2.9-10.37-9.55-10.37-7.09,0-10.81,4.54-10.81,11.39v29.82h-14.33v-51.68Z"/>
        <path class="cls-1" d="M582.61,93.01c-3.67,5.45-9.12,7.33-15.25,7.33-10.04,0-17.56-5.02-17.56-15.34,0-13.12,12.26-16.65,23.4-16.65h9.26c0-6.95-.68-11.63-8.78-11.63-4.54,0-9.02,2.07-10.57,6.66l-10.95-4.78c3.38-9.31,13.85-12.26,23.16-12.26,12.5,0,21.28,5.36,21.28,19.2v33.68h-13.99v-6.22ZM576.96,76.79c-5.11,0-13.17.39-13.17,7.33,0,4.58,3.43,6.22,7.58,6.22,5.6,0,11.1-2.94,11.1-9.22v-4.34h-5.5Z"/>
        <path class="cls-1" d="M618.94,100.92c2.17,5.26,7.67,6.9,13.03,6.9,8.35,0,12.98-4,12.98-12.64v-7.82c-3.38,5.79-9.89,9.6-16.6,9.6-14.67,0-22.53-11.68-22.53-25.38s8.64-25.24,23.11-25.24c6.71,0,12.5,2.56,16.02,8.93v-7.72h14.23v47.62c0,16.84-12.06,23.11-27.21,23.11-9.7,0-20.41-2.56-24.27-12.45l11.24-4.92ZM645.33,71.49c0-8.06-3.91-14.23-12.55-14.23s-12.35,6.8-12.35,15.01c0,7.48,4.1,13.94,12.5,13.94s12.4-6.76,12.4-14.72Z"/>
        <path class="cls-1" d="M719.16,88.18c-4,9.31-14.19,12.16-23.02,12.16-17.08,0-27.45-10.57-27.45-27.12,0-15.49,11-26.88,26.68-26.88,10.04,0,19.06,4.63,22.92,14.09,2.17,5.31,2.17,10.76,2.17,16.16h-37.25c.39,7.96,4.39,13.56,12.83,13.56,5.6,0,9.84-1.45,12.55-6.66l10.57,4.68ZM706.51,67.82c-.39-7.09-3.81-11.58-10.95-11.58s-11.24,4.92-12.16,11.58h23.11Z"/>
        <path class="cls-1" d="M731.7,28.59h44.78v8.78h-33.82v21.52h27.6v8.64h-27.6v22.92h35.51v8.78h-46.47V28.59Z"/>
        <path class="cls-1" d="M789.51,47.51h10.28v8.2c3.09-6.42,9.94-9.17,16.94-9.17,12.55,0,18.43,8.93,18.43,20.84v31.85h-10.28v-31.56c0-7.96-3.76-12.5-11.68-12.5-8.35,0-13.41,5.07-13.41,13.17v30.88h-10.28v-51.72Z"/>
        <path class="cls-1" d="M855.85,102.08c2.7,6.03,9.41,8.01,15.49,8.01,9.51,0,16.12-4.83,16.12-14.81v-7.62c-3.62,6.08-10.9,9.7-17.9,9.7-14.52,0-23.11-11.44-23.11-24.95s9.36-25.86,23.64-25.86c7,0,13.75,2.8,17.37,8.97v-8.01h10.18v48.06c0,15.73-11.82,22.63-26.54,22.63-9.55,0-18.96-2.9-23.35-12.55l8.11-3.57ZM887.74,71.49c0-9.51-5.26-16.84-15.3-16.84-10.57,0-15.54,8.11-15.54,17.8,0,8.73,5.74,16.79,15.01,16.79,10.23,0,15.83-7.96,15.83-17.76Z"/>
        <path class="cls-1" d="M916.36,26.42c3.43,0,6.37,2.65,6.37,6.22s-2.9,6.22-6.37,6.22-6.37-2.75-6.37-6.22,2.9-6.22,6.37-6.22ZM911.39,47.65h10.18v51.58h-10.18v-51.58Z"/>
        <path class="cls-1" d="M937.25,47.51h10.28v8.2c3.09-6.42,9.94-9.17,16.94-9.17,12.55,0,18.43,8.93,18.43,20.84v31.85h-10.28v-31.56c0-7.96-3.76-12.5-11.68-12.5-8.35,0-13.41,5.07-13.41,13.17v30.88h-10.28v-51.72Z"/>
        <path class="cls-1" d="M1042,87.65c-4.54,8.78-12.64,12.55-21.91,12.55-16.31,0-25.91-11.58-25.91-26.63s9.75-27.02,24.99-27.02c18.09,0,23.84,12.83,23.84,28.95h-38.36c0,9.51,5.07,16.74,14.96,16.74,6.32,0,11.15-2.99,13.9-8.2l8.49,3.62ZM1032.84,68.16c-.53-8.35-4.87-13.8-13.27-13.8s-13.46,6.03-14.62,13.8h27.89Z"/>
      </g>
      <g>
        <path class="cls-1" d="M345.6,156.87h40.25c18.63,0,33.97,5.93,33.97,27.14,0,11.09-5.72,18.63-16.46,21.7,13.88,2.79,20.72,10.46,20.72,24.63,0,21.77-16.32,28.67-35.51,28.67h-42.97v-102.13ZM383.41,199.7c11.09,0,17.37-3.28,17.37-15.28,0-11.16-7.95-13.67-17.65-13.67h-18.21v28.95h18.49ZM386.13,245.12c11.3,0,18.49-4.4,18.49-16.12,0-12.98-8.86-16.19-19.81-16.19h-19.88v32.3h21.21Z"/>
        <path class="cls-1" d="M438.79,184.28h17.86v14.02c5.02-10.26,13.19-15.14,24.56-15.14v16.53c-14.44,0-24.56,4.74-24.56,20.72v38.58h-17.86v-74.72Z"/>
        <path class="cls-1" d="M528.08,182.68c22.67,0,40.11,15.91,40.11,38.79s-18.35,38.93-40.88,38.93-41.02-15.77-41.02-38.58,19.32-39.14,41.79-39.14ZM549.01,221.61c0-13.74-6.98-25.18-21.63-25.18s-21.07,12-21.07,25.67,7.05,24.56,21.49,24.56,21.21-12,21.21-25.04Z"/>
        <path class="cls-1" d="M573.07,184.28h18.98l15.35,53.58,15.98-53.58h14.86l15.07,53.58,15.63-53.58h17.44l-23.93,74.72h-18.14l-14.09-49.88-15.35,49.88h-18.28l-23.51-74.72Z"/>
        <path class="cls-1" d="M706.38,236.75c2.79,7.33,10.4,10.81,18.49,10.81,5.79,0,12.98-1.81,12.98-8.86,0-7.46-8.09-9.21-17.3-11.16-12-2.51-25.46-5.44-25.46-22.18,0-15.35,14.3-22.67,27.83-22.67,11.86,0,25.39,4.46,30.28,16.25l-13.25,5.72c-2.93-6.63-10.25-9.14-16.39-9.14s-11.65,2.37-11.65,8.44c0,6.84,7.33,8.3,16.32,10.05,12.21,2.37,26.72,5.16,26.72,22.6s-14.72,23.79-30.28,23.79c-13.19,0-27.35-4.46-32.02-17.86l13.74-5.79Z"/>
        <path class="cls-1" d="M835.92,242.74c-6.21,13.19-19.6,17.65-33.35,17.65-23.58,0-38.44-15.77-38.44-39,0-21.91,15.14-38.72,37.6-38.72,24.14,0,35.93,14.09,35.93,42.9h-55.32c0,12.63,7.33,21.84,20.93,21.84,8.09,0,14.79-3.28,18.7-10.88l13.95,6.21ZM819.87,213.86c-.56-11.3-7.39-18.21-17.93-18.21-11.23,0-17.79,7.88-19.33,18.21h37.25Z"/>
        <path class="cls-1" d="M852.03,184.28h17.86v14.02c5.02-10.26,13.19-15.14,24.56-15.14v16.53c-14.44,0-24.56,4.74-24.56,20.72v38.58h-17.86v-74.72Z"/>
        <path class="cls-1" d="M948.57,228.23c4.19,11.65,14.51,17.65,26.93,17.65,9.42,0,19.32-4.95,19.32-15.63,0-11.3-11.16-13.32-23.58-15.56-15.84-2.86-33.21-6.21-33.21-29.72,0-19.6,17.58-29.58,35.23-29.58,16.32,0,30.77,6.7,37.11,22.6l-14.51,6.56c-4.33-9-12.49-14.44-22.81-14.44-8.3,0-16.6,3.49-16.6,13.46,0,11.02,10.33,12.98,22.74,15.21,16.05,2.86,34.46,6.07,34.46,29.93,0,20.72-19.32,31.67-38.16,31.67s-36.77-6.56-42.35-25.53l15.42-6.63Z"/>
        <path class="cls-1" d="M1095.48,242.74c-6.21,13.19-19.6,17.65-33.35,17.65-23.58,0-38.44-15.77-38.44-39,0-21.91,15.14-38.72,37.6-38.72,24.14,0,35.93,14.09,35.93,42.9h-55.32c0,12.63,7.33,21.84,20.93,21.84,8.09,0,14.79-3.28,18.7-10.88l13.95,6.21ZM1079.43,213.86c-.56-11.3-7.39-18.21-17.93-18.21-11.23,0-17.79,7.88-19.33,18.21h37.25Z"/>
        <path class="cls-1" d="M1178.98,237.86c-4.95,15.63-18.91,22.53-34.53,22.53-23.72,0-37.88-15.91-37.88-39s15.84-38.72,38.3-38.72c15.14,0,28.18,6.35,33.7,21l-14.44,6.35c-3-8.37-10.25-13.19-19.25-13.19-14.58,0-19.95,12.63-19.95,25.46s5.79,24.56,20.23,24.56c10.26,0,17.16-5.65,20.23-15l13.6,6Z"/>
        <path class="cls-1" d="M1243.22,247.28c-4.67,9.07-14.3,13.12-24.63,13.12-17.16,0-26.23-11.3-26.23-28.25v-47.86h17.86v45.69c0,10.19,4.67,16.46,15.07,16.46,11.16,0,17.93-7.19,17.93-17.86v-44.3h17.79v74.72h-17.79v-11.72Z"/>
        <path class="cls-1" d="M1280.61,184.28h17.86v14.02c5.02-10.26,13.19-15.14,24.56-15.14v16.53c-14.44,0-24.56,4.74-24.56,20.72v38.58h-17.86v-74.72Z"/>
        <path class="cls-1" d="M1346.67,152.68c5.79,0,10.39,4.26,10.39,10.19s-4.46,10.12-10.33,10.12-10.67-4.33-10.67-10.19,4.81-10.12,10.6-10.12ZM1337.67,184.42h17.86v74.58h-17.86v-74.58Z"/>
        <path class="cls-1" d="M1413.56,258.44c-3.84,1.12-7.81,1.81-12.28,1.81-14.23,0-22.67-7.4-22.67-22.25v-40.6h-10.05v-13.12h10.05v-15.42l17.86-7.74v23.16h16.46v13.12h-16.46v39c0,5.86,2.51,9.49,9.07,9.49,2.51,0,5.3-.56,8.02-1.47v14.02Z"/>
        <path class="cls-1" d="M1450.11,251.4l-29.3-67.11h19.12l19.6,47.72,18.28-47.72h17.37l-41.09,100.32h-17.51l13.53-33.21Z"/>
        <path class="cls-1" d="M1539.19,156.87h35.51c21.49,0,38.3,8.65,38.3,32.16,0,25.88-20.44,31.46-42.28,31.46h-11.72v38.51h-19.81v-102.13ZM1574.56,206.26c12.21,0,19.12-5.02,19.12-17.37s-7.53-17.02-19.12-17.02h-15.56v34.39h15.56Z"/>
        <path class="cls-1" d="M1626.8,154.01l17.86-7.74v112.74h-17.86v-104.99Z"/>
        <path class="cls-1" d="M1714.84,247.28c-4.67,9.07-14.3,13.12-24.63,13.12-17.16,0-26.23-11.3-26.23-28.25v-47.86h17.86v45.69c0,10.19,4.67,16.46,15.07,16.46,11.16,0,17.93-7.19,17.93-17.86v-44.3h17.79v74.72h-17.79v-11.72Z"/>
        <path class="cls-1" d="M1760.11,236.75c2.79,7.33,10.4,10.81,18.49,10.81,5.79,0,12.98-1.81,12.98-8.86,0-7.46-8.09-9.21-17.3-11.16-12-2.51-25.46-5.44-25.46-22.18,0-15.35,14.3-22.67,27.83-22.67,11.86,0,25.39,4.46,30.28,16.25l-13.25,5.72c-2.93-6.63-10.25-9.14-16.39-9.14s-11.65,2.37-11.65,8.44c0,6.84,7.33,8.3,16.32,10.05,12.21,2.37,26.72,5.16,26.72,22.6s-14.72,23.79-30.28,23.79c-13.19,0-27.35-4.46-32.02-17.86l13.74-5.79Z"/>
      </g>
      <g>
        <path class="cls-3" d="M287.33,130.43c-2.08-23.48-10.17-46.37-23.2-66C185.95-53.31,1.16.47,0,143.63c0,79.39,64.58,143.97,143.97,143.97,84.03.45,151.5-73.56,143.36-157.17ZM143.97,260.67c-155.25-6.42-155.23-227.66,0-234.07,60.11,0,109.75,45.59,116.29,103.83,8.22,68.67-47.07,130.69-116.29,130.23Z"/>
        <path class="cls-3" d="M126.2,120.13l14,51.41c.51,1.86,3.05,2.06,3.85.31l9.53-20.91c.25-.56.74-.97,1.34-1.13l22.2-5.96c1.86-.5,2.07-3.05.33-3.85l-48.41-22.28c-1.58-.73-3.3.72-2.84,2.41Z"/>
        <path class="cls-2" d="M287.35,130.43c-2.25,135.58-196.53,158.61-221.29,18.59-4.46-23.41-3.74-46.08-2.92-57.5.33-4.62,3.02-8.75,7.12-10.94,45.06-24.26,102.38-24.27,147.43,0,4.1,2.18,6.79,6.32,7.12,10.94.82,11.4,1.53,34.02-2.98,57.46-3.31,17.63-10.57,38.45-23.75,54.36-14.79,4.55-28.78,3.44-39.71.84,29.75-14.75,40.85-61.07,40.11-95.41,0-2.75-.06-5.34-.13-7.69-16.96-7.75-35.6-11.82-54.37-11.82s-37.43,4.07-54.39,11.82c-1.13,37.61,6.88,83.72,42.34,104.31,56.79,32.98,128.62-8.01,128.3-74.97-2.26-20.61-10.04-39.69-21.72-55.66,0,0,22.02-15.52,22.02-15.52,15.12,20.76,24.51,45.61,26.8,71.19Z"/>
      </g>
    </g>
  </g>
</svg>