<?xml version="1.0" encoding="UTF-8"?>
<svg id="Layer_2" data-name="Layer 2" xmlns="http://www.w3.org/2000/svg" viewBox="0 0 208.45 288">
  <defs>
    <style>
      .cls-1 {
        fill: #fbad41;
      }

      .cls-2 {
        fill: #009d54;
      }

      .cls-3 {
        fill: #169146;
      }
    </style>
  </defs>
  <g id="Layer_1" data-name="Layer 1">
    <g>
      <g>
        <path class="cls-1" d="M204.92,84.77l-90.7,99.41c-2.46,2.7-5.91,4.29-9.56,4.4-.14,0-.29,0-.43,0-3.49,0-6.86-1.35-9.38-3.79l-35.92-34.72,18.77-19.47,25.92,25.07,60.68-66.51h30.64c3.96,0,7.52-1.7,9.99-4.41Z"/>
        <g>
          <path class="cls-3" d="M164.35,89.11l-.06.07h-1.28c.45,0,.9-.02,1.34-.07Z"/>
          <path class="cls-2" d="M181.41,183.77c0,20.61-8.03,40-22.61,54.57-14.58,14.58-33.96,22.61-54.58,22.61s-40-8.03-54.58-22.61c-14.58-14.58-22.61-33.96-22.61-54.57v-94.6h135.96c.45,0,.9-.02,1.34-.07l-.06.07h30.64c3.96,0,7.52-1.7,9.99-4.41,2.19-2.4,3.53-5.6,3.53-9.11,0-7.47-6.05-13.52-13.52-13.52h-18.4V13.52c0-7.47-6.05-13.52-13.52-13.52H45.45c-7.47,0-13.52,6.05-13.52,13.52v48.61H13.52c-7.47,0-13.52,6.06-13.52,13.52v108.12c0,14.06,2.76,27.71,8.2,40.57,5.25,12.41,12.76,23.56,22.33,33.13,9.57,9.57,20.71,17.08,33.12,22.33,12.86,5.44,26.51,8.2,40.57,8.2s27.71-2.76,40.57-8.2c12.41-5.25,23.56-12.76,33.12-22.33,9.57-9.57,17.08-20.71,22.33-33.13,5.31-12.54,8.06-25.84,8.19-39.54,0-.34,0-.69,0-1.03v-43.69h-27.05v43.69ZM58.97,27.04h90.51v35.09H58.97V27.04Z"/>
        </g>
        <g>
          <rect class="cls-2" x="76.91" y="37.55" width="19.01" height="14.84"/>
          <rect class="cls-2" x="110.94" y="37.55" width="19.01" height="14.84"/>
        </g>
      </g>
      <path class="cls-3" d="M208.45,183.77v1.03h0c0-.34,0-.69,0-1.03Z"/>
    </g>
  </g>
</svg>