<?xml version="1.0" encoding="UTF-8"?>
<svg id="Layer_2" data-name="Layer 2" xmlns="http://www.w3.org/2000/svg" viewBox="0 0 2487.16 288">
  <defs>
    <style>
      .cls-1 {
        fill: #fff;
      }

      .cls-2 {
        fill: #fbad41;
      }

      .cls-3 {
        fill: #009d54;
      }

      .cls-4 {
        fill: #169146;
      }
    </style>
  </defs>
  <g id="Layer_1" data-name="Layer 1">
    <g>
      <g>
        <path class="cls-1" d="M266.05,57.6h58.19c56.42,0,90.77,29.39,90.77,86.88s-36.12,85.93-91.01,85.93h-57.96V57.6ZM323.18,204.33c40.25,0,56.9-23.37,56.9-61.26s-17.59-59.38-57.37-59.38h-23.14v120.64h23.61Z"/>
        <path class="cls-1" d="M553.24,202.91c-10.5,22.31-33.17,29.86-56.42,29.86-39.9,0-65.04-26.68-65.04-65.99,0-37.07,25.62-65.51,63.62-65.51,40.84,0,60.79,23.84,60.79,72.6h-93.61c0,21.37,12.39,36.95,35.41,36.95,13.69,0,25.02-5.55,31.63-18.42l23.61,10.51ZM526.09,154.04c-.94-19.12-12.51-30.81-30.34-30.81-19,0-30.1,13.34-32.7,30.81h63.03Z"/>
        <path class="cls-1" d="M567.05,103.99h32.34l32.7,95.73,32.34-95.73h29.51l-45.56,126.42h-35.41l-45.92-126.42Z"/>
        <path class="cls-1" d="M727.93,50.52c9.8,0,17.59,7.2,17.59,17.23s-7.55,17.12-17.47,17.12-18.06-7.32-18.06-17.23,8.14-17.12,17.94-17.12ZM712.7,104.23h30.22v126.19h-30.22v-126.19Z"/>
        <path class="cls-1" d="M891.18,194.65c-8.38,26.44-31.99,38.13-58.43,38.13-40.13,0-64.1-26.91-64.1-65.99s26.8-65.51,64.8-65.51c25.62,0,47.69,10.74,57.01,35.53l-24.43,10.74c-5.08-14.17-17.35-22.31-32.58-22.31-24.67,0-33.76,21.37-33.76,43.09s9.8,41.55,34.23,41.55c17.35,0,29.04-9.56,34.23-25.38l23.02,10.15Z"/>
        <path class="cls-1" d="M1028.1,202.91c-10.5,22.31-33.17,29.86-56.42,29.86-39.9,0-65.04-26.68-65.04-65.99,0-37.07,25.62-65.51,63.62-65.51,40.84,0,60.79,23.84,60.79,72.6h-93.61c0,21.37,12.39,36.95,35.41,36.95,13.69,0,25.02-5.55,31.63-18.42l23.61,10.51ZM1000.95,154.04c-.94-19.12-12.51-30.81-30.34-30.81-19,0-30.1,13.34-32.7,30.81h63.03Z"/>
        <path class="cls-1" d="M1262.29,182.85c-10.74,32.82-41.67,49.93-75.07,49.93-55.72,0-86.41-35.29-86.41-89.59,0-49.58,34.47-88.06,85.46-88.06,32.7,0,61.26,15.7,74.25,46.63l-27.62,11.69c-7.32-19-24.43-32.23-45.21-32.23-36.59,0-51.7,31.28-51.7,63.15s16.53,61.62,52.53,61.62c22.78,0,39.31-13.81,47.1-34.59l26.68,11.45Z"/>
        <path class="cls-1" d="M1343.02,101.28c38.36,0,67.87,26.91,67.87,65.63s-31.04,65.87-69.17,65.87-69.41-26.68-69.41-65.28,32.7-66.22,70.71-66.22ZM1378.44,167.15c0-23.25-11.8-42.61-36.59-42.61s-35.65,20.3-35.65,43.44,11.92,41.55,36.36,41.55,35.88-20.3,35.88-42.38Z"/>
        <path class="cls-1" d="M1432.97,103.99h30.22v20.07c8.14-15.58,25.14-22.78,42.73-22.78,30.34,0,44.03,21.37,44.03,50.05v79.09h-30.69v-76.14c0-17.71-7.91-28.09-25.85-28.09-19,0-30.22,11.8-30.22,29.98v74.25h-30.22v-126.42Z"/>
        <path class="cls-1" d="M1645.67,229.47c-6.49,1.89-13.22,3.07-20.78,3.07-24.08,0-38.36-12.51-38.36-37.66v-68.7h-17v-22.19h17v-26.09l30.22-13.1v39.19h27.86v22.19h-27.86v65.99c0,9.92,4.25,16.05,15.35,16.05,4.25,0,8.97-.94,13.57-2.48v23.73Z"/>
        <path class="cls-1" d="M1670.81,103.99h30.22v23.73c8.5-17.35,22.31-25.62,41.55-25.62v27.98c-24.43,0-41.55,8.03-41.55,35.06v65.28h-30.22v-126.42Z"/>
        <path class="cls-1" d="M1821.9,101.28c38.36,0,67.87,26.91,67.87,65.63s-31.04,65.87-69.17,65.87-69.41-26.68-69.41-65.28,32.7-66.22,70.71-66.22ZM1857.31,167.15c0-23.25-11.8-42.61-36.59-42.61s-35.65,20.3-35.65,43.44,11.92,41.55,36.36,41.55,35.88-20.3,35.88-42.38Z"/>
        <path class="cls-1" d="M1912.67,52.76l30.22-13.1v190.76h-30.22V52.76Z"/>
        <path class="cls-1" d="M2031.18,57.6h60.08c36.36,0,64.81,14.64,64.81,54.42,0,43.79-34.59,53.24-71.53,53.24h-19.83v65.16h-33.52V57.6ZM2091.03,141.18c20.66,0,32.34-8.5,32.34-29.39s-12.75-28.8-32.34-28.8h-26.32v58.19h26.32Z"/>
        <path class="cls-1" d="M2179.43,52.76l30.22-13.1v190.76h-30.22V52.76Z"/>
        <path class="cls-1" d="M2328.4,210.59c-7.91,15.35-24.2,22.19-41.67,22.19-29.04,0-44.38-19.12-44.38-47.81v-80.98h30.22v77.32c0,17.23,7.91,27.86,25.5,27.86,18.89,0,30.34-12.16,30.34-30.22v-74.96h30.1v126.42h-30.1v-19.83Z"/>
        <path class="cls-1" d="M2405,192.76c4.72,12.39,17.59,18.3,31.28,18.3,9.8,0,21.96-3.07,21.96-14.99,0-12.63-13.69-15.58-29.27-18.89-20.3-4.25-43.09-9.21-43.09-37.54,0-25.97,24.2-38.36,47.1-38.36,20.07,0,42.97,7.55,51.23,27.5l-22.43,9.68c-4.96-11.21-17.35-15.46-27.74-15.46s-19.71,4.01-19.71,14.28c0,11.57,12.39,14.05,27.62,17,20.66,4.01,45.21,8.74,45.21,38.25s-24.91,40.25-51.23,40.25c-22.31,0-46.27-7.55-54.18-30.22l23.25-9.8Z"/>
      </g>
      <g>
        <g>
          <path class="cls-2" d="M204.92,84.77l-90.7,99.41c-2.46,2.7-5.91,4.29-9.56,4.4-.14,0-.29,0-.43,0-3.49,0-6.86-1.35-9.38-3.79l-35.92-34.72,18.77-19.47,25.92,25.07,60.68-66.51h30.64c3.96,0,7.52-1.7,9.99-4.41Z"/>
          <g>
            <path class="cls-4" d="M164.35,89.11l-.06.07h-1.28c.45,0,.9-.02,1.34-.07Z"/>
            <path class="cls-3" d="M181.41,183.77c0,20.61-8.03,40-22.61,54.57-14.58,14.58-33.96,22.61-54.58,22.61s-40-8.03-54.58-22.61c-14.58-14.58-22.61-33.96-22.61-54.57v-94.6h135.96c.45,0,.9-.02,1.34-.07l-.06.07h30.64c3.96,0,7.52-1.7,9.99-4.41,2.19-2.4,3.53-5.6,3.53-9.11,0-7.47-6.05-13.52-13.52-13.52h-18.4V13.52c0-7.47-6.05-13.52-13.52-13.52H45.45c-7.47,0-13.52,6.05-13.52,13.52v48.61H13.52c-7.47,0-13.52,6.06-13.52,13.52v108.12c0,14.06,2.76,27.71,8.2,40.57,5.25,12.41,12.76,23.56,22.33,33.13,9.57,9.57,20.71,17.08,33.12,22.33,12.86,5.44,26.51,8.2,40.57,8.2s27.71-2.76,40.57-8.2c12.41-5.25,23.56-12.76,33.12-22.33,9.57-9.57,17.08-20.71,22.33-33.13,5.31-12.54,8.06-25.84,8.19-39.54,0-.34,0-.69,0-1.03v-43.69h-27.05v43.69ZM58.97,27.04h90.51v35.09H58.97V27.04Z"/>
          </g>
          <g>
            <rect class="cls-3" x="76.91" y="37.55" width="19.01" height="14.84"/>
            <rect class="cls-3" x="110.94" y="37.55" width="19.01" height="14.84"/>
          </g>
        </g>
        <path class="cls-4" d="M208.45,183.77v1.03h0c0-.34,0-.69,0-1.03Z"/>
      </g>
    </g>
  </g>
</svg>