<?xml version="1.0" encoding="UTF-8"?>
<svg id="Layer_2" data-name="Layer 2" xmlns="http://www.w3.org/2000/svg" viewBox="0 0 288.02 288">
  <defs>
    <style>
      .cls-1 {
        fill: #ce1432;
      }

      .cls-2 {
        fill: #007ac1;
      }
    </style>
  </defs>
  <g id="Layer_1" data-name="Layer 1">
    <g>
      <g>
        <g>
          <path class="cls-2" d="M43.25,89.33l6.47,6.47,3.08-21.19,2.75-19.01-28.23,4.09-11.96,1.74,6.46,6.45C7.99,89.98,0,116.08,0,144c0,39.92,16.32,76.09,42.64,102.2l20.75-20.75c-21.01-20.78-34.05-49.62-34.05-81.45,0-19.79,5.04-38.42,13.9-54.67Z"/>
          <path class="cls-1" d="M144,258.66c-20.77,0-40.26-5.54-57.07-15.24l-21.32,21.32c22.56,14.7,49.49,23.26,78.39,23.26s55.86-8.56,78.44-23.29l-21.3-21.31c-16.82,9.7-36.33,15.26-57.13,15.26Z"/>
        </g>
        <path class="cls-2" d="M267.69,217.66c12.91-21.57,20.33-46.77,20.33-73.66C288.02,64.6,223.42,0,144,0c-28.88,0-55.8,8.54-78.36,23.26l21.3,21.31c16.81-9.68,36.3-15.22,57.05-15.22,63.23,0,114.67,51.43,114.67,114.66,0,21.22-5.8,41.13-15.89,58.19h0l-8.18-5.07,1.32,15.34h0l2.17,25.12,22.15-8.69h0l15.65-6.13-8.2-5.1Z"/>
      </g>
      <g>
        <path class="cls-1" d="M216.07,211.67l-1.93.56-4.47,1.32-22.11,6.45c-2.2-7.5-6.34-14.36-11.99-19.86-8.57-8.32-19.88-12.91-31.83-12.91s-22.55,4.33-31.04,12.18c-5.76,5.35-10.07,12.12-12.45,19.56l-28.31-9.03c3.93-12.32,11.03-23.49,20.55-32.32,14-12.98,32.19-20.11,51.24-20.11s38.38,7.56,52.55,21.31c9.33,9.1,16.16,20.44,19.78,32.84Z"/>
        <path class="cls-1" d="M185.84,107.18c-.47-12.61-6.53-23.84-15.76-31.23-7.21-5.82-16.37-9.29-26.34-9.29s-19.33,3.54-26.59,9.48c-9.42,7.67-15.47,19.32-15.54,32.38-.01.09-.01.19-.01.28,0,4.17.61,8.2,1.76,11.99,3.57,12.08,12.45,21.91,23.9,26.78.03.01.06.03.09.04.07.03.15.07.22.09,3.84,1.61,7.95,2.66,12.26,3.03h.01c.07.01.13.03.21.03h.01c1.21.12,2.44.18,3.68.18s2.56-.06,3.83-.19c.09,0,.16,0,.25-.01,4.21-.4,8.23-1.42,11.98-2.98.16-.06.32-.13.49-.21.1-.03.21-.07.31-.13,10.86-4.74,19.33-13.94,23.12-25.27,1.4-4.19,2.17-8.69,2.17-13.34,0-.55-.01-1.08-.04-1.62ZM128.36,106.55c1.09-7.52,7.58-13.29,15.39-13.29s13.71,5.27,15.21,12.29c.22,1.05.34,2.14.34,3.26,0,2.66-.68,5.18-1.86,7.39-2.63,4.86-7.78,8.17-13.69,8.17-6.28,0-11.7-3.74-14.15-9.1-.9-1.96-1.4-4.15-1.4-6.45,0-.77.06-1.52.16-2.26Z"/>
      </g>
    </g>
  </g>
</svg>