<?xml version="1.0" encoding="UTF-8"?>
<svg id="Layer_3" data-name="Layer 3" xmlns="http://www.w3.org/2000/svg" viewBox="0 0 2419.17 288">
  <defs>
    <style>
      .cls-1 {
        fill: #231f20;
      }

      .cls-2 {
        fill: #ce1432;
      }

      .cls-3 {
        fill: #007ac1;
      }
    </style>
  </defs>
  <g id="Layer_1" data-name="Layer 1">
    <g>
      <g>
        <path class="cls-1" d="M345.61,57.6h58.19c56.42,0,90.77,29.39,90.77,86.88s-36.12,85.93-91.01,85.93h-57.96V57.6ZM402.74,204.33c40.25,0,56.9-23.37,56.9-61.26s-17.59-59.38-57.37-59.38h-23.14v120.64h23.61Z"/>
        <path class="cls-1" d="M521.01,57.6h114.85v26.09h-81.33v46.39h66.1v24.67h-66.1v49.58h85.34v26.09h-118.87V57.6Z"/>
        <path class="cls-1" d="M709.99,141.65l-52.17-84.05h37.66l36.83,60.91,36.12-60.91h34.35l-51.23,83.34,55.6,89.48h-37.89l-40.96-67.17-40.25,67.17h-34.11l56.07-88.77Z"/>
        <path class="cls-1" d="M884.8,57.6h42.38l49.81,125.95,49.46-125.95h41.43v172.81h-30.93V98.68l-54.42,131.73h-14.87l-52.65-131.73v131.73h-30.22V57.6Z"/>
        <path class="cls-1" d="M1174.58,214.95c-9.56,12.75-23.61,17.82-39.19,17.82-23.73,0-42.38-12.04-42.38-36.83,0-35.06,37.06-40.61,66.46-40.61h14.87v-2.01c0-18.06-4.25-29.51-24.67-29.51-12.28,0-23.61,6.37-28.09,18.06l-23.49-10.15c8.5-22.31,32.11-30.45,54.65-30.45,29.87,0,51.58,14.4,51.58,46.51v82.63h-29.75v-15.46ZM1159.12,173.87c-13.93,0-36.12,1.65-36.12,20.78,0,12.16,8.85,16.64,20.18,16.64,15.35,0,31.16-8.03,31.16-25.14v-12.28h-15.23Z"/>
        <path class="cls-1" d="M1236.2,103.99h30.22v20.07c8.14-15.58,25.14-22.78,42.73-22.78,30.34,0,44.03,21.37,44.03,50.05v79.09h-30.69v-76.14c0-17.71-7.91-28.09-25.85-28.09-19,0-30.22,11.8-30.22,29.98v74.25h-30.22v-126.42Z"/>
        <path class="cls-1" d="M1457.4,214.95c-9.56,12.75-23.61,17.82-39.19,17.82-23.73,0-42.38-12.04-42.38-36.83,0-35.06,37.06-40.61,66.46-40.61h14.87v-2.01c0-18.06-4.25-29.51-24.67-29.51-12.28,0-23.61,6.37-28.09,18.06l-23.49-10.15c8.5-22.31,32.11-30.45,54.65-30.45,29.87,0,51.58,14.4,51.58,46.51v82.63h-29.75v-15.46ZM1441.94,173.87c-13.93,0-36.12,1.65-36.12,20.78,0,12.16,8.85,16.64,20.18,16.64,15.35,0,31.16-8.03,31.16-25.14v-12.28h-15.23Z"/>
        <path class="cls-1" d="M1538.49,235.96c6.26,14.05,20.89,18.18,34.94,18.18,22.43,0,36-10.74,36-33.64v-18.89c-8.62,14.64-25.5,23.73-42.38,23.73-35.77,0-56.54-28.09-56.54-61.03s22.19-63.03,57.25-63.03c17.12,0,32.82,6.96,41.67,22.07v-19.36h30.34v116.98c0,39.78-29.75,55.83-66.34,55.83-23.49,0-48.63-6.61-58.78-30.46l23.84-10.39ZM1610.61,162.66c0-21.6-11.69-38.13-34.59-38.13-24.2,0-34.47,18.41-34.47,40.37,0,19.71,12.39,37.18,33.41,37.18,23.61,0,35.65-17.47,35.65-39.43Z"/>
        <path class="cls-1" d="M1785.9,202.91c-10.51,22.31-33.17,29.86-56.42,29.86-39.9,0-65.04-26.68-65.04-65.99,0-37.07,25.62-65.51,63.62-65.51,40.84,0,60.79,23.84,60.79,72.6h-93.61c0,21.37,12.39,36.95,35.41,36.95,13.69,0,25.02-5.55,31.63-18.42l23.61,10.51ZM1758.75,154.04c-.94-19.12-12.51-30.81-30.34-30.81-19,0-30.1,13.34-32.7,30.81h63.03Z"/>
        <path class="cls-1" d="M1813.16,103.99h30.22v23.73c8.5-17.35,22.31-25.62,41.55-25.62v27.98c-24.43,0-41.55,8.03-41.55,35.06v65.28h-30.22v-126.42Z"/>
        <path class="cls-1" d="M1963.19,57.6h60.08c36.36,0,64.8,14.64,64.8,54.42,0,43.79-34.59,53.24-71.53,53.24h-19.83v65.16h-33.52V57.6ZM2023.03,141.18c20.66,0,32.34-8.5,32.34-29.39s-12.75-28.8-32.34-28.8h-26.32v58.19h26.32Z"/>
        <path class="cls-1" d="M2111.44,52.76l30.22-13.1v190.76h-30.22V52.76Z"/>
        <path class="cls-1" d="M2260.41,210.58c-7.91,15.35-24.2,22.19-41.67,22.19-29.04,0-44.38-19.12-44.38-47.81v-80.98h30.22v77.32c0,17.23,7.91,27.86,25.5,27.86,18.89,0,30.34-12.16,30.34-30.22v-74.96h30.1v126.42h-30.1v-19.83Z"/>
        <path class="cls-1" d="M2337.01,192.76c4.72,12.39,17.59,18.3,31.28,18.3,9.8,0,21.96-3.07,21.96-14.99,0-12.63-13.69-15.58-29.28-18.89-20.3-4.25-43.08-9.21-43.08-37.54,0-25.97,24.2-38.36,47.1-38.36,20.07,0,42.97,7.55,51.23,27.5l-22.43,9.68c-4.96-11.21-17.35-15.46-27.74-15.46s-19.71,4.01-19.71,14.28c0,11.57,12.39,14.05,27.62,17,20.66,4.01,45.21,8.74,45.21,38.25s-24.91,40.25-51.23,40.25c-22.31,0-46.27-7.55-54.18-30.22l23.25-9.8Z"/>
      </g>
      <g>
        <g>
          <g>
            <path class="cls-3" d="M43.25,89.33l6.47,6.47,3.08-21.19,2.75-19.01-28.23,4.09-11.96,1.74,6.46,6.45C7.99,89.98,0,116.08,0,144c0,39.92,16.32,76.09,42.64,102.2l20.75-20.75c-21.01-20.78-34.05-49.62-34.05-81.45,0-19.79,5.04-38.42,13.9-54.67Z"/>
            <path class="cls-2" d="M144,258.66c-20.77,0-40.26-5.54-57.07-15.24l-21.32,21.32c22.56,14.7,49.49,23.26,78.39,23.26s55.86-8.56,78.44-23.29l-21.3-21.31c-16.82,9.7-36.33,15.26-57.13,15.26Z"/>
          </g>
          <path class="cls-3" d="M267.69,217.66c12.91-21.57,20.33-46.77,20.33-73.66C288.02,64.6,223.42,0,144,0c-28.88,0-55.8,8.54-78.36,23.26l21.3,21.31c16.81-9.68,36.3-15.22,57.05-15.22,63.23,0,114.67,51.43,114.67,114.66,0,21.22-5.8,41.13-15.89,58.19h0l-8.18-5.07,1.32,15.34h0l2.17,25.12,22.15-8.69h0l15.65-6.13-8.2-5.1Z"/>
        </g>
        <g>
          <path class="cls-2" d="M216.07,211.67l-1.93.56-4.47,1.32-22.11,6.45c-2.2-7.5-6.34-14.36-11.99-19.86-8.57-8.32-19.88-12.91-31.83-12.91s-22.55,4.33-31.04,12.18c-5.76,5.35-10.07,12.12-12.45,19.56l-28.31-9.03c3.93-12.32,11.03-23.49,20.55-32.32,14-12.98,32.19-20.11,51.24-20.11s38.38,7.56,52.55,21.31c9.33,9.1,16.16,20.44,19.78,32.84Z"/>
          <path class="cls-2" d="M185.84,107.18c-.47-12.61-6.53-23.84-15.76-31.23-7.21-5.82-16.37-9.29-26.34-9.29s-19.33,3.54-26.59,9.48c-9.42,7.67-15.47,19.32-15.54,32.38-.01.09-.01.19-.01.28,0,4.17.61,8.2,1.76,11.99,3.57,12.08,12.45,21.91,23.9,26.78.03.01.06.03.09.04.07.03.15.07.22.09,3.84,1.61,7.95,2.66,12.26,3.03h.01c.07.01.13.03.21.03h.01c1.21.12,2.44.18,3.68.18s2.56-.06,3.83-.19c.09,0,.16,0,.25-.01,4.21-.4,8.23-1.42,11.98-2.98.16-.06.32-.13.49-.21.1-.03.21-.07.31-.13,10.86-4.74,19.33-13.94,23.12-25.27,1.4-4.19,2.17-8.69,2.17-13.34,0-.55-.01-1.08-.04-1.62ZM128.36,106.55c1.09-7.52,7.58-13.29,15.39-13.29s13.71,5.27,15.21,12.29c.22,1.05.34,2.14.34,3.26,0,2.66-.68,5.18-1.86,7.39-2.63,4.86-7.78,8.17-13.69,8.17-6.28,0-11.7-3.74-14.15-9.1-.9-1.96-1.4-4.15-1.4-6.45,0-.77.06-1.52.16-2.26Z"/>
        </g>
      </g>
    </g>
  </g>
</svg>