<?xml version="1.0" encoding="UTF-8"?>
<svg id="Layer_3" data-name="Layer 3" xmlns="http://www.w3.org/2000/svg" viewBox="0 0 1571.01 288">
  <defs>
    <style>
      .cls-1 {
        fill: #231f20;
      }

      .cls-2 {
        fill: #ce1432;
      }

      .cls-3 {
        fill: #007ac1;
      }
    </style>
  </defs>
  <g id="Layer_1" data-name="Layer 1">
    <g>
      <g>
        <path class="cls-1" d="M345.61,28.79h21.13l17.61,46.22,17.18-46.22h20.75v70.64h-15.92v-49.6l-19.54,49.6h-7.24l-19.64-49.6v49.6h-14.33V28.79Z"/>
        <path class="cls-1" d="M465.41,93.2c-3.67,5.45-9.12,7.33-15.25,7.33-10.04,0-17.56-5.02-17.56-15.34,0-13.12,12.26-16.65,23.4-16.65h9.26c0-6.95-.68-11.63-8.78-11.63-4.54,0-9.02,2.07-10.57,6.66l-10.95-4.78c3.38-9.31,13.85-12.26,23.16-12.26,12.5,0,21.28,5.36,21.28,19.2v33.68h-13.99v-6.22ZM459.77,76.99c-5.11,0-13.17.39-13.17,7.33,0,4.58,3.43,6.22,7.58,6.22,5.6,0,11.1-2.94,11.1-9.22v-4.34h-5.5Z"/>
        <path class="cls-1" d="M491.76,47.75h14.33v8.2c3.33-6.37,10.37-9.41,17.47-9.41,12.06,0,17.23,8.73,17.23,19.98v32.91h-14.33v-30.83c0-6.42-2.9-10.37-9.55-10.37-7.09,0-10.81,4.54-10.81,11.39v29.82h-14.33v-51.68Z"/>
        <path class="cls-1" d="M582.61,93.2c-3.67,5.45-9.12,7.33-15.25,7.33-10.04,0-17.56-5.02-17.56-15.34,0-13.12,12.26-16.65,23.4-16.65h9.26c0-6.95-.68-11.63-8.78-11.63-4.54,0-9.02,2.07-10.57,6.66l-10.95-4.78c3.38-9.31,13.85-12.26,23.16-12.26,12.5,0,21.28,5.36,21.28,19.2v33.68h-13.99v-6.22ZM576.97,76.99c-5.11,0-13.17.39-13.17,7.33,0,4.58,3.43,6.22,7.58,6.22,5.6,0,11.1-2.94,11.1-9.22v-4.34h-5.5Z"/>
        <path class="cls-1" d="M618.95,101.12c2.17,5.26,7.67,6.9,13.03,6.9,8.35,0,12.98-4,12.98-12.64v-7.82c-3.38,5.79-9.89,9.6-16.6,9.6-14.67,0-22.53-11.68-22.53-25.38s8.64-25.24,23.11-25.24c6.71,0,12.5,2.56,16.02,8.93v-7.72h14.23v47.62c0,16.84-12.06,23.11-27.21,23.11-9.7,0-20.41-2.56-24.27-12.45l11.24-4.92ZM645.34,71.68c0-8.06-3.91-14.23-12.55-14.23s-12.35,6.8-12.35,15.01c0,7.48,4.1,13.94,12.5,13.94s12.4-6.76,12.4-14.72Z"/>
        <path class="cls-1" d="M719.16,88.38c-4,9.31-14.19,12.16-23.02,12.16-17.08,0-27.45-10.57-27.45-27.12,0-15.49,11-26.88,26.68-26.88,10.04,0,19.06,4.63,22.92,14.09,2.17,5.31,2.17,10.76,2.17,16.16h-37.25c.39,7.96,4.39,13.56,12.83,13.56,5.6,0,9.84-1.45,12.55-6.66l10.57,4.68ZM706.52,68.02c-.39-7.09-3.81-11.58-10.95-11.58s-11.24,4.92-12.16,11.58h23.11Z"/>
        <path class="cls-1" d="M731.71,28.79h44.78v8.78h-33.82v21.52h27.6v8.64h-27.6v22.92h35.51v8.78h-46.47V28.79Z"/>
        <path class="cls-1" d="M789.51,47.7h10.28v8.2c3.09-6.42,9.94-9.17,16.94-9.17,12.55,0,18.43,8.93,18.43,20.84v31.85h-10.28v-31.56c0-7.96-3.76-12.5-11.68-12.5-8.35,0-13.41,5.07-13.41,13.17v30.88h-10.28v-51.72Z"/>
        <path class="cls-1" d="M855.86,102.27c2.7,6.03,9.41,8.01,15.49,8.01,9.51,0,16.12-4.83,16.12-14.81v-7.62c-3.62,6.08-10.9,9.7-17.9,9.7-14.52,0-23.11-11.44-23.11-24.95s9.36-25.86,23.64-25.86c7,0,13.75,2.8,17.37,8.97v-8.01h10.18v48.06c0,15.73-11.82,22.63-26.54,22.63-9.55,0-18.96-2.9-23.35-12.55l8.11-3.57ZM887.75,71.68c0-9.51-5.26-16.84-15.3-16.84-10.57,0-15.54,8.11-15.54,17.8,0,8.73,5.74,16.79,15.01,16.79,10.23,0,15.83-7.96,15.83-17.76Z"/>
        <path class="cls-1" d="M916.37,26.62c3.43,0,6.37,2.65,6.37,6.22s-2.9,6.22-6.37,6.22-6.37-2.75-6.37-6.22,2.9-6.22,6.37-6.22ZM911.4,47.85h10.18v51.58h-10.18v-51.58Z"/>
        <path class="cls-1" d="M937.26,47.7h10.28v8.2c3.09-6.42,9.94-9.17,16.94-9.17,12.55,0,18.43,8.93,18.43,20.84v31.85h-10.28v-31.56c0-7.96-3.76-12.5-11.68-12.5-8.35,0-13.41,5.07-13.41,13.17v30.88h-10.28v-51.72Z"/>
        <path class="cls-1" d="M1042.01,87.85c-4.54,8.78-12.64,12.55-21.91,12.55-16.31,0-25.91-11.58-25.91-26.63s9.75-27.02,24.99-27.02c18.09,0,23.84,12.83,23.84,28.95h-38.36c0,9.51,5.07,16.74,14.96,16.74,6.32,0,11.15-2.99,13.9-8.2l8.49,3.62ZM1032.84,68.35c-.53-8.35-4.87-13.8-13.27-13.8s-13.46,6.03-14.62,13.8h27.89Z"/>
      </g>
      <g>
        <path class="cls-1" d="M345.61,157.06h34.39c33.35,0,53.65,17.37,53.65,51.35s-21.35,50.79-53.79,50.79h-34.25v-102.13ZM379.37,243.78c23.79,0,33.63-13.81,33.63-36.21s-10.39-35.09-33.9-35.09h-13.67v71.3h13.95Z"/>
        <path class="cls-1" d="M449.26,157.06h67.88v15.42h-48.07v27.42h39.07v14.58h-39.07v29.3h50.44v15.42h-70.25v-102.13Z"/>
        <path class="cls-1" d="M560.95,206.73l-30.83-49.67h22.25l21.77,36,21.35-36h20.3l-30.28,49.25,32.86,52.88h-22.39l-24.21-39.7-23.79,39.7h-20.16l33.14-52.46Z"/>
        <path class="cls-1" d="M664.25,157.06h25.04l29.44,74.44,29.23-74.44h24.49v102.13h-18.28v-77.86l-32.16,77.86h-8.79l-31.12-77.86v77.86h-17.86v-102.13Z"/>
        <path class="cls-1" d="M835.51,250.06c-5.65,7.53-13.95,10.53-23.16,10.53-14.02,0-25.04-7.12-25.04-21.77,0-20.72,21.91-24,39.28-24h8.79v-1.19c0-10.67-2.51-17.44-14.58-17.44-7.25,0-13.95,3.77-16.6,10.67l-13.88-6c5.02-13.19,18.98-18,32.3-18,17.65,0,30.49,8.51,30.49,27.49v48.83h-17.58v-9.14ZM826.37,225.78c-8.23,0-21.35.98-21.35,12.28,0,7.19,5.23,9.84,11.93,9.84,9.07,0,18.42-4.74,18.42-14.86v-7.26h-9Z"/>
        <path class="cls-1" d="M871.91,184.48h17.86v11.86c4.81-9.21,14.86-13.46,25.25-13.46,17.93,0,26.02,12.63,26.02,29.58v46.74h-18.14v-45c0-10.46-4.67-16.6-15.28-16.6-11.23,0-17.86,6.98-17.86,17.72v43.88h-17.86v-74.72Z"/>
        <path class="cls-1" d="M1002.64,250.06c-5.65,7.53-13.95,10.53-23.16,10.53-14.02,0-25.04-7.12-25.04-21.77,0-20.72,21.91-24,39.28-24h8.79v-1.19c0-10.67-2.51-17.44-14.58-17.44-7.25,0-13.95,3.77-16.6,10.67l-13.88-6c5.02-13.19,18.98-18,32.3-18,17.65,0,30.49,8.51,30.49,27.49v48.83h-17.58v-9.14ZM993.5,225.78c-8.23,0-21.35.98-21.35,12.28,0,7.19,5.23,9.84,11.93,9.84,9.07,0,18.42-4.74,18.42-14.86v-7.26h-9Z"/>
        <path class="cls-1" d="M1050.56,262.48c3.7,8.3,12.35,10.74,20.65,10.74,13.25,0,21.28-6.35,21.28-19.88v-11.16c-5.09,8.65-15.07,14.02-25.04,14.02-21.14,0-33.42-16.6-33.42-36.07s13.12-37.25,33.84-37.25c10.12,0,19.39,4.12,24.63,13.05v-11.44h17.93v69.14c0,23.51-17.58,33-39.21,33-13.88,0-28.74-3.91-34.74-18l14.09-6.14ZM1093.19,219.15c0-12.77-6.91-22.53-20.44-22.53-14.3,0-20.37,10.88-20.37,23.86,0,11.65,7.33,21.98,19.74,21.98,13.95,0,21.07-10.32,21.07-23.3Z"/>
        <path class="cls-1" d="M1196.77,242.94c-6.21,13.19-19.6,17.65-33.35,17.65-23.58,0-38.44-15.77-38.44-39,0-21.91,15.14-38.72,37.6-38.72,24.14,0,35.93,14.09,35.93,42.9h-55.32c0,12.63,7.33,21.84,20.93,21.84,8.09,0,14.79-3.28,18.7-10.88l13.95,6.21ZM1180.73,214.06c-.56-11.3-7.39-18.21-17.93-18.21-11.23,0-17.79,7.88-19.33,18.21h37.25Z"/>
        <path class="cls-1" d="M1212.88,184.48h17.86v14.02c5.02-10.26,13.19-15.14,24.56-15.14v16.53c-14.44,0-24.56,4.74-24.56,20.72v38.58h-17.86v-74.72Z"/>
        <path class="cls-1" d="M1301.54,157.06h35.51c21.49,0,38.3,8.65,38.3,32.16,0,25.88-20.44,31.46-42.28,31.46h-11.72v38.51h-19.81v-102.13ZM1336.91,206.46c12.21,0,19.12-5.02,19.12-17.37s-7.53-17.02-19.12-17.02h-15.56v34.39h15.56Z"/>
        <path class="cls-1" d="M1389.15,154.2l17.86-7.74v112.74h-17.86v-104.99Z"/>
        <path class="cls-1" d="M1477.19,247.48c-4.67,9.07-14.3,13.12-24.63,13.12-17.16,0-26.23-11.3-26.23-28.25v-47.86h17.86v45.69c0,10.19,4.67,16.46,15.07,16.46,11.16,0,17.93-7.19,17.93-17.86v-44.3h17.79v74.72h-17.79v-11.72Z"/>
        <path class="cls-1" d="M1522.46,236.94c2.79,7.33,10.4,10.81,18.49,10.81,5.79,0,12.98-1.81,12.98-8.86,0-7.46-8.09-9.21-17.3-11.16-12-2.51-25.46-5.44-25.46-22.18,0-15.35,14.3-22.67,27.83-22.67,11.86,0,25.39,4.46,30.28,16.25l-13.25,5.72c-2.93-6.63-10.25-9.14-16.39-9.14s-11.65,2.37-11.65,8.44c0,6.84,7.33,8.3,16.32,10.05,12.21,2.37,26.72,5.16,26.72,22.6s-14.72,23.79-30.28,23.79c-13.19,0-27.35-4.46-32.02-17.86l13.74-5.79Z"/>
      </g>
      <g>
        <g>
          <g>
            <path class="cls-3" d="M43.25,89.33l6.47,6.47,3.08-21.19,2.75-19.01-28.23,4.09-11.96,1.74,6.46,6.45C7.99,89.98,0,116.08,0,144c0,39.92,16.32,76.09,42.64,102.2l20.75-20.75c-21.01-20.78-34.05-49.62-34.05-81.45,0-19.79,5.04-38.42,13.9-54.67Z"/>
            <path class="cls-2" d="M144,258.66c-20.77,0-40.26-5.54-57.07-15.24l-21.32,21.32c22.56,14.7,49.49,23.26,78.39,23.26s55.86-8.56,78.44-23.29l-21.3-21.31c-16.82,9.7-36.33,15.26-57.13,15.26Z"/>
          </g>
          <path class="cls-3" d="M267.69,217.66c12.91-21.57,20.33-46.77,20.33-73.66C288.02,64.6,223.42,0,144,0c-28.88,0-55.8,8.54-78.36,23.26l21.3,21.31c16.81-9.68,36.3-15.22,57.05-15.22,63.23,0,114.67,51.43,114.67,114.66,0,21.22-5.8,41.13-15.89,58.19h0l-8.18-5.07,1.32,15.34h0l2.17,25.12,22.15-8.69h0l15.65-6.13-8.2-5.1Z"/>
        </g>
        <g>
          <path class="cls-2" d="M216.07,211.67l-1.93.56-4.47,1.32-22.11,6.45c-2.2-7.5-6.34-14.36-11.99-19.86-8.57-8.32-19.88-12.91-31.83-12.91s-22.55,4.33-31.04,12.18c-5.76,5.35-10.07,12.12-12.45,19.56l-28.31-9.03c3.93-12.32,11.03-23.49,20.55-32.32,14-12.98,32.19-20.11,51.24-20.11s38.38,7.56,52.55,21.31c9.33,9.1,16.16,20.44,19.78,32.84Z"/>
          <path class="cls-2" d="M185.84,107.18c-.47-12.61-6.53-23.84-15.76-31.23-7.21-5.82-16.37-9.29-26.34-9.29s-19.33,3.54-26.59,9.48c-9.42,7.67-15.47,19.32-15.54,32.38-.01.09-.01.19-.01.28,0,4.17.61,8.2,1.76,11.99,3.57,12.08,12.45,21.91,23.9,26.78.03.01.06.03.09.04.07.03.15.07.22.09,3.84,1.61,7.95,2.66,12.26,3.03h.01c.07.01.13.03.21.03h.01c1.21.12,2.44.18,3.68.18s2.56-.06,3.83-.19c.09,0,.16,0,.25-.01,4.21-.4,8.23-1.42,11.98-2.98.16-.06.32-.13.49-.21.1-.03.21-.07.31-.13,10.86-4.74,19.33-13.94,23.12-25.27,1.4-4.19,2.17-8.69,2.17-13.34,0-.55-.01-1.08-.04-1.62ZM128.36,106.55c1.09-7.52,7.58-13.29,15.39-13.29s13.71,5.27,15.21,12.29c.22,1.05.34,2.14.34,3.26,0,2.66-.68,5.18-1.86,7.39-2.63,4.86-7.78,8.17-13.69,8.17-6.28,0-11.7-3.74-14.15-9.1-.9-1.96-1.4-4.15-1.4-6.45,0-.77.06-1.52.16-2.26Z"/>
        </g>
      </g>
    </g>
  </g>
</svg>