<?xml version="1.0" encoding="UTF-8"?>
<svg id="Layer_1" data-name="Layer 1" xmlns="http://www.w3.org/2000/svg" xmlns:xlink="http://www.w3.org/1999/xlink" viewBox="0 0 1024 1024">
  <defs>
    <style>
      .cls-1 {
        fill: none;
      }

      .cls-2 {
        stroke-width: 10.56px;
      }

      .cls-2, .cls-3, .cls-4 {
        fill: #226eb3;
      }

      .cls-2, .cls-4 {
        stroke: #226eb3;
        stroke-miterlimit: 10;
      }

      .cls-5 {
        fill: url(#linear-gradient-2);
      }

      .cls-6 {
        fill: #faa61a;
      }

      .cls-7 {
        fill: url(#linear-gradient);
      }

      .cls-8 {
        clip-path: url(#clippath-1);
      }

      .cls-9 {
        fill: #ce1432;
      }

      .cls-10 {
        fill: #009d54;
      }

      .cls-11 {
        clip-path: url(#clippath);
      }

      .cls-4 {
        stroke-width: 1.06px;
      }

      .cls-12 {
        fill: #007ac1;
      }
    </style>
    <clipPath id="clippath">
      <rect class="cls-1" x="147" y="147" width="730" height="730"/>
    </clipPath>
    <clipPath id="clippath-1">
      <rect class="cls-1" x="147" y="147" width="730" height="730"/>
    </clipPath>
    <linearGradient id="linear-gradient" x1="756.11" y1="394.09" x2="756.11" y2="144.48" gradientUnits="userSpaceOnUse">
      <stop offset="0" stop-color="#fff"/>
      <stop offset="1" stop-color="#e0e0e0"/>
    </linearGradient>
    <linearGradient id="linear-gradient-2" x1="756.11" y1="134.85" x2="756.11" y2="394.67" xlink:href="#linear-gradient"/>
  </defs>
  <g class="cls-11">
    <g class="cls-8">
      <path class="cls-6" d="M512.01,461.27c-8.96,0-17.75-3.49-24.33-10.07l-146.08-146.08,48.65-48.65,87.36,87.36v-196.82h68.8v279.87c0,13.92-8.38,26.45-21.23,31.78-4.26,1.77-8.73,2.62-13.16,2.62"/>
      <path class="cls-10" d="M546.39,877h-68.79v-279.87c0-13.92,8.38-26.46,21.23-31.78,12.86-5.33,27.65-2.38,37.49,7.45l146.08,146.08-48.65,48.65-87.36-87.36v196.83Z"/>
      <path class="cls-9" d="M877,546.41h-279.87c-13.92,0-26.46-8.38-31.78-21.23-5.33-12.85-2.38-27.65,7.45-37.49l146.08-146.08,48.65,48.65-87.36,87.36h196.83v68.79Z"/>
      <path class="cls-12" d="M305.11,682.4l-48.65-48.65,87.36-87.36h-196.83v-68.79h279.87c13.91,0,26.45,8.38,31.78,21.23,5.33,12.85,2.38,27.65-7.45,37.49l-146.08,146.08Z"/>
    </g>
  </g>
  <g>
    <ellipse class="cls-7" cx="756.11" cy="264.76" rx="130.04" ry="129.91"/>
    <path class="cls-5" d="M756.11,143.2c32.5,0,63.06,12.65,86.05,35.61,22.98,22.96,35.64,53.49,35.64,85.95s-12.66,62.99-35.64,85.95c-22.98,22.96-53.54,35.61-86.05,35.61s-63.06-12.65-86.05-35.61c-22.98-22.96-35.64-53.49-35.64-85.95s12.66-62.99,35.64-85.95c22.98-22.96,53.54-35.61,86.05-35.61M756.11,134.85c-71.82,0-130.04,58.16-130.04,129.91s58.22,129.91,130.04,129.91,130.04-58.16,130.04-129.91-58.22-129.91-130.04-129.91h0Z"/>
    <g>
      <g>
        <circle class="cls-3" cx="741.3" cy="232.52" r="30.86"/>
        <circle class="cls-3" cx="684.08" cy="281.36" r="19.02"/>
        <circle class="cls-3" cx="833.54" cy="281.24" r="21.9"/>
        <line class="cls-3" x1="741.29" y1="235.17" x2="685.21" y2="278.47"/>
        <line class="cls-3" x1="741.29" y1="235.17" x2="831.96" y2="283.46"/>
      </g>
      <g>
        <circle class="cls-4" cx="741.3" cy="232.52" r="30.86"/>
        <circle class="cls-4" cx="684.08" cy="281.36" r="19.02"/>
        <circle class="cls-4" cx="833.54" cy="281.24" r="21.9"/>
        <line class="cls-2" x1="741.29" y1="235.17" x2="685.21" y2="278.47"/>
        <line class="cls-2" x1="741.29" y1="235.17" x2="831.96" y2="283.46"/>
      </g>
    </g>
  </g>
</svg>