<?xml version="1.0" encoding="UTF-8"?>
<svg id="Layer_2" data-name="Layer 2" xmlns="http://www.w3.org/2000/svg" viewBox="0 0 1478.51 288">
  <defs>
    <style>
      .cls-1 {
        fill: #faa61a;
      }

      .cls-2 {
        fill: #fff;
      }

      .cls-3 {
        fill: #ce1432;
      }

      .cls-4 {
        fill: #009d54;
      }

      .cls-5 {
        fill: #007ac1;
      }
    </style>
  </defs>
  <g id="Layer_1" data-name="Layer 1">
    <g>
      <g>
        <path class="cls-2" d="M345.6,28.81h21.13l17.61,46.22,17.18-46.22h20.75v70.64h-15.92v-49.6l-19.54,49.6h-7.24l-19.64-49.6v49.6h-14.33V28.81Z"/>
        <path class="cls-2" d="M465.4,93.23c-3.67,5.45-9.12,7.33-15.25,7.33-10.04,0-17.56-5.02-17.56-15.34,0-13.12,12.26-16.65,23.4-16.65h9.26c0-6.95-.68-11.63-8.78-11.63-4.54,0-9.02,2.07-10.57,6.66l-10.95-4.78c3.38-9.31,13.85-12.26,23.16-12.26,12.5,0,21.28,5.36,21.28,19.2v33.68h-13.99v-6.22ZM459.76,77.02c-5.11,0-13.17.39-13.17,7.33,0,4.58,3.43,6.22,7.58,6.22,5.6,0,11.1-2.94,11.1-9.22v-4.34h-5.5Z"/>
        <path class="cls-2" d="M491.75,47.78h14.33v8.2c3.33-6.37,10.37-9.41,17.47-9.41,12.06,0,17.23,8.73,17.23,19.98v32.91h-14.33v-30.83c0-6.42-2.9-10.37-9.55-10.37-7.09,0-10.81,4.54-10.81,11.39v29.82h-14.33v-51.68Z"/>
        <path class="cls-2" d="M582.61,93.23c-3.67,5.45-9.12,7.33-15.25,7.33-10.04,0-17.56-5.02-17.56-15.34,0-13.12,12.26-16.65,23.4-16.65h9.26c0-6.95-.68-11.63-8.78-11.63-4.54,0-9.02,2.07-10.57,6.66l-10.95-4.78c3.38-9.31,13.85-12.26,23.16-12.26,12.5,0,21.28,5.36,21.28,19.2v33.68h-13.99v-6.22ZM576.96,77.02c-5.11,0-13.17.39-13.17,7.33,0,4.58,3.43,6.22,7.58,6.22,5.6,0,11.1-2.94,11.1-9.22v-4.34h-5.5Z"/>
        <path class="cls-2" d="M618.94,101.14c2.17,5.26,7.67,6.9,13.03,6.9,8.35,0,12.98-4,12.98-12.64v-7.82c-3.38,5.79-9.89,9.6-16.6,9.6-14.67,0-22.53-11.68-22.53-25.38s8.64-25.24,23.11-25.24c6.71,0,12.5,2.56,16.02,8.93v-7.72h14.23v47.62c0,16.84-12.06,23.11-27.21,23.11-9.7,0-20.41-2.56-24.27-12.45l11.24-4.92ZM645.33,71.71c0-8.06-3.91-14.23-12.55-14.23s-12.35,6.8-12.35,15.01c0,7.48,4.1,13.94,12.5,13.94s12.4-6.76,12.4-14.72Z"/>
        <path class="cls-2" d="M719.16,88.4c-4,9.31-14.19,12.16-23.02,12.16-17.08,0-27.45-10.57-27.45-27.12,0-15.49,11-26.88,26.68-26.88,10.04,0,19.06,4.63,22.92,14.09,2.17,5.31,2.17,10.76,2.17,16.16h-37.25c.39,7.96,4.39,13.56,12.83,13.56,5.6,0,9.84-1.45,12.55-6.66l10.57,4.68ZM706.51,68.04c-.39-7.09-3.81-11.58-10.95-11.58s-11.24,4.92-12.16,11.58h23.11Z"/>
        <path class="cls-2" d="M731.7,28.81h44.78v8.78h-33.82v21.52h27.6v8.64h-27.6v22.92h35.51v8.78h-46.47V28.81Z"/>
        <path class="cls-2" d="M789.51,47.73h10.28v8.2c3.09-6.42,9.94-9.17,16.94-9.17,12.55,0,18.43,8.93,18.43,20.84v31.85h-10.28v-31.56c0-7.96-3.76-12.5-11.68-12.5-8.35,0-13.41,5.07-13.41,13.17v30.88h-10.28v-51.72Z"/>
        <path class="cls-2" d="M855.85,102.3c2.7,6.03,9.41,8.01,15.49,8.01,9.51,0,16.12-4.83,16.12-14.81v-7.62c-3.62,6.08-10.9,9.7-17.9,9.7-14.52,0-23.11-11.44-23.11-24.95s9.36-25.86,23.64-25.86c7,0,13.75,2.8,17.37,8.97v-8.01h10.18v48.06c0,15.73-11.82,22.63-26.54,22.63-9.55,0-18.96-2.9-23.35-12.55l8.11-3.57ZM887.74,71.71c0-9.51-5.26-16.84-15.3-16.84-10.57,0-15.54,8.11-15.54,17.8,0,8.73,5.74,16.79,15.01,16.79,10.23,0,15.83-7.96,15.83-17.76Z"/>
        <path class="cls-2" d="M916.36,26.64c3.43,0,6.37,2.65,6.37,6.22s-2.9,6.22-6.37,6.22-6.37-2.75-6.37-6.22,2.9-6.22,6.37-6.22ZM911.39,47.87h10.18v51.58h-10.18v-51.58Z"/>
        <path class="cls-2" d="M937.25,47.73h10.28v8.2c3.09-6.42,9.94-9.17,16.94-9.17,12.55,0,18.43,8.93,18.43,20.84v31.85h-10.28v-31.56c0-7.96-3.76-12.5-11.68-12.5-8.35,0-13.41,5.07-13.41,13.17v30.88h-10.28v-51.72Z"/>
        <path class="cls-2" d="M1042,87.87c-4.54,8.78-12.64,12.55-21.91,12.55-16.31,0-25.91-11.58-25.91-26.63s9.75-27.02,24.99-27.02c18.09,0,23.84,12.83,23.84,28.95h-38.36c0,9.51,5.07,16.74,14.96,16.74,6.32,0,11.15-2.99,13.9-8.2l8.49,3.62ZM1032.84,68.38c-.53-8.35-4.87-13.8-13.27-13.8s-13.46,6.03-14.62,13.8h27.89Z"/>
      </g>
      <g>
        <path class="cls-2" d="M345.6,157.06h67.88v15.42h-48.07v27.42h39.07v14.58h-39.07v29.3h50.44v15.42h-70.25v-102.13Z"/>
        <path class="cls-2" d="M430,184.48h17.86v11.86c4.81-9.21,14.86-13.46,25.25-13.46,17.93,0,26.02,12.63,26.02,29.58v46.74h-18.14v-45c0-10.46-4.67-16.6-15.28-16.6-11.23,0-17.86,6.98-17.86,17.72v43.88h-17.86v-74.72Z"/>
        <path class="cls-2" d="M572.45,246.64c-4.95,8.65-16.12,13.95-25.88,13.95-22.88,0-33.56-17.72-33.56-38.72s12.14-39,34.11-39c10.33,0,20.09,4.12,25.32,13.12v-45.35h17.79v108.55h-17.79v-12.56ZM572.87,221.17c0-13.53-6-24.35-20.79-24.35-15.63,0-20.86,12.14-20.86,25.81,0,12.56,6.14,24,20.72,24s20.93-11.72,20.93-25.46Z"/>
        <path class="cls-2" d="M609.83,184.48h17.86v12.07c5.16-8.72,15.63-13.67,25.6-13.67,22.81,0,33.83,18.35,33.83,38.72s-11.72,39-33.35,39c-10.46,0-21.07-4.19-26.09-13.12v37.32h-17.86v-100.32ZM668.71,221.17c0-12.63-6.28-24.35-20.93-24.35s-20.72,11.79-20.72,25.25,6.42,24.56,21.28,24.56c15.77,0,20.37-11.72,20.37-25.46Z"/>
        <path class="cls-2" d="M736.23,182.87c22.67,0,40.11,15.91,40.11,38.79s-18.35,38.93-40.88,38.93-41.02-15.77-41.02-38.58,19.32-39.14,41.79-39.14ZM757.16,221.8c0-13.74-6.98-25.18-21.63-25.18s-21.07,12-21.07,25.67,7.05,24.56,21.49,24.56,21.21-12,21.21-25.04Z"/>
        <path class="cls-2" d="M798.87,152.88c5.79,0,10.39,4.26,10.39,10.19s-4.46,10.12-10.33,10.12-10.67-4.33-10.67-10.19,4.81-10.12,10.6-10.12ZM789.87,184.62h17.86v74.58h-17.86v-74.58Z"/>
        <path class="cls-2" d="M827.96,184.48h17.86v11.86c4.81-9.21,14.86-13.46,25.25-13.46,17.93,0,26.02,12.63,26.02,29.58v46.74h-18.14v-45c0-10.46-4.67-16.6-15.28-16.6-11.23,0-17.86,6.98-17.86,17.72v43.88h-17.86v-74.72Z"/>
        <path class="cls-2" d="M953.66,258.64c-3.84,1.12-7.81,1.81-12.28,1.81-14.23,0-22.67-7.4-22.67-22.25v-40.6h-10.05v-13.12h10.05v-15.42l17.86-7.74v23.16h16.46v13.12h-16.46v39c0,5.86,2.51,9.49,9.07,9.49,2.51,0,5.3-.56,8.02-1.47v14.02Z"/>
        <path class="cls-2" d="M1090.81,231.08c-6.35,19.39-24.63,29.51-44.37,29.51-32.93,0-51.07-20.86-51.07-52.95,0-29.3,20.37-52.04,50.51-52.04,19.33,0,36.21,9.28,43.88,27.56l-16.33,6.91c-4.33-11.23-14.44-19.05-26.72-19.05-21.63,0-30.56,18.49-30.56,37.32s9.77,36.42,31.04,36.42c13.46,0,23.23-8.16,27.83-20.44l15.77,6.77Z"/>
        <path class="cls-2" d="M1170.82,242.94c-6.21,13.19-19.6,17.65-33.35,17.65-23.58,0-38.44-15.77-38.44-39,0-21.91,15.14-38.72,37.6-38.72,24.14,0,35.93,14.09,35.93,42.9h-55.32c0,12.63,7.33,21.84,20.93,21.84,8.09,0,14.79-3.28,18.7-10.88l13.95,6.21ZM1154.77,214.06c-.56-11.3-7.39-18.21-17.93-18.21-11.23,0-17.79,7.88-19.33,18.21h37.25Z"/>
        <path class="cls-2" d="M1186.92,184.48h17.86v11.86c4.81-9.21,14.86-13.46,25.25-13.46,17.93,0,26.02,12.63,26.02,29.58v46.74h-18.14v-45c0-10.46-4.67-16.6-15.28-16.6-11.23,0-17.86,6.98-17.86,17.72v43.88h-17.86v-74.72Z"/>
        <path class="cls-2" d="M1312.63,258.64c-3.84,1.12-7.81,1.81-12.28,1.81-14.23,0-22.67-7.4-22.67-22.25v-40.6h-10.05v-13.12h10.05v-15.42l17.86-7.74v23.16h16.46v13.12h-16.46v39c0,5.86,2.51,9.49,9.07,9.49,2.51,0,5.3-.56,8.02-1.47v14.02Z"/>
        <path class="cls-2" d="M1327.48,184.48h17.86v14.02c5.02-10.26,13.19-15.14,24.56-15.14v16.53c-14.44,0-24.56,4.74-24.56,20.72v38.58h-17.86v-74.72Z"/>
        <path class="cls-2" d="M1423.75,250.06c-5.65,7.53-13.95,10.53-23.16,10.53-14.02,0-25.04-7.12-25.04-21.77,0-20.72,21.91-24,39.28-24h8.79v-1.19c0-10.67-2.51-17.44-14.58-17.44-7.25,0-13.95,3.77-16.6,10.67l-13.88-6c5.02-13.19,18.98-18,32.3-18,17.65,0,30.49,8.51,30.49,27.49v48.83h-17.58v-9.14ZM1414.61,225.78c-8.23,0-21.35.98-21.35,12.28,0,7.19,5.23,9.84,11.93,9.84,9.07,0,18.42-4.74,18.42-14.86v-7.26h-9Z"/>
        <path class="cls-2" d="M1460.65,154.2l17.86-7.74v112.74h-17.86v-104.99Z"/>
      </g>
      <g>
        <path class="cls-1" d="M144.01,123.98c-3.53,0-7-1.38-9.6-3.97l-57.63-57.63,19.19-19.19,34.46,34.47V0h27.14v110.41c0,5.49-3.31,10.44-8.38,12.54-1.68.7-3.44,1.03-5.19,1.03Z"/>
        <path class="cls-4" d="M157.57,288h-27.14v-110.41c0-5.49,3.31-10.44,8.38-12.54,5.07-2.1,10.91-.94,14.79,2.94l57.63,57.63-19.19,19.19-34.46-34.47v77.65Z"/>
        <path class="cls-3" d="M288,157.57h-110.41c-5.49,0-10.44-3.31-12.54-8.38-2.1-5.07-.94-10.91,2.94-14.79l57.63-57.63,19.19,19.19-34.47,34.46h77.65v27.14Z"/>
        <path class="cls-5" d="M62.38,211.22l-19.19-19.19,34.47-34.46H0v-27.14h110.41c5.49,0,10.44,3.31,12.54,8.38,2.1,5.07.94,10.91-2.94,14.79l-57.63,57.63Z"/>
      </g>
    </g>
  </g>
</svg>