<?xml version="1.0" encoding="UTF-8"?>
<svg id="Layer_1" data-name="Layer 1" xmlns="http://www.w3.org/2000/svg" xmlns:xlink="http://www.w3.org/1999/xlink" viewBox="0 0 1024 1024">
  <defs>
    <style>
      .cls-1 {
        fill: none;
      }

      .cls-2 {
        fill: #faa61a;
      }

      .cls-3 {
        clip-path: url(#clippath-1);
      }

      .cls-4 {
        fill: #ce1432;
      }

      .cls-5 {
        fill: #009d54;
      }

      .cls-6 {
        clip-path: url(#clippath);
      }

      .cls-7 {
        fill: #007ac1;
      }
    </style>
    <clipPath id="clippath">
      <rect class="cls-1" x="147" y="147" width="730" height="730"/>
    </clipPath>
    <clipPath id="clippath-1">
      <rect class="cls-1" x="147" y="147" width="730" height="730"/>
    </clipPath>
  </defs>
  <g class="cls-6">
    <g class="cls-3">
      <path class="cls-2" d="M512.01,461.27c-8.96,0-17.75-3.49-24.33-10.07l-146.08-146.08,48.65-48.65,87.36,87.36v-196.82h68.8v279.87c0,13.92-8.38,26.45-21.23,31.78-4.26,1.77-8.73,2.62-13.16,2.62"/>
      <path class="cls-5" d="M546.39,877h-68.79v-279.87c0-13.92,8.38-26.46,21.23-31.78,12.86-5.33,27.65-2.38,37.49,7.45l146.08,146.08-48.65,48.65-87.36-87.36v196.83Z"/>
      <path class="cls-4" d="M877,546.41h-279.87c-13.92,0-26.46-8.38-31.78-21.23-5.33-12.85-2.38-27.65,7.45-37.49l146.08-146.08,48.65,48.65-87.36,87.36h196.83v68.79Z"/>
      <path class="cls-7" d="M305.11,682.4l-48.65-48.65,87.36-87.36h-196.83v-68.79h279.87c13.91,0,26.45,8.38,31.78,21.23,5.33,12.85,2.38,27.65-7.45,37.49l-146.08,146.08Z"/>
    </g>
  </g>
</svg>