<?xml version="1.0" encoding="UTF-8"?>
<svg id="Layer_2" data-name="Layer 2" xmlns="http://www.w3.org/2000/svg" viewBox="0 0 256.8 288">
  <defs>
    <style>
      .cls-1 {
        fill: #009d54;
      }
    </style>
  </defs>
  <g id="Layer_1" data-name="Layer 1">
    <path class="cls-1" d="M243.8,116.42h-36.04v-47.16C207.76,31.07,176.68,0,138.49,0h-.43c-38.19,0-69.25,31.07-69.25,69.25v8.21h26.01v-8.21c0-23.86,19.39-43.25,43.25-43.25h.43c23.86,0,43.26,19.39,43.26,43.25v47.16h-58.59l-16.02-21.3c-2.46-3.25-6.3-5.17-10.39-5.17H13c-3.45,0-6.78,1.37-9.22,3.83C1.34,96.22-.01,99.54,0,102.99l.62,172.05c.03,7.17,5.84,12.96,13,12.96h230.17c7.18,0,13-5.82,13-13v-145.57c0-7.18-5.82-13-13-13ZM230.8,261.99H26.59l-.53-146.04h64.21l16.02,21.28c2.46,3.27,6.31,5.19,10.39,5.19h114.12v119.57Z"/>
  </g>
</svg>