<?xml version="1.0" encoding="UTF-8"?>
<svg id="Layer_2" data-name="Layer 2" xmlns="http://www.w3.org/2000/svg" viewBox="0 0 288 288">
  <defs>
    <style>
      .cls-1 {
        fill: #faa61a;
      }

      .cls-2 {
        fill: #ce1432;
      }

      .cls-3 {
        fill: #009d54;
      }

      .cls-4 {
        fill: #007ac1;
      }
    </style>
  </defs>
  <g id="Layer_1" data-name="Layer 1">
    <g>
      <path class="cls-1" d="M144.01,123.98c-3.53,0-7-1.38-9.6-3.97l-57.63-57.63,19.19-19.19,34.46,34.47V0h27.14v110.41c0,5.49-3.31,10.44-8.38,12.54-1.68.7-3.44,1.03-5.19,1.03Z"/>
      <path class="cls-3" d="M157.57,288h-27.14v-110.41c0-5.49,3.31-10.44,8.38-12.54,5.07-2.1,10.91-.94,14.79,2.94l57.63,57.63-19.19,19.19-34.46-34.47v77.65Z"/>
      <path class="cls-2" d="M288,157.57h-110.41c-5.49,0-10.44-3.31-12.54-8.38-2.1-5.07-.94-10.91,2.94-14.79l57.63-57.63,19.19,19.19-34.47,34.46h77.65v27.14Z"/>
      <path class="cls-4" d="M62.38,211.22l-19.19-19.19,34.47-34.46H0v-27.14h110.41c5.49,0,10.44,3.31,12.54,8.38,2.1,5.07.94,10.91-2.94,14.79l-57.63,57.63Z"/>
    </g>
  </g>
</svg>