<?xml version="1.0" encoding="UTF-8"?>
<svg id="Layer_3" data-name="Layer 3" xmlns="http://www.w3.org/2000/svg" viewBox="0 0 2262.64 288">
  <defs>
    <style>
      .cls-1 {
        fill: #231f20;
      }

      .cls-2 {
        fill: #faa61a;
      }

      .cls-3 {
        fill: #ce1432;
      }

      .cls-4 {
        fill: #009d54;
      }

      .cls-5 {
        fill: #007ac1;
      }
    </style>
  </defs>
  <g id="Layer_1" data-name="Layer 1">
    <g>
      <g>
        <path class="cls-1" d="M345.6,57.6h114.85v26.09h-81.33v46.39h66.1v24.67h-66.1v49.58h85.34v26.09h-118.87V57.6Z"/>
        <path class="cls-1" d="M488.42,103.99h30.22v20.07c8.14-15.58,25.14-22.78,42.73-22.78,30.34,0,44.03,21.37,44.03,50.05v79.09h-30.69v-76.14c0-17.71-7.91-28.09-25.85-28.09-19,0-30.22,11.8-30.22,29.98v74.25h-30.22v-126.42Z"/>
        <path class="cls-1" d="M729.46,209.17c-8.38,14.64-27.27,23.61-43.79,23.61-38.72,0-56.78-29.98-56.78-65.51s20.54-65.99,57.72-65.99c17.47,0,34,6.96,42.85,22.19V46.74h30.1v183.67h-30.1v-21.25ZM730.17,166.08c0-22.9-10.15-41.2-35.18-41.2-26.44,0-35.29,20.54-35.29,43.68,0,21.25,10.39,40.61,35.06,40.61s35.41-19.83,35.41-43.09Z"/>
        <path class="cls-1" d="M792.72,103.99h30.22v20.42c8.74-14.75,26.44-23.14,43.32-23.14,38.6,0,57.25,31.04,57.25,65.51s-19.83,65.99-56.42,65.99c-17.71,0-35.65-7.08-44.15-22.19v63.15h-30.22V103.99ZM892.35,166.08c0-21.37-10.62-41.2-35.41-41.2s-35.06,19.95-35.06,42.73,10.86,41.55,36,41.55c26.68,0,34.47-19.83,34.47-43.09Z"/>
        <path class="cls-1" d="M1006.61,101.28c38.36,0,67.87,26.91,67.87,65.63s-31.04,65.87-69.17,65.87-69.41-26.68-69.41-65.28,32.7-66.22,70.71-66.22ZM1042.02,167.15c0-23.25-11.8-42.61-36.59-42.61s-35.65,20.3-35.65,43.44,11.92,41.55,36.36,41.55,35.88-20.3,35.88-42.38Z"/>
        <path class="cls-1" d="M1112.6,50.52c9.8,0,17.59,7.2,17.59,17.23s-7.55,17.12-17.47,17.12-18.06-7.32-18.06-17.23,8.14-17.12,17.94-17.12ZM1097.38,104.23h30.22v126.19h-30.22v-126.19Z"/>
        <path class="cls-1" d="M1161.82,103.99h30.22v20.07c8.14-15.58,25.14-22.78,42.73-22.78,30.34,0,44.03,21.37,44.03,50.05v79.09h-30.69v-76.14c0-17.71-7.91-28.09-25.85-28.09-19,0-30.22,11.8-30.22,29.98v74.25h-30.22v-126.42Z"/>
        <path class="cls-1" d="M1374.53,229.47c-6.49,1.89-13.22,3.07-20.78,3.07-24.08,0-38.36-12.51-38.36-37.66v-68.7h-17v-22.19h17v-26.09l30.22-13.1v39.19h27.86v22.19h-27.86v65.99c0,9.92,4.25,16.05,15.35,16.05,4.25,0,8.97-.94,13.57-2.48v23.73Z"/>
        <path class="cls-1" d="M1606.59,182.84c-10.74,32.82-41.67,49.93-75.07,49.93-55.72,0-86.41-35.29-86.41-89.59,0-49.58,34.47-88.06,85.46-88.06,32.7,0,61.26,15.7,74.25,46.63l-27.62,11.69c-7.32-19-24.43-32.23-45.21-32.23-36.59,0-51.7,31.28-51.7,63.15s16.53,61.62,52.53,61.62c22.78,0,39.31-13.81,47.1-34.59l26.68,11.45Z"/>
        <path class="cls-1" d="M1741.98,202.91c-10.51,22.31-33.17,29.86-56.42,29.86-39.9,0-65.04-26.68-65.04-65.99,0-37.07,25.62-65.51,63.62-65.51,40.84,0,60.79,23.84,60.79,72.6h-93.61c0,21.37,12.39,36.95,35.41,36.95,13.69,0,25.02-5.55,31.63-18.42l23.61,10.51ZM1714.83,154.04c-.94-19.12-12.51-30.81-30.34-30.81-19,0-30.1,13.34-32.7,30.81h63.03Z"/>
        <path class="cls-1" d="M1769.24,103.99h30.22v20.07c8.14-15.58,25.14-22.78,42.73-22.78,30.34,0,44.03,21.37,44.03,50.05v79.09h-30.69v-76.14c0-17.71-7.91-28.09-25.85-28.09-19,0-30.22,11.8-30.22,29.98v74.25h-30.22v-126.42Z"/>
        <path class="cls-1" d="M1981.95,229.47c-6.49,1.89-13.22,3.07-20.78,3.07-24.08,0-38.36-12.51-38.36-37.66v-68.7h-17v-22.19h17v-26.09l30.22-13.1v39.19h27.86v22.19h-27.86v65.99c0,9.92,4.25,16.05,15.35,16.05,4.25,0,8.97-.94,13.57-2.48v23.73Z"/>
        <path class="cls-1" d="M2007.09,103.99h30.22v23.73c8.5-17.35,22.31-25.62,41.55-25.62v27.98c-24.43,0-41.55,8.03-41.55,35.06v65.28h-30.22v-126.42Z"/>
        <path class="cls-1" d="M2169.98,214.95c-9.56,12.75-23.61,17.82-39.19,17.82-23.73,0-42.38-12.04-42.38-36.83,0-35.06,37.06-40.61,66.46-40.61h14.87v-2.01c0-18.06-4.25-29.51-24.67-29.51-12.28,0-23.61,6.37-28.09,18.06l-23.49-10.15c8.5-22.31,32.11-30.45,54.65-30.45,29.87,0,51.58,14.4,51.58,46.51v82.63h-29.75v-15.46ZM2154.52,173.87c-13.93,0-36.12,1.65-36.12,20.78,0,12.16,8.85,16.64,20.19,16.64,15.34,0,31.16-8.03,31.16-25.14v-12.28h-15.23Z"/>
        <path class="cls-1" d="M2232.42,52.76l30.22-13.1v190.76h-30.22V52.76Z"/>
      </g>
      <g>
        <path class="cls-2" d="M144.01,123.98c-3.53,0-7-1.38-9.6-3.97l-57.63-57.63,19.19-19.19,34.46,34.47V0h27.14v110.41c0,5.49-3.31,10.44-8.38,12.54-1.68.7-3.44,1.03-5.19,1.03Z"/>
        <path class="cls-4" d="M157.57,288h-27.14v-110.41c0-5.49,3.31-10.44,8.38-12.54,5.07-2.1,10.91-.94,14.79,2.94l57.63,57.63-19.19,19.19-34.46-34.47v77.65Z"/>
        <path class="cls-3" d="M288,157.57h-110.41c-5.49,0-10.44-3.31-12.54-8.38-2.1-5.07-.94-10.91,2.94-14.79l57.63-57.63,19.19,19.19-34.47,34.46h77.65v27.14Z"/>
        <path class="cls-5" d="M62.38,211.22l-19.19-19.19,34.47-34.46H0v-27.14h110.41c5.49,0,10.44,3.31,12.54,8.38,2.1,5.07.94,10.91-2.94,14.79l-57.63,57.63Z"/>
      </g>
    </g>
  </g>
</svg>