<?xml version="1.0" encoding="UTF-8"?>
<svg id="Layer_1" data-name="Layer 1" xmlns="http://www.w3.org/2000/svg" xmlns:xlink="http://www.w3.org/1999/xlink" viewBox="0 0 1024 1024">
  <defs>
    <style>
      .cls-1 {
        fill: none;
      }

      .cls-2 {
        fill: #087abf;
      }

      .cls-3 {
        fill: url(#linear-gradient-2);
      }

      .cls-4 {
        fill: #faa61a;
      }

      .cls-5 {
        stroke-width: 1.06px;
      }

      .cls-5, .cls-6 {
        stroke: #236fb2;
        stroke-miterlimit: 10;
      }

      .cls-5, .cls-6, .cls-7 {
        fill: #236fb2;
      }

      .cls-8 {
        fill: url(#linear-gradient);
      }

      .cls-9 {
        fill: #009c53;
      }

      .cls-10 {
        clip-path: url(#clippath-1);
      }

      .cls-11 {
        fill: #ce2033;
      }

      .cls-6 {
        stroke-width: 10.56px;
      }

      .cls-12 {
        clip-path: url(#clippath);
      }
    </style>
    <clipPath id="clippath">
      <rect class="cls-1" x="162.33" y="129.91" width="730" height="730"/>
    </clipPath>
    <clipPath id="clippath-1">
      <rect class="cls-1" x="162.33" y="129.91" width="730" height="730"/>
    </clipPath>
    <linearGradient id="linear-gradient" x1="261.67" y1="893.51" x2="261.67" y2="643.97" gradientUnits="userSpaceOnUse">
      <stop offset="0" stop-color="#fff"/>
      <stop offset="1" stop-color="#dfdfdf"/>
    </linearGradient>
    <linearGradient id="linear-gradient-2" x1="261.67" y1="634.34" x2="261.67" y2="894.09" xlink:href="#linear-gradient"/>
  </defs>
  <g class="cls-12">
    <g class="cls-10">
      <path class="cls-4" d="M527.34,444.17c-8.96,0-17.75-3.49-24.33-10.07l-146.08-146.08,48.65-48.65,87.36,87.36v-196.82h68.8v279.87c0,13.92-8.38,26.45-21.23,31.78-4.26,1.77-8.73,2.62-13.16,2.62"/>
      <path class="cls-9" d="M561.72,859.91h-68.79v-279.87c0-13.92,8.38-26.46,21.23-31.78,12.86-5.33,27.65-2.38,37.49,7.45l146.08,146.08-48.65,48.65-87.36-87.36v196.83Z"/>
      <path class="cls-11" d="M892.33,529.31h-279.87c-13.92,0-26.46-8.38-31.78-21.23-5.33-12.85-2.38-27.65,7.45-37.49l146.08-146.08,48.65,48.65-87.36,87.36h196.83v68.79Z"/>
      <path class="cls-2" d="M320.44,665.3l-48.65-48.65,87.36-87.36h-196.83v-68.79h279.87c13.91,0,26.45,8.38,31.78,21.23,5.33,12.85,2.38,27.65-7.45,37.49l-146.08,146.08Z"/>
    </g>
  </g>
  <g>
    <ellipse class="cls-8" cx="261.67" cy="764.22" rx="130" ry="129.88"/>
    <path class="cls-3" d="M261.67,642.69c32.5,0,63.05,12.64,86.02,35.6,22.97,22.95,35.63,53.47,35.63,85.93s-12.65,62.98-35.63,85.93c-22.98,22.96-53.53,35.6-86.02,35.6s-63.05-12.64-86.02-35.6c-22.97-22.95-35.63-53.47-35.63-85.93s12.65-62.98,35.63-85.93c22.98-22.96,53.53-35.6,86.02-35.6M261.67,634.34c-71.8,0-130,58.15-130,129.88s58.2,129.88,130,129.88,130-58.15,130-129.88-58.2-129.88-130-129.88h0Z"/>
    <g>
      <g>
        <circle class="cls-7" cx="246.87" cy="731.98" r="30.85"/>
        <circle class="cls-7" cx="189.67" cy="780.82" r="19.02"/>
        <circle class="cls-7" cx="339.08" cy="780.69" r="21.89"/>
        <line class="cls-7" x1="246.86" y1="734.63" x2="190.79" y2="777.93"/>
        <line class="cls-7" x1="246.86" y1="734.63" x2="337.5" y2="782.91"/>
      </g>
      <g>
        <circle class="cls-5" cx="246.87" cy="731.98" r="30.85"/>
        <circle class="cls-5" cx="189.67" cy="780.82" r="19.02"/>
        <circle class="cls-5" cx="339.08" cy="780.69" r="21.89"/>
        <line class="cls-6" x1="246.86" y1="734.63" x2="190.79" y2="777.93"/>
        <line class="cls-6" x1="246.86" y1="734.63" x2="337.5" y2="782.91"/>
      </g>
    </g>
  </g>
</svg>