<?xml version="1.0" encoding="UTF-8"?>
<svg id="Layer_3" data-name="Layer 3" xmlns="http://www.w3.org/2000/svg" viewBox="0 0 2389.15 288">
  <defs>
    <style>
      .cls-1 {
        fill: #231f20;
      }

      .cls-2 {
        fill: #009d54;
      }
    </style>
  </defs>
  <g id="Layer_1" data-name="Layer 1">
    <g>
      <g>
        <path class="cls-1" d="M314.4,57.6h114.85v26.09h-81.33v46.39h66.1v24.67h-66.1v49.58h85.34v26.09h-118.87V57.6Z"/>
        <path class="cls-1" d="M457.23,103.99h30.22v20.07c8.14-15.58,25.14-22.78,42.73-22.78,30.34,0,44.03,21.37,44.03,50.05v79.09h-30.69v-76.14c0-17.71-7.91-28.09-25.85-28.09-19,0-30.22,11.8-30.22,29.98v74.25h-30.22v-126.42Z"/>
        <path class="cls-1" d="M698.26,209.17c-8.38,14.64-27.27,23.61-43.79,23.61-38.72,0-56.78-29.98-56.78-65.51s20.54-65.99,57.72-65.99c17.47,0,34,6.96,42.85,22.19V46.74h30.1v183.67h-30.1v-21.25ZM698.97,166.08c0-22.9-10.15-41.2-35.18-41.2-26.44,0-35.29,20.54-35.29,43.68,0,21.25,10.39,40.61,35.06,40.61s35.41-19.83,35.41-43.09Z"/>
        <path class="cls-1" d="M761.53,103.99h30.22v20.42c8.74-14.75,26.44-23.14,43.32-23.14,38.6,0,57.25,31.04,57.25,65.51s-19.83,65.99-56.42,65.99c-17.71,0-35.65-7.08-44.15-22.19v63.15h-30.22V103.99ZM861.16,166.08c0-21.37-10.62-41.2-35.41-41.2s-35.06,19.95-35.06,42.73,10.86,41.55,36,41.55c26.68,0,34.47-19.83,34.47-43.09Z"/>
        <path class="cls-1" d="M975.41,101.28c38.36,0,67.87,26.91,67.87,65.63s-31.04,65.87-69.17,65.87-69.41-26.68-69.41-65.28,32.7-66.22,70.71-66.22ZM1010.83,167.15c0-23.25-11.8-42.61-36.59-42.61s-35.65,20.3-35.65,43.44,11.92,41.55,36.36,41.55,35.88-20.3,35.88-42.38Z"/>
        <path class="cls-1" d="M1081.41,50.52c9.8,0,17.59,7.2,17.59,17.23s-7.55,17.12-17.47,17.12-18.06-7.32-18.06-17.23,8.14-17.12,17.94-17.12ZM1066.18,104.23h30.22v126.19h-30.22v-126.19Z"/>
        <path class="cls-1" d="M1130.63,103.99h30.22v20.07c8.14-15.58,25.14-22.78,42.73-22.78,30.34,0,44.03,21.37,44.03,50.05v79.09h-30.69v-76.14c0-17.71-7.91-28.09-25.85-28.09-19,0-30.22,11.8-30.22,29.98v74.25h-30.22v-126.42Z"/>
        <path class="cls-1" d="M1343.34,229.47c-6.49,1.89-13.22,3.07-20.78,3.07-24.08,0-38.36-12.51-38.36-37.66v-68.7h-17v-22.19h17v-26.09l30.22-13.1v39.19h27.86v22.19h-27.86v65.99c0,9.92,4.25,16.05,15.35,16.05,4.25,0,8.97-.94,13.57-2.48v23.73Z"/>
        <path class="cls-1" d="M1422.77,57.6h58.19c56.42,0,90.77,29.39,90.77,86.88s-36.12,85.93-91.01,85.93h-57.96V57.6ZM1479.9,204.33c40.25,0,56.9-23.37,56.9-61.26s-17.59-59.38-57.37-59.38h-23.14v120.64h23.61Z"/>
        <path class="cls-1" d="M1598.17,57.6h33.52v146.73h76.37v26.09h-109.9V57.6Z"/>
        <path class="cls-1" d="M1731.44,57.6h60.08c36.36,0,64.8,14.64,64.8,54.42,0,43.79-34.59,53.24-71.53,53.24h-19.83v65.16h-33.52V57.6ZM1791.29,141.18c20.66,0,32.34-8.5,32.34-29.39s-12.75-28.8-32.34-28.8h-26.32v58.19h26.32Z"/>
        <path class="cls-1" d="M1933.16,57.6h60.08c36.36,0,64.8,14.64,64.8,54.42,0,43.79-34.59,53.24-71.53,53.24h-19.83v65.16h-33.52V57.6ZM1993.01,141.18c20.66,0,32.34-8.5,32.34-29.39s-12.75-28.8-32.34-28.8h-26.32v58.19h26.32Z"/>
        <path class="cls-1" d="M2081.42,52.76l30.22-13.1v190.76h-30.22V52.76Z"/>
        <path class="cls-1" d="M2230.38,210.58c-7.91,15.35-24.2,22.19-41.67,22.19-29.04,0-44.38-19.12-44.38-47.81v-80.98h30.22v77.32c0,17.23,7.91,27.86,25.5,27.86,18.89,0,30.34-12.16,30.34-30.22v-74.96h30.1v126.42h-30.1v-19.83Z"/>
        <path class="cls-1" d="M2306.99,192.76c4.72,12.39,17.59,18.3,31.28,18.3,9.8,0,21.96-3.07,21.96-14.99,0-12.63-13.69-15.58-29.28-18.89-20.3-4.25-43.08-9.21-43.08-37.54,0-25.97,24.2-38.36,47.1-38.36,20.07,0,42.97,7.55,51.23,27.5l-22.43,9.68c-4.96-11.21-17.35-15.46-27.74-15.46s-19.71,4.01-19.71,14.28c0,11.57,12.39,14.05,27.62,17,20.66,4.01,45.21,8.74,45.21,38.25s-24.91,40.25-51.23,40.25c-22.31,0-46.27-7.55-54.18-30.22l23.25-9.8Z"/>
      </g>
      <path class="cls-2" d="M243.8,116.42h-36.04v-47.16C207.76,31.07,176.68,0,138.49,0h-.43c-38.19,0-69.25,31.07-69.25,69.25v8.21h26.01v-8.21c0-23.86,19.39-43.25,43.25-43.25h.43c23.86,0,43.26,19.39,43.26,43.25v47.16h-58.59l-16.02-21.3c-2.46-3.25-6.3-5.17-10.39-5.17H13c-3.45,0-6.78,1.37-9.22,3.83C1.34,96.22-.01,99.54,0,102.99l.62,172.05c.03,7.17,5.84,12.96,13,12.96h230.17c7.18,0,13-5.82,13-13v-145.57c0-7.18-5.82-13-13-13ZM230.8,261.99H26.59l-.53-146.04h64.21l16.02,21.28c2.46,3.27,6.31,5.19,10.39,5.19h114.12v119.57Z"/>
    </g>
  </g>
</svg>