<?xml version="1.0" encoding="UTF-8"?>
<svg id="Layer_2" data-name="Layer 2" xmlns="http://www.w3.org/2000/svg" viewBox="0 0 288 251.2">
  <defs>
    <style>
      .cls-1 {
        fill: #009d54;
      }

      .cls-2 {
        fill: #007ac1;
      }
    </style>
  </defs>
  <g id="Layer_1" data-name="Layer 1">
    <g>
      <path class="cls-1" d="M27.13,33.89v183.43c0,3.73,3.03,6.74,6.76,6.74h54.64l-12.78-12.76,19.19-19.19,35.93,35.93c3.88,3.88,5.03,9.71,2.94,14.78-2.11,5.08-7.05,8.38-12.53,8.38H30.27c-16.72,0-30.27-13.55-30.27-30.28V30.28C0,13.56,13.55,0,30.27,0h123.77v27.14H33.89c-3.73,0-6.76,3.02-6.76,6.74Z"/>
      <path class="cls-2" d="M288,30.28v190.64c0,16.73-13.55,30.28-30.27,30.28h-78.79c-13.76,0-24.9-11.15-24.9-24.9V59.58c0-5.49,3.3-10.44,8.37-12.53,5.08-2.11,10.91-.94,14.79,2.94l35.93,35.92-19.19,19.19-12.78-12.76v124.96c0,3.74,3.03,6.77,6.77,6.77h66.14c3.74,0,6.79-3.03,6.79-6.77V33.92c0-3.74-3.05-6.77-6.79-6.77h-100.04V0h103.68c16.73,0,30.28,13.56,30.28,30.28Z"/>
    </g>
  </g>
</svg>