<?xml version="1.0" encoding="UTF-8"?>
<svg id="Layer_2" data-name="Layer 2" xmlns="http://www.w3.org/2000/svg" viewBox="0 0 4123.03 258.41">
  <defs>
    <style>
      .cls-1 {
        fill: #fff;
      }

      .cls-2 {
        fill: #009d54;
      }

      .cls-3 {
        fill: #007ac1;
      }
    </style>
  </defs>
  <g id="Layer_1" data-name="Layer 1">
    <g>
      <g>
        <path class="cls-1" d="M345.6,39.2h42.38l49.81,125.95,49.46-125.95h41.43v172.81h-30.93V80.28l-54.42,131.73h-14.87l-52.65-131.73v131.73h-30.22V39.2Z"/>
        <path class="cls-1" d="M621.22,82.88c38.36,0,67.87,26.91,67.87,65.63s-31.04,65.87-69.17,65.87-69.41-26.68-69.41-65.28,32.7-66.22,70.71-66.22ZM656.63,148.75c0-23.25-11.8-42.61-36.59-42.61s-35.65,20.3-35.65,43.44,11.92,41.55,36.36,41.55,35.88-20.3,35.88-42.38Z"/>
        <path class="cls-1" d="M711.16,28.34h30.22v77.67c8.74-14.52,26.32-23.14,43.08-23.14,38.48,0,57.49,30.93,57.49,65.51s-20.07,65.99-56.54,65.99c-17.82,0-35.77-7.2-44.03-22.66v20.3h-30.22V28.34ZM810.79,147.68c0-21.48-10.5-41.2-35.41-41.2s-35.06,20.07-35.06,42.5c0,23.73,11.33,41.79,36.47,41.79,26.56,0,34-19.83,34-43.09Z"/>
        <path class="cls-1" d="M882.79,32.12c9.8,0,17.59,7.2,17.59,17.23s-7.55,17.12-17.47,17.12-18.06-7.32-18.06-17.23,8.14-17.12,17.94-17.12ZM867.56,85.83h30.22v126.19h-30.22v-126.19Z"/>
        <path class="cls-1" d="M932.83,34.36l30.22-13.1v190.76h-30.22V34.36Z"/>
        <path class="cls-1" d="M1110.01,184.51c-10.51,22.31-33.17,29.86-56.42,29.86-39.9,0-65.04-26.68-65.04-65.99,0-37.07,25.62-65.51,63.62-65.51,40.84,0,60.79,23.84,60.79,72.6h-93.61c0,21.37,12.39,36.95,35.41,36.95,13.69,0,25.02-5.55,31.63-18.42l23.61,10.51ZM1082.86,135.64c-.94-19.12-12.51-30.81-30.34-30.81-19,0-30.1,13.34-32.7,30.81h63.03Z"/>
        <path class="cls-1" d="M1191.57,39.2h58.19c56.42,0,90.77,29.39,90.77,86.88s-36.12,85.93-91.01,85.93h-57.96V39.2ZM1248.7,185.93c40.25,0,56.9-23.37,56.9-61.26s-17.59-59.38-57.37-59.38h-23.14v120.64h23.61Z"/>
        <path class="cls-1" d="M1478.76,184.51c-10.51,22.31-33.17,29.86-56.42,29.86-39.9,0-65.04-26.68-65.04-65.99,0-37.07,25.62-65.51,63.62-65.51,40.84,0,60.79,23.84,60.79,72.6h-93.61c0,21.37,12.39,36.95,35.41,36.95,13.69,0,25.02-5.55,31.63-18.42l23.61,10.51ZM1451.61,135.64c-.94-19.12-12.51-30.81-30.34-30.81-19,0-30.1,13.34-32.7,30.81h63.03Z"/>
        <path class="cls-1" d="M1492.56,85.59h32.34l32.7,95.73,32.34-95.73h29.51l-45.56,126.42h-35.41l-45.92-126.42Z"/>
        <path class="cls-1" d="M1653.45,32.12c9.8,0,17.59,7.2,17.59,17.23s-7.55,17.12-17.47,17.12-18.06-7.32-18.06-17.23,8.14-17.12,17.94-17.12ZM1638.22,85.83h30.22v126.19h-30.22v-126.19Z"/>
        <path class="cls-1" d="M1816.7,176.25c-8.38,26.44-31.99,38.13-58.43,38.13-40.13,0-64.1-26.91-64.1-65.99s26.8-65.51,64.8-65.51c25.62,0,47.69,10.74,57.01,35.53l-24.43,10.74c-5.08-14.17-17.35-22.31-32.58-22.31-24.67,0-33.76,21.37-33.76,43.09s9.8,41.55,34.23,41.55c17.35,0,29.04-9.56,34.23-25.38l23.02,10.15Z"/>
        <path class="cls-1" d="M1953.62,184.51c-10.51,22.31-33.17,29.86-56.42,29.86-39.9,0-65.04-26.68-65.04-65.99,0-37.07,25.62-65.51,63.62-65.51,40.84,0,60.79,23.84,60.79,72.6h-93.61c0,21.37,12.39,36.95,35.41,36.95,13.69,0,25.02-5.55,31.63-18.42l23.61,10.51ZM1926.47,135.64c-.94-19.12-12.51-30.81-30.34-30.81-19,0-30.1,13.34-32.7,30.81h63.03Z"/>
        <path class="cls-1" d="M2035.18,39.2h42.38l49.81,125.95,49.46-125.95h41.43v172.81h-30.93V80.28l-54.42,131.73h-14.87l-52.65-131.73v131.73h-30.22V39.2Z"/>
        <path class="cls-1" d="M2324.97,196.55c-9.56,12.75-23.61,17.82-39.19,17.82-23.73,0-42.38-12.04-42.38-36.83,0-35.06,37.06-40.61,66.46-40.61h14.87v-2.01c0-18.06-4.25-29.51-24.67-29.51-12.28,0-23.61,6.37-28.09,18.06l-23.49-10.15c8.5-22.31,32.11-30.45,54.65-30.45,29.87,0,51.58,14.4,51.58,46.51v82.63h-29.75v-15.46ZM2309.5,155.48c-13.93,0-36.12,1.65-36.12,20.78,0,12.16,8.85,16.64,20.19,16.64,15.34,0,31.16-8.03,31.16-25.14v-12.28h-15.23Z"/>
        <path class="cls-1" d="M2386.58,85.59h30.22v20.07c8.14-15.58,25.14-22.78,42.73-22.78,30.34,0,44.03,21.37,44.03,50.05v79.09h-30.69v-76.14c0-17.71-7.91-28.09-25.85-28.09-19,0-30.22,11.8-30.22,29.98v74.25h-30.22v-126.42Z"/>
        <path class="cls-1" d="M2607.78,196.55c-9.56,12.75-23.61,17.82-39.19,17.82-23.73,0-42.38-12.04-42.38-36.83,0-35.06,37.06-40.61,66.46-40.61h14.87v-2.01c0-18.06-4.25-29.51-24.67-29.51-12.28,0-23.61,6.37-28.09,18.06l-23.49-10.15c8.5-22.31,32.11-30.45,54.65-30.45,29.87,0,51.58,14.4,51.58,46.51v82.63h-29.75v-15.46ZM2592.32,155.48c-13.93,0-36.12,1.65-36.12,20.78,0,12.16,8.85,16.64,20.19,16.64,15.34,0,31.16-8.03,31.16-25.14v-12.28h-15.23Z"/>
        <path class="cls-1" d="M2688.87,217.57c6.26,14.05,20.89,18.18,34.94,18.18,22.43,0,36-10.74,36-33.64v-18.89c-8.62,14.64-25.5,23.73-42.38,23.73-35.77,0-56.54-28.09-56.54-61.03s22.19-63.03,57.25-63.03c17.12,0,32.82,6.96,41.67,22.07v-19.36h30.34v116.98c0,39.78-29.75,55.83-66.34,55.83-23.49,0-48.63-6.61-58.78-30.46l23.84-10.39ZM2761,144.26c0-21.6-11.69-38.13-34.59-38.13-24.2,0-34.47,18.41-34.47,40.37,0,19.71,12.39,37.18,33.41,37.18,23.61,0,35.65-17.47,35.65-39.43Z"/>
        <path class="cls-1" d="M2936.28,184.51c-10.5,22.31-33.17,29.86-56.42,29.86-39.9,0-65.04-26.68-65.04-65.99,0-37.07,25.62-65.51,63.62-65.51,40.84,0,60.79,23.84,60.79,72.6h-93.61c0,21.37,12.39,36.95,35.41,36.95,13.69,0,25.02-5.55,31.63-18.42l23.61,10.51ZM2909.13,135.64c-.94-19.12-12.51-30.81-30.34-30.81-19,0-30.1,13.34-32.7,30.81h63.03Z"/>
        <path class="cls-1" d="M2963.54,85.59h30.22v23.73c8.5-17.35,22.31-25.62,41.55-25.62v27.98c-24.43,0-41.55,8.03-41.55,35.06v65.28h-30.22v-126.42Z"/>
        <path class="cls-1" d="M3113.57,39.2h60.08c36.36,0,64.8,14.64,64.8,54.42,0,43.79-34.59,53.24-71.53,53.24h-19.83v65.16h-33.52V39.2ZM3173.41,122.78c20.66,0,32.34-8.5,32.34-29.39s-12.75-28.8-32.34-28.8h-26.32v58.19h26.32Z"/>
        <path class="cls-1" d="M3261.82,34.36l30.22-13.1v190.76h-30.22V34.36Z"/>
        <path class="cls-1" d="M3410.79,192.19c-7.91,15.35-24.2,22.19-41.67,22.19-29.04,0-44.38-19.12-44.38-47.81v-80.98h30.22v77.32c0,17.23,7.91,27.86,25.5,27.86,18.89,0,30.34-12.16,30.34-30.22v-74.96h30.1v126.42h-30.1v-19.83Z"/>
        <path class="cls-1" d="M3487.39,174.36c4.72,12.39,17.59,18.3,31.28,18.3,9.8,0,21.96-3.07,21.96-14.99,0-12.63-13.69-15.58-29.28-18.89-20.3-4.25-43.08-9.21-43.08-37.54,0-25.97,24.2-38.36,47.1-38.36,20.07,0,42.97,7.55,51.23,27.5l-22.43,9.68c-4.96-11.21-17.35-15.46-27.74-15.46s-19.71,4.01-19.71,14.28c0,11.57,12.39,14.05,27.62,17,20.66,4.01,45.21,8.74,45.21,38.25s-24.91,40.25-51.23,40.25c-22.31,0-46.27-7.55-54.18-30.22l23.25-9.8Z"/>
        <path class="cls-1" d="M3647.21,39.2h29.27l55.36,137.05,54.65-137.05h29.04v172.81h-21.01V66.47l-58.55,145.55h-8.97l-60.44-145.55v145.55h-19.36V39.2Z"/>
        <path class="cls-1" d="M3867.35,159.25c7.32,23.84,24.43,37.89,46.39,37.89s38.95-14.05,38.95-32.58c0-23.49-20.66-27.98-42.85-32.7-25.62-5.55-54.42-11.45-54.42-47.93,0-26.8,24.32-47.22,54.42-47.22,27.39,0,45.21,13.46,57.13,40.13l-17.35,7.79c-7.79-19.24-21.6-30.93-39.78-30.93-20.89,0-34.82,10.62-34.82,29.27,0,23.61,22.07,27.98,43.67,32.46,26.44,5.43,54.3,11.1,54.3,47.57,0,28.21-26.68,51.11-59.73,51.11s-54.3-14.99-64.8-46.75l18.89-8.14Z"/>
        <path class="cls-1" d="M4008.64,39.2h53.95c33.41,0,60.44,14.76,60.44,52.41,0,45.92-40.13,50.29-78.38,50.29l-14.99-.24v70.35h-21.01V39.2ZM4064,125.02c23.96,0,38.01-10.27,38.01-34.94s-14.75-34-38.01-34h-34.35v68.94h34.35Z"/>
      </g>
      <g>
        <path class="cls-2" d="M27.13,33.89v183.43c0,3.73,3.03,6.74,6.76,6.74h54.64l-12.78-12.76,19.19-19.19,35.93,35.93c3.88,3.88,5.03,9.71,2.94,14.78-2.11,5.08-7.05,8.38-12.53,8.38H30.27c-16.72,0-30.27-13.55-30.27-30.28V30.28C0,13.56,13.55,0,30.27,0h123.77v27.14H33.89c-3.73,0-6.76,3.02-6.76,6.74Z"/>
        <path class="cls-3" d="M288,30.28v190.64c0,16.73-13.55,30.28-30.27,30.28h-78.79c-13.76,0-24.9-11.15-24.9-24.9V59.58c0-5.49,3.3-10.44,8.37-12.53,5.08-2.11,10.91-.94,14.79,2.94l35.93,35.92-19.19,19.19-12.78-12.76v124.96c0,3.74,3.03,6.77,6.77,6.77h66.14c3.74,0,6.79-3.03,6.79-6.77V33.92c0-3.74-3.05-6.77-6.79-6.77h-100.04V0h103.68c16.73,0,30.28,13.56,30.28,30.28Z"/>
      </g>
    </g>
  </g>
</svg>