<?xml version="1.0" encoding="UTF-8"?>
<svg id="Layer_2" data-name="Layer 2" xmlns="http://www.w3.org/2000/svg" xmlns:xlink="http://www.w3.org/1999/xlink" viewBox="0 0 730 636.73">
  <defs>
    <style>
      .cls-1 {
        fill: none;
      }

      .cls-2 {
        clip-path: url(#clippath-1);
      }

      .cls-3 {
        fill: #009d54;
      }

      .cls-4 {
        clip-path: url(#clippath);
      }

      .cls-5 {
        fill: #007ac1;
      }
    </style>
    <clipPath id="clippath">
      <rect class="cls-1" y="0" width="730" height="636.73"/>
    </clipPath>
    <clipPath id="clippath-1">
      <rect class="cls-1" y="0" width="730" height="636.73"/>
    </clipPath>
  </defs>
  <g id="Layer_1-2" data-name="Layer 1">
    <g class="cls-4">
      <g class="cls-2">
        <path class="cls-3" d="M68.76,85.9v464.94c0,9.45,7.68,17.09,17.13,17.09h138.48l-32.38-32.35,48.63-48.63,91.08,91.08c9.83,9.83,12.75,24.62,7.45,37.45-5.34,12.87-17.86,21.24-31.77,21.24H76.72C34.34,636.73,0,602.38,0,559.98V76.75C0,34.38,34.34,0,76.72,0h313.73v68.8H85.9c-9.45,0-17.13,7.64-17.13,17.09"/>
        <path class="cls-5" d="M730,76.75v483.22c0,42.41-34.34,76.75-76.72,76.75h-199.72c-34.88,0-63.11-28.27-63.11-63.11V151.01c0-13.91,8.37-26.47,21.2-31.77,12.87-5.34,27.66-2.38,37.49,7.45l91.08,91.04-48.63,48.63-32.38-32.34v316.73c0,9.49,7.68,17.17,17.17,17.17h167.64c9.49,0,17.21-7.68,17.21-17.17V85.97c0-9.49-7.72-17.17-17.21-17.17h-253.57V0h262.79c42.41,0,76.75,34.38,76.75,76.75"/>
      </g>
    </g>
  </g>
</svg>