<?xml version="1.0" encoding="UTF-8"?>
<svg id="Layer_2" data-name="Layer 2" xmlns="http://www.w3.org/2000/svg" xmlns:xlink="http://www.w3.org/1999/xlink" viewBox="0 0 560 643.26">
  <defs>
    <style>
      .cls-1 {
        fill: none;
      }

      .cls-2 {
        clip-path: url(#clippath-1);
      }

      .cls-3 {
        fill: #fff;
      }

      .cls-4 {
        fill: #009d54;
      }

      .cls-5 {
        clip-path: url(#clippath);
      }

      .cls-6 {
        fill: #007ac1;
      }
    </style>
    <clipPath id="clippath">
      <rect class="cls-1" y="0" width="560" height="488.45"/>
    </clipPath>
    <clipPath id="clippath-1">
      <rect class="cls-1" y="0" width="560" height="488.45"/>
    </clipPath>
  </defs>
  <g id="Layer_1-2" data-name="Layer 1">
    <g>
      <g>
        <path class="cls-3" d="M152.87,550.65h22.41l26.34,66.59,26.15-66.59h21.91v91.37h-16.35v-69.65l-28.77,69.65h-7.86l-27.83-69.65v69.65h-15.98v-91.37Z"/>
        <path class="cls-3" d="M275.44,614.49c3.74,10.42,12.98,15.79,24.09,15.79,8.42,0,17.29-4.43,17.29-13.98,0-10.11-9.99-11.92-21.09-13.92-14.17-2.56-29.71-5.55-29.71-26.59,0-17.54,15.73-26.46,31.52-26.46,14.6,0,27.52,5.99,33.2,20.22l-12.98,5.87c-3.87-8.05-11.17-12.92-20.41-12.92-7.43,0-14.85,3.12-14.85,12.04,0,9.86,9.24,11.61,20.35,13.61,14.35,2.56,30.83,5.43,30.83,26.77,0,18.54-17.29,28.33-34.14,28.33s-32.89-5.87-37.88-22.84l13.79-5.93Z"/>
        <path class="cls-3" d="M347.78,550.65h31.77c19.22,0,34.26,7.74,34.26,28.77,0,23.15-18.29,28.15-37.82,28.15h-10.48v34.45h-17.72v-91.37ZM379.42,594.83c10.92,0,17.1-4.49,17.1-15.54s-6.74-15.23-17.1-15.23h-13.92v30.77h13.92Z"/>
      </g>
      <g class="cls-5">
        <g class="cls-2">
          <path class="cls-4" d="M52.75,65.89v356.66c0,7.25,5.89,13.11,13.14,13.11h106.23l-24.84-24.81,37.31-37.31,69.87,69.87c7.54,7.54,9.78,18.89,5.72,28.73-4.1,9.87-13.7,16.3-24.37,16.3H58.85C26.35,488.45,0,462.1,0,429.57V58.88C0,26.37,26.35,0,58.85,0h240.67v52.78H65.89c-7.25,0-13.14,5.86-13.14,13.11"/>
          <path class="cls-6" d="M560,58.88v370.69c0,32.53-26.35,58.88-58.85,58.88h-153.21c-26.76,0-48.42-21.69-48.42-48.42V115.84c0-10.67,6.42-20.31,16.27-24.37,9.87-4.1,21.22-1.83,28.76,5.72l69.87,69.84-37.31,37.31-24.84-24.81v242.97c0,7.28,5.89,13.17,13.17,13.17h128.6c7.28,0,13.2-5.89,13.2-13.17V65.95c0-7.28-5.92-13.17-13.2-13.17h-194.52V0h201.6c32.53,0,58.88,26.37,58.88,58.88"/>
        </g>
      </g>
    </g>
  </g>
</svg>