<?xml version="1.0" encoding="UTF-8"?>
<svg id="Layer_3" data-name="Layer 3" xmlns="http://www.w3.org/2000/svg" viewBox="0 0 2250.85 268.21">
  <defs>
    <style>
      .cls-1 {
        fill: #231f20;
      }

      .cls-2 {
        fill: #009d54;
      }

      .cls-3 {
        fill: #007ac1;
      }
    </style>
  </defs>
  <g id="Layer_1" data-name="Layer 1">
    <g>
      <g>
        <path class="cls-1" d="M345.6,10.39h21.13l17.61,46.22,17.18-46.22h20.75v70.64h-15.92V31.43l-19.54,49.6h-7.24l-19.64-49.6v49.6h-14.33V10.39Z"/>
        <path class="cls-1" d="M465.4,74.8c-3.67,5.45-9.12,7.33-15.25,7.33-10.04,0-17.56-5.02-17.56-15.34,0-13.12,12.26-16.65,23.4-16.65h9.26c0-6.95-.68-11.63-8.78-11.63-4.54,0-9.02,2.07-10.57,6.66l-10.95-4.78c3.38-9.31,13.85-12.26,23.16-12.26,12.5,0,21.28,5.36,21.28,19.2v33.68h-13.99v-6.22ZM459.76,58.59c-5.11,0-13.17.39-13.17,7.33,0,4.58,3.43,6.22,7.58,6.22,5.6,0,11.1-2.94,11.1-9.22v-4.34h-5.5Z"/>
        <path class="cls-1" d="M491.75,29.35h14.33v8.2c3.33-6.37,10.37-9.41,17.47-9.41,12.06,0,17.23,8.73,17.23,19.98v32.91h-14.33v-30.83c0-6.42-2.9-10.37-9.55-10.37-7.09,0-10.81,4.54-10.81,11.39v29.82h-14.33V29.35Z"/>
        <path class="cls-1" d="M582.61,74.8c-3.67,5.45-9.12,7.33-15.25,7.33-10.04,0-17.56-5.02-17.56-15.34,0-13.12,12.26-16.65,23.4-16.65h9.26c0-6.95-.68-11.63-8.78-11.63-4.54,0-9.02,2.07-10.57,6.66l-10.95-4.78c3.38-9.31,13.85-12.26,23.16-12.26,12.5,0,21.28,5.36,21.28,19.2v33.68h-13.99v-6.22ZM576.96,58.59c-5.11,0-13.17.39-13.17,7.33,0,4.58,3.43,6.22,7.58,6.22,5.6,0,11.1-2.94,11.1-9.22v-4.34h-5.5Z"/>
        <path class="cls-1" d="M618.94,82.72c2.17,5.26,7.67,6.9,13.03,6.9,8.35,0,12.98-4,12.98-12.64v-7.82c-3.38,5.79-9.89,9.6-16.6,9.6-14.67,0-22.53-11.68-22.53-25.38s8.64-25.24,23.11-25.24c6.71,0,12.5,2.56,16.02,8.93v-7.72h14.23v47.62c0,16.84-12.06,23.11-27.21,23.11-9.7,0-20.41-2.56-24.27-12.45l11.24-4.92ZM645.33,53.28c0-8.06-3.91-14.23-12.55-14.23s-12.35,6.8-12.35,15.01c0,7.48,4.1,13.94,12.5,13.94s12.4-6.76,12.4-14.72Z"/>
        <path class="cls-1" d="M719.16,69.98c-4,9.31-14.19,12.16-23.02,12.16-17.08,0-27.45-10.57-27.45-27.12,0-15.49,11-26.88,26.68-26.88,10.04,0,19.06,4.63,22.92,14.09,2.17,5.31,2.17,10.76,2.17,16.16h-37.25c.39,7.96,4.39,13.56,12.83,13.56,5.6,0,9.84-1.45,12.55-6.66l10.57,4.68ZM706.51,49.62c-.39-7.09-3.81-11.58-10.95-11.58s-11.24,4.92-12.16,11.58h23.11Z"/>
        <path class="cls-1" d="M731.7,10.39h44.78v8.78h-33.82v21.52h27.6v8.64h-27.6v22.92h35.51v8.78h-46.47V10.39Z"/>
        <path class="cls-1" d="M789.51,29.3h10.28v8.2c3.09-6.42,9.94-9.17,16.94-9.17,12.55,0,18.43,8.93,18.43,20.84v31.85h-10.28v-31.56c0-7.96-3.76-12.5-11.68-12.5-8.35,0-13.41,5.07-13.41,13.17v30.88h-10.28V29.3Z"/>
        <path class="cls-1" d="M855.85,83.88c2.7,6.03,9.41,8.01,15.49,8.01,9.51,0,16.12-4.83,16.12-14.81v-7.62c-3.62,6.08-10.9,9.7-17.9,9.7-14.52,0-23.11-11.44-23.11-24.95s9.36-25.86,23.64-25.86c7,0,13.75,2.8,17.37,8.97v-8.01h10.18v48.06c0,15.73-11.82,22.63-26.54,22.63-9.55,0-18.96-2.9-23.35-12.55l8.11-3.57ZM887.74,53.28c0-9.51-5.26-16.84-15.3-16.84-10.57,0-15.54,8.11-15.54,17.8,0,8.73,5.74,16.79,15.01,16.79,10.23,0,15.83-7.96,15.83-17.76Z"/>
        <path class="cls-1" d="M916.36,8.22c3.43,0,6.37,2.65,6.37,6.22s-2.9,6.22-6.37,6.22-6.37-2.75-6.37-6.22,2.9-6.22,6.37-6.22ZM911.39,29.45h10.18v51.58h-10.18V29.45Z"/>
        <path class="cls-1" d="M937.25,29.3h10.28v8.2c3.09-6.42,9.94-9.17,16.94-9.17,12.55,0,18.43,8.93,18.43,20.84v31.85h-10.28v-31.56c0-7.96-3.76-12.5-11.68-12.5-8.35,0-13.41,5.07-13.41,13.17v30.88h-10.28V29.3Z"/>
        <path class="cls-1" d="M1042,69.45c-4.54,8.78-12.64,12.55-21.91,12.55-16.31,0-25.91-11.58-25.91-26.63s9.75-27.02,24.99-27.02c18.09,0,23.84,12.83,23.84,28.95h-38.36c0,9.51,5.07,16.74,14.96,16.74,6.32,0,11.15-2.99,13.9-8.2l8.49,3.62ZM1032.84,49.96c-.53-8.35-4.87-13.8-13.27-13.8s-13.46,6.03-14.62,13.8h27.89Z"/>
      </g>
      <g>
        <path class="cls-1" d="M345.6,138.66h25.04l29.44,74.44,29.23-74.44h24.49v102.13h-18.28v-77.86l-32.16,77.86h-8.79l-31.11-77.86v77.86h-17.86v-102.13Z"/>
        <path class="cls-1" d="M508.48,164.48c22.67,0,40.11,15.91,40.11,38.79s-18.35,38.93-40.88,38.93-41.02-15.77-41.02-38.58,19.32-39.14,41.79-39.14ZM529.41,203.4c0-13.74-6.98-25.18-21.63-25.18s-21.07,12-21.07,25.67,7.05,24.56,21.49,24.56,21.21-12,21.21-25.04Z"/>
        <path class="cls-1" d="M561.63,132.25h17.86v45.9c5.16-8.58,15.56-13.67,25.46-13.67,22.74,0,33.97,18.28,33.97,38.72s-11.86,39-33.42,39c-10.53,0-21.14-4.26-26.02-13.39v12h-17.86v-108.55ZM620.51,202.78c0-12.7-6.21-24.35-20.93-24.35s-20.72,11.86-20.72,25.11c0,14.02,6.7,24.7,21.56,24.7,15.7,0,20.09-11.72,20.09-25.46Z"/>
        <path class="cls-1" d="M663.06,134.48c5.79,0,10.39,4.26,10.39,10.19s-4.46,10.12-10.33,10.12-10.67-4.33-10.67-10.19,4.81-10.12,10.6-10.12ZM654.06,166.22h17.86v74.58h-17.86v-74.58Z"/>
        <path class="cls-1" d="M692.63,135.8l17.86-7.74v112.74h-17.86v-104.99Z"/>
        <path class="cls-1" d="M797.34,224.54c-6.21,13.19-19.6,17.65-33.35,17.65-23.58,0-38.44-15.77-38.44-39,0-21.91,15.14-38.72,37.6-38.72,24.14,0,35.93,14.09,35.93,42.9h-55.32c0,12.63,7.33,21.84,20.93,21.84,8.09,0,14.79-3.28,18.7-10.88l13.95,6.21ZM781.3,195.66c-.56-11.3-7.39-18.21-17.93-18.21-11.23,0-17.79,7.88-19.33,18.21h37.25Z"/>
        <path class="cls-1" d="M845.54,138.66h34.39c33.35,0,53.65,17.37,53.65,51.35s-21.35,50.79-53.79,50.79h-34.25v-102.13ZM879.3,225.38c23.79,0,33.63-13.81,33.63-36.21s-10.39-35.09-33.91-35.09h-13.67v71.3h13.95Z"/>
        <path class="cls-1" d="M1015.26,224.54c-6.21,13.19-19.6,17.65-33.35,17.65-23.58,0-38.44-15.77-38.44-39,0-21.91,15.14-38.72,37.6-38.72,24.14,0,35.93,14.09,35.93,42.9h-55.32c0,12.63,7.33,21.84,20.93,21.84,8.09,0,14.79-3.28,18.7-10.88l13.95,6.21ZM999.22,195.66c-.56-11.3-7.39-18.21-17.93-18.21-11.23,0-17.79,7.88-19.33,18.21h37.25Z"/>
        <path class="cls-1" d="M1023.41,166.08h19.12l19.32,56.58,19.12-56.58h17.44l-26.93,74.72h-20.93l-27.14-74.72Z"/>
        <path class="cls-1" d="M1118.49,134.48c5.79,0,10.39,4.26,10.39,10.19s-4.46,10.12-10.33,10.12-10.67-4.33-10.67-10.19,4.81-10.12,10.6-10.12ZM1109.49,166.22h17.86v74.58h-17.86v-74.58Z"/>
        <path class="cls-1" d="M1214.97,219.66c-4.95,15.63-18.91,22.53-34.53,22.53-23.72,0-37.88-15.91-37.88-39s15.84-38.72,38.3-38.72c15.14,0,28.18,6.35,33.7,21l-14.44,6.35c-3-8.37-10.25-13.19-19.25-13.19-14.58,0-19.95,12.63-19.95,25.46s5.79,24.56,20.23,24.56c10.26,0,17.16-5.65,20.23-15l13.6,6Z"/>
        <path class="cls-1" d="M1295.89,224.54c-6.21,13.19-19.6,17.65-33.35,17.65-23.58,0-38.44-15.77-38.44-39,0-21.91,15.14-38.72,37.6-38.72,24.14,0,35.93,14.09,35.93,42.9h-55.32c0,12.63,7.33,21.84,20.93,21.84,8.09,0,14.79-3.28,18.7-10.88l13.95,6.21ZM1279.84,195.66c-.56-11.3-7.39-18.21-17.93-18.21-11.23,0-17.79,7.88-19.33,18.21h37.25Z"/>
        <path class="cls-1" d="M1344.08,138.66h25.04l29.44,74.44,29.23-74.44h24.49v102.13h-18.28v-77.86l-32.16,77.86h-8.79l-31.11-77.86v77.86h-17.86v-102.13Z"/>
        <path class="cls-1" d="M1515.34,231.66c-5.65,7.53-13.95,10.53-23.16,10.53-14.02,0-25.05-7.12-25.05-21.77,0-20.72,21.91-24,39.28-24h8.79v-1.19c0-10.67-2.51-17.44-14.58-17.44-7.25,0-13.95,3.77-16.6,10.67l-13.88-6c5.02-13.19,18.98-18,32.3-18,17.65,0,30.49,8.51,30.49,27.49v48.83h-17.58v-9.14ZM1506.2,207.38c-8.23,0-21.35.98-21.35,12.28,0,7.19,5.23,9.84,11.93,9.84,9.07,0,18.42-4.74,18.42-14.86v-7.26h-9Z"/>
        <path class="cls-1" d="M1551.75,166.08h17.86v11.86c4.81-9.21,14.86-13.46,25.25-13.46,17.93,0,26.02,12.63,26.02,29.58v46.74h-18.14v-45c0-10.46-4.67-16.6-15.28-16.6-11.23,0-17.86,6.98-17.86,17.72v43.88h-17.86v-74.72Z"/>
        <path class="cls-1" d="M1682.47,231.66c-5.65,7.53-13.95,10.53-23.16,10.53-14.02,0-25.04-7.12-25.04-21.77,0-20.72,21.91-24,39.28-24h8.79v-1.19c0-10.67-2.51-17.44-14.58-17.44-7.25,0-13.95,3.77-16.6,10.67l-13.88-6c5.02-13.19,18.98-18,32.3-18,17.65,0,30.49,8.51,30.49,27.49v48.83h-17.58v-9.14ZM1673.33,207.38c-8.23,0-21.35.98-21.35,12.28,0,7.19,5.23,9.84,11.93,9.84,9.07,0,18.42-4.74,18.42-14.86v-7.26h-9Z"/>
        <path class="cls-1" d="M1730.39,244.08c3.7,8.3,12.35,10.74,20.65,10.74,13.25,0,21.28-6.35,21.28-19.88v-11.16c-5.09,8.65-15.07,14.02-25.04,14.02-21.14,0-33.42-16.6-33.42-36.07s13.12-37.25,33.83-37.25c10.12,0,19.39,4.12,24.63,13.05v-11.44h17.93v69.14c0,23.51-17.58,33-39.21,33-13.88,0-28.74-3.91-34.74-18l14.09-6.14ZM1773.02,200.75c0-12.77-6.91-22.53-20.44-22.53-14.3,0-20.37,10.88-20.37,23.86,0,11.65,7.32,21.98,19.74,21.98,13.95,0,21.07-10.32,21.07-23.3Z"/>
        <path class="cls-1" d="M1876.61,224.54c-6.21,13.19-19.6,17.65-33.35,17.65-23.58,0-38.44-15.77-38.44-39,0-21.91,15.14-38.72,37.6-38.72,24.14,0,35.93,14.09,35.93,42.9h-55.32c0,12.63,7.33,21.84,20.93,21.84,8.09,0,14.79-3.28,18.7-10.88l13.95,6.21ZM1860.56,195.66c-.56-11.3-7.39-18.21-17.93-18.21-11.23,0-17.79,7.88-19.33,18.21h37.25Z"/>
        <path class="cls-1" d="M1892.71,166.08h17.86v14.02c5.02-10.26,13.19-15.14,24.56-15.14v16.53c-14.44,0-24.56,4.74-24.56,20.72v38.58h-17.86v-74.72Z"/>
        <path class="cls-1" d="M1981.37,138.66h35.51c21.49,0,38.3,8.65,38.3,32.16,0,25.88-20.44,31.46-42.28,31.46h-11.72v38.51h-19.81v-102.13ZM2016.74,188.06c12.21,0,19.12-5.02,19.12-17.37s-7.53-17.02-19.12-17.02h-15.56v34.39h15.56Z"/>
        <path class="cls-1" d="M2068.99,135.8l17.86-7.74v112.74h-17.86v-104.99Z"/>
        <path class="cls-1" d="M2157.02,229.08c-4.67,9.07-14.3,13.12-24.63,13.12-17.16,0-26.23-11.3-26.23-28.25v-47.86h17.86v45.69c0,10.19,4.67,16.46,15.07,16.46,11.16,0,17.93-7.19,17.93-17.86v-44.3h17.79v74.72h-17.79v-11.72Z"/>
        <path class="cls-1" d="M2202.29,218.54c2.79,7.33,10.4,10.81,18.49,10.81,5.79,0,12.98-1.81,12.98-8.86,0-7.46-8.09-9.21-17.3-11.16-12-2.51-25.46-5.44-25.46-22.18,0-15.35,14.3-22.67,27.83-22.67,11.86,0,25.39,4.46,30.28,16.25l-13.25,5.72c-2.93-6.63-10.25-9.14-16.39-9.14s-11.65,2.37-11.65,8.44c0,6.84,7.33,8.3,16.32,10.05,12.21,2.37,26.72,5.16,26.72,22.6s-14.72,23.79-30.28,23.79c-13.19,0-27.35-4.46-32.02-17.86l13.74-5.79Z"/>
      </g>
      <g>
        <path class="cls-2" d="M27.13,33.89v183.43c0,3.73,3.03,6.74,6.76,6.74h54.64l-12.78-12.76,19.19-19.19,35.93,35.93c3.88,3.88,5.03,9.71,2.94,14.78-2.11,5.08-7.05,8.38-12.53,8.38H30.27c-16.72,0-30.27-13.55-30.27-30.28V30.28C0,13.56,13.55,0,30.27,0h123.77v27.14H33.89c-3.73,0-6.76,3.02-6.76,6.74Z"/>
        <path class="cls-3" d="M288,30.28v190.64c0,16.73-13.55,30.28-30.27,30.28h-78.79c-13.76,0-24.9-11.15-24.9-24.9V59.58c0-5.49,3.3-10.44,8.37-12.53,5.08-2.11,10.91-.94,14.79,2.94l35.93,35.92-19.19,19.19-12.78-12.76v124.96c0,3.74,3.03,6.77,6.77,6.77h66.14c3.74,0,6.79-3.03,6.79-6.77V33.92c0-3.74-3.05-6.77-6.79-6.77h-100.04V0h103.68c16.73,0,30.28,13.56,30.28,30.28Z"/>
      </g>
    </g>
  </g>
</svg>