<?xml version="1.0" encoding="UTF-8"?>
<svg id="Layer_3" data-name="Layer 3" xmlns="http://www.w3.org/2000/svg" viewBox="0 0 1739.91 288">
  <defs>
    <style>
      .cls-1 {
        fill: #231f20;
      }

      .cls-2 {
        fill: #009d54;
      }

      .cls-3 {
        fill: #007ac1;
      }
    </style>
  </defs>
  <g id="Layer_1" data-name="Layer 1">
    <g>
      <g>
        <path class="cls-1" d="M315.31,143.3c0-50.99,37.66-88.18,89.59-88.18s87.23,37.18,87.23,88.53-36.36,89.12-88.77,89.12-88.06-36.95-88.06-89.48ZM457.44,143.89c0-33.88-17.71-62.21-54.42-62.21s-52.76,28.8-52.76,63.27c0,32.46,19.36,61.26,54.89,61.26s52.29-30.22,52.29-62.33Z"/>
        <path class="cls-1" d="M530.97,178.36c7.08,19.71,24.55,29.86,45.56,29.86,15.94,0,32.7-8.38,32.7-26.44,0-19.12-18.89-22.55-39.9-26.32-26.8-4.84-56.19-10.51-56.19-50.29,0-33.17,29.75-50.05,59.61-50.05,27.62,0,52.06,11.33,62.8,38.25l-24.55,11.1c-7.32-15.23-21.13-24.44-38.6-24.44-14.05,0-28.09,5.9-28.09,22.78,0,18.65,17.47,21.96,38.48,25.73,27.15,4.84,58.31,10.27,58.31,50.64,0,35.06-32.7,53.59-64.57,53.59s-62.21-11.1-71.65-43.2l26.09-11.21Z"/>
        <path class="cls-1" d="M720.89,57.6h58.19c56.42,0,90.77,29.39,90.77,86.88s-36.12,85.93-91.01,85.93h-57.96V57.6ZM778.02,204.33c40.25,0,56.9-23.37,56.9-61.26s-17.59-59.38-57.37-59.38h-23.14v120.64h23.61Z"/>
        <path class="cls-1" d="M1008.08,202.91c-10.5,22.31-33.17,29.86-56.42,29.86-39.9,0-65.04-26.68-65.04-65.99,0-37.07,25.62-65.51,63.62-65.51,40.84,0,60.79,23.84,60.79,72.6h-93.61c0,21.37,12.39,36.95,35.41,36.95,13.69,0,25.02-5.55,31.63-18.42l23.61,10.51ZM980.93,154.04c-.94-19.12-12.51-30.81-30.34-30.81-19,0-30.1,13.34-32.7,30.81h63.03Z"/>
        <path class="cls-1" d="M1035.34,103.99h30.22v20.42c8.74-14.75,26.44-23.14,43.32-23.14,38.6,0,57.25,31.04,57.25,65.51s-19.83,65.99-56.42,65.99c-17.71,0-35.65-7.08-44.15-22.19v63.15h-30.22V103.99ZM1134.97,166.08c0-21.37-10.62-41.2-35.41-41.2s-35.06,19.95-35.06,42.73,10.86,41.55,36,41.55c26.68,0,34.47-19.83,34.47-43.09Z"/>
        <path class="cls-1" d="M1191.74,52.76l30.22-13.1v190.76h-30.22V52.76Z"/>
        <path class="cls-1" d="M1314.26,101.28c38.36,0,67.87,26.91,67.87,65.63s-31.04,65.87-69.17,65.87-69.41-26.68-69.41-65.28,32.7-66.22,70.71-66.22ZM1349.68,167.15c0-23.25-11.8-42.61-36.59-42.61s-35.65,20.3-35.65,43.44,11.92,41.55,36.36,41.55,35.88-20.3,35.88-42.38Z"/>
        <path class="cls-1" d="M1439.15,217.55l-49.58-113.56h32.34l33.17,80.74,30.93-80.74h29.39l-69.53,169.74h-29.63l22.9-56.19Z"/>
        <path class="cls-1" d="M1640.87,202.91c-10.5,22.31-33.17,29.86-56.42,29.86-39.9,0-65.04-26.68-65.04-65.99,0-37.07,25.62-65.51,63.62-65.51,40.84,0,60.79,23.84,60.79,72.6h-93.61c0,21.37,12.39,36.95,35.41,36.95,13.69,0,25.02-5.55,31.63-18.42l23.61,10.51ZM1613.72,154.04c-.94-19.12-12.51-30.81-30.34-30.81-19,0-30.1,13.34-32.7,30.81h63.03Z"/>
        <path class="cls-1" d="M1668.14,103.99h30.22v23.73c8.5-17.35,22.31-25.62,41.55-25.62v27.98c-24.43,0-41.55,8.03-41.55,35.06v65.28h-30.22v-126.42Z"/>
      </g>
      <g>
        <path class="cls-3" d="M214.97,224.7l-19.73-21.95c20.94-18.83,32.95-45.76,32.95-73.9,0-54.77-44.56-99.33-99.33-99.33S29.52,74.08,29.52,128.85c0,27.87,11.82,54.63,32.43,73.42l-19.89,21.81C15.34,199.72,0,165.01,0,128.85,0,57.8,57.81,0,128.86,0s128.85,57.8,128.85,128.85c0,36.5-15.58,71.44-42.74,95.85Z"/>
        <path class="cls-2" d="M257.71,258.37v29.52c-.95.02-1.9.03-2.85.03-45,0-85.7-21.02-111.66-54.84v54.92h-29.52v-54.04c-3.62,4.62-7.56,9.05-11.77,13.22-26.53,26.27-61.71,40.74-99.03,40.74-.97,0-1.92-.02-2.87-.03v-29.52c.95.02,1.92.03,2.87.03,29.5,0,57.3-11.43,78.27-32.21,10.59-10.48,18.91-22.89,24.53-36.49.03-.08.07-.15.08-.23,1.9-4.59,3.49-9.3,4.72-14.14.02-.05.03-.1.03-.15.03.02.07.03.1.05.08.03.16.08.25.1,4.26,1.79,8.82,2.95,13.61,3.36h.02c.08.02.15.03.23.03h.02c1.34.13,2.71.2,4.08.2s2.84-.07,4.25-.21c.1,0,.18,0,.28-.02,4.67-.44,9.13-1.57,13.3-3.31.18-.07.36-.15.54-.23,12.69,49.12,56.69,83.24,107.68,83.24.95,0,1.9-.02,2.85-.03Z"/>
        <path class="cls-3" d="M175.55,130.34c-.52-14-7.25-26.47-17.5-34.67-8-6.46-18.17-10.31-29.24-10.31s-21.47,3.94-29.52,10.53c-10.46,8.51-17.17,21.45-17.25,35.95-.02.1-.02.21-.02.31,0,4.62.67,9.1,1.95,13.32,3.97,13.41,13.82,24.32,26.53,29.73.03.02.07.03.1.05.08.03.16.08.25.1,4.26,1.79,8.82,2.95,13.61,3.36h.02c.08.02.15.03.23.03h.02c1.34.13,2.71.2,4.08.2s2.84-.07,4.25-.21c.1,0,.18,0,.28-.02,4.67-.44,9.13-1.57,13.3-3.31.18-.07.36-.15.54-.23.11-.03.23-.08.34-.15,12.05-5.26,21.47-15.48,25.66-28.06,1.56-4.66,2.41-9.64,2.41-14.81,0-.61-.02-1.2-.05-1.8ZM111.73,129.63c1.21-8.35,8.41-14.76,17.09-14.76s15.22,5.85,16.89,13.64c.25,1.16.38,2.38.38,3.62,0,2.95-.75,5.76-2.07,8.2-2.92,5.4-8.64,9.07-15.2,9.07-6.97,0-12.99-4.15-15.71-10.1-1-2.18-1.56-4.61-1.56-7.17,0-.85.07-1.69.18-2.51Z"/>
      </g>
    </g>
  </g>
</svg>