<?xml version="1.0" encoding="UTF-8"?>
<svg id="Layer_3" data-name="Layer 3" xmlns="http://www.w3.org/2000/svg" viewBox="0 0 1157.2 288">
  <defs>
    <style>
      .cls-1 {
        fill: #231f20;
      }

      .cls-2 {
        fill: #009d54;
      }

      .cls-3 {
        fill: #007ac1;
      }
    </style>
  </defs>
  <g id="Layer_1" data-name="Layer 1">
    <g>
      <g>
        <path class="cls-1" d="M315.31,28.79h21.13l17.61,46.22,17.18-46.22h20.75v70.64h-15.92v-49.6l-19.54,49.6h-7.24l-19.64-49.6v49.6h-14.33V28.79Z"/>
        <path class="cls-1" d="M435.12,93.2c-3.67,5.45-9.12,7.33-15.25,7.33-10.04,0-17.56-5.02-17.56-15.34,0-13.12,12.26-16.65,23.4-16.65h9.26c0-6.95-.68-11.63-8.78-11.63-4.54,0-9.02,2.07-10.57,6.66l-10.95-4.78c3.38-9.31,13.85-12.26,23.16-12.26,12.5,0,21.28,5.36,21.28,19.2v33.68h-13.99v-6.22ZM429.47,76.99c-5.11,0-13.17.39-13.17,7.33,0,4.58,3.43,6.22,7.58,6.22,5.6,0,11.1-2.94,11.1-9.22v-4.34h-5.5Z"/>
        <path class="cls-1" d="M461.46,47.75h14.33v8.2c3.33-6.37,10.37-9.41,17.47-9.41,12.06,0,17.23,8.73,17.23,19.98v32.91h-14.33v-30.83c0-6.42-2.9-10.37-9.55-10.37-7.09,0-10.81,4.54-10.81,11.39v29.82h-14.33v-51.68Z"/>
        <path class="cls-1" d="M552.32,93.2c-3.67,5.45-9.12,7.33-15.25,7.33-10.04,0-17.56-5.02-17.56-15.34,0-13.12,12.26-16.65,23.4-16.65h9.26c0-6.95-.68-11.63-8.78-11.63-4.54,0-9.02,2.07-10.57,6.66l-10.95-4.78c3.38-9.31,13.85-12.26,23.16-12.26,12.5,0,21.28,5.36,21.28,19.2v33.68h-13.99v-6.22ZM546.68,76.99c-5.11,0-13.17.39-13.17,7.33,0,4.58,3.43,6.22,7.58,6.22,5.6,0,11.1-2.94,11.1-9.22v-4.34h-5.5Z"/>
        <path class="cls-1" d="M588.65,101.12c2.17,5.26,7.67,6.9,13.03,6.9,8.35,0,12.98-4,12.98-12.64v-7.82c-3.38,5.79-9.89,9.6-16.6,9.6-14.67,0-22.53-11.68-22.53-25.38s8.64-25.24,23.11-25.24c6.71,0,12.5,2.56,16.02,8.93v-7.72h14.23v47.62c0,16.84-12.06,23.11-27.21,23.11-9.7,0-20.41-2.56-24.27-12.45l11.24-4.92ZM615.05,71.68c0-8.06-3.91-14.23-12.55-14.23s-12.35,6.8-12.35,15.01c0,7.48,4.1,13.94,12.5,13.94s12.4-6.76,12.4-14.72Z"/>
        <path class="cls-1" d="M688.87,88.38c-4,9.31-14.19,12.16-23.02,12.16-17.08,0-27.45-10.57-27.45-27.12,0-15.49,11-26.88,26.68-26.88,10.04,0,19.06,4.63,22.92,14.09,2.17,5.31,2.17,10.76,2.17,16.16h-37.25c.39,7.96,4.39,13.56,12.83,13.56,5.6,0,9.84-1.45,12.55-6.66l10.57,4.68ZM676.23,68.02c-.39-7.09-3.81-11.58-10.95-11.58s-11.24,4.92-12.16,11.58h23.11Z"/>
        <path class="cls-1" d="M701.42,28.79h44.78v8.78h-33.82v21.52h27.6v8.64h-27.6v22.92h35.51v8.78h-46.47V28.79Z"/>
        <path class="cls-1" d="M759.22,47.7h10.28v8.2c3.09-6.42,9.94-9.17,16.94-9.17,12.55,0,18.43,8.93,18.43,20.84v31.85h-10.28v-31.56c0-7.96-3.76-12.5-11.68-12.5-8.35,0-13.41,5.07-13.41,13.17v30.88h-10.28v-51.72Z"/>
        <path class="cls-1" d="M825.57,102.27c2.7,6.03,9.41,8.01,15.49,8.01,9.51,0,16.12-4.83,16.12-14.81v-7.62c-3.62,6.08-10.9,9.7-17.9,9.7-14.52,0-23.11-11.44-23.11-24.95s9.36-25.86,23.64-25.86c7,0,13.75,2.8,17.37,8.97v-8.01h10.18v48.06c0,15.73-11.82,22.63-26.54,22.63-9.55,0-18.96-2.9-23.35-12.55l8.11-3.57ZM857.46,71.68c0-9.51-5.26-16.84-15.3-16.84-10.57,0-15.54,8.11-15.54,17.8,0,8.73,5.74,16.79,15.01,16.79,10.23,0,15.83-7.96,15.83-17.76Z"/>
        <path class="cls-1" d="M886.07,26.62c3.43,0,6.37,2.65,6.37,6.22s-2.9,6.22-6.37,6.22-6.37-2.75-6.37-6.22,2.9-6.22,6.37-6.22ZM881.1,47.85h10.18v51.58h-10.18v-51.58Z"/>
        <path class="cls-1" d="M906.97,47.7h10.28v8.2c3.09-6.42,9.94-9.17,16.94-9.17,12.55,0,18.43,8.93,18.43,20.84v31.85h-10.28v-31.56c0-7.96-3.76-12.5-11.68-12.5-8.35,0-13.41,5.07-13.41,13.17v30.88h-10.28v-51.72Z"/>
        <path class="cls-1" d="M1011.72,87.85c-4.54,8.78-12.64,12.55-21.91,12.55-16.31,0-25.91-11.58-25.91-26.63s9.75-27.02,24.99-27.02c18.09,0,23.84,12.83,23.84,28.95h-38.36c0,9.51,5.07,16.74,14.96,16.74,6.32,0,11.15-2.99,13.9-8.2l8.49,3.62ZM1002.55,68.35c-.53-8.35-4.87-13.8-13.27-13.8s-13.46,6.03-14.62,13.8h27.89Z"/>
      </g>
      <g>
        <path class="cls-1" d="M315.31,207.71c0-30.14,22.25-52.11,52.95-52.11s51.56,21.98,51.56,52.32-21.49,52.67-52.46,52.67-52.04-21.84-52.04-52.88ZM399.31,208.06c0-20.02-10.46-36.77-32.16-36.77s-31.18,17.02-31.18,37.39c0,19.18,11.44,36.21,32.44,36.21s30.91-17.86,30.91-36.83Z"/>
        <path class="cls-1" d="M442.76,228.43c4.19,11.65,14.51,17.65,26.93,17.65,9.42,0,19.32-4.95,19.32-15.63,0-11.3-11.16-13.32-23.58-15.56-15.84-2.86-33.21-6.21-33.21-29.72,0-19.6,17.58-29.58,35.23-29.58,16.32,0,30.77,6.7,37.11,22.6l-14.51,6.56c-4.33-9-12.49-14.44-22.81-14.44-8.3,0-16.6,3.49-16.6,13.46,0,11.02,10.33,12.98,22.74,15.21,16.04,2.86,34.46,6.07,34.46,29.93,0,20.72-19.32,31.67-38.16,31.67s-36.77-6.56-42.35-25.53l15.42-6.63Z"/>
        <path class="cls-1" d="M554.99,157.06h34.39c33.35,0,53.65,17.37,53.65,51.35s-21.35,50.79-53.79,50.79h-34.25v-102.13ZM588.76,243.78c23.79,0,33.63-13.81,33.63-36.21s-10.39-35.09-33.91-35.09h-13.67v71.3h13.95Z"/>
        <path class="cls-1" d="M724.72,242.94c-6.21,13.19-19.6,17.65-33.35,17.65-23.58,0-38.44-15.77-38.44-39,0-21.91,15.14-38.72,37.6-38.72,24.14,0,35.93,14.09,35.93,42.9h-55.32c0,12.63,7.33,21.84,20.93,21.84,8.09,0,14.79-3.28,18.7-10.88l13.95,6.21ZM708.67,214.06c-.56-11.3-7.39-18.21-17.93-18.21-11.23,0-17.79,7.88-19.33,18.21h37.25Z"/>
        <path class="cls-1" d="M740.82,184.48h17.86v12.07c5.16-8.72,15.63-13.67,25.6-13.67,22.81,0,33.83,18.35,33.83,38.72s-11.72,39-33.35,39c-10.46,0-21.07-4.19-26.09-13.12v37.32h-17.86v-100.32ZM799.7,221.18c0-12.63-6.28-24.35-20.93-24.35s-20.72,11.79-20.72,25.25,6.42,24.56,21.28,24.56c15.77,0,20.37-11.72,20.37-25.46Z"/>
        <path class="cls-1" d="M833.25,154.2l17.86-7.74v112.74h-17.86v-104.99Z"/>
        <path class="cls-1" d="M905.66,182.88c22.67,0,40.11,15.91,40.11,38.79s-18.35,38.93-40.88,38.93-41.02-15.77-41.02-38.58,19.32-39.14,41.79-39.14ZM926.59,221.8c0-13.74-6.98-25.18-21.63-25.18s-21.07,12-21.07,25.67,7.05,24.56,21.49,24.56,21.21-12,21.21-25.04Z"/>
        <path class="cls-1" d="M979.46,251.59l-29.3-67.11h19.12l19.6,47.72,18.28-47.72h17.37l-41.09,100.32h-17.51l13.53-33.21Z"/>
        <path class="cls-1" d="M1098.68,242.94c-6.21,13.19-19.6,17.65-33.35,17.65-23.58,0-38.44-15.77-38.44-39,0-21.91,15.14-38.72,37.6-38.72,24.14,0,35.93,14.09,35.93,42.9h-55.32c0,12.63,7.33,21.84,20.93,21.84,8.09,0,14.79-3.28,18.7-10.88l13.95,6.21ZM1082.63,214.06c-.56-11.3-7.39-18.21-17.93-18.21-11.23,0-17.79,7.88-19.33,18.21h37.25Z"/>
        <path class="cls-1" d="M1114.79,184.48h17.86v14.02c5.02-10.26,13.19-15.14,24.56-15.14v16.53c-14.44,0-24.56,4.74-24.56,20.72v38.58h-17.86v-74.72Z"/>
      </g>
      <g>
        <path class="cls-3" d="M214.97,224.7l-19.73-21.95c20.94-18.83,32.95-45.76,32.95-73.9,0-54.77-44.56-99.33-99.33-99.33S29.52,74.08,29.52,128.85c0,27.87,11.82,54.63,32.43,73.42l-19.89,21.81C15.34,199.72,0,165.01,0,128.85,0,57.8,57.81,0,128.86,0s128.85,57.8,128.85,128.85c0,36.5-15.58,71.44-42.74,95.85Z"/>
        <path class="cls-2" d="M257.71,258.37v29.52c-.95.02-1.9.03-2.85.03-45,0-85.7-21.02-111.66-54.84v54.92h-29.52v-54.04c-3.62,4.62-7.56,9.05-11.77,13.22-26.53,26.27-61.71,40.74-99.03,40.74-.97,0-1.92-.02-2.87-.03v-29.52c.95.02,1.92.03,2.87.03,29.5,0,57.3-11.43,78.27-32.21,10.59-10.48,18.91-22.89,24.53-36.49.03-.08.07-.15.08-.23,1.9-4.59,3.49-9.3,4.72-14.14.02-.05.03-.1.03-.15.03.02.07.03.1.05.08.03.16.08.25.1,4.26,1.79,8.82,2.95,13.61,3.36h.02c.08.02.15.03.23.03h.02c1.34.13,2.71.2,4.08.2s2.84-.07,4.25-.21c.1,0,.18,0,.28-.02,4.67-.44,9.13-1.57,13.3-3.31.18-.07.36-.15.54-.23,12.69,49.12,56.69,83.24,107.68,83.24.95,0,1.9-.02,2.85-.03Z"/>
        <path class="cls-3" d="M175.55,130.34c-.52-14-7.25-26.47-17.5-34.67-8-6.46-18.17-10.31-29.24-10.31s-21.47,3.94-29.52,10.53c-10.46,8.51-17.17,21.45-17.25,35.95-.02.1-.02.21-.02.31,0,4.62.67,9.1,1.95,13.32,3.97,13.41,13.82,24.32,26.53,29.73.03.02.07.03.1.05.08.03.16.08.25.1,4.26,1.79,8.82,2.95,13.61,3.36h.02c.08.02.15.03.23.03h.02c1.34.13,2.71.2,4.08.2s2.84-.07,4.25-.21c.1,0,.18,0,.28-.02,4.67-.44,9.13-1.57,13.3-3.31.18-.07.36-.15.54-.23.11-.03.23-.08.34-.15,12.05-5.26,21.47-15.48,25.66-28.06,1.56-4.66,2.41-9.64,2.41-14.81,0-.61-.02-1.2-.05-1.8ZM111.73,129.63c1.21-8.35,8.41-14.76,17.09-14.76s15.22,5.85,16.89,13.64c.25,1.16.38,2.38.38,3.62,0,2.95-.75,5.76-2.07,8.2-2.92,5.4-8.64,9.07-15.2,9.07-6.97,0-12.99-4.15-15.71-10.1-1-2.18-1.56-4.61-1.56-7.17,0-.85.07-1.69.18-2.51Z"/>
      </g>
    </g>
  </g>
</svg>