<?xml version="1.0" encoding="UTF-8"?>
<svg id="Layer_2" data-name="Layer 2" xmlns="http://www.w3.org/2000/svg" viewBox="0 0 257.71 288">
  <defs>
    <style>
      .cls-1 {
        fill: #009d54;
      }

      .cls-2 {
        fill: #007ac1;
      }
    </style>
  </defs>
  <g id="Layer_1" data-name="Layer 1">
    <g>
      <path class="cls-2" d="M214.97,224.7l-19.73-21.95c20.94-18.83,32.95-45.76,32.95-73.9,0-54.77-44.56-99.33-99.33-99.33S29.52,74.08,29.52,128.85c0,27.87,11.82,54.63,32.43,73.42l-19.89,21.81C15.34,199.72,0,165.01,0,128.85,0,57.8,57.81,0,128.86,0s128.85,57.8,128.85,128.85c0,36.5-15.58,71.44-42.74,95.85Z"/>
      <path class="cls-1" d="M257.71,258.37v29.52c-.95.02-1.9.03-2.85.03-45,0-85.7-21.02-111.66-54.84v54.92h-29.52v-54.04c-3.62,4.62-7.56,9.05-11.77,13.22-26.53,26.27-61.71,40.74-99.03,40.74-.97,0-1.92-.02-2.87-.03v-29.52c.95.02,1.92.03,2.87.03,29.5,0,57.3-11.43,78.27-32.21,10.59-10.48,18.91-22.89,24.53-36.49.03-.08.07-.15.08-.23,1.9-4.59,3.49-9.3,4.72-14.14.02-.05.03-.1.03-.15.03.02.07.03.1.05.08.03.16.08.25.1,4.26,1.79,8.82,2.95,13.61,3.36h.02c.08.02.15.03.23.03h.02c1.34.13,2.71.2,4.08.2s2.84-.07,4.25-.21c.1,0,.18,0,.28-.02,4.67-.44,9.13-1.57,13.3-3.31.18-.07.36-.15.54-.23,12.69,49.12,56.69,83.24,107.68,83.24.95,0,1.9-.02,2.85-.03Z"/>
      <path class="cls-2" d="M175.55,130.34c-.52-14-7.25-26.47-17.5-34.67-8-6.46-18.17-10.31-29.24-10.31s-21.47,3.94-29.52,10.53c-10.46,8.51-17.17,21.45-17.25,35.95-.02.1-.02.21-.02.31,0,4.62.67,9.1,1.95,13.32,3.97,13.41,13.82,24.32,26.53,29.73.03.02.07.03.1.05.08.03.16.08.25.1,4.26,1.79,8.82,2.95,13.61,3.36h.02c.08.02.15.03.23.03h.02c1.34.13,2.71.2,4.08.2s2.84-.07,4.25-.21c.1,0,.18,0,.28-.02,4.67-.44,9.13-1.57,13.3-3.31.18-.07.36-.15.54-.23.11-.03.23-.08.34-.15,12.05-5.26,21.47-15.48,25.66-28.06,1.56-4.66,2.41-9.64,2.41-14.81,0-.61-.02-1.2-.05-1.8ZM111.73,129.63c1.21-8.35,8.41-14.76,17.09-14.76s15.22,5.85,16.89,13.64c.25,1.16.38,2.38.38,3.62,0,2.95-.75,5.76-2.07,8.2-2.92,5.4-8.64,9.07-15.2,9.07-6.97,0-12.99-4.15-15.71-10.1-1-2.18-1.56-4.61-1.56-7.17,0-.85.07-1.69.18-2.51Z"/>
    </g>
  </g>
</svg>