<?xml version="1.0" encoding="UTF-8"?>
<svg id="Layer_3" data-name="Layer 3" xmlns="http://www.w3.org/2000/svg" viewBox="0 0 1631.25 288">
  <defs>
    <style>
      .cls-1 {
        fill: #231f20;
      }

      .cls-2 {
        fill: #009d54;
      }

      .cls-3 {
        fill: #007ac1;
      }
    </style>
  </defs>
  <g id="Layer_1" data-name="Layer 1">
    <g>
      <g>
        <path class="cls-1" d="M329.81,28.79h21.13l17.61,46.22,17.18-46.22h20.75v70.64h-15.92v-49.6l-19.54,49.6h-7.24l-19.64-49.6v49.6h-14.33V28.79Z"/>
        <path class="cls-1" d="M449.61,93.2c-3.67,5.45-9.12,7.33-15.25,7.33-10.04,0-17.56-5.02-17.56-15.34,0-13.12,12.26-16.65,23.4-16.65h9.26c0-6.95-.68-11.63-8.78-11.63-4.54,0-9.02,2.07-10.57,6.66l-10.95-4.78c3.38-9.31,13.85-12.26,23.16-12.26,12.5,0,21.28,5.36,21.28,19.2v33.68h-13.99v-6.22ZM443.97,76.99c-5.11,0-13.17.39-13.17,7.33,0,4.58,3.43,6.22,7.58,6.22,5.6,0,11.1-2.94,11.1-9.22v-4.34h-5.5Z"/>
        <path class="cls-1" d="M475.96,47.75h14.33v8.2c3.33-6.37,10.37-9.41,17.47-9.41,12.06,0,17.23,8.73,17.23,19.98v32.91h-14.33v-30.83c0-6.42-2.9-10.37-9.55-10.37-7.09,0-10.81,4.54-10.81,11.39v29.82h-14.33v-51.68Z"/>
        <path class="cls-1" d="M566.81,93.2c-3.67,5.45-9.12,7.33-15.25,7.33-10.04,0-17.56-5.02-17.56-15.34,0-13.12,12.26-16.65,23.4-16.65h9.26c0-6.95-.68-11.63-8.78-11.63-4.54,0-9.02,2.07-10.57,6.66l-10.95-4.78c3.38-9.31,13.85-12.26,23.16-12.26,12.5,0,21.28,5.36,21.28,19.2v33.68h-13.99v-6.22ZM561.17,76.99c-5.11,0-13.17.39-13.17,7.33,0,4.58,3.43,6.22,7.58,6.22,5.6,0,11.1-2.94,11.1-9.22v-4.34h-5.5Z"/>
        <path class="cls-1" d="M603.15,101.12c2.17,5.26,7.67,6.9,13.03,6.9,8.35,0,12.98-4,12.98-12.64v-7.82c-3.38,5.79-9.89,9.6-16.6,9.6-14.67,0-22.53-11.68-22.53-25.38s8.64-25.24,23.11-25.24c6.71,0,12.5,2.56,16.02,8.93v-7.72h14.23v47.62c0,16.84-12.06,23.11-27.21,23.11-9.7,0-20.41-2.56-24.27-12.45l11.24-4.92ZM629.54,71.68c0-8.06-3.91-14.23-12.55-14.23s-12.35,6.8-12.35,15.01c0,7.48,4.1,13.94,12.5,13.94s12.4-6.76,12.4-14.72Z"/>
        <path class="cls-1" d="M703.36,88.38c-4,9.31-14.19,12.16-23.02,12.16-17.08,0-27.45-10.57-27.45-27.12,0-15.49,11-26.88,26.68-26.88,10.04,0,19.06,4.63,22.92,14.09,2.17,5.31,2.17,10.76,2.17,16.16h-37.25c.39,7.96,4.39,13.56,12.83,13.56,5.6,0,9.84-1.45,12.55-6.66l10.57,4.68ZM690.72,68.02c-.39-7.09-3.81-11.58-10.95-11.58s-11.24,4.92-12.16,11.58h23.11Z"/>
        <path class="cls-1" d="M715.91,28.79h44.78v8.78h-33.82v21.52h27.6v8.64h-27.6v22.92h35.51v8.78h-46.47V28.79Z"/>
        <path class="cls-1" d="M773.71,47.7h10.28v8.2c3.09-6.42,9.94-9.17,16.94-9.17,12.55,0,18.43,8.93,18.43,20.84v31.85h-10.28v-31.56c0-7.96-3.76-12.5-11.68-12.5-8.35,0-13.41,5.07-13.41,13.17v30.88h-10.28v-51.72Z"/>
        <path class="cls-1" d="M840.06,102.27c2.7,6.03,9.41,8.01,15.49,8.01,9.51,0,16.12-4.83,16.12-14.81v-7.62c-3.62,6.08-10.9,9.7-17.9,9.7-14.52,0-23.11-11.44-23.11-24.95s9.36-25.86,23.64-25.86c7,0,13.75,2.8,17.37,8.97v-8.01h10.18v48.06c0,15.73-11.82,22.63-26.54,22.63-9.55,0-18.96-2.9-23.35-12.55l8.11-3.57ZM871.95,71.68c0-9.51-5.26-16.84-15.3-16.84-10.57,0-15.54,8.11-15.54,17.8,0,8.73,5.74,16.79,15.01,16.79,10.23,0,15.83-7.96,15.83-17.76Z"/>
        <path class="cls-1" d="M900.57,26.62c3.43,0,6.37,2.65,6.37,6.22s-2.9,6.22-6.37,6.22-6.37-2.75-6.37-6.22,2.9-6.22,6.37-6.22ZM895.6,47.85h10.18v51.58h-10.18v-51.58Z"/>
        <path class="cls-1" d="M921.46,47.7h10.28v8.2c3.09-6.42,9.94-9.17,16.94-9.17,12.55,0,18.43,8.93,18.43,20.84v31.85h-10.28v-31.56c0-7.96-3.76-12.5-11.68-12.5-8.35,0-13.41,5.07-13.41,13.17v30.88h-10.28v-51.72Z"/>
        <path class="cls-1" d="M1026.21,87.85c-4.54,8.78-12.64,12.55-21.91,12.55-16.31,0-25.91-11.58-25.91-26.63s9.75-27.02,24.99-27.02c18.09,0,23.84,12.83,23.84,28.95h-38.36c0,9.51,5.07,16.74,14.96,16.74,6.32,0,11.15-2.99,13.9-8.2l8.49,3.62ZM1017.04,68.35c-.53-8.35-4.87-13.8-13.27-13.8s-13.46,6.03-14.62,13.8h27.89Z"/>
      </g>
      <g>
        <path class="cls-1" d="M329.81,157.06h35.51c21.49,0,38.3,8.65,38.3,32.16,0,25.88-20.44,31.46-42.28,31.46h-11.72v38.51h-19.81v-102.13ZM365.18,206.46c12.21,0,19.12-5.02,19.12-17.37s-7.53-17.02-19.12-17.02h-15.56v34.39h15.56Z"/>
        <path class="cls-1" d="M455.93,250.06c-5.65,7.53-13.95,10.53-23.16,10.53-14.02,0-25.04-7.12-25.04-21.77,0-20.72,21.91-24,39.28-24h8.79v-1.19c0-10.67-2.51-17.44-14.58-17.44-7.26,0-13.95,3.77-16.6,10.67l-13.88-6c5.02-13.19,18.98-18,32.3-18,17.65,0,30.49,8.51,30.49,27.49v48.83h-17.58v-9.14ZM446.79,225.78c-8.23,0-21.35.98-21.35,12.28,0,7.19,5.23,9.84,11.93,9.84,9.07,0,18.42-4.74,18.42-14.86v-7.26h-9Z"/>
        <path class="cls-1" d="M530.15,258.64c-3.84,1.12-7.81,1.81-12.28,1.81-14.23,0-22.67-7.4-22.67-22.25v-40.6h-10.05v-13.12h10.05v-15.42l17.86-7.74v23.16h16.46v13.12h-16.46v39c0,5.86,2.51,9.49,9.07,9.49,2.51,0,5.3-.56,8.02-1.47v14.02Z"/>
        <path class="cls-1" d="M611,238.06c-4.95,15.63-18.91,22.53-34.53,22.53-23.72,0-37.88-15.91-37.88-39s15.84-38.72,38.3-38.72c15.14,0,28.18,6.35,33.7,21l-14.44,6.35c-3-8.37-10.25-13.19-19.25-13.19-14.58,0-19.95,12.63-19.95,25.46s5.79,24.56,20.23,24.56c10.26,0,17.16-5.65,20.23-15l13.6,6Z"/>
        <path class="cls-1" d="M625.15,150.64h17.86v45.69c4.81-9.28,14.65-13.46,24.98-13.46,17.86,0,26.79,12.56,26.79,29.58v46.74h-18v-45c0-10.74-5.58-16.6-15.98-16.6-11.44,0-17.79,7.05-17.79,17.72v43.88h-17.86v-108.55Z"/>
        <path class="cls-1" d="M835.96,231.08c-6.35,19.39-24.63,29.51-44.37,29.51-32.93,0-51.07-20.86-51.07-52.95,0-29.3,20.37-52.04,50.51-52.04,19.32,0,36.21,9.28,43.88,27.56l-16.32,6.91c-4.33-11.23-14.44-19.05-26.72-19.05-21.63,0-30.56,18.49-30.56,37.32s9.77,36.42,31.04,36.42c13.46,0,23.23-8.16,27.83-20.44l15.77,6.77Z"/>
        <path class="cls-1" d="M883.67,182.88c22.67,0,40.11,15.91,40.11,38.79s-18.35,38.93-40.88,38.93-41.02-15.77-41.02-38.58,19.32-39.14,41.79-39.14ZM904.6,221.8c0-13.74-6.98-25.18-21.63-25.18s-21.07,12-21.07,25.67,7.05,24.56,21.49,24.56,21.21-12,21.21-25.04Z"/>
        <path class="cls-1" d="M936.82,184.48h17.86v11.86c4.81-9.21,14.86-13.46,25.25-13.46,17.93,0,26.02,12.63,26.02,29.58v46.74h-18.14v-45c0-10.46-4.67-16.6-15.28-16.6-11.23,0-17.86,6.98-17.86,17.72v43.88h-17.86v-74.72Z"/>
        <path class="cls-1" d="M1024.71,184.48h17.86v11.86c4.81-9.21,14.86-13.46,25.25-13.46,17.93,0,26.02,12.63,26.02,29.58v46.74h-18.14v-45c0-10.46-4.67-16.6-15.28-16.6-11.23,0-17.86,6.98-17.86,17.72v43.88h-17.86v-74.72Z"/>
        <path class="cls-1" d="M1179.37,242.94c-6.21,13.19-19.6,17.65-33.35,17.65-23.58,0-38.44-15.77-38.44-39,0-21.91,15.14-38.72,37.6-38.72,24.14,0,35.93,14.09,35.93,42.9h-55.32c0,12.63,7.33,21.84,20.93,21.84,8.09,0,14.79-3.28,18.7-10.88l13.95,6.21ZM1163.32,214.06c-.56-11.3-7.39-18.21-17.93-18.21-11.23,0-17.79,7.88-19.33,18.21h37.25Z"/>
        <path class="cls-1" d="M1262.87,238.06c-4.95,15.63-18.91,22.53-34.53,22.53-23.72,0-37.88-15.91-37.88-39s15.84-38.72,38.3-38.72c15.14,0,28.18,6.35,33.7,21l-14.44,6.35c-3-8.37-10.25-13.19-19.25-13.19-14.58,0-19.95,12.63-19.95,25.46s5.79,24.56,20.23,24.56c10.26,0,17.16-5.65,20.23-15l13.6,6Z"/>
        <path class="cls-1" d="M1314.83,258.64c-3.84,1.12-7.81,1.81-12.28,1.81-14.23,0-22.67-7.4-22.67-22.25v-40.6h-10.05v-13.12h10.05v-15.42l17.86-7.74v23.16h16.46v13.12h-16.46v39c0,5.86,2.51,9.49,9.07,9.49,2.51,0,5.3-.56,8.02-1.47v14.02Z"/>
        <path class="cls-1" d="M1361.77,157.06h35.51c21.49,0,38.3,8.65,38.3,32.16,0,25.88-20.44,31.46-42.28,31.46h-11.72v38.51h-19.81v-102.13ZM1397.14,206.46c12.21,0,19.12-5.02,19.12-17.37s-7.53-17.02-19.12-17.02h-15.56v34.39h15.56Z"/>
        <path class="cls-1" d="M1449.39,154.2l17.86-7.74v112.74h-17.86v-104.99Z"/>
        <path class="cls-1" d="M1537.43,247.48c-4.67,9.07-14.3,13.12-24.63,13.12-17.16,0-26.23-11.3-26.23-28.25v-47.86h17.86v45.69c0,10.19,4.67,16.46,15.07,16.46,11.16,0,17.93-7.19,17.93-17.86v-44.3h17.79v74.72h-17.79v-11.72Z"/>
        <path class="cls-1" d="M1582.69,236.94c2.79,7.33,10.4,10.81,18.49,10.81,5.79,0,12.98-1.81,12.98-8.86,0-7.46-8.09-9.21-17.3-11.16-12-2.51-25.46-5.44-25.46-22.18,0-15.35,14.3-22.67,27.83-22.67,11.86,0,25.39,4.46,30.28,16.25l-13.25,5.72c-2.93-6.63-10.25-9.14-16.39-9.14s-11.65,2.37-11.65,8.44c0,6.84,7.33,8.3,16.32,10.05,12.21,2.37,26.72,5.16,26.72,22.6s-14.72,23.79-30.28,23.79c-13.19,0-27.35-4.46-32.02-17.86l13.74-5.79Z"/>
      </g>
      <g>
        <path class="cls-3" d="M136.06,288c-.91,0-1.83-.09-2.72-.27-34.11-7-62.25-22.92-83.65-47.32-21.01-23.96-35.6-56.32-43.38-96.18-.01-.07-.03-.15-.04-.22-.03-.14-.06-.29-.09-.43C-1.63,102.56-.37,62.73,1.08,42.64c.33-4.62,3.02-8.74,7.11-10.91C47.32,10.97,91.56,0,136.11,0s88.8,10.97,127.93,31.73c4.09,2.17,6.78,6.29,7.11,10.91,1.44,20.03,2.67,59.77-5.21,100.84,0,0,0,0,0,0-7.72,40.08-22.29,72.61-43.33,96.69-21.42,24.53-49.63,40.53-83.84,47.55-.89.18-1.79.27-2.7.27ZM32.73,139.22c6.86,35.07,19.37,63.15,37.17,83.46,16.88,19.25,39.13,32.07,66.15,38.13,27.1-6.08,49.4-18.96,66.3-38.32,17.86-20.45,30.37-48.75,37.17-84.09,6.42-33.47,6.3-66.19,5.26-86.32-33.59-16.51-71-25.2-108.68-25.2s-75.09,8.69-108.68,25.2c-1.05,20.14-1.21,52.84,5.12,86.21.07.31.13.62.18.93ZM6.34,144.29s0,.01,0,.01c0,0,0-.01,0-.01Z"/>
        <path class="cls-2" d="M218.55,114.71l-19.01-19.01-21.07,21.07-23.36-23.36,21.07-21.07-19.01-19.01-21.07,21.07-21.07-21.07-19.01,19.01,21.07,21.07-23.36,23.36-21.07-21.07-19.01,19.01,21.07,21.07-21.07,21.07,19.01,19.01,21.07-21.07,23.36,23.36-21.07,21.07,19.01,19.01,21.07-21.07,21.07,21.07,19.01-19.01-21.07-21.07,23.36-23.36,21.07,21.07,19.01-19.01-21.07-21.07,21.07-21.07ZM136.1,159.13l-23.36-23.36,23.36-23.36,23.36,23.36-23.36,23.36Z"/>
      </g>
    </g>
  </g>
</svg>