<?xml version="1.0" encoding="UTF-8"?>
<svg id="Layer_2" data-name="Layer 2" xmlns="http://www.w3.org/2000/svg" viewBox="0 0 272.21 288">
  <defs>
    <style>
      .cls-1 {
        fill: #009d54;
      }

      .cls-2 {
        fill: #007ac1;
      }
    </style>
  </defs>
  <g id="Layer_1" data-name="Layer 1">
    <g>
      <path class="cls-2" d="M136.06,288c-.91,0-1.83-.09-2.72-.27-34.11-7-62.25-22.92-83.65-47.32-21.01-23.96-35.6-56.32-43.38-96.18-.01-.07-.03-.15-.04-.22-.03-.14-.06-.29-.09-.43C-1.63,102.56-.37,62.73,1.08,42.64c.33-4.62,3.02-8.74,7.11-10.91C47.32,10.97,91.56,0,136.11,0s88.8,10.97,127.93,31.73c4.09,2.17,6.78,6.29,7.11,10.91,1.44,20.03,2.67,59.77-5.21,100.84,0,0,0,0,0,0-7.72,40.08-22.29,72.61-43.33,96.69-21.42,24.53-49.63,40.53-83.84,47.55-.89.18-1.79.27-2.7.27ZM32.73,139.22c6.86,35.07,19.37,63.15,37.17,83.46,16.88,19.25,39.13,32.07,66.15,38.13,27.1-6.08,49.4-18.96,66.3-38.32,17.86-20.45,30.37-48.75,37.17-84.09,6.42-33.47,6.3-66.19,5.26-86.32-33.59-16.51-71-25.2-108.68-25.2s-75.09,8.69-108.68,25.2c-1.05,20.14-1.21,52.84,5.12,86.21.07.31.13.62.18.93ZM6.34,144.29s0,.01,0,.01c0,0,0-.01,0-.01Z"/>
      <path class="cls-1" d="M218.55,114.71l-19.01-19.01-21.07,21.07-23.36-23.36,21.07-21.07-19.01-19.01-21.07,21.07-21.07-21.07-19.01,19.01,21.07,21.07-23.36,23.36-21.07-21.07-19.01,19.01,21.07,21.07-21.07,21.07,19.01,19.01,21.07-21.07,23.36,23.36-21.07,21.07,19.01,19.01,21.07-21.07,21.07,21.07,19.01-19.01-21.07-21.07,23.36-23.36,21.07,21.07,19.01-19.01-21.07-21.07,21.07-21.07ZM136.1,159.13l-23.36-23.36,23.36-23.36,23.36,23.36-23.36,23.36Z"/>
    </g>
  </g>
</svg>