<?xml version="1.0" encoding="UTF-8"?>
<svg id="Layer_2" data-name="Layer 2" xmlns="http://www.w3.org/2000/svg" viewBox="0 0 280.54 288">
  <defs>
    <style>
      .cls-1 {
        fill: #009d54;
      }

      .cls-2 {
        fill: #007ac1;
      }
    </style>
  </defs>
  <g id="Layer_1" data-name="Layer 1">
    <g>
      <g>
        <path class="cls-2" d="M124.19,42.12c-.85,2.69-2.55,4.94-4.79,6.47-1.47,1.01-3.16,1.71-4.99,2-2.31.39-4.65.85-6.93,1.37-23.18,5.36-44.23,18.58-59.26,37.24-15.45,19.21-23.63,42.42-23.63,67.12,0,15.76,3.43,31.18,10,45.27l-21.05,12.93C4.65,196.51,0,176.65,0,156.32c0-29.94,10.33-59.25,29.08-82.52,15.41-19.13,35.96-33.62,58.92-41.71l-14.98-14.34L90,0l29.39,28.11,1.54,1.48c3.37,3.22,4.63,8.07,3.25,12.53Z"/>
        <path class="cls-2" d="M229.97,243.99c-9.48,10.67-20.62,19.65-33.25,26.82-19.89,11.31-42.45,17.19-65.14,17.19-7.01,0-14.01-.56-20.97-1.69-25.04-4.08-48.5-15.39-67.19-32.24l-6.97,18.94-23.06-8.5,13.82-37.49c1.53-4.16,5.18-7.15,9.54-7.88,4.38-.7,8.79.98,11.56,4.44,1.47,1.83,3.01,3.64,4.6,5.36,16.12,17.51,38.01,29.28,61.65,33.13,24.33,3.96,48.55-.4,70.04-12.6,9.57-5.45,18.12-12.19,25.48-20.11l19.89,14.65Z"/>
        <path class="cls-2" d="M280.54,220.91l-43.37,7.08c-.65.1-1.32.15-1.97.15-3.99,0-7.79-1.94-10.11-5.3-2.7-3.9-2.91-9.01-.53-13.12,1.16-2.02,2.29-4.13,3.33-6.25,10.49-21.34,13.54-46.01,8.56-69.45-5.11-24.12-17.95-45.12-37.09-60.73-17.51-14.26-39.05-22.58-61.48-23.87v-24.64c28.05,1.31,55.09,11.61,77,29.46,23.2,18.92,39.41,45.43,45.61,74.67,5.03,23.7,3.38,48.45-4.57,71.11l20.67-3.37,3.95,24.25Z"/>
      </g>
      <path class="cls-1" d="M132.05,229.75c-.9,0-1.81-.09-2.69-.27-22.27-4.57-50.75-19.9-59.93-66.98,0-.02,0-.04-.01-.06-.02-.08-.03-.17-.05-.25-3.48-18.28-2.93-35.95-2.29-44.86.33-4.59,3-8.69,7.06-10.84,17.72-9.4,37.75-14.37,57.92-14.37s40.2,4.97,57.92,14.37c4.07,2.16,6.74,6.26,7.06,10.85.78,10.85,1,27.44-2.33,44.82,0,0,0,0,0,0-9.12,47.33-37.66,62.73-59.99,67.32-.88.18-1.78.27-2.69.27ZM95.67,157.5c6.96,35.45,26.76,42.9,36.3,45.2,29.19-7.53,34.68-36.04,36.52-45.6,2.14-11.17,2.47-22.17,2.28-30.25-12.14-5.27-25.38-8.03-38.7-8.03s-26.57,2.76-38.7,8.03c-.2,8.05.11,19.01,2.21,30.12.04.17.07.35.1.52ZM69.52,162.9s0,.01,0,.02c0,0,0-.01,0-.02ZM69.5,162.81s.01.06.02.09c0-.03-.01-.06-.02-.09ZM69.5,162.8s0,0,0,0c0,0,0,0,0,0ZM69.36,162.15s0,0,0,.01c0,0,0,0,0-.01Z"/>
    </g>
  </g>
</svg>