<?xml version="1.0" encoding="UTF-8"?>
<svg id="Layer_3" data-name="Layer 3" xmlns="http://www.w3.org/2000/svg" viewBox="0 0 1660.85 288">
  <defs>
    <style>
      .cls-1 {
        fill: #fff;
      }

      .cls-2 {
        fill: #009d54;
      }

      .cls-3 {
        fill: #007ac1;
      }
    </style>
  </defs>
  <g id="Layer_1" data-name="Layer 1">
    <g>
      <g>
        <path class="cls-1" d="M338.13,28.81h21.13l17.61,46.22,17.18-46.22h20.75v70.64h-15.92v-49.6l-19.54,49.6h-7.24l-19.64-49.6v49.6h-14.33V28.81Z"/>
        <path class="cls-1" d="M457.94,93.23c-3.67,5.45-9.12,7.33-15.25,7.33-10.04,0-17.56-5.02-17.56-15.34,0-13.12,12.26-16.65,23.4-16.65h9.26c0-6.95-.68-11.63-8.78-11.63-4.54,0-9.02,2.07-10.57,6.66l-10.95-4.78c3.38-9.31,13.85-12.26,23.16-12.26,12.5,0,21.28,5.36,21.28,19.2v33.68h-13.99v-6.22ZM452.3,77.02c-5.11,0-13.17.39-13.17,7.33,0,4.58,3.43,6.22,7.58,6.22,5.6,0,11.1-2.94,11.1-9.22v-4.34h-5.5Z"/>
        <path class="cls-1" d="M484.29,47.78h14.33v8.2c3.33-6.37,10.37-9.41,17.47-9.41,12.06,0,17.23,8.73,17.23,19.98v32.91h-14.33v-30.83c0-6.42-2.9-10.37-9.55-10.37-7.09,0-10.81,4.54-10.81,11.39v29.82h-14.33v-51.68Z"/>
        <path class="cls-1" d="M575.14,93.23c-3.67,5.45-9.12,7.33-15.25,7.33-10.04,0-17.56-5.02-17.56-15.34,0-13.12,12.26-16.65,23.4-16.65h9.26c0-6.95-.68-11.63-8.78-11.63-4.54,0-9.02,2.07-10.57,6.66l-10.95-4.78c3.38-9.31,13.85-12.26,23.16-12.26,12.5,0,21.28,5.36,21.28,19.2v33.68h-13.99v-6.22ZM569.5,77.02c-5.11,0-13.17.39-13.17,7.33,0,4.58,3.43,6.22,7.58,6.22,5.6,0,11.1-2.94,11.1-9.22v-4.34h-5.5Z"/>
        <path class="cls-1" d="M611.48,101.14c2.17,5.26,7.67,6.9,13.03,6.9,8.35,0,12.98-4,12.98-12.64v-7.82c-3.38,5.79-9.89,9.6-16.6,9.6-14.67,0-22.53-11.68-22.53-25.38s8.64-25.24,23.11-25.24c6.71,0,12.5,2.56,16.02,8.93v-7.72h14.23v47.62c0,16.84-12.06,23.11-27.21,23.11-9.7,0-20.41-2.56-24.27-12.45l11.24-4.92ZM637.87,71.71c0-8.06-3.91-14.23-12.55-14.23s-12.35,6.8-12.35,15.01c0,7.48,4.1,13.94,12.5,13.94s12.4-6.76,12.4-14.72Z"/>
        <path class="cls-1" d="M711.69,88.4c-4,9.31-14.19,12.16-23.02,12.16-17.08,0-27.45-10.57-27.45-27.12,0-15.49,11-26.88,26.68-26.88,10.04,0,19.06,4.63,22.92,14.09,2.17,5.31,2.17,10.76,2.17,16.16h-37.25c.39,7.96,4.39,13.56,12.83,13.56,5.6,0,9.84-1.45,12.55-6.66l10.57,4.68ZM699.05,68.04c-.39-7.09-3.81-11.58-10.95-11.58s-11.24,4.92-12.16,11.58h23.11Z"/>
        <path class="cls-1" d="M724.24,28.81h44.78v8.78h-33.82v21.52h27.6v8.64h-27.6v22.92h35.51v8.78h-46.47V28.81Z"/>
        <path class="cls-1" d="M782.04,47.73h10.28v8.2c3.09-6.42,9.94-9.17,16.94-9.17,12.55,0,18.43,8.93,18.43,20.84v31.85h-10.28v-31.56c0-7.96-3.76-12.5-11.68-12.5-8.35,0-13.41,5.07-13.41,13.17v30.88h-10.28v-51.72Z"/>
        <path class="cls-1" d="M848.39,102.3c2.7,6.03,9.41,8.01,15.49,8.01,9.51,0,16.12-4.83,16.12-14.81v-7.62c-3.62,6.08-10.9,9.7-17.9,9.7-14.52,0-23.11-11.44-23.11-24.95s9.36-25.86,23.64-25.86c7,0,13.75,2.8,17.37,8.97v-8.01h10.18v48.06c0,15.73-11.82,22.63-26.54,22.63-9.55,0-18.96-2.9-23.35-12.55l8.11-3.57ZM880.28,71.71c0-9.51-5.26-16.84-15.3-16.84-10.57,0-15.54,8.11-15.54,17.8,0,8.73,5.74,16.79,15.01,16.79,10.23,0,15.83-7.96,15.83-17.76Z"/>
        <path class="cls-1" d="M908.89,26.64c3.43,0,6.37,2.65,6.37,6.22s-2.9,6.22-6.37,6.22-6.37-2.75-6.37-6.22,2.9-6.22,6.37-6.22ZM903.92,47.87h10.18v51.58h-10.18v-51.58Z"/>
        <path class="cls-1" d="M929.79,47.73h10.28v8.2c3.09-6.42,9.94-9.17,16.94-9.17,12.55,0,18.43,8.93,18.43,20.84v31.85h-10.28v-31.56c0-7.96-3.76-12.5-11.68-12.5-8.35,0-13.41,5.07-13.41,13.17v30.88h-10.28v-51.72Z"/>
        <path class="cls-1" d="M1034.54,87.87c-4.54,8.78-12.64,12.55-21.91,12.55-16.31,0-25.91-11.58-25.91-26.63s9.75-27.02,24.99-27.02c18.09,0,23.84,12.83,23.84,28.95h-38.36c0,9.51,5.07,16.74,14.96,16.74,6.32,0,11.15-2.99,13.9-8.2l8.49,3.62ZM1025.37,68.38c-.53-8.35-4.87-13.8-13.27-13.8s-13.46,6.03-14.62,13.8h27.89Z"/>
      </g>
      <g>
        <path class="cls-1" d="M338.13,157.06h35.51c21.49,0,38.3,8.65,38.3,32.16,0,25.88-20.44,31.46-42.28,31.46h-11.72v38.51h-19.81v-102.13ZM373.5,206.45c12.21,0,19.12-5.02,19.12-17.37s-7.53-17.02-19.12-17.02h-15.56v34.39h15.56Z"/>
        <path class="cls-1" d="M464.26,250.06c-5.65,7.53-13.95,10.53-23.16,10.53-14.02,0-25.04-7.12-25.04-21.77,0-20.72,21.91-24,39.28-24h8.79v-1.19c0-10.67-2.51-17.44-14.58-17.44-7.26,0-13.95,3.77-16.6,10.67l-13.88-6c5.02-13.19,18.98-18,32.3-18,17.65,0,30.49,8.51,30.49,27.49v48.83h-17.58v-9.14ZM455.12,225.78c-8.23,0-21.35.98-21.35,12.28,0,7.19,5.23,9.84,11.93,9.84,9.07,0,18.42-4.74,18.42-14.86v-7.26h-9Z"/>
        <path class="cls-1" d="M538.48,258.64c-3.84,1.12-7.81,1.81-12.28,1.81-14.23,0-22.67-7.4-22.67-22.25v-40.6h-10.05v-13.12h10.05v-15.42l17.86-7.74v23.16h16.46v13.12h-16.46v39c0,5.86,2.51,9.49,9.07,9.49,2.51,0,5.3-.56,8.02-1.47v14.02Z"/>
        <path class="cls-1" d="M619.33,238.06c-4.95,15.63-18.91,22.53-34.53,22.53-23.72,0-37.88-15.91-37.88-39s15.84-38.72,38.3-38.72c15.14,0,28.18,6.35,33.7,21l-14.44,6.35c-3-8.37-10.25-13.19-19.25-13.19-14.58,0-19.95,12.63-19.95,25.46s5.79,24.56,20.23,24.56c10.26,0,17.16-5.65,20.23-15l13.6,6Z"/>
        <path class="cls-1" d="M633.48,150.64h17.86v45.69c4.81-9.28,14.65-13.46,24.98-13.46,17.86,0,26.79,12.56,26.79,29.58v46.74h-18v-45c0-10.74-5.58-16.6-15.98-16.6-11.44,0-17.79,7.05-17.79,17.72v43.88h-17.86v-108.55Z"/>
        <path class="cls-1" d="M754.09,157.06h25.04l29.44,74.44,29.23-74.44h24.49v102.13h-18.28v-77.86l-32.16,77.86h-8.79l-31.11-77.86v77.86h-17.86v-102.13Z"/>
        <path class="cls-1" d="M925.34,250.06c-5.65,7.53-13.95,10.53-23.16,10.53-14.02,0-25.04-7.12-25.04-21.77,0-20.72,21.91-24,39.28-24h8.79v-1.19c0-10.67-2.51-17.44-14.58-17.44-7.25,0-13.95,3.77-16.6,10.67l-13.88-6c5.02-13.19,18.98-18,32.3-18,17.65,0,30.49,8.51,30.49,27.49v48.83h-17.58v-9.14ZM916.2,225.78c-8.23,0-21.35.98-21.35,12.28,0,7.19,5.23,9.84,11.93,9.84,9.07,0,18.42-4.74,18.42-14.86v-7.26h-9Z"/>
        <path class="cls-1" d="M961.75,184.48h17.86v11.86c4.81-9.21,14.86-13.46,25.25-13.46,17.93,0,26.02,12.63,26.02,29.58v46.74h-18.14v-45c0-10.46-4.67-16.6-15.28-16.6-11.23,0-17.86,6.98-17.86,17.72v43.88h-17.86v-74.72Z"/>
        <path class="cls-1" d="M1092.48,250.06c-5.65,7.53-13.95,10.53-23.16,10.53-14.02,0-25.04-7.12-25.04-21.77,0-20.72,21.91-24,39.28-24h8.79v-1.19c0-10.67-2.51-17.44-14.58-17.44-7.25,0-13.95,3.77-16.6,10.67l-13.88-6c5.02-13.19,18.98-18,32.3-18,17.65,0,30.49,8.51,30.49,27.49v48.83h-17.58v-9.14ZM1083.34,225.78c-8.23,0-21.35.98-21.35,12.28,0,7.19,5.23,9.84,11.93,9.84,9.07,0,18.42-4.74,18.42-14.86v-7.26h-9Z"/>
        <path class="cls-1" d="M1140.4,262.47c3.7,8.3,12.35,10.74,20.65,10.74,13.25,0,21.28-6.35,21.28-19.88v-11.16c-5.09,8.65-15.07,14.02-25.04,14.02-21.14,0-33.42-16.6-33.42-36.07s13.12-37.25,33.83-37.25c10.12,0,19.39,4.12,24.63,13.05v-11.44h17.93v69.14c0,23.51-17.58,33-39.21,33-13.88,0-28.74-3.91-34.74-18l14.09-6.14ZM1183.02,219.15c0-12.77-6.91-22.53-20.44-22.53-14.3,0-20.37,10.88-20.37,23.86,0,11.65,7.32,21.98,19.74,21.98,13.95,0,21.07-10.32,21.07-23.3Z"/>
        <path class="cls-1" d="M1286.61,242.94c-6.21,13.19-19.6,17.65-33.35,17.65-23.58,0-38.44-15.77-38.44-39,0-21.91,15.14-38.72,37.6-38.72,24.14,0,35.93,14.09,35.93,42.9h-55.32c0,12.63,7.33,21.84,20.93,21.84,8.09,0,14.79-3.28,18.7-10.88l13.95,6.21ZM1270.57,214.06c-.56-11.3-7.39-18.21-17.93-18.21-11.23,0-17.79,7.88-19.33,18.21h37.25Z"/>
        <path class="cls-1" d="M1302.72,184.48h17.86v14.02c5.02-10.26,13.19-15.14,24.56-15.14v16.53c-14.44,0-24.56,4.74-24.56,20.72v38.58h-17.86v-74.72Z"/>
        <path class="cls-1" d="M1391.38,157.06h35.51c21.49,0,38.3,8.65,38.3,32.16,0,25.88-20.44,31.46-42.28,31.46h-11.72v38.51h-19.81v-102.13ZM1426.75,206.45c12.21,0,19.12-5.02,19.12-17.37s-7.53-17.02-19.12-17.02h-15.56v34.39h15.56Z"/>
        <path class="cls-1" d="M1478.99,154.2l17.86-7.74v112.74h-17.86v-104.99Z"/>
        <path class="cls-1" d="M1567.03,247.48c-4.67,9.07-14.3,13.12-24.63,13.12-17.16,0-26.23-11.3-26.23-28.25v-47.86h17.86v45.69c0,10.19,4.67,16.46,15.07,16.46,11.16,0,17.93-7.19,17.93-17.86v-44.3h17.79v74.72h-17.79v-11.72Z"/>
        <path class="cls-1" d="M1612.29,236.94c2.79,7.33,10.4,10.81,18.49,10.81,5.79,0,12.98-1.81,12.98-8.86,0-7.46-8.09-9.21-17.3-11.16-12-2.51-25.46-5.44-25.46-22.18,0-15.35,14.3-22.67,27.83-22.67,11.86,0,25.39,4.46,30.28,16.25l-13.25,5.72c-2.93-6.63-10.25-9.14-16.39-9.14s-11.65,2.37-11.65,8.44c0,6.84,7.33,8.3,16.32,10.05,12.21,2.37,26.72,5.16,26.72,22.6s-14.72,23.79-30.28,23.79c-13.19,0-27.35-4.46-32.02-17.86l13.74-5.79Z"/>
      </g>
      <g>
        <g>
          <path class="cls-3" d="M124.19,42.12c-.85,2.69-2.55,4.94-4.79,6.47-1.47,1.01-3.16,1.71-4.99,2-2.31.39-4.65.85-6.93,1.37-23.18,5.36-44.23,18.58-59.26,37.24-15.45,19.21-23.63,42.42-23.63,67.12,0,15.76,3.43,31.18,10,45.27l-21.05,12.93C4.65,196.51,0,176.65,0,156.32c0-29.94,10.33-59.25,29.08-82.52,15.41-19.13,35.96-33.62,58.92-41.71l-14.98-14.34L90,0l29.39,28.11,1.54,1.48c3.37,3.22,4.63,8.07,3.25,12.53Z"/>
          <path class="cls-3" d="M229.97,243.99c-9.48,10.67-20.62,19.65-33.25,26.82-19.89,11.31-42.45,17.19-65.14,17.19-7.01,0-14.01-.56-20.97-1.69-25.04-4.08-48.5-15.39-67.19-32.24l-6.97,18.94-23.06-8.5,13.82-37.49c1.53-4.16,5.18-7.15,9.54-7.88,4.38-.7,8.79.98,11.56,4.44,1.47,1.83,3.01,3.64,4.6,5.36,16.12,17.51,38.01,29.28,61.65,33.13,24.33,3.96,48.55-.4,70.04-12.6,9.57-5.45,18.12-12.19,25.48-20.11l19.89,14.65Z"/>
          <path class="cls-3" d="M280.54,220.91l-43.37,7.08c-.65.1-1.32.15-1.97.15-3.99,0-7.79-1.94-10.11-5.3-2.7-3.9-2.91-9.01-.53-13.12,1.16-2.02,2.29-4.13,3.33-6.25,10.49-21.34,13.54-46.01,8.56-69.45-5.11-24.12-17.95-45.12-37.09-60.73-17.51-14.26-39.05-22.58-61.48-23.87v-24.64c28.05,1.31,55.09,11.61,77,29.46,23.2,18.92,39.41,45.43,45.61,74.67,5.03,23.7,3.38,48.45-4.57,71.11l20.67-3.37,3.95,24.25Z"/>
        </g>
        <path class="cls-2" d="M132.05,229.75c-.9,0-1.81-.09-2.69-.27-22.27-4.57-50.75-19.9-59.93-66.98,0-.02,0-.04-.01-.06-.02-.08-.03-.17-.05-.25-3.48-18.28-2.93-35.95-2.29-44.86.33-4.59,3-8.69,7.06-10.84,17.72-9.4,37.75-14.37,57.92-14.37s40.2,4.97,57.92,14.37c4.07,2.16,6.74,6.26,7.06,10.85.78,10.85,1,27.44-2.33,44.82,0,0,0,0,0,0-9.12,47.33-37.66,62.73-59.99,67.32-.88.18-1.78.27-2.69.27ZM95.67,157.5c6.96,35.45,26.76,42.9,36.3,45.2,29.19-7.53,34.68-36.04,36.52-45.6,2.14-11.17,2.47-22.17,2.28-30.25-12.14-5.27-25.38-8.03-38.7-8.03s-26.57,2.76-38.7,8.03c-.2,8.05.11,19.01,2.21,30.12.04.17.07.35.1.52ZM69.52,162.9s0,.01,0,.02c0,0,0-.01,0-.02ZM69.5,162.81s.01.06.02.09c0-.03-.01-.06-.02-.09ZM69.5,162.8s0,0,0,0c0,0,0,0,0,0ZM69.36,162.15s0,0,0,.01c0,0,0,0,0-.01Z"/>
      </g>
    </g>
  </g>
</svg>