<?xml version="1.0" encoding="UTF-8"?>
<svg id="Layer_2" data-name="Layer 2" xmlns="http://www.w3.org/2000/svg" viewBox="0 0 2532.03 288">
  <defs>
    <style>
      .cls-1 {
        fill: #fff;
      }

      .cls-2 {
        fill: #009d54;
      }

      .cls-3 {
        fill: #007ac1;
      }
    </style>
  </defs>
  <g id="Layer_1" data-name="Layer 1">
    <g>
      <g>
        <path class="cls-1" d="M329.81,57.6h60.08c36.36,0,64.81,14.64,64.81,54.42,0,43.79-34.59,53.24-71.53,53.24h-19.83v65.16h-33.52V57.6ZM389.65,141.18c20.66,0,32.34-8.5,32.34-29.39s-12.75-28.8-32.34-28.8h-26.32v58.19h26.32Z"/>
        <path class="cls-1" d="M543.22,214.95c-9.56,12.75-23.61,17.82-39.19,17.82-23.73,0-42.38-12.04-42.38-36.83,0-35.06,37.06-40.61,66.46-40.61h14.87v-2.01c0-18.06-4.25-29.51-24.67-29.51-12.28,0-23.61,6.37-28.09,18.06l-23.49-10.15c8.5-22.31,32.11-30.45,54.65-30.45,29.87,0,51.58,14.4,51.58,46.51v82.63h-29.75v-15.46ZM527.76,173.87c-13.93,0-36.12,1.65-36.12,20.78,0,12.16,8.85,16.64,20.18,16.64,15.35,0,31.16-8.03,31.16-25.14v-12.28h-15.23Z"/>
        <path class="cls-1" d="M668.81,229.47c-6.49,1.89-13.22,3.07-20.78,3.07-24.08,0-38.36-12.51-38.36-37.66v-68.7h-17v-22.19h17v-26.09l30.22-13.1v39.19h27.86v22.19h-27.86v65.99c0,9.92,4.25,16.05,15.35,16.05,4.25,0,8.97-.94,13.57-2.48v23.73Z"/>
        <path class="cls-1" d="M805.62,194.65c-8.38,26.44-31.99,38.13-58.43,38.13-40.13,0-64.1-26.91-64.1-65.99s26.8-65.51,64.8-65.51c25.62,0,47.69,10.74,57.01,35.53l-24.43,10.74c-5.08-14.17-17.35-22.31-32.58-22.31-24.67,0-33.76,21.37-33.76,43.09s9.8,41.55,34.23,41.55c17.35,0,29.04-9.56,34.23-25.38l23.02,10.15Z"/>
        <path class="cls-1" d="M829.58,46.74h30.22v77.32c8.14-15.7,24.79-22.78,42.26-22.78,30.22,0,45.33,21.25,45.33,50.05v79.09h-30.46v-76.14c0-18.18-9.44-28.09-27.03-28.09-19.36,0-30.1,11.92-30.1,29.98v74.25h-30.22V46.74Z"/>
        <path class="cls-1" d="M1186.29,182.85c-10.74,32.82-41.67,49.93-75.07,49.93-55.72,0-86.41-35.29-86.41-89.59,0-49.58,34.47-88.06,85.46-88.06,32.7,0,61.26,15.7,74.25,46.63l-27.62,11.69c-7.32-19-24.43-32.23-45.21-32.23-36.59,0-51.7,31.28-51.7,63.15s16.53,61.62,52.53,61.62c22.78,0,39.31-13.81,47.1-34.59l26.68,11.45Z"/>
        <path class="cls-1" d="M1267.02,101.28c38.36,0,67.87,26.91,67.87,65.63s-31.04,65.87-69.17,65.87-69.41-26.68-69.41-65.28,32.7-66.22,70.71-66.22ZM1302.44,167.15c0-23.25-11.8-42.61-36.59-42.61s-35.65,20.3-35.65,43.44,11.92,41.55,36.36,41.55,35.88-20.3,35.88-42.38Z"/>
        <path class="cls-1" d="M1356.97,103.99h30.22v20.07c8.14-15.58,25.14-22.78,42.73-22.78,30.34,0,44.03,21.37,44.03,50.05v79.09h-30.69v-76.14c0-17.71-7.91-28.09-25.85-28.09-19,0-30.22,11.8-30.22,29.98v74.25h-30.22v-126.42Z"/>
        <path class="cls-1" d="M1505.69,103.99h30.22v20.07c8.14-15.58,25.14-22.78,42.73-22.78,30.34,0,44.03,21.37,44.03,50.05v79.09h-30.69v-76.14c0-17.71-7.91-28.09-25.85-28.09-19,0-30.22,11.8-30.22,29.98v74.25h-30.22v-126.42Z"/>
        <path class="cls-1" d="M1767.39,202.91c-10.51,22.31-33.17,29.86-56.42,29.86-39.9,0-65.04-26.68-65.04-65.99,0-37.07,25.62-65.51,63.62-65.51,40.84,0,60.79,23.84,60.79,72.6h-93.61c0,21.37,12.39,36.95,35.41,36.95,13.69,0,25.02-5.55,31.63-18.42l23.61,10.51ZM1740.24,154.04c-.94-19.12-12.51-30.81-30.34-30.81-19,0-30.1,13.34-32.7,30.81h63.03Z"/>
        <path class="cls-1" d="M1908.68,194.65c-8.38,26.44-31.99,38.13-58.43,38.13-40.13,0-64.1-26.91-64.1-65.99s26.8-65.51,64.8-65.51c25.62,0,47.69,10.74,57.01,35.53l-24.43,10.74c-5.08-14.17-17.35-22.31-32.58-22.31-24.67,0-33.76,21.37-33.76,43.09s9.8,41.55,34.23,41.55c17.35,0,29.04-9.56,34.23-25.38l23.02,10.15Z"/>
        <path class="cls-1" d="M1996.61,229.47c-6.49,1.89-13.22,3.07-20.78,3.07-24.08,0-38.36-12.51-38.36-37.66v-68.7h-17v-22.19h17v-26.09l30.22-13.1v39.19h27.86v22.19h-27.86v65.99c0,9.92,4.25,16.05,15.35,16.05,4.25,0,8.97-.94,13.57-2.48v23.73Z"/>
        <path class="cls-1" d="M2076.05,57.6h60.08c36.36,0,64.8,14.64,64.8,54.42,0,43.79-34.59,53.24-71.53,53.24h-19.83v65.16h-33.52V57.6ZM2135.89,141.18c20.66,0,32.34-8.5,32.34-29.39s-12.75-28.8-32.34-28.8h-26.32v58.19h26.32Z"/>
        <path class="cls-1" d="M2224.3,52.76l30.22-13.1v190.76h-30.22V52.76Z"/>
        <path class="cls-1" d="M2373.27,210.59c-7.91,15.35-24.2,22.19-41.67,22.19-29.04,0-44.38-19.12-44.38-47.81v-80.98h30.22v77.32c0,17.23,7.91,27.86,25.5,27.86,18.89,0,30.34-12.16,30.34-30.22v-74.96h30.1v126.42h-30.1v-19.83Z"/>
        <path class="cls-1" d="M2449.87,192.76c4.72,12.39,17.59,18.3,31.28,18.3,9.8,0,21.96-3.07,21.96-14.99,0-12.63-13.69-15.58-29.28-18.89-20.3-4.25-43.08-9.21-43.08-37.54,0-25.97,24.2-38.36,47.1-38.36,20.07,0,42.97,7.55,51.23,27.5l-22.43,9.68c-4.96-11.21-17.35-15.46-27.74-15.46s-19.71,4.01-19.71,14.28c0,11.57,12.39,14.05,27.62,17,20.66,4.01,45.21,8.74,45.21,38.25s-24.91,40.25-51.23,40.25c-22.31,0-46.27-7.55-54.18-30.22l23.25-9.8Z"/>
      </g>
      <g>
        <path class="cls-3" d="M136.06,288c-.91,0-1.83-.09-2.72-.27-34.11-7-62.25-22.92-83.65-47.32-21.01-23.96-35.6-56.32-43.38-96.18-.01-.07-.03-.15-.04-.22-.03-.14-.06-.29-.09-.43C-1.63,102.56-.37,62.73,1.08,42.64c.33-4.62,3.02-8.74,7.11-10.91C47.32,10.97,91.56,0,136.11,0s88.8,10.97,127.93,31.73c4.09,2.17,6.78,6.29,7.11,10.91,1.44,20.03,2.67,59.77-5.21,100.84,0,0,0,0,0,0-7.72,40.08-22.29,72.61-43.33,96.69-21.42,24.53-49.63,40.53-83.84,47.55-.89.18-1.79.27-2.7.27ZM32.73,139.22c6.86,35.07,19.37,63.15,37.17,83.46,16.88,19.25,39.13,32.07,66.15,38.13,27.1-6.08,49.4-18.96,66.3-38.32,17.86-20.45,30.37-48.75,37.17-84.09,6.42-33.47,6.3-66.19,5.26-86.32-33.59-16.51-71-25.2-108.68-25.2s-75.09,8.69-108.68,25.2c-1.05,20.14-1.21,52.84,5.12,86.21.07.31.13.62.18.93ZM6.34,144.29s0,.01,0,.01c0,0,0-.01,0-.01Z"/>
        <path class="cls-2" d="M218.55,114.71l-19.01-19.01-21.07,21.07-23.36-23.36,21.07-21.07-19.01-19.01-21.07,21.07-21.07-21.07-19.01,19.01,21.07,21.07-23.36,23.36-21.07-21.07-19.01,19.01,21.07,21.07-21.07,21.07,19.01,19.01,21.07-21.07,23.36,23.36-21.07,21.07,19.01,19.01,21.07-21.07,21.07,21.07,19.01-19.01-21.07-21.07,23.36-23.36,21.07,21.07,19.01-19.01-21.07-21.07,21.07-21.07ZM136.1,159.13l-23.36-23.36,23.36-23.36,23.36,23.36-23.36,23.36Z"/>
      </g>
    </g>
  </g>
</svg>