<?xml version="1.0" encoding="UTF-8"?>
<svg id="Layer_3" data-name="Layer 3" xmlns="http://www.w3.org/2000/svg" viewBox="0 0 2576.36 288">
  <defs>
    <style>
      .cls-1 {
        fill: #fff;
      }

      .cls-2 {
        fill: #009d54;
      }

      .cls-3 {
        fill: #007ac1;
      }
    </style>
  </defs>
  <g id="Layer_1" data-name="Layer 1">
    <g>
      <g>
        <path class="cls-1" d="M338.13,57.6h60.08c36.36,0,64.81,14.64,64.81,54.42,0,43.79-34.59,53.24-71.53,53.24h-19.83v65.16h-33.52V57.6ZM397.98,141.18c20.66,0,32.34-8.5,32.34-29.39s-12.75-28.8-32.34-28.8h-26.32v58.19h26.32Z"/>
        <path class="cls-1" d="M551.55,214.95c-9.56,12.75-23.61,17.82-39.19,17.82-23.73,0-42.38-12.04-42.38-36.83,0-35.06,37.06-40.61,66.46-40.61h14.87v-2.01c0-18.06-4.25-29.51-24.67-29.51-12.28,0-23.61,6.37-28.09,18.06l-23.49-10.15c8.5-22.31,32.11-30.45,54.65-30.45,29.87,0,51.58,14.4,51.58,46.51v82.63h-29.75v-15.46ZM536.08,173.87c-13.93,0-36.12,1.65-36.12,20.78,0,12.16,8.85,16.64,20.18,16.64,15.35,0,31.16-8.03,31.16-25.14v-12.28h-15.23Z"/>
        <path class="cls-1" d="M677.14,229.47c-6.49,1.89-13.22,3.07-20.78,3.07-24.08,0-38.36-12.51-38.36-37.66v-68.7h-17v-22.19h17v-26.09l30.22-13.1v39.19h27.86v22.19h-27.86v65.99c0,9.92,4.25,16.05,15.35,16.05,4.25,0,8.97-.94,13.57-2.48v23.73Z"/>
        <path class="cls-1" d="M813.95,194.65c-8.38,26.44-31.99,38.13-58.43,38.13-40.13,0-64.1-26.91-64.1-65.99s26.8-65.51,64.8-65.51c25.62,0,47.69,10.74,57.01,35.53l-24.43,10.74c-5.08-14.17-17.35-22.31-32.58-22.31-24.67,0-33.76,21.37-33.76,43.09s9.8,41.55,34.23,41.55c17.35,0,29.04-9.56,34.23-25.38l23.02,10.15Z"/>
        <path class="cls-1" d="M837.9,46.74h30.22v77.32c8.14-15.7,24.79-22.78,42.26-22.78,30.22,0,45.33,21.25,45.33,50.05v79.09h-30.46v-76.14c0-18.18-9.44-28.09-27.03-28.09-19.36,0-30.1,11.92-30.1,29.98v74.25h-30.22V46.74Z"/>
        <path class="cls-1" d="M1041.99,57.6h42.38l49.81,125.95,49.46-125.95h41.43v172.81h-30.93V98.68l-54.42,131.73h-14.87l-52.65-131.73v131.73h-30.22V57.6Z"/>
        <path class="cls-1" d="M1331.77,214.95c-9.56,12.75-23.61,17.82-39.19,17.82-23.73,0-42.38-12.04-42.38-36.83,0-35.06,37.06-40.61,66.46-40.61h14.87v-2.01c0-18.06-4.25-29.51-24.67-29.51-12.28,0-23.61,6.37-28.09,18.06l-23.49-10.15c8.5-22.31,32.11-30.45,54.65-30.45,29.87,0,51.58,14.4,51.58,46.51v82.63h-29.75v-15.46ZM1316.31,173.87c-13.93,0-36.12,1.65-36.12,20.78,0,12.16,8.85,16.64,20.19,16.64,15.34,0,31.16-8.03,31.16-25.14v-12.28h-15.23Z"/>
        <path class="cls-1" d="M1393.39,103.99h30.22v20.07c8.14-15.58,25.14-22.78,42.73-22.78,30.34,0,44.03,21.37,44.03,50.05v79.09h-30.69v-76.14c0-17.71-7.91-28.09-25.85-28.09-19,0-30.22,11.8-30.22,29.98v74.25h-30.22v-126.42Z"/>
        <path class="cls-1" d="M1614.59,214.95c-9.56,12.75-23.61,17.82-39.19,17.82-23.73,0-42.38-12.04-42.38-36.83,0-35.06,37.06-40.61,66.46-40.61h14.87v-2.01c0-18.06-4.25-29.51-24.67-29.51-12.28,0-23.61,6.37-28.09,18.06l-23.49-10.15c8.5-22.31,32.11-30.45,54.65-30.45,29.87,0,51.58,14.4,51.58,46.51v82.63h-29.75v-15.46ZM1599.13,173.87c-13.93,0-36.12,1.65-36.12,20.78,0,12.16,8.85,16.64,20.18,16.64,15.35,0,31.16-8.03,31.16-25.14v-12.28h-15.23Z"/>
        <path class="cls-1" d="M1695.68,235.96c6.26,14.05,20.89,18.18,34.94,18.18,22.43,0,36-10.74,36-33.64v-18.89c-8.62,14.64-25.5,23.73-42.38,23.73-35.77,0-56.54-28.09-56.54-61.03s22.19-63.03,57.25-63.03c17.12,0,32.82,6.96,41.67,22.07v-19.36h30.34v116.98c0,39.78-29.75,55.83-66.34,55.83-23.49,0-48.63-6.61-58.78-30.46l23.84-10.39ZM1767.8,162.66c0-21.6-11.69-38.13-34.59-38.13-24.2,0-34.47,18.41-34.47,40.37,0,19.71,12.39,37.18,33.41,37.18,23.61,0,35.65-17.47,35.65-39.43Z"/>
        <path class="cls-1" d="M1943.09,202.91c-10.51,22.31-33.17,29.86-56.42,29.86-39.9,0-65.04-26.68-65.04-65.99,0-37.07,25.62-65.51,63.62-65.51,40.84,0,60.79,23.84,60.79,72.6h-93.61c0,21.37,12.39,36.95,35.41,36.95,13.69,0,25.02-5.55,31.63-18.42l23.61,10.51ZM1915.94,154.04c-.94-19.12-12.51-30.81-30.34-30.81-19,0-30.1,13.34-32.7,30.81h63.03Z"/>
        <path class="cls-1" d="M1970.35,103.99h30.22v23.73c8.5-17.35,22.31-25.62,41.55-25.62v27.98c-24.43,0-41.55,8.03-41.55,35.06v65.28h-30.22v-126.42Z"/>
        <path class="cls-1" d="M2120.38,57.6h60.08c36.36,0,64.8,14.64,64.8,54.42,0,43.79-34.59,53.24-71.53,53.24h-19.83v65.16h-33.52V57.6ZM2180.22,141.18c20.66,0,32.34-8.5,32.34-29.39s-12.75-28.8-32.34-28.8h-26.32v58.19h26.32Z"/>
        <path class="cls-1" d="M2268.63,52.76l30.22-13.1v190.76h-30.22V52.76Z"/>
        <path class="cls-1" d="M2417.6,210.59c-7.91,15.35-24.2,22.19-41.67,22.19-29.04,0-44.38-19.12-44.38-47.81v-80.98h30.22v77.32c0,17.23,7.91,27.86,25.5,27.86,18.89,0,30.34-12.16,30.34-30.22v-74.96h30.1v126.42h-30.1v-19.83Z"/>
        <path class="cls-1" d="M2494.2,192.76c4.72,12.39,17.59,18.3,31.28,18.3,9.8,0,21.96-3.07,21.96-14.99,0-12.63-13.69-15.58-29.27-18.89-20.3-4.25-43.09-9.21-43.09-37.54,0-25.97,24.2-38.36,47.1-38.36,20.07,0,42.97,7.55,51.23,27.5l-22.43,9.68c-4.96-11.21-17.35-15.46-27.74-15.46s-19.71,4.01-19.71,14.28c0,11.57,12.39,14.05,27.62,17,20.66,4.01,45.21,8.74,45.21,38.25s-24.91,40.25-51.23,40.25c-22.31,0-46.27-7.55-54.18-30.22l23.25-9.8Z"/>
      </g>
      <g>
        <g>
          <path class="cls-3" d="M124.19,42.12c-.85,2.69-2.55,4.94-4.79,6.47-1.47,1.01-3.16,1.71-4.99,2-2.31.39-4.65.85-6.93,1.37-23.18,5.36-44.23,18.58-59.26,37.24-15.45,19.21-23.63,42.42-23.63,67.12,0,15.76,3.43,31.18,10,45.27l-21.05,12.93C4.65,196.51,0,176.65,0,156.32c0-29.94,10.33-59.25,29.08-82.52,15.41-19.13,35.96-33.62,58.92-41.71l-14.98-14.34L90,0l29.39,28.11,1.54,1.48c3.37,3.22,4.63,8.07,3.25,12.53Z"/>
          <path class="cls-3" d="M229.97,243.99c-9.48,10.67-20.62,19.65-33.25,26.82-19.89,11.31-42.45,17.19-65.14,17.19-7.01,0-14.01-.56-20.97-1.69-25.04-4.08-48.5-15.39-67.19-32.24l-6.97,18.94-23.06-8.5,13.82-37.49c1.53-4.16,5.18-7.15,9.54-7.88,4.38-.7,8.79.98,11.56,4.44,1.47,1.83,3.01,3.64,4.6,5.36,16.12,17.51,38.01,29.28,61.65,33.13,24.33,3.96,48.55-.4,70.04-12.6,9.57-5.45,18.12-12.19,25.48-20.11l19.89,14.65Z"/>
          <path class="cls-3" d="M280.54,220.91l-43.37,7.08c-.65.1-1.32.15-1.97.15-3.99,0-7.79-1.94-10.11-5.3-2.7-3.9-2.91-9.01-.53-13.12,1.16-2.02,2.29-4.13,3.33-6.25,10.49-21.34,13.54-46.01,8.56-69.45-5.11-24.12-17.95-45.12-37.09-60.73-17.51-14.26-39.05-22.58-61.48-23.87v-24.64c28.05,1.31,55.09,11.61,77,29.46,23.2,18.92,39.41,45.43,45.61,74.67,5.03,23.7,3.38,48.45-4.57,71.11l20.67-3.37,3.95,24.25Z"/>
        </g>
        <path class="cls-2" d="M132.05,229.75c-.9,0-1.81-.09-2.69-.27-22.27-4.57-50.75-19.9-59.93-66.98,0-.02,0-.04-.01-.06-.02-.08-.03-.17-.05-.25-3.48-18.28-2.93-35.95-2.29-44.86.33-4.59,3-8.69,7.06-10.84,17.72-9.4,37.75-14.37,57.92-14.37s40.2,4.97,57.92,14.37c4.07,2.16,6.74,6.26,7.06,10.85.78,10.85,1,27.44-2.33,44.82,0,0,0,0,0,0-9.12,47.33-37.66,62.73-59.99,67.32-.88.18-1.78.27-2.69.27ZM95.67,157.5c6.96,35.45,26.76,42.9,36.3,45.2,29.19-7.53,34.68-36.04,36.52-45.6,2.14-11.17,2.47-22.17,2.28-30.25-12.14-5.27-25.38-8.03-38.7-8.03s-26.57,2.76-38.7,8.03c-.2,8.05.11,19.01,2.21,30.12.04.17.07.35.1.52ZM69.52,162.9s0,.01,0,.02c0,0,0-.01,0-.02ZM69.5,162.81s.01.06.02.09c0-.03-.01-.06-.02-.09ZM69.5,162.8s0,0,0,0c0,0,0,0,0,0ZM69.36,162.15s0,0,0,.01c0,0,0,0,0-.01Z"/>
      </g>
    </g>
  </g>
</svg>