<?xml version="1.0" encoding="UTF-8"?>
<svg id="Layer_2" data-name="Layer 2" xmlns="http://www.w3.org/2000/svg" viewBox="0 0 3568.79 288">
  <defs>
    <style>
      .cls-1 {
        fill: #fff;
      }

      .cls-2 {
        fill: #009d54;
      }

      .cls-3 {
        fill: #007ac1;
      }
    </style>
  </defs>
  <g id="Layer_1" data-name="Layer 1">
    <g>
      <g>
        <path class="cls-1" d="M304.23,57.6h62.56c34.59,0,65.04,12.75,65.04,51.94,0,24.67-14.76,40.61-38.25,46.39l48.63,74.48h-36.12l-44.97-69.64h-23.37v69.64h-33.52V57.6ZM365.85,137.64c19.24,0,33.41-7.32,33.41-27.98s-15.11-26.44-33.41-26.44h-28.09v54.42h28.09Z"/>
        <path class="cls-1" d="M535.47,214.95c-9.56,12.75-23.61,17.82-39.19,17.82-23.73,0-42.38-12.04-42.38-36.83,0-35.06,37.06-40.61,66.46-40.61h14.87v-2.01c0-18.06-4.25-29.51-24.67-29.51-12.28,0-23.61,6.37-28.09,18.06l-23.49-10.15c8.5-22.31,32.11-30.45,54.65-30.45,29.87,0,51.58,14.4,51.58,46.51v82.63h-29.75v-15.46ZM520,173.87c-13.93,0-36.12,1.65-36.12,20.78,0,12.16,8.85,16.64,20.18,16.64,15.35,0,31.16-8.03,31.16-25.14v-12.28h-15.23Z"/>
        <path class="cls-1" d="M597.08,103.99h30.22v20.07c8.14-15.58,25.14-22.78,42.73-22.78,30.34,0,44.03,21.37,44.03,50.05v79.09h-30.69v-76.14c0-17.71-7.91-28.09-25.85-28.09-19,0-30.22,11.8-30.22,29.98v74.25h-30.22v-126.42Z"/>
        <path class="cls-1" d="M759.14,192.76c4.72,12.39,17.59,18.3,31.28,18.3,9.8,0,21.96-3.07,21.96-14.99,0-12.63-13.69-15.58-29.28-18.89-20.3-4.25-43.08-9.21-43.08-37.54,0-25.97,24.2-38.36,47.1-38.36,20.07,0,42.97,7.55,51.23,27.5l-22.43,9.68c-4.96-11.21-17.35-15.46-27.74-15.46s-19.71,4.01-19.71,14.28c0,11.57,12.39,14.05,27.62,17,20.66,4.01,45.21,8.74,45.21,38.25s-24.91,40.25-51.23,40.25c-22.31,0-46.27-7.55-54.18-30.22l23.25-9.8Z"/>
        <path class="cls-1" d="M923.69,101.28c38.36,0,67.87,26.91,67.87,65.63s-31.04,65.87-69.17,65.87-69.41-26.68-69.41-65.28,32.7-66.22,70.71-66.22ZM959.1,167.15c0-23.25-11.8-42.61-36.59-42.61s-35.65,20.3-35.65,43.44,11.92,41.55,36.36,41.55,35.88-20.3,35.88-42.38Z"/>
        <path class="cls-1" d="M1013.63,103.99h30.22v19.36c7.55-14.52,22.9-22.07,39.31-22.07s30.81,6.85,36.71,22.55c9.56-14.4,26.21-22.55,44.15-22.55,29.04,0,42.73,21.25,42.73,49.11v80.03h-30.1v-78.14c0-15.82-8.03-26.09-24.08-26.09-17.59,0-27.15,12.16-27.15,28.57v75.67h-30.22v-78.14c0-15.82-8.03-26.09-24.2-26.09-17.47,0-27.15,12.16-27.15,28.57v75.67h-30.22v-126.42Z"/>
        <path class="cls-1" d="M1224.8,103.99h32.11l25.97,90.66,27.03-90.66h25.14l25.5,90.66,26.44-90.66h29.51l-40.49,126.42h-30.69l-23.84-84.4-25.97,84.4h-30.93l-39.78-126.42Z"/>
        <path class="cls-1" d="M1503.61,214.95c-9.56,12.75-23.61,17.82-39.19,17.82-23.73,0-42.38-12.04-42.38-36.83,0-35.06,37.06-40.61,66.46-40.61h14.88v-2.01c0-18.06-4.25-29.51-24.67-29.51-12.28,0-23.61,6.37-28.09,18.06l-23.49-10.15c8.5-22.31,32.11-30.45,54.65-30.45,29.87,0,51.59,14.4,51.59,46.51v82.63h-29.75v-15.46ZM1488.14,173.87c-13.93,0-36.12,1.65-36.12,20.78,0,12.16,8.85,16.64,20.19,16.64,15.35,0,31.16-8.03,31.16-25.14v-12.28h-15.23Z"/>
        <path class="cls-1" d="M1565.22,103.99h30.22v23.73c8.5-17.35,22.31-25.62,41.55-25.62v27.98c-24.44,0-41.55,8.03-41.55,35.06v65.28h-30.22v-126.42Z"/>
        <path class="cls-1" d="M1772.14,202.91c-10.51,22.31-33.17,29.86-56.42,29.86-39.9,0-65.04-26.68-65.04-65.99,0-37.07,25.62-65.51,63.62-65.51,40.84,0,60.79,23.84,60.79,72.6h-93.61c0,21.37,12.39,36.95,35.41,36.95,13.69,0,25.03-5.55,31.63-18.42l23.61,10.51ZM1744.99,154.04c-.94-19.12-12.51-30.81-30.34-30.81-19.01,0-30.1,13.34-32.7,30.81h63.03Z"/>
        <path class="cls-1" d="M1853.7,57.6h60.08c36.36,0,64.8,14.64,64.8,54.42,0,43.79-34.59,53.24-71.53,53.24h-19.83v65.16h-33.52V57.6ZM1913.55,141.18c20.66,0,32.34-8.5,32.34-29.39s-12.75-28.8-32.34-28.8h-26.32v58.19h26.32Z"/>
        <path class="cls-1" d="M2001.13,103.99h30.22v23.73c8.5-17.35,22.31-25.62,41.55-25.62v27.98c-24.43,0-41.55,8.03-41.55,35.06v65.28h-30.22v-126.42Z"/>
        <path class="cls-1" d="M2152.22,101.28c38.37,0,67.88,26.91,67.88,65.63s-31.04,65.87-69.17,65.87-69.41-26.68-69.41-65.28,32.7-66.22,70.71-66.22ZM2187.63,167.15c0-23.25-11.8-42.61-36.59-42.61s-35.65,20.3-35.65,43.44,11.92,41.55,36.36,41.55,35.88-20.3,35.88-42.38Z"/>
        <path class="cls-1" d="M2306.14,229.47c-6.49,1.89-13.22,3.07-20.78,3.07-24.08,0-38.36-12.51-38.36-37.66v-68.7h-17v-22.19h17v-26.09l30.22-13.1v39.19h27.86v22.19h-27.86v65.99c0,9.92,4.25,16.05,15.35,16.05,4.25,0,8.97-.94,13.57-2.48v23.73Z"/>
        <path class="cls-1" d="M2441.88,202.91c-10.51,22.31-33.17,29.86-56.42,29.86-39.9,0-65.04-26.68-65.04-65.99,0-37.07,25.62-65.51,63.62-65.51,40.84,0,60.79,23.84,60.79,72.6h-93.61c0,21.37,12.39,36.95,35.41,36.95,13.69,0,25.03-5.55,31.63-18.42l23.61,10.51ZM2414.73,154.04c-.94-19.12-12.51-30.81-30.34-30.81-19.01,0-30.1,13.34-32.7,30.81h63.03Z"/>
        <path class="cls-1" d="M2583.18,194.65c-8.38,26.44-31.99,38.13-58.43,38.13-40.13,0-64.1-26.91-64.1-65.99s26.79-65.51,64.8-65.51c25.62,0,47.69,10.74,57.01,35.53l-24.43,10.74c-5.08-14.17-17.35-22.31-32.58-22.31-24.67,0-33.76,21.37-33.76,43.09s9.8,41.55,34.23,41.55c17.35,0,29.04-9.56,34.23-25.38l23.02,10.15Z"/>
        <path class="cls-1" d="M2671.11,229.47c-6.49,1.89-13.22,3.07-20.78,3.07-24.08,0-38.36-12.51-38.36-37.66v-68.7h-17v-22.19h17v-26.09l30.22-13.1v39.19h27.86v22.19h-27.86v65.99c0,9.92,4.25,16.05,15.35,16.05,4.25,0,8.97-.94,13.57-2.48v23.73Z"/>
        <path class="cls-1" d="M2712.3,50.52c9.8,0,17.59,7.2,17.59,17.23s-7.55,17.12-17.47,17.12-18.06-7.32-18.06-17.23,8.14-17.12,17.94-17.12ZM2697.08,104.23h30.22v126.19h-30.22v-126.19Z"/>
        <path class="cls-1" d="M2819.84,101.28c38.36,0,67.87,26.91,67.87,65.63s-31.04,65.87-69.17,65.87-69.41-26.68-69.41-65.28,32.7-66.22,70.71-66.22ZM2855.25,167.15c0-23.25-11.8-42.61-36.59-42.61s-35.65,20.3-35.65,43.44,11.92,41.55,36.36,41.55,35.88-20.3,35.88-42.38Z"/>
        <path class="cls-1" d="M2909.78,103.99h30.22v20.07c8.14-15.58,25.14-22.78,42.73-22.78,30.34,0,44.03,21.37,44.03,50.05v79.09h-30.69v-76.14c0-17.71-7.91-28.09-25.85-28.09-19.01,0-30.22,11.8-30.22,29.98v74.25h-30.22v-126.42Z"/>
        <path class="cls-1" d="M3112.8,57.6h60.08c36.36,0,64.8,14.64,64.8,54.42,0,43.79-34.59,53.24-71.53,53.24h-19.83v65.16h-33.52V57.6ZM3172.65,141.18c20.66,0,32.34-8.5,32.34-29.39s-12.75-28.8-32.34-28.8h-26.32v58.19h26.32Z"/>
        <path class="cls-1" d="M3261.06,52.76l30.22-13.1v190.76h-30.22V52.76Z"/>
        <path class="cls-1" d="M3410.02,210.59c-7.91,15.35-24.2,22.19-41.67,22.19-29.04,0-44.38-19.12-44.38-47.81v-80.98h30.22v77.32c0,17.23,7.91,27.86,25.5,27.86,18.89,0,30.34-12.16,30.34-30.22v-74.96h30.1v126.42h-30.1v-19.83Z"/>
        <path class="cls-1" d="M3486.63,192.76c4.72,12.39,17.59,18.3,31.28,18.3,9.8,0,21.96-3.07,21.96-14.99,0-12.63-13.69-15.58-29.28-18.89-20.3-4.25-43.09-9.21-43.09-37.54,0-25.97,24.2-38.36,47.1-38.36,20.07,0,42.97,7.55,51.23,27.5l-22.43,9.68c-4.96-11.21-17.35-15.46-27.74-15.46s-19.71,4.01-19.71,14.28c0,11.57,12.39,14.05,27.62,17,20.66,4.01,45.21,8.74,45.21,38.25s-24.91,40.25-51.23,40.25c-22.31,0-46.27-7.55-54.18-30.22l23.25-9.8Z"/>
      </g>
      <g>
        <path class="cls-2" d="M246.06,58.3c-.11-7.9-.2-9.38-.2-12.07.03-5.63-2.86-10.76-7.67-13.73-2.09-1.27-5.55-3.4-42.65-13.9v26.15c11.38,3.25,20.07,5.89,25.22,7.64.06,2.86.08,2.16.14,6.26.25,16.02.59,40.25.59,67.08s-5.24,48.74-15.59,68.63c-8.24,15.85-19.78,29.83-34.3,41.55-20.27,16.33-40.93,23.78-48.4,26.12-7.44-2.24-28.05-9.42-48.26-25.59-14.49-11.58-26.01-25.53-34.22-41.43-10.36-19.95-15.59-43.27-15.59-69.28,0-33.74.4-59.42.62-73.63,5.12-1.7,13.76-4.3,25.02-7.5v-26.15C14.18,28.77,10.75,30.8,8.63,32.02c-4.84,2.89-7.81,7.92-7.9,13.53-.17,9.68-.74,40.15-.74,80.19,0,30.34,6.31,57.76,18.74,81.51,10.02,19.1,23.95,35.77,41.41,49.56,29.58,23.32,59.1,30.26,60.34,30.54l2.89.65,2.89-.68c1.25-.31,30.71-7.64,60.23-31.13,17.46-13.9,31.39-30.57,41.41-49.59,12.43-23.66,18.74-50.86,18.74-80.86,0-27-.34-51.34-.57-67.45Z"/>
        <path class="cls-3" d="M130.72,1c-5.03-1.33-10.38-1.33-15.42,0-7.18,1.89-23.01,6.08-40.18,10.75v26.04s.03,0,.06,0v26.53c0,10.92,5.86,21.09,15.31,26.56l19.8,11.43v73.98h-.03v25.11h-.01v19.42h25.06l-14.55-19.39h14.71v-25.14h-.03v-74.1l19.59-11.3c9.17-5.3,14.95-15,15.28-25.53V11.61c-16.95-4.61-32.46-8.72-39.57-10.61ZM145.19,64.32c0,1.99-1.05,3.8-2.75,4.78l-19.7,11.39-19.67-11.39c-1.72-.98-2.78-2.79-2.78-4.78V31.12h-.42c7-1.86,14.3-3.83,21.83-5.81.84-.22,1.75-.22,2.62,0,7.19,1.89,14.15,3.76,20.86,5.55v33.45Z"/>
      </g>
    </g>
  </g>
</svg>