<?xml version="1.0" encoding="UTF-8"?>
<svg id="Layer_2" data-name="Layer 2" xmlns="http://www.w3.org/2000/svg" viewBox="0 0 246.63 288">
  <defs>
    <style>
      .cls-1 {
        fill: #009d54;
      }

      .cls-2 {
        fill: #007ac1;
      }
    </style>
  </defs>
  <g id="Layer_1" data-name="Layer 1">
    <g>
      <path class="cls-1" d="M246.06,58.3c-.11-7.9-.2-9.38-.2-12.07.03-5.63-2.86-10.76-7.67-13.73-2.09-1.27-5.55-3.4-42.65-13.9v26.15c11.38,3.25,20.07,5.89,25.22,7.64.06,2.86.08,2.16.14,6.26.25,16.02.59,40.25.59,67.08s-5.24,48.74-15.59,68.63c-8.24,15.85-19.78,29.83-34.3,41.55-20.27,16.33-40.93,23.78-48.4,26.12-7.44-2.24-28.05-9.42-48.26-25.59-14.49-11.58-26.01-25.53-34.22-41.43-10.36-19.95-15.59-43.27-15.59-69.28,0-33.74.4-59.42.62-73.63,5.12-1.7,13.76-4.3,25.02-7.5v-26.15C14.18,28.77,10.75,30.8,8.63,32.02c-4.84,2.89-7.81,7.92-7.9,13.53-.17,9.68-.74,40.15-.74,80.19,0,30.34,6.31,57.76,18.74,81.51,10.02,19.1,23.95,35.77,41.41,49.56,29.58,23.32,59.1,30.26,60.34,30.54l2.89.65,2.89-.68c1.25-.31,30.71-7.64,60.23-31.13,17.46-13.9,31.39-30.57,41.41-49.59,12.43-23.66,18.74-50.86,18.74-80.86,0-27-.34-51.34-.57-67.45Z"/>
      <path class="cls-2" d="M130.72,1c-5.03-1.33-10.38-1.33-15.42,0-7.18,1.89-23.01,6.08-40.18,10.75v26.04s.03,0,.06,0v26.53c0,10.92,5.86,21.09,15.31,26.56l19.8,11.43v73.98h-.03v25.11h-.01v19.42h25.06l-14.55-19.39h14.71v-25.14h-.03v-74.1l19.59-11.3c9.17-5.3,14.95-15,15.28-25.53V11.61c-16.95-4.61-32.46-8.72-39.57-10.61ZM145.19,64.32c0,1.99-1.05,3.8-2.75,4.78l-19.7,11.39-19.67-11.39c-1.72-.98-2.78-2.79-2.78-4.78V31.12h-.42c7-1.86,14.3-3.83,21.83-5.81.84-.22,1.75-.22,2.62,0,7.19,1.89,14.15,3.76,20.86,5.55v33.45Z"/>
    </g>
  </g>
</svg>