<?xml version="1.0" encoding="UTF-8"?>
<svg id="Layer_2" data-name="Layer 2" xmlns="http://www.w3.org/2000/svg" viewBox="0 0 284.24 288">
  <defs>
    <style>
      .cls-1 {
        fill: #009d54;
      }

      .cls-2 {
        fill: #007ac1;
      }
    </style>
  </defs>
  <g id="Layer_1" data-name="Layer 1">
    <g>
      <path class="cls-1" d="M138.77,0C62.25,0,0,62.25,0,138.78s62.25,138.77,138.77,138.77c6.46,0,12.79-.44,19.01-1.32l-8.53-26.4c-3.45.33-6.94.5-10.48.5-61.51,0-111.55-50.04-111.55-111.55S77.25,27.22,138.77,27.22s111.55,50.05,111.55,111.56c0,10.65-1.5,20.94-4.29,30.7l25.55,9.53c3.89-12.73,5.96-26.24,5.96-40.22C277.54,62.25,215.28,0,138.77,0ZM162.78,247.72l8.39,26.01-8.38-26.01h-.02ZM188.46,238.64l.14.41.33-.65c-.15.09-.32.17-.47.24Z"/>
      <path class="cls-1" d="M138.77,54.32c-46.57,0-84.47,37.89-84.47,84.47s37.89,84.45,84.47,84.45c.64,0,1.27,0,1.89-.03l-8.91-27.61c-28.26-3.46-50.23-27.63-50.23-56.81,0-31.57,25.69-57.25,57.25-57.25s57.25,25.68,57.25,57.25c0,3.98-.41,7.85-1.18,11.6l25.71,9.59c1.75-6.77,2.69-13.87,2.69-21.18,0-46.57-37.89-84.47-84.47-84.47Z"/>
      <path class="cls-2" d="M275.39,180.43l-3.81-1.42-25.55-9.53-25.48-9.51-25.71-9.59-45.79-17.07c-4.88-1.83-10.39-.7-14.17,2.92-3.77,3.6-5.14,9.04-3.54,14l14.62,45.35,8.45,26.19,8.38,25.95,8.38,26.01,1.57,4.85c1.69,5.23,6.37,8.94,11.84,9.38.38.03.74.05,1.12.05,5.07,0,9.75-2.81,12.1-7.38l11.54-22.39,14.76-28.67,30.11-13.84,22.12-10.18c4.99-2.3,8.12-7.38,7.91-12.87-.2-5.5-3.69-10.33-8.85-12.25ZM180,212.45l-8.6-26.67-5.53-17.15,17.16,6.4,26.46,9.87,25.72,9.59-26.75,12.29c-2.77,1.27-5.02,3.43-6.41,6.14l-13.13,25.48-.33.65-.14-.41-8.45-26.19Z"/>
    </g>
  </g>
</svg>