<?xml version="1.0" encoding="UTF-8"?>
<svg id="Layer_2" data-name="Layer 2" xmlns="http://www.w3.org/2000/svg" viewBox="0 0 2617.84 288">
  <defs>
    <style>
      .cls-1 {
        fill: #fff;
      }

      .cls-2 {
        fill: #009d54;
      }

      .cls-3 {
        fill: #007ac1;
      }
    </style>
  </defs>
  <g id="Layer_1" data-name="Layer 1">
    <g>
      <g>
        <path class="cls-1" d="M341.84,57.6h62.56c34.59,0,65.04,12.75,65.04,51.94,0,24.67-14.76,40.61-38.25,46.39l48.63,74.48h-36.12l-44.97-69.64h-23.37v69.64h-33.52V57.6ZM403.46,137.64c19.24,0,33.41-7.32,33.41-27.98s-15.11-26.44-33.41-26.44h-28.09v54.42h28.09Z"/>
        <path class="cls-1" d="M604.72,202.91c-10.51,22.31-33.17,29.86-56.42,29.86-39.9,0-65.04-26.68-65.04-65.99,0-37.07,25.62-65.51,63.62-65.51,40.84,0,60.79,23.84,60.79,72.6h-93.61c0,21.37,12.39,36.95,35.41,36.95,13.69,0,25.02-5.55,31.63-18.42l23.61,10.51ZM577.57,154.04c-.94-19.12-12.51-30.81-30.34-30.81-19,0-30.1,13.34-32.7,30.81h63.03Z"/>
        <path class="cls-1" d="M631.98,103.99h30.22v19.36c7.55-14.52,22.9-22.07,39.31-22.07s30.81,6.85,36.71,22.55c9.56-14.4,26.21-22.55,44.15-22.55,29.04,0,42.73,21.25,42.73,49.11v80.03h-30.1v-78.14c0-15.82-8.03-26.09-24.08-26.09-17.59,0-27.15,12.16-27.15,28.57v75.67h-30.22v-78.14c0-15.82-8.03-26.09-24.2-26.09-17.47,0-27.15,12.16-27.15,28.57v75.67h-30.22v-126.42Z"/>
        <path class="cls-1" d="M915.27,101.28c38.36,0,67.87,26.91,67.87,65.63s-31.04,65.87-69.17,65.87-69.41-26.68-69.41-65.28,32.7-66.22,70.71-66.22ZM950.68,167.15c0-23.25-11.8-42.61-36.59-42.61s-35.65,20.3-35.65,43.44,11.92,41.55,36.36,41.55,35.88-20.3,35.88-42.38Z"/>
        <path class="cls-1" d="M1069.19,229.47c-6.49,1.89-13.22,3.07-20.78,3.07-24.08,0-38.36-12.51-38.36-37.66v-68.7h-17v-22.19h17v-26.09l30.22-13.1v39.19h27.86v22.19h-27.86v65.99c0,9.92,4.25,16.05,15.35,16.05,4.25,0,8.97-.94,13.57-2.48v23.73Z"/>
        <path class="cls-1" d="M1204.94,202.91c-10.51,22.31-33.17,29.86-56.42,29.86-39.9,0-65.04-26.68-65.04-65.99,0-37.07,25.62-65.51,63.62-65.51,40.84,0,60.79,23.84,60.79,72.6h-93.61c0,21.37,12.39,36.95,35.41,36.95,13.69,0,25.02-5.55,31.63-18.42l23.61,10.51ZM1177.79,154.04c-.94-19.12-12.51-30.81-30.34-30.81-19,0-30.1,13.34-32.7,30.81h63.03Z"/>
        <path class="cls-1" d="M1331.23,57.6h43.32l57.96,172.81h-34.59l-12.87-39.9h-67.87l-12.51,39.9h-31.75l58.31-172.81ZM1377.62,166.56l-26.32-81.92-26.44,81.92h52.76Z"/>
        <path class="cls-1" d="M1565.66,194.65c-8.38,26.44-31.99,38.13-58.43,38.13-40.13,0-64.1-26.91-64.1-65.99s26.8-65.51,64.8-65.51c25.62,0,47.69,10.74,57.01,35.53l-24.43,10.74c-5.08-14.17-17.35-22.31-32.58-22.31-24.67,0-33.76,21.37-33.76,43.09s9.8,41.55,34.23,41.55c17.35,0,29.04-9.56,34.23-25.38l23.02,10.15Z"/>
        <path class="cls-1" d="M1703.64,194.65c-8.38,26.44-31.99,38.13-58.43,38.13-40.13,0-64.1-26.91-64.1-65.99s26.8-65.51,64.8-65.51c25.62,0,47.69,10.74,57.01,35.53l-24.43,10.74c-5.08-14.17-17.35-22.31-32.58-22.31-24.67,0-33.76,21.37-33.76,43.09s9.8,41.55,34.23,41.55c17.35,0,29.04-9.56,34.23-25.38l23.02,10.15Z"/>
        <path class="cls-1" d="M1840.57,202.91c-10.5,22.31-33.17,29.86-56.42,29.86-39.9,0-65.04-26.68-65.04-65.99,0-37.07,25.62-65.51,63.62-65.51,40.84,0,60.79,23.84,60.79,72.6h-93.61c0,21.37,12.39,36.95,35.41,36.95,13.69,0,25.02-5.55,31.63-18.42l23.61,10.51ZM1813.42,154.04c-.94-19.12-12.51-30.81-30.34-30.81-19,0-30.1,13.34-32.7,30.81h63.03Z"/>
        <path class="cls-1" d="M1881.76,192.76c4.72,12.39,17.59,18.3,31.28,18.3,9.8,0,21.96-3.07,21.96-14.99,0-12.63-13.69-15.58-29.28-18.89-20.3-4.25-43.08-9.21-43.08-37.54,0-25.97,24.2-38.36,47.1-38.36,20.07,0,42.97,7.55,51.23,27.5l-22.43,9.68c-4.96-11.21-17.35-15.46-27.74-15.46s-19.71,4.01-19.71,14.28c0,11.57,12.39,14.05,27.62,17,20.66,4.01,45.21,8.74,45.21,38.25s-24.91,40.25-51.23,40.25c-22.31,0-46.27-7.55-54.18-30.22l23.25-9.8Z"/>
        <path class="cls-1" d="M2001.33,192.76c4.72,12.39,17.59,18.3,31.28,18.3,9.8,0,21.96-3.07,21.96-14.99,0-12.63-13.69-15.58-29.27-18.89-20.3-4.25-43.09-9.21-43.09-37.54,0-25.97,24.2-38.36,47.1-38.36,20.07,0,42.97,7.55,51.23,27.5l-22.43,9.68c-4.96-11.21-17.35-15.46-27.74-15.46s-19.71,4.01-19.71,14.28c0,11.57,12.39,14.05,27.62,17,20.66,4.01,45.21,8.74,45.21,38.25s-24.91,40.25-51.23,40.25c-22.31,0-46.27-7.55-54.18-30.22l23.25-9.8Z"/>
        <path class="cls-1" d="M2161.86,57.6h60.08c36.36,0,64.8,14.64,64.8,54.42,0,43.79-34.59,53.24-71.53,53.24h-19.83v65.16h-33.52V57.6ZM2221.71,141.18c20.66,0,32.34-8.5,32.34-29.39s-12.75-28.8-32.34-28.8h-26.32v58.19h26.32Z"/>
        <path class="cls-1" d="M2310.11,52.76l30.22-13.1v190.76h-30.22V52.76Z"/>
        <path class="cls-1" d="M2459.08,210.59c-7.91,15.35-24.2,22.19-41.67,22.19-29.04,0-44.38-19.12-44.38-47.81v-80.98h30.22v77.32c0,17.23,7.91,27.86,25.5,27.86,18.89,0,30.34-12.16,30.34-30.22v-74.96h30.1v126.42h-30.1v-19.83Z"/>
        <path class="cls-1" d="M2535.68,192.76c4.72,12.39,17.59,18.3,31.28,18.3,9.8,0,21.96-3.07,21.96-14.99,0-12.63-13.69-15.58-29.28-18.89-20.3-4.25-43.08-9.21-43.08-37.54,0-25.97,24.2-38.36,47.1-38.36,20.07,0,42.97,7.55,51.23,27.5l-22.43,9.68c-4.96-11.21-17.35-15.46-27.74-15.46s-19.71,4.01-19.71,14.28c0,11.57,12.39,14.05,27.62,17,20.66,4.01,45.21,8.74,45.21,38.25s-24.91,40.25-51.23,40.25c-22.31,0-46.27-7.55-54.18-30.22l23.25-9.8Z"/>
      </g>
      <g>
        <path class="cls-2" d="M138.77,0C62.25,0,0,62.25,0,138.78s62.25,138.77,138.77,138.77c6.46,0,12.79-.44,19.01-1.32l-8.53-26.4c-3.45.33-6.94.5-10.48.5-61.51,0-111.55-50.04-111.55-111.55S77.25,27.22,138.77,27.22s111.55,50.05,111.55,111.56c0,10.65-1.5,20.94-4.29,30.7l25.55,9.53c3.89-12.73,5.96-26.24,5.96-40.22C277.54,62.25,215.28,0,138.77,0ZM162.78,247.72l8.39,26.01-8.38-26.01h-.02ZM188.46,238.64l.14.41.33-.65c-.15.09-.32.17-.47.24Z"/>
        <path class="cls-2" d="M138.77,54.32c-46.57,0-84.47,37.89-84.47,84.47s37.89,84.45,84.47,84.45c.64,0,1.27,0,1.89-.03l-8.91-27.61c-28.26-3.46-50.23-27.63-50.23-56.81,0-31.57,25.69-57.25,57.25-57.25s57.25,25.68,57.25,57.25c0,3.98-.41,7.85-1.18,11.6l25.71,9.59c1.75-6.77,2.69-13.87,2.69-21.18,0-46.57-37.89-84.47-84.47-84.47Z"/>
        <path class="cls-3" d="M275.39,180.43l-3.81-1.42-25.55-9.53-25.48-9.51-25.71-9.59-45.79-17.07c-4.88-1.83-10.39-.7-14.17,2.92-3.77,3.6-5.14,9.04-3.54,14l14.62,45.35,8.45,26.19,8.38,25.95,8.38,26.01,1.57,4.85c1.69,5.23,6.37,8.94,11.84,9.38.38.03.74.05,1.12.05,5.07,0,9.75-2.81,12.1-7.38l11.54-22.39,14.76-28.67,30.11-13.84,22.12-10.18c4.99-2.3,8.12-7.38,7.91-12.87-.2-5.5-3.69-10.33-8.85-12.25ZM180,212.45l-8.6-26.67-5.53-17.15,17.16,6.4,26.46,9.87,25.72,9.59-26.75,12.29c-2.77,1.27-5.02,3.43-6.41,6.14l-13.13,25.48-.33.65-.14-.41-8.45-26.19Z"/>
      </g>
    </g>
  </g>
</svg>