<svg xmlns="http://www.w3.org/2000/svg" viewBox="0 0 220 184">
  <path fill="#7E90B0" d="M10.17 104.49c-.51 0-.92-.41-.92-.92v-3.17c0-.51.41-.92.92-.92s.92.41.92.92v3.17c0 .51-.41.92-.92.92Zm0 7.39c-.51 0-.92-.41-.92-.92v-3.17c0-.51.41-.92.92-.92s.92.41.92.92v3.17c0 .51-.41.92-.92.92Zm-2.1-5.28H4.92c-.51 0-.92-.41-.92-.92s.41-.92.92-.92h3.16c.51 0 .92.41.92.92s-.41.92-.92.92h-.01Zm7.37 0h-3.16c-.51 0-.92-.41-.92-.92s.41-.92.92-.92h3.16c.51 0 .92.41.92.92s-.41.92-.92.92Zm195.97-36.61c-.44 0-.8-.36-.8-.8v-2.48c0-.44.36-.8.8-.8.44 0 .8.36.8.8v2.48c0 .44-.36.8-.8.8Zm0 5.79c-.44 0-.8-.36-.8-.8V72.5c0-.44.36-.8.8-.8.44 0 .8.36.8.8v2.48c0 .44-.36.8-.8.8Zm-1.65-4.13h-2.47c-.44 0-.8-.36-.8-.8 0-.44.36-.8.8-.8h2.47c.44 0 .8.36.8.8 0 .44-.36.8-.8.8Zm5.78 0h-2.47c-.44 0-.8-.36-.8-.8 0-.44.36-.8.8-.8h2.47c.44 0 .8.36.8.8 0 .44-.36.8-.8.8Zm-22.83 73.41c-.51 0-.92-.41-.92-.92v-1.77h-1.76c-.51 0-.92-.41-.92-.92s.41-.92.92-.92h1.76v-1.77c0-.51.41-.92.92-.92s.92.41.92.92v1.77h1.76c.51 0 .92.41.92.92s-.41.92-.92.92h-1.76v1.77c0 .51-.41.92-.92.92Z"/>
  <path fill="#5BC1A5" d="M23.06 25.78c-.38 0-.72-.23-.85-.59l-1.29-3.36c-.18-.46-.27-.71-.37-.85-.09-.12-.19-.23-.31-.31-.13-.1-.38-.19-.82-.36l-3.38-1.3a.92.92 0 0 1-.59-.85c0-.38.23-.72.59-.85l3.35-1.29c.47-.18.71-.28.84-.37.12-.09.23-.19.31-.31.09-.13.19-.38.36-.84l1.29-3.37a.93.93 0 0 1 .85-.59c.37 0 .72.23.85.59l1.29 3.36c.18.46.27.71.37.85.08.12.19.22.31.31.13.1.38.19.82.36l3.38 1.3c.35.14.59.48.59.85s-.23.72-.59.85l-3.35 1.29c-.47.18-.71.28-.84.37-.12.09-.23.19-.31.31-.09.13-.19.38-.36.84l-1.29 3.37a.93.93 0 0 1-.85.59Zm-4.15-7.63 1.14.44c.61.24.93.36 1.25.59.28.2.53.45.74.74.23.32.35.65.58 1.24l.44 1.15.44-1.14c.23-.6.36-.93.58-1.25.21-.29.46-.54.74-.74.32-.23.64-.35 1.22-.58l1.17-.45-1.14-.44c-.61-.24-.93-.36-1.25-.59-.28-.2-.53-.45-.74-.74-.23-.32-.35-.65-.58-1.24l-.44-1.15-.44 1.14c-.23.6-.36.93-.58 1.25-.21.29-.46.54-.74.75-.31.23-.64.35-1.22.58l-1.17.45v-.01Zm-3.72-4.37c-.51 0-.92-.41-.92-.92v-.95h-.95c-.51 0-.92-.41-.92-.92s.41-.92.92-.92h.95v-.95c0-.51.41-.92.92-.92s.92.41.92.92v.95h.94c.51 0 .92.41.92.92s-.41.92-.92.92h-.94v.95c0 .51-.41.92-.92.92Z"/>
  <path fill="#E56470" d="M182.7 20.54c-2.07 0-3.75-1.68-3.75-3.75 0-2.07 1.68-3.75 3.75-3.75 2.07 0 3.75 1.68 3.75 3.75 0 2.07-1.68 3.75-3.75 3.75Zm0-5.67a1.92 1.92 0 1 0 .001 3.841 1.92 1.92 0 0 0-.001-3.841Zm-87 163.22a2.88 2.88 0 1 1 .002-5.761 2.88 2.88 0 0 1-.002 5.761Zm0-3.93a1.05 1.05 0 1 0 0 2.1 1.05 1.05 0 0 0 0-2.1Z"/>
  <path fill="#1F64E7" d="M173.71 162.93h-3.49c-.51 0-.92-.41-.92-.92s.41-.92.92-.92h3.49c.51 0 .92.41.92.92s-.41.92-.92.92Zm-9.21 0h-11.29c-.51 0-.92-.41-.92-.92s.41-.92.92-.92h11.29c.51 0 .92.41.92.92s-.41.92-.92.92Zm-44.83 0h-42.1c-.51 0-.92-.41-.92-.92s.41-.92.92-.92h42.1c.51 0 .92.41.92.92s-.41.92-.92.92Zm-49.41 0H61.9c-.51 0-.92-.41-.92-.92s.41-.92.92-.92h8.36c.51 0 .92.41.92.92s-.41.92-.92.92Z"/>
  <path fill="#E56470" d="M111.57 61c16.02 0 29-12.98 29-29s-12.98-29-29-29-29 12.98-29 29 12.98 29 29 29Z"/>
  <path fill="#fff" d="M111.57 47.22c-8.39 0-15.22-6.83-15.22-15.22 0-4.15 1.67-7.92 4.38-10.67.03-.03.05-.06.08-.09s.06-.06.09-.08a15.16 15.16 0 0 1 10.67-4.38c8.39 0 15.22 6.83 15.22 15.22 0 4.16-1.67 7.93-4.38 10.68-.02.03-.05.06-.08.08-.03.03-.06.05-.08.08a15.16 15.16 0 0 1-10.67 4.38h-.01Zm-9.85-23.35A12.7 12.7 0 0 0 98.79 32c0 7.05 5.73 12.78 12.78 12.78 3.08 0 5.92-1.1 8.13-2.93l-17.98-17.98Zm1.72-1.73 17.98 17.98c1.83-2.21 2.93-5.04 2.93-8.13 0-7.05-5.73-12.78-12.78-12.78-3.08 0-5.92 1.1-8.13 2.93Z"/>
  <path fill="#4E7FDB" d="M41.87 153.04c-.5 0-.9-.4-.9-.9V104.5c0-.5.4-.9.9-.9s.9.4.9.9v47.64c0 .5-.4.9-.9.9Z"/>
  <path fill="#9FB7FF" fill-opacity=".25" d="M51.83 67.95v-7.47a2.49 2.49 0 0 0-2.49-2.49h-4.98a2.49 2.49 0 0 0-2.49 2.49v7.47"/>
  <path fill="#4E7FDB" d="M51.83 68.86c-.5 0-.9-.4-.9-.9v-7.47c0-.88-.71-1.59-1.59-1.59h-4.98c-.88 0-1.59.71-1.59 1.59v7.47c0 .5-.4.9-.9.9s-.9-.4-.9-.9v-7.47c0-1.87 1.52-3.39 3.39-3.39h4.98c1.87 0 3.39 1.52 3.39 3.39v7.47c0 .5-.4.9-.9.9Zm119.48 94.13h-13.03c-.5 0-.9-.4-.9-.9s.4-.9.9-.9h13.03c.5 0 .9.4.9.9s-.4.9-.9.9Zm-108.23 0H27c-.5 0-.9-.4-.9-.9s.4-.9.9-.9h36.08c.5 0 .9.4.9.9s-.4.9-.9.9Zm108.23-9.95c-.5 0-.9-.4-.9-.9v-49.31c0-.5.4-.9.9-.9s.9.4.9.9v49.31c0 .5-.4.9-.9.9Zm-119.48 0c-.5 0-.9-.4-.9-.9V104.5c0-.5.4-.9.9-.9s.9.4.9.9v47.64c0 .5-.4.9-.9.9Z"/>
  <path fill="#9FB7FF" fill-opacity=".25" d="M181.27 67.95v-7.47a2.49 2.49 0 0 0-2.49-2.49h-4.98c-1.38 0-2.49 1.11-2.49 2.49v7.47"/>
  <path fill="#4E7FDB" d="M181.27 68.86c-.5 0-.9-.4-.9-.9v-7.47c0-.88-.71-1.59-1.59-1.59h-4.98c-.88 0-1.59.71-1.59 1.59v7.47c0 .5-.4.9-.9.9s-.9-.4-.9-.9v-7.47c0-1.87 1.52-3.39 3.39-3.39h4.98c1.87 0 3.39 1.52 3.39 3.39v7.47c0 .5-.4.9-.9.9Zm0 84.18c-.5 0-.9-.4-.9-.9v-49.31c0-.5.4-.9.9-.9s.9.4.9.9v49.31c0 .5-.4.9-.9.9Z"/>
  <path fill="#F9D8DB" d="M183.76 67.95H39.38a4.98 4.98 0 0 0-4.98 4.98v24.89a4.98 4.98 0 0 0 4.98 4.98h144.38a4.98 4.98 0 0 0 4.98-4.98V72.93a4.98 4.98 0 0 0-4.98-4.98Z"/>
  <path fill="#F9D8DB" d="M183.76 103.71H39.38a5.89 5.89 0 0 1-5.88-5.88V72.94a5.89 5.89 0 0 1 5.88-5.88h144.38a5.89 5.89 0 0 1 5.88 5.88v24.89a5.89 5.89 0 0 1-5.88 5.88ZM39.38 68.86c-2.25 0-4.08 1.83-4.08 4.08v24.89c0 2.25 1.83 4.08 4.08 4.08h144.38c2.25 0 4.08-1.83 4.08-4.08V72.94c0-2.25-1.83-4.08-4.08-4.08H39.38Z"/>
  <path fill="#E56470" d="m141.44 67.95-34.85 34.85h22.4l34.85-34.85h-22.4Z"/>
  <path fill="#E56470" d="M129 103.71h-22.4c-.36 0-.69-.22-.83-.56a.909.909 0 0 1 .19-.98l34.85-34.85a.9.9 0 0 1 .64-.26h22.4c.36 0 .69.22.83.56.14.34.06.72-.19.98l-34.85 34.85a.9.9 0 0 1-.64.26Zm-20.24-1.81h19.86l33.05-33.05h-19.86l-33.05 33.05ZM74.23 67.95 39.38 102.8c-4.24 0-5.09-3.39-4.98-5.08V85.38l17.43-17.43h22.4Z"/>
  <path fill="#E56470" d="M39.38 103.71c-1.85 0-3.32-.57-4.38-1.69-1.23-1.31-1.58-3.1-1.5-4.35V85.38a.9.9 0 0 1 .26-.64l17.42-17.42a.9.9 0 0 1 .64-.26h22.4c.36 0 .69.22.83.56.14.34.06.72-.19.98l-34.85 34.85a.9.9 0 0 1-.64.26h.01ZM35.3 85.75v11.97c-.05.89.18 2.17 1.02 3.06.63.68 1.54 1.05 2.7 1.11l33.04-33.04H52.2l-16.9 16.9Zm61.33-17.8L61.78 102.8h22.4l34.85-34.85h-22.4Z"/>
  <path fill="#E56470" d="M84.19 103.71h-22.4c-.36 0-.69-.22-.83-.56a.909.909 0 0 1 .19-.98L96 67.32a.9.9 0 0 1 .64-.26h22.4c.36 0 .69.22.83.56.14.34.06.72-.19.98l-34.85 34.85a.9.9 0 0 1-.64.26Zm-20.23-1.81h19.86l33.05-33.05H97.01L63.96 101.9Zm121.65-33.3-34.21 34.21h22.4l14.94-14.94V73.35c-.06-1.58-.77-4.75-3.13-4.75Z"/>
  <path fill="#E56470" d="M173.8 103.71h-22.4c-.36 0-.69-.22-.83-.56a.909.909 0 0 1 .19-.98l34.21-34.21a.9.9 0 0 1 .64-.26c2.62 0 3.93 2.91 4.03 5.61v14.56a.9.9 0 0 1-.26.64l-14.94 14.94a.9.9 0 0 1-.64.26Zm-20.23-1.81h19.86l14.41-14.41V73.34c-.04-.91-.47-3.46-1.9-3.81l-32.37 32.37Z"/>
  <path fill="#9FB7FF" fill-opacity=".25" d="M59.29 162.09H34.4v-4.98a4.98 4.98 0 0 1 4.98-4.98h14.94a4.98 4.98 0 0 1 4.98 4.98v4.98h-.01Z"/>
  <path fill="#4E7FDB" d="M59.29 162.99H34.4c-.5 0-.9-.4-.9-.9v-4.98a5.89 5.89 0 0 1 5.88-5.88h14.94a5.89 5.89 0 0 1 5.88 5.88v4.98c0 .5-.4.9-.9.9h-.01Zm-23.99-1.8h23.09v-4.08c0-2.25-1.83-4.08-4.08-4.08H39.37c-2.25 0-4.08 1.83-4.08 4.08v4.08h.01Z"/>
  <path fill="#9FB7FF" fill-opacity=".25" d="M188.74 162.09h-24.89v-4.98a4.98 4.98 0 0 1 4.98-4.98h14.94a4.98 4.98 0 0 1 4.98 4.98v4.98h-.01Z"/>
  <path fill="#4E7FDB" d="M188.74 162.99h-24.89c-.5 0-.9-.4-.9-.9v-4.98a5.89 5.89 0 0 1 5.88-5.88h14.94a5.89 5.89 0 0 1 5.88 5.88v4.98c0 .5-.4.9-.9.9h-.01Zm-23.99-1.8h23.09v-4.08c0-2.25-1.83-4.08-4.08-4.08h-14.94c-2.25 0-4.08 1.83-4.08 4.08v4.08h.01Zm-22.58 1.72h-65.5c-.5 0-.9-.4-.9-.9s.4-.9.9-.9h65.5c.5 0 .9.4.9.9s-.4.9-.9.9Z"/>
</svg>
