<svg xmlns="http://www.w3.org/2000/svg" viewBox="0 0 220 184">
  <path fill="#7E90B0" d="M10.17 104.27c-.51 0-.92-.41-.92-.92v-3.17c0-.51.41-.92.92-.92s.92.41.92.92v3.17c0 .51-.41.92-.92.92Zm0 7.39c-.51 0-.92-.41-.92-.92v-3.17c0-.51.41-.92.92-.92s.92.41.92.92v3.17c0 .51-.41.92-.92.92Zm-2.1-5.28H4.92c-.51 0-.92-.41-.92-.92s.41-.92.92-.92h3.16c.51 0 .92.41.92.92s-.41.92-.92.92h-.01Zm7.37 0h-3.16c-.51 0-.92-.41-.92-.92s.41-.92.92-.92h3.16c.51 0 .92.41.92.92s-.41.92-.92.92Zm195.97-36.61c-.44 0-.8-.36-.8-.8v-2.48c0-.44.36-.8.8-.8.44 0 .8.36.8.8v2.48c0 .44-.36.8-.8.8Zm0 5.79c-.44 0-.8-.36-.8-.8v-2.48c0-.44.36-.8.8-.8.44 0 .8.36.8.8v2.48c0 .44-.36.8-.8.8Zm-1.65-4.14h-2.47c-.44 0-.8-.36-.8-.8 0-.44.36-.8.8-.8h2.47c.44 0 .8.36.8.8 0 .44-.36.8-.8.8Zm5.78 0h-2.48c-.44 0-.8-.36-.8-.8 0-.44.36-.8.8-.8h2.48c.44 0 .8.36.8.8 0 .44-.36.8-.8.8Zm-22.83 73.41c-.51 0-.92-.41-.92-.92v-1.77h-1.76c-.51 0-.92-.41-.92-.92s.41-.92.92-.92h1.76v-1.77c0-.51.41-.92.92-.92s.92.41.92.92v1.77h1.76c.51 0 .92.41.92.92s-.41.92-.92.92h-1.76v1.77c0 .51-.41.92-.92.92Z"/>
  <path fill="#5BC1A5" d="M23.06 25.55c-.38 0-.72-.23-.85-.59l-1.29-3.36c-.19-.49-.28-.72-.37-.85-.08-.12-.19-.22-.31-.31-.13-.09-.35-.18-.84-.37l-3.35-1.29a.93.93 0 0 1-.59-.85c0-.37.23-.72.59-.85l3.35-1.29c.49-.19.71-.28.85-.37.12-.08.22-.19.31-.31.09-.13.18-.36.37-.85l1.29-3.36a.93.93 0 0 1 .85-.59c.37 0 .72.23.85.59l1.29 3.36c.18.46.27.71.37.85.09.12.19.23.31.31.13.09.35.18.84.37l3.36 1.29c.35.14.59.48.59.85s-.23.72-.59.85l-3.35 1.29c-.49.19-.71.28-.85.37-.12.08-.22.19-.31.31-.1.13-.19.38-.37.84l-1.29 3.37a.93.93 0 0 1-.85.59h-.01Zm-4.15-7.62 1.14.44c.58.22.92.35 1.25.59.29.21.54.46.74.74.23.33.36.66.59 1.25l.44 1.14.44-1.14c.23-.6.36-.93.58-1.25.2-.29.45-.54.74-.74.33-.23.68-.37 1.25-.59l1.14-.44-1.14-.44c-.58-.22-.92-.35-1.25-.59-.29-.21-.54-.46-.74-.74-.23-.32-.35-.65-.58-1.24l-.44-1.15-.44 1.14c-.23.6-.36.93-.59 1.25-.2.29-.45.54-.74.74-.33.23-.68.37-1.25.59l-1.14.44Zm-3.72-4.37c-.51 0-.92-.41-.92-.92v-.95h-.94c-.51 0-.92-.41-.92-.92s.41-.92.92-.92h.94V8.9c0-.51.41-.92.92-.92s.92.41.92.92v.95h.95c.51 0 .92.41.92.92s-.41.92-.92.92h-.95v.95c0 .51-.41.92-.92.92Z"/>
  <path fill="#E56470" d="M182.7 20.32c-2.07 0-3.75-1.68-3.75-3.75 0-2.07 1.68-3.75 3.75-3.75 2.07 0 3.75 1.68 3.75 3.75 0 2.07-1.68 3.75-3.75 3.75Zm0-5.68a1.92 1.92 0 1 0 .001 3.841 1.92 1.92 0 0 0-.001-3.84Zm-159 147.23a2.88 2.88 0 1 1 .002-5.761 2.88 2.88 0 0 1-.002 5.761Zm0-3.93a1.05 1.05 0 1 0 0 2.1 1.05 1.05 0 0 0 0-2.1Z"/>
  <path fill="#1F64E7" d="M173.71 162.71h-3.49c-.51 0-.92-.41-.92-.92s.41-.92.92-.92h3.49c.51 0 .92.41.92.92s-.41.92-.92.92Zm-9.21 0h-11.29c-.51 0-.92-.41-.92-.92s.41-.92.92-.92h11.29c.51 0 .92.41.92.92s-.41.92-.92.92Zm-44.83 0h-42.1c-.51 0-.92-.41-.92-.92s.41-.92.92-.92h42.1c.51 0 .92.41.92.92s-.41.92-.92.92Zm-49.41 0H61.9c-.51 0-.92-.41-.92-.92s.41-.92.92-.92h8.36c.51 0 .92.41.92.92s-.41.92-.92.92Z"/>
  <path fill="#75A4FE" d="M123.92 135.68h-28c-23.11 0-34.72 0-43.08-5.86a32.193 32.193 0 0 1-7.96-7.96c-5.86-8.37-5.86-19.97-5.86-43.08s0-34.72 5.86-43.08c2.17-3.11 4.85-5.78 7.96-7.96 8.37-5.86 19.97-5.86 43.08-5.86h28c23.11 0 34.72 0 43.08 5.86 3.11 2.17 5.78 4.85 7.96 7.96 5.86 8.37 5.86 19.97 5.86 43.08s0 34.72-5.86 43.08c-2.17 3.1-4.85 5.78-7.96 7.96-8.37 5.86-19.97 5.86-43.08 5.86Zm-28-112c-22.74 0-34.15 0-42.05 5.53a30.658 30.658 0 0 0-7.52 7.51c-5.53 7.9-5.53 19.31-5.53 42.05s0 34.15 5.53 42.05c2.05 2.93 4.58 5.46 7.51 7.51 7.9 5.53 19.32 5.53 42.05 5.53h28c22.74 0 34.15 0 42.05-5.53 2.93-2.05 5.46-4.58 7.51-7.51 5.53-7.9 5.53-19.32 5.53-42.05 0-22.73 0-34.15-5.53-42.05a30.446 30.446 0 0 0-7.51-7.51c-7.9-5.53-19.32-5.53-42.05-5.53h-28 .01Z"/>
  <path fill="#75A4FE" d="M176 119.11H43.82c-.5 0-.9-.4-.9-.9s.4-.9.9-.9H176c.5 0 .9.4.9.9s-.4.9-.9.9Zm-50.2 43.58c-.27 0-.54-.12-.72-.36l-2.07-2.74c-4.84-6.43-6.05-16.21-2.99-24.32.18-.46.7-.7 1.16-.52.46.17.7.69.52 1.16-2.85 7.56-1.74 16.64 2.74 22.6l2.07 2.74a.899.899 0 0 1-.72 1.44h.01Zm-32.75 0a.899.899 0 0 1-.72-1.44l2.07-2.74c4.49-5.96 5.59-15.04 2.74-22.6a.898.898 0 1 1 1.68-.64c3.06 8.11 1.85 17.89-2.99 24.32l-2.07 2.74c-.18.24-.45.36-.72.36h.01Z"/>
  <path fill="#4E7FDB" d="M71.41 112.42c-.5 0-.9-.4-.9-.9V85.2c0-.5.4-.9.9-.9s.9.4.9.9v26.32c0 .5-.4.9-.9.9Z"/>
  <path fill="#9FB7FF" fill-opacity=".25" d="M76.91 65.01v-4.13c0-.76-.62-1.38-1.38-1.38h-2.75c-.76 0-1.38.62-1.38 1.38v4.13"/>
  <path fill="#4E7FDB" d="M76.91 65.91c-.5 0-.9-.4-.9-.9v-4.12c0-.26-.21-.48-.47-.48h-2.75c-.26 0-.47.21-.47.48v4.12c0 .5-.4.9-.9.9s-.9-.4-.9-.9v-4.12c0-1.25 1.02-2.28 2.28-2.28h2.75c1.25 0 2.28 1.02 2.28 2.28v4.12c0 .5-.4.9-.9.9h-.02Zm66.01 52.01h-7.2c-.5 0-.9-.4-.9-.9s.4-.9.9-.9h7.2c.5 0 .9.4.9.9s-.4.9-.9.9Zm-59.79 0H63.2c-.5 0-.9-.4-.9-.9s.4-.9.9-.9h19.93c.5 0 .9.4.9.9s-.4.9-.9.9Zm59.79-5.5c-.5 0-.9-.4-.9-.9V84.28c0-.5.4-.9.9-.9s.9.4.9.9v27.24c0 .5-.4.9-.9.9Zm-66.01 0c-.5 0-.9-.4-.9-.9V85.2c0-.5.4-.9.9-.9s.9.4.9.9v26.32c0 .5-.4.9-.9.9Z"/>
  <path fill="#9FB7FF" fill-opacity=".25" d="M148.42 65.01v-4.13c0-.76-.62-1.38-1.38-1.38h-2.75c-.76 0-1.38.62-1.38 1.38v4.13"/>
  <path fill="#4E7FDB" d="M148.42 65.91c-.5 0-.9-.4-.9-.9v-4.12c0-.26-.21-.48-.47-.48h-2.75c-.26 0-.47.21-.47.48v4.12c0 .5-.4.9-.9.9s-.9-.4-.9-.9v-4.12c0-1.25 1.02-2.28 2.28-2.28h2.75c1.25 0 2.28 1.02 2.28 2.28v4.12c0 .5-.4.9-.9.9h-.02Zm0 46.51c-.5 0-.9-.4-.9-.9V84.28c0-.5.4-.9.9-.9s.9.4.9.9v27.24c0 .5-.4.9-.9.9Z"/>
  <path fill="#F9D8DB" d="M149.79 65.01H70.03c-1.52 0-2.75 1.23-2.75 2.75v13.75c0 1.52 1.23 2.75 2.75 2.75h79.76c1.52 0 2.75-1.23 2.75-2.75V67.76c0-1.52-1.23-2.75-2.75-2.75Z"/>
  <path fill="#F9D8DB" d="M149.79 85.17H70.03c-2.01 0-3.65-1.64-3.65-3.65V67.77c0-2.01 1.64-3.65 3.65-3.65h79.76c2.01 0 3.65 1.64 3.65 3.65v13.75c0 2.01-1.64 3.65-3.65 3.65ZM70.03 65.91c-1.02 0-1.85.83-1.85 1.85v13.75c0 1.02.83 1.85 1.85 1.85h79.76c1.02 0 1.85-.83 1.85-1.85V67.76c0-1.02-.83-1.85-1.85-1.85H70.03Z"/>
  <path fill="#E56470" d="m126.42 65.01-19.25 19.25h12.38l19.25-19.25h-12.38Z"/>
  <path fill="#E56470" d="M119.54 85.17h-12.38c-.36 0-.69-.22-.83-.56a.909.909 0 0 1 .19-.98l19.25-19.25a.9.9 0 0 1 .64-.26h12.38c.36 0 .69.22.83.56.14.34.06.72-.19.98l-19.25 19.25a.9.9 0 0 1-.64.26Zm-10.2-1.81h9.83l17.45-17.45h-9.83l-17.45 17.45ZM89.29 65.01 70.04 84.26c-2.34 0-2.81-1.87-2.75-2.81v-6.82L76.92 65H89.3l-.01.01Z"/>
  <path fill="#E56470" d="M70.03 85.17c-1.42 0-2.26-.58-2.71-1.06-.77-.82-.99-1.93-.94-2.7v-6.76a.9.9 0 0 1 .26-.64l9.63-9.63a.9.9 0 0 1 .64-.26h12.38c.36 0 .69.22.83.56.14.34.06.72-.19.98L70.68 84.91a.9.9 0 0 1-.64.26h-.01Zm-1.85-10.16v6.44c-.02.36.05.99.45 1.42.25.26.6.42 1.05.47l17.43-17.43h-9.83l-9.1 9.1Zm33.48-10L82.41 84.26h12.38l19.25-19.25h-12.38Z"/>
  <path fill="#E56470" d="M94.79 85.17H82.41c-.36 0-.69-.22-.83-.56a.909.909 0 0 1 .19-.98l19.25-19.25a.9.9 0 0 1 .64-.26h12.38c.36 0 .69.22.83.56.14.34.06.72-.19.98L95.43 84.91a.9.9 0 0 1-.64.26Zm-10.21-1.81h9.83l17.45-17.45h-9.83L84.58 83.36Zm66.23-17.99-18.9 18.9h12.38l8.25-8.25V68c-.03-.87-.43-2.62-1.73-2.62v-.01Z"/>
  <path fill="#E56470" d="M144.29 85.17h-12.38c-.36 0-.69-.22-.83-.56a.909.909 0 0 1 .19-.98l18.9-18.9a.9.9 0 0 1 .64-.26c1.71 0 2.57 1.81 2.63 3.49v8.06a.9.9 0 0 1-.26.64l-8.25 8.25a.9.9 0 0 1-.64.26Zm-10.2-1.81h9.83l7.72-7.72v-7.65c-.02-.46-.21-1.32-.56-1.62l-16.99 16.99Z"/>
  <path fill="#9FB7FF" fill-opacity=".25" d="M81.04 117.02H67.29v-2.75c0-1.52 1.23-2.75 2.75-2.75h8.25c1.52 0 2.75 1.23 2.75 2.75v2.75Z"/>
  <path fill="#4E7FDB" d="M81.04 117.92H67.29c-.5 0-.9-.4-.9-.9v-2.75c0-2.01 1.64-3.65 3.65-3.65h8.25c2.01 0 3.65 1.64 3.65 3.65v2.75c0 .5-.4.9-.9.9Zm-12.86-1.8h11.95v-1.85c0-1.02-.83-1.85-1.85-1.85h-8.25c-1.02 0-1.85.83-1.85 1.85v1.85Z"/>
  <path fill="#9FB7FF" fill-opacity=".25" d="M152.55 117.02H138.8v-2.75c0-1.52 1.23-2.75 2.75-2.75h8.25c1.52 0 2.75 1.23 2.75 2.75v2.75Z"/>
  <path fill="#4E7FDB" d="M152.55 117.92H138.8c-.5 0-.9-.4-.9-.9v-2.75c0-2.01 1.64-3.65 3.65-3.65h8.25c2.01 0 3.65 1.64 3.65 3.65v2.75c0 .5-.4.9-.9.9Zm-12.86-1.8h11.95v-1.85c0-1.02-.83-1.85-1.85-1.85h-8.25c-1.02 0-1.85.83-1.85 1.85v1.85Zm2.48 46.57H76.66c-.5 0-.9-.4-.9-.9s.4-.9.9-.9h65.51c.5 0 .9.4.9.9s-.4.9-.9.9Z"/>
  <path fill="#E56470" d="M170.23 142.28c16.02 0 29-12.98 29-29s-12.98-29-29-29-29 12.98-29 29 12.98 29 29 29Z"/>
  <path fill="#fff" d="M170.23 128.5c-8.39 0-15.22-6.83-15.22-15.22 0-4.16 1.67-7.93 4.38-10.68.02-.03.05-.06.08-.08l.08-.08c2.75-2.71 6.52-4.38 10.68-4.38 8.39 0 15.22 6.83 15.22 15.22 0 4.15-1.67 7.92-4.38 10.67-.03.03-.05.06-.08.09s-.06.06-.09.08a15.16 15.16 0 0 1-10.67 4.38Zm-9.85-23.35a12.699 12.699 0 0 0-2.93 8.13c0 7.05 5.73 12.78 12.78 12.78 3.08 0 5.92-1.1 8.13-2.93l-17.98-17.98Zm1.72-1.73 17.98 17.98c1.83-2.21 2.93-5.04 2.93-8.13 0-7.05-5.73-12.78-12.78-12.78-3.08 0-5.92 1.1-8.13 2.93Z"/>
</svg>
