<svg xmlns="http://www.w3.org/2000/svg" viewBox="0 0 292 244">
  <path fill="#4E7FDB" d="M191.395 207.34h-82.85c-9.08 0-16.47-7.39-16.47-16.47V85.51c0-9.08 7.39-16.47 16.47-16.47h51.2c4.11 0 8.04 1.52 11.08 4.28l31.66 28.82a16.53 16.53 0 0 1 5.38 12.02c.01.06.02.11.02.17v76.54c0 9.08-7.39 16.47-16.47 16.47h-.02Zm-82.85-136.5c-8.09 0-14.67 6.58-14.67 14.67v105.36c0 8.09 6.58 14.67 14.67 14.67h82.85c8.09 0 14.67-6.58 14.67-14.67v-76.39c-.01-.06-.02-.11-.02-.17 0-4.12-1.75-8.07-4.79-10.84l-31.66-28.82a14.653 14.653 0 0 0-9.87-3.82h-51.2l.02.01Z"/>
  <path fill="#7E90B0" d="M61.015 170.94c-.51 0-.92-.41-.92-.92v-1.77h-1.76c-.51 0-.92-.41-.92-.92s.41-.92.92-.92h1.76v-1.77c0-.51.41-.92.92-.92s.92.41.92.92v1.77h1.76c.51 0 .92.41.92.92s-.41.92-.92.92h-1.76v1.77c0 .51-.41.92-.92.92Z"/>
  <path fill="#75A4FE" d="M206.645 93.09c-.22 0-.43-.08-.61-.23l-31.66-28.82a14.653 14.653 0 0 0-9.87-3.82h-31.22c-.5 0-.9-.4-.9-.9s.4-.9.9-.9h31.22c4.11 0 8.04 1.52 11.08 4.28l31.66 28.82c.37.33.39.9.06 1.27a.88.88 0 0 1-.67.29l.01.01Z"/>
  <path fill="#5BC1A5" d="M208.045 43.11c-.37 0-.71-.23-.84-.58l-2.08-5.42c-.32-.83-.47-1.22-.67-1.5-.17-.24-.38-.45-.64-.64-.28-.19-.67-.35-1.49-.67l-5.41-2.08a.898.898 0 0 1 0-1.68l5.41-2.08c.82-.31 1.21-.47 1.5-.67.24-.17.46-.38.64-.64.19-.27.35-.67.67-1.49l2.08-5.42a.898.898 0 0 1 1.68 0l2.08 5.42c.32.82.47 1.22.67 1.5.19.26.4.47.64.64.28.19.67.35 1.49.67l5.41 2.08a.898.898 0 0 1 0 1.68l-5.41 2.08c-.84.33-1.23.48-1.51.67-.24.17-.45.38-.64.64-.19.28-.35.67-.67 1.49l-2.08 5.42c-.13.35-.47.58-.84.58h.01Zm-8.3-11.73 3.22 1.24c.96.37 1.43.56 1.88.88.43.31.79.67 1.08 1.08.33.48.54 1 .88 1.89l1.24 3.23 1.24-3.23c.34-.89.54-1.41.88-1.89.31-.43.67-.79 1.08-1.08.47-.33 1.01-.54 1.89-.88l3.23-1.24-3.22-1.24c-.88-.34-1.41-.54-1.88-.87-.4-.28-.74-.63-1.06-1.05-.35-.5-.56-1.03-.9-1.91l-1.24-3.23-1.24 3.23c-.34.89-.55 1.41-.87 1.89-.31.43-.67.79-1.08 1.08-.46.32-.92.51-1.89.88l-3.22 1.24-.02-.02Zm-4.4-7.63c-.5 0-.9-.4-.9-.9v-2.1h-2.1c-.5 0-.9-.4-.9-.9s.4-.9.9-.9h2.1v-2.12c0-.5.4-.9.9-.9s.9.4.9.9v2.12h2.1c.5 0 .9.4.9.9s-.4.9-.9.9h-2.1v2.1c0 .5-.4.9-.9.9Z"/>
  <path fill="#E56470" d="M248.935 128.45c-3.49 0-6.32-2.84-6.32-6.32 0-3.48 2.84-6.32 6.32-6.32 3.48 0 6.32 2.84 6.32 6.32 0 3.48-2.84 6.32-6.32 6.32Zm0-10.84c-2.49 0-4.52 2.03-4.52 4.52 0 2.49 2.03 4.52 4.52 4.52 2.49 0 4.52-2.03 4.52-4.52 0-2.49-2.03-4.52-4.52-4.52Z"/>
  <path fill="#7E90B0" d="M46.135 103.36c-.5 0-.9-.4-.9-.9v-5.12c0-.5.4-.9.9-.9s.9.4.9.9v5.12c0 .5-.4.9-.9.9Zm0 11.93c-.5 0-.9-.4-.9-.9v-5.11c0-.5.4-.9.9-.9s.9.4.9.9v5.11c0 .5-.4.9-.9.9Zm-3.39-8.52h-5.1c-.5 0-.9-.4-.9-.9s.4-.9.9-.9h5.1c.5 0 .9.4.9.9s-.4.9-.9.9Zm11.89 0h-5.1c-.5 0-.9-.4-.9-.9s.4-.9.9-.9h5.1c.5 0 .9.4.9.9s-.4.9-.9.9Z"/>
  <path fill="#9FB7FF" d="M139.525 156.28v18.2l9.96-7.82 10.94 7.82v-18.04"/>
  <path fill="#75A4FE" d="M139.525 175.38a.897.897 0 0 1-.9-.9v-18.2c0-.5.4-.9.9-.9s.9.4.9.9v16.34l8.5-6.68a.9.9 0 0 1 1.08-.02l9.52 6.81v-16.29c0-.5.4-.9.9-.9s.9.4.9.9v18.04c0 .34-.19.65-.49.8-.3.15-.66.13-.93-.07l-10.39-7.43-9.42 7.41c-.16.13-.36.19-.56.19h-.01Z"/>
  <path fill="#E56470" d="M46.585 228.07c-2.37 0-4.3-1.93-4.3-4.3s1.93-4.3 4.3-4.3 4.3 1.93 4.3 4.3-1.93 4.3-4.3 4.3Zm0-6.81a2.5 2.5 0 0 0 0 5 2.5 2.5 0 0 0 0-5Z"/>
  <path fill="#75A4FE" d="M155.595 157.85h-11.25c-4.77 0-9.22-2.57-11.62-6.71l-5.62-9.75c-2.4-4.14-2.4-9.28 0-13.42l5.61-9.74c2.4-4.14 6.85-6.71 11.62-6.71h11.25c4.77 0 9.22 2.57 11.62 6.71l5.62 9.75c2.4 4.14 2.4 9.28 0 13.42l-5.61 9.74c-2.4 4.14-6.85 6.71-11.62 6.71Zm-11.25-44.53c-4.13 0-7.99 2.23-10.06 5.81l-5.61 9.74a11.6 11.6 0 0 0 0 11.62l5.62 9.75c2.07 3.58 5.93 5.81 10.06 5.81h11.25c4.13 0 7.99-2.23 10.06-5.81l5.61-9.74a11.6 11.6 0 0 0 0-11.62l-5.62-9.75c-2.08-3.58-5.93-5.81-10.06-5.81h-11.25Z"/>
  <path fill="#7E90B0" d="M206.695 223.33c14.91 0 26.99-12.08 26.99-26.99 0-14.91-12.09-26.99-26.99-26.99-14.9 0-26.99 12.09-26.99 26.99 0 14.9 12.09 26.99 26.99 26.99Z"/>
  <path fill="#fff" d="M208.665 183.17c0-.9-.74-1.65-1.65-1.65-.91 0-1.65.73-1.65 1.65v12.12h-12.09c-.9 0-1.65.73-1.65 1.65 0 .92.73 1.65 1.65 1.65h12.09v12.12c0 .9.74 1.65 1.65 1.65.91 0 1.65-.73 1.65-1.65v-12.12h12.09c.9 0 1.65-.73 1.65-1.65 0-.92-.73-1.65-1.65-1.65h-12.09v-12.12Z"/>
</svg>
