<svg xmlns="http://www.w3.org/2000/svg" viewBox="0 0 220 184">
  <path fill="#7E90B0" d="M210.05 126.79c-.51 0-.92-.41-.92-.92v-1.77h-1.76c-.51 0-.92-.41-.92-.92s.41-.92.92-.92h1.76v-1.77c0-.51.41-.92.92-.92s.92.41.92.92v1.77h1.76c.51 0 .92.41.92.92s-.41.92-.92.92h-1.76v1.77c0 .51-.41.92-.92.92Z"/>
  <path fill="#80A3EB" fill-opacity=".25" d="M119.99 73.78c0-2.21 1.79-4 4-4h10c2.21 0 4 1.79 4 4v48c0 2.21-1.79 4-4 4h-10c-2.21 0-4-1.79-4-4v-48Z"/>
  <path fill="#75A4FE" d="M133.99 126.68h-10c-2.7 0-4.9-2.2-4.9-4.9v-48c0-2.7 2.2-4.9 4.9-4.9h10c2.7 0 4.9 2.2 4.9 4.9v48c0 2.7-2.2 4.9-4.9 4.9Zm-10-56c-1.71 0-3.1 1.39-3.1 3.1v48c0 1.71 1.39 3.1 3.1 3.1h10c1.71 0 3.1-1.39 3.1-3.1v-48c0-1.71-1.39-3.1-3.1-3.1h-10Z"/>
  <path fill="#4E7FDB" d="M122.18 154.89h-22.11c-26.61 0-39.97 0-48.44-8.47-8.06-8.07-8.45-20.92-8.46-44.84V85.93c0-26.64 0-40 8.46-48.48 8.46-8.48 21.82-8.47 48.44-8.47h22.11c24.42 0 37.87 0 46.33 8.47s8.46 21.84 8.46 48.48v15.64c-.02 23.92-.4 36.78-8.46 44.84-8.1 8.1-20.75 8.47-46.33 8.47v.01ZM100.07 30.78c-26.12 0-39.22 0-47.16 7.94-7.94 7.95-7.94 21.07-7.94 47.21v15.64c.02 24.08.36 35.99 7.94 43.57 7.94 7.94 21.05 7.94 47.16 7.94h22.11c23.94 0 37.13 0 45.06-7.94 7.57-7.58 7.92-19.49 7.94-43.57V85.93c0-26.14 0-39.26-7.94-47.21-7.93-7.93-21.12-7.94-45.06-7.94h-22.11Z"/>
  <path fill="#4E7FDB" d="M174.43 55.11H45.71c-.5 0-.9-.4-.9-.9s.4-.9.9-.9h128.71c.5 0 .9.4.9.9s-.4.9-.9.9h.01Z"/>
  <path fill="#7E90B0" fill-opacity=".6" d="m212.34 21.28-.37-.33a.54.54 0 0 0-.13.37l.5-.03v-.01Zm-2.5-4.32-.28.41c.11.08.25.1.38.08l-.1-.49Zm-.84-.49-.47.16c.04.12.13.23.24.28l.23-.44Zm-5.02 0 .21.45c.12-.06.22-.16.26-.29l-.47-.16Zm-.84.49-.1.49c.14.03.28 0 .39-.08l-.29-.41Zm-2.5 4.32.5.03c0-.13-.04-.27-.13-.37l-.37.33v.01Zm0 .99.37.33c.09-.1.13-.23.13-.37l-.5.03v.01Zm2.5 4.32.28-.41c-.11-.08-.25-.1-.38-.08l.1.49Zm.84.49.47-.16a.478.478 0 0 0-.24-.28l-.23.44Zm5.02 0-.21-.45c-.12.06-.22.16-.26.29l.47.16Zm.84-.49.1-.49c-.14-.03-.28 0-.39.08l.29.41Zm2.5-4.32-.5-.03c0 .13.04.27.13.37l.37-.33v-.01Zm-3.18-.49h-.5c0 1.2-.97 2.17-2.17 2.17v1c1.75 0 3.17-1.42 3.17-3.17h-.5Zm-2.67 2.66v-.5c-1.2 0-2.17-.97-2.17-2.17h-1c0 1.75 1.42 3.17 3.17 3.17v-.5Zm-2.67-2.66h.5c0-1.2.97-2.17 2.17-2.17v-1c-1.75 0-3.17 1.42-3.17 3.17h.5Zm2.67-2.67v.5c1.2 0 2.17.97 2.17 2.17h1c0-1.75-1.42-3.17-3.17-3.17v.5Zm5.87 2.67h.5c0-.18-.01-.37-.02-.52l-.5.03-.5.03c.01.16.02.32.02.46h.5Zm-.02-.5.37.33 1.38-1.55-.37-.33-.37-.33-1.38 1.55.37.33Zm1.38-1.54.37.34c.46-.51.52-1.25.19-1.82l-.43.25-.43.25c.12.22.1.48-.06.65l.37.34-.01-.01Zm.13-1.24.43-.25-.83-1.44-.43.25-.43.25.83 1.44.43-.25Zm-.84-1.44.43-.26c-.34-.57-1-.89-1.67-.75l.1.49.1.49c.24-.05.48.06.61.28l.43-.26v.01Zm-1.14-.51-.1-.49-2.03.42.1.49.1.49 2.03-.42-.1-.49Zm-2.03.41.28-.41c-.29-.2-.6-.37-.89-.52l-.23.44-.23.44c.28.15.55.3.79.46l.28-.41Zm-.84-.49.47-.16-.66-1.97-.47.16-.47.16.66 1.97.47-.16Zm-.66-1.97.47-.16c-.22-.64-.82-1.06-1.49-1.06v1c.25 0 .46.15.54.39l.47-.16.01-.01Zm-1.01-.72v-.5h-1.67v1h1.67v-.5Zm-1.67 0v-.5c-.68 0-1.27.44-1.49 1.06l.47.17.47.17c.08-.23.3-.39.54-.39v-.5l.01-.01Zm-1.01.72-.47-.16-.66 1.97.47.16.47.16.66-1.97-.47-.16Zm-.67 1.97-.21-.45c-.33.15-.63.33-.93.54l.29.41.29.41c.24-.17.49-.32.76-.44l-.21-.45.01-.02Zm-.84.49.1-.49-2.03-.42-.1.49-.1.49 2.03.42.1-.49Zm-2.03-.41.11-.49c-.67-.14-1.34.18-1.68.75l.43.26.43.26c.13-.22.38-.33.61-.28l.1-.49v-.01Zm-1.14.51-.43-.25-.83 1.44.43.25.43.25.83-1.44-.43-.25Zm-.83 1.44-.43-.26c-.35.59-.27 1.33.19 1.83l.37-.34.37-.34a.559.559 0 0 1-.07-.65l-.43-.26v.02Zm.13 1.24-.37.33 1.38 1.55.37-.33.37-.33-1.38-1.55-.37.33Zm1.37 1.54-.5-.03c-.01.16-.02.33-.02.52h1c0-.15.01-.3.02-.46l-.5-.03Zm-.02.5h-.5c0 .19.01.37.02.52l.5-.03.5-.03c-.01-.16-.02-.31-.02-.46h-.5Zm.02.49-.37-.33-1.38 1.55.37.33.37.33 1.38-1.55-.37-.33Zm-1.37 1.54-.37-.34c-.46.51-.52 1.25-.19 1.82l.43-.25.43-.25c-.12-.22-.1-.48.06-.65l-.37-.34.01.01Zm-.13 1.24-.43.25.83 1.44.43-.25.43-.25-.83-1.44-.43.25Zm.83 1.44-.43.26c.34.57 1 .89 1.67.75l-.1-.49-.1-.49a.57.57 0 0 1-.61-.28l-.43.26v-.01Zm1.14.51.1.49 2.03-.42-.1-.49-.1-.49-2.03.42.1.49Zm2.03-.41-.28.41c.29.2.6.37.89.52l.23-.44.23-.44c-.28-.15-.55-.3-.79-.46l-.28.41Zm.84.49-.47.16.66 1.97.47-.16.47-.16-.66-1.97-.47.16Zm.67 1.97-.47.16c.22.64.82 1.06 1.49 1.06v-1c-.25 0-.46-.15-.54-.39l-.47.16-.01.01Zm1.01.73v.5h1.67v-1h-1.67v.5Zm1.67 0v.5c.68 0 1.27-.44 1.49-1.06l-.47-.17-.47-.17a.58.58 0 0 1-.54.39v.5l-.01.01Zm1.01-.73.47.16.66-1.97-.47-.16-.47-.16-.66 1.97.47.16Zm.66-1.97.21.45c.33-.15.63-.33.93-.54l-.29-.41-.29-.41c-.24.17-.49.32-.76.44l.21.45-.01.02Zm.84-.49-.1.49 2.03.42.1-.49.1-.49-2.03-.42-.1.49Zm2.03.41-.11.49c.67.14 1.34-.18 1.68-.75l-.43-.26-.43-.26c-.13.22-.38.33-.61.28l-.1.49V27Zm1.14-.51.43.25.83-1.44-.43-.25-.43-.25-.83 1.44.43.25Zm.84-1.44.43.26c.35-.59.27-1.33-.19-1.83l-.37.34-.37.34c.16.18.19.44.07.65l.43.26v-.02Zm-.13-1.24.37-.33-1.38-1.55-.37.33-.37.33 1.38 1.55.37-.33Zm-1.38-1.54.5.03c.01-.16.02-.33.02-.52h-1c0 .15-.01.3-.02.46l.5.03Z"/>
  <path fill="#4E7FDB" d="M149.73 43.16a1.3 1.3 0 1 0 0-2.6 1.3 1.3 0 0 0 0 2.6Z"/>
  <path fill="#4E7FDB" d="M149.73 43.67c-.99 0-1.8-.81-1.8-1.8s.81-1.8 1.8-1.8 1.8.81 1.8 1.8-.81 1.8-1.8 1.8Zm0-2.61c-.44 0-.8.36-.8.8 0 .44.36.8.8.8.44 0 .8-.36.8-.8 0-.44-.36-.8-.8-.8Zm-10.09 2.1a1.3 1.3 0 1 0 0-2.6 1.3 1.3 0 0 0 0 2.6Z"/>
  <path fill="#4E7FDB" d="M139.64 43.67c-.99 0-1.8-.81-1.8-1.8s.81-1.8 1.8-1.8 1.8.81 1.8 1.8-.81 1.8-1.8 1.8Zm0-2.61c-.44 0-.8.36-.8.8 0 .44.36.8.8.8.44 0 .8-.36.8-.8 0-.44-.36-.8-.8-.8Z"/>
  <path fill="#7E90B0" d="M8.17 111.53c-.51 0-.92-.41-.92-.92v-3.17c0-.51.41-.92.92-.92s.92.41.92.92v3.17c0 .51-.41.92-.92.92Zm0 7.39c-.51 0-.92-.41-.92-.92v-3.17c0-.51.41-.92.92-.92s.92.41.92.92V118c0 .51-.41.92-.92.92Zm-2.1-5.28H2.92c-.51 0-.92-.41-.92-.92s.41-.92.92-.92h3.16c.51 0 .92.41.92.92s-.41.92-.92.92h-.01Zm7.37 0h-3.16c-.51 0-.92-.41-.92-.92s.41-.92.92-.92h3.16c.51 0 .92.41.92.92s-.41.92-.92.92Z"/>
  <path fill="#E56470" d="M192.92 64.82a4.28 4.28 0 0 1-4.27-4.27 4.28 4.28 0 0 1 4.27-4.27 4.28 4.28 0 0 1 4.27 4.27 4.28 4.28 0 0 1-4.27 4.27Zm0-6.71c-1.35 0-2.44 1.09-2.44 2.44 0 1.35 1.09 2.44 2.44 2.44 1.35 0 2.44-1.09 2.44-2.44 0-1.35-1.09-2.44-2.44-2.44ZM35.87 163.54a2.88 2.88 0 1 1 .001-5.761 2.88 2.88 0 0 1-.001 5.761Zm0-3.94a1.05 1.05 0 1 0 0 2.1 1.05 1.05 0 0 0 0-2.1Z"/>
  <path fill="#7E90B0" d="M161.99 168.78c14.91 0 27-12.09 27-27s-12.09-27-27-27-27 12.09-27 27 12.09 27 27 27Z"/>
  <path fill="#fff" d="M162.15 154.95c-.67 0-1.22-.55-1.22-1.22v-10.42h-10.38c-.67 0-1.22-.55-1.22-1.22 0-.67.55-1.22 1.22-1.22h10.38v-10.42c0-.67.55-1.22 1.22-1.22.67 0 1.22.55 1.22 1.22v10.42h10.38c.67 0 1.22.55 1.22 1.22 0 .67-.55 1.22-1.22 1.22h-10.38v10.42c0 .67-.55 1.22-1.22 1.22Z"/>
  <path fill="#75A4FE" d="M80.99 126.68h-10c-2.7 0-4.9-2.2-4.9-4.9v-12c0-2.7 2.2-4.9 4.9-4.9h10c2.7 0 4.9 2.2 4.9 4.9v12c0 2.7-2.2 4.9-4.9 4.9Zm-10-20c-1.71 0-3.1 1.39-3.1 3.1v12c0 1.71 1.39 3.1 3.1 3.1h10c1.71 0 3.1-1.39 3.1-3.1v-12c0-1.71-1.39-3.1-3.1-3.1h-10Zm36 20h-9c-2.7 0-4.9-2.2-4.9-4.9v-29c0-2.7 2.2-4.9 4.9-4.9h9c2.7 0 4.9 2.2 4.9 4.9v29c0 2.7-2.2 4.9-4.9 4.9Zm-9-37c-1.71 0-3.1 1.39-3.1 3.1v29c0 1.71 1.39 3.1 3.1 3.1h9c1.71 0 3.1-1.39 3.1-3.1v-29c0-1.71-1.39-3.1-3.1-3.1h-9Z"/>
  <path fill="#5BC1A5" d="M22.72 25.55c-.38 0-.72-.23-.85-.59l-1.29-3.36c-.19-.49-.28-.72-.37-.85-.08-.12-.19-.22-.31-.31-.13-.09-.35-.18-.84-.37l-3.35-1.29a.93.93 0 0 1-.59-.85c0-.37.23-.72.59-.85l3.35-1.29c.49-.19.71-.28.85-.37.12-.08.22-.19.31-.31.09-.13.19-.37.37-.85l1.29-3.37a.93.93 0 0 1 .85-.59c.37 0 .72.23.85.59l1.29 3.36c.18.48.28.72.37.85.09.12.19.23.31.31.13.09.35.18.84.37l3.35 1.29c.35.14.59.48.59.85s-.23.72-.59.85l-3.35 1.29c-.49.19-.71.28-.85.37-.12.08-.22.19-.31.31-.09.13-.18.36-.37.85l-1.29 3.37a.93.93 0 0 1-.85.59Zm-4.15-7.62 1.14.44c.58.22.92.35 1.25.59.29.21.54.46.74.74.23.33.37.68.58 1.25l.44 1.13.44-1.14c.22-.58.35-.92.58-1.25.2-.29.45-.54.74-.74.33-.23.68-.37 1.25-.59l1.14-.44-1.14-.44c-.58-.22-.92-.35-1.25-.59-.29-.21-.54-.46-.74-.74-.23-.33-.37-.68-.59-1.25l-.44-1.13-.44 1.14c-.22.58-.35.92-.59 1.25-.2.29-.45.54-.74.74-.33.23-.68.37-1.25.59l-1.14.44h.02Zm-3.72-4.37c-.51 0-.92-.41-.92-.92v-.95h-.94c-.51 0-.92-.41-.92-.92s.41-.92.92-.92h.94V8.9c0-.51.41-.92.92-.92s.92.41.92.92v.95h.95c.51 0 .92.41.92.92s-.41.92-.92.92h-.95v.95c0 .51-.41.92-.92.92Z"/>
</svg>
