<svg xmlns="http://www.w3.org/2000/svg" viewBox="0 0 220 184">
  <path fill="#9FB7FF" fill-opacity=".25" d="M99.41 54.592 73.503 80.5a6 6 0 0 0 0 8.485l25.909 25.909a6 6 0 0 0 8.485 0l25.908-25.909a5.998 5.998 0 0 0 0-8.485l-25.908-25.908a6 6 0 0 0-8.485 0Z"/>
  <path fill="#75A4FE" d="M138.27 134.6c-6.37 0-12.36-2.48-16.86-6.98l-12.26-12.26a.9.9 0 0 1 0-1.27.9.9 0 0 1 1.27 0l12.26 12.26c4.16 4.16 9.7 6.46 15.59 6.46 5.89 0 11.42-2.29 15.59-6.46 8.59-8.59 8.59-22.58 0-31.17l-12.37-12.37a.9.9 0 0 1 0-1.27.9.9 0 0 1 1.27 0l12.37 12.37c9.29 9.3 9.29 24.42 0 33.72-4.5 4.5-10.49 6.98-16.86 6.98v-.01ZM77.23 83.06c-.23 0-.46-.09-.64-.26L64.38 70.59c-4.5-4.5-6.98-10.49-6.98-16.86 0-6.37 2.48-12.36 6.98-16.86s10.49-6.98 16.86-6.98c6.37 0 12.36 2.48 16.86 6.98l12.32 12.32a.9.9 0 0 1 0 1.27.9.9 0 0 1-1.27 0L96.83 38.14c-8.59-8.59-22.58-8.6-31.17 0-8.59 8.59-8.59 22.58 0 31.17l12.21 12.21a.9.9 0 0 1 0 1.27c-.18.18-.41.26-.64.26v.01Z"/>
  <path fill="#4E7FDB" d="M81.25 134.59c-6.11 0-12.21-2.32-16.86-6.97-9.3-9.3-9.3-24.42 0-33.72l57.02-57.03c4.5-4.5 10.49-6.98 16.86-6.98 6.37 0 12.36 2.48 16.86 6.98s6.98 10.49 6.98 16.86c0 6.37-2.48 12.36-6.98 16.86l-57.02 57.02c-4.65 4.65-10.75 6.97-16.86 6.97v.01ZM65.66 95.17c-8.59 8.59-8.59 22.58 0 31.17 8.59 8.59 22.58 8.59 31.17 0l11.72-11.72-31.17-31.17-11.72 11.72Zm12.99-12.99 31.17 31.17 31.07-31.07-.01-.01-31.16-31.16-31.07 31.07ZM111 49.83l31.16 31.16.01.01 11.69-11.69c8.59-8.59 8.59-22.58 0-31.17-8.59-8.6-22.58-8.6-31.17 0L111 49.83Z"/>
  <path fill="#4E7FDB" d="M96.4 86.32a4 4 0 1 0 0-8 4 4 0 0 0 0 8Zm12.58 12.44a4 4 0 1 0 0-8 4 4 0 0 0 0 8Zm0-24.89a4 4 0 1 0 0-8 4 4 0 0 0 0 8Zm12.57 12.45a4 4 0 1 0 0-8 4 4 0 0 0 0 8Z"/>
  <path fill="#7E90B0" d="M166.04 134.74c13.251 0 24-10.748 24-24 0-13.251-10.749-24-24-24s-24 10.749-24 24c0 13.252 10.749 24 24 24Z"/>
  <path fill="#fff" d="M166.045 122.46c-.67 0-1.22-.55-1.22-1.22v-9.28h-9.24c-.67 0-1.22-.55-1.22-1.22 0-.67.55-1.22 1.22-1.22h9.24v-9.28c0-.67.55-1.22 1.22-1.22.67 0 1.22.55 1.22 1.22v9.28h9.23c.67 0 1.22.55 1.22 1.22 0 .67-.55 1.22-1.22 1.22h-9.23v9.28c0 .67-.55 1.22-1.22 1.22Z"/>
  <path fill="#7E90B0" d="M182.24 26.1c-.5 0-.92-.41-.92-.92v-3.26c0-.5.41-.92.92-.92s.92.41.92.92v3.27c0 .5-.41.92-.92.92v-.01Zm0 7.63c-.5 0-.92-.41-.92-.92v-3.27c0-.5.41-.92.92-.92s.92.41.92.92v3.27c0 .5-.41.92-.92.92Zm-2.16-5.45h-3.26c-.5 0-.92-.41-.92-.92s.41-.92.92-.92h3.26c.5 0 .92.41.92.92s-.41.92-.92.92Zm7.6 0h-3.26c-.5 0-.92-.41-.92-.92s.41-.92.92-.92h3.26c.5 0 .92.41.92.92s-.41.92-.92.92Zm-77.17 130.94c-.39 0-.7-.31-.7-.7v-2c0-.39.31-.7.7-.7.39 0 .7.31.7.7v2c0 .39-.31.7-.7.7Zm0 6.01c-.39 0-.7-.31-.7-.7v-3c0-.39.31-.7.7-.7.39 0 .7.31.7.7v3c0 .39-.31.7-.7.7Zm-2-4h-2c-.39 0-.7-.31-.7-.7 0-.39.31-.7.7-.7h2c.39 0 .7.31.7.7 0 .39-.31.7-.7.7Zm6 0h-2c-.39 0-.7-.31-.7-.7 0-.39.31-.7.7-.7h2c.39 0 .7.31.7.7 0 .39-.31.7-.7.7Z"/>
  <path fill="#E56470" d="M25.98 127.39a3.99 3.99 0 0 1-3.98-3.98 3.99 3.99 0 0 1 3.98-3.98 3.99 3.99 0 0 1 3.98 3.98 3.99 3.99 0 0 1-3.98 3.98Zm0-6.81c-1.56 0-2.83 1.27-2.83 2.83s1.27 2.83 2.83 2.83 2.83-1.27 2.83-2.83-1.27-2.83-2.83-2.83Z"/>
  <path fill="#7E90B0" d="M35.59 77.24c-.51 0-.92-.41-.92-.92v-1.77h-1.76c-.51 0-.92-.41-.92-.92s.41-.92.92-.92h1.76v-1.77c0-.51.41-.92.92-.92s.92.41.92.92v1.77h1.76c.51 0 .92.41.92.92s-.41.92-.92.92h-1.76v1.77c0 .51-.41.92-.92.92Z"/>
</svg>
