<svg xmlns="http://www.w3.org/2000/svg" viewBox="0 0 220 184">
  <path fill="#7E90B0" d="M210.05 126.92c-.51 0-.92-.41-.92-.92v-1.77h-1.76c-.51 0-.92-.41-.92-.92s.41-.92.92-.92h1.76v-1.77c0-.51.41-.92.92-.92s.92.41.92.92v1.77h1.76c.51 0 .92.41.92.92s-.41.92-.92.92h-1.76V126c0 .51-.41.92-.92.92Z"/>
  <path fill="#7E90B0" fill-opacity=".6" d="M213.36 26.18c.38-.65.29-1.46-.21-2.02l-1.3-1.46c0-.1.01-.19.01-.3 0-.1 0-.2-.01-.3l1.3-1.46c.51-.56.57-1.38.21-2.01l-.89-1.53c-.37-.63-1.1-.98-1.85-.82l-1.94.4c-.17-.1-.34-.2-.5-.29l-.63-1.88c-.24-.71-.91-1.18-1.65-1.18h-1.78c-.75 0-1.41.48-1.65 1.17l-.63 1.88c-.18.09-.36.19-.53.31l-1.92-.39c-.74-.15-1.48.2-1.85.82l-.88 1.53c-.38.65-.29 1.46.21 2.02l1.3 1.46c0 .1-.01.19-.01.3 0 .11 0 .2.01.3l-1.3 1.46c-.51.56-.57 1.38-.21 2.01l.89 1.53c.37.63 1.1.98 1.85.82l1.94-.4c.17.1.34.2.5.29l.63 1.88c.24.71.9 1.18 1.65 1.18h1.78c.75 0 1.41-.48 1.65-1.17l.63-1.88c.18-.09.36-.19.53-.31l1.92.39c.74.15 1.48-.2 1.85-.82l.88-1.53Zm-2.5 1.19-2.16-.44a.61.61 0 0 0-.47.1c-.25.18-.51.33-.8.46-.15.07-.26.2-.32.35l-.7 2.09a.56.56 0 0 1-.52.37h-1.78c-.23 0-.44-.15-.51-.37l-.7-2.09a.611.611 0 0 0-.29-.34c-.3-.15-.58-.31-.84-.48a.616.616 0 0 0-.46-.09l-2.16.44a.536.536 0 0 1-.58-.26l-.88-1.52a.51.51 0 0 1 .06-.61l1.47-1.65c.11-.12.16-.28.15-.44-.01-.17-.02-.32-.02-.48 0-.16.01-.31.02-.48a.593.593 0 0 0-.15-.44l-1.47-1.64a.499.499 0 0 1-.06-.61l.88-1.53c.12-.21.36-.31.58-.26l2.16.44c.16.03.33 0 .47-.1.25-.18.51-.33.8-.46.15-.07.26-.2.32-.35l.7-2.09a.56.56 0 0 1 .52-.37h1.78c.24 0 .44.15.51.37l.71 2.09c.05.15.15.27.29.34.3.15.58.31.84.49.13.09.3.12.46.09l2.16-.44c.23-.05.45.05.58.26l.88 1.52c.12.2.09.45-.06.61l-1.47 1.65c-.11.12-.16.28-.15.44.01.17.02.33.02.48 0 .16-.01.31-.02.48-.01.16.04.32.15.44l1.47 1.64c.16.17.18.42.07.61l-.88 1.53c-.12.21-.36.31-.58.26l-.02-.01Z"/>
  <path fill="#7E90B0" fill-opacity=".6" d="M204.99 18.97c-1.9 0-3.45 1.53-3.45 3.43 0 1.9 1.55 3.43 3.45 3.43 1.9 0 3.45-1.53 3.45-3.43 0-1.9-1.54-3.43-3.45-3.43Zm0 5.66c-1.24 0-2.25-1-2.25-2.23s1-2.23 2.25-2.23 2.25 1 2.25 2.23-1 2.23-2.25 2.23Z"/>
  <path fill="#7E90B0" d="M8.17 111.65c-.51 0-.92-.41-.92-.92v-3.17c0-.51.41-.92.92-.92s.92.41.92.92v3.17c0 .51-.41.92-.92.92Zm0 7.4c-.51 0-.92-.41-.92-.92v-3.17c0-.51.41-.92.92-.92s.92.41.92.92v3.17c0 .51-.41.92-.92.92Zm-2.1-5.29H2.92c-.51 0-.92-.41-.92-.92s.41-.92.92-.92h3.16c.51 0 .92.41.92.92s-.41.92-.92.92h-.01Zm7.37 0h-3.16c-.51 0-.92-.41-.92-.92s.41-.92.92-.92h3.16c.51 0 .92.41.92.92s-.41.92-.92.92Z"/>
  <path fill="#E56470" d="M192.92 64.95a4.28 4.28 0 0 1-4.27-4.27 4.28 4.28 0 0 1 4.27-4.27 4.28 4.28 0 0 1 4.27 4.27 4.28 4.28 0 0 1-4.27 4.27Zm0-6.71c-1.35 0-2.44 1.09-2.44 2.44 0 1.35 1.09 2.44 2.44 2.44 1.35 0 2.44-1.09 2.44-2.44 0-1.35-1.09-2.44-2.44-2.44ZM35.87 163.66a2.88 2.88 0 1 1 .001-5.761 2.88 2.88 0 0 1-.001 5.761Zm0-3.93a1.05 1.05 0 1 0 0 2.1 1.05 1.05 0 0 0 0-2.1Z"/>
  <path fill="#75A4FE" d="M167.04 164.81h-3.08c-.51 0-.92-.41-.92-.92s.41-.92.92-.92h3.08c.51 0 .92.41.92.92s-.41.92-.92.92Zm-8.11 0h-9.94c-.51 0-.92-.41-.92-.92s.41-.92.92-.92h9.94c.51 0 .92.41.92.92s-.41.92-.92.92Zm-39.48 0H82.38c-.51 0-.92-.41-.92-.92s.41-.92.92-.92h37.07c.51 0 .92.41.92.92s-.41.92-.92.92Zm-50.86 0h-5.71c-.51 0-.92-.41-.92-.92s.41-.92.92-.92h5.71c.51 0 .92.41.92.92s-.41.92-.92.92Zm105.32-41.22H46.35c-.5 0-.9-.4-.9-.9s.4-.9.9-.9H173.9c.5 0 .9.4.9.9s-.4.9-.9.9h.01Z"/>
  <path fill="#75A4FE" d="M123.99 136.8h-28c-23.11 0-34.72 0-43.08-5.86-3.1-2.17-5.78-4.85-7.96-7.96-5.86-8.37-5.86-19.97-5.86-43.08s0-34.71 5.86-43.08c2.17-3.1 4.85-5.78 7.96-7.96 3.3-2.31 7.25-3.79 12.44-4.65.49-.09.96.25 1.04.74a.91.91 0 0 1-.74 1.04c-4.91.81-8.63 2.19-11.7 4.35a30.446 30.446 0 0 0-7.51 7.51c-5.53 7.9-5.53 19.31-5.53 42.05s0 34.15 5.53 42.05c2.05 2.93 4.58 5.46 7.51 7.51 7.91 5.53 19.32 5.53 42.05 5.53h28c22.74 0 34.15 0 42.05-5.53 2.93-2.05 5.46-4.58 7.51-7.51 5.53-7.91 5.53-19.32 5.53-42.05 0-22.73 0-34.15-5.53-42.05a30.446 30.446 0 0 0-7.51-7.51c-3.3-2.31-7.21-3.7-12.68-4.5a.902.902 0 0 1-.76-1.02c.07-.49.52-.82 1.02-.76 5.77.85 9.91 2.33 13.45 4.81 3.11 2.17 5.78 4.85 7.96 7.96 5.86 8.37 5.86 19.97 5.86 43.08s0 34.71-5.86 43.08a32.193 32.193 0 0 1-7.96 7.96c-8.37 5.86-19.97 5.86-43.08 5.86l-.01-.01Z"/>
  <path fill="#75A4FE" d="M127.5 164.8c-.27 0-.54-.12-.72-.36l-2.21-2.93c-5.17-6.86-6.45-17.27-3.19-25.93.17-.46.69-.7 1.16-.52.46.17.7.69.52 1.16-3.05 8.1-1.87 17.83 2.94 24.21l2.21 2.93a.899.899 0 0 1-.72 1.44h.01Zm-35.01 0a.899.899 0 0 1-.72-1.44l2.21-2.93c4.81-6.38 5.99-16.11 2.94-24.21a.898.898 0 1 1 1.68-.64c3.26 8.65 1.98 19.07-3.19 25.93l-2.21 2.93c-.18.23-.45.36-.72.36h.01Z"/>
  <path fill="#75A4FE" d="M144.99 164.8h-70c-.5 0-.9-.4-.9-.9s.4-.9.9-.9h70c.5 0 .9.4.9.9s-.4.9-.9.9Z"/>
  <path fill="#6DB88F" d="M165.92 157.9c14.91 0 27-12.09 27-27s-12.09-27-27-27-27 12.09-27 27 12.09 27 27 27Z"/>
  <path fill="#fff" d="M175.058 123.115a1.217 1.217 0 0 1 1.724 0 1.217 1.217 0 0 1 0 1.724l-13.846 13.847a1.22 1.22 0 0 1-1.725 0l-6.153-6.154a1.219 1.219 0 1 1 1.724-1.725l5.291 5.29 12.985-12.982Z"/>
  <path fill="#5BC1A5" d="M16.02 24.8c-.37 0-.71-.23-.84-.58l-1.73-4.49c-.26-.67-.39-.99-.54-1.21-.13-.18-.29-.35-.49-.49s-.49-.26-1.2-.53l-4.49-1.72a.898.898 0 0 1 0-1.68l4.49-1.72c.67-.26.99-.39 1.21-.54.18-.13.35-.29.49-.49.15-.21.28-.53.53-1.2l1.73-4.49a.898.898 0 0 1 1.68 0l1.73 4.49c.26.67.39.99.54 1.21.15.19.31.36.49.49.21.15.53.28 1.21.53l4.49 1.72a.898.898 0 0 1 0 1.68l-4.49 1.72c-.67.26-1 .39-1.21.54-.18.13-.35.29-.49.49-.15.21-.28.53-.53 1.2l-1.73 4.49c-.13.35-.47.58-.84.58h-.01Zm-6.46-9.86 2.3.88c.72.27 1.19.46 1.6.74.38.27.69.58.93.93.28.41.46.85.75 1.6l.89 2.3.89-2.31c.29-.75.46-1.19.74-1.59.27-.38.58-.69.93-.93.4-.28.85-.45 1.59-.74l2.3-.88-2.3-.88c-.75-.29-1.19-.46-1.6-.74-.34-.24-.64-.54-.92-.91-.3-.44-.48-.88-.76-1.62l-.89-2.31-.89 2.31c-.29.74-.46 1.18-.74 1.59-.27.38-.58.69-.94.93-.41.28-.85.46-1.6.74l-2.3.88.02.01ZM5.48 8.78c-.5 0-.9-.4-.9-.9v-1.6H2.99c-.5 0-.9-.4-.9-.9s.4-.9.9-.9h1.59V2.9c0-.5.4-.9.9-.9s.9.4.9.9v1.58h1.59c.5 0 .9.4.9.9s-.4.9-.9.9H6.38v1.6c0 .5-.4.9-.9.9Z"/>
  <path fill="#4E7FDB" d="M110.13 81.85c-18.42 0-33.41-14.99-33.41-33.41 0-18.42 14.99-33.41 33.41-33.41 18.42 0 33.41 14.99 33.41 33.41 0 18.42-14.99 33.41-33.41 33.41Zm0-65.01c-17.43 0-31.6 14.18-31.6 31.6s14.18 31.6 31.6 31.6 31.6-14.18 31.6-31.6-14.18-31.6-31.6-31.6ZM97.3 66.68c-.19 0-.39-.06-.55-.19-1.81-1.4-3.39-3.07-4.7-4.96a.899.899 0 1 1 1.48-1.02c1.21 1.74 2.66 3.27 4.32 4.56.39.3.46.87.16 1.26-.18.23-.44.35-.71.35Zm12.83-6.5c-6.47 0-11.74-5.26-11.74-11.74s5.26-11.74 11.74-11.74 11.74 5.26 11.74 11.74-5.26 11.74-11.74 11.74Zm0-21.67c-5.48 0-9.93 4.46-9.93 9.93s4.46 9.93 9.93 9.93 9.93-4.46 9.93-9.93-4.46-9.93-9.93-9.93Zm17.34-1.54c-.29 0-.57-.14-.75-.4a20.52 20.52 0 0 0-4.45-4.75.903.903 0 0 1-.16-1.26c.3-.39.87-.47 1.26-.16 1.87 1.45 3.5 3.19 4.84 5.16a.9.9 0 0 1-.24 1.25c-.16.1-.33.16-.5.16Z"/>
</svg>
