<svg xmlns="http://www.w3.org/2000/svg" viewBox="0 0 220 184">
  <path fill="#7E90B0" d="M210.05 126.91c-.51 0-.92-.41-.92-.92v-1.77h-1.76c-.51 0-.92-.41-.92-.92s.41-.92.92-.92h1.76v-1.77c0-.51.41-.92.92-.92s.92.41.92.92v1.77h1.76c.51 0 .92.41.92.92s-.41.92-.92.92h-1.76v1.77c0 .51-.41.92-.92.92Z"/>
  <path fill="#5BC1A5" d="M18.69 29.19c-.37 0-.71-.23-.84-.58l-2.08-5.43c-.32-.83-.47-1.22-.67-1.51-.17-.24-.38-.45-.64-.64-.28-.19-.67-.35-1.49-.67l-5.41-2.08a.898.898 0 0 1 0-1.68l5.41-2.08c.83-.32 1.22-.47 1.5-.67.24-.17.46-.38.64-.64.19-.28.35-.67.67-1.49l2.08-5.43a.898.898 0 0 1 1.68 0l2.08 5.43c.32.83.47 1.22.67 1.5.19.26.4.47.64.64.28.19.67.35 1.49.67l5.41 2.08a.898.898 0 0 1 0 1.68l-5.41 2.08c-.84.33-1.23.48-1.5.67-.24.17-.46.39-.64.64-.2.28-.35.67-.67 1.5l-2.08 5.43c-.13.35-.47.58-.84.58Zm-8.31-11.74 3.23 1.24c.89.34 1.41.55 1.89.88.43.31.79.67 1.08 1.08.33.48.54 1.01.88 1.89l1.24 3.23 1.24-3.24c.34-.89.54-1.41.88-1.89.31-.43.67-.79 1.08-1.08.47-.33 1-.53 1.88-.88l3.23-1.24-3.23-1.24c-.89-.34-1.41-.55-1.89-.88-.39-.28-.74-.62-1.06-1.05-.35-.5-.56-1.03-.9-1.92l-1.24-3.23-1.24 3.23c-.34.89-.54 1.41-.87 1.89-.31.43-.67.79-1.08 1.08-.48.33-1 .54-1.89.88l-3.22 1.24-.01.01ZM5.99 9.82c-.5 0-.9-.4-.9-.9V6.8h-2.1c-.5 0-.9-.4-.9-.9s.4-.9.9-.9h2.1V2.9c0-.5.4-.9.9-.9s.9.4.9.9V5h2.1c.5 0 .9.4.9.9s-.4.9-.9.9h-2.1v2.12c0 .5-.4.9-.9.9Z"/>
  <path fill="#4E7FDB" d="M72.99 138.12h-8c-2.88 0-5.22-2.34-5.22-5.22v-8c0-2.88 2.34-5.22 5.22-5.22h8c2.88 0 5.22 2.34 5.22 5.22v8c0 2.88-2.34 5.22-5.22 5.22Zm-8-16c-1.53 0-2.78 1.25-2.78 2.78v8c0 1.53 1.25 2.78 2.78 2.78h8c1.53 0 2.78-1.25 2.78-2.78v-8c0-1.53-1.25-2.78-2.78-2.78h-8Zm8-12h-8c-2.88 0-5.22-2.34-5.22-5.22v-8c0-2.88 2.34-5.22 5.22-5.22h8c2.88 0 5.22 2.34 5.22 5.22v8c0 2.88-2.34 5.22-5.22 5.22Zm-8-16c-1.53 0-2.78 1.25-2.78 2.78v8c0 1.53 1.25 2.78 2.78 2.78h8c1.53 0 2.78-1.25 2.78-2.78v-8c0-1.53-1.25-2.78-2.78-2.78h-8Zm8-12h-8c-2.88 0-5.22-2.34-5.22-5.22v-8c0-2.88 2.34-5.22 5.22-5.22h8c2.88 0 5.22 2.34 5.22 5.22v8c0 2.88-2.34 5.22-5.22 5.22Zm-8-16c-1.53 0-2.78 1.25-2.78 2.78v8c0 1.53 1.25 2.78 2.78 2.78h8c1.53 0 2.78-1.25 2.78-2.78v-8c0-1.53-1.25-2.78-2.78-2.78h-8Z"/>
  <path fill="#75A4FE" d="M122.18 155.01h-22.11c-26.61 0-39.97 0-48.44-8.47-8.06-8.07-8.45-20.92-8.46-44.84V86.05c0-26.64 0-40.01 8.46-48.48 8.46-8.47 21.82-8.47 48.44-8.47h22.11c24.42 0 37.87 0 46.33 8.47s8.46 21.84 8.46 48.48v15.64c-.02 23.92-.4 36.78-8.46 44.84-8.46 8.46-21.91 8.47-46.33 8.47v.01ZM100.07 30.9c-26.12 0-39.22 0-47.16 7.94-7.94 7.95-7.94 21.07-7.94 47.21v15.64c.02 24.08.36 35.99 7.94 43.57 7.94 7.94 21.05 7.94 47.16 7.94h22.11c23.94 0 37.13 0 45.06-7.94 7.57-7.58 7.92-19.49 7.94-43.57V86.05c0-26.14 0-39.26-7.94-47.21-7.93-7.94-21.12-7.94-45.06-7.94h-22.11Z"/>
  <path fill="#75A4FE" d="M174.43 55.24H45.71c-.5 0-.9-.4-.9-.9s.4-.9.9-.9h128.71c.5 0 .9.4.9.9s-.4.9-.9.9h.01Z"/>
  <path fill="#4E7FDB" d="M153 80.8c-.5 0-.9-.4-.9-.9v-5.1H147c-.5 0-.9-.4-.9-.9s.4-.9.9-.9h5.1v-5.1c0-.5.4-.9.9-.9s.9.4.9.9V73h5.1c.5 0 .9.4.9.9s-.4.9-.9.9h-5.1v5.1c0 .5-.4.9-.9.9Zm0 27c-.5 0-.9-.4-.9-.9v-5.1H147c-.5 0-.9-.4-.9-.9s.4-.9.9-.9h5.1v-5.1c0-.5.4-.9.9-.9s.9.4.9.9v5.1h5.1c.5 0 .9.4.9.9s-.4.9-.9.9h-5.1v5.1c0 .5-.4.9-.9.9Z"/>
  <path fill="#75A4FE" d="M123.59 97.77H89.78c-.39 0-.78.42-.78 1 0 .5.31 1 .78 1h33.81c.39 0 .78-.42.78-1-.08-.58-.39-1-.78-1Zm-16 6.4H89.78c-.39 0-.78.42-.78 1 0 .5.31 1 .78 1h17.81c.39 0 .78-.42.78-1-.08-.58-.39-1-.78-1Zm16 21.73H89.78c-.39 0-.78.42-.78 1 0 .5.31 1 .78 1h33.81c.39 0 .78-.42.78-1-.08-.58-.39-1-.78-1Zm-16 6.4H89.78c-.39 0-.78.42-.78 1 0 .5.31 1 .78 1h17.81c.39 0 .78-.42.78-1-.08-.58-.39-1-.78-1Zm15.51-62.8H90.07c-.54 0-1.08.42-1.08 1 0 .5.43 1 1.08 1h33.03c.54 0 1.08-.42 1.08-1-.11-.58-.54-1-1.08-1Zm-16 6.4H90.07c-.54 0-1.08.42-1.08 1 0 .5.43 1 1.08 1h17.03c.54 0 1.08-.42 1.08-1-.11-.58-.54-1-1.08-1Z"/>
  <path fill="#4E7FDB" d="M149.73 43.29a1.3 1.3 0 1 0 0-2.6 1.3 1.3 0 0 0 0 2.6Z"/>
  <path fill="#4E7FDB" d="M149.73 43.79c-.99 0-1.8-.81-1.8-1.8s.81-1.8 1.8-1.8 1.8.81 1.8 1.8-.81 1.8-1.8 1.8Zm0-2.61c-.44 0-.8.36-.8.8 0 .44.36.8.8.8.44 0 .8-.36.8-.8 0-.44-.36-.8-.8-.8Zm-10.08 2.11a1.3 1.3 0 1 0 0-2.6 1.3 1.3 0 0 0 0 2.6Z"/>
  <path fill="#4E7FDB" d="M139.65 43.79c-.99 0-1.8-.81-1.8-1.8s.81-1.8 1.8-1.8 1.8.81 1.8 1.8-.81 1.8-1.8 1.8Zm0-2.61c-.44 0-.8.36-.8.8 0 .44.36.8.8.8.44 0 .8-.36.8-.8 0-.44-.36-.8-.8-.8Z"/>
  <path fill="#7E90B0" d="M8.17 111.65c-.51 0-.92-.41-.92-.92v-3.17c0-.51.41-.92.92-.92s.92.41.92.92v3.17c0 .51-.41.92-.92.92Zm0 7.39c-.51 0-.92-.41-.92-.92v-3.17c0-.51.41-.92.92-.92s.92.41.92.92v3.17c0 .51-.41.92-.92.92Zm-2.1-5.28H2.92c-.51 0-.92-.41-.92-.92s.41-.92.92-.92h3.16c.51 0 .92.41.92.92s-.41.92-.92.92h-.01Zm7.37 0h-3.16c-.51 0-.92-.41-.92-.92s.41-.92.92-.92h3.16c.51 0 .92.41.92.92s-.41.92-.92.92Z"/>
  <path fill="#E56470" d="M192.92 64.95a4.28 4.28 0 0 1-4.27-4.27 4.28 4.28 0 0 1 4.27-4.27 4.28 4.28 0 0 1 4.27 4.27 4.28 4.28 0 0 1-4.27 4.27Zm0-6.72c-1.35 0-2.44 1.09-2.44 2.44 0 1.35 1.09 2.44 2.44 2.44 1.35 0 2.44-1.09 2.44-2.44 0-1.35-1.09-2.44-2.44-2.44ZM35.87 163.66a2.88 2.88 0 1 1 .001-5.761 2.88 2.88 0 0 1-.001 5.761Zm0-3.93a1.05 1.05 0 1 0 0 2.1 1.05 1.05 0 0 0 0-2.1Z"/>
  <path fill="#7E90B0" d="M165.99 168.89c16.02 0 29-12.98 29-29s-12.98-29-29-29-29 12.98-29 29 12.98 29 29 29Z"/>
  <path fill="#fff" d="M166.45 153.12c-.67 0-1.22-.55-1.22-1.22v-11.28h-11.24c-.67 0-1.22-.55-1.22-1.22 0-.67.55-1.22 1.22-1.22h11.24V126.9c0-.67.55-1.22 1.22-1.22.67 0 1.22.55 1.22 1.22v11.28h11.24c.67 0 1.22.55 1.22 1.22 0 .67-.55 1.22-1.22 1.22h-11.24v11.28c0 .67-.55 1.22-1.22 1.22Z"/>
</svg>
