<svg xmlns="http://www.w3.org/2000/svg" viewBox="0 0 220 184">
  <path fill="#7E90B0" d="M210.05 126.79c-.51 0-.92-.41-.92-.92v-1.77h-1.76c-.51 0-.92-.41-.92-.92s.41-.92.92-.92h1.76v-1.77c0-.51.41-.92.92-.92s.92.41.92.92v1.77h1.76c.51 0 .92.41.92.92s-.41.92-.92.92h-1.76v1.77c0 .51-.41.92-.92.92Z"/>
  <path fill="#4E7FDB" d="M122.18 154.89h-22.11c-26.61 0-39.97 0-48.44-8.47-8.06-8.07-8.45-20.92-8.46-44.84V85.93c0-26.64 0-40 8.46-48.48 8.46-8.48 21.82-8.47 48.44-8.47h22.11c24.42 0 37.87 0 46.33 8.47 8.01 8.01 8.42 20.84 8.46 42.83 0 .5-.4.9-.9.9s-.9-.4-.9-.9c-.04-23.42-.81-34.42-7.93-41.56-7.93-7.93-21.12-7.94-45.06-7.94h-22.11c-26.12 0-39.22 0-47.16 7.94-7.94 7.95-7.94 21.07-7.94 47.21v15.64c.02 24.08.36 35.99 7.94 43.57 7.94 7.94 21.05 7.94 47.16 7.94h22.11c.5 0 .9.4.9.9s-.4.9-.9.9v.01Z"/>
  <path fill="#4E7FDB" d="M174.43 55.11H45.71c-.5 0-.9-.4-.9-.9s.4-.9.9-.9h128.71c.5 0 .9.4.9.9s-.4.9-.9.9h.01Z"/>
  <path fill="#7E90B0" fill-opacity=".6" d="m205.58 37.24-1.75-1.97c0-.16.02-.32.02-.49 0-.17-.01-.33-.02-.49l1.76-1.97c.57-.64.65-1.56.24-2.28l-1.14-1.98a1.956 1.956 0 0 0-2.1-.94l-2.6.53c-.27-.17-.55-.33-.83-.48l-.85-2.54a1.954 1.954 0 0 0-1.86-1.34h-2.29c-.85 0-1.59.55-1.86 1.33l-.84 2.53c-.29.15-.57.31-.85.49l-2.58-.53c-.83-.18-1.67.22-2.1.94l-1.14 1.98c-.43.73-.33 1.65.23 2.28l1.76 1.98c0 .16-.02.32-.02.49 0 .17.01.33.02.49l-1.75 1.97c-.57.64-.65 1.56-.24 2.28l1.14 1.98c.42.72 1.25 1.12 2.1.94l2.6-.53c.27.17.55.33.83.48l.85 2.54c.27.81 1.02 1.34 1.86 1.34h2.29c.85 0 1.59-.55 1.86-1.33l.84-2.53c.29-.15.57-.31.85-.49l2.58.53c.83.18 1.67-.22 2.1-.94l1.14-1.98c.43-.73.33-1.65-.23-2.28l-.02-.01Zm-.63 1.78L203.81 41a.98.98 0 0 1-1.03.47L200 40.9c-.14-.03-.28 0-.39.08-.34.24-.69.45-1.08.63-.12.06-.22.16-.26.29l-.91 2.71a.99.99 0 0 1-.92.66h-2.29c-.42 0-.78-.26-.92-.66l-.91-2.71a.53.53 0 0 0-.24-.29c-.39-.2-.76-.41-1.11-.64-.11-.08-.25-.1-.38-.08l-2.78.57c-.41.09-.82-.1-1.04-.47l-1.14-1.97a.964.964 0 0 1 .11-1.12l1.89-2.13c.09-.1.13-.23.12-.37-.01-.22-.03-.43-.03-.64 0-.21.01-.42.03-.64 0-.13-.04-.27-.12-.37l-1.89-2.13a.938.938 0 0 1-.12-1.11l1.14-1.98a.98.98 0 0 1 1.03-.47l2.78.57c.14.03.28 0 .39-.08.34-.24.69-.45 1.08-.63.12-.06.22-.16.26-.29l.91-2.71a.99.99 0 0 1 .92-.66h2.29c.42 0 .78.26.92.66l.91 2.71c.04.12.13.23.24.29.39.2.76.41 1.11.64.11.08.25.1.38.08l2.78-.57c.41-.09.82.1 1.03.47l1.14 1.97c.21.36.16.82-.11 1.12l-1.89 2.13a.54.54 0 0 0-.13.37 6.853 6.853 0 0 1 0 1.28c0 .13.04.27.13.37l1.89 2.13c.28.31.33.76.12 1.11h.01Z"/>
  <path fill="#7E90B0" fill-opacity=".6" d="M195.29 30.61c-2.3 0-4.16 1.87-4.16 4.17s1.86 4.17 4.16 4.17 4.16-1.87 4.16-4.17-1.86-4.17-4.16-4.17Zm0 7.33c-1.75 0-3.16-1.42-3.16-3.17s1.42-3.17 3.16-3.17c1.74 0 3.16 1.42 3.16 3.17s-1.42 3.17-3.16 3.17Z"/>
  <path fill="#4E7FDB" d="M149.73 43.16a1.3 1.3 0 1 0 0-2.6 1.3 1.3 0 0 0 0 2.6Z"/>
  <path fill="#4E7FDB" d="M149.73 43.67c-.99 0-1.8-.81-1.8-1.8s.81-1.8 1.8-1.8 1.8.81 1.8 1.8-.81 1.8-1.8 1.8Zm0-2.61c-.44 0-.8.36-.8.8 0 .44.36.8.8.8.44 0 .8-.36.8-.8 0-.44-.36-.8-.8-.8Zm-10.09 2.1a1.3 1.3 0 1 0 0-2.6 1.3 1.3 0 0 0 0 2.6Z"/>
  <path fill="#4E7FDB" d="M139.64 43.67c-.99 0-1.8-.81-1.8-1.8s.81-1.8 1.8-1.8 1.8.81 1.8 1.8-.81 1.8-1.8 1.8Zm0-2.61c-.44 0-.8.36-.8.8 0 .44.36.8.8.8.44 0 .8-.36.8-.8 0-.44-.36-.8-.8-.8Z"/>
  <path fill="#7E90B0" d="M8.17 111.53c-.51 0-.92-.41-.92-.92v-3.17c0-.51.41-.92.92-.92s.92.41.92.92v3.17c0 .51-.41.92-.92.92Zm0 7.39c-.51 0-.92-.41-.92-.92v-3.17c0-.51.41-.92.92-.92s.92.41.92.92V118c0 .51-.41.92-.92.92Zm-2.1-5.28H2.92c-.51 0-.92-.41-.92-.92s.41-.92.92-.92h3.16c.51 0 .92.41.92.92s-.41.92-.92.92h-.01Zm7.37 0h-3.16c-.51 0-.92-.41-.92-.92s.41-.92.92-.92h3.16c.51 0 .92.41.92.92s-.41.92-.92.92Z"/>
  <path fill="#E56470" d="M172.49 26.78c-1.93 0-3.5-1.57-3.5-3.5s1.57-3.5 3.5-3.5 3.5 1.57 3.5 3.5-1.57 3.5-3.5 3.5Zm0-5.17c-.92 0-1.67.75-1.67 1.67 0 .92.75 1.67 1.67 1.67.92 0 1.67-.75 1.67-1.67 0-.92-.75-1.67-1.67-1.67ZM35.87 163.54a2.88 2.88 0 1 1 .001-5.761 2.88 2.88 0 0 1-.001 5.761Zm0-3.93a1.05 1.05 0 1 0 0 2.1 1.05 1.05 0 0 0 0-2.1Z"/>
  <path fill="#75A4FE" d="M89.99 132.68h-16c-2.7 0-4.9-2.2-4.9-4.9v-16c0-2.7 2.2-4.9 4.9-4.9h16c2.7 0 4.9 2.2 4.9 4.9v16c0 2.7-2.2 4.9-4.9 4.9Zm-16-24c-1.71 0-3.1 1.39-3.1 3.1v16c0 1.71 1.39 3.1 3.1 3.1h16c1.71 0 3.1-1.39 3.1-3.1v-16c0-1.71-1.39-3.1-3.1-3.1h-16Z"/>
  <path fill="#80A3EB" fill-opacity=".25" d="M69.99 75.78c0-2.21 1.79-4 4-4h16c2.21 0 4 1.79 4 4v16c0 2.21-1.79 4-4 4h-16c-2.21 0-4-1.79-4-4v-16Z"/>
  <path fill="#75A4FE" d="M89.99 96.68h-16c-2.7 0-4.9-2.2-4.9-4.9v-16c0-2.7 2.2-4.9 4.9-4.9h16c2.7 0 4.9 2.2 4.9 4.9v16c0 2.7-2.2 4.9-4.9 4.9Zm-16-24c-1.71 0-3.1 1.39-3.1 3.1v16c0 1.71 1.39 3.1 3.1 3.1h16c1.71 0 3.1-1.39 3.1-3.1v-16c0-1.71-1.39-3.1-3.1-3.1h-16Z"/>
  <path fill="#80A3EB" fill-opacity=".25" d="M105.99 111.78c0-2.21 1.79-4 4-4h16c2.21 0 4 1.79 4 4v16c0 2.21-1.79 4-4 4h-16c-2.21 0-4-1.79-4-4v-16Z"/>
  <path fill="#75A4FE" d="M125.99 132.68h-16c-2.7 0-4.9-2.2-4.9-4.9v-16c0-2.7 2.2-4.9 4.9-4.9h16c2.7 0 4.9 2.2 4.9 4.9v16c0 2.7-2.2 4.9-4.9 4.9Zm-16-24c-1.71 0-3.1 1.39-3.1 3.1v16c0 1.71 1.39 3.1 3.1 3.1h16c1.71 0 3.1-1.39 3.1-3.1v-16c0-1.71-1.39-3.1-3.1-3.1h-16Z"/>
  <path fill="#E56470" d="M169.99 160.77c16.02 0 29-12.98 29-29s-12.98-29-29-29-29 12.98-29 29 12.98 29 29 29Z"/>
  <path fill="#fff" d="M169.49 148c-.19 0-.39-.02-.56-.05-.42-.08-.72-.25-1.1-.45-3.93-2.11-13.06-7.91-13.06-16.18v-6.58c0-1.49 0-2.3.3-3.11.26-.71.7-1.35 1.25-1.85.63-.57 1.38-.86 2.73-1.39l9.06-3.5c.4-.16.66-.25.96-.3.28-.04.56-.04.84 0 .31.05.56.14.94.29l9.08 3.51c1.36.53 2.11.81 2.74 1.39.55.5.98 1.14 1.25 1.85.3.8.3 1.62.3 3.11v6.58c0 8.27-9.13 14.07-13.06 16.18-.38.2-.68.37-1.1.45-.17.03-.37.05-.56.05h-.01Zm.01-31h-.07c-.04 0-.25.09-.43.16l-9.07 3.5c-1.09.42-1.68.65-1.98.92-.27.24-.47.55-.6.89-.15.39-.15 1.06-.15 2.26v6.58c0 7.15 9.01 12.55 11.78 14.03.26.14.36.19.42.2h.17c.05-.01.16-.06.41-.2 2.77-1.49 11.78-6.88 11.78-14.03v-6.58c0-1.2 0-1.87-.15-2.26-.13-.35-.33-.65-.6-.89-.3-.27-.9-.5-1.98-.92l-9.05-3.5c-.21-.08-.4-.15-.45-.16h-.06.03Z"/>
  <path fill="#fff" d="M174.99 138c-.31 0-.62-.12-.86-.36l-4.64-4.64-4.64 4.64c-.48.48-1.25.48-1.72 0s-.48-1.25 0-1.72l4.64-4.64-4.64-4.64c-.48-.48-.48-1.25 0-1.72s1.25-.48 1.72 0l4.64 4.64 4.64-4.64c.48-.48 1.25-.48 1.72 0s.48 1.25 0 1.72l-4.64 4.64 4.64 4.64c.48.48.48 1.25 0 1.72-.24.24-.55.36-.86.36Z"/>
  <path fill="#75A4FE" d="M125.99 96.68h-16c-2.7 0-4.9-2.2-4.9-4.9v-16c0-2.7 2.2-4.9 4.9-4.9h16c2.7 0 4.9 2.2 4.9 4.9v16c0 2.7-2.2 4.9-4.9 4.9Zm-16-24c-1.71 0-3.1 1.39-3.1 3.1v16c0 1.71 1.39 3.1 3.1 3.1h16c1.71 0 3.1-1.39 3.1-3.1v-16c0-1.71-1.39-3.1-3.1-3.1h-16Z"/>
  <path fill="#5BC1A5" d="M23.14 25.55c-.38 0-.72-.23-.85-.59L21 21.6c-.19-.49-.28-.72-.37-.85-.08-.12-.19-.22-.31-.31-.13-.09-.36-.18-.85-.37l-3.35-1.29a.93.93 0 0 1-.59-.85c0-.37.23-.72.59-.85l3.35-1.29c.46-.18.71-.28.84-.37.12-.09.22-.19.31-.31.09-.13.18-.36.37-.85l1.29-3.36a.93.93 0 0 1 .85-.59c.37 0 .72.23.85.59l1.29 3.36c.18.46.27.71.37.85.09.12.19.23.31.31.13.1.38.19.83.37l3.37 1.3c.35.14.59.47.59.85s-.23.72-.59.85l-3.35 1.29c-.49.19-.71.28-.84.37-.12.09-.23.19-.31.31-.1.13-.19.38-.37.84l-1.29 3.37a.93.93 0 0 1-.85.59v-.01Zm-4.15-7.62 1.14.44c.58.22.92.36 1.25.59.29.2.54.45.74.74.23.33.36.66.59 1.25l.44 1.14.44-1.14c.23-.6.36-.93.58-1.25.2-.29.45-.54.74-.74.32-.23.67-.37 1.25-.59l1.14-.44-1.14-.44c-.61-.23-.93-.36-1.25-.59-.29-.2-.54-.45-.74-.74-.23-.32-.35-.65-.58-1.24l-.44-1.15-.44 1.14c-.23.6-.36.93-.59 1.25-.2.29-.45.54-.74.74-.32.23-.64.35-1.23.58l-1.16.45Zm-3.72-4.37c-.51 0-.92-.41-.92-.92v-.95h-.94c-.51 0-.92-.41-.92-.92s.41-.92.92-.92h.94V8.9c0-.51.41-.92.92-.92s.92.41.92.92v.95h.95c.51 0 .92.41.92.92s-.41.92-.92.92h-.95v.95c0 .51-.41.92-.92.92Z"/>
</svg>
