<svg xmlns="http://www.w3.org/2000/svg" viewBox="0 0 220 184">
  <path fill="#7E90B0" d="M10.17 104.49c-.51 0-.92-.41-.92-.92v-3.17c0-.51.41-.92.92-.92s.92.41.92.92v3.17c0 .51-.41.92-.92.92Zm0 7.39c-.51 0-.92-.41-.92-.92v-3.17c0-.51.41-.92.92-.92s.92.41.92.92v3.17c0 .51-.41.92-.92.92Zm-2.1-5.28H4.92c-.51 0-.92-.41-.92-.92s.41-.92.92-.92h3.16c.51 0 .92.41.92.92s-.41.92-.92.92h-.01Zm7.37 0h-3.16c-.51 0-.92-.41-.92-.92s.41-.92.92-.92h3.16c.51 0 .92.41.92.92s-.41.92-.92.92Zm195.97-36.61c-.44 0-.8-.36-.8-.8v-2.48c0-.44.36-.8.8-.8.44 0 .8.36.8.8v2.48c0 .44-.36.8-.8.8Zm0 5.79c-.44 0-.8-.36-.8-.8V72.5c0-.44.36-.8.8-.8.44 0 .8.36.8.8v2.48c0 .44-.36.8-.8.8Zm-1.65-4.13h-2.48c-.44 0-.8-.36-.8-.8 0-.44.36-.8.8-.8h2.48c.44 0 .8.36.8.8 0 .44-.36.8-.8.8Zm5.78 0h-2.47c-.44 0-.8-.36-.8-.8 0-.44.36-.8.8-.8h2.47c.44 0 .8.36.8.8 0 .44-.36.8-.8.8Zm-38.83 73.41c-.51 0-.92-.41-.92-.92v-1.77h-1.76c-.51 0-.92-.41-.92-.92s.41-.92.92-.92h1.76v-1.77c0-.51.41-.92.92-.92s.92.41.92.92v1.77h1.76c.51 0 .92.41.92.92s-.41.92-.92.92h-1.76v1.77c0 .51-.41.92-.92.92Z"/>
  <path fill="#5BC1A5" d="M55.65 37.64c-.38 0-.72-.23-.85-.59l-1.29-3.36c-.18-.46-.27-.71-.37-.85-.08-.12-.19-.22-.31-.31-.14-.1-.39-.2-.85-.37l-3.35-1.29a.93.93 0 0 1-.59-.85c0-.37.23-.72.59-.85l3.35-1.29c.47-.18.71-.28.84-.37.12-.09.23-.19.31-.31.1-.13.19-.38.37-.84l1.29-3.37a.93.93 0 0 1 .85-.59c.37 0 .72.23.85.59l1.29 3.36c.18.46.27.71.37.85.09.12.19.23.31.31.13.1.38.19.82.36l3.38 1.3c.35.14.59.47.59.85s-.23.72-.59.85l-3.35 1.29c-.46.18-.71.27-.84.37-.12.09-.23.19-.31.31-.09.13-.19.38-.36.84l-1.29 3.37a.93.93 0 0 1-.85.59h-.01Zm-4.16-7.63 1.14.44c.6.23.93.36 1.25.59.28.2.53.45.74.74.23.32.36.65.58 1.24l.44 1.15.44-1.14c.23-.6.36-.93.58-1.25.21-.29.46-.54.74-.74.32-.23.65-.36 1.25-.59l1.14-.44-1.14-.44c-.61-.24-.93-.36-1.25-.59-.29-.2-.54-.45-.74-.74-.23-.32-.35-.65-.58-1.24l-.44-1.15-.44 1.14c-.23.6-.36.93-.59 1.25-.21.29-.46.54-.74.74-.31.23-.64.35-1.22.58l-1.17.45h.01Zm-3.71-4.36c-.51 0-.92-.41-.92-.92v-.95h-.95c-.51 0-.92-.41-.92-.92s.41-.92.92-.92h.95v-.95c0-.51.41-.92.92-.92s.92.41.92.92v.95h.94c.51 0 .92.41.92.92s-.41.92-.92.92h-.94v.95c0 .51-.41.92-.92.92Z"/>
  <path fill="#9FB7FF" fill-opacity=".2" d="M115.87 51.98c0-1.56 0-2.33.35-2.96.28-.52.82-1 1.37-1.24.66-.28 1.37-.21 2.78-.07a44.953 44.953 0 0 1 40.23 40.23c.14 1.41.21 2.11-.07 2.77-.23.55-.72 1.08-1.24 1.37-.63.35-1.41.35-2.96.35h-35.95c-1.57 0-2.36 0-2.96-.31-.53-.27-.96-.7-1.23-1.23-.31-.6-.31-1.39-.31-2.96V51.98h-.01Z"/>
  <path fill="#75A4FE" d="M156.31 93.32h-35.95c-1.71 0-2.58 0-3.37-.41-.7-.36-1.26-.92-1.62-1.62-.4-.79-.4-1.65-.4-3.37V51.97c0-1.65 0-2.56.46-3.4a3.85 3.85 0 0 1 1.8-1.63c.88-.37 1.71-.29 3.22-.14A45.908 45.908 0 0 1 148.28 60a45.922 45.922 0 0 1 13.19 27.83c.15 1.51.24 2.34-.14 3.22a3.85 3.85 0 0 1-1.63 1.8c-.83.46-1.74.46-3.4.46l.01.01Zm-37.62-44.83c-.32 0-.55.04-.75.12-.36.15-.74.5-.93.84-.23.43-.23 1.13-.23 2.53v35.95c0 1.38 0 2.14.21 2.55.18.36.47.65.83.83.41.21 1.17.21 2.55.21h35.95c1.4 0 2.1 0 2.53-.23.34-.19.69-.57.84-.93.18-.43.14-.99 0-2.33a44.103 44.103 0 0 0-12.68-26.74 44.158 44.158 0 0 0-26.74-12.68c-.72-.07-1.21-.12-1.58-.12Zm52.69 28.74c-.46 0-.85-.35-.89-.81-.12-1.17-.28-2.34-.49-3.49-.09-.49.24-.96.72-1.05.49-.08.96.24 1.05.72.22 1.2.39 2.42.51 3.63.05.49-.31.94-.81.99h-.09v.01Zm-1.29-7.07c-.4 0-.76-.27-.87-.67-.3-1.13-.65-2.26-1.04-3.37-.17-.47.08-.98.55-1.15.47-.17.98.08 1.15.55.41 1.15.77 2.33 1.09 3.51a.9.9 0 0 1-.87 1.13h-.01Zm-2.39-6.78c-.34 0-.67-.2-.82-.53-.48-1.07-1.01-2.13-1.57-3.16a.894.894 0 0 1 .36-1.22c.44-.24.98-.08 1.22.36.58 1.07 1.13 2.17 1.63 3.29a.905.905 0 0 1-.82 1.27v-.01Zm-3.46-6.31c-.29 0-.58-.14-.75-.41-.64-.98-1.33-1.95-2.05-2.87a.886.886 0 0 1 .16-1.26c.39-.31.96-.23 1.26.16.75.96 1.47 1.97 2.14 2.99a.904.904 0 0 1-.75 1.4l-.01-.01Zm-4.41-5.68c-.24 0-.49-.1-.66-.29-.44-.48-.89-.95-1.35-1.41-.37-.37-.75-.73-1.13-1.09a.91.91 0 0 1-.05-1.27.91.91 0 0 1 1.27-.05c.4.37.79.75 1.18 1.13.48.48.95.97 1.41 1.47.34.37.31.94-.06 1.27-.17.16-.39.24-.61.24Zm-5.27-4.9c-.2 0-.39-.06-.56-.2-.92-.73-1.88-1.43-2.85-2.08a.91.91 0 0 1-.25-1.25c.28-.41.84-.52 1.25-.25 1.01.68 2.01 1.4 2.97 2.16a.894.894 0 0 1-.56 1.6v.02Zm-5.97-4c-.15 0-.3-.04-.44-.11-1.02-.57-2.08-1.11-3.15-1.6a.896.896 0 0 1-.44-1.19c.21-.45.74-.65 1.19-.44 1.11.51 2.21 1.07 3.27 1.66a.895.895 0 0 1-.44 1.68h.01Zm-6.54-2.99c-.1 0-.21-.02-.31-.05-1.1-.4-2.23-.76-3.36-1.07a.904.904 0 0 1-.63-1.11c.13-.48.63-.76 1.11-.63 1.17.32 2.35.7 3.5 1.12a.898.898 0 0 1-.31 1.74Zm-6.94-1.92c-.06 0-.11 0-.17-.02-1.15-.22-2.33-.4-3.49-.52a.906.906 0 0 1-.8-.99c.05-.49.49-.86.99-.8 1.21.13 2.43.32 3.63.54.49.09.81.56.71 1.05-.08.43-.46.73-.88.73l.01.01Z"/>
  <path fill="#4E7FDB" d="M93.43 160.73c-2.99 0-5.99-.29-8.97-.89a45.664 45.664 0 0 1-23.47-12.54 45.664 45.664 0 0 1-12.54-23.47 45.723 45.723 0 0 1 2.61-26.48c3.48-8.4 9.32-15.52 16.88-20.57a45.98 45.98 0 0 1 20.89-7.5c1.51-.15 2.34-.24 3.21.13.73.31 1.42.94 1.8 1.63.46.83.46 1.74.46 3.4v35.95c0 1.38 0 2.14.21 2.55.18.35.48.65.83.83.41.21 1.17.21 2.55.21h35.95c1.65 0 2.56 0 3.4.46.7.38 1.32 1.07 1.63 1.8.37.87.29 1.7.14 3.2a45.976 45.976 0 0 1-7.5 20.9 45.698 45.698 0 0 1-20.57 16.88 45.703 45.703 0 0 1-17.51 3.49v.02Zm-2.84-89.77c-.37 0-.86.05-1.58.12-7.15.72-14.09 3.21-20.07 7.2-7.27 4.85-12.87 11.69-16.22 19.76a43.959 43.959 0 0 0-2.51 25.44c1.7 8.57 5.87 16.37 12.05 22.55a43.836 43.836 0 0 0 22.54 12.05c8.57 1.7 17.37.84 25.44-2.5A43.83 43.83 0 0 0 130 139.36a44.287 44.287 0 0 0 7.2-20.07c.13-1.34.18-1.9 0-2.33-.15-.36-.5-.74-.84-.93-.43-.23-1.12-.23-2.5-.23H97.88c-1.71 0-2.58 0-3.37-.41-.7-.36-1.26-.92-1.62-1.62-.4-.79-.4-1.66-.4-3.37V74.45c0-1.4 0-2.1-.23-2.53a2.1 2.1 0 0 0-.93-.84c-.2-.08-.43-.12-.75-.12h.01Z"/>
  <path fill="#E56470" d="M174.19 20.54a4.28 4.28 0 0 1-4.27-4.27 4.28 4.28 0 0 1 4.27-4.27 4.28 4.28 0 0 1 4.27 4.27 4.28 4.28 0 0 1-4.27 4.27Zm0-6.71c-1.35 0-2.44 1.09-2.44 2.44 0 1.35 1.09 2.44 2.44 2.44 1.35 0 2.44-1.09 2.44-2.44 0-1.35-1.09-2.44-2.44-2.44ZM23.7 162.09a2.88 2.88 0 1 1 .002-5.761 2.88 2.88 0 0 1-.002 5.761Zm0-3.93a1.05 1.05 0 1 0 0 2.1 1.05 1.05 0 0 0 0-2.1Z"/>
</svg>
