<svg xmlns="http://www.w3.org/2000/svg" viewBox="0 0 220 184">
  <path fill="#7E90B0" d="M210.05 126.775c-.51 0-.92-.41-.92-.92v-1.77h-1.76c-.51 0-.92-.41-.92-.92s.41-.92.92-.92h1.76v-1.77c0-.51.41-.92.92-.92s.92.41.92.92v1.77h1.76c.51 0 .92.41.92.92s-.41.92-.92.92h-1.76v1.77c0 .51-.41.92-.92.92Z"/>
  <path fill="#7E90B0" fill-opacity=".6" d="M204.99 18.825c-1.9 0-3.45 1.53-3.45 3.43 0 1.9 1.54 3.43 3.45 3.43 1.91 0 3.45-1.53 3.45-3.43 0-1.9-1.54-3.43-3.45-3.43Zm0 5.67c-1.24 0-2.25-1-2.25-2.23s1-2.23 2.25-2.23 2.25 1 2.25 2.23-1 2.23-2.25 2.23Z"/>
  <path fill="#7E90B0" fill-opacity=".6" d="M213.36 26.045c.38-.65.29-1.46-.21-2.02l-1.3-1.46c0-.1.01-.19.01-.3 0-.1 0-.2-.01-.3l1.3-1.46c.51-.56.57-1.38.21-2.01l-.89-1.53c-.37-.63-1.1-.98-1.85-.82l-1.94.4c-.17-.1-.34-.2-.5-.29l-.63-1.88c-.24-.71-.9-1.18-1.65-1.18h-1.78c-.75 0-1.41.48-1.65 1.17l-.63 1.88c-.18.09-.36.19-.53.31l-1.92-.39c-.74-.15-1.48.2-1.85.82l-.88 1.53c-.38.65-.29 1.46.21 2.02l1.3 1.46c0 .1-.01.19-.01.3 0 .11 0 .2.01.3l-1.3 1.46c-.51.56-.57 1.38-.21 2.01l.89 1.53c.37.63 1.1.98 1.85.82l1.94-.4c.17.1.34.2.5.29l.63 1.88c.24.71.91 1.18 1.65 1.18h1.78c.75 0 1.41-.48 1.65-1.17l.63-1.88c.18-.09.36-.19.53-.31l1.92.39c.74.15 1.48-.2 1.85-.82l.88-1.53Zm-2.5 1.18-2.16-.44a.61.61 0 0 0-.47.1c-.25.18-.51.33-.8.46-.15.07-.26.2-.32.35l-.7 2.09a.56.56 0 0 1-.52.37h-1.78c-.24 0-.44-.15-.51-.37l-.71-2.09a.575.575 0 0 0-.29-.34c-.3-.15-.58-.31-.84-.48a.616.616 0 0 0-.46-.09l-2.16.44a.536.536 0 0 1-.58-.26l-.88-1.52a.51.51 0 0 1 .06-.61l1.47-1.65c.11-.12.16-.28.15-.44-.01-.17-.02-.32-.02-.48 0-.16.01-.31.02-.48a.593.593 0 0 0-.15-.44l-1.47-1.64a.515.515 0 0 1-.07-.61l.88-1.53c.12-.21.36-.31.58-.26l2.16.44c.16.03.33 0 .47-.1.25-.18.51-.33.8-.46.15-.07.26-.2.32-.35l.7-2.09a.56.56 0 0 1 .52-.37h1.78c.24 0 .44.15.51.37l.7 2.09c.05.15.16.27.29.34.3.15.58.31.84.48.13.09.3.12.46.09l2.16-.44c.23-.05.45.05.58.26l.88 1.52c.12.2.09.45-.06.61l-1.47 1.65c-.11.12-.16.28-.15.44.01.17.02.33.02.48 0 .16 0 .31-.02.48-.01.16.04.32.15.44l1.47 1.64c.16.17.18.42.06.61l-.88 1.53c-.12.21-.36.31-.58.26h.02Z"/>
  <path fill="#7E90B0" d="M8.17 111.515c-.51 0-.92-.41-.92-.92v-3.17c0-.51.41-.92.92-.92s.92.41.92.92v3.17c0 .51-.41.92-.92.92Zm0 7.39c-.51 0-.92-.41-.92-.92v-3.17c0-.51.41-.92.92-.92s.92.41.92.92v3.17c0 .51-.41.92-.92.92Zm-2.1-5.28H2.92c-.51 0-.92-.41-.92-.92s.41-.92.92-.92h3.16c.51 0 .92.41.92.92s-.41.92-.92.92h-.01Zm7.37 0h-3.16c-.51 0-.92-.41-.92-.92s.41-.92.92-.92h3.16c.51 0 .92.41.92.92s-.41.92-.92.92Z"/>
  <path fill="#E56470" d="M192.92 64.815a4.28 4.28 0 0 1-4.27-4.27 4.28 4.28 0 0 1 4.27-4.27 4.28 4.28 0 0 1 4.27 4.27 4.28 4.28 0 0 1-4.27 4.27Zm0-6.72c-1.35 0-2.44 1.09-2.44 2.44 0 1.35 1.09 2.44 2.44 2.44 1.35 0 2.44-1.09 2.44-2.44 0-1.35-1.09-2.44-2.44-2.44ZM35.87 163.525a2.88 2.88 0 1 1 .001-5.761 2.88 2.88 0 0 1-.001 5.761Zm0-3.93a1.05 1.05 0 1 0 0 2.1 1.05 1.05 0 0 0 0-2.1Z"/>
  <path fill="#75A4FE" d="M167.04 164.675h-3.08c-.51 0-.92-.41-.92-.92s.41-.92.92-.92h3.08c.51 0 .92.41.92.92s-.41.92-.92.92Zm-8.11 0h-9.94c-.51 0-.92-.41-.92-.92s.41-.92.92-.92h9.94c.51 0 .92.41.92.92s-.41.92-.92.92Zm-39.48 0H82.38c-.51 0-.92-.41-.92-.92s.41-.92.92-.92h37.07c.51 0 .92.41.92.92s-.41.92-.92.92Zm-50.86 0h-5.71c-.51 0-.92-.41-.92-.92s.41-.92.92-.92h5.71c.51 0 .92.41.92.92s-.41.92-.92.92Zm105.32-41.22H46.35c-.5 0-.9-.4-.9-.9s.4-.9.9-.9h127.56c.5 0 .9.4.9.9s-.4.9-.9.9Z"/>
  <path fill="#75A4FE" d="M123.99 136.655h-28c-23.11 0-34.72 0-43.08-5.86-3.1-2.17-5.78-4.85-7.96-7.96-5.86-8.37-5.86-19.97-5.86-43.08s0-34.72 5.86-43.08c2.17-3.1 4.85-5.78 7.96-7.96.41-.29.97-.19 1.25.22.29.41.19.97-.22 1.25a30.446 30.446 0 0 0-7.51 7.51c-5.53 7.9-5.53 19.31-5.53 42.05s0 34.15 5.53 42.05c2.05 2.93 4.58 5.46 7.51 7.51 7.9 5.53 19.32 5.53 42.05 5.53h28c22.74 0 34.15 0 42.05-5.53 2.93-2.05 5.46-4.58 7.51-7.51 5.53-7.9 5.53-19.31 5.53-42.05s0-34.15-5.53-42.05a30.446 30.446 0 0 0-7.51-7.51.89.89 0 0 1-.22-1.25.89.89 0 0 1 1.25-.22c3.1 2.17 5.78 4.85 7.96 7.96 5.86 8.37 5.86 19.97 5.86 43.08s0 34.71-5.86 43.08a32.364 32.364 0 0 1-7.96 7.96c-8.37 5.86-19.97 5.86-43.08 5.86Z"/>
  <path fill="#75A4FE" d="M92.49 164.655a.899.899 0 0 1-.72-1.44l2.21-2.93c4.81-6.38 5.99-16.11 2.94-24.21-.18-.46.06-.98.52-1.16.46-.18.98.06 1.16.52 3.26 8.65 1.98 19.07-3.19 25.93l-2.21 2.93c-.18.24-.45.36-.72.36h.01Zm35.01 0c-.27 0-.54-.12-.72-.36l-2.21-2.93c-5.17-6.85-6.45-17.27-3.19-25.93a.898.898 0 1 1 1.68.64c-3.05 8.1-1.87 17.83 2.94 24.21l2.21 2.93a.899.899 0 0 1-.72 1.44h.01Z"/>
  <path fill="#75A4FE" d="M145 164.655H75c-.5 0-.9-.4-.9-.9s.4-.9.9-.9h70c.5 0 .9.4.9.9s-.4.9-.9.9Z"/>
  <path fill="#5BC1A5" d="M26.63 30.775c-.37 0-.71-.23-.84-.58l-1.23-3.18c-.18-.48-.27-.68-.35-.8-.07-.1-.17-.2-.29-.28-.12-.09-.35-.18-.8-.35l-3.18-1.22a.898.898 0 0 1 0-1.68l3.18-1.22c.46-.18.68-.26.81-.35.1-.07.2-.17.28-.28.08-.12.17-.31.35-.79l1.23-3.19a.898.898 0 0 1 1.68 0l1.23 3.18c.18.48.27.68.35.8.08.11.18.21.29.29.12.08.33.17.79.34l3.19 1.22a.898.898 0 0 1 0 1.68l-3.18 1.22c-.43.17-.67.26-.8.35-.1.07-.2.17-.29.29-.08.12-.16.31-.35.79l-1.23 3.19c-.13.35-.47.58-.84.58v-.01Zm-3.86-7.26 1 .38c.55.21.88.34 1.19.56.29.21.53.45.73.72.22.31.36.66.56 1.19l.38 1 .39-1c.2-.53.34-.87.56-1.19.21-.29.45-.53.73-.72.31-.21.64-.34 1.18-.56l1-.38-1-.38c-.53-.2-.87-.33-1.19-.55-.27-.19-.5-.42-.71-.7-.24-.34-.37-.68-.58-1.21l-.38-1-.39 1c-.2.53-.34.87-.56 1.19-.21.29-.45.53-.73.73-.32.22-.66.36-1.19.56l-.99.38v-.02Zm-3.62-4.1c-.5 0-.9-.4-.9-.9v-.87h-.87c-.5 0-.9-.4-.9-.9s.4-.9.9-.9h.87v-.86c0-.5.4-.9.9-.9s.9.4.9.9v.86h.87c.5 0 .9.4.9.9s-.4.9-.9.9h-.87v.87c0 .5-.4.9-.9.9Z"/>
  <path fill="#4E7FDB" d="m143.346 88.567-1.273 1.272 3.911 3.91 1.272-1.272-3.91-3.91Z"/>
  <path fill="#7E90B0" d="M146.51 96.275c-.9-.9-.9-2.37 0-3.27.9-.9 2.37-.9 3.27 0l4.76 4.76c.9.9.9 2.37 0 3.27-.9.9-2.37.9-3.27 0l-4.76-4.76Z"/>
  <path fill="#4E7FDB" d="M134.89 93.225c-6.53 0-11.85-5.31-11.85-11.85s5.31-11.85 11.85-11.85 11.85 5.31 11.85 11.85-5.31 11.85-11.85 11.85Zm0-21.89c-5.54 0-10.04 4.51-10.04 10.04 0 5.53 4.51 10.05 10.04 10.05 5.53 0 10.05-4.51 10.05-10.05 0-5.54-4.51-10.04-10.05-10.04Zm-48.06 21.42-.87-.04c-.11 0-.21-.03-.31-.07-.1-.02-.23-.05-.38-.08l-.31-.07c-2.39-.66-4.45-1.99-6.01-3.85-1.85-2.21-2.59-5.32-4.05-11.52l-8.85-37.54c-1.46-6.2-2.19-9.31-1.52-12.12.59-2.48 1.93-4.67 3.86-6.32 2.18-1.87 5.26-2.6 11.4-4.05l1-.24a.91.91 0 0 1 1.1.68c.11.49-.19.99-.68 1.1l-.99.23c-5.85 1.39-8.79 2.08-10.63 3.66-1.64 1.4-2.77 3.26-3.27 5.36-.57 2.38.13 5.35 1.52 11.26l8.85 37.55c1.39 5.92 2.09 8.89 3.67 10.76 1.32 1.58 3.07 2.7 5.05 3.25l.25.05c.66.14 1.41.3 1.29 1.15l-.11.84-.01.01Z"/>
  <path fill="#75A4FE" d="M113.67 94.555h-13.34c-7.14 0-10.73 0-13.59-1.45a13.34 13.34 0 0 1-5.87-5.83c-1.46-2.85-1.46-6.42-1.46-13.51v-43.06c0-7.1 0-10.66 1.46-13.51a13.34 13.34 0 0 1 5.87-5.83c2.87-1.45 6.45-1.45 13.59-1.45h26.68c7.14 0 10.73 0 13.59 1.45a13.34 13.34 0 0 1 5.87 5.83c1.46 2.85 1.46 6.42 1.46 13.51v32.38c0 .5-.41.92-.92.92s-.92-.41-.92-.92v-32.38c0-6.8 0-10.21-1.26-12.67a11.497 11.497 0 0 0-5.06-5.03c-2.48-1.25-5.92-1.25-12.77-1.25h-26.68c-6.85 0-10.29 0-12.77 1.25-2.2 1.11-3.95 2.85-5.06 5.03-1.26 2.46-1.26 5.87-1.26 12.67v43.06c0 6.8 0 10.21 1.26 12.67 1.12 2.18 2.87 3.92 5.06 5.03 2.48 1.25 5.92 1.25 12.77 1.25h13.34c.5 0 .92.41.92.92s-.41.92-.92.92h.01Z"/>
  <path fill="#75A4FE" d="M95.45 32.975c-.31 0-.62-.12-.86-.36l-2.29-2.29c-.48-.48-.48-1.25 0-1.72s1.25-.48 1.72 0l1.43 1.43 3.72-3.72c.48-.48 1.25-.48 1.72 0 .48.48.48 1.25 0 1.72l-4.58 4.58c-.24.24-.55.36-.86.36Zm0 12.89c-.31 0-.62-.12-.86-.36l-2.29-2.29c-.48-.48-.48-1.25 0-1.72s1.25-.48 1.72 0l1.43 1.43 3.72-3.72c.48-.48 1.25-.48 1.72 0 .48.48.48 1.25 0 1.72l-4.58 4.58c-.24.24-.55.36-.86.36Zm0 12.9c-.31 0-.62-.12-.86-.36l-2.29-2.29c-.48-.48-.48-1.25 0-1.72s1.25-.48 1.72 0l1.43 1.43 3.72-3.72c.48-.48 1.25-.48 1.72 0 .48.48.48 1.25 0 1.72l-4.58 4.58c-.24.24-.55.36-.86.36Zm0 12.89c-.31 0-.62-.12-.86-.36l-2.29-2.29c-.48-.48-.48-1.25 0-1.72s1.25-.48 1.72 0l1.43 1.43 3.72-3.72c.48-.48 1.25-.48 1.72 0 .48.48.48 1.25 0 1.72l-4.58 4.58c-.24.24-.55.36-.86.36Zm32.23-41.78h-19.87c-.55 0-1-.45-1-1s.45-1 1-1h19.87c.55 0 1 .45 1 1s-.45 1-1 1Zm0 12.74h-19.87c-.55 0-1-.45-1-1s.45-1 1-1h19.87c.55 0 1 .45 1 1s-.45 1-1 1Zm-2.73 12.96h-17.13c-.55 0-1-.45-1-1s.45-1 1-1h17.13c.55 0 1 .45 1 1s-.45 1-1 1Zm-9.47 13.59h-7.66c-.55 0-1-.45-1-1s.45-1 1-1h7.66c.55 0 1 .45 1 1s-.45 1-1 1Z"/>
</svg>
