<svg xmlns="http://www.w3.org/2000/svg" viewBox="0 0 220 184">
  <path fill="#7E90B0" d="M210.05 127.09c-.51 0-.92-.41-.92-.92v-1.77h-1.76c-.51 0-.92-.41-.92-.92s.41-.92.92-.92h1.76v-1.77c0-.51.41-.92.92-.92s.92.41.92.92v1.77h1.76c.51 0 .92.41.92.92s-.41.92-.92.92h-1.76v1.77c0 .51-.41.92-.92.92Z"/>
  <path fill="#E56470" d="M211.72 25.8c-.39 0-.7-.31-.7-.7v-.62c0-2.19 1.59-3.96 3.13-5.66.6-.67 1.17-1.3 1.63-1.94.48-.67.74-1.45.74-2.25 0-2.33-2.15-4.23-4.8-4.23s-4.8 1.9-4.8 4.23c0 .39-.31.7-.7.7-.39 0-.7-.31-.7-.7 0-3.1 2.78-5.63 6.2-5.63 3.42 0 6.2 2.53 6.2 5.63 0 1.1-.35 2.16-1 3.07-.5.7-1.13 1.39-1.73 2.06-1.36 1.51-2.77 3.07-2.77 4.73v.62c0 .39-.31.7-.7.7v-.01Zm-1.98 4.77c-.44 0-.81-.36-.81-.8 0-.44.35-.8.79-.8h.02c.44 0 .8.36.8.8 0 .44-.36.8-.8.8Z"/>
  <path fill="#7E90B0" fill-opacity=".6" d="m26.38 59.54-1.03-1.16v-.42l1.03-1.16c.45-.5.5-1.21.19-1.77l-.72-1.25a1.52 1.52 0 0 0-1.63-.73l-1.54.32c-.11-.07-.22-.14-.34-.2l-.5-1.5c-.21-.63-.79-1.04-1.45-1.04h-1.45c-.66 0-1.24.43-1.45 1.03l-.5 1.51c-.11.06-.23.13-.33.2l-1.54-.32c-.65-.14-1.3.18-1.63.73l-.72 1.26c-.34.57-.26 1.29.18 1.78l1.04 1.17v.42l-1.04 1.17c-.45.5-.5 1.22-.19 1.77l.72 1.25c.33.56.97.87 1.63.73l1.54-.32c.11.07.22.14.34.2l.5 1.5c.21.63.79 1.04 1.45 1.04h1.45c.66 0 1.24-.43 1.45-1.03l.5-1.51c.11-.06.23-.13.33-.2l1.54.32c.65.14 1.3-.18 1.63-.73l.72-1.25c.33-.57.26-1.29-.18-1.77v-.04Zm-.85 1.17-.72 1.25c-.08.13-.23.19-.35.17l-1.76-.36c-.16-.03-.34 0-.47.1-.2.14-.41.26-.64.37-.15.07-.26.2-.32.35l-.57 1.71a.34.34 0 0 1-.31.23h-1.45c-.14 0-.27-.09-.31-.23l-.57-1.71a.575.575 0 0 0-.29-.34c-.24-.13-.47-.25-.67-.39a.616.616 0 0 0-.46-.09l-1.76.36a.328.328 0 0 1-.35-.16l-.72-1.24a.347.347 0 0 1 .03-.38l1.2-1.35c.11-.12.16-.28.15-.44 0-.14-.02-.26-.02-.39s0-.25.02-.39a.593.593 0 0 0-.15-.44l-1.2-1.35c-.09-.11-.11-.26-.04-.37l.72-1.25c.08-.13.23-.19.35-.17l1.76.36c.16.03.34 0 .47-.1.2-.14.41-.26.64-.37.15-.07.26-.2.32-.35l.57-1.71a.34.34 0 0 1 .31-.23h1.45c.14 0 .27.09.31.23l.57 1.71c.05.15.15.27.29.34.24.13.47.25.67.39.13.09.3.12.46.09l1.76-.36c.13-.03.27.03.35.16l.72 1.24c.07.13.05.28-.03.38l-1.2 1.35c-.11.12-.16.28-.15.44 0 .14.02.27.02.39 0 .13 0 .25-.02.39-.01.16.04.32.15.44l1.2 1.35c.09.11.11.26.04.37Z"/>
  <path fill="#7E90B0" fill-opacity=".6" d="M19.65 55.24c-1.61 0-2.92 1.31-2.92 2.92 0 1.61 1.31 2.92 2.92 2.92 1.61 0 2.92-1.31 2.92-2.92 0-1.61-1.31-2.92-2.92-2.92Zm0 4.64a1.72 1.72 0 1 1 0-3.44 1.72 1.72 0 0 1 0 3.44Z"/>
  <path fill="#7E90B0" d="M8.17 111.83c-.51 0-.92-.41-.92-.92v-3.17c0-.51.41-.92.92-.92s.92.41.92.92v3.17c0 .51-.41.92-.92.92Zm0 7.39c-.51 0-.92-.41-.92-.92v-3.17c0-.51.41-.92.92-.92s.92.41.92.92v3.17c0 .51-.41.92-.92.92Zm-2.1-5.28H2.92c-.51 0-.92-.41-.92-.92s.41-.92.92-.92h3.16c.51 0 .92.41.92.92s-.41.92-.92.92h-.01Zm7.37 0h-3.16c-.51 0-.92-.41-.92-.92s.41-.92.92-.92h3.16c.51 0 .92.41.92.92s-.41.92-.92.92Z"/>
  <path fill="#E56470" d="M192.92 65.13a4.28 4.28 0 0 1-4.27-4.27 4.28 4.28 0 0 1 4.27-4.27 4.28 4.28 0 0 1 4.27 4.27 4.28 4.28 0 0 1-4.27 4.27Zm0-6.71c-1.35 0-2.44 1.09-2.44 2.44 0 1.35 1.09 2.44 2.44 2.44 1.35 0 2.44-1.09 2.44-2.44 0-1.35-1.09-2.44-2.44-2.44ZM35.87 163.84a2.88 2.88 0 1 1 .001-5.761 2.88 2.88 0 0 1-.001 5.761Zm0-3.93a1.05 1.05 0 1 0 0 2.1 1.05 1.05 0 0 0 0-2.1Z"/>
  <path fill="#75A4FE" d="M161.72 167.17h-10.51c-.51 0-.92.41-.92.92s.41.92.92.92h10.51c.51 0 .92-.41.92-.92s-.41-.92-.92-.92Zm-95.49 0H60.2c-.51 0-.92.41-.92.92s.41.92.92.92h6.03c.51 0 .92-.41.92-.92s-.41-.92-.92-.92Zm104.07 0h-3.25c-.51 0-.92.41-.92.92s.41.92.92.92h3.25c.51 0 .92-.41.92-.92s-.41-.92-.92-.92Zm8.41-133.41a34.03 34.03 0 0 0-8.4-8.4c-8.83-6.19-21.09-6.19-45.52-6.19h-29.6c-24.42 0-36.68 0-45.52 6.19a34.03 34.03 0 0 0-8.4 8.4c-6.18 8.83-6.18 21.09-6.18 45.52 0 24.43 0 36.68 6.18 45.52a34.03 34.03 0 0 0 8.4 8.4c8.83 6.18 21.09 6.18 45.52 6.18h1.23c2.96 8.46 1.66 18.45-3.31 25.06l-2.06 2.73H80.8s-.03 0-.05.01h-7.76c-.5 0-.9.4-.9.9s.4.9.9.9h7.72s.06.02.09.02h39.19s.06-.02.09-.02h26.91c.5 0 .9-.4.9-.9s-.4-.9-.9-.9h-18.05l-2.06-2.74c-4.98-6.61-6.28-16.6-3.31-25.06h1.23c24.42 0 36.68 0 45.52-6.18a34.03 34.03 0 0 0 8.4-8.4c6.19-8.83 6.19-21.09 6.19-45.52 0-24.43 0-36.68-6.19-45.52h-.01Zm-53.27 131.76 1.25 1.66h-6.64s-.03-.01-.05-.01H93.32l1.24-1.65c5.21-6.92 6.66-17.27 3.78-26.14h23.34c-2.89 8.88-1.43 19.22 3.78 26.14h-.02Zm43.84-33.8c-8.37 5.86-20.44 5.86-44.48 5.86H95.2c-24.05 0-36.12 0-44.48-5.86-2.53-1.77-4.76-3.9-6.69-6.3h131.94c-1.92 2.4-4.15 4.52-6.69 6.3Zm8.05-8.1H42.71s-.03 0-.05.01c-5.77-8.36-5.77-20.43-5.77-44.35s0-36.12 5.86-44.48c2.17-3.11 4.85-5.78 7.96-7.96 8.37-5.86 20.44-5.86 44.48-5.86h29.6c24.04 0 36.11 0 44.48 5.86 3.11 2.17 5.78 4.85 7.96 7.96 5.86 8.37 5.86 20.44 5.86 44.48 0 24.04 0 35.98-5.76 44.34Z"/>
  <path fill="#787A83" fill-opacity=".18" d="M141.99 76.09c0-16.56-13.43-29.99-29.99-29.99S82.01 59.53 82.01 76.09s13.43 29.99 29.99 29.99 29.99-13.43 29.99-29.99Z"/>
  <path fill="#4E7FDB" d="M102.99 81.98a.899.899 0 0 1-.72-1.44 9.572 9.572 0 0 1 7.72-3.86c3.07 0 5.88 1.41 7.72 3.86.3.4.22.96-.18 1.26-.4.3-.96.22-1.26-.18-1.5-2-3.79-3.14-6.28-3.14s-4.78 1.14-6.28 3.14c-.18.24-.45.36-.72.36Zm14-13.1h-.02c-.99 0-1.8-.81-1.8-1.8s.81-1.8 1.8-1.8 1.81.81 1.81 1.8-.8 1.8-1.79 1.8Zm-13.98 0h-.02c-.99 0-1.8-.81-1.8-1.8s.81-1.8 1.8-1.8 1.81.81 1.81 1.8-.8 1.8-1.79 1.8Zm30.619 27.565-1.273 1.272 9.002 9.002 1.272-1.273-9.001-9.001Z"/>
  <path fill="#7E90B0" d="M141.8 114.6a6.162 6.162 0 0 1 0-8.72 6.162 6.162 0 0 1 8.72 0l12.67 12.67a6.162 6.162 0 0 1 0 8.72 6.162 6.162 0 0 1-8.72 0L141.8 114.6Z"/>
  <path fill="#4E7FDB" d="M109.99 106.98c-18.14 0-32.9-14.76-32.9-32.9s14.76-32.9 32.9-32.9 32.9 14.76 32.9 32.9-14.76 32.9-32.9 32.9Zm0-64c-17.15 0-31.1 13.95-31.1 31.1 0 17.15 13.95 31.1 31.1 31.1 17.15 0 31.1-13.95 31.1-31.1 0-17.15-13.95-31.1-31.1-31.1Z"/>
</svg>
