<svg xmlns="http://www.w3.org/2000/svg" viewBox="0 0 220 184">
  <path fill="#7E90B0" d="M210.05 126.92c-.51 0-.92-.41-.92-.92v-1.77h-1.76c-.51 0-.92-.41-.92-.92s.41-.92.92-.92h1.76v-1.77c0-.51.41-.92.92-.92s.92.41.92.92v1.77h1.76c.51 0 .92.41.92.92s-.41.92-.92.92h-1.76V126c0 .51-.41.92-.92.92Z"/>
  <path fill="#7E90B0" fill-opacity=".6" d="m213.15 24.17-1.3-1.46c0-.1.01-.19.01-.3 0-.1 0-.2-.01-.3l1.3-1.46c.51-.56.57-1.38.21-2.01l-.89-1.53c-.37-.63-1.1-.99-1.85-.83l-1.94.4c-.17-.1-.34-.2-.5-.29l-.63-1.88c-.24-.71-.91-1.18-1.65-1.18h-1.78c-.75 0-1.41.48-1.65 1.17l-.63 1.88c-.18.09-.36.19-.53.31l-1.92-.39c-.74-.15-1.48.2-1.85.82l-.88 1.53c-.38.65-.29 1.46.21 2.02l1.3 1.46c0 .1-.01.19-.01.3 0 .11 0 .2.01.3l-1.3 1.46c-.51.56-.57 1.38-.21 2.01l.89 1.53c.37.63 1.1.99 1.85.83l1.94-.4c.17.1.34.2.5.29l.63 1.88c.24.71.91 1.18 1.65 1.18h1.78c.75 0 1.41-.48 1.65-1.17l.63-1.88c.18-.09.36-.19.53-.31l1.92.39c.74.15 1.48-.2 1.85-.82l.88-1.53c.38-.65.29-1.46-.21-2.02Zm-.83 1.4-.88 1.53c-.12.21-.36.31-.58.26l-2.16-.44a.61.61 0 0 0-.47.1c-.25.18-.51.33-.8.46-.15.07-.26.2-.32.35l-.7 2.09a.56.56 0 0 1-.52.37h-1.78c-.23 0-.44-.15-.51-.37l-.7-2.09a.611.611 0 0 0-.29-.34c-.3-.15-.58-.31-.84-.48a.616.616 0 0 0-.46-.09l-2.16.44a.536.536 0 0 1-.58-.26l-.88-1.52a.51.51 0 0 1 .06-.61l1.47-1.65c.11-.12.16-.28.15-.44-.01-.17-.02-.32-.02-.48 0-.16.01-.31.02-.48a.593.593 0 0 0-.15-.44l-1.47-1.64a.499.499 0 0 1-.06-.61l.88-1.53c.12-.21.36-.31.58-.26l2.16.44c.16.03.33 0 .47-.1.25-.18.51-.33.8-.46.15-.07.26-.2.32-.35l.7-2.09a.56.56 0 0 1 .52-.37h1.78c.23 0 .44.15.51.37l.7 2.09c.05.15.15.27.29.34.3.15.58.31.84.48.13.09.3.12.46.09l2.16-.44c.23-.05.45.05.58.26l.88 1.52c.12.2.09.45-.06.61l-1.47 1.65c-.11.12-.16.28-.15.44.01.17.02.33.02.48 0 .16-.01.31-.02.48-.01.16.04.32.15.44l1.47 1.64c.16.17.18.42.06.61Z"/>
  <path fill="#7E90B0" fill-opacity=".6" d="M204.99 18.97c-1.9 0-3.45 1.53-3.45 3.43 0 1.9 1.54 3.43 3.45 3.43 1.91 0 3.45-1.53 3.45-3.43 0-1.9-1.55-3.43-3.45-3.43Zm0 5.66c-1.24 0-2.25-1-2.25-2.23s1-2.23 2.25-2.23 2.25 1 2.25 2.23-1 2.23-2.25 2.23Z"/>
  <path fill="#7E90B0" d="M8.17 111.65c-.51 0-.92-.41-.92-.92v-3.17c0-.51.41-.92.92-.92s.92.41.92.92v3.17c0 .51-.41.92-.92.92Zm0 7.4c-.51 0-.92-.41-.92-.92v-3.17c0-.51.41-.92.92-.92s.92.41.92.92v3.17c0 .51-.41.92-.92.92Zm-2.1-5.29H2.92c-.51 0-.92-.41-.92-.92s.41-.92.92-.92h3.16c.51 0 .92.41.92.92s-.41.92-.92.92h-.01Zm7.37 0h-3.16c-.51 0-.92-.41-.92-.92s.41-.92.92-.92h3.16c.51 0 .92.41.92.92s-.41.92-.92.92Z"/>
  <path fill="#E56470" d="M192.92 64.95a4.28 4.28 0 0 1-4.27-4.27 4.28 4.28 0 0 1 4.27-4.27 4.28 4.28 0 0 1 4.27 4.27 4.28 4.28 0 0 1-4.27 4.27Zm0-6.71c-1.35 0-2.44 1.09-2.44 2.44 0 1.35 1.09 2.44 2.44 2.44 1.35 0 2.44-1.09 2.44-2.44 0-1.35-1.09-2.44-2.44-2.44ZM35.87 163.66a2.88 2.88 0 1 1 .001-5.761 2.88 2.88 0 0 1-.001 5.761Zm0-3.93a1.05 1.05 0 1 0 0 2.1 1.05 1.05 0 0 0 0-2.1Z"/>
  <path fill="#75A4FE" d="M167.04 164.81h-3.08c-.51 0-.92-.41-.92-.92s.41-.92.92-.92h3.08c.51 0 .92.41.92.92s-.41.92-.92.92Zm-8.11 0h-9.94c-.51 0-.92-.41-.92-.92s.41-.92.92-.92h9.94c.51 0 .92.41.92.92s-.41.92-.92.92Zm-39.48 0H82.38c-.51 0-.92-.41-.92-.92s.41-.92.92-.92h37.07c.51 0 .92.41.92.92s-.41.92-.92.92Zm-50.86 0h-5.71c-.51 0-.92-.41-.92-.92s.41-.92.92-.92h5.71c.51 0 .92.41.92.92s-.41.92-.92.92Zm105.32-41.22H46.35c-.5 0-.9-.4-.9-.9s.4-.9.9-.9h127.56c.5 0 .9.4.9.9s-.4.9-.9.9Z"/>
  <path fill="#4E7FDB" d="M94.47 106.11c-3.99 0-7.14 0-9.59-.2-2.56-.21-4.29-.63-5.8-1.39a14.565 14.565 0 0 1-6.38-6.4c-.77-1.51-1.18-3.25-1.39-5.82-.2-2.43-.2-5.45-.2-9.62V31.91c0-4.17 0-7.18.2-9.62.21-2.57.63-4.31 1.39-5.82 1.32-2.59 3.34-4.71 5.87-6.13l.49-.26c1.52-.78 3.25-1.19 5.82-1.41 2.44-.2 5.44-.2 9.59-.2h31.16c4.84 0 8.34 0 10.98.35l.37.05 11.93 15.61v.29c.07 1.92.08 4.16.08 7.13v63.5l-.02.1c-.01.07-.03.18-.06.32-.05.27-.14.66-.28 1.13-.37 1.25-.87 2.4-1.51 3.42-1.98 3.21-5.07 4.9-8.94 4.9h-.17c-3.63-.05-9.81.23-18.38.82H94.46l.01.02Zm0-95.83c-4.11 0-7.08 0-9.44.19-2.31.19-3.84.55-5.13 1.21l-.46.25c-2.2 1.24-3.98 3.09-5.13 5.36-.66 1.29-1.02 2.83-1.2 5.15-.19 2.36-.19 5.34-.19 9.47v50.77c0 4.13 0 7.11.19 9.47.19 2.32.55 3.86 1.2 5.15a12.76 12.76 0 0 0 5.6 5.61c1.28.66 2.82 1.01 5.13 1.2 2.38.2 5.5.2 9.44.2h25.11c8.55-.59 14.79-.87 18.46-.82h.15c3.26 0 5.75-1.36 7.41-4.04a12.66 12.66 0 0 0 1.31-2.98c.12-.41.2-.75.24-.98.02-.09.03-.16.04-.21V31.91c0-2.8 0-4.96-.06-6.79l-11.13-14.56c-2.49-.29-5.83-.29-10.38-.29H94.47v.01Z"/>
  <path fill="#80A3EB" fill-opacity=".25" d="M99.76 105.73h25.45l14.51-.74c8.17.11 9.28-8.89 9.28-8.89V34.97c0-2.66 0-5.84-.06-9.68l-10.1-11.05c-2.27-.36-5.25-.36-9.61-.36H99.76c-6.92 0-10.38 0-13.02 1.44-2.32 1.26-4.21 3.28-5.4 5.76-1.35 2.82-1.35 6.51-1.35 13.89v49.68c0 7.38 0 11.07 1.34 13.88 1.18 2.48 3.07 4.49 5.4 5.76 2.64 1.44 6.1 1.44 13.02 1.44h.01Z"/>
  <path fill="#9FB7FF" d="m136.34 10.9-.81 7.35a4.871 4.871 0 0 0 4.3 5.37l7.27.81"/>
  <path fill="#4E7FDB" d="M147.1 25.24h-.09l-7.27-.81c-3.11-.35-5.36-3.16-5.01-6.26l.81-7.35c.05-.45.45-.75.89-.72.45.05.77.45.72.89l-.81 7.35a4.047 4.047 0 0 0 3.58 4.47l7.27.81c.44.05.76.45.72.9-.05.41-.4.72-.8.72h-.01Z"/>
  <path fill="#75A4FE" d="M113.13 81.24H87.25c-.32 0-.63.45-.63 1.09 0 .54.25 1.09.63 1.09h25.88c.32 0 .63-.45.63-1.09-.06-.63-.31-1.09-.63-1.09Zm13.38-11.56H87.49c-.44 0-.88.45-.88 1.09 0 .54.35 1.09.88 1.09h39.02c.44 0 .88-.45.88-1.09-.09-.63-.44-1.09-.88-1.09Zm.08-11.56h-39.1c-.44 0-.87.45-.87 1.09 0 .54.35 1.09.87 1.09h39.01c.44 0 .87-.45.87-1.09.09-.54-.35-1.09-.79-1.09h.01ZM102.9 39.53a2.305 2.305 0 0 1-2-1.14l-.1-.17c-.23-.4-.46-.54-.6-.54-.18 0-.42.21-.61.54l-.09.16c-.32.54-.83.92-1.43 1.08-.59.15-1.21.06-1.73-.25l-1.44-.83a2.49 2.49 0 0 1-1.17-1.52c-.17-.65-.09-1.32.25-1.9.23-.4.24-.68.17-.8-.07-.12-.31-.25-.77-.25-1.38 0-2.5-1.12-2.5-2.51v-1.49a2.5 2.5 0 0 1 2.5-2.5c.46 0 .7-.13.77-.25.07-.12.07-.4-.17-.8a2.52 2.52 0 0 1-.25-1.9c.17-.65.59-1.19 1.17-1.52l1.46-.84c.51-.3 1.12-.39 1.72-.24.6.15 1.11.53 1.43 1.07l.1.17c.23.4.46.54.6.54.18 0 .42-.21.61-.55l.09-.16c.33-.55.83-.93 1.44-1.08.59-.15 1.21-.06 1.73.25l1.45.83c.58.33.99.87 1.17 1.52.18.65.09 1.32-.25 1.9-.23.4-.24.68-.17.8.07.12.31.25.77.25a2.5 2.5 0 0 1 2.5 2.5v1.49a2.51 2.51 0 0 1-2.5 2.51c-.46 0-.7.13-.77.25-.07.12-.07.4.17.8.69 1.2.27 2.74-.92 3.42l-1.46.84c-.34.21-.74.31-1.14.31l-.03.01Zm-2.7-3.66c.85 0 1.63.53 2.16 1.45l.09.16a.509.509 0 0 0 .68.18l1.47-.84a.71.71 0 0 0 .26-.96c-.53-.92-.59-1.86-.17-2.6.42-.73 1.27-1.16 2.33-1.16.39 0 .7-.32.7-.71V29.9c0-.39-.31-.7-.7-.7-1.06 0-1.9-.42-2.33-1.16-.42-.74-.36-1.68.17-2.6a.7.7 0 0 0-.25-.95l-1.46-.84a.505.505 0 0 0-.7.18l-.08.15c-.53.92-1.33 1.45-2.17 1.45-.85 0-1.63-.53-2.16-1.45l-.09-.16a.509.509 0 0 0-.68-.18l-1.47.84c-.16.09-.28.24-.33.43-.05.18-.03.37.07.53.53.92.59 1.87.17 2.6-.42.73-1.27 1.16-2.33 1.16-.39 0-.7.32-.7.7v1.49c0 .39.31.71.7.71 1.06 0 1.91.42 2.33 1.16.42.74.36 1.68-.17 2.6a.7.7 0 0 0 .25.95l1.46.84a.505.505 0 0 0 .7-.18l.09-.15c.53-.92 1.32-1.44 2.17-1.44l-.01-.01Z"/>
  <path fill="#75A4FE" d="M100.19 34.09c-1.89 0-3.43-1.54-3.43-3.43 0-1.89 1.54-3.44 3.43-3.44 1.89 0 3.43 1.54 3.43 3.44s-1.54 3.43-3.43 3.43Zm0-5.07a1.63 1.63 0 1 0 0 3.26 1.63 1.63 0 0 0 0-3.26Zm19.03 15.85c-.16 0-.32-.02-.47-.06-.5-.13-.93-.44-1.19-.89l-.08-.14c-.17-.3-.33-.38-.39-.38s-.22.08-.4.38l-.07.12c-.55.93-1.73 1.24-2.64.7l-1.14-.66c-.48-.27-.82-.72-.97-1.26-.14-.54-.07-1.1.2-1.58.18-.3.16-.48.13-.54-.03-.05-.18-.15-.52-.15-1.14 0-2.07-.93-2.07-2.08v-1.17c0-1.15.93-2.08 2.07-2.08.34 0 .49-.1.52-.15.03-.05.04-.23-.13-.53-.28-.48-.35-1.04-.2-1.58.15-.54.49-.98.97-1.26l1.15-.66c.43-.26.95-.33 1.45-.19.49.13.91.45 1.17.88l.08.14c.17.3.33.38.39.38s.22-.08.4-.38l.07-.13c.27-.45.69-.77 1.19-.9.5-.12 1-.05 1.44.21l1.14.65c.48.27.82.72.97 1.26.15.54.07 1.1-.2 1.58-.17.3-.16.48-.13.54.03.05.18.15.52.15 1.14 0 2.07.93 2.07 2.08v1.17c0 1.15-.93 2.08-2.07 2.08-.34 0-.49.1-.52.15-.03.05-.04.23.13.54.57 1 .23 2.27-.76 2.84l-1.15.66c-.29.17-.62.26-.95.26h-.01Zm-2.14-3.09c.71 0 1.36.44 1.79 1.19l.07.12c.05.09.14.13.19.14.05.01.13.02.21-.03l1.16-.67c.22-.12.29-.4.17-.62-.44-.75-.48-1.54-.13-2.15.35-.61 1.05-.96 1.92-.96.25 0 .45-.21.45-.46v-1.17c0-.25-.21-.46-.45-.46-.87 0-1.57-.35-1.92-.96-.35-.61-.31-1.4.13-2.16a.448.448 0 0 0-.17-.61l-1.15-.66a.322.322 0 0 0-.22-.04c-.05.01-.14.05-.19.15l-.07.12c-.44.75-1.09 1.19-1.8 1.19s-1.36-.44-1.79-1.19l-.07-.12c-.05-.09-.14-.12-.19-.14a.278.278 0 0 0-.21.03l-1.16.67c-.14.08-.19.21-.21.28-.03.12-.02.24.04.34.44.76.49 1.54.13 2.15-.35.61-1.05.96-1.93.96-.25 0-.45.21-.45.46v1.17c0 .25.21.46.45.46.87 0 1.57.35 1.93.96.35.61.3 1.4-.13 2.16-.06.1-.07.22-.04.34.02.07.07.19.21.27l1.15.66c.1.06.17.05.23.03.05-.01.13-.05.19-.15l.06-.11c.44-.76 1.1-1.2 1.8-1.2v.01Z"/>
  <path fill="#75A4FE" d="M117.08 40.57c-1.55 0-2.81-1.26-2.81-2.81s1.26-2.81 2.81-2.81 2.81 1.26 2.81 2.81-1.26 2.81-2.81 2.81Zm0-4c-.65 0-1.19.53-1.19 1.19 0 .66.53 1.19 1.19 1.19.66 0 1.19-.53 1.19-1.19 0-.66-.53-1.19-1.19-1.19Z"/>
  <path fill="#75A4FE" d="M123.99 136.8h-28c-23.11 0-34.72 0-43.08-5.86-3.1-2.17-5.78-4.85-7.96-7.96-5.86-8.37-5.86-19.97-5.86-43.08s0-34.71 5.86-43.08c2.17-3.1 4.85-5.78 7.96-7.96 3.3-2.31 7.25-3.79 12.44-4.65.49-.09.95.25 1.04.74a.91.91 0 0 1-.74 1.04c-4.91.81-8.63 2.2-11.7 4.35a30.446 30.446 0 0 0-7.51 7.51c-5.53 7.9-5.53 19.31-5.53 42.05s0 34.15 5.53 42.05c2.05 2.93 4.58 5.46 7.51 7.51 7.9 5.53 19.32 5.53 42.05 5.53h28c22.74 0 34.15 0 42.05-5.53 2.93-2.05 5.46-4.58 7.51-7.51 5.53-7.9 5.53-19.32 5.53-42.05 0-22.73 0-34.15-5.53-42.05a30.446 30.446 0 0 0-7.51-7.51c-3.3-2.31-7.21-3.7-12.68-4.5a.902.902 0 0 1-.76-1.02c.07-.49.52-.82 1.02-.76 5.77.85 9.91 2.33 13.45 4.81 3.1 2.17 5.78 4.85 7.96 7.96 5.86 8.37 5.86 19.97 5.86 43.08s0 34.72-5.86 43.08a32.193 32.193 0 0 1-7.96 7.96c-8.37 5.86-19.97 5.86-43.08 5.86l-.01-.01Z"/>
  <path fill="#75A4FE" d="M127.5 164.8c-.27 0-.54-.12-.72-.36l-2.21-2.93c-5.17-6.86-6.45-17.27-3.19-25.93.17-.46.69-.7 1.16-.52.46.17.7.69.52 1.16-3.05 8.1-1.87 17.83 2.94 24.21l2.21 2.93a.899.899 0 0 1-.72 1.44h.01Zm-35.01 0a.899.899 0 0 1-.72-1.44l2.21-2.93c4.81-6.38 5.99-16.11 2.94-24.21a.898.898 0 1 1 1.68-.64c3.26 8.65 1.98 19.07-3.19 25.93l-2.21 2.93c-.18.23-.45.36-.72.36h.01Z"/>
  <path fill="#75A4FE" d="M144.99 164.8h-70c-.5 0-.9-.4-.9-.9s.4-.9.9-.9h70c.5 0 .9.4.9.9s-.4.9-.9.9Z"/>
  <path fill="#5BC1A5" d="M16.02 24.8c-.37 0-.71-.23-.84-.58l-1.73-4.49c-.26-.67-.39-.99-.54-1.21-.13-.18-.29-.35-.49-.49s-.49-.26-1.2-.53l-4.49-1.72a.898.898 0 0 1 0-1.68l4.49-1.72c.67-.26.99-.39 1.21-.54.18-.13.35-.29.49-.49.15-.21.28-.53.53-1.2l1.73-4.49a.898.898 0 0 1 1.68 0l1.73 4.49c.26.67.39.99.54 1.21.15.2.31.36.49.49.21.15.53.28 1.21.53l4.49 1.72a.898.898 0 0 1 0 1.68l-4.49 1.72c-.67.26-1 .39-1.21.54-.18.13-.35.29-.49.49-.15.21-.28.53-.53 1.2l-1.73 4.49c-.13.35-.47.58-.84.58h-.01Zm-6.46-9.86 2.3.88c.72.27 1.19.46 1.6.74.38.27.69.58.93.93.28.41.46.85.75 1.6l.89 2.3.89-2.31c.29-.75.46-1.19.75-1.6.27-.37.58-.69.93-.93.4-.28.85-.45 1.59-.74l2.3-.88-2.3-.88c-.75-.29-1.19-.46-1.6-.74-.34-.24-.64-.54-.92-.91-.3-.43-.48-.87-.76-1.62l-.89-2.3-.89 2.31c-.29.75-.46 1.19-.74 1.59-.27.38-.58.69-.93.93-.41.28-.85.46-1.6.74l-2.3.88v.01ZM5.48 8.78c-.5 0-.9-.4-.9-.9v-1.6H2.99c-.5 0-.9-.4-.9-.9s.4-.9.9-.9h1.59V2.9c0-.5.4-.9.9-.9s.9.4.9.9v1.58h1.59c.5 0 .9.4.9.9s-.4.9-.9.9H6.38v1.6c0 .5-.4.9-.9.9Z"/>
</svg>
