<svg xmlns="http://www.w3.org/2000/svg" viewBox="0 0 293 244">
  <path fill="#4E7FDB" d="M174.521 190.472c-.009-.085-.02-.164-.028-.223l-.001-.007c-.009-.069-.016-.114-.019-.157l-1.793.163c.008.09.02.174.029.236v.007c.01.069.016.114.02.157l.001.012.002.012c.154 1.3.207 2.627.142 3.976-.634 13.018-11.709 23.057-24.727 22.424-10.453-.51-18.983-7.74-21.613-17.306l-1.735.477c2.83 10.294 12.008 18.078 23.26 18.626 14.011.682 25.931-10.122 26.613-24.133v-.001c.07-1.45.013-2.873-.151-4.263ZM141.329 56.5c-.077-.96-.406-2.39-.477-2.63a9.444 9.444 0 0 0-10.977-6.6c-5.108 1.055-8.392 6.05-7.337 11.16l.634 3.055-1.763.365-.633-3.056c-1.257-6.081 2.653-12.03 8.735-13.287 6.027-1.245 11.923 2.583 13.252 8.571.176.502.429 2.355.429 2.355"/>
  <path fill="#75A4FE" d="M179.146 71.04c9.683 10.471 14.055 23.865 15.791 30.9.871 3.532 1.422 6.875 1.914 10.21.122.825.24 1.649.358 2.474.362 2.52.726 5.059 1.207 7.724 1.272 7.045 3.357 14.934 8.331 25.248 5.194 10.77 12.981 18.254 19.209 22.938 3.982 2.995 2.602 9.295-2.297 10.301L99.225 206.493c-4.64.956-8.347-3.729-6.447-8.039 13.921-31.539 7.509-54.134 2.877-70.457a591.62 591.62 0 0 1-.817-2.899c-5.058-18.179-1.954-33.203 6.524-46.675 8.523-13.551 22.23-19.051 30.129-20.686l1.083-.224v.013c22.26-4.284 36.991 3.154 46.572 13.514Zm-47.95-11.398c-7.691 1.739-20.366 7.11-28.311 19.74-8.221 13.064-11.229 27.567-6.313 45.233.262.944.537 1.912.819 2.905 4.653 16.391 11.219 39.522-2.966 71.661-1.321 2.995 1.255 6.205 4.437 5.549l124.434-25.658c3.365-.691 4.334-5.027 1.578-7.099-6.377-4.796-14.392-12.488-19.749-23.595-5.054-10.48-7.184-18.528-8.481-25.71-.487-2.7-.857-5.284-1.22-7.812-.117-.819-.234-1.633-.354-2.443-.489-3.318-1.03-6.594-1.881-10.041-1.707-6.922-5.986-19.968-15.365-30.11-9.326-10.085-23.747-17.363-45.968-12.757l-.66.137Z"/>
  <path fill="#5BC1A5" d="M45.292 24.1a.9.9 0 0 1 .9.9v2.117h2.1a.9.9 0 1 1 0 1.8h-2.1v2.101a.9.9 0 1 1-1.8 0v-2.1H42.29a.9.9 0 0 1 0-1.8h2.1V25a.9.9 0 0 1 .9-.9Zm12.698 3.727a.9.9 0 0 1 .84.577l2.082 5.423c.344.9.485 1.227.664 1.489.197.26.403.473.644.646.262.181.588.322 1.497.67h.002l5.405 2.081a.9.9 0 0 1 0 1.68l-5.402 2.08h-.002c-.907.354-1.24.492-1.503.674a2.68 2.68 0 0 0-.635.636c-.182.262-.323.588-.67 1.496l-2.082 5.423a.9.9 0 0 1-1.68 0l-2.082-5.423c-.349-.912-.489-1.237-.672-1.5a2.685 2.685 0 0 0-.636-.634c-.262-.182-.588-.323-1.496-.67h-.002l-5.406-2.082a.9.9 0 0 1 0-1.68l5.406-2.081h.002c.912-.35 1.237-.49 1.5-.673.232-.163.45-.377.634-.635.182-.263.323-.588.67-1.497l2.082-5.423a.9.9 0 0 1 .84-.577Zm0 3.41-1.24 3.232-.001.001c-.329.86-.543 1.408-.876 1.886l-.006.01c-.298.417-.66.781-1.072 1.069l-.002.001c-.479.333-1.025.548-1.886.876h-.001l-3.222 1.241 3.222 1.24.001.001c.86.329 1.407.543 1.886.876l.009.007c.417.297.782.66 1.07 1.071v.002c.334.479.548 1.026.877 1.886l1.241 3.232 1.24-3.23s0-.001 0 0c.33-.861.544-1.41.877-1.888l.007-.01c.298-.416.66-.78 1.071-1.068l.002-.002c.466-.324 1.017-.538 1.811-.847l.071-.027.003-.001 3.224-1.242-3.222-1.24h-.001c-.86-.33-1.407-.544-1.886-.877l-.009-.006a4.806 4.806 0 0 1-1.07-1.074c-.334-.478-.548-1.025-.877-1.886l-1.241-3.232Z"/>
  <path fill="#E56470" d="M255.712 150.9a4.52 4.52 0 1 0 0 9.042 4.52 4.52 0 0 0 0-9.042Zm-6.321 4.521a6.321 6.321 0 1 1 12.642 0 6.321 6.321 0 0 1-12.642 0Z"/>
  <path fill="#7E90B0" d="M223.292 32.1a.9.9 0 0 1 .9.9v4.218a.9.9 0 0 1-1.8 0V33a.9.9 0 0 1 .9-.9Zm0 9.834a.9.9 0 0 1 .9.9v4.219a.9.9 0 0 1-1.8 0v-4.219a.9.9 0 0 1 .9-.9Zm-7.901-1.908a.9.9 0 0 1 .9-.9h4.205a.9.9 0 0 1 0 1.8h-4.205a.9.9 0 0 1-.9-.9Zm9.794 0a.9.9 0 0 1 .9-.9h4.206a.9.9 0 0 1 0 1.8h-4.206a.9.9 0 0 1-.9-.9Z"/>
  <path fill="#E56470" d="M66.188 196.296a2.504 2.504 0 1 0-.001 5.009 2.504 2.504 0 0 0 0-5.009Zm-4.305 2.504a4.305 4.305 0 1 1 8.609.001 4.305 4.305 0 0 1-8.61-.001Z"/>
  <path fill="#7E90B0" d="M201.285 130.986c14.908 0 26.993-12.085 26.993-26.993 0-14.908-12.085-26.993-26.993-26.993-14.909 0-26.994 12.085-26.994 26.993 0 14.908 12.085 26.993 26.994 26.993Z"/>
  <path fill="#fff" d="M203.276 89.823c0-.904-.742-1.646-1.646-1.646-.903 0-1.646.726-1.646 1.646v12.117h-12.085c-.903 0-1.646.726-1.646 1.646 0 .919.727 1.645 1.646 1.645h12.085v12.117c0 .904.743 1.646 1.646 1.646.904 0 1.646-.726 1.646-1.646v-12.117h12.085c.904 0 1.646-.726 1.646-1.645 0-.92-.726-1.646-1.646-1.646h-12.085V89.823Z"/>
</svg>
