<svg xmlns="http://www.w3.org/2000/svg" viewBox="0 0 221 184">
  <path fill="#7E90B0" d="M10.621 104.46c-.51 0-.92-.41-.92-.92v-3.17c0-.51.41-.92.92-.92s.92.41.92.92v3.17c0 .51-.41.92-.92.92Zm0 7.38c-.51 0-.92-.41-.92-.92v-3.17c0-.51.41-.92.92-.92s.92.41.92.92v3.17c0 .51-.41.92-.92.92Zm-2.1-5.27h-3.15c-.51 0-.92-.41-.92-.92s.41-.92.92-.92h3.16c.51 0 .92.41.92.92s-.41.92-.92.92h-.01Zm7.37 0h-3.16c-.51 0-.92-.41-.92-.92s.41-.92.92-.92h3.16c.51 0 .92.41.92.92s-.41.92-.92.92Zm195.97-36.61c-.44 0-.8-.36-.8-.8v-2.48c0-.44.36-.8.8-.8.44 0 .8.36.8.8v2.48c0 .44-.36.8-.8.8Zm0 5.79c-.44 0-.8-.36-.8-.8v-2.48c0-.44.36-.8.8-.8.44 0 .8.36.8.8v2.48c0 .44-.36.8-.8.8Zm-1.65-4.14h-2.47c-.44 0-.8-.36-.8-.8 0-.44.36-.8.8-.8h2.47c.44 0 .8.36.8.8 0 .44-.36.8-.8.8Zm5.78 0h-2.48c-.44 0-.8-.36-.8-.8 0-.44.36-.8.8-.8h2.48c.44 0 .8.36.8.8 0 .44-.36.8-.8.8Zm-8.83 84.41c-.51 0-.92-.41-.92-.92v-1.77h-1.76c-.51 0-.92-.41-.92-.92s.41-.92.92-.92h1.76v-1.77c0-.51.41-.92.92-.92s.92.41.92.92v1.77h1.76c.51 0 .92.41.92.92s-.41.92-.92.92h-1.76v1.77c0 .51-.41.92-.92.92Z"/>
  <path fill="#5BC1A5" d="M39.511 33.74c-.38 0-.72-.23-.85-.59l-1.29-3.36c-.19-.49-.28-.72-.37-.85-.09-.12-.19-.23-.31-.31-.13-.09-.35-.18-.85-.37l-3.35-1.29a.92.92 0 0 1-.59-.85c0-.38.23-.72.59-.85l3.35-1.29c.49-.19.71-.28.84-.37.12-.09.23-.19.31-.31.09-.13.18-.36.37-.85l1.29-3.36a.93.93 0 0 1 .85-.59c.37 0 .72.23.85.59l1.29 3.36c.19.49.28.72.37.85.08.12.19.22.31.31.13.09.36.18.85.37l3.36 1.29c.35.14.59.48.59.85s-.23.72-.59.85l-3.35 1.29c-.49.19-.72.28-.85.37-.12.08-.22.19-.31.31-.09.13-.18.36-.37.85l-1.29 3.37a.93.93 0 0 1-.85.59v-.01Zm-4.15-7.63 1.14.44c.6.23.93.36 1.25.59.29.21.54.46.74.74.23.32.36.65.59 1.25l.44 1.14.44-1.14c.22-.58.35-.92.59-1.25.2-.29.45-.54.74-.74.32-.23.65-.36 1.25-.59l1.14-.44-1.14-.44c-.58-.22-.92-.36-1.25-.59-.29-.2-.54-.45-.74-.74-.23-.33-.37-.68-.58-1.25l-.44-1.13-.44 1.14c-.23.6-.36.93-.59 1.25-.2.29-.45.54-.74.74-.32.23-.67.37-1.25.59l-1.14.44-.01-.01Zm-3.72-4.36c-.51 0-.92-.41-.92-.92v-.95h-.94c-.51 0-.92-.41-.92-.92s.41-.92.92-.92h.94v-.95c0-.51.41-.92.92-.92s.92.41.92.92v.95h.95c.51 0 .92.41.92.92s-.41.92-.92.92h-.95v.95c0 .51-.41.92-.92.92Z"/>
  <path fill="#E56470" d="M183.151 20.5c-2.07 0-3.75-1.68-3.75-3.75 0-2.07 1.68-3.75 3.75-3.75 2.07 0 3.75 1.68 3.75 3.75 0 2.07-1.68 3.75-3.75 3.75Zm0-5.67a1.92 1.92 0 1 0 .001 3.841 1.92 1.92 0 0 0-.001-3.841Zm-135 155.23a2.88 2.88 0 1 1 .002-5.761 2.88 2.88 0 0 1-.002 5.761Zm0-3.94a1.05 1.05 0 1 0 0 2.1 1.05 1.05 0 0 0 0-2.1Z"/>
  <path fill="#fff" d="M181.371 125.68c-.29 0-.59-.1-.82-.32l-5.5-5c-.5-.45-.54-1.22-.08-1.72.45-.5 1.22-.54 1.72-.08l5.5 5c.5.45.54 1.22.08 1.72-.24.27-.57.4-.9.4Z"/>
  <path fill="#75A4FE" d="M136.621 154.23h-52.99c-10.75 0-16.14 0-20.4-2.17a19.822 19.822 0 0 1-8.71-8.71c-2.17-4.26-2.17-9.66-2.17-20.4V69.96c0-10.75 0-16.14 2.17-20.4 1.92-3.77 4.93-6.78 8.71-8.71 4.26-2.17 9.66-2.17 20.4-2.17h52.99c10.74 0 16.14 0 20.4 2.17 3.77 1.92 6.79 4.93 8.71 8.71 2.17 4.26 2.17 9.66 2.17 20.4v52.99c0 10.75 0 16.14-2.17 20.4a19.822 19.822 0 0 1-8.71 8.71c-4.26 2.17-9.66 2.17-20.4 2.17Zm-82.27-37.85v6.57c0 10.43 0 15.66 1.95 19.49a17.85 17.85 0 0 0 7.83 7.83c3.83 1.95 9.07 1.95 19.49 1.95h52.99c10.42 0 15.66 0 19.49-1.95a17.8 17.8 0 0 0 7.83-7.83c1.95-3.83 1.95-9.07 1.95-19.49v-6.57H54.351Zm0-2h111.55V78.53H54.351v35.85Zm0-37.85h111.55v-6.57c0-10.43 0-15.66-1.95-19.49a17.85 17.85 0 0 0-7.83-7.83c-3.84-1.95-9.07-1.95-19.49-1.95h-52.99c-10.43 0-15.66 0-19.49 1.95a17.8 17.8 0 0 0-7.83 7.83c-1.95 3.83-1.95 9.07-1.95 19.49v6.57h-.02Z"/>
  <path fill="#7E90B0" d="M170.361 157.96c16.02 0 29-12.98 29-29s-12.98-29-29-29-29 12.98-29 29 12.98 29 29 29Z"/>
  <path fill="#fff" d="M170.371 143.6c-6.41 0-13.3-1.64-13.3-5.25v-18.79c0-3.61 6.9-5.25 13.3-5.25s13.3 1.64 13.3 5.25v18.79c0 3.6-6.89 5.25-13.3 5.25Zm-10.87-11.44v6.2c0 .84 3.7 2.81 10.86 2.81 7.16 0 10.86-1.97 10.86-2.81v-6.2c-2.58 1.39-6.82 2.04-10.86 2.04-4.04 0-8.29-.65-10.86-2.04Zm0-3.2c0 .84 3.7 2.81 10.86 2.81 7.16 0 10.86-1.97 10.86-2.81v-6.19c-2.58 1.39-6.82 2.04-10.86 2.04-4.04 0-8.29-.65-10.86-2.04v6.19Zm0-9.39c0 .81 3.81 2.81 10.86 2.81 7.05 0 10.86-1.99 10.86-2.81 0-.82-3.81-2.81-10.86-2.81-7.05 0-10.86 1.99-10.86 2.81Z"/>
  <path fill="#75A4FE" d="M129.081 154.23c-.55 0-1-.45-1-1V77.65c0-.55.45-1 1-1s1 .45 1 1v75.58c0 .55-.45 1-1 1Zm-37.92 0c-.55 0-1-.45-1-1V77.65c0-.55.45-1 1-1s1 .45 1 1v75.58c0 .55-.45 1-1 1Z"/>
  <path fill="#9FB7FF" fill-opacity=".25" d="M58.861 55.72c0-6.63 5.37-12 12-12h87.48c6.63 0 12 5.37 12 12v21.92H58.861V55.72Z"/>
</svg>
