<svg xmlns="http://www.w3.org/2000/svg" viewBox="0 0 220 184">
  <path fill="#7E90B0" d="M210.05 126.92c-.51 0-.92-.41-.92-.92v-1.77h-1.76c-.51 0-.92-.41-.92-.92s.41-.92.92-.92h1.76v-1.77c0-.51.41-.92.92-.92s.92.41.92.92v1.77h1.76c.51 0 .92.41.92.92s-.41.92-.92.92h-1.76V126c0 .51-.41.92-.92.92Z"/>
  <path fill="#7E90B0" fill-opacity=".6" d="M154.59 157.62a3.171 3.171 0 0 0 0 6.34 3.171 3.171 0 0 0 0-6.34Zm0 5.34c-1.2 0-2.17-.97-2.17-2.17s.97-2.17 2.17-2.17 2.17.97 2.17 2.17-.97 2.17-2.17 2.17Z"/>
  <path fill="#7E90B0" fill-opacity=".6" d="m162.19 162.49-1.24-1.4c0-.1.01-.2.01-.31 0-.11 0-.21-.01-.31l1.24-1.39c.46-.51.52-1.24.19-1.82l-.83-1.44c-.34-.57-1-.89-1.67-.75l-1.84.38c-.17-.11-.34-.21-.51-.3l-.6-1.8a1.57 1.57 0 0 0-1.49-1.07h-1.66c-.68 0-1.27.44-1.49 1.06l-.6 1.8c-.18.09-.35.19-.51.3l-1.84-.38c-.67-.14-1.33.18-1.67.75l-.83 1.45c-.34.58-.26 1.32.19 1.82l1.24 1.39c0 .1-.01.2-.01.31 0 .11 0 .21.01.31l-1.24 1.4c-.46.51-.51 1.24-.19 1.82l.83 1.44c.34.57.99.89 1.67.75l1.84-.38c.17.11.34.21.51.3l.6 1.8c.22.64.81 1.07 1.49 1.07h1.66c.68 0 1.27-.44 1.49-1.06l.6-1.8c.18-.09.35-.19.51-.3l1.84.38c.67.14 1.33-.18 1.67-.75l.83-1.44c.34-.58.26-1.32-.19-1.82v-.01Zm-.68 1.32-.83 1.44c-.13.22-.38.33-.61.28l-2.03-.42c-.14-.03-.28 0-.39.08-.24.17-.49.32-.76.44-.12.06-.22.16-.26.3l-.66 1.97a.58.58 0 0 1-.54.39h-1.66c-.25 0-.46-.15-.54-.39l-.66-1.97a.53.53 0 0 0-.24-.29c-.28-.15-.55-.29-.79-.46a.563.563 0 0 0-.38-.08l-2.03.42a.57.57 0 0 1-.61-.28l-.83-1.43a.57.57 0 0 1 .06-.65l1.38-1.55c.09-.1.13-.23.12-.36-.01-.16-.02-.31-.02-.46 0-.15.01-.29.02-.46 0-.13-.04-.27-.12-.37l-1.38-1.55a.56.56 0 0 1-.07-.65l.83-1.44c.13-.22.38-.33.61-.28l2.03.42c.14.03.28 0 .39-.08.24-.17.49-.32.76-.44.12-.06.22-.16.26-.29l.66-1.97c.08-.23.3-.39.54-.39h1.66c.25 0 .46.15.54.39l.66 1.97c.04.12.13.23.24.29.28.15.55.29.79.46.11.08.25.1.38.08l2.03-.42c.24-.05.48.06.61.28l.83 1.43c.12.22.09.48-.06.65l-1.38 1.55a.54.54 0 0 0-.13.37c.01.16.02.32.02.46 0 .15 0 .3-.02.46 0 .13.04.26.13.36l1.38 1.55c.16.18.19.45.07.65v-.01Z"/>
  <path fill="#7E90B0" d="M16.17 79.66c-.51 0-.92-.41-.92-.92v-3.17c0-.51.41-.92.92-.92s.92.41.92.92v3.17c0 .51-.41.92-.92.92Zm0 7.39c-.51 0-.92-.41-.92-.92v-3.17c0-.51.41-.92.92-.92s.92.41.92.92v3.17c0 .51-.41.92-.92.92Zm-2.1-5.28h-3.15c-.51 0-.92-.41-.92-.92s.41-.92.92-.92h3.16c.51 0 .92.41.92.92s-.41.92-.92.92h-.01Zm7.37 0h-3.16c-.51 0-.92-.41-.92-.92s.41-.92.92-.92h3.16c.51 0 .92.41.92.92s-.41.92-.92.92Z"/>
  <path fill="#E56470" d="M199.35 32.91a4.28 4.28 0 0 1-4.27-4.27 4.28 4.28 0 0 1 4.27-4.27 4.28 4.28 0 0 1 4.27 4.27 4.28 4.28 0 0 1-4.27 4.27Zm0-6.71c-1.34 0-2.44 1.09-2.44 2.44 0 1.35 1.09 2.44 2.44 2.44 1.35 0 2.44-1.09 2.44-2.44 0-1.35-1.09-2.44-2.44-2.44ZM35.87 163.67a2.88 2.88 0 1 1 .001-5.761 2.88 2.88 0 0 1-.001 5.761Zm0-3.93a1.05 1.05 0 1 0 0 2.1 1.05 1.05 0 0 0 0-2.1Z"/>
  <path fill="#75A4FE" d="M87.67 144.81H52.31c-3.05 0-4.58 0-5.89-.67a6.127 6.127 0 0 1-2.67-2.66c-.67-1.31-.67-2.84-.67-5.89v-4.16c0-3.05 0-4.58.67-5.89a6.047 6.047 0 0 1 2.67-2.67c1.3-.67 2.84-.67 5.89-.67h35.36c3.05 0 4.58 0 5.89.67 1.16.59 2.08 1.51 2.67 2.67.67 1.31.67 2.84.67 5.89v4.16c0 3.05 0 4.58-.67 5.89a6.047 6.047 0 0 1-2.67 2.67c-1.31.67-2.84.67-5.89.67v-.01Zm-35.36-20.8c-2.77 0-4.15 0-5.07.47-.81.41-1.46 1.06-1.88 1.88-.47.92-.47 2.31-.47 5.07v4.16c0 2.76 0 4.15.47 5.07.42.81 1.07 1.46 1.88 1.88.92.47 2.31.47 5.07.47h35.36c2.76 0 4.15 0 5.07-.47.81-.42 1.46-1.06 1.88-1.88.47-.92.47-2.31.47-5.07v-4.16c0-2.76 0-4.15-.47-5.07a4.323 4.323 0 0 0-1.88-1.88c-.92-.47-2.31-.47-5.07-.47H52.31Zm33.25 10.4h-3.49c-.5 0-.9-.4-.9-.9s.4-.9.9-.9h3.49c.5 0 .9.4.9.9s-.4.9-.9.9Zm-17.27 0H54.4c-.5 0-.9-.4-.9-.9s.4-.9.9-.9h13.89c.5 0 .9.4.9.9s-.4.9-.9.9Zm19.38-20.8H52.31c-3.05 0-4.58 0-5.89-.67a6.127 6.127 0 0 1-2.67-2.66c-.67-1.31-.67-2.84-.67-5.89v-4.16c0-3.05 0-4.58.67-5.89a6.047 6.047 0 0 1 2.67-2.67c1.31-.67 2.84-.67 5.89-.67h35.36c3.05 0 4.58 0 5.89.67 1.16.59 2.08 1.51 2.67 2.67.67 1.3.67 2.84.67 5.89v4.16c0 3.05 0 4.58-.67 5.89a6.025 6.025 0 0 1-2.67 2.66c-1.31.67-2.84.67-5.89.67Zm-35.36-20.8c-2.77 0-4.15 0-5.07.47-.81.42-1.46 1.07-1.88 1.88-.47.92-.47 2.31-.47 5.07v4.16c0 2.77 0 4.15.47 5.07.42.81 1.07 1.46 1.88 1.88.92.47 2.31.47 5.07.47h35.36c2.76 0 4.15 0 5.07-.47.81-.42 1.46-1.06 1.88-1.88.47-.92.47-2.31.47-5.07v-4.16c0-2.76 0-4.15-.47-5.07a4.271 4.271 0 0 0-1.88-1.88c-.92-.47-2.31-.47-5.07-.47H52.31Zm33.22 10.4h-3.47c-.5 0-.9-.4-.9-.9s.4-.9.9-.9h3.47c.5 0 .9.4.9.9s-.4.9-.9.9Zm-17.27 0H54.39c-.5 0-.9-.4-.9-.9s.4-.9.9-.9h13.87c.5 0 .9.4.9.9s-.4.9-.9.9Zm99.41-10.4h-35.36c-3.05 0-4.58 0-5.89-.67a6.15 6.15 0 0 1-2.67-2.67c-.67-1.31-.67-2.84-.67-5.89v-4.16c0-3.05 0-4.58.67-5.89a6.127 6.127 0 0 1 2.66-2.67c1.31-.67 2.84-.67 5.89-.67h35.36c3.05 0 4.58 0 5.89.67 1.16.59 2.08 1.51 2.67 2.67.67 1.3.67 2.84.67 5.89v4.16c0 3.05 0 4.58-.67 5.89a6.047 6.047 0 0 1-2.67 2.67c-1.31.67-2.84.67-5.89.67h.01Zm-35.36-20.8c-2.76 0-4.15 0-5.07.47-.82.42-1.46 1.07-1.88 1.88-.47.92-.47 2.31-.47 5.07v4.16c0 2.76 0 4.15.47 5.07.41.8 1.08 1.47 1.88 1.88.92.47 2.31.47 5.07.47h35.36c2.76 0 4.15 0 5.07-.47.81-.42 1.46-1.06 1.88-1.88.47-.92.47-2.31.47-5.07v-4.16c0-2.76 0-4.15-.47-5.07a4.271 4.271 0 0 0-1.88-1.88c-.92-.47-2.31-.47-5.07-.47h-35.36Zm33.25 10.4h-3.49c-.5 0-.9-.4-.9-.9s.4-.9.9-.9h3.49c.5 0 .9.4.9.9s-.4.9-.9.9Zm-17.27 0H134.4c-.5 0-.9-.4-.9-.9s.4-.9.9-.9h13.89c.5 0 .9.4.9.9s-.4.9-.9.9Zm19.38-20.8h-35.36c-3.05 0-4.58 0-5.89-.67a6.047 6.047 0 0 1-2.67-2.67c-.67-1.3-.67-2.84-.67-5.89v-4.16c0-3.05 0-4.58.67-5.89a6.127 6.127 0 0 1 2.66-2.67c1.31-.67 2.84-.67 5.89-.67h35.36c3.05 0 4.58 0 5.89.67 1.16.59 2.08 1.51 2.67 2.67.67 1.3.67 2.84.67 5.89v4.16c0 3.05 0 4.58-.67 5.89a6.127 6.127 0 0 1-2.66 2.67c-1.31.67-2.84.67-5.89.67Zm-35.36-20.8c-2.76 0-4.15 0-5.07.47-.82.42-1.46 1.07-1.88 1.88-.47.92-.47 2.31-.47 5.07v4.16c0 2.76 0 4.15.47 5.07.41.81 1.06 1.46 1.88 1.88.92.47 2.31.47 5.07.47h35.36c2.76 0 4.15 0 5.07-.47.81-.42 1.46-1.07 1.88-1.88.47-.92.47-2.31.47-5.07v-4.16c0-2.76 0-4.15-.47-5.07a4.271 4.271 0 0 0-1.88-1.88c-.92-.47-2.31-.47-5.07-.47h-35.36Zm33.22 10.4h-3.47c-.5 0-.9-.4-.9-.9s.4-.9.9-.9h3.47c.5 0 .9.4.9.9s-.4.9-.9.9Zm-17.27 0h-13.87c-.5 0-.9-.4-.9-.9s.4-.9.9-.9h13.87c.5 0 .9.4.9.9s-.4.9-.9.9Z"/>
  <path fill="#4E7FDB" d="M83.49 62.13a.706.706 0 0 0-.99 0c-.27.27-.27.72 0 .99l.5-.49.5-.5h-.01Zm5.45.99c.27-.27.27-.72 0-.99a.706.706 0 0 0-.99 0l.49.5.5.49Zm3.27-5.25c-.27.27-.27.72 0 .99s.72.27.99 0l-.5-.5-.49-.49Zm.99-5.46a.706.706 0 0 0-.99 0c-.27.27-.27.72 0 .99l.49-.49.5-.49v-.01Zm-8.18 12.5c0 .39.31.7.7.7.39 0 .7-.31.7-.7h-1.4Zm9.97-8.57c.39 0 .7-.31.7-.7 0-.39-.31-.7-.7-.7v1.4Zm-10.04 8.24.49-.49-1.96-1.96-.5.5-.5.49 1.96 1.96.5-.49.01-.01Zm1.54 0 .49.49 1.96-1.96-.5-.49-.49-.5-1.96 1.96.5.49v.01Zm-1.54 0-.5.49c.7.7 1.83.7 2.53 0l-.49-.49-.5-.49c-.15.15-.4.15-.55 0l-.49.49Zm9.71-8.17-.5-.49-1.96 1.96.49.49.5.5 1.96-1.96-.5-.49.01-.01Zm0-1.55.5-.49-1.96-1.96-.5.49-.49.49 1.96 1.96.5-.5-.01.01Zm0 1.55.5.49c.7-.7.7-1.83 0-2.53l-.5.49-.5.5c.15.15.15.4 0 .55l.5.49v.01Zm-8.94 5.77h-.7v2.73h1.4v-2.73h-.7Zm6.55-6.54v.7H95v-1.4h-2.73v.7Zm-6.55 6.54h.7c0-1.56 0-2.66.11-3.5.11-.81.31-1.27.64-1.59l-.5-.5-.49-.49c-.63.63-.91 1.43-1.04 2.4-.13.95-.13 2.16-.13 3.68h.71Zm6.55-6.54v-.7c-1.52 0-2.74 0-3.68.13-.97.13-1.77.41-2.4 1.04l.49.49.5.5c.33-.33.78-.53 1.59-.64.83-.11 1.94-.11 3.5-.11v-.71Zm44.23 66.05c.27.27.72.27.99 0s.27-.72 0-.99l-.5.5-.5.49h.01Zm-5.46-.99c-.27.27-.27.72 0 .99s.72.27.99 0l-.5-.49-.49-.5Zm-3.26 5.25c.27-.27.27-.72 0-.99a.706.706 0 0 0-.99 0l.5.49.49.5Zm-.99 5.45c.27.27.72.27.99 0s.27-.72 0-.99l-.49.5-.5.5v-.01Zm8.18-12.49c0-.39-.31-.7-.7-.7-.39 0-.7.31-.7.7h1.4Zm-9.98 8.57c-.39 0-.7.31-.7.7 0 .39.31.7.7.7v-1.4Zm10.05-8.24-.49.5 1.96 1.96.5-.49.5-.5-1.96-1.96-.5.5-.01-.01Zm-1.55 0-.5-.5-1.96 1.96.49.5.5.49 1.96-1.96-.5-.5.01.01Zm1.55 0 .5-.5c-.7-.7-1.83-.7-2.53 0l.5.5.5.5c.15-.15.4-.15.55 0l.49-.5h-.01Zm-9.71 8.17.5.5 1.96-1.96-.49-.5-.5-.49-1.96 1.96.5.5-.01-.01Zm0 1.54-.5.5 1.96 1.96.5-.5.49-.5-1.96-1.96-.5.49.01.01Zm0-1.54-.5-.5c-.7.7-.7 1.83 0 2.53l.5-.5.5-.49a.392.392 0 0 1 0-.55l-.5-.5v.01Zm8.94-5.77h.7v-2.73h-1.4v2.73h.7Zm-6.55 6.54v-.7h-2.73v1.4h2.73v-.7Zm6.55-6.54h-.7c0 1.56 0 2.66-.11 3.5-.11.81-.31 1.27-.64 1.59l.5.5.49.49c.63-.63.91-1.43 1.04-2.4.13-.95.13-2.16.13-3.69h-.7l-.01.01Zm-6.55 6.54v.7c1.52 0 2.74 0 3.69-.13.97-.13 1.77-.41 2.4-1.04l-.49-.49-.5-.5c-.33.33-.78.53-1.59.64-.83.11-1.93.11-3.5.11v.7l-.01.01Z"/>
  <path fill="#7E90B0" d="M109.99 118.91c14.91 0 27-12.09 27-27s-12.09-27-27-27-27 12.09-27 27 12.09 27 27 27Z"/>
  <path fill="#fff" d="M110 104.77c-.67 0-1.22-.55-1.22-1.22V93.13H98.4c-.67 0-1.22-.55-1.22-1.22 0-.67.55-1.22 1.22-1.22h10.38V80.27c0-.67.55-1.22 1.22-1.22.67 0 1.22.55 1.22 1.22v10.42h10.38c.67 0 1.22.55 1.22 1.22 0 .67-.55 1.22-1.22 1.22h-10.38v10.42c0 .67-.55 1.22-1.22 1.22Z"/>
  <path fill="#5BC1A5" d="M42.72 29.55c-.38 0-.72-.23-.85-.59l-1.29-3.36c-.19-.49-.28-.72-.37-.85-.08-.12-.19-.22-.31-.31-.13-.1-.38-.19-.83-.36l-3.37-1.3a.92.92 0 0 1-.59-.85c0-.38.23-.72.59-.85l3.35-1.29c.46-.18.71-.28.84-.37.12-.09.23-.19.31-.31.09-.13.18-.35.37-.85l1.29-3.36a.93.93 0 0 1 .85-.59c.37 0 .72.23.85.59l1.29 3.36c.18.46.27.71.37.85.08.12.19.22.31.31.13.1.38.19.83.37l3.37 1.3c.35.14.59.48.59.85s-.23.72-.59.85l-3.35 1.29c-.46.18-.71.28-.84.37-.12.09-.23.19-.31.31-.09.13-.19.38-.36.84l-1.29 3.37a.93.93 0 0 1-.85.59l-.01-.01Zm-4.15-7.62 1.14.44c.61.23.93.36 1.25.59.28.2.53.45.74.74.23.33.36.66.59 1.25l.44 1.14.44-1.14c.23-.6.36-.93.58-1.25.21-.29.46-.54.74-.74.32-.23.64-.35 1.23-.58l1.16-.45-1.14-.44c-.61-.23-.93-.36-1.25-.59-.28-.2-.53-.45-.74-.74-.23-.32-.35-.65-.58-1.24l-.44-1.15-.44 1.14c-.23.6-.36.93-.59 1.25-.21.29-.46.54-.74.74-.32.23-.64.35-1.23.58l-1.16.45Zm-3.72-4.37c-.51 0-.92-.41-.92-.92v-.95h-.94c-.51 0-.92-.41-.92-.92s.41-.92.92-.92h.94v-.95c0-.51.41-.92.92-.92s.92.41.92.92v.95h.95c.51 0 .92.41.92.92s-.41.92-.92.92h-.95v.95c0 .51-.41.92-.92.92Z"/>
</svg>
