<svg xmlns="http://www.w3.org/2000/svg" viewBox="0 0 220 184">
  <path fill="#7E90B0" d="M10.17 104.27c-.51 0-.92-.41-.92-.92v-3.17c0-.51.41-.92.92-.92s.92.41.92.92v3.17c0 .51-.41.92-.92.92Zm0 7.39c-.51 0-.92-.41-.92-.92v-3.17c0-.51.41-.92.92-.92s.92.41.92.92v3.17c0 .51-.41.92-.92.92Zm-2.1-5.28H4.92c-.51 0-.92-.41-.92-.92s.41-.92.92-.92h3.16c.51 0 .92.41.92.92s-.41.92-.92.92h-.01Zm7.37 0h-3.16c-.51 0-.92-.41-.92-.92s.41-.92.92-.92h3.16c.51 0 .92.41.92.92s-.41.92-.92.92Zm195.97-36.61c-.44 0-.8-.36-.8-.8v-2.48c0-.44.36-.8.8-.8.44 0 .8.36.8.8v2.48c0 .44-.36.8-.8.8Zm0 5.79c-.44 0-.8-.36-.8-.8v-2.48c0-.44.36-.8.8-.8.44 0 .8.36.8.8v2.48c0 .44-.36.8-.8.8Zm-1.65-4.14h-2.48c-.44 0-.8-.36-.8-.8 0-.44.36-.8.8-.8h2.48c.44 0 .8.36.8.8 0 .44-.36.8-.8.8Zm5.78 0h-2.47c-.44 0-.8-.36-.8-.8 0-.44.36-.8.8-.8h2.47c.44 0 .8.36.8.8 0 .44-.36.8-.8.8Zm-22.83 73.41c-.51 0-.92-.41-.92-.92v-1.77h-1.76c-.51 0-.92-.41-.92-.92s.41-.92.92-.92h1.76v-1.77c0-.51.41-.92.92-.92s.92.41.92.92v1.77h1.76c.51 0 .92.41.92.92s-.41.92-.92.92h-1.76v1.77c0 .51-.41.92-.92.92Z"/>
  <path fill="#5BC1A5" d="M23.06 25.55c-.38 0-.72-.23-.85-.59l-1.29-3.36c-.18-.46-.27-.71-.37-.85-.08-.12-.19-.22-.31-.31-.13-.09-.36-.18-.85-.37l-3.36-1.29a.93.93 0 0 1-.59-.85c0-.37.23-.72.59-.85l3.35-1.29c.49-.19.72-.28.85-.37.12-.08.22-.19.31-.31.1-.13.19-.38.37-.84l1.29-3.37a.93.93 0 0 1 .85-.59c.37 0 .72.23.85.59l1.29 3.36c.19.49.28.72.37.85.09.12.19.23.31.31.13.1.39.19.85.37l3.35 1.29c.35.14.59.47.59.85s-.23.72-.59.85l-3.35 1.29c-.49.19-.71.28-.84.37-.12.09-.23.19-.31.31-.09.13-.18.36-.37.85l-1.29 3.36a.93.93 0 0 1-.85.59Zm-4.15-7.62 1.14.44c.58.22.92.36 1.25.59.29.2.54.45.74.74.23.32.35.65.58 1.24l.44 1.15.44-1.14c.23-.6.36-.93.59-1.25.21-.29.46-.54.74-.75.32-.23.65-.36 1.25-.59l1.14-.44-1.14-.44c-.6-.23-.92-.36-1.25-.59-.29-.21-.54-.46-.74-.74-.23-.32-.36-.65-.59-1.25l-.44-1.14-.44 1.14c-.23.6-.36.93-.59 1.25-.2.29-.45.54-.74.74-.33.23-.66.36-1.25.59l-1.14.44.01.01Zm-3.72-4.37c-.51 0-.92-.41-.92-.92v-.95h-.95c-.51 0-.92-.41-.92-.92s.41-.92.92-.92h.95V8.9c0-.51.41-.92.92-.92s.92.41.92.92v.95h.94c.51 0 .92.41.92.92s-.41.92-.92.92h-.94v.95c0 .51-.41.92-.92.92Z"/>
  <path fill="#E56470" d="M182.7 20.32c-2.07 0-3.75-1.68-3.75-3.75 0-2.07 1.68-3.75 3.75-3.75 2.07 0 3.75 1.68 3.75 3.75 0 2.07-1.68 3.75-3.75 3.75Zm0-5.68a1.92 1.92 0 1 0 .001 3.841 1.92 1.92 0 0 0-.001-3.84Zm-159 147.23a2.88 2.88 0 1 1 .002-5.761 2.88 2.88 0 0 1-.002 5.761Zm0-3.93a1.05 1.05 0 1 0 0 2.1 1.05 1.05 0 0 0 0-2.1Z"/>
  <path fill="#4E7FDB" d="M184.71 162.68h-3.73c-.5 0-.9-.4-.9-.9s.4-.9.9-.9h3.73c.5 0 .9.4.9.9s-.4.9-.9.9Zm-9.84 0H162.8c-.5 0-.9-.4-.9-.9s.4-.9.9-.9h12.07c.5 0 .9.4.9.9s-.4.9-.9.9Zm-47.95 0H81.91c-.5 0-.9-.4-.9-.9s.4-.9.9-.9h45.01c.5 0 .9.4.9.9s-.4.9-.9.9Zm-52.81 0h-8.94c-.5 0-.9-.4-.9-.9s.4-.9.9-.9h8.94c.5 0 .9.4.9.9s-.4.9-.9.9Z"/>
  <path fill="#75A4FE" d="M57.78 92.08h-3.73c-.5 0-.9-.4-.9-.9s.4-.9.9-.9h3.73c.5 0 .9.4.9.9s-.4.9-.9.9Z"/>
  <path fill="#75A4FE" d="M129.88 134.7h-28.01c-6.73 0-12.55 0-17.55-.15a.89.89 0 0 1-.87-.93c.01-.5.44-.88.93-.87 4.97.15 10.77.15 17.49.15h28.01c22.75 0 34.17 0 42.08-5.54 2.96-2.08 5.49-4.61 7.52-7.52 5.54-7.91 5.54-19.32 5.54-42.05 0-22.73 0-34.16-5.54-42.05a30.526 30.526 0 0 0-7.52-7.52c-7.92-5.54-19.33-5.54-42.08-5.54h-28.01c-22.75 0-34.17 0-42.08 5.54a30.526 30.526 0 0 0-7.52 7.52c-4.25 6.05-5.19 14.02-5.45 26.62v13.29c0 .5-.4.9-.9.9s-.9-.4-.9-.9V62.34c.27-12.97 1.26-21.21 5.78-27.63 2.15-3.08 4.83-5.76 7.96-7.96 8.37-5.86 19.98-5.86 43.11-5.86h28.01c23.12 0 34.73 0 43.11 5.86 3.08 2.15 5.76 4.83 7.96 7.96 5.87 8.36 5.87 19.97 5.87 43.09 0 23.12 0 34.71-5.86 43.09a32.363 32.363 0 0 1-7.96 7.96c-8.37 5.86-19.98 5.86-43.11 5.86l-.01-.01Z"/>
  <path fill="#75A4FE" d="M181.92 121.11H85.29c-.5 0-.9-.4-.9-.9s.4-.9.9-.9h96.63c.5 0 .9.4.9.9s-.4.9-.9.9Zm-48.43 41.57c-.27 0-.54-.12-.72-.36l-2.21-2.94c-5.17-6.86-6.45-17.28-3.18-25.93a.898.898 0 1 1 1.68.64c-3.06 8.1-1.88 17.83 2.94 24.21l2.21 2.94a.899.899 0 0 1-.72 1.44Zm-35.03 0a.899.899 0 0 1-.72-1.44l2.21-2.94c4.82-6.39 6-16.12 2.94-24.21a.898.898 0 1 1 1.68-.64c3.27 8.65 1.99 19.07-3.18 25.93l-2.21 2.94c-.18.24-.45.36-.72.36Z"/>
  <path fill="#4E7FDB" d="M151 162.68H80.96c-.5 0-.9-.4-.9-.9s.4-.9.9-.9H151c.5 0 .9.4.9.9s-.4.9-.9.9Z"/>
  <path fill="#75A4FE" d="M63.21 162.65H46.63c-7.5 0-13.61-6.19-13.61-13.81V97.32c0-7.61 6.11-13.81 13.61-13.81h16.58c7.5 0 13.61 6.19 13.61 13.81v51.52c0 7.61-6.11 13.81-13.61 13.81ZM46.62 85.31c-6.51 0-11.81 5.39-11.81 12.01v51.52c0 6.62 5.3 12.01 11.81 12.01H63.2c6.51 0 11.81-5.39 11.81-12.01V97.32c0-6.62-5.3-12.01-11.81-12.01H46.62Z"/>
  <path fill="#6DB88F" d="M170.23 142.28c16.02 0 29-12.98 29-29s-12.98-29-29-29-29 12.98-29 29 12.98 29 29 29Z"/>
  <path fill="#fff" d="M170.04 128c-.18 0-.37-.02-.53-.05-.39-.08-.66-.22-1.01-.4-3.55-1.85-11.81-6.94-11.81-14.24v-5.73c0-1.32 0-2.04.28-2.77.24-.64.64-1.22 1.16-1.68.59-.52 1.27-.77 2.5-1.23l8.12-3.05c.36-.14.6-.22.9-.27.25-.04.52-.04.78 0 .28.04.52.13.88.26l8.13 3.05c1.23.46 1.91.72 2.5 1.23.52.45.92 1.03 1.16 1.68.28.73.28 1.46.28 2.77v5.73c0 7.3-8.25 12.39-11.8 14.24-.35.18-.63.33-1.01.4-.16.03-.34.05-.52.05l-.01.01Zm.04-27c-.18.02-.28.07-.46.13l-8.13 3.05c-.96.36-1.49.56-1.74.78-.22.19-.39.44-.5.71-.12.31-.12.88-.12 1.9v5.73c0 6.13 8.03 10.79 10.49 12.07.17.09.31.16.35.17h.12c.04 0 .17-.08.34-.17 2.47-1.29 10.5-5.95 10.5-12.08v-5.73c0-1.03 0-1.59-.12-1.9-.1-.27-.28-.52-.5-.72-.25-.22-.78-.42-1.74-.78l-8.12-3.05c-.18-.07-.29-.12-.38-.14l.01.03Zm-1.84 17.1c-.32 0-.63-.13-.86-.36l-3.6-3.6c-.48-.48-.48-1.25 0-1.72.48-.48 1.25-.48 1.72 0l2.74 2.74 6.34-6.34c.48-.48 1.25-.48 1.72 0s.48 1.25 0 1.72l-7.2 7.2c-.23.23-.54.36-.86.36Z"/>
</svg>
