<svg xmlns="http://www.w3.org/2000/svg" viewBox="0 0 220 184">
  <path fill="#7E90B0" d="M210.05 133.09c-.51 0-.92-.41-.92-.92v-1.77h-1.76c-.51 0-.92-.41-.92-.92s.41-.92.92-.92h1.76v-1.77c0-.51.41-.92.92-.92s.92.41.92.92v1.77h1.76c.51 0 .92.41.92.92s-.41.92-.92.92h-1.76v1.77c0 .51-.41.92-.92.92Z"/>
  <path fill="#E56470" d="M209.72 31.8c-.39 0-.7-.31-.7-.7v-.62c0-2.19 1.59-3.96 3.13-5.66.6-.67 1.17-1.3 1.63-1.94.48-.67.74-1.45.74-2.25 0-2.33-2.15-4.23-4.8-4.23s-4.8 1.9-4.8 4.23c0 .39-.31.7-.7.7-.39 0-.7-.31-.7-.7 0-3.1 2.78-5.63 6.2-5.63 3.42 0 6.2 2.53 6.2 5.63 0 1.1-.35 2.16-1 3.07-.5.7-1.13 1.39-1.73 2.06-1.36 1.51-2.77 3.07-2.77 4.73v.62c0 .39-.31.7-.7.7v-.01Zm.02 4.77c-.44 0-.81-.36-.81-.8 0-.44.35-.8.79-.8h.02c.44 0 .8.36.8.8 0 .44-.36.8-.8.8Z"/>
  <path fill="#7E90B0" fill-opacity=".6" d="M19.65 61.24c-1.61 0-2.92 1.31-2.92 2.92 0 1.61 1.31 2.92 2.92 2.92 1.61 0 2.92-1.31 2.92-2.92 0-1.61-1.31-2.92-2.92-2.92Zm0 4.64a1.72 1.72 0 1 1 0-3.44 1.72 1.72 0 0 1 0 3.44Z"/>
  <path fill="#7E90B0" fill-opacity=".6" d="m26.38 65.54-1.03-1.16v-.42l1.03-1.16c.45-.5.5-1.22.19-1.77l-.72-1.26c-.33-.55-.97-.86-1.63-.73l-1.54.32c-.11-.07-.22-.14-.34-.2l-.5-1.51c-.21-.63-.79-1.04-1.45-1.04h-1.45c-.66 0-1.24.43-1.45 1.03l-.5 1.51c-.11.06-.23.13-.33.19l-1.54-.32c-.65-.14-1.3.18-1.63.73l-.72 1.26c-.33.57-.26 1.29.18 1.78l1.04 1.17v.42l-1.04 1.17c-.45.5-.5 1.22-.19 1.77l.72 1.26c.33.56.97.87 1.63.73l1.54-.32c.11.07.22.14.34.2l.5 1.51c.21.63.79 1.04 1.45 1.04h1.45c.66 0 1.24-.43 1.45-1.03l.5-1.52c.11-.06.23-.13.33-.19l1.54.32c.65.14 1.3-.18 1.63-.73l.72-1.25c.33-.57.26-1.29-.18-1.77v-.03Zm-.85 1.17-.72 1.25c-.08.13-.23.19-.35.17l-1.76-.36c-.16-.03-.34 0-.47.1-.2.14-.41.26-.64.37-.15.07-.26.2-.32.35l-.57 1.71a.34.34 0 0 1-.31.23h-1.45c-.14 0-.27-.09-.31-.23l-.57-1.71a.575.575 0 0 0-.29-.34c-.24-.13-.47-.25-.67-.39-.13-.09-.3-.12-.46-.09l-1.76.36a.328.328 0 0 1-.35-.16l-.72-1.24a.347.347 0 0 1 .03-.38l1.2-1.35c.11-.12.16-.28.15-.44 0-.14-.02-.26-.02-.39s0-.25.02-.39a.593.593 0 0 0-.15-.44l-1.2-1.35c-.09-.11-.11-.26-.04-.37l.72-1.25c.08-.13.23-.19.35-.17l1.76.36c.16.03.34 0 .47-.1.2-.14.41-.26.64-.37.15-.07.26-.2.32-.35l.57-1.71a.34.34 0 0 1 .31-.23h1.45c.14 0 .27.09.31.23l.57 1.71c.05.15.15.27.29.34.24.13.47.25.67.39.13.09.3.12.46.09l1.76-.36c.13-.03.27.03.35.16l.72 1.24c.07.13.05.28-.03.38l-1.2 1.35c-.11.12-.16.28-.15.44 0 .14.02.27.02.39 0 .13 0 .25-.02.39-.01.16.04.32.15.44l1.2 1.35c.09.11.11.26.04.37Z"/>
  <path fill="#7E90B0" d="M8.17 117.83c-.51 0-.92-.41-.92-.92v-3.17c0-.51.41-.92.92-.92s.92.41.92.92v3.17c0 .51-.41.92-.92.92Zm0 7.39c-.51 0-.92-.41-.92-.92v-3.17c0-.51.41-.92.92-.92s.92.41.92.92v3.17c0 .51-.41.92-.92.92Zm-2.1-5.28H2.92c-.51 0-.92-.41-.92-.92s.41-.92.92-.92h3.16c.51 0 .92.41.92.92s-.41.92-.92.92h-.01Zm7.37 0h-3.16c-.51 0-.92-.41-.92-.92s.41-.92.92-.92h3.16c.51 0 .92.41.92.92s-.41.92-.92.92Z"/>
  <path fill="#E56470" d="M192.92 71.13a4.28 4.28 0 0 1-4.27-4.27 4.28 4.28 0 0 1 4.27-4.27 4.28 4.28 0 0 1 4.27 4.27 4.28 4.28 0 0 1-4.27 4.27Zm0-6.71c-1.35 0-2.44 1.09-2.44 2.44 0 1.35 1.09 2.44 2.44 2.44 1.35 0 2.44-1.09 2.44-2.44 0-1.35-1.09-2.44-2.44-2.44ZM35.87 169.84a2.88 2.88 0 1 1 .001-5.761 2.88 2.88 0 0 1-.001 5.761Zm0-3.93a1.05 1.05 0 1 0 0 2.1 1.05 1.05 0 0 0 0-2.1Z"/>
  <path fill="#75A4FE" d="m77.46 151.24-.88-.04c-.12 0-.24-.04-.34-.09-.15-.03-.37-.08-.62-.13l-.54-.11a18.328 18.328 0 0 1-9.16-5.88c-2.83-3.37-3.98-8.22-6.25-17.89L45.76 68.08c-2.28-9.66-3.42-14.51-2.39-18.8.91-3.79 2.95-7.13 5.9-9.67 3.34-2.85 8.14-3.99 17.71-6.26l1.56-.37a.915.915 0 0 1 .42 1.78l-1.56.37c-9.28 2.2-13.94 3.3-16.94 5.87-2.66 2.28-4.5 5.29-5.32 8.7-.93 3.87.18 8.58 2.39 17.96l13.91 59.02c2.21 9.38 3.32 14.09 5.88 17.13 2.15 2.56 4.98 4.38 8.2 5.28l.48.1c1.02.21 1.69.36 1.57 1.21l-.11.84Z"/>
  <path fill="#75A4FE" d="M120.13 154.09H99.16c-11.14 0-16.73 0-21.13-2.23-3.9-1.97-7.01-5.06-8.99-8.93-2.24-4.37-2.24-9.93-2.24-21V54.24c0-11.07 0-16.63 2.24-21 1.99-3.87 5.1-6.96 8.99-8.93 4.4-2.23 9.99-2.23 21.13-2.23h41.94c11.14 0 16.74 0 21.13 2.23 3.9 1.97 7.01 5.06 8.99 8.93 2.24 4.37 2.24 9.93 2.24 21v50.91c0 .51-.41.92-.92.92s-.92-.41-.92-.92V54.24c0-10.77 0-16.18-2.04-20.16a18.574 18.574 0 0 0-8.19-8.14c-4.01-2.03-9.46-2.03-20.31-2.03H99.14c-10.85 0-16.3 0-20.31 2.03-3.55 1.8-6.38 4.61-8.19 8.14-2.04 3.98-2.04 9.39-2.04 20.16v67.69c0 10.77 0 16.18 2.04 20.16 1.81 3.53 4.64 6.34 8.19 8.13 4.01 2.03 9.46 2.03 20.31 2.03h20.97c.5 0 .92.41.92.92s-.41.92-.92.92h.02Z"/>
  <path fill="#75A4FE" d="M143.94 71.56h-33.81c-.39 0-.78.42-.78 1 0 .5.31 1 .78 1h33.81c.39 0 .78-.42.78-1-.08-.58-.39-1-.78-1Zm-.48-20.27h-33.03c-.54 0-1.08.42-1.08 1 0 .5.43 1 1.08 1h33.03c.54 0 1.08-.42 1.08-1-.11-.58-.54-1-1.08-1ZM96.99 58.3h-6c-1.78 0-3.22-1.44-3.22-3.22v-6c0-1.78 1.44-3.22 3.22-3.22h6c1.78 0 3.22 1.44 3.22 3.22v6c0 1.78-1.44 3.22-3.22 3.22Zm-6-10c-.43 0-.78.35-.78.78v6c0 .43.35.78.78.78h6c.43 0 .78-.35.78-.78v-6c0-.43-.35-.78-.78-.78h-6Zm6 31h-6c-1.78 0-3.22-1.44-3.22-3.22v-6c0-1.78 1.44-3.22 3.22-3.22h6c1.78 0 3.22 1.44 3.22 3.22v6c0 1.78-1.44 3.22-3.22 3.22Zm-6-10c-.43 0-.78.35-.78.78v6c0 .43.35.78.78.78h6c.43 0 .78-.35.78-.78v-6c0-.43-.35-.78-.78-.78h-6Z"/>
  <path fill="#4E7FDB" d="m149.358 131.914-1.272 1.273 9.114 9.114 1.273-1.273-9.115-9.114Z"/>
  <path fill="#7E90B0" d="M157.6 149.05a5.378 5.378 0 0 1 0-7.62 5.378 5.378 0 0 1 7.62 0l11.09 11.09a5.378 5.378 0 0 1 0 7.62c-2.11 2.1-5.52 2.11-7.62 0l-11.09-11.09Z"/>
  <path fill="#4E7FDB" d="M130.5 140.75c-14.57 0-26.42-11.85-26.42-26.42 0-14.57 11.85-26.42 26.42-26.42 14.57 0 26.42 11.85 26.42 26.42 0 14.57-11.85 26.42-26.42 26.42Zm0-51.03c-13.57 0-24.61 11.04-24.61 24.61s11.04 24.62 24.61 24.62 24.61-11.04 24.61-24.62c0-13.58-11.04-24.61-24.61-24.61Z"/>
  <path fill="#4E7FDB" d="M139.96 123.21c-.27 0-.54-.12-.72-.36-2.21-2.94-5.58-4.63-9.25-4.63s-7.05 1.69-9.25 4.63c-.3.4-.86.48-1.26.18s-.48-.86-.18-1.26c2.55-3.4 6.45-5.35 10.69-5.35 4.24 0 8.14 1.95 10.69 5.35a.899.899 0 0 1-.72 1.44Zm-19.36-14.66a1.93 1.93 0 1 0 0-3.86 1.93 1.93 0 0 0 0 3.86Zm18.57 0a1.93 1.93 0 1 0 0-3.86 1.93 1.93 0 0 0 0 3.86Z"/>
</svg>
