<svg xmlns="http://www.w3.org/2000/svg" viewBox="0 0 220 184">
  <path fill="#7E90B0" d="M210.05 126.92c-.51 0-.92-.41-.92-.92v-1.77h-1.76c-.51 0-.92-.41-.92-.92s.41-.92.92-.92h1.76v-1.77c0-.51.41-.92.92-.92s.92.41.92.92v1.77h1.76c.51 0 .92.41.92.92s-.41.92-.92.92h-1.76V126c0 .51-.41.92-.92.92Z"/>
  <path fill="#7E90B0" fill-opacity=".6" d="m213.15 24.17-1.3-1.46c0-.1.01-.19.01-.3 0-.1 0-.2-.01-.3l1.3-1.46c.51-.56.57-1.38.21-2.01l-.89-1.53c-.37-.63-1.1-.99-1.85-.83l-1.94.4c-.17-.1-.34-.2-.5-.29l-.63-1.88c-.24-.71-.91-1.18-1.65-1.18h-1.78c-.75 0-1.41.48-1.65 1.17l-.63 1.88c-.18.09-.36.19-.53.31l-1.92-.39c-.74-.15-1.48.2-1.85.82l-.88 1.53c-.38.65-.29 1.46.21 2.02l1.3 1.46c0 .1-.01.19-.01.3 0 .11 0 .2.01.3l-1.3 1.46c-.51.56-.57 1.38-.21 2.01l.89 1.53c.37.63 1.1.99 1.85.83l1.94-.4c.17.1.34.2.5.29l.63 1.88c.24.71.9 1.18 1.65 1.18h1.78c.75 0 1.41-.48 1.65-1.17l.63-1.88c.18-.09.36-.19.53-.31l1.92.39c.74.15 1.48-.2 1.85-.82l.88-1.53c.38-.65.29-1.46-.21-2.02Zm-.83 1.4-.88 1.53c-.12.21-.36.31-.58.26l-2.16-.44a.61.61 0 0 0-.47.1c-.25.18-.51.33-.8.46-.15.07-.26.2-.32.35l-.7 2.09a.56.56 0 0 1-.52.37h-1.78c-.23 0-.44-.15-.51-.37l-.7-2.09a.611.611 0 0 0-.29-.34c-.3-.15-.58-.31-.84-.49a.616.616 0 0 0-.46-.09l-2.16.44a.536.536 0 0 1-.58-.26l-.88-1.52a.51.51 0 0 1 .06-.61l1.47-1.65c.11-.12.16-.28.15-.44-.01-.17-.02-.32-.02-.48 0-.16.01-.31.02-.48a.593.593 0 0 0-.15-.44l-1.47-1.64a.499.499 0 0 1-.06-.61l.88-1.53c.12-.21.36-.31.58-.26l2.16.44c.16.03.33 0 .47-.1.25-.18.51-.33.8-.46.15-.07.26-.2.32-.35l.7-2.09a.56.56 0 0 1 .52-.37h1.78c.24 0 .44.15.51.37l.71 2.09c.05.15.15.27.29.34.3.15.58.31.84.48.13.09.3.12.46.09l2.16-.44c.23-.05.45.05.58.26l.88 1.52c.12.2.09.45-.06.61l-1.47 1.65c-.11.12-.16.28-.15.44.01.17.02.33.02.48 0 .16-.01.31-.02.48-.01.16.04.32.15.44l1.47 1.64c.16.17.18.42.06.61l-.01.01Z"/>
  <path fill="#7E90B0" fill-opacity=".6" d="M204.99 18.97c-1.9 0-3.45 1.53-3.45 3.43 0 1.9 1.55 3.43 3.45 3.43 1.9 0 3.45-1.53 3.45-3.43 0-1.9-1.54-3.43-3.45-3.43Zm0 5.66c-1.24 0-2.25-1-2.25-2.23s1-2.23 2.25-2.23 2.25 1 2.25 2.23-1 2.23-2.25 2.23Z"/>
  <path fill="#7E90B0" d="M8.17 111.65c-.51 0-.92-.41-.92-.92v-3.17c0-.51.41-.92.92-.92s.92.41.92.92v3.17c0 .51-.41.92-.92.92Zm0 7.4c-.51 0-.92-.41-.92-.92v-3.17c0-.51.41-.92.92-.92s.92.41.92.92v3.17c0 .51-.41.92-.92.92Zm-2.1-5.29H2.92c-.51 0-.92-.41-.92-.92s.41-.92.92-.92h3.16c.51 0 .92.41.92.92s-.41.92-.92.92h-.01Zm7.37 0h-3.16c-.51 0-.92-.41-.92-.92s.41-.92.92-.92h3.16c.51 0 .92.41.92.92s-.41.92-.92.92Z"/>
  <path fill="#E56470" d="M192.92 64.95a4.28 4.28 0 0 1-4.27-4.27 4.28 4.28 0 0 1 4.27-4.27 4.28 4.28 0 0 1 4.27 4.27 4.28 4.28 0 0 1-4.27 4.27Zm0-6.71c-1.35 0-2.44 1.09-2.44 2.44 0 1.35 1.09 2.44 2.44 2.44 1.35 0 2.44-1.09 2.44-2.44 0-1.35-1.09-2.44-2.44-2.44ZM35.88 163.66a2.88 2.88 0 1 1 .001-5.761 2.88 2.88 0 0 1-.001 5.761Zm0-3.93a1.05 1.05 0 1 0 0 2.1 1.05 1.05 0 0 0 0-2.1Z"/>
  <path fill="#75A4FE" d="M167.04 164.81h-3.08c-.51 0-.92-.41-.92-.92s.41-.92.92-.92h3.08c.51 0 .92.41.92.92s-.41.92-.92.92Zm-8.11 0h-9.94c-.51 0-.92-.41-.92-.92s.41-.92.92-.92h9.94c.51 0 .92.41.92.92s-.41.92-.92.92Zm-39.48 0H82.38c-.51 0-.92-.41-.92-.92s.41-.92.92-.92h37.07c.51 0 .92.41.92.92s-.41.92-.92.92Zm-50.86 0h-5.71c-.51 0-.92-.41-.92-.92s.41-.92.92-.92h5.71c.51 0 .92.41.92.92s-.41.92-.92.92Zm105.32-41.22H46.35c-.5 0-.9-.4-.9-.9s.4-.9.9-.9H173.9c.5 0 .9.4.9.9s-.4.9-.9.9h.01Z"/>
  <path fill="#75A4FE" d="M123.99 136.8h-28c-23.11 0-34.72 0-43.08-5.86a32.364 32.364 0 0 1-7.96-7.96c-5.86-8.37-5.86-19.97-5.86-43.08s0-34.72 5.86-43.08c2.17-3.1 4.85-5.78 7.96-7.96 4.54-3.18 10.04-4.74 19.02-5.4.49-.03.93.33.96.83.04.5-.34.93-.83.96-8.62.63-13.87 2.1-18.12 5.08a30.446 30.446 0 0 0-7.51 7.51c-5.53 7.9-5.53 19.32-5.53 42.05 0 22.73 0 34.15 5.53 42.05 2.05 2.93 4.58 5.46 7.51 7.52 7.9 5.53 19.31 5.53 42.05 5.53h28c22.74 0 34.15 0 42.05-5.53 2.93-2.05 5.46-4.58 7.51-7.52 5.53-7.9 5.53-19.31 5.53-42.05s0-34.15-5.53-42.05a30.446 30.446 0 0 0-7.51-7.51c-4.37-3.06-9.91-4.55-19.11-5.14a.899.899 0 0 1-.84-.96c.03-.5.47-.86.96-.84 9.56.61 15.36 2.2 20.03 5.47 3.1 2.17 5.78 4.85 7.96 7.96 5.86 8.37 5.86 19.97 5.86 43.08s0 34.72-5.86 43.08c-2.17 3.1-4.85 5.78-7.96 7.96-8.37 5.86-19.97 5.86-43.08 5.86h-.01Z"/>
  <path fill="#75A4FE" d="M127.5 164.8c-.27 0-.54-.12-.72-.36l-2.21-2.93c-5.17-6.86-6.45-17.28-3.19-25.93a.898.898 0 1 1 1.68.64c-3.05 8.1-1.87 17.83 2.94 24.21l2.21 2.93a.899.899 0 0 1-.72 1.44h.01Zm-35 0a.899.899 0 0 1-.72-1.44l2.21-2.93c4.81-6.38 5.99-16.11 2.94-24.21a.898.898 0 1 1 1.68-.64c3.26 8.65 1.98 19.07-3.19 25.93l-2.21 2.93c-.18.24-.45.36-.72.36h.01Z"/>
  <path fill="#75A4FE" d="M144.99 164.8h-70c-.5 0-.9-.4-.9-.9s.4-.9.9-.9h70c.5 0 .9.4.9.9s-.4.9-.9.9Z"/>
  <path fill="#4E7FDB" d="M107.27 92.51c-.45 0-.91-.07-1.35-.21-1-.32-1.72-1.05-3.17-2.49l-4.14-4.14c-.62-.62-.96-.96-1.23-1.4-.24-.39-.42-.82-.52-1.26-.12-.5-.12-.98-.12-1.85V48.91c0-1.01 0-1.57-.09-1.88-.1-.35-.17-.48-.38-.78-.2-.26-.85-.76-1.85-1.52-.75-.57-1.47-1.21-2.15-1.88-8.27-8.27-8.27-21.72 0-29.99 4-4 9.33-6.21 14.99-6.21s10.99 2.21 14.99 6.21 6.21 9.33 6.21 14.99-2.21 10.99-6.21 14.99c-.67.67-1.4 1.31-2.15 1.88-1 .76-1.65 1.26-1.84 1.52-.22.29-.29.43-.38.78-.09.32-.09.87-.09 1.88v15.43c0 .27-.11.52-.29.71l-4.06 4.05 4.06 4.05c.19.19.29.44.29.71 0 .27-.11.52-.29.71l-4.06 4.05 4.06 4.05c.19.19.29.44.29.71 0 .27-.11.52-.29.71l-5.71 5.71c-1.45 1.45-2.17 2.17-3.17 2.49-.44.14-.9.21-1.35.21v.02Zm0-83.86c-5.13 0-9.95 2-13.58 5.62-7.49 7.49-7.49 19.67 0 27.16.61.61 1.27 1.19 1.95 1.71 1.28.98 1.87 1.42 2.23 1.91.37.49.54.85.71 1.43.16.58.16 1.2.16 2.42v32.25c0 .74 0 1.12.07 1.39.06.25.15.48.28.69.15.24.41.5.94 1.03l4.14 4.14c1.18 1.18 1.83 1.83 2.37 2.01.47.15.99.15 1.46 0 .54-.17 1.19-.82 2.36-2l5.02-5.02-4.06-4.05a.99.99 0 0 1-.29-.71c0-.27.11-.52.29-.71l4.06-4.05-4.06-4.05a.99.99 0 0 1-.29-.71c0-.27.11-.52.29-.71l4.47-4.47V48.91c0-1.23 0-1.84.17-2.42.16-.58.34-.94.71-1.43.36-.48.94-.93 2.22-1.91.69-.53 1.34-1.1 1.96-1.71 3.63-3.63 5.62-8.45 5.62-13.58 0-5.13-2-9.95-5.62-13.58-3.62-3.63-8.45-5.62-13.58-5.62v-.01Zm-4.76 15.44c-.26 0-.51-.1-.71-.29a.996.996 0 0 1 0-1.41 7.685 7.685 0 0 1 5.47-2.27c2.07 0 4.01.8 5.47 2.27a.996.996 0 1 1-1.41 1.41 5.697 5.697 0 0 0-4.05-1.68c-1.53 0-2.97.6-4.05 1.68-.2.2-.45.29-.71.29h-.01Z"/>
  <path fill="#80A3EB" fill-opacity=".25" d="M129.47 13.56c7.89 7.89 7.89 20.68 0 28.57-.65.65-1.34 1.25-2.05 1.79-1.17.89-1.76 1.34-2.04 1.72-.29.39-.41.63-.55 1.1-.13.45-.13 1.02-.13 2.15v15.43l-4.76 4.76 4.76 4.76-4.76 4.76 4.76 4.76-5.71 5.71c-1.33 1.33-2 2-2.77 2.25-.68.22-1.41.22-2.08 0-.77-.25-1.44-.92-2.77-2.25l-4.14-4.14c-.58-.58-.87-.87-1.08-1.21-.19-.3-.32-.63-.4-.97-.09-.39-.09-.8-.09-1.62V48.89c0-1.14 0-1.7-.13-2.15a2.72 2.72 0 0 0-.55-1.1c-.28-.37-.87-.82-2.04-1.72-.71-.54-1.4-1.14-2.05-1.79-7.89-7.89-7.89-20.68 0-28.57 7.89-7.89 20.68-7.89 28.57 0h.01Z"/>
  <path fill="#75A4FE" d="M82.7 86.8c-2.15 0-3.9-1.75-3.9-3.9 0-1.84 1.28-3.39 3-3.79V67.9c0-.5.4-.9.9-.9s.9.4.9.9v11.21c1.72.41 3 1.95 3 3.79 0 2.15-1.75 3.9-3.9 3.9Zm0-6a2.1 2.1 0 1 0 0 4.2 2.1 2.1 0 0 0 0-4.2Zm53.73 6c-2.15 0-3.9-1.75-3.9-3.9 0-1.84 1.28-3.39 3-3.79V67.9c0-.5.4-.9.9-.9s.9.4.9.9v11.21c1.72.41 3 1.95 3 3.79 0 2.15-1.75 3.9-3.9 3.9Zm0-6a2.1 2.1 0 1 0 0 4.2 2.1 2.1 0 0 0 0-4.2Zm-65.87 2c-2.15 0-3.9-1.75-3.9-3.9 0-1.84 1.28-3.39 3-3.79V54.9c0-.77.3-1.5.85-2.05.55-.55 1.28-.85 2.05-.85h3c.5 0 .9.4.9.9s-.4.9-.9.9h-3c-.29 0-.57.12-.78.32-.21.2-.32.49-.32.78v20.21c1.72.41 3 1.95 3 3.79 0 2.15-1.75 3.9-3.9 3.9Zm0-6a2.1 2.1 0 1 0 0 4.2 2.1 2.1 0 0 0 0-4.2Zm78.01 6c-2.15 0-3.9-1.75-3.9-3.9 0-1.84 1.28-3.39 3-3.79V54.9a1.097 1.097 0 0 0-1.1-1.1h-3c-.5 0-.9-.4-.9-.9s.4-.9.9-.9h3c.77 0 1.5.3 2.05.85.55.55.85 1.28.85 2.05v20.21c1.72.41 3 1.95 3 3.79 0 2.15-1.75 3.9-3.9 3.9Zm0-6a2.1 2.1 0 1 0 0 4.2 2.1 2.1 0 0 0 0-4.2Z"/>
  <path fill="#5BC1A5" d="M16.02 24.8c-.37 0-.71-.23-.84-.58l-1.73-4.49c-.26-.67-.39-.99-.54-1.21-.13-.18-.29-.35-.49-.49-.21-.15-.55-.28-1.21-.53l-4.49-1.72a.898.898 0 0 1 0-1.68l4.49-1.72c.68-.26.99-.39 1.21-.54.18-.13.35-.3.49-.49.15-.21.28-.53.53-1.2l1.73-4.49a.898.898 0 0 1 1.68 0l1.73 4.49c.26.67.39.99.54 1.21.15.2.31.36.49.49.21.15.53.28 1.21.53l4.49 1.72a.898.898 0 0 1 0 1.68l-4.49 1.72c-.67.26-1 .39-1.22.54-.18.13-.35.29-.49.49-.15.22-.28.53-.54 1.2l-1.73 4.49c-.13.35-.47.58-.84.58h.02Zm-6.46-9.86 2.3.88c.75.28 1.19.46 1.6.74.38.27.69.58.93.93.28.41.46.85.75 1.6l.89 2.3.89-2.31c.29-.75.46-1.19.75-1.6.26-.37.58-.68.93-.93.41-.28.85-.45 1.6-.74l2.3-.88-2.3-.88c-.75-.29-1.19-.46-1.6-.74-.34-.24-.64-.54-.92-.91-.3-.43-.48-.87-.76-1.62l-.89-2.3-.89 2.31c-.29.75-.46 1.19-.74 1.59-.27.38-.58.69-.93.93-.41.28-.85.46-1.6.74l-2.3.88-.01.01ZM5.48 8.78c-.5 0-.9-.4-.9-.9v-1.6H2.99c-.5 0-.9-.4-.9-.9s.4-.9.9-.9h1.59V2.9c0-.5.4-.9.9-.9s.9.4.9.9v1.58h1.59c.5 0 .9.4.9.9s-.4.9-.9.9H6.38v1.6c0 .5-.4.9-.9.9Z"/>
</svg>
