<svg xmlns="http://www.w3.org/2000/svg" viewBox="0 0 220 184">
  <path fill="#7E90B0" d="M210.05 126.92c-.51 0-.92-.41-.92-.92v-1.77h-1.76c-.51 0-.92-.41-.92-.92s.41-.92.92-.92h1.76v-1.77c0-.51.41-.92.92-.92s.92.41.92.92v1.77h1.76c.51 0 .92.41.92.92s-.41.92-.92.92h-1.76V126c0 .51-.41.92-.92.92Z"/>
  <path fill="#7E90B0" fill-opacity=".6" d="M204.99 18.97c-1.9 0-3.45 1.53-3.45 3.43 0 1.9 1.55 3.43 3.45 3.43 1.9 0 3.45-1.53 3.45-3.43 0-1.9-1.55-3.43-3.45-3.43Zm0 5.66c-1.24 0-2.25-1-2.25-2.23s1-2.23 2.25-2.23 2.25 1 2.25 2.23-1 2.23-2.25 2.23Z"/>
  <path fill="#7E90B0" fill-opacity=".6" d="m213.15 24.17-1.3-1.46c0-.1.01-.19.01-.3 0-.1 0-.2-.01-.3l1.3-1.46c.51-.56.57-1.38.21-2.01l-.89-1.53c-.37-.63-1.1-.99-1.85-.83l-1.94.4c-.17-.1-.34-.2-.5-.29l-.63-1.88c-.24-.71-.9-1.18-1.65-1.18h-1.78c-.75 0-1.41.48-1.65 1.17l-.63 1.88c-.18.09-.36.19-.53.31l-1.92-.39c-.74-.15-1.48.2-1.85.82l-.88 1.53c-.38.65-.29 1.46.21 2.02l1.3 1.46c0 .1-.01.19-.01.3 0 .11 0 .2.01.3l-1.3 1.46c-.51.56-.57 1.38-.21 2.01l.89 1.53c.37.63 1.1.99 1.85.83l1.94-.4c.17.1.34.2.5.29l.63 1.88c.24.71.9 1.18 1.65 1.18h1.78c.75 0 1.41-.48 1.65-1.17l.63-1.88c.18-.09.36-.19.53-.31l1.92.39c.74.15 1.48-.2 1.85-.82l.88-1.53c.38-.65.29-1.46-.21-2.02Zm-.83 1.4-.88 1.53c-.12.21-.36.31-.58.26l-2.16-.44a.61.61 0 0 0-.47.1c-.25.18-.51.33-.8.46-.15.07-.26.2-.32.35l-.7 2.09a.56.56 0 0 1-.52.37h-1.78c-.24 0-.44-.15-.51-.37l-.7-2.09a.611.611 0 0 0-.29-.34c-.3-.15-.58-.31-.84-.48a.616.616 0 0 0-.46-.09l-2.16.44a.536.536 0 0 1-.58-.26l-.88-1.52a.51.51 0 0 1 .06-.61l1.47-1.65c.11-.12.16-.28.15-.44-.01-.17-.02-.32-.02-.48 0-.16.01-.31.02-.48a.593.593 0 0 0-.15-.44l-1.47-1.64a.515.515 0 0 1-.07-.61l.88-1.53c.12-.21.36-.31.58-.26l2.16.44c.16.03.33 0 .47-.1.25-.18.51-.33.8-.46.15-.07.26-.2.32-.35l.7-2.09a.56.56 0 0 1 .52-.37h1.78c.24 0 .44.15.51.37l.7 2.09c.05.15.16.27.29.34.3.15.58.31.84.49.13.09.3.12.46.09l2.16-.44c.23-.05.45.05.58.26l.88 1.52c.12.2.09.45-.06.61l-1.47 1.65c-.11.12-.16.28-.15.44.01.17.02.33.02.48 0 .16-.01.31-.02.48-.01.16.04.32.15.44l1.47 1.64c.15.17.18.42.06.61l.01-.01Z"/>
  <path fill="#7E90B0" d="M8.17 111.65c-.51 0-.92-.41-.92-.92v-3.17c0-.51.41-.92.92-.92s.92.41.92.92v3.17c0 .51-.41.92-.92.92Zm0 7.39c-.51 0-.92-.41-.92-.92v-3.17c0-.51.41-.92.92-.92s.92.41.92.92v3.17c0 .51-.41.92-.92.92Zm-2.1-5.28H2.92c-.51 0-.92-.41-.92-.92s.41-.92.92-.92h3.16c.51 0 .92.41.92.92s-.41.92-.92.92h-.01Zm7.37 0h-3.16c-.51 0-.92-.41-.92-.92s.41-.92.92-.92h3.16c.51 0 .92.41.92.92s-.41.92-.92.92Z"/>
  <path fill="#E56470" d="M192.92 64.95a4.28 4.28 0 0 1-4.27-4.27 4.28 4.28 0 0 1 4.27-4.27 4.28 4.28 0 0 1 4.27 4.27 4.28 4.28 0 0 1-4.27 4.27Zm0-6.71c-1.35 0-2.44 1.09-2.44 2.44 0 1.35 1.09 2.44 2.44 2.44 1.35 0 2.44-1.09 2.44-2.44 0-1.35-1.09-2.44-2.44-2.44ZM35.87 163.66a2.88 2.88 0 1 1 .001-5.761 2.88 2.88 0 0 1-.001 5.761Zm0-3.93a1.05 1.05 0 1 0 0 2.1 1.05 1.05 0 0 0 0-2.1Z"/>
  <path fill="#75A4FE" d="M167.04 164.81h-3.08c-.51 0-.92-.41-.92-.92s.41-.92.92-.92h3.08c.51 0 .92.41.92.92s-.41.92-.92.92Zm-8.11 0h-9.94c-.51 0-.92-.41-.92-.92s.41-.92.92-.92h9.94c.51 0 .92.41.92.92s-.41.92-.92.92Zm-39.48 0H82.38c-.51 0-.92-.41-.92-.92s.41-.92.92-.92h37.07c.51 0 .92.41.92.92s-.41.92-.92.92Zm-50.86 0h-5.71c-.51 0-.92-.41-.92-.92s.41-.92.92-.92h5.71c.51 0 .92.41.92.92s-.41.92-.92.92Zm105.32-41.22H46.35c-.5 0-.9-.4-.9-.9s.4-.9.9-.9h127.56c.5 0 .9.4.9.9s-.4.9-.9.9Z"/>
  <path fill="#75A4FE" d="M123.99 136.8h-28c-23.11 0-34.72 0-43.08-5.86a32.193 32.193 0 0 1-7.96-7.96c-5.86-8.37-5.86-19.97-5.86-43.08s0-34.71 5.86-43.08c2.17-3.1 4.85-5.78 7.96-7.96 4.54-3.18 10.05-4.74 19.02-5.4.5-.03.93.34.96.83.04.5-.34.93-.83.96-8.62.63-13.87 2.1-18.12 5.08a30.446 30.446 0 0 0-7.51 7.51c-5.53 7.9-5.53 19.31-5.53 42.05s0 34.15 5.53 42.05c2.05 2.93 4.58 5.46 7.51 7.52 7.9 5.53 19.32 5.53 42.05 5.53h28c22.74 0 34.15 0 42.05-5.53 2.93-2.05 5.46-4.58 7.51-7.51 5.53-7.9 5.53-19.32 5.53-42.05 0-22.73 0-34.15-5.53-42.05a30.446 30.446 0 0 0-7.51-7.51c-4.38-3.06-9.91-4.55-19.11-5.14a.899.899 0 0 1-.84-.96c.03-.5.46-.85.96-.84 9.55.61 15.36 2.2 20.03 5.47 3.1 2.17 5.78 4.85 7.96 7.96 5.86 8.37 5.86 19.97 5.86 43.08s0 34.72-5.86 43.08a32.193 32.193 0 0 1-7.96 7.96c-8.37 5.86-19.97 5.86-43.08 5.86l-.01-.01Z"/>
  <path fill="#75A4FE" d="M92.49 164.8a.899.899 0 0 1-.72-1.44l2.21-2.93c4.81-6.38 5.99-16.11 2.94-24.21a.898.898 0 1 1 1.68-.64c3.26 8.65 1.98 19.07-3.19 25.93l-2.21 2.93c-.18.24-.45.36-.72.36h.01Zm35.01 0c-.27 0-.54-.12-.72-.36l-2.21-2.93c-5.17-6.85-6.45-17.27-3.19-25.93.17-.46.69-.7 1.16-.52.46.17.7.69.52 1.16-3.05 8.1-1.87 17.83 2.94 24.21l2.21 2.93a.899.899 0 0 1-.72 1.44h.01Z"/>
  <path fill="#75A4FE" d="M144.99 164.8h-70c-.5 0-.9-.4-.9-.9s.4-.9.9-.9h70c.5 0 .9.4.9.9s-.4.9-.9.9Z"/>
  <path fill="#5BC1A5" d="M16.02 24.8c-.37 0-.71-.23-.84-.58l-1.73-4.49c-.27-.71-.4-1-.54-1.21-.13-.18-.3-.35-.49-.49-.21-.15-.53-.28-1.2-.53l-4.49-1.72a.898.898 0 0 1 0-1.68l4.49-1.72c.67-.26.99-.38 1.21-.54.18-.13.35-.29.49-.49.15-.21.28-.53.53-1.2l1.73-4.49a.898.898 0 0 1 1.68 0l1.73 4.49c.26.67.39.99.54 1.21.15.19.31.36.49.49.21.15.53.28 1.2.53l4.49 1.72a.898.898 0 0 1 0 1.68l-4.49 1.72c-.69.27-1 .39-1.21.54-.18.13-.35.29-.49.49s-.26.49-.53 1.2l-1.73 4.49c-.13.35-.47.58-.84.58Zm-6.46-9.86 2.3.88c.75.28 1.19.46 1.6.74.37.27.68.58.93.93.29.41.46.85.75 1.6l.89 2.3.89-2.31c.28-.74.46-1.19.74-1.59.27-.38.58-.69.93-.93.4-.28.85-.45 1.6-.74l2.3-.88-2.3-.88c-.75-.28-1.19-.46-1.6-.74-.34-.24-.64-.54-.92-.91-.3-.44-.48-.88-.76-1.62l-.89-2.31-.89 2.31c-.29.74-.46 1.18-.74 1.59-.27.38-.58.69-.93.93-.41.28-.85.46-1.6.74l-2.3.88v.01ZM5.48 8.78c-.5 0-.9-.4-.9-.9v-1.6H2.99c-.5 0-.9-.4-.9-.9s.4-.9.9-.9h1.59V2.9c0-.5.4-.9.9-.9s.9.4.9.9v1.58h1.59c.5 0 .9.4.9.9s-.4.9-.9.9H6.38v1.6c0 .5-.4.9-.9.9Z"/>
  <path fill="#80A3EB" fill-opacity=".25" d="M145.3 65.9c0-.84-.06-1.74-.11-2.58l7.34-8.12c1.65-1.79 1.88-4.42.68-6.5l-4.44-7.56c-1.25-2.07-3.64-3.19-6.09-2.69l-10.82 2.18c-1.42-.95-2.96-1.79-4.5-2.58l-3.53-10.36c-.8-2.3-2.96-3.81-5.41-3.81h-8.88c-2.45 0-4.61 1.57-5.41 3.81l-3.53 10.36c-1.59.73-3.07 1.57-4.5 2.58l-10.82-2.18c-2.39-.5-4.84.62-6.09 2.69l-4.44 7.56c-1.25 2.07-.97 4.7.68 6.5l7.34 8.12c-.06.84-.11 1.68-.11 2.58 0 .9.06 1.74.11 2.58l-7.34 8.12c-1.65 1.79-1.88 4.42-.68 6.5l4.44 7.56c1.25 2.07 3.64 3.19 6.09 2.69l10.82-2.18c1.42.95 2.96 1.79 4.5 2.58l3.53 10.36c.8 2.3 2.96 3.81 5.41 3.81h8.88c2.45 0 4.61-1.57 5.41-3.81l3.53-10.36c1.59-.73 3.07-1.57 4.5-2.58l10.82 2.18c2.39.5 4.84-.62 6.09-2.69l4.44-7.56c1.25-2.07.97-4.7-.68-6.5l-7.34-8.12c.06-.84.11-1.68.11-2.58Z"/>
  <path fill="#4E7FDB" d="M114.43 105.9h-8.88c-2.87 0-5.42-1.8-6.35-4.48l-3.4-9.98c-1.57-.81-2.8-1.51-3.89-2.22l-10.41 2.1c-2.84.58-5.64-.66-7.14-3.15l-4.45-7.57c-1.44-2.5-1.12-5.59.81-7.68l7.05-7.8c-.05-.71-.09-1.44-.09-2.22 0-.78.04-1.51.09-2.22l-7.06-7.81c-1.96-2.13-2.29-5.22-.8-7.68l4.43-7.55c1.5-2.48 4.37-3.75 7.16-3.16l10.39 2.1c1.23-.84 2.51-1.58 3.91-2.24l3.39-9.96a6.759 6.759 0 0 1 6.35-4.49h8.88c2.87 0 5.42 1.8 6.35 4.48l3.4 9.98c1.57.81 2.8 1.51 3.89 2.22l10.41-2.1c2.83-.58 5.64.65 7.15 3.15l4.45 7.57c1.44 2.5 1.12 5.59-.81 7.68l-7.05 7.8c.05.73.09 1.49.09 2.22 0 .78-.04 1.53-.09 2.22l7.06 7.8c1.96 2.13 2.29 5.22.8 7.68l-4.43 7.55c-1.5 2.48-4.37 3.75-7.16 3.16l-10.39-2.1c-1.23.84-2.51 1.58-3.91 2.24l-3.39 9.96a6.759 6.759 0 0 1-6.35 4.49l-.01.01ZM92.12 87.16c.2 0 .39.06.56.17 1.19.8 2.55 1.57 4.39 2.52.23.12.41.32.49.57l3.53 10.36c.65 1.87 2.44 3.13 4.46 3.13h8.88c2 0 3.8-1.26 4.47-3.14l3.53-10.35c.09-.26.28-.47.53-.59 1.57-.72 2.99-1.53 4.33-2.48.22-.16.51-.21.78-.16l10.82 2.18c1.96.42 3.98-.48 5.04-2.23l4.43-7.55c1.03-1.7.8-3.83-.56-5.31l-7.35-8.13c-.18-.2-.28-.47-.26-.74.06-.8.11-1.63.11-2.51 0-.81-.06-1.68-.11-2.51-.02-.27.07-.54.26-.74l7.34-8.12c1.34-1.45 1.56-3.59.56-5.33l-4.44-7.55c-1.06-1.75-3.04-2.63-5.03-2.22l-10.82 2.19c-.26.05-.53 0-.75-.15-1.19-.8-2.55-1.57-4.39-2.52a.986.986 0 0 1-.49-.57l-3.53-10.36c-.65-1.87-2.44-3.13-4.46-3.13h-8.88c-2 0-3.8 1.26-4.47 3.14l-3.53 10.35c-.09.26-.28.47-.53.59-1.57.72-2.99 1.53-4.33 2.48a.98.98 0 0 1-.78.16L81.1 36.43c-1.96-.41-3.98.48-5.04 2.23l-4.43 7.55c-1.03 1.7-.8 3.83.56 5.31l7.35 8.13c.18.2.27.47.26.74-.06.85-.11 1.65-.11 2.51 0 .86.06 1.7.11 2.51.02.27-.07.54-.26.74l-7.34 8.12c-1.34 1.45-1.56 3.59-.56 5.33l4.44 7.55c1.06 1.75 3.03 2.62 5.03 2.22l10.82-2.19c.07-.01.13-.02.2-.02h-.01Z"/>
  <path fill="#75A4FE" d="M116.73 79.12h-14.47c-3.08 0-4.63 0-6-.7a6.376 6.376 0 0 1-2.79-2.79c-.7-1.37-.7-2.92-.7-6v-2.07c0-.67.55-1.22 1.22-1.22.67 0 1.22.55 1.22 1.22v2.07c0 2.69 0 4.05.43 4.89.38.75.98 1.34 1.72 1.72.84.43 2.2.43 4.89.43h14.47c2.7 0 4.05 0 4.89-.43.75-.38 1.34-.98 1.73-1.72.43-.84.43-2.2.43-4.89v-2.07c0-.67.55-1.22 1.22-1.22.67 0 1.22.55 1.22 1.22v2.07c0 3.08 0 4.63-.7 6a6.376 6.376 0 0 1-2.79 2.79c-1.37.7-2.91.7-6 .7h.01Zm-7.24-10.33a1.216 1.216 0 0 1-.81-.31l-.02-.02-.01-.01-8.61-8.61c-.48-.48-.48-1.25 0-1.72.48-.48 1.25-.48 1.72 0l6.53 6.53V46.93c0-.67.55-1.22 1.22-1.22.67 0 1.22.55 1.22 1.22v17.72l6.53-6.53c.47-.48 1.25-.48 1.72 0 .48.48.48 1.25 0 1.72l-8.61 8.61-.01.01s0 .01-.01.02c-.11.1-.22.17-.35.22-.14.06-.3.09-.46.09h-.05Z"/>
</svg>
