<svg xmlns="http://www.w3.org/2000/svg" viewBox="0 0 220 184">
  <path fill="#7E90B0" d="M10.17 104.27c-.51 0-.92-.41-.92-.92v-3.17c0-.51.41-.92.92-.92s.92.41.92.92v3.17c0 .51-.41.92-.92.92Zm0 7.39c-.51 0-.92-.41-.92-.92v-3.17c0-.51.41-.92.92-.92s.92.41.92.92v3.17c0 .51-.41.92-.92.92Zm-2.1-5.28H4.92c-.51 0-.92-.41-.92-.92s.41-.92.92-.92h3.16c.51 0 .92.41.92.92s-.41.92-.92.92h-.01Zm7.37 0h-3.16c-.51 0-.92-.41-.92-.92s.41-.92.92-.92h3.16c.51 0 .92.41.92.92s-.41.92-.92.92Zm195.97-36.61c-.44 0-.8-.36-.8-.8v-2.48c0-.44.36-.8.8-.8.44 0 .8.36.8.8v2.48c0 .44-.36.8-.8.8Zm0 5.79c-.44 0-.8-.36-.8-.8v-2.48c0-.44.36-.8.8-.8.44 0 .8.36.8.8v2.48c0 .44-.36.8-.8.8Zm-1.65-4.14h-2.48c-.44 0-.8-.36-.8-.8 0-.44.36-.8.8-.8h2.48c.44 0 .8.36.8.8 0 .44-.36.8-.8.8Zm5.78 0h-2.47c-.44 0-.8-.36-.8-.8 0-.44.36-.8.8-.8h2.47c.44 0 .8.36.8.8 0 .44-.36.8-.8.8Zm-8.83 84.41c-.51 0-.92-.41-.92-.92v-1.77h-1.76c-.51 0-.92-.41-.92-.92s.41-.92.92-.92h1.76v-1.77c0-.51.41-.92.92-.92s.92.41.92.92v1.77h1.76c.51 0 .92.41.92.92s-.41.92-.92.92h-1.76v1.77c0 .51-.41.92-.92.92Z"/>
  <path fill="#5BC1A5" d="M23.06 25.55c-.38 0-.72-.23-.85-.59l-1.29-3.36c-.18-.46-.27-.71-.37-.85-.08-.12-.19-.22-.31-.31-.13-.1-.38-.19-.83-.36l-3.37-1.3a.93.93 0 0 1-.59-.85c0-.37.23-.72.59-.85l3.35-1.29c.46-.18.71-.28.84-.37.12-.09.23-.19.31-.31.09-.13.19-.38.36-.84l1.29-3.37a.93.93 0 0 1 .85-.59c.37 0 .72.23.85.59l1.29 3.36c.19.49.28.72.37.85.08.12.19.22.31.31.13.1.38.19.83.37l3.37 1.3c.35.14.59.47.59.85s-.23.72-.59.85l-3.35 1.29c-.46.18-.71.28-.84.37-.12.09-.23.19-.31.31-.09.13-.18.35-.37.85l-1.29 3.36a.93.93 0 0 1-.85.59l.01-.01Zm-4.15-7.62 1.14.44c.61.23.93.36 1.25.59.28.2.53.45.74.74.23.32.36.65.58 1.24l.44 1.15.44-1.14c.23-.6.36-.93.59-1.25.21-.29.46-.54.74-.74.32-.23.64-.35 1.23-.58l1.16-.45-1.14-.44c-.61-.23-.93-.36-1.25-.59-.28-.2-.53-.45-.74-.74-.23-.33-.36-.66-.59-1.25l-.44-1.14-.44 1.14c-.23.6-.36.93-.58 1.25-.21.29-.46.54-.74.74-.32.23-.64.35-1.23.58l-1.16.45Zm-3.72-4.37c-.51 0-.92-.41-.92-.92v-.95h-.95c-.51 0-.92-.41-.92-.92s.41-.92.92-.92h.95V8.9c0-.51.41-.92.92-.92s.92.41.92.92v.95h.94c.51 0 .92.41.92.92s-.41.92-.92.92h-.94v.95c0 .51-.41.92-.92.92Z"/>
  <path fill="#E56470" d="M182.7 20.32c-2.07 0-3.75-1.68-3.75-3.75 0-2.07 1.68-3.75 3.75-3.75 2.07 0 3.75 1.68 3.75 3.75 0 2.07-1.68 3.75-3.75 3.75Zm0-5.68a1.92 1.92 0 1 0 .001 3.841 1.92 1.92 0 0 0-.001-3.84Zm-135 155.23a2.88 2.88 0 1 1 .002-5.761 2.88 2.88 0 0 1-.002 5.761Zm0-3.93a1.05 1.05 0 1 0 0 2.1 1.05 1.05 0 0 0 0-2.1Z"/>
  <path fill="#75A4FE" d="M132.55 153.78H93.4c-10.42 0-15.66 0-19.8-2.1a19.206 19.206 0 0 1-8.46-8.43c-2.11-4.13-2.11-9.35-2.11-19.74v-4.27c0-.55.45-1 1-1s1 .45 1 1v4.27c0 10.08 0 15.13 1.89 18.83 1.67 3.28 4.3 5.89 7.58 7.56 3.71 1.89 8.79 1.89 18.89 1.89h39.15c10.11 0 15.18 0 18.89-1.89 3.29-1.67 5.91-4.28 7.58-7.56 1.89-3.7 1.89-8.76 1.89-18.83V60.07c0-10.08 0-15.13-1.89-18.83-1.68-3.28-4.3-5.89-7.58-7.56-3.71-1.89-8.78-1.89-18.89-1.89h-24.52c-.55 0-1-.45-1-1s.45-1 1-1h24.52c10.42 0 15.66 0 19.8 2.1 3.67 1.86 6.59 4.78 8.46 8.43 2.11 4.13 2.11 9.35 2.11 19.74v63.44c0 10.4 0 15.61-2.11 19.74a19.155 19.155 0 0 1-8.46 8.43c-4.14 2.1-9.37 2.1-19.8 2.1l.01.01Zm-5.11-30.5H88.5c-.55 0-1-.45-1-1s.45-1 1-1h38.94c.55 0 1 .45 1 1s-.45 1-1 1Zm10-24.4h-35.53c-.55 0-1-.45-1-1s.45-1 1-1h35.53c.55 0 1 .45 1 1s-.45 1-1 1Zm0-24.4h-29.41c-.55 0-1-.45-1-1s.45-1 1-1h29.41c.55 0 1 .45 1 1s-.45 1-1 1Z"/>
  <path fill="#E56470" d="M169.91 157.77c16.02 0 29-12.98 29-29s-12.98-29-29-29-29 12.98-29 29 12.98 29 29 29Z"/>
  <path fill="#fff" d="M177.47 142.07h-15.12c-2.67 0-4.01 0-5.03-.74a3.936 3.936 0 0 1-1.61-2.72c-.15-1.25.49-2.43 1.78-4.76l7.56-13.74c1.37-2.48 2.05-3.73 3.24-4.27 1.03-.47 2.22-.47 3.25 0 1.19.54 1.87 1.79 3.24 4.27l7.56 13.74c1.29 2.34 1.93 3.51 1.78 4.76a3.936 3.936 0 0 1-1.61 2.72c-1.03.74-2.37.74-5.03.74h-.01Zm-7.56-24.15c-.21 0-.42.04-.61.13-.45.2-1.15 1.47-2.11 3.22l-7.56 13.74c-.9 1.64-1.55 2.82-1.5 3.3.05.41.27.79.61 1.03.39.28 1.74.28 3.61.28h15.12c1.87 0 3.22 0 3.61-.28.34-.24.56-.62.61-1.03.06-.48-.59-1.66-1.5-3.3l-7.56-13.74c-.96-1.75-1.66-3.02-2.11-3.22a1.5 1.5 0 0 0-.62-.13h.01Z"/>
  <path fill="#fff" d="M169.91 136.54c-.77 0-1.41-.63-1.41-1.4 0-.77.62-1.4 1.39-1.4h.02c.77 0 1.4.63 1.4 1.4 0 .77-.63 1.4-1.4 1.4Zm-.02-5.06c-.67 0-1.22-.55-1.22-1.22v-5.39c0-.67.55-1.22 1.22-1.22.67 0 1.22.55 1.22 1.22v5.39c0 .67-.55 1.22-1.22 1.22Z"/>
  <path fill="#4E7FDB" d="M87.91 104.92c-.33 0-.67-.09-.97-.27l-10.47-6.26s-.07-.02-.1 0l-10.47 6.26c-.6.36-1.31.36-1.91.02-.6-.34-.96-.96-.96-1.65V74.78c0-.5.4-.9.9-.9s.9.4.9.9v28.24c.1.11.13.09.15.08l10.47-6.26c.6-.36 1.35-.36 1.95 0l10.47 6.26s.05.03.1 0l.05-28.82c0-.5.4-.9.9-.9s.9.4.9.9v28.74c0 .69-.36 1.31-.96 1.65-.29.17-.62.25-.94.25h-.01Z"/>
  <path fill="#E56470" fill-opacity=".25" d="M76.68 30.97c.79-.77 1.18-1.15 1.63-1.3.4-.13.82-.13 1.22 0 .45.14.84.53 1.63 1.3l1.99 1.95c.47.46.71.69.98.83.25.12.51.2.79.21.31.02.63-.06 1.27-.23l2.7-.69c1.06-.27 1.6-.41 2.06-.31a2 2 0 0 1 1.06.61c.32.35.47.88.76 1.94l.75 2.68c.18.63.27.95.44 1.21.15.23.35.43.58.58.26.17.58.26 1.21.44l2.68.75c1.06.3 1.59.44 1.94.76a2 2 0 0 1 .61 1.06c.1.46-.04 1-.31 2.06l-.69 2.7c-.16.64-.25.96-.23 1.27.02.27.09.54.21.79.14.28.37.51.83.98l1.95 1.99c.77.79 1.15 1.18 1.3 1.63.13.4.13.82 0 1.22-.15.45-.53.84-1.3 1.63l-1.95 1.99c-.46.47-.69.7-.83.98-.12.25-.2.51-.21.79-.02.31.06.63.23 1.27l.69 2.7c.27 1.06.41 1.6.31 2.06a2 2 0 0 1-.61 1.06c-.35.32-.88.47-1.94.76l-2.68.75c-.63.18-.95.27-1.21.44-.23.15-.43.35-.58.58-.17.26-.26.58-.44 1.21l-.75 2.68c-.3 1.06-.44 1.59-.76 1.94a2 2 0 0 1-1.06.61c-.46.1-1-.04-2.06-.31l-2.7-.69c-.64-.16-.96-.25-1.27-.23-.27.02-.54.09-.79.21-.28.14-.51.37-.98.83l-1.99 1.95c-.79.77-1.18 1.15-1.63 1.3-.4.13-.82.13-1.22 0-.45-.14-.84-.53-1.63-1.3l-1.99-1.95c-.47-.46-.71-.69-.98-.83-.25-.12-.51-.2-.79-.21-.31-.02-.63.06-1.27.23l-2.7.69c-1.06.27-1.6.41-2.06.31a2 2 0 0 1-1.06-.61c-.32-.35-.47-.88-.76-1.94l-.75-2.68c-.18-.63-.27-.95-.44-1.21-.15-.23-.35-.43-.58-.58-.26-.17-.58-.26-1.21-.44l-2.68-.75c-1.06-.3-1.59-.44-1.94-.76a2 2 0 0 1-.61-1.06c-.1-.46.04-1 .31-2.06l.69-2.7c.16-.64.25-.96.23-1.27-.02-.27-.09-.54-.21-.79-.14-.28-.37-.51-.83-.98l-1.95-1.99c-.77-.79-1.15-1.18-1.3-1.63-.13-.4-.13-.82 0-1.22.14-.45.53-.84 1.3-1.63l1.95-1.99c.46-.47.69-.7.83-.98.12-.25.2-.51.21-.79.02-.31-.06-.63-.23-1.27l-.69-2.7c-.27-1.06-.41-1.6-.31-2.06a2 2 0 0 1 .61-1.06c.35-.32.88-.47 1.94-.76l2.68-.75c.63-.18.95-.27 1.21-.44.23-.15.43-.35.58-.58.17-.26.26-.58.44-1.21l.75-2.68c.3-1.06.44-1.59.76-1.94a2 2 0 0 1 1.06-.61c.46-.1 1 .04 2.06.31l2.7.69c.64.16.96.25 1.27.23.27-.02.54-.09.79-.21.28-.14.51-.37.98-.83l1.99-1.95Z"/>
  <path fill="#4E7FDB" d="M75.91 78.88c-.3 0-.59-.05-.88-.14-.65-.21-1.12-.67-1.98-1.51l-1.99-1.95c-.39-.39-.61-.59-.76-.67a1.11 1.11 0 0 0-.43-.12c-.18 0-.48.07-.99.2l-2.7.69c-1.16.3-1.8.46-2.48.32-.59-.13-1.12-.43-1.53-.88-.46-.51-.64-1.15-.96-2.3l-.75-2.68c-.15-.54-.23-.82-.32-.96-.08-.12-.19-.23-.32-.32-.14-.09-.43-.17-.95-.32l-2.69-.75c-1.16-.32-1.79-.5-2.3-.96-.45-.41-.76-.94-.88-1.53-.15-.67.02-1.31.32-2.47l.69-2.7c.14-.55.21-.83.2-.99 0-.15-.05-.3-.12-.43-.08-.15-.29-.37-.67-.76l-1.95-1.99c-.84-.86-1.3-1.33-1.51-1.98-.18-.58-.18-1.19 0-1.77.21-.65.67-1.13 1.51-1.98l1.95-1.99c.38-.39.59-.6.67-.76.07-.14.11-.28.12-.43 0-.17-.06-.44-.2-.99l-.69-2.7c-.3-1.16-.46-1.8-.32-2.48.13-.59.43-1.12.88-1.53.51-.46 1.14-.64 2.3-.96l2.69-.75c.55-.15.82-.23.96-.32.13-.08.24-.19.32-.32.09-.14.17-.42.32-.94l.75-2.7c.32-1.16.5-1.79.96-2.3.41-.45.94-.75 1.53-.88.67-.15 1.3.02 2.46.31l2.71.7c.51.13.81.21.99.2a1 1 0 0 0 .44-.12c.15-.08.37-.29.76-.67l1.99-1.95c.86-.84 1.33-1.3 1.99-1.51a2.82 2.82 0 0 1 1.77 0c.65.21 1.13.67 1.98 1.51l1.99 1.95c.39.38.61.59.76.67.13.07.28.11.43.12.18 0 .48-.07.99-.2l2.7-.69c1.17-.3 1.81-.46 2.48-.32.59.13 1.12.44 1.53.88.46.51.64 1.15.96 2.3l.75 2.68c.15.53.23.82.32.96.08.13.19.24.32.32.14.09.41.17.96.32l2.68.75c1.16.32 1.8.5 2.3.96.45.41.76.94.88 1.53.15.67-.02 1.31-.32 2.47l-.69 2.7c-.14.53-.21.82-.2.99 0 .15.05.3.12.43.08.15.29.37.67.76l1.95 1.99c.85.86 1.3 1.33 1.51 1.98.18.58.18 1.19 0 1.77-.21.65-.67 1.12-1.5 1.97l-1.96 2c-.38.39-.59.61-.67.76-.07.14-.11.28-.12.43 0 .17.06.46.2.98l.7 2.71c.3 1.16.46 1.8.32 2.48-.13.59-.43 1.12-.88 1.53-.51.46-1.15.64-2.3.96l-2.68.75c-.53.15-.82.23-.96.32-.13.08-.24.19-.32.32-.09.14-.17.42-.32.94l-.75 2.7c-.32 1.16-.5 1.79-.96 2.3-.41.45-.94.76-1.53.88-.67.15-1.31-.02-2.47-.32l-2.7-.69c-.51-.13-.8-.2-.99-.2-.15 0-.3.05-.43.12-.15.08-.36.28-.75.66l-2 1.96c-.86.84-1.33 1.3-1.99 1.51-.29.09-.59.14-.88.14h-.04Zm-6.08-6.19h.14c.4.02.79.13 1.14.31.4.2.68.48 1.2.98l2 1.96c.64.63 1.03 1 1.27 1.08.22.07.45.07.67 0 .25-.08.63-.46 1.27-1.08l1.99-1.95c.52-.51.81-.79 1.21-.99.35-.18.74-.28 1.14-.31.44-.03.84.07 1.54.26l2.7.69c.87.22 1.4.36 1.65.3.23-.05.43-.16.58-.34.18-.19.33-.74.56-1.58l.75-2.68c.2-.71.31-1.09.55-1.46.22-.33.5-.62.84-.84.38-.25.76-.35 1.46-.55l2.69-.75c.86-.24 1.38-.38 1.58-.56.17-.16.29-.36.34-.58.06-.26-.08-.78-.3-1.65l-.69-2.7c-.18-.71-.28-1.09-.25-1.54.02-.4.12-.78.31-1.14.2-.4.48-.69.99-1.21l1.95-1.99c.63-.64 1.01-1.03 1.08-1.27.07-.22.07-.45 0-.67-.08-.25-.45-.63-1.07-1.26l-1.96-2c-.51-.52-.79-.81-.99-1.21-.18-.36-.28-.74-.31-1.14-.03-.44.07-.83.25-1.52l.7-2.71c.22-.87.36-1.39.3-1.65-.05-.23-.16-.43-.34-.58-.19-.17-.71-.32-1.57-.56l-2.69-.75c-.7-.2-1.08-.3-1.46-.55-.34-.22-.62-.5-.84-.84-.24-.37-.35-.75-.54-1.44l-.75-2.71c-.24-.86-.38-1.38-.56-1.58a1.15 1.15 0 0 0-.58-.34c-.26-.05-.77.08-1.63.3l-2.71.7c-.7.18-1.09.29-1.54.25-.4-.02-.78-.12-1.14-.3-.4-.21-.69-.49-1.21-.99l-1.99-1.95c-.64-.63-1.03-1-1.27-1.08-.22-.07-.45-.07-.67 0-.25.08-.63.46-1.27 1.08l-1.99 1.95c-.52.51-.8.79-1.21.99-.36.18-.75.28-1.14.31-.44.03-.84-.07-1.54-.25l-2.7-.69c-.87-.22-1.39-.36-1.65-.3-.23.05-.43.17-.58.34-.18.19-.32.71-.56 1.58l-.75 2.68c-.2.71-.31 1.09-.55 1.46-.22.33-.5.62-.84.84-.38.25-.76.35-1.46.55l-2.68.75c-.86.24-1.38.39-1.58.56-.17.16-.29.36-.34.58-.06.26.08.78.3 1.65l.69 2.7c.17.68.28 1.09.25 1.54-.02.4-.12.78-.31 1.14-.2.4-.48.69-.99 1.21l-1.95 1.99c-.63.64-1 1.03-1.08 1.27-.07.22-.07.45 0 .67.08.25.46.63 1.08 1.27l1.95 1.99c.51.52.79.8.99 1.21.18.36.28.75.31 1.15.03.45-.08.86-.25 1.54l-.69 2.7c-.22.87-.36 1.39-.3 1.65.05.23.16.43.34.58.19.17.71.32 1.58.56l2.68.75c.7.2 1.09.3 1.46.55.33.22.62.5.83.83.24.37.35.75.54 1.44l.75 2.71c.23.83.38 1.38.56 1.58.16.17.36.29.58.34.26.06.78-.08 1.65-.3l2.7-.69c.63-.16 1.01-.26 1.4-.26l-.02-.03Zm3.2-14.06c-.3 0-.6-.05-.89-.14-.66-.22-1.14-.69-2-1.56l-3.51-3.51a.9.9 0 0 1 0-1.27.9.9 0 0 1 1.27 0l3.51 3.51c.65.65 1.04 1.04 1.29 1.12.22.07.46.07.68 0 .25-.08.64-.47 1.28-1.11l9.3-9.3a.9.9 0 0 1 1.27 1.27l-9.29 9.29c-.87.87-1.34 1.34-2 1.56-.29.09-.59.14-.9.14h-.01Z"/>
</svg>
