<svg xmlns="http://www.w3.org/2000/svg" viewBox="0 0 220 184">
  <path fill="#7E90B0" d="M10.17 104.41c-.51 0-.92-.41-.92-.92v-3.17c0-.51.41-.92.92-.92s.92.41.92.92v3.17c0 .51-.41.92-.92.92Zm0 7.38c-.51 0-.92-.41-.92-.92v-3.17c0-.51.41-.92.92-.92s.92.41.92.92v3.17c0 .51-.41.92-.92.92Zm-2.1-5.27H4.92c-.51 0-.92-.41-.92-.92s.41-.92.92-.92h3.16c.51 0 .92.41.92.92s-.41.92-.92.92h-.01Zm7.37 0h-3.16c-.51 0-.92-.41-.92-.92s.41-.92.92-.92h3.16c.51 0 .92.41.92.92s-.41.92-.92.92Zm195.97 59.39c-.44 0-.8-.36-.8-.8v-2.48c0-.44.36-.8.8-.8.44 0 .8.36.8.8v2.48c0 .44-.36.8-.8.8Zm0 5.79c-.44 0-.8-.36-.8-.8v-2.48c0-.44.36-.8.8-.8.44 0 .8.36.8.8v2.48c0 .44-.36.8-.8.8Zm-1.65-4.14h-2.48c-.44 0-.8-.36-.8-.8 0-.44.36-.8.8-.8h2.48c.44 0 .8.36.8.8 0 .44-.36.8-.8.8Zm5.78 0h-2.47c-.44 0-.8-.36-.8-.8 0-.44.36-.8.8-.8h2.47c.44 0 .8.36.8.8 0 .44-.36.8-.8.8ZM36.59 13.2c-.51 0-.92-.41-.92-.92v-1.77h-1.76c-.51 0-.92-.41-.92-.92s.41-.92.92-.92h1.76V6.92c0-.51.41-.92.92-.92s.92.41.92.92v1.77h1.76c.51 0 .92.41.92.92s-.41.92-.92.92h-1.76v1.77c0 .51-.41.92-.92.92v-.02Z"/>
  <path fill="#5BC1A5" d="M209.64 97.55c-.38 0-.72-.23-.85-.59l-1.29-3.36c-.19-.49-.28-.72-.37-.85-.08-.12-.19-.22-.31-.31-.13-.09-.35-.18-.84-.37l-3.36-1.3a.93.93 0 0 1-.59-.85c0-.37.23-.72.59-.85l3.35-1.29c.5-.19.72-.28.85-.37.12-.08.22-.19.31-.31.09-.13.18-.36.37-.85l1.29-3.36a.93.93 0 0 1 .85-.59c.37 0 .72.23.85.59l1.29 3.36c.18.46.27.71.37.85.09.12.19.22.31.31.13.1.38.19.82.36l3.38 1.3c.35.14.59.47.59.85s-.23.72-.59.85l-3.36 1.29c-.47.18-.71.28-.84.37-.12.09-.23.19-.32.32s-.19.38-.36.83l-1.29 3.37a.93.93 0 0 1-.85.59v.01Zm-4.15-7.62 1.14.44c.6.23.93.36 1.25.59.29.2.54.45.74.74.23.33.36.65.59 1.25l.44 1.14.44-1.14c.23-.6.36-.93.58-1.25.21-.29.46-.54.74-.75.31-.23.64-.35 1.22-.58l1.17-.45-1.14-.44c-.61-.24-.93-.36-1.25-.59-.28-.2-.53-.45-.74-.74-.23-.33-.36-.65-.58-1.25l-.44-1.15-.44 1.14c-.23.6-.36.93-.59 1.25-.2.29-.45.54-.74.74-.32.23-.65.36-1.24.58l-1.15.44v.03Zm-3.72-4.37c-.51 0-.92-.41-.92-.92v-.95h-.95c-.51 0-.92-.41-.92-.92s.41-.92.92-.92h.95v-.95c0-.51.41-.92.92-.92s.92.41.92.92v.95h.95c.51 0 .92.41.92.92s-.41.92-.92.92h-.95v.95c0 .51-.41.92-.92.92Z"/>
  <path fill="#75A4FE" d="M151.16 148.92H68.67c-8.11 0-12.19 0-15.44-1.66a15.159 15.159 0 0 1-6.65-6.65c-1.66-3.26-1.66-7.33-1.66-15.44v-4.27c0-8.12 0-12.19 1.66-15.44 1.47-2.88 3.77-5.18 6.65-6.65 3.26-1.66 7.33-1.66 15.44-1.66h40.24V62.59c0-.55.45-1 1-1s1 .45 1 1v34.56h40.24c8.12 0 12.19 0 15.45 1.66 2.88 1.47 5.18 3.77 6.65 6.65 1.66 3.26 1.66 7.33 1.66 15.44v4.27c0 8.11 0 12.19-1.66 15.44a15.159 15.159 0 0 1-6.65 6.65c-3.26 1.66-7.33 1.66-15.45 1.66h.01ZM68.67 99.14c-7.79 0-11.71 0-14.54 1.44-2.5 1.28-4.5 3.28-5.78 5.78-1.44 2.83-1.44 6.74-1.44 14.54v4.27c0 7.79 0 11.71 1.44 14.54 1.28 2.5 3.27 4.5 5.78 5.78 2.83 1.44 6.74 1.44 14.54 1.44h82.49c7.8 0 11.71 0 14.54-1.44 2.5-1.28 4.5-3.27 5.78-5.78 1.44-2.83 1.44-6.74 1.44-14.54v-4.27c0-7.79 0-11.71-1.44-14.54-1.28-2.5-3.28-4.5-5.78-5.78-2.83-1.44-6.74-1.44-14.54-1.44H68.67Zm30.58 24.89H70.81c-.55 0-1-.45-1-1s.45-1 1-1h28.44c.55 0 1 .45 1 1s-.45 1-1 1Z"/>
  <path fill="#80A3EB" fill-opacity=".25" d="M45.91 123.77c0-6.95 0-10.43 1.35-13.08 1.19-2.34 3.09-4.23 5.42-5.42 2.65-1.35 6.12-1.35 13.07-1.35h84.32c6.94 0 10.42 0 13.07 1.35a12.45 12.45 0 0 1 5.42 5.42c1.35 2.65 1.35 6.13 1.35 13.08v3.92c0 6.95 0 10.43-1.35 13.08a12.347 12.347 0 0 1-5.42 5.42c-2.65 1.35-6.12 1.35-13.07 1.35H65.75c-6.94 0-10.42 0-13.07-1.35a12.45 12.45 0 0 1-5.42-5.42c-1.35-2.65-1.35-6.13-1.35-13.08v-3.92Z"/>
  <path fill="#4E7FDB" d="M77.32 77.81a1 1 0 0 1-.92-.6 36.273 36.273 0 0 1-3.04-14.62c0-7.98 2.53-15.57 7.31-21.94.33-.44.96-.53 1.4-.2.44.33.53.96.2 1.4-4.52 6.02-6.91 13.19-6.91 20.74 0 4.81.97 9.46 2.88 13.82a.993.993 0 0 1-.92 1.4Zm65.19 0c-.13 0-.27-.03-.4-.08-.51-.22-.74-.81-.52-1.32 1.91-4.37 2.88-9.02 2.88-13.82 0-7.55-2.39-14.72-6.91-20.74-.33-.44-.24-1.07.2-1.4.44-.33 1.07-.24 1.4.2 4.78 6.37 7.31 13.95 7.31 21.94 0 5.08-1.02 10-3.04 14.62-.16.38-.53.6-.92.6ZM47.5 77.8c-.46 0-.87-.31-.97-.78a65.29 65.29 0 0 1-1.61-14.44c0-16.02 5.88-31.41 16.55-43.33a.998.998 0 1 1 1.49 1.33 62.908 62.908 0 0 0-16.04 42c0 4.72.53 9.43 1.56 14 .12.54-.22 1.07-.75 1.2-.07.02-.15.02-.22.02h-.01Zm124.83 0c-.07 0-.15 0-.22-.02a.992.992 0 0 1-.75-1.2c1.04-4.56 1.56-9.27 1.56-14 0-15.53-5.7-30.44-16.04-42a.998.998 0 1 1 1.49-1.33 64.919 64.919 0 0 1 16.55 43.33c0 4.88-.54 9.73-1.61 14.44-.11.46-.52.78-.97.78h-.01Z"/>
  <path fill="#E56470" d="M174.18 20.46a4.28 4.28 0 0 1-4.27-4.27 4.28 4.28 0 0 1 4.27-4.27 4.28 4.28 0 0 1 4.27 4.27 4.28 4.28 0 0 1-4.27 4.27Zm0-6.71c-1.35 0-2.44 1.09-2.44 2.44 0 1.35 1.09 2.44 2.44 2.44 1.35 0 2.44-1.09 2.44-2.44 0-1.35-1.09-2.44-2.44-2.44Z"/>
  <path fill="#4E7FDB" d="M109.91 65a3.08 3.08 0 1 0 0-6.16 3.08 3.08 0 0 0 0 6.16Z"/>
  <path fill="#4E7FDB" d="M109.91 65.92c-2.21 0-4-1.79-4-4s1.79-4 4-4 4 1.79 4 4-1.79 4-4 4Zm0-6.17c-1.2 0-2.17.97-2.17 2.17s.97 2.17 2.17 2.17 2.17-.97 2.17-2.17-.97-2.17-2.17-2.17Z"/>
  <path fill="#E56470" d="M23.7 162.01a2.88 2.88 0 1 1 .002-5.761 2.88 2.88 0 0 1-.002 5.761Zm0-3.93a1.05 1.05 0 1 0 0 2.1 1.05 1.05 0 0 0 0-2.1Z"/>
  <path fill="#7E90B0" d="M166.05 160.1c15.46 0 28-12.54 28-28s-12.54-28-28-28-28 12.53-28 28 12.54 28 28 28Z"/>
  <path fill="#fff" d="M166.05 145.95c-.67 0-1.22-.55-1.22-1.22v-11.28h-11.24c-.67 0-1.22-.55-1.22-1.22 0-.67.55-1.22 1.22-1.22h11.24v-11.28c0-.67.55-1.22 1.22-1.22.67 0 1.22.55 1.22 1.22v11.28h11.24c.67 0 1.22.55 1.22 1.22 0 .67-.55 1.22-1.22 1.22h-11.24v11.28c0 .67-.55 1.22-1.22 1.22Z"/>
</svg>
