<svg xmlns="http://www.w3.org/2000/svg" viewBox="0 0 220 184">
  <path fill="#7E90B0" d="M210.05 126.91c-.51 0-.92-.41-.92-.92v-1.77h-1.76c-.51 0-.92-.41-.92-.92s.41-.92.92-.92h1.76v-1.77c0-.51.41-.92.92-.92s.92.41.92.92v1.77h1.76c.51 0 .92.41.92.92s-.41.92-.92.92h-1.76v1.77c0 .51-.41.92-.92.92Z"/>
  <path fill="#75A4FE" d="M122.18 155.01h-22.11c-26.61 0-39.97 0-48.44-8.47-8.06-8.07-8.45-20.93-8.46-44.84V86.05c0-26.64 0-40 8.46-48.48 8.46-8.48 21.82-8.47 48.44-8.47h22.11c24.42 0 37.87 0 46.33 8.47s8.46 21.84 8.46 48.48v15.64c-.02 23.92-.4 36.78-8.46 44.84-8.1 8.1-20.75 8.47-46.33 8.47v.01ZM100.07 30.9c-26.12 0-39.22 0-47.16 7.94-7.94 7.95-7.94 21.07-7.94 47.21v15.64c.02 24.08.36 35.99 7.94 43.57 7.94 7.94 21.05 7.94 47.16 7.94h22.11c23.94 0 37.13 0 45.06-7.94 7.58-7.58 7.92-19.49 7.94-43.57V86.05c0-26.14 0-39.26-7.94-47.21-7.93-7.93-21.12-7.94-45.06-7.94h-22.11Z"/>
  <path fill="#75A4FE" d="M174.43 55.24H45.72c-.5 0-.9-.4-.9-.9s.4-.9.9-.9h128.71c.5 0 .9.4.9.9s-.4.9-.9.9Z"/>
  <path fill="#4E7FDB" d="M149.73 43.29a1.3 1.3 0 1 0 0-2.6 1.3 1.3 0 0 0 0 2.6Z"/>
  <path fill="#4E7FDB" d="M149.73 43.79c-.99 0-1.8-.81-1.8-1.8s.81-1.8 1.8-1.8 1.8.81 1.8 1.8-.81 1.8-1.8 1.8Zm0-2.61c-.44 0-.8.36-.8.8 0 .44.36.8.8.8.44 0 .8-.36.8-.8 0-.44-.36-.8-.8-.8Zm-10.08 2.11a1.3 1.3 0 1 0 0-2.6 1.3 1.3 0 0 0 0 2.6Z"/>
  <path fill="#4E7FDB" d="M139.65 43.79c-.99 0-1.8-.81-1.8-1.8s.81-1.8 1.8-1.8 1.8.81 1.8 1.8-.81 1.8-1.8 1.8Zm0-2.61c-.44 0-.8.36-.8.8 0 .44.36.8.8.8.44 0 .8-.36.8-.8 0-.44-.36-.8-.8-.8Z"/>
  <path fill="#6DB88F" fill-opacity=".25" d="M150.73 122c0-5.23-1.03-10.4-3.03-15.23-2-4.83-4.93-9.21-8.62-12.91a39.627 39.627 0 0 0-12.91-8.62 39.791 39.791 0 0 0-30.46 0c-4.83 2-9.21 4.93-12.91 8.62a39.627 39.627 0 0 0-8.62 12.91c-2 4.83-3.03 10-3.03 15.23h79.58Z"/>
  <path fill="#4E7FDB" d="M151.02 119.21h-5.13c-.55 0-1-.45-1-1s.45-1 1-1h4.12c-.25-10.21-4.34-19.47-10.88-26.42l-3.37 3.32c-.39.39-1.03.38-1.41 0-.38-.38-.38-1.03 0-1.41l3.37-3.32c-6.98-6.71-16.37-10.92-26.74-11.18v4.12c0 .55-.45 1-1 1s-1-.45-1-1V78.2c-10.36.25-19.76 4.47-26.74 11.18l2.97 2.97a.996.996 0 1 1-1.41 1.41l-2.96-2.96c-6.53 6.94-10.62 16.21-10.87 26.41h4.12c.55 0 1 .45 1 1s-.45 1-1 1h-5.13c-.55 0-1-.45-1-1 0-23.17 18.85-42.03 42.03-42.03s42.03 18.85 42.03 42.03c0 .55-.45 1-1 1Z"/>
  <path fill="#4E7FDB" d="M109.99 122.74c2.5 0 4.53-2.03 4.53-4.53 0-2.5-2.03-4.53-4.53-4.53-2.5 0-4.53 2.03-4.53 4.53 0 2.5 2.03 4.53 4.53 4.53Z"/>
  <path fill="#4E7FDB" d="M114.13 117.8a.99.99 0 0 1-.93-.64c-.2-.52.06-1.09.57-1.29l17.46-6.78a.997.997 0 0 1 .72 1.86l-17.46 6.78c-.12.05-.24.07-.36.07Z"/>
  <path fill="#7E90B0" d="M8.17 111.65c-.51 0-.92-.41-.92-.92v-3.17c0-.51.41-.92.92-.92s.92.41.92.92v3.17c0 .51-.41.92-.92.92Zm0 7.39c-.51 0-.92-.41-.92-.92v-3.17c0-.51.41-.92.92-.92s.92.41.92.92v3.17c0 .51-.41.92-.92.92Zm-2.1-5.28H2.92c-.51 0-.92-.41-.92-.92s.41-.92.92-.92h3.16c.51 0 .92.41.92.92s-.41.92-.92.92h-.01Zm7.37 0h-3.16c-.51 0-.92-.41-.92-.92s.41-.92.92-.92h3.16c.51 0 .92.41.92.92s-.41.92-.92.92Z"/>
  <path fill="#E56470" d="M192.92 64.95a4.28 4.28 0 0 1-4.27-4.27 4.28 4.28 0 0 1 4.27-4.27 4.28 4.28 0 0 1 4.27 4.27 4.28 4.28 0 0 1-4.27 4.27Zm0-6.71c-1.34 0-2.44 1.09-2.44 2.44 0 1.35 1.09 2.44 2.44 2.44 1.35 0 2.44-1.09 2.44-2.44 0-1.35-1.09-2.44-2.44-2.44ZM35.87 163.66a2.88 2.88 0 1 1 .001-5.761 2.88 2.88 0 0 1-.001 5.761Zm0-3.93a1.05 1.05 0 1 0 0 2.1 1.05 1.05 0 0 0 0-2.1Z"/>
  <path fill="#6DB88F" d="M162.45 173.24c16.02 0 29-12.98 29-29s-12.98-29-29-29-29 12.98-29 29 12.98 29 29 29Z"/>
  <path fill="#fff" d="M158.6 152.39c-.32 0-.63-.13-.86-.36l-6.15-6.15c-.48-.48-.48-1.25 0-1.72.48-.48 1.25-.48 1.72 0l5.29 5.29 12.98-12.98c.48-.48 1.25-.48 1.72 0s.48 1.25 0 1.72l-13.85 13.85c-.23.23-.54.36-.86.36l.01-.01Z"/>
  <path fill="#5BC1A5" d="M18.69 29.19c-.37 0-.71-.23-.84-.58l-2.08-5.43c-.32-.83-.47-1.22-.67-1.5-.17-.24-.38-.45-.64-.64-.28-.19-.67-.35-1.49-.67l-5.41-2.08a.898.898 0 0 1 0-1.68l5.41-2.08c.83-.32 1.22-.48 1.5-.67.24-.17.45-.38.64-.64.19-.28.35-.67.67-1.49l2.08-5.43a.898.898 0 0 1 1.68 0l2.08 5.43c.32.83.47 1.22.67 1.5.2.26.4.47.64.64.28.19.67.35 1.49.67l5.41 2.08a.898.898 0 0 1 0 1.68l-5.41 2.08c-.84.33-1.22.48-1.5.67-.24.17-.45.38-.64.64-.19.27-.35.67-.67 1.49l-2.08 5.43c-.13.35-.47.58-.84.58Zm-8.31-11.74 3.23 1.24c.89.34 1.41.55 1.89.88.43.31.79.67 1.08 1.08.33.47.54 1 .88 1.89l1.24 3.24 1.24-3.24c.34-.89.55-1.42.88-1.89.31-.43.67-.79 1.08-1.08.47-.33 1-.53 1.88-.88l3.23-1.24-3.23-1.24c-.89-.34-1.41-.55-1.88-.88-.39-.28-.74-.62-1.06-1.06-.35-.5-.56-1.02-.89-1.92l-1.24-3.23-1.24 3.24c-.34.89-.54 1.41-.88 1.89-.31.43-.67.79-1.08 1.08-.48.33-1 .54-1.89.88l-3.22 1.24h-.02ZM5.99 9.82c-.5 0-.9-.4-.9-.9V6.8h-2.1c-.5 0-.9-.4-.9-.9s.4-.9.9-.9h2.1V2.9c0-.5.4-.9.9-.9s.9.4.9.9V5h2.1c.5 0 .9.4.9.9s-.4.9-.9.9h-2.1v2.12c0 .5-.4.9-.9.9Z"/>
</svg>
