<svg xmlns="http://www.w3.org/2000/svg" viewBox="0 0 220 184">
  <path fill="#7E90B0" d="M210.05 127.09c-.51 0-.92-.41-.92-.92v-1.77h-1.76c-.51 0-.92-.41-.92-.92s.41-.92.92-.92h1.76v-1.77c0-.51.41-.92.92-.92s.92.41.92.92v1.77h1.76c.51 0 .92.41.92.92s-.41.92-.92.92h-1.76v1.77c0 .51-.41.92-.92.92Z"/>
  <path fill="#4E7FDB" d="M122.18 155.19h-22.11c-26.61 0-39.97 0-48.44-8.47-8.06-8.07-8.45-20.93-8.46-44.84V86.23c0-26.64 0-40 8.46-48.48 8.46-8.47 21.82-8.47 48.44-8.47h22.11c24.42 0 37.87 0 46.33 8.47s8.46 21.84 8.46 48.48v15.64c-.02 23.92-.4 36.78-8.46 44.84-8.46 8.46-21.91 8.47-46.33 8.47v.01ZM100.07 31.08c-26.12 0-39.22 0-47.16 7.94-7.94 7.95-7.94 21.07-7.94 47.21v15.64c.02 24.08.36 35.99 7.94 43.57 7.94 7.94 21.05 7.94 47.16 7.94h22.11c23.94 0 37.13 0 45.06-7.94 7.58-7.58 7.92-19.49 7.94-43.57V86.23c0-26.14 0-39.26-7.94-47.21-7.93-7.93-21.12-7.94-45.06-7.94h-22.11Z"/>
  <path fill="#E56470" d="M211.73 25.8c-.39 0-.7-.31-.7-.7v-.62c0-2.19 1.59-3.96 3.13-5.66.6-.67 1.17-1.3 1.63-1.94.48-.67.74-1.45.74-2.25 0-2.33-2.15-4.23-4.8-4.23s-4.8 1.9-4.8 4.23c0 .39-.31.7-.7.7-.39 0-.7-.31-.7-.7 0-3.1 2.78-5.63 6.2-5.63 3.42 0 6.2 2.53 6.2 5.63 0 1.1-.35 2.16-1 3.07-.5.7-1.13 1.39-1.73 2.06-1.36 1.51-2.77 3.07-2.77 4.73v.62c0 .39-.31.7-.7.7v-.01Z"/>
  <path fill="#E56470" fill-opacity=".25" d="M71.26 122.18c0-5.23 1.03-10.4 3.03-15.23 2-4.83 4.93-9.21 8.62-12.91 3.69-3.69 8.08-6.63 12.91-8.62a39.791 39.791 0 0 1 30.46 0c4.83 2 9.21 4.93 12.91 8.62 3.69 3.69 6.62 8.08 8.62 12.91 2 4.83 3.03 10 3.03 15.23H71.26Z"/>
  <path fill="#4E7FDB" d="M151.02 119.39h-5.13c-.55 0-1-.45-1-1s.45-1 1-1h4.12c-.25-10.2-4.34-19.47-10.87-26.41l-2.96 2.96a.996.996 0 1 1-1.41-1.41l2.97-2.97c-6.98-6.71-16.38-10.93-26.74-11.18v4.12c0 .55-.45 1-1 1s-1-.45-1-1v-4.12c-10.36.25-19.76 4.47-26.74 11.18l3.37 3.32c.39.39.4 1.02 0 1.41-.4.39-1.02.4-1.41 0l-3.37-3.32c-6.53 6.94-10.62 16.21-10.87 26.42h4.12c.55 0 1 .45 1 1s-.45 1-1 1h-5.13c-.55 0-1-.45-1-1 0-23.17 18.85-42.03 42.03-42.03s42.03 18.85 42.03 42.03c0 .55-.45 1-1 1h-.01Z"/>
  <path fill="#4E7FDB" d="M109.99 122.92c-2.5 0-4.53-2.03-4.53-4.53 0-2.5 2.03-4.53 4.53-4.53 2.5 0 4.53 2.03 4.53 4.53 0 2.5-2.03 4.53-4.53 4.53Z"/>
  <path fill="#4E7FDB" d="M105.99 117.85c-.12 0-.24-.02-.35-.06l-17.59-6.65a.994.994 0 0 1-.58-1.29c.2-.52.77-.78 1.29-.58l17.59 6.65c.52.2.78.77.58 1.29-.15.4-.53.65-.94.65v-.01Z"/>
  <path fill="#E56470" d="M209.74 30.57c-.44 0-.81-.36-.81-.8 0-.44.35-.8.79-.8h.02c.44 0 .8.36.8.8 0 .44-.36.8-.8.8Z"/>
  <path fill="#4E7FDB" d="M174.43 55.42H45.72c-.5 0-.9-.4-.9-.9s.4-.9.9-.9h128.71c.5 0 .9.4.9.9s-.4.9-.9.9Zm-24.7-11.95a1.3 1.3 0 1 0 0-2.6 1.3 1.3 0 0 0 0 2.6Z"/>
  <path fill="#4E7FDB" d="M149.73 43.97c-.99 0-1.8-.81-1.8-1.8s.81-1.8 1.8-1.8 1.8.81 1.8 1.8-.81 1.8-1.8 1.8Zm0-2.61c-.44 0-.8.36-.8.8 0 .44.36.8.8.8.44 0 .8-.36.8-.8 0-.44-.36-.8-.8-.8Zm-10.08 2.11a1.3 1.3 0 1 0 0-2.6 1.3 1.3 0 0 0 0 2.6Z"/>
  <path fill="#4E7FDB" d="M139.65 43.97c-.99 0-1.8-.81-1.8-1.8s.81-1.8 1.8-1.8 1.8.81 1.8 1.8-.81 1.8-1.8 1.8Zm0-2.61c-.44 0-.8.36-.8.8 0 .44.36.8.8.8.44 0 .8-.36.8-.8 0-.44-.36-.8-.8-.8Z"/>
  <path fill="#7E90B0" d="M8.17 111.83c-.51 0-.92-.41-.92-.92v-3.17c0-.51.41-.92.92-.92s.92.41.92.92v3.17c0 .51-.41.92-.92.92Zm0 7.39c-.51 0-.92-.41-.92-.92v-3.17c0-.51.41-.92.92-.92s.92.41.92.92v3.17c0 .51-.41.92-.92.92Zm-2.1-5.28H2.92c-.51 0-.92-.41-.92-.92s.41-.92.92-.92h3.16c.51 0 .92.41.92.92s-.41.92-.92.92h-.01Zm7.37 0h-3.16c-.51 0-.92-.41-.92-.92s.41-.92.92-.92h3.16c.51 0 .92.41.92.92s-.41.92-.92.92Z"/>
  <path fill="#E56470" d="M192.92 65.13a4.28 4.28 0 0 1-4.27-4.27 4.28 4.28 0 0 1 4.27-4.27 4.28 4.28 0 0 1 4.27 4.27 4.28 4.28 0 0 1-4.27 4.27Zm0-6.71c-1.35 0-2.44 1.09-2.44 2.44 0 1.35 1.09 2.44 2.44 2.44 1.35 0 2.44-1.09 2.44-2.44 0-1.35-1.09-2.44-2.44-2.44ZM35.88 163.84a2.88 2.88 0 1 1 .001-5.761 2.88 2.88 0 0 1-.001 5.761Zm0-3.93a1.05 1.05 0 1 0 0 2.1 1.05 1.05 0 0 0 0-2.1Zm126.57 13.51c16.02 0 29-12.98 29-29s-12.98-29-29-29-29 12.98-29 29 12.98 29 29 29Z"/>
  <path fill="#fff" d="m174.87 149.49-7.56-13.74c-1.37-2.48-2.05-3.73-3.24-4.27a3.922 3.922 0 0 0-3.25 0c-1.18.54-1.87 1.78-3.23 4.26l2.14 1.18c.96-1.75 1.66-3.01 2.11-3.22.39-.18.84-.18 1.23 0 .45.2 1.15 1.47 2.11 3.22l7.56 13.74c.9 1.64 1.55 2.82 1.5 3.3-.05.41-.27.79-.61 1.03-.39.28-1.74.28-3.61.28H154.9c-1.87 0-3.22 0-3.61-.28-.34-.24-.56-.62-.61-1.03-.06-.47.59-1.66 1.5-3.3l7.56-13.74-2.14-1.18-7.56 13.74c-1.29 2.34-1.93 3.51-1.78 4.76.13 1.09.72 2.08 1.61 2.72 1.03.73 2.36.73 5.03.73h15.12c2.67 0 4.01 0 5.03-.73.89-.64 1.48-1.63 1.61-2.72.15-1.26-.5-2.43-1.78-4.76l-.01.01Z"/>
  <path fill="#fff" d="M162.45 152.18c-.77 0-1.41-.63-1.41-1.4 0-.77.62-1.4 1.39-1.4h.02c.77 0 1.4.63 1.4 1.4 0 .77-.63 1.4-1.4 1.4Zm-.03-5.05c-.67 0-1.22-.55-1.22-1.22v-5.39c0-.67.55-1.22 1.22-1.22.67 0 1.22.55 1.22 1.22v5.39c0 .67-.55 1.22-1.22 1.22Z"/>
</svg>
