<svg xmlns="http://www.w3.org/2000/svg" viewBox="0 0 220 184">
  <path fill="#7E90B0" d="M10.17 104.5c-.51 0-.92-.41-.92-.92v-3.17c0-.51.41-.92.92-.92s.92.41.92.92v3.17c0 .51-.41.92-.92.92Zm0 7.38c-.51 0-.92-.41-.92-.92v-3.17c0-.51.41-.92.92-.92s.92.41.92.92v3.17c0 .51-.41.92-.92.92Zm-2.1-5.28H4.92c-.51 0-.92-.41-.92-.92s.41-.92.92-.92h3.16c.51 0 .92.41.92.92s-.41.92-.92.92h-.01Zm7.37 0h-3.16c-.51 0-.92-.41-.92-.92s.41-.92.92-.92h3.16c.51 0 .92.41.92.92s-.41.92-.92.92ZM211.41 70c-.44 0-.8-.36-.8-.8v-2.48c0-.44.36-.8.8-.8.44 0 .8.36.8.8v2.48c0 .44-.36.8-.8.8Zm0 5.79c-.44 0-.8-.36-.8-.8v-2.48c0-.44.36-.8.8-.8.44 0 .8.36.8.8v2.48c0 .44-.36.8-.8.8Zm-1.65-4.14h-2.48c-.44 0-.8-.36-.8-.8 0-.44.36-.8.8-.8h2.48c.44 0 .8.36.8.8 0 .44-.36.8-.8.8Zm5.78 0h-2.47c-.44 0-.8-.36-.8-.8 0-.44.36-.8.8-.8h2.47c.44 0 .8.36.8.8 0 .44-.36.8-.8.8Zm-8.83 84.41c-.51 0-.92-.41-.92-.92v-1.77h-1.76c-.51 0-.92-.41-.92-.92s.41-.92.92-.92h1.76v-1.77c0-.51.41-.92.92-.92s.92.41.92.92v1.77h1.76c.51 0 .92.41.92.92s-.41.92-.92.92h-1.76v1.77c0 .51-.41.92-.92.92Z"/>
  <path fill="#E56470" d="M182.7 20.54c-2.07 0-3.75-1.68-3.75-3.75 0-2.07 1.68-3.75 3.75-3.75 2.07 0 3.75 1.68 3.75 3.75 0 2.07-1.68 3.75-3.75 3.75Zm0-5.67a1.92 1.92 0 1 0 .001 3.841 1.92 1.92 0 0 0-.001-3.841ZM47.7 170.1a2.88 2.88 0 1 1 .002-5.761 2.88 2.88 0 0 1-.002 5.761Zm0-3.94a1.05 1.05 0 1 0 0 2.1 1.05 1.05 0 0 0 0-2.1ZM22.8 16.76a2.88 2.88 0 1 1 .001-5.761 2.88 2.88 0 0 1-.001 5.761Zm0-3.93a1.05 1.05 0 1 0 0 2.1 1.05 1.05 0 0 0 0-2.1Z"/>
  <path fill="#fff" d="M180.92 125.72c-.29 0-.59-.1-.82-.32l-5.5-5c-.5-.45-.54-1.22-.08-1.72.45-.5 1.23-.54 1.72-.08l5.5 5c.5.45.54 1.22.08 1.72-.24.27-.57.4-.9.4Z"/>
  <path fill="#E56470" fill-opacity=".2" d="M143.7 104.92V160h-26.09v-55.08h26.09Z"/>
  <path fill="#75A4FE" d="M147.51 158.3H109.1c-7.83 0-11.76 0-14.91-1.6a14.59 14.59 0 0 1-6.43-6.43c-1.6-3.15-1.6-7.08-1.6-14.91v-38.4c0-7.83 0-11.76 1.6-14.91a14.59 14.59 0 0 1 6.43-6.43c3.15-1.6 7.08-1.6 14.91-1.6.55 0 1 .45 1 1s-.45 1-1 1c-7.51 0-11.28 0-14 1.38a12.663 12.663 0 0 0-5.56 5.56c-1.39 2.72-1.39 6.49-1.39 14v4.49h80.29v-4.49c0-.55.45-1 1-1s1 .45 1 1v38.4c0 7.83 0 11.76-1.6 14.91a14.59 14.59 0 0 1-6.43 6.43c-3.15 1.6-7.08 1.6-14.91 1.6h.01Zm-59.35-27.44v4.49c0 7.51 0 11.28 1.39 14 1.23 2.41 3.15 4.33 5.56 5.56 2.72 1.39 6.49 1.39 14 1.39h38.41c7.51 0 11.28 0 14-1.39 2.41-1.23 4.33-3.15 5.56-5.56 1.38-2.72 1.38-6.49 1.38-14v-4.49h-80.3Zm0-2h80.29v-25.43H88.16v25.43Z"/>
  <path fill="#75A4FE" d="M142.04 158.3c-.55 0-1-.45-1-1v-54.78c0-.55.45-1 1-1s1 .45 1 1v54.78c0 .55-.45 1-1 1Zm-27.48 0c-.55 0-1-.45-1-1v-54.78c0-.55.45-1 1-1s1 .45 1 1v54.78c0 .55-.45 1-1 1Z"/>
  <path fill="#E56470" fill-opacity=".2" d="M51.09 25.53c0-.84 0-1.25.19-1.59.15-.28.44-.54.73-.66.36-.15.73-.11 1.49-.04 5.52.55 10.7 2.99 14.66 6.95 3.95 3.95 6.4 9.14 6.95 14.66.08.76.11 1.13-.04 1.49-.12.29-.38.58-.66.73-.34.19-.76.19-1.59.19H53.51c-.84 0-1.27 0-1.59-.16-.28-.14-.51-.38-.66-.66-.16-.32-.16-.75-.16-1.59V25.53h-.01Z"/>
  <path fill="#75A4FE" d="M72.82 48.15H53.51c-.96 0-1.48 0-2-.26a2.32 2.32 0 0 1-1.05-1.05c-.26-.51-.26-1.04-.26-2V25.53c0-.93 0-1.49.3-2.03.25-.46.69-.85 1.17-1.06.57-.24 1.08-.19 1.93-.1a25.08 25.08 0 0 1 15.2 7.21c4.07 4.08 6.63 9.47 7.21 15.2.09.85.14 1.36-.1 1.93-.2.48-.6.92-1.06 1.17-.54.3-1.1.3-2.02.3h-.01ZM52.61 24.07c-.11 0-.19 0-.24.03-.11.05-.24.17-.3.27-.08.14-.08.57-.08 1.16v19.31c0 .56 0 1.05.07 1.18.06.12.15.21.27.27.13.07.62.07 1.18.07h19.31c.59 0 1.02 0 1.16-.07.1-.06.22-.19.27-.3.06-.14.03-.49-.03-1.05a23.276 23.276 0 0 0-6.69-14.11 23.275 23.275 0 0 0-14.11-6.69c-.35-.04-.62-.06-.8-.06l-.01-.01Zm28.3 15.44c-.46 0-.85-.35-.89-.81-.11-1.14-.32-2.29-.6-3.41-.12-.48.17-.97.65-1.09a.89.89 0 0 1 1.09.65c.31 1.21.53 2.44.65 3.67a.9.9 0 0 1-.81.99h-.09Zm-1.76-6.96c-.35 0-.68-.21-.83-.55-.45-1.06-.98-2.1-1.58-3.08a.908.908 0 0 1 .3-1.24c.43-.26.98-.12 1.24.3.64 1.06 1.22 2.17 1.7 3.32a.9.9 0 0 1-.83 1.25Zm-3.74-6.12c-.26 0-.51-.11-.69-.32a23.138 23.138 0 0 0-2.41-2.48.901.901 0 0 1-.08-1.27c.33-.37.9-.41 1.27-.08a26.039 26.039 0 0 1 2.6 2.68.9.9 0 0 1-.69 1.48v-.01Zm-5.37-4.76c-.17 0-.34-.05-.49-.15-.96-.63-1.98-1.19-3.04-1.66a.909.909 0 0 1-.45-1.19c.21-.45.74-.65 1.19-.45 1.13.52 2.23 1.12 3.27 1.79.42.27.54.83.26 1.25-.17.27-.46.41-.76.41h.02Zm-6.52-2.97c-.08 0-.16-.01-.25-.04-1.11-.32-2.25-.55-3.39-.7a.903.903 0 0 1-.78-1.01c.06-.49.52-.84 1.01-.78 1.23.16 2.46.41 3.65.75.48.14.75.63.62 1.11-.11.4-.47.65-.87.65l.01.02Z"/>
  <path fill="#4E7FDB" d="M39.04 84.36a25.022 25.022 0 0 1-24.57-20.15c-.97-4.87-.48-9.88 1.43-14.47a25.015 25.015 0 0 1 20.63-15.33c.85-.08 1.36-.14 1.93.1.48.2.92.6 1.17 1.06.3.54.3 1.1.3 2.03v19.31c0 .59 0 1.05.07 1.18.06.11.15.21.27.27.13.07.59.07 1.18.07h19.31c.92 0 1.48 0 2.02.3.46.25.85.69 1.06 1.17.24.57.19 1.08.11 1.92-.41 4.07-1.83 8.02-4.1 11.42a24.962 24.962 0 0 1-11.24 9.22c-3.06 1.27-6.3 1.91-9.57 1.91v-.01Zm-1.53-48.22c-.19 0-.46.03-.8.06-3.77.38-7.44 1.69-10.59 3.8a23.222 23.222 0 0 0-8.56 10.43 23.18 23.18 0 0 0-1.32 13.42c.9 4.52 3.1 8.64 6.36 11.9 3.26 3.26 7.38 5.46 11.9 6.36 4.52.9 9.17.44 13.43-1.32 4.26-1.77 7.87-4.72 10.43-8.56 2.11-3.15 3.42-6.82 3.8-10.59.06-.57.09-.91.03-1.05a.71.71 0 0 0-.27-.3c-.14-.07-.57-.07-1.16-.07H41.45c-.96 0-1.48 0-2-.26a2.32 2.32 0 0 1-1.05-1.05c-.26-.52-.26-1.04-.26-2V37.6c0-.59 0-1.02-.07-1.16a.832.832 0 0 0-.29-.27.765.765 0 0 0-.25-.03h-.02Z"/>
  <path fill="#787A83" fill-opacity=".18" d="M180.91 51.01c0-16.56-13.43-29.99-29.99-29.99s-29.99 13.43-29.99 29.99S134.36 81 150.92 81s29.99-13.43 29.99-29.99Z"/>
  <path fill="#4E7FDB" d="M141.91 56.9a.899.899 0 0 1-.72-1.44 9.572 9.572 0 0 1 7.72-3.86c3.07 0 5.88 1.41 7.72 3.86.3.4.22.96-.18 1.26-.4.3-.96.22-1.26-.18-1.5-2-3.79-3.14-6.28-3.14s-4.78 1.14-6.28 3.14c-.18.24-.45.36-.72.36Zm14.01-13.1h-.02c-.99 0-1.8-.81-1.8-1.8s.81-1.8 1.8-1.8 1.81.81 1.81 1.8-.8 1.8-1.79 1.8Zm-13.99 0h-.02c-.99 0-1.8-.81-1.8-1.8s.81-1.8 1.8-1.8 1.81.81 1.81 1.8-.8 1.8-1.79 1.8Zm30.617 27.57-1.273 1.273 9.002 9.001 1.272-1.273-9.001-9.001Z"/>
  <path fill="#7E90B0" d="M180.72 89.52a6.162 6.162 0 0 1 0-8.72 6.162 6.162 0 0 1 8.72 0l12.67 12.67a6.162 6.162 0 0 1 0 8.72 6.162 6.162 0 0 1-8.72 0l-12.67-12.67Z"/>
  <path fill="#4E7FDB" d="M148.92 81.9c-18.14 0-32.9-14.76-32.9-32.9s14.75-32.9 32.9-32.9 32.9 14.76 32.9 32.9-14.76 32.9-32.9 32.9Zm0-64c-17.15 0-31.1 13.95-31.1 31.1 0 17.15 13.95 31.1 31.1 31.1 17.15 0 31.1-13.95 31.1-31.1 0-17.15-13.95-31.1-31.1-31.1Z"/>
</svg>
