<svg xmlns="http://www.w3.org/2000/svg" viewBox="0 0 220 184">
  <path fill="#7E90B0" d="M210.05 126.92c-.51 0-.92-.41-.92-.92v-1.77h-1.76c-.51 0-.92-.41-.92-.92s.41-.92.92-.92h1.76v-1.77c0-.51.41-.92.92-.92s.92.41.92.92v1.77h1.76c.51 0 .92.41.92.92s-.41.92-.92.92h-1.76V126c0 .51-.41.92-.92.92ZM8.17 111.65c-.51 0-.92-.41-.92-.92v-3.17c0-.51.41-.92.92-.92s.92.41.92.92v3.17c0 .51-.41.92-.92.92Zm0 7.39c-.51 0-.92-.41-.92-.92v-3.17c0-.51.41-.92.92-.92s.92.41.92.92v3.17c0 .51-.41.92-.92.92Zm-2.1-5.28H2.92c-.51 0-.92-.41-.92-.92s.41-.92.92-.92h3.16c.51 0 .92.41.92.92s-.41.92-.92.92h-.01Zm7.37 0h-3.16c-.51 0-.92-.41-.92-.92s.41-.92.92-.92h3.16c.51 0 .92.41.92.92s-.41.92-.92.92Z"/>
  <path fill="#4E7FDB" d="m63.96 150.11-.88-.04c-.12 0-.23-.04-.34-.08-.15-.03-.37-.08-.62-.13l-.46-.1c-3.44-.95-6.42-2.88-8.68-5.57-2.68-3.2-3.77-7.78-5.92-16.92L33.92 71.51c-2.15-9.14-3.23-13.73-2.26-17.79.86-3.59 2.79-6.76 5.59-9.16 3.16-2.71 7.7-3.78 16.75-5.92l1.47-.35c.49-.11.99.19 1.1.68.11.49-.19.99-.68 1.1l-1.47.35c-8.76 2.08-13.15 3.12-15.98 5.53-2.5 2.15-4.24 4.98-5 8.19-.87 3.64.17 8.08 2.26 16.93l13.14 55.77c2.09 8.86 3.13 13.3 5.54 16.16 2.02 2.41 4.69 4.13 7.72 4.97l.41.08c1.01.21 1.68.35 1.57 1.21l-.11.84-.01.01Z"/>
  <path fill="#75A4FE" d="M104.21 152.8H84.4c-10.53 0-15.82 0-19.99-2.11-3.69-1.87-6.64-4.8-8.52-8.46-2.12-4.14-2.12-9.4-2.12-19.86V58.42c0-10.46 0-15.72 2.12-19.86 1.88-3.67 4.83-6.59 8.52-8.46 4.17-2.11 9.46-2.11 19.99-2.11h39.62c10.53 0 15.82 0 19.99 2.11 3.69 1.87 6.64 4.79 8.52 8.46 2.12 4.14 2.12 9.4 2.12 19.86v22.75c0 .5-.41.92-.92.92s-.92-.41-.92-.92V58.42c0-10.17 0-15.28-1.92-19.03-1.7-3.32-4.37-5.97-7.71-7.66-3.78-1.91-8.92-1.91-19.16-1.91H84.4c-10.24 0-15.38 0-19.16 1.91a17.484 17.484 0 0 0-7.72 7.66c-1.92 3.75-1.92 8.85-1.92 19.03v63.95c0 10.17 0 15.28 1.92 19.02 1.7 3.32 4.37 5.97 7.72 7.66 3.78 1.91 8.92 1.91 19.16 1.91h19.81c.5 0 .92.41.92.92s-.41.92-.92.92Z"/>
  <path fill="#E56470" d="M108.27 119.27H74.46c-.39 0-.78.42-.78 1 0 .5.31 1 .78 1h33.81c.39 0 .78-.42.78-1-.08-.58-.39-1-.78-1ZM123.79 103H74.76c-.54 0-1.08.42-1.08 1 0 .5.43 1 1.08 1h49.03c.54 0 1.08-.42 1.08-1-.11-.58-.54-1-1.08-1Z"/>
  <path fill="#E56470" fill-opacity=".25" d="M105.37 53.82c0-1.02 0-1.53-.25-1.92-.22-.34-.58-.62-1.01-.8-.49-.2-1.14-.2-2.43-.2h-6.46c-1.29 0-1.94 0-2.43.2-.43.17-.79.45-1.01.8-.25.39-.25.9-.25 1.92v32.92h13.84V53.82Z"/>
  <path fill="#E56470" d="M115.52 87.74H81.38c-1.42 0-2.13 0-2.8-.27a3.12 3.12 0 0 1-1.48-1.18c-.41-.64-.41-1.33-.41-2.46v-22.7c0-1.14 0-1.83.41-2.46.34-.52.85-.93 1.48-1.18.67-.27 1.38-.27 2.8-.27h9.15v-3.38c0-1.14 0-1.83.41-2.47.33-.52.84-.93 1.47-1.18.67-.27 1.39-.27 2.81-.27h6.46c1.42 0 2.13 0 2.8.27.63.25 1.14.66 1.48 1.18.41.64.41 1.33.41 2.46V64.5h9.15c1.42 0 2.13 0 2.81.27.63.25 1.14.66 1.47 1.18.41.64.41 1.33.41 2.46v15.41c0 1.14 0 1.83-.41 2.46-.33.52-.84.93-1.47 1.18-.67.27-1.39.27-2.81.27v.01Zm-9.15-2h9.15c1.09 0 1.74 0 2.06-.13.24-.1.43-.24.54-.41.09-.14.09-.72.09-1.38V68.41c0-.69 0-1.24-.09-1.38-.11-.17-.3-.31-.54-.41-.31-.13-.97-.13-2.06-.13h-9.15v19.25Zm-13.85 0h11.84V53.82c0-.67 0-1.24-.09-1.38-.11-.17-.3-.31-.54-.41-.31-.13-.97-.13-2.06-.13h-6.46c-1.09 0-1.74 0-2.06.13-.24.1-.43.24-.54.41-.09.14-.09.72-.09 1.38v31.92ZM81.37 59.2c-1.09 0-1.74 0-2.06.13-.24.1-.43.24-.54.41-.09.14-.09.69-.09 1.38v22.7c0 .67 0 1.24.09 1.38.11.17.3.32.54.41.31.13.97.13 2.06.13h9.15V59.2h-9.15Z"/>
  <path fill="#75A4FE" d="M142.98 155.15c-.97 0-1.85-.19-2.63-.57a.74.74 0 0 1-.34-1 .74.74 0 0 1 1-.34c.92.45 2.07.54 3.42.26.4-.08.8.18.89.58.09.4-.18.8-.58.89-.61.13-1.2.19-1.76.19v-.01Zm5.34-1.57c-.27 0-.53-.15-.67-.41a.755.755 0 0 1 .32-1.01c1.04-.54 2.16-1.22 3.32-2.04a.74.74 0 0 1 1.04.18c.24.34.16.81-.18 1.04-1.21.85-2.39 1.58-3.5 2.15-.11.06-.23.08-.34.08l.01.01Zm6.57-4.55c-.21 0-.43-.09-.57-.27a.748.748 0 0 1 .09-1.06c.96-.8 1.95-1.69 2.95-2.65.3-.29.77-.27 1.06.03.29.3.27.77-.03 1.06-1.02.97-2.04 1.89-3.01 2.71-.14.12-.31.18-.48.18h-.01Zm5.81-5.52a.755.755 0 0 1-.55-1.27c.89-.94 1.79-1.93 2.68-2.94.27-.31.75-.34 1.06-.07.31.27.34.75.07 1.06a99.93 99.93 0 0 1-2.72 2.99c-.15.16-.35.23-.54.23Zm5.27-6.02a.7.7 0 0 1-.47-.17.747.747 0 0 1-.11-1.05c.83-1.02 1.65-2.08 2.45-3.14a.75.75 0 0 1 1.2.9c-.81 1.08-1.64 2.14-2.48 3.18a.77.77 0 0 1-.58.28h-.01Zm4.82-6.4c-.15 0-.3-.04-.43-.14a.743.743 0 0 1-.18-1.04c.77-1.09 1.52-2.2 2.23-3.29.23-.35.69-.45 1.04-.22.35.23.44.69.22 1.04-.72 1.11-1.48 2.23-2.26 3.34-.15.21-.38.32-.62.32v-.01Zm4.38-6.71c-.13 0-.27-.04-.39-.11a.746.746 0 0 1-.25-1.03c.69-1.15 1.36-2.3 1.99-3.44.2-.36.66-.49 1.02-.29s.49.66.29 1.02c-.64 1.15-1.32 2.33-2.02 3.49-.14.23-.39.36-.64.36Zm3.88-7.01c-.11 0-.23-.03-.34-.08a.75.75 0 0 1-.33-1.01 81.89 81.89 0 0 0 1.7-3.59c.17-.38.61-.55.99-.38.38.17.55.61.38.99-.53 1.19-1.11 2.42-1.73 3.65-.13.26-.4.41-.67.41v.01Zm3.25-7.32a.746.746 0 0 1-.7-1.02c.49-1.27.92-2.53 1.29-3.74.12-.4.54-.62.94-.5.4.12.62.54.5.94-.38 1.24-.82 2.53-1.32 3.83-.11.3-.4.48-.7.48l-.01.01Zm2.31-7.66c-.05 0-.1 0-.16-.02a.758.758 0 0 1-.58-.89c.29-1.34.49-2.64.6-3.87.04-.41.4-.71.82-.68.41.04.71.4.68.82-.12 1.28-.33 2.64-.63 4.04-.08.35-.39.59-.73.59v.01Zm-5.57-6.09c-.38 0-.7-.29-.75-.67-.04-.41.25-.78.67-.83 1.28-.14 2.52-.43 3.69-.86.39-.14.82.05.96.44s-.05.82-.44.96c-1.29.48-2.65.79-4.05.95h-.08v.01Zm-3.98-.01h-.08c-.65-.07-1.33-.17-2-.3-.72-.14-1.41-.3-2.05-.5a.758.758 0 0 1-.51-.93c.12-.4.53-.63.93-.51.6.18 1.24.33 1.91.46.63.12 1.26.21 1.87.28.41.04.71.41.67.82-.04.39-.37.67-.75.67l.01.01Zm10.23-1.84c-.39 0-.72-.3-.75-.69-.1-1.35-.34-2.61-.72-3.74-.13-.39.08-.82.47-.95.39-.13.82.08.95.47.29.85.5 1.77.64 2.74a.4.4 0 0 1 .12-.1c1.01-.7 1.98-1.54 2.9-2.5.29-.3.76-.31 1.06-.03.3.29.31.76.03 1.06a20.25 20.25 0 0 1-3.14 2.71.74.74 0 0 1-.83.01c0 .07.01.14.02.21.03.41-.28.77-.69.8h-.06v.01Zm-17.81-.53a.83.83 0 0 1-.4-.11c-1.3-.81-2.35-1.8-3.12-2.93a.753.753 0 0 1 .2-1.04c.34-.23.81-.14 1.04.2.65.96 1.55 1.8 2.67 2.5a.747.747 0 0 1-.4 1.38h.01Zm24.46-6.09a.753.753 0 0 1-.62-1.17c.69-1.02 1.36-2.16 1.98-3.37.19-.37.64-.51 1.01-.32s.51.64.32 1.01c-.65 1.27-1.35 2.45-2.08 3.52-.15.21-.38.33-.62.33h.01Zm-28.68-.34c-.39 0-.72-.3-.75-.69-.02-.23-.03-.46-.03-.68 0-1.21.26-2.45.76-3.58.17-.38.61-.55.99-.38.38.17.55.61.38.99a7.35 7.35 0 0 0-.62 3.53c.03.41-.28.77-.69.81h-.06.02Zm19.46-.51c-.25 0-.48-.12-.63-.34-.76-1.16-1.54-2.2-2.34-3.11a.756.756 0 0 1 .07-1.06c.31-.27.78-.24 1.06.07.84.96 1.67 2.06 2.47 3.28a.747.747 0 0 1-.63 1.16Zm-5.31-5.93a.76.76 0 0 1-.45-.15c-1.08-.81-2.19-1.41-3.29-1.76a.754.754 0 0 1-.48-.95c.13-.4.55-.61.95-.48 1.26.41 2.51 1.08 3.73 1.99a.75.75 0 0 1-.45 1.35h-.01Zm18.21-.31c-.09 0-.19-.02-.28-.05a.76.76 0 0 1-.42-.98c.47-1.16.92-2.41 1.34-3.72.13-.39.55-.61.94-.48.39.13.61.55.48.94-.43 1.34-.89 2.62-1.37 3.82-.12.29-.4.47-.7.47h.01Zm-29.28-.3a.74.74 0 0 1-.58-.28c-.26-.32-.21-.8.12-1.05a8.422 8.422 0 0 1 3.96-1.77c.42-.07.79.21.86.62.07.41-.21.79-.62.86a6.94 6.94 0 0 0-3.26 1.46c-.14.11-.3.17-.47.17l-.01-.01Zm31.74-7.32c-.06 0-.13 0-.19-.02a.75.75 0 0 1-.54-.91c.32-1.24.62-2.55.9-3.87a.74.74 0 0 1 .89-.58c.41.09.67.48.58.89-.28 1.34-.59 2.67-.92 3.94-.09.34-.39.56-.72.56v-.01Zm1.66-7.84s-.08 0-.13-.01a.75.75 0 0 1-.61-.87c.24-1.38.43-2.7.61-3.94.06-.41.43-.7.85-.64.41.06.7.44.64.85-.17 1.25-.38 2.59-.61 3.98-.06.37-.38.62-.74.62l-.01.01Zm1.12-7.94h-.09a.751.751 0 0 1-.66-.83l.12-1.05c.15-1.26.27-2.27.38-2.96.07-.41.45-.69.86-.62.41.06.69.45.62.86-.11.68-.22 1.67-.37 2.9l-.12 1.06c-.05.38-.37.66-.74.66v-.02Z"/>
  <path fill="#E56470" d="M182.73 67.88a4.28 4.28 0 0 1-4.27-4.27 4.28 4.28 0 0 1 4.27-4.27 4.28 4.28 0 0 1 4.27 4.27 4.28 4.28 0 0 1-4.27 4.27Zm0-6.71c-1.35 0-2.44 1.09-2.44 2.44 0 1.35 1.09 2.44 2.44 2.44 1.35 0 2.44-1.09 2.44-2.44 0-1.35-1.09-2.44-2.44-2.44Zm-163.86 102a2.88 2.88 0 1 1 .001-5.761 2.88 2.88 0 0 1-.001 5.761Zm0-3.93a1.05 1.05 0 1 0 0 2.1 1.05 1.05 0 0 0 0-2.1ZM201.01 44.8a17.2 17.2 0 0 1-4.88-.71 16.92 16.92 0 0 1-11.27-11.14c-.82-2.63-.99-5.45-.49-8.15.5-2.71 1.67-5.27 3.39-7.43 1.71-2.15 3.95-3.88 6.48-4.98.45-.2.98 0 1.19.46.2.46 0 .99-.46 1.19-2.26.98-4.26 2.52-5.79 4.45a15.195 15.195 0 0 0-3.03 6.64c-.45 2.42-.3 4.94.44 7.29.73 2.35 2.05 4.5 3.8 6.23 1.75 1.73 3.92 3.02 6.27 3.73 2.36.71 4.88.83 7.29.35s4.69-1.55 6.6-3.1c1.91-1.55 3.42-3.57 4.38-5.84a.9.9 0 1 1 1.66.7 16.954 16.954 0 0 1-4.9 6.53 16.914 16.914 0 0 1-10.67 3.79l-.01-.01Z"/>
  <path fill="#E56470" fill-opacity=".25" d="M215.74 27.89c.45 0 .67 0 .85-.1.15-.08.28-.23.35-.38.08-.19.07-.39.03-.8-.13-1.66-.53-3.3-1.17-4.85a15.97 15.97 0 0 0-3.47-5.2 15.927 15.927 0 0 0-5.19-3.47c-1.55-.64-3.18-1.03-4.85-1.17-.41-.03-.62-.05-.8.03-.15.07-.3.2-.38.35-.1.18-.1.4-.1.85V26.6c0 .45 0 .67.09.84.08.15.2.27.35.35.17.09.4.09.84.09h13.45v.01Z"/>
  <path fill="#E56470" d="M215.74 28.79h-13.45c-.53 0-.89 0-1.25-.19a1.7 1.7 0 0 1-.75-.75c-.18-.36-.18-.71-.18-1.25V13.16c0-.52 0-.9.21-1.28.17-.32.47-.59.81-.74.39-.17.74-.15 1.23-.11 1.77.14 3.49.56 5.13 1.23 2.06.86 3.91 2.09 5.49 3.67a16.96 16.96 0 0 1 3.67 5.49c.68 1.63 1.09 3.35 1.23 5.12.04.49.07.84-.1 1.23-.15.34-.42.64-.75.82-.38.21-.76.21-1.28.21l-.01-.01ZM201.9 12.8v14.19h14.19c0-.08-.02-.2-.03-.3-.13-1.58-.5-3.12-1.1-4.58-.76-1.84-1.86-3.49-3.28-4.9a15.04 15.04 0 0 0-9.48-4.38c-.13-.01-.23-.02-.31-.03h.01ZM34.27 29.35l-1.75-1.97c0-.16.02-.32.02-.49 0-.17-.01-.33-.02-.49l1.76-1.97c.57-.64.65-1.56.24-2.28l-1.14-1.98c-.43-.72-1.25-1.12-2.1-.94l-2.6.53c-.27-.17-.55-.33-.83-.48L27 16.75a1.954 1.954 0 0 0-1.86-1.34h-2.29c-.85 0-1.59.55-1.86 1.33l-.84 2.53c-.29.15-.57.31-.85.49l-2.58-.53c-.83-.18-1.67.22-2.1.94l-1.14 1.98c-.43.73-.33 1.65.23 2.28l1.76 1.97c0 .16-.02.32-.02.49 0 .17.01.33.02.49l-1.75 1.97c-.57.64-.65 1.56-.24 2.28l1.14 1.98c.43.72 1.25 1.11 2.1.94l2.6-.53c.27.17.55.33.83.48l.85 2.53c.27.81 1.02 1.34 1.86 1.34h2.29c.85 0 1.59-.55 1.86-1.33l.84-2.52c.29-.15.57-.31.85-.49l2.58.53c.83.18 1.67-.22 2.1-.94l1.14-1.98c.43-.73.33-1.65-.23-2.28l-.02-.01Zm-1.77 3.76a.98.98 0 0 1-1.03.47l-2.78-.57c-.14-.03-.28 0-.39.08-.34.24-.69.45-1.08.63-.12.06-.22.16-.26.29l-.91 2.7a.99.99 0 0 1-.92.66h-2.29c-.42 0-.78-.26-.92-.66L21.01 34a.478.478 0 0 0-.24-.28c-.39-.2-.76-.41-1.11-.64-.11-.08-.25-.1-.38-.08l-2.78.57c-.41.09-.82-.1-1.04-.47l-1.14-1.97a.964.964 0 0 1 .11-1.12l1.89-2.13c.09-.1.13-.23.13-.37-.01-.22-.03-.43-.03-.64 0-.21.01-.42.03-.64 0-.13-.04-.27-.13-.37l-1.89-2.12a.953.953 0 0 1-.12-1.11l1.14-1.98a.98.98 0 0 1 1.03-.47l2.78.57c.14.03.28 0 .39-.08.34-.24.69-.45 1.08-.63.12-.06.22-.16.26-.29l.91-2.7a.99.99 0 0 1 .92-.66h2.29c.42 0 .78.26.92.66l.91 2.71c.04.12.13.23.24.28.39.2.76.41 1.11.64.11.08.25.1.38.08l2.78-.57c.41-.09.82.1 1.03.47l1.14 1.97c.21.36.16.82-.11 1.12l-1.89 2.12a.54.54 0 0 0-.13.37c.01.22.03.44.03.64 0 .22-.01.42-.03.64 0 .13.04.27.13.37l1.89 2.12c.28.31.32.76.12 1.11l-1.14 1.98.01.01Z"/>
  <path fill="#E56470" d="M23.98 22.72c-2.3 0-4.16 1.86-4.16 4.16s1.86 4.16 4.16 4.16 4.16-1.86 4.16-4.16-1.86-4.16-4.16-4.16Zm0 7.33a3.16 3.16 0 0 1-3.16-3.16c0-1.74 1.42-3.16 3.16-3.16 1.74 0 3.16 1.42 3.16 3.16 0 1.74-1.42 3.16-3.16 3.16Zm130.47 140.19c16.02 0 29-12.98 29-29s-12.98-29-29-29-29 12.98-29 29 12.98 29 29 29Z"/>
  <path fill="#fff" d="M162 154.54h-15.12c-2.67 0-4.01 0-5.03-.74a3.936 3.936 0 0 1-1.61-2.72c-.15-1.25.5-2.42 1.78-4.76l7.56-13.74v-.02c1.37-2.47 2.05-3.71 3.23-4.25 1.03-.47 2.22-.47 3.25 0 1.18.54 1.87 1.78 3.23 4.26l7.56 13.75c1.29 2.33 1.93 3.51 1.78 4.76a3.936 3.936 0 0 1-1.61 2.72c-1.02.74-2.36.74-5.03.74h.01Zm-10.28-20.79-7.56 13.74c-.9 1.64-1.55 2.82-1.5 3.3.05.41.27.79.61 1.03.39.28 1.74.28 3.61.28H162c1.87 0 3.22 0 3.61-.28.34-.24.56-.62.61-1.03.06-.47-.6-1.66-1.5-3.29l-7.56-13.74c-.96-1.75-1.66-3.02-2.11-3.22-.39-.18-.84-.18-1.23 0-.45.2-1.14 1.46-2.1 3.21Z"/>
  <path fill="#fff" d="M154.45 149c-.77 0-1.41-.63-1.41-1.4 0-.77.62-1.4 1.39-1.4h.02c.77 0 1.4.63 1.4 1.4 0 .77-.63 1.4-1.4 1.4Zm-.03-5.05c-.67 0-1.22-.55-1.22-1.22v-5.39c0-.67.55-1.22 1.22-1.22.67 0 1.22.55 1.22 1.22v5.39c0 .67-.55 1.22-1.22 1.22Z"/>
</svg>
