<svg xmlns="http://www.w3.org/2000/svg" viewBox="0 0 220 184">
  <path fill="#75A4FE" d="M158.95 86.968c-.5 0-.9-.4-.9-.901V54.458c0-10.199 0-15.313-1.92-19.077a17.498 17.498 0 0 0-7.68-7.686c-3.76-1.922-8.87-1.922-19.06-1.922H89.97c-10.19 0-15.3 0-19.06 1.922a17.498 17.498 0 0 0-7.68 7.686c-1.92 3.764-1.92 8.888-1.92 19.077v31.609c0 .5-.4.9-.9.9s-.9-.4-.9-.9V54.458c0-10.489 0-15.754 2.11-19.897a19.274 19.274 0 0 1 8.47-8.478c4.14-2.112 9.4-2.112 19.88-2.112h39.42c10.48 0 15.74 0 19.88 2.112a19.274 19.274 0 0 1 8.47 8.478c2.11 4.143 2.11 9.408 2.11 19.897v31.609c0 .5-.4.9-.9.9Zm-43.11-1.592H85.05c-.5 0-.9-.4-.9-.9 0-.501.4-.902.9-.902h30.79c.5 0 .9.4.9.901 0 .5-.4.901-.9.901Zm16.51-14.363h-47.3c-.5 0-.9-.4-.9-.9 0-.501.4-.901.9-.901h47.3c.5 0 .9.4.9.9s-.4.901-.9.901Z"/>
  <path fill="#4E7FDB" d="M142.14 160.023H77.66c-10.55 0-15.84 0-20.01-2.132a19.393 19.393 0 0 1-8.52-8.528C47 145.189 47 139.895 47 129.335v-45.5c0-2.052 0-3.083.31-4.104a7.09 7.09 0 0 1 1.34-2.472c.68-.82 1.55-1.381 3.27-2.502l3.29-1.972c.93-.74 2.14-1.552 3.31-2.312a.903.903 0 0 1 .99 1.511c-1.15.75-2.33 1.552-3.21 2.252l-.02.02c-1.02.82-1.61 1.481-1.89 2.152a5.334 5.334 0 0 0 0 4.114c.63 1.501 2.69 2.842 6.79 5.515l38.39 24.982c3.82 2.482 5.74 3.733 7.69 4.194 1.72.4 3.54.4 5.26 0 1.95-.461 3.87-1.702 7.68-4.184l38.4-24.982c4.1-2.673 6.16-4.014 6.8-5.515a5.334 5.334 0 0 0 0-4.114c-.22-.51-.6-1.02-1.22-1.581l-.03-.03c-.89-.811-2.2-1.712-4.16-3.003a.903.903 0 0 1 .99-1.511c1.99 1.3 3.34 2.232 4.32 3.112l2.5 1.322c1.79 1.16 2.66 1.721 3.34 2.542.61.73 1.06 1.561 1.34 2.472.31 1.02.31 2.052.31 4.114v45.5c0 10.56 0 15.855-2.13 20.028a19.343 19.343 0 0 1-8.52 8.528c-4.17 2.132-9.46 2.132-20.01 2.132l.01-.02Zm-91.55-11.751c.04.09.09.19.14.28a17.565 17.565 0 0 0 7.73 7.737c3.79 1.932 8.94 1.932 19.2 1.932h64.48c10.26 0 15.41 0 19.19-1.932a17.61 17.61 0 0 0 7.74-7.747c1.93-3.793 1.93-8.937 1.93-19.207v-45.5c0-1.872 0-2.813-.23-3.584a5.163 5.163 0 0 0-1-1.841c-.46-.55-1.14-1.011-2.4-1.842a7.197 7.197 0 0 1-.3 4.624c-.85 2.012-3.06 3.453-7.48 6.326l-31.92 20.769.56.53 41.17 37.213c.37.331.4.901.06 1.271a.89.89 0 0 1-1.27.06L127 110.128l-.88-.841-4.92 3.203c-4 2.603-6 3.904-8.26 4.434-1.99.471-4.09.471-6.08 0-2.26-.53-4.27-1.831-8.26-4.434l-4.9-3.193-.91.821-42.2 38.124v.03Zm1.84-71.694c-1.25.82-1.93 1.291-2.39 1.842-.46.54-.79 1.16-1 1.841-.23.761-.23 1.702-.23 3.584v45.5c0 8.518 0 13.522 1.1 17.146l.5-.441 41.73-37.733-31.93-20.779c-4.42-2.873-6.63-4.314-7.48-6.326a7.197 7.197 0 0 1-.3-4.624v-.01Z"/>
  <path fill="#7E90B0" d="M35.73 77.319c-.51 0-.92-.41-.92-.92v-1.772h-1.76c-.51 0-.92-.41-.92-.921 0-.51.41-.921.92-.921h1.76v-1.772c0-.51.41-.92.92-.92s.92.41.92.92v1.772h1.76c.51 0 .92.41.92.92 0 .511-.41.922-.92.922h-1.76v1.771c0 .51-.41.921-.92.921Z"/>
  <path fill="#FF9C66" fill-opacity=".4" d="M130.82 47.412H87.07c-1.657 0-3 1.345-3 3.003v3.964a3.001 3.001 0 0 0 3 3.002h43.75a3 3 0 0 0 3-3.002v-3.964a3.001 3.001 0 0 0-3-3.003Z"/>
  <path fill="#FF9C66" d="M169.03 163.246c15.46 0 28-12.551 28-28.025 0-15.474-12.54-28.025-28-28.025s-28 12.541-28 28.025c0 15.484 12.54 28.025 28 28.025Z"/>
  <path fill="#fff" d="M168.4 149.263h-.24a13.773 13.773 0 0 1-8.48-3.123 13.821 13.821 0 0 1-4.7-7.716 13.757 13.757 0 0 1 1.11-8.969 13.78 13.78 0 0 1 6.44-6.335 13.749 13.749 0 0 1 8.98-.961c3 .701 5.71 2.422 7.63 4.834a13.795 13.795 0 0 1 2.97 8.538v1.251c0 1.331-.52 2.582-1.46 3.513a4.938 4.938 0 0 1-3.51 1.461 4.953 4.953 0 0 1-4.07-2.121 6.192 6.192 0 0 1-4.67 2.121c-3.43 0-6.22-2.792-6.22-6.225s2.79-6.226 6.22-6.226c1.42 0 2.73.481 3.78 1.282v-.061c0-.67.55-1.221 1.22-1.221.67 0 1.22.551 1.22 1.221v6.256c0 .681.26 1.311.74 1.792.96.95 2.62.95 3.58 0 .48-.481.74-1.111.74-1.792v-1.251c0-2.532-.87-5.025-2.44-7.016a11.27 11.27 0 0 0-6.27-3.974c-2.47-.58-5.09-.3-7.38.791a11.283 11.283 0 0 0-5.29 5.214 11.32 11.32 0 0 0-.91 7.377 11.355 11.355 0 0 0 3.86 6.346 11.312 11.312 0 0 0 6.97 2.562c2.55.05 5.04-.781 7.05-2.322.54-.41 1.3-.31 1.71.23.41.541.31 1.301-.23 1.712a13.76 13.76 0 0 1-8.34 2.832l-.01-.02Zm0-17.515a3.791 3.791 0 0 0-3.78 3.783c0 2.082 1.7 3.783 3.78 3.783s3.78-1.701 3.78-3.783-1.7-3.783-3.78-3.783Z"/>
  <path fill="#5BC1A5" d="M18.6 29.206c-.37 0-.71-.23-.84-.58L15.68 23.2c-.32-.821-.47-1.221-.67-1.502-.17-.24-.38-.45-.64-.64-.28-.19-.67-.35-1.49-.67l-5.41-2.083a.899.899 0 0 1 0-1.681l5.41-2.082c.83-.32 1.22-.47 1.5-.67.24-.17.45-.381.64-.641.19-.28.35-.67.67-1.492l2.08-5.424a.898.898 0 0 1 1.68 0l2.08 5.424c.32.821.47 1.211.67 1.502.19.26.4.47.64.64.28.19.67.35 1.49.67l5.41 2.083a.899.899 0 0 1 0 1.681l-5.41 2.082c-.84.33-1.23.48-1.5.67-.24.17-.45.381-.64.641-.2.28-.35.67-.67 1.492l-2.08 5.424a.899.899 0 0 1-.84.581Zm-8.31-11.74 3.22 1.24c.89.34 1.41.551 1.89.881.43.31.79.671 1.08 1.081.33.48.54 1.001.88 1.892l1.24 3.233 1.24-3.233c.34-.89.55-1.411.88-1.892.31-.43.67-.79 1.08-1.08.46-.32.97-.521 1.88-.881l3.23-1.242-3.22-1.24c-.88-.34-1.41-.541-1.88-.881-.4-.28-.74-.63-1.06-1.061-.35-.5-.56-1.021-.89-1.912l-1.24-3.233-1.24 3.233c-.34.89-.55 1.411-.88 1.882-.31.43-.67.79-1.08 1.08-.48.33-1 .541-1.89.881l-3.22 1.242-.02.01ZM5.9 9.838c-.5 0-.9-.4-.9-.901V6.816H2.9c-.5 0-.9-.4-.9-.9 0-.501.4-.902.9-.902H5V2.923c0-.5.4-.911.9-.911s.9.4.9.9v2.102h2.1c.5 0 .9.4.9.901 0 .5-.4.901-.9.901H6.8v2.122c0 .5-.4.9-.9.9Z"/>
  <path fill="#7E90B0" d="M182.37 8.958c-.5 0-.92-.41-.92-.92V2.922c0-.5.41-.921.92-.921s.92.41.92.92v5.125c0 .5-.41.92-.92.92v-.01Zm0 11.931c-.5 0-.92-.41-.92-.921v-5.115c0-.5.41-.92.92-.92s.92.41.92.92v5.115c0 .5-.41.92-.92.92ZM179 12.36h-5.1c-.5 0-.92-.41-.92-.92s.41-.92.92-.92h5.1c.5 0 .92.41.92.92s-.41.92-.92.92Zm11.88 0h-5.1c-.5 0-.92-.41-.92-.92s.41-.92.92-.92h5.1c.5 0 .92.41.92.92s-.41.92-.92.92Z"/>
  <path fill="#E56470" d="M208.96 68.461c-3.49 0-6.34-2.842-6.34-6.346a6.345 6.345 0 0 1 6.34-6.345c3.5 0 6.34 2.842 6.34 6.345a6.345 6.345 0 0 1-6.34 6.346Zm0-10.85a4.513 4.513 0 0 0 0 9.028c2.49 0 4.51-2.021 4.51-4.513a4.513 4.513 0 0 0-4.51-4.515Z"/>
  <path fill="#7E90B0" d="M110.65 175.306c-.39 0-.7-.31-.7-.7v-2.002c0-.39.31-.701.7-.701.39 0 .7.311.7.701v2.002c0 .39-.31.7-.7.7Zm0 6.006c-.39 0-.7-.31-.7-.7v-3.003c0-.391.31-.701.7-.701.39 0 .7.31.7.701v3.003c0 .39-.31.7-.7.7Zm-2-4.004h-2c-.39 0-.7-.31-.7-.7 0-.39.31-.701.7-.701h2c.39 0 .7.311.7.701 0 .39-.31.7-.7.7Zm6 0h-2c-.39 0-.7-.31-.7-.7 0-.39.31-.701.7-.701h2c.39 0 .7.311.7.701 0 .39-.31.7-.7.7Z"/>
  <path fill="#E56470" d="M26.12 127.464a3.993 3.993 0 0 1-3.98-3.984 3.992 3.992 0 0 1 3.98-3.983c2.19 0 3.98 1.791 3.98 3.983a3.993 3.993 0 0 1-3.98 3.984Zm0-6.806a2.835 2.835 0 0 0-2.83 2.832 2.835 2.835 0 0 0 2.83 2.833c1.56 0 2.83-1.271 2.83-2.833a2.835 2.835 0 0 0-2.83-2.832Z"/>
</svg>
