<svg xmlns="http://www.w3.org/2000/svg" viewBox="0 0 220 184">
  <path fill="#7E90B0" d="M210.05 127.09c-.51 0-.92-.41-.92-.92v-1.77h-1.76c-.51 0-.92-.41-.92-.92s.41-.92.92-.92h1.76v-1.77c0-.51.41-.92.92-.92s.92.41.92.92v1.77h1.76c.51 0 .92.41.92.92s-.41.92-.92.92h-1.76v1.77c0 .51-.41.92-.92.92Z"/>
  <path fill="#E56470" d="M211.73 25.8c-.39 0-.7-.31-.7-.7v-.62c0-2.19 1.59-3.96 3.13-5.66.6-.67 1.17-1.3 1.63-1.94.48-.67.74-1.46.74-2.26 0-2.33-2.15-4.23-4.8-4.23s-4.8 1.9-4.8 4.23c0 .39-.31.7-.7.7-.39 0-.7-.31-.7-.7 0-3.1 2.78-5.63 6.2-5.63 3.42 0 6.2 2.53 6.2 5.63 0 1.09-.35 2.16-1 3.07-.5.7-1.13 1.39-1.73 2.06-1.36 1.51-2.77 3.07-2.77 4.73v.62c0 .39-.31.7-.7.7Zm-1.99 4.77c-.44 0-.81-.36-.81-.8 0-.44.35-.8.79-.8h.02c.44 0 .8.36.8.8 0 .44-.36.8-.8.8Z"/>
  <path fill="#4E7FDB" d="M168.51 37.75c-8.46-8.46-21.91-8.47-46.33-8.47h-22.11c-26.61 0-39.97 0-48.44 8.47-8.46 8.47-8.46 21.84-8.46 48.48v15.65c.02 23.92.4 36.77 8.46 44.84 8.46 8.47 21.82 8.47 48.44 8.47h22.11c24.42 0 37.87 0 46.33-8.47 8.06-8.07 8.45-20.92 8.46-44.84V86.24c0-26.64 0-40.01-8.46-48.48v-.01Zm-115.6 1.27c7.94-7.94 21.05-7.94 47.16-7.94h22.11c23.94 0 37.13 0 45.06 7.94 3.57 3.58 5.53 8.21 6.61 14.59H46.29c1.08-6.39 3.04-11.02 6.61-14.59h.01Zm122.26 62.85c-.02 24.08-.36 35.99-7.94 43.57-7.93 7.94-21.12 7.94-45.06 7.94h-22.11c-26.12 0-39.22 0-47.16-7.94-7.57-7.58-7.92-19.49-7.94-43.57V86.23c0-13.3 0-23.22 1.05-30.81h128.1c1.04 7.59 1.05 17.51 1.05 30.81v15.64h.01Z"/>
  <path fill="#7E90B0" fill-opacity=".6" d="M22.43 58.03c-2.3 0-4.16 1.87-4.16 4.17s1.86 4.17 4.16 4.17 4.16-1.87 4.16-4.17-1.86-4.17-4.16-4.17Zm0 7.33c-1.75 0-3.16-1.42-3.16-3.17s1.42-3.17 3.16-3.17c1.74 0 3.16 1.42 3.16 3.17s-1.42 3.17-3.16 3.17Z"/>
  <path fill="#7E90B0" fill-opacity=".6" d="M32.95 66.95c.43-.73.33-1.65-.23-2.28l-1.76-1.98c0-.16.02-.32.02-.49 0-.17-.01-.33-.02-.49l1.76-1.97c.57-.64.65-1.56.24-2.28l-1.14-1.98c-.43-.72-1.25-1.12-2.1-.94l-2.6.53c-.27-.17-.55-.33-.83-.48l-.85-2.54a1.954 1.954 0 0 0-1.86-1.34h-2.29c-.85 0-1.59.55-1.86 1.33l-.84 2.53c-.29.15-.57.31-.85.49l-2.58-.53c-.84-.18-1.67.22-2.1.94l-1.14 1.98c-.43.73-.33 1.65.23 2.28l1.76 1.98c0 .16-.02.32-.02.49 0 .17.01.33.02.49l-1.76 1.97c-.57.64-.65 1.56-.24 2.28l1.14 1.98c.43.72 1.25 1.12 2.1.94l2.6-.53c.27.17.55.33.83.48l.85 2.53c.27.81 1.02 1.34 1.86 1.34h2.29c.85 0 1.59-.55 1.86-1.33l.84-2.53c.29-.15.57-.31.85-.49l2.58.53c.84.18 1.67-.22 2.1-.94l1.14-1.98v.01Zm-2 1.47a.98.98 0 0 1-1.03.47l-2.78-.57c-.14-.03-.28 0-.39.08-.34.24-.69.45-1.08.63-.12.06-.22.16-.26.29l-.91 2.71a.99.99 0 0 1-.92.66h-2.29c-.42 0-.78-.26-.92-.66l-.91-2.71a.478.478 0 0 0-.24-.28c-.39-.2-.76-.41-1.11-.64-.11-.08-.25-.1-.38-.08l-2.78.57c-.41.09-.82-.1-1.03-.47l-1.14-1.97a.964.964 0 0 1 .11-1.12l1.89-2.13c.09-.1.13-.23.13-.37-.01-.22-.03-.43-.03-.64 0-.21.01-.42.03-.64 0-.13-.04-.27-.13-.37l-1.89-2.13a.938.938 0 0 1-.12-1.11l1.14-1.98a.98.98 0 0 1 1.03-.47l2.78.57c.14.03.28 0 .39-.08.34-.24.69-.45 1.08-.63.12-.06.22-.16.26-.29l.91-2.71a.99.99 0 0 1 .92-.66h2.29c.42 0 .78.26.92.66l.91 2.71c.04.12.13.23.24.29.39.2.76.41 1.11.64.11.08.25.1.38.08l2.78-.57c.41-.09.82.1 1.03.47l1.14 1.97c.21.36.16.82-.11 1.12l-1.89 2.13a.54.54 0 0 0-.13.37c.01.22.03.44.03.64 0 .22-.01.42-.03.64 0 .13.04.27.13.37l1.89 2.13c.28.31.33.76.12 1.11l-1.14 1.98v-.01Z"/>
  <path fill="#4E7FDB" d="M149.73 43.47a1.3 1.3 0 1 0 0-2.6 1.3 1.3 0 0 0 0 2.6Z"/>
  <path fill="#4E7FDB" d="M149.73 43.97c-.99 0-1.8-.81-1.8-1.8s.81-1.8 1.8-1.8 1.8.81 1.8 1.8-.81 1.8-1.8 1.8Zm0-2.61c-.44 0-.8.36-.8.8 0 .44.36.8.8.8.44 0 .8-.36.8-.8 0-.44-.36-.8-.8-.8Zm-10.08 2.11a1.3 1.3 0 1 0 0-2.6 1.3 1.3 0 0 0 0 2.6Z"/>
  <path fill="#4E7FDB" d="M139.65 43.97c-.99 0-1.8-.81-1.8-1.8s.81-1.8 1.8-1.8 1.8.81 1.8 1.8-.81 1.8-1.8 1.8Zm0-2.61c-.44 0-.8.36-.8.8 0 .44.36.8.8.8.44 0 .8-.36.8-.8 0-.44-.36-.8-.8-.8Z"/>
  <path fill="#7E90B0" d="M8.17 111.83c-.51 0-.92-.41-.92-.92v-3.17c0-.51.41-.92.92-.92s.92.41.92.92v3.17c0 .51-.41.92-.92.92Zm0 7.39c-.51 0-.92-.41-.92-.92v-3.17c0-.51.41-.92.92-.92s.92.41.92.92v3.17c0 .51-.41.92-.92.92Zm-2.1-5.28H2.92c-.51 0-.92-.41-.92-.92s.41-.92.92-.92h3.16c.51 0 .92.41.92.92s-.41.92-.92.92h-.01Zm7.37 0h-3.16c-.51 0-.92-.41-.92-.92s.41-.92.92-.92h3.16c.51 0 .92.41.92.92s-.41.92-.92.92Z"/>
  <path fill="#E56470" d="M192.92 65.13a4.28 4.28 0 0 1-4.27-4.27 4.28 4.28 0 0 1 4.27-4.27 4.28 4.28 0 0 1 4.27 4.27 4.28 4.28 0 0 1-4.27 4.27Zm0-6.71c-1.35 0-2.44 1.09-2.44 2.44 0 1.35 1.09 2.44 2.44 2.44 1.35 0 2.44-1.09 2.44-2.44 0-1.35-1.09-2.44-2.44-2.44ZM35.88 163.84a2.88 2.88 0 1 1 .001-5.761 2.88 2.88 0 0 1-.001 5.761Zm0-3.93a1.05 1.05 0 1 0 0 2.1 1.05 1.05 0 0 0 0-2.1Z"/>
  <path fill="#FF9C66" d="M162.45 173.42c16.02 0 29-12.98 29-29s-12.98-29-29-29-29 12.98-29 29 12.98 29 29 29Z"/>
  <path fill="#fff" d="M161.99 159.3c-8.39 0-15.22-6.83-15.22-15.22 0-4.16 1.67-7.93 4.38-10.68.02-.03.05-.06.08-.08.03-.03.06-.05.08-.08a15.16 15.16 0 0 1 10.67-4.38c8.39 0 15.22 6.83 15.22 15.22 0 4.15-1.67 7.93-4.38 10.67-.02.03-.05.06-.08.08-.03.03-.06.05-.08.08a15.165 15.165 0 0 1-10.68 4.38l.01.01Zm-9.85-23.35a12.699 12.699 0 0 0-2.93 8.13c0 7.05 5.73 12.78 12.78 12.78 3.08 0 5.92-1.1 8.13-2.93l-17.98-17.98Zm1.72-1.73 17.98 17.98c1.83-2.21 2.93-5.04 2.93-8.13 0-7.05-5.73-12.78-12.78-12.78-3.08 0-5.92 1.1-8.13 2.93Z"/>
  <path fill="#80A3EB" fill-opacity=".25" d="M61.99 76.08c0-2.21 1.79-4 4-4h90c2.21 0 4 1.79 4 4v16c0 2.21-1.79 4-4 4h-90c-2.21 0-4-1.79-4-4v-16Z"/>
  <path fill="#75A4FE" d="M155.99 96.98h-90c-2.7 0-4.9-2.2-4.9-4.9v-16c0-2.7 2.2-4.9 4.9-4.9h90c2.7 0 4.9 2.2 4.9 4.9v16c0 2.7-2.2 4.9-4.9 4.9Zm-90-24c-1.71 0-3.1 1.39-3.1 3.1v16c0 1.71 1.39 3.1 3.1 3.1h90c1.71 0 3.1-1.39 3.1-3.1v-16c0-1.71-1.39-3.1-3.1-3.1h-90Zm16 60h-16c-2.7 0-4.9-2.2-4.9-4.9v-16c0-2.7 2.2-4.9 4.9-4.9h16c2.7 0 4.9 2.2 4.9 4.9v16c0 2.7-2.2 4.9-4.9 4.9Zm-16-24c-1.71 0-3.1 1.39-3.1 3.1v16c0 1.71 1.39 3.1 3.1 3.1h16c1.71 0 3.1-1.39 3.1-3.1v-16c0-1.71-1.39-3.1-3.1-3.1h-16Zm52 24h-16c-2.7 0-4.9-2.2-4.9-4.9v-16c0-2.7 2.2-4.9 4.9-4.9h16c2.7 0 4.9 2.2 4.9 4.9v16c0 2.7-2.2 4.9-4.9 4.9Zm-16-24c-1.71 0-3.1 1.39-3.1 3.1v16c0 1.71 1.39 3.1 3.1 3.1h16c1.71 0 3.1-1.39 3.1-3.1v-16c0-1.71-1.39-3.1-3.1-3.1h-16Z"/>
</svg>
