<svg xmlns="http://www.w3.org/2000/svg" viewBox="0 0 220 184">
  <path fill="#7E90B0" d="M35.59 85.637c-.51 0-.92-.41-.92-.921v-1.772h-1.76c-.51 0-.92-.41-.92-.92 0-.511.41-.921.92-.921h1.76V79.33c0-.51.41-.92.92-.92s.92.41.92.92v1.772h1.76c.51 0 .92.41.92.92s-.41.921-.92.921h-1.76v1.772c0 .51-.41.92-.92.92Z"/>
  <path fill="#E56470" d="M208.82 76.779c-3.49 0-6.34-2.843-6.34-6.346a6.345 6.345 0 0 1 6.34-6.346c3.5 0 6.34 2.843 6.34 6.346a6.345 6.345 0 0 1-6.34 6.346Zm0-10.85a4.513 4.513 0 0 0 0 9.028c2.49 0 4.51-2.022 4.51-4.514a4.513 4.513 0 0 0-4.51-4.514ZM25.98 135.791a3.992 3.992 0 0 1-3.98-3.983 3.993 3.993 0 0 1 3.98-3.984c2.19 0 3.98 1.792 3.98 3.984a3.992 3.992 0 0 1-3.98 3.983Zm0-6.816a2.835 2.835 0 0 0-2.83 2.833 2.835 2.835 0 0 0 2.83 2.832c1.56 0 2.83-1.271 2.83-2.832a2.835 2.835 0 0 0-2.83-2.833Z"/>
  <path fill="#FF9C66" fill-opacity=".25" d="M47.76 43.79c0-6.947 0-10.43 1.35-13.082a12.456 12.456 0 0 1 5.42-5.425c2.65-1.352 6.12-1.352 13.07-1.352h84.32c6.94 0 10.42 0 13.07 1.352a12.456 12.456 0 0 1 5.42 5.424c1.35 2.653 1.35 6.126 1.35 13.082v3.924c0 6.946 0 10.429-1.35 13.081a12.456 12.456 0 0 1-5.42 5.425c-2.65 1.351-6.12 1.351-13.07 1.351H67.6c-6.94 0-10.42 0-13.07-1.35a12.456 12.456 0 0 1-5.42-5.426c-1.35-2.652-1.35-6.125-1.35-13.081v-3.924Z"/>
  <path fill="#4E7FDB" d="M172 154.518h-52.36c-.47-4.554-4.09-8.187-8.64-8.648v-12.751c0-.55-.45-1.001-1-1.001s-1 .451-1 1.001v12.751c-4.55.471-8.18 4.094-8.64 8.648H48c-.55 0-1 .451-1 1.001 0 .551.45 1.001 1 1.001h52.36c.5 4.884 4.64 8.708 9.64 8.708 5 0 9.14-3.824 9.64-8.708H172c.55 0 1-.45 1-1.001 0-.55-.45-1.001-1-1.001Zm-62 8.708c-4.24 0-7.7-3.453-7.7-7.707s3.45-7.707 7.7-7.707 7.7 3.453 7.7 7.707-3.45 7.707-7.7 7.707Z"/>
  <path fill="#FF9C66" fill-opacity=".25" d="M47.76 108.247c0-6.946 0-10.43 1.35-13.082a12.455 12.455 0 0 1 5.42-5.425c2.65-1.35 6.12-1.35 13.07-1.35h84.32c6.94 0 10.42 0 13.07 1.35a12.455 12.455 0 0 1 5.42 5.425c1.35 2.653 1.35 6.126 1.35 13.082v3.923c0 6.947 0 10.43-1.35 13.082a12.456 12.456 0 0 1-5.42 5.425c-2.65 1.351-6.12 1.351-13.07 1.351H67.6c-6.94 0-10.42 0-13.07-1.351a12.404 12.404 0 0 1-5.42-5.425c-1.35-2.652-1.35-6.125-1.35-13.082v-3.923Z"/>
  <path fill="#75A4FE" d="M151.92 132.949H67.6c-7.08 0-10.64 0-13.49-1.451a13.214 13.214 0 0 1-5.82-5.826c-1.45-2.852-1.45-6.405-1.45-13.502v-7.927c0-7.086 0-10.65 1.45-13.492a13.313 13.313 0 0 1 5.82-5.825c2.85-1.451 6.4-1.451 13.49-1.451h84.32c7.08 0 10.64 0 13.49 1.451a13.313 13.313 0 0 1 5.82 5.825c1.45 2.853 1.45 6.406 1.45 13.502v7.927c0 7.087 0 10.65-1.45 13.492a13.265 13.265 0 0 1-5.82 5.826c-2.85 1.451-6.4 1.451-13.49 1.451ZM67.6 85.306c-6.79 0-10.2 0-12.66 1.251a11.442 11.442 0 0 0-5.02 5.025c-1.25 2.462-1.25 5.865-1.25 12.661v7.927c0 6.796 0 10.209 1.25 12.662a11.39 11.39 0 0 0 5.02 5.024c2.46 1.251 5.87 1.251 12.66 1.251h84.32c6.79 0 10.2 0 12.65-1.251a11.44 11.44 0 0 0 5.02-5.024c1.25-2.463 1.25-5.866 1.25-12.662v-7.927c0-6.796 0-10.209-1.25-12.661a11.442 11.442 0 0 0-5.02-5.025c-2.46-1.25-5.87-1.25-12.65-1.25H67.6Zm79.27 23.822h-8.33c-.5 0-.92-.411-.92-.921 0-.511.41-.921.92-.921h8.33c.5 0 .92.41.92.921 0 .51-.41.921-.92.921Zm-41.18 0H72.56c-.5 0-.92-.411-.92-.921 0-.511.41-.921.92-.921h33.13c.5 0 .92.41.92.921 0 .51-.41.921-.92.921Zm46.23-40.637H67.6c-7.08 0-10.64 0-13.49-1.451a13.263 13.263 0 0 1-5.82-5.825c-1.45-2.853-1.45-6.406-1.45-13.502v-7.927c0-7.087 0-10.65 1.45-13.492a13.262 13.262 0 0 1 5.82-5.826c2.85-1.45 6.4-1.45 13.49-1.45h84.32c7.08 0 10.64 0 13.49 1.45a13.262 13.262 0 0 1 5.82 5.826c1.45 2.852 1.45 6.405 1.45 13.492v7.927c0 7.086 0 10.65-1.45 13.492a13.263 13.263 0 0 1-5.82 5.825c-2.85 1.451-6.4 1.451-13.49 1.451v.01ZM67.6 20.85c-6.79 0-10.2 0-12.66 1.25a11.442 11.442 0 0 0-5.02 5.025c-1.25 2.463-1.25 5.876-1.25 12.662v7.927c0 6.796 0 10.209 1.25 12.661a11.391 11.391 0 0 0 5.02 5.024c2.46 1.252 5.87 1.252 12.66 1.252h84.32c6.79 0 10.2 0 12.66-1.252a11.442 11.442 0 0 0 5.02-5.024c1.25-2.462 1.25-5.865 1.25-12.661v-7.927c0-6.796 0-10.21-1.25-12.662a11.442 11.442 0 0 0-5.02-5.024c-2.46-1.251-5.87-1.251-12.66-1.251H67.6Zm79.22 23.821h-8.27c-.5 0-.92-.41-.92-.92 0-.511.41-.922.92-.922h8.27c.5 0 .92.41.92.921 0 .51-.41.921-.92.921Zm-41.19 0H72.56c-.5 0-.92-.41-.92-.92 0-.511.41-.922.92-.922h33.07c.5 0 .92.41.92.921 0 .51-.41.921-.92.921Z"/>
  <path fill="#FF9C66" d="M168.89 162.555c16.02 0 29-12.991 29-29.026 0-16.034-12.98-29.026-29-29.026s-29 12.992-29 29.026c0 16.035 12.98 29.026 29 29.026Z"/>
  <path fill="#fff" d="M168.89 134.59c-.67 0-1.22-.55-1.22-1.221v-5.004c0-.671.55-1.221 1.22-1.221.67 0 1.22.55 1.22 1.221v5.004c0 .671-.55 1.221-1.22 1.221Zm.02 4.284c-.67 0-1.23-.55-1.23-1.221 0-.67.54-1.221 1.21-1.221h.01c.67 0 1.22.551 1.22 1.221 0 .671-.55 1.221-1.22 1.221h.01Z"/>
  <path fill="#fff" d="M168.89 148.263c-.19 0-.37-.021-.54-.051-.41-.09-.68-.25-1.02-.45-3.18-1.852-10.57-6.956-10.57-14.183v-6.525c0-1.202 0-1.862.26-2.543.23-.6.6-1.131 1.08-1.561.54-.481 1.16-.711 2.28-1.131l7.32-2.743c.33-.12.55-.2.82-.24.25-.03.5-.04.74 0 .28.04.49.12.82.24l7.32 2.743c1.12.42 1.74.65 2.29 1.131.48.42.85.961 1.08 1.561.26.681.26 1.341.26 2.543v6.525c0 7.227-7.39 12.321-10.57 14.183-.35.2-.62.36-1.02.45-.17.04-.36.051-.54.051h-.01Zm-.34-2.603c.14.08.22.14.31.17.14-.03.23-.09.37-.17 2.19-1.281 9.36-5.945 9.36-12.071v-6.525c0-.881 0-1.412-.1-1.672-.09-.23-.23-.43-.41-.59-.21-.181-.71-.371-1.53-.681l-7.31-2.743c-.15-.06-.25-.1-.33-.12-.1.02-.19.06-.35.12l-7.31 2.743c-.83.31-1.32.5-1.53.681a1.5 1.5 0 0 0-.41.59c-.1.26-.1.791-.1 1.672v6.525c0 6.126 7.16 10.79 9.36 12.071h-.02Z"/>
</svg>
