<svg xmlns="http://www.w3.org/2000/svg" viewBox="0 0 220 184">
  <path fill="#7E90B0" d="M210.05 127.09c-.51 0-.92-.41-.92-.92v-1.77h-1.76c-.51 0-.92-.41-.92-.92s.41-.92.92-.92h1.76v-1.77c0-.51.41-.92.92-.92s.92.41.92.92v1.77h1.76c.51 0 .92.41.92.92s-.41.92-.92.92h-1.76v1.77c0 .51-.41.92-.92.92ZM33.67 38.36c-.51 0-.92-.41-.92-.92v-1.77h-1.76c-.51 0-.92-.41-.92-.92s.41-.92.92-.92h1.76v-1.77c0-.51.41-.92.92-.92s.92.41.92.92v1.77h1.76c.51 0 .92.41.92.92s-.41.92-.92.92h-1.76v1.77c0 .51-.41.92-.92.92Z"/>
  <path fill="#E56470" d="M211.73 25.8c-.39 0-.7-.31-.7-.7v-.62c0-2.2 1.59-3.96 3.13-5.67.6-.67 1.17-1.3 1.63-1.94.48-.67.74-1.46.74-2.26 0-2.33-2.15-4.23-4.8-4.23s-4.8 1.9-4.8 4.23c0 .39-.31.7-.7.7-.39 0-.7-.31-.7-.7 0-3.1 2.78-5.63 6.2-5.63 3.42 0 6.2 2.53 6.2 5.63 0 1.09-.35 2.16-1 3.07-.5.7-1.13 1.39-1.73 2.06-1.36 1.51-2.77 3.07-2.77 4.73v.62c0 .39-.31.7-.7.7v.01Zm-1.99 4.77c-.44 0-.81-.36-.81-.8 0-.44.35-.8.79-.8h.02c.44 0 .8.36.8.8 0 .44-.36.8-.8.8Z"/>
  <path fill="#75A4FE" d="M109.99 154.98c-1.96 0-3.91-.28-5.81-.83-3.08-.89-5.89-2.76-11.49-6.48-13.11-8.71-19.2-14.74-23.43-19.5-4.98-5.6-9.93-12.08-12.36-21.46-1.81-6.99-1.81-14.56-1.81-29.64v-4.83c0-9.47 0-14.22 1.78-18.34a21.43 21.43 0 0 1 4.62-6.78c3.17-3.14 7.55-4.81 16.27-8.13l17.7-6.75c7.13-2.72 10.7-4.08 14.54-4.08s7.41 1.36 14.54 4.08l17.69 6.75c8.72 3.33 13.1 5 16.28 8.14a21.43 21.43 0 0 1 4.62 6.78c1.78 4.12 1.78 8.87 1.78 18.34v4.83c0 15.08 0 22.65-1.81 29.64-2.23 8.59-6.5 16.62-12.36 23.2-4.77 5.36-11 9.5-23.42 17.75-5.61 3.72-8.42 5.59-11.5 6.48-1.9.55-3.86.83-5.81.83h-.02Zm0-125c-3.5 0-6.97 1.32-13.89 3.96l-17.7 6.75c-8.49 3.24-12.75 4.86-15.65 7.73-1.8 1.78-3.23 3.87-4.23 6.21-1.63 3.78-1.63 8.41-1.63 17.63v4.83c0 14.93 0 22.42 1.75 29.18 2.2 8.5 6.38 14.43 11.96 20.71 4.15 4.67 10.14 10.6 23.07 19.19 5.46 3.62 8.19 5.44 11.01 6.25a18.99 18.99 0 0 0 10.62 0c2.81-.82 5.55-2.63 11.01-6.25 12.29-8.16 18.46-12.25 23.07-17.44a54.459 54.459 0 0 0 11.96-22.46c1.75-6.76 1.75-14.26 1.75-29.18v-4.83c0-9.22 0-13.85-1.63-17.63a19.619 19.619 0 0 0-4.23-6.21c-2.91-2.87-7.17-4.5-15.65-7.73l-17.69-6.74c-6.92-2.64-10.4-3.96-13.9-3.96v-.01Z"/>
  <path fill="#FF9C66" fill-opacity=".18" d="M163.35 61.46a19.17 19.17 0 0 0-4.26-6.03c-2.93-2.79-7.08-4.31-15.37-7.36l-17.03-6.26c-6.77-2.49-10.16-3.73-13.69-3.73-3.53 0-6.92 1.24-13.69 3.73l-17.03 6.26c-8.3 3.05-12.44 4.57-15.37 7.36a19.01 19.01 0 0 0-4.26 6.03c-1.64 3.67-1.64 8.01-1.64 16.69v4.48c0 13.94 0 20.91 1.72 27.29a50.658 50.658 0 0 0 11.71 21.19c4.52 4.89 10.47 8.71 22.39 16.33 5.33 3.41 8 5.12 10.84 5.91 3.5.98 7.21.98 10.71 0 2.84-.79 5.5-2.5 10.84-5.91 11.91-7.62 17.87-11.43 22.39-16.33a50.598 50.598 0 0 0 11.71-21.19c1.71-6.38 1.71-13.35 1.71-27.29v-4.48c0-8.68 0-13.02-1.64-16.69h-.04ZM123.43 74.7c-1.15 1.15-1.5 1.89-1.5 3.5 0 1.27.25 3.09-.76 4.08-1 .99-2.8.74-4.07.74-1.55 0-2.3.3-3.41 1.41-.95.94-2.21 2.65-3.71 2.65s-2.76-1.7-3.7-2.65c-1.11-1.11-1.86-1.41-3.41-1.41-1.27 0-3.07.25-4.07-.74-1-1-.76-2.81-.76-4.08 0-1.61-.35-2.35-1.5-3.5-1.71-1.71-2.56-2.56-2.56-3.62s.85-1.91 2.56-3.62c1.02-1.02 1.5-2.04 1.5-3.5 0-1.27-.25-3.07.74-4.07 1-1 2.81-.76 4.08-.76 1.46 0 2.47-.48 3.5-1.5 1.71-1.71 2.56-2.56 3.62-2.56s1.91.85 3.62 2.56c1.02 1.02 2.04 1.5 3.5 1.5 1.27 0 3.07-.25 4.07.74 1 1 .76 2.81.76 4.08 0 1.61.35 2.35 1.5 3.5 1.71 1.71 2.56 2.56 2.56 3.62s-.85 1.91-2.56 3.62v.01Z"/>
  <path fill="#4E7FDB" d="M109.99 88.3c-1.76 0-3.1-1.43-4.07-2.48-.17-.19-.34-.36-.49-.52-.88-.88-1.31-1.06-2.55-1.06-.19 0-.4 0-.61.01-1.31.04-3.11.09-4.32-1.11-1.22-1.21-1.17-3.02-1.13-4.34 0-.21.01-.42.01-.61 0-1.24-.19-1.68-1.14-2.63-1.88-1.88-2.92-2.92-2.92-4.48 0-1.56 1.03-2.6 2.91-4.48.84-.84 1.15-1.55 1.15-2.64 0-.19 0-.4-.01-.61-.04-1.31-.09-3.11 1.11-4.32 1.21-1.22 3.02-1.17 4.34-1.13 1.43.05 2.26-.15 3.24-1.13 1.88-1.88 2.92-2.92 4.48-2.92 1.56 0 2.6 1.04 4.48 2.92.83.83 1.55 1.14 2.64 1.14.19 0 .4 0 .61-.01 1.31-.04 3.11-.09 4.32 1.11 1.22 1.21 1.17 3.02 1.13 4.34 0 .21-.01.42-.01.61 0 1.24.19 1.69 1.14 2.63 1.88 1.88 2.92 2.92 2.92 4.48 0 1.56-1.04 2.6-2.92 4.48-.95.95-1.14 1.39-1.14 2.63 0 .19 0 .4.01.61.04 1.32.09 3.13-1.13 4.34-1.21 1.2-3 1.15-4.32 1.11-.21 0-.42-.01-.61-.01-1.24 0-1.67.18-2.55 1.06-.15.16-.32.33-.49.52-.98 1.05-2.31 2.49-4.08 2.49Zm-7.11-6.5c1.9 0 2.94.43 4.28 1.77.17.17.36.37.55.58.67.72 1.59 1.71 2.29 1.71s1.62-.99 2.29-1.71c.19-.21.38-.41.55-.58 1.49-1.49 2.61-1.83 4.95-1.76.92.03 2.06.06 2.53-.4.47-.46.44-1.62.41-2.54 0-.24-.01-.46-.01-.68 0-1.9.45-2.96 1.86-4.36 1.37-1.37 2.2-2.2 2.2-2.76 0-.56-.83-1.38-2.2-2.76-1.41-1.4-1.86-2.46-1.86-4.36 0-.21 0-.44.01-.68.03-.92.06-2.08-.41-2.54-.46-.46-1.61-.43-2.53-.4-.24 0-.46.01-.68.01-1.73 0-3.08-.57-4.36-1.86-1.37-1.37-2.2-2.2-2.76-2.2-.56 0-1.38.83-2.76 2.2-1.28 1.28-2.63 1.86-4.36 1.86-.21 0-.44 0-.68-.01-.92-.03-2.07-.06-2.54.41-.46.47-.43 1.61-.4 2.53 0 .24.01.46.01.68 0 1.73-.57 3.08-1.86 4.36-1.38 1.38-2.2 2.2-2.2 2.76 0 .56.83 1.38 2.2 2.76 1.41 1.41 1.86 2.46 1.86 4.36 0 .21 0 .44-.01.68-.03.92-.06 2.08.41 2.54.46.46 1.61.43 2.53.4.24 0 .46-.01.68-.01h.01Z"/>
  <path fill="#4E7FDB" d="M126.32 68.77c-.49-.64-1.2-1.35-2.03-2.17-.53-.53-.78-.88-.92-1.2-.14-.31-.22-.71-.22-1.43 0-.49.06-1.45 0-2.25-.07-.84-.3-1.9-1.11-2.7-.8-.8-1.85-1.02-2.69-1.09-.79-.07-1.75 0-2.24 0-1.1 0-1.81-.32-2.64-1.14-.83-.83-1.53-1.54-2.17-2.03-.67-.51-1.4-.89-2.31-.89-.91 0-1.64.38-2.31.89-.64.49-1.35 1.2-2.17 2.03-.82.82-1.53 1.14-2.64 1.14-.49 0-1.45-.06-2.25 0-.84.07-1.9.3-2.7 1.11-.8.8-1.02 1.85-1.09 2.69-.07.79 0 1.75 0 2.24 0 1.1-.32 1.81-1.14 2.64-.83.83-1.54 1.53-2.03 2.17-.51.67-.89 1.4-.89 2.31 0 .9.38 1.64.89 2.31.49.64 1.2 1.35 2.03 2.17.53.53.78.88.93 1.2.14.31.22.71.22 1.43 0 .49-.06 1.45 0 2.25.07.84.3 1.9 1.11 2.7.8.8 1.85 1.02 2.69 1.09.79.07 1.75 0 2.24 0 .7 0 1.1.07 1.41.2.31.13.64.36 1.14.86.35.35 1.06 1.17 1.71 1.73.68.59 1.66 1.27 2.86 1.27s2.18-.68 2.86-1.27c.65-.56 1.36-1.39 1.71-1.73.5-.5.83-.73 1.14-.86.31-.13.7-.2 1.41-.2.49 0 1.44.06 2.24 0 .84-.07 1.89-.3 2.69-1.09.81-.8 1.04-1.86 1.11-2.7.07-.8 0-1.76 0-2.25 0-.72.08-1.12.22-1.43.14-.32.39-.67.92-1.2.83-.83 1.54-1.53 2.03-2.17.51-.67.89-1.4.89-2.31 0-.9-.38-1.64-.89-2.31l-.01-.01Zm-3.75 5.07c-.61.61-1.11 1.21-1.43 1.95-.33.74-.42 1.52-.42 2.41 0 .78.06 1.37 0 2.04-.06.63-.2.98-.4 1.18-.19.19-.54.34-1.18.39-.67.06-1.25 0-2.03 0-.85 0-1.61.08-2.34.38-.73.3-1.33.78-1.94 1.39-.6.6-.99 1.1-1.59 1.62-.56.49-.97.67-1.26.67-.29 0-.69-.17-1.26-.67-.6-.52-.99-1.02-1.59-1.62-.61-.61-1.2-1.09-1.94-1.39-.73-.3-1.49-.38-2.34-.38-.78 0-1.36.06-2.03 0-.63-.05-.98-.2-1.18-.39-.2-.19-.34-.54-.4-1.18-.06-.68 0-1.26 0-2.04 0-.89-.1-1.67-.42-2.41-.32-.74-.82-1.34-1.43-1.95-.88-.88-1.45-1.45-1.81-1.93-.34-.45-.39-.67-.39-.83 0-.16.05-.38.39-.83.37-.48.93-1.05 1.81-1.93 1.23-1.23 1.86-2.54 1.86-4.36 0-.78-.06-1.36 0-2.03.05-.63.2-.98.39-1.18.2-.2.54-.34 1.18-.4.68-.06 1.26 0 2.04 0 1.82 0 3.13-.63 4.36-1.86.88-.88 1.45-1.45 1.93-1.81.45-.34.67-.39.83-.39.16 0 .38.05.83.39.48.37 1.05.93 1.93 1.81 1.23 1.23 2.54 1.86 4.36 1.86.78 0 1.36-.06 2.03 0 .63.05.98.2 1.18.39.2.19.34.54.4 1.18.06.67 0 1.26 0 2.04 0 .89.1 1.67.42 2.41.32.74.82 1.34 1.43 1.95.88.88 1.45 1.45 1.81 1.93.34.45.39.67.39.83 0 .16-.05.38-.39.83-.36.48-.93 1.05-1.81 1.93h.01Z"/>
  <path fill="#4E7FDB" d="M115.75 66.49a1.23 1.23 0 0 0-1.73.06l-6.12 6.56-2.07-1.66a1.224 1.224 0 0 0-1.53 1.91l2.95 2.37c.5.4 1.22.35 1.66-.12l6.89-7.38c.46-.49.43-1.26-.06-1.72l.01-.02Z"/>
  <path fill="#7E90B0" d="M13.17 110.83c-.51 0-.92-.41-.92-.92v-3.17c0-.51.41-.92.92-.92s.92.41.92.92v3.17c0 .51-.41.92-.92.92Zm0 7.39c-.51 0-.92-.41-.92-.92v-3.17c0-.51.41-.92.92-.92s.92.41.92.92v3.17c0 .51-.41.92-.92.92Zm-2.1-5.28H7.92c-.51 0-.92-.41-.92-.92s.41-.92.92-.92h3.16c.51 0 .92.41.92.92s-.41.92-.92.92h-.01Zm7.37 0h-3.16c-.51 0-.92-.41-.92-.92s.41-.92.92-.92h3.16c.51 0 .92.41.92.92s-.41.92-.92.92Z"/>
  <path fill="#E56470" d="M191.49 68.08a5.51 5.51 0 0 1-5.5-5.5c0-3.03 2.47-5.5 5.5-5.5s5.5 2.47 5.5 5.5-2.47 5.5-5.5 5.5Zm0-9.17c-2.02 0-3.67 1.65-3.67 3.67s1.65 3.67 3.67 3.67 3.67-1.65 3.67-3.67-1.65-3.67-3.67-3.67ZM56.87 159.84a2.88 2.88 0 1 1 .001-5.761 2.88 2.88 0 0 1-.001 5.761Zm0-3.93a1.05 1.05 0 1 0 0 2.1 1.05 1.05 0 0 0 0-2.1Z"/>
  <path fill="#FF9C66" d="M159.99 166.08c16.02 0 29-12.98 29-29s-12.98-29-29-29-29 12.98-29 29 12.98 29 29 29Z"/>
  <path fill="#fff" d="M164.84 151.95h-9.6c-2.88 0-4.33 0-5.61-.63a5.864 5.864 0 0 1-2.64-2.57c-.67-1.26-.67-2.67-.67-5.48v-2.18c0-2.81 0-4.22.67-5.49.58-1.11 1.5-2 2.64-2.57.66-.32 1.4-.5 2.46-.58v-3.2c0-4.28 3.57-7.75 7.95-7.75 4.38 0 7.95 3.48 7.95 7.75v3.19c1.01.07 1.76.23 2.46.58 1.14.56 2.06 1.45 2.64 2.56.66 1.27.66 2.68.66 5.49v2.18c0 2.81 0 4.22-.66 5.49-.59 1.11-1.5 2-2.64 2.57-1.28.63-2.73.63-5.61.63v.01Zm-9.6-17.11c-1.17 0-2.09 0-2.82.04-.82.05-1.33.15-1.72.34-.67.33-1.22.87-1.56 1.51-.39.73-.39 1.94-.39 4.35v2.18c0 2.33 0 3.62.38 4.35.34.66.88 1.18 1.56 1.51.77.38 2.03.38 4.53.38h9.6c2.42 0 3.76 0 4.53-.38.68-.34 1.22-.86 1.56-1.51.38-.73.38-2.02.38-4.35v-2.18c0-2.41 0-3.62-.38-4.35-.34-.65-.88-1.18-1.56-1.51-.77-.38-2.11-.38-4.53-.38h-9.6.02Zm0-2.44h10.31v-3.14c0-2.93-2.47-5.31-5.51-5.31-3.04 0-5.51 2.38-5.51 5.31v3.14h.71Zm4.75 12.55c-.67 0-1.22-.55-1.22-1.22v-3.11c0-.67.55-1.22 1.22-1.22.67 0 1.22.55 1.22 1.22v3.11c0 .67-.55 1.22-1.22 1.22Z"/>
  <path fill="#4E7FDB" d="M96.51 116.28c-.87 0-1.67-.13-2.4-.38s-1.32-.57-1.76-.96c-.44-.4-.66-.82-.66-1.26 0-.23.06-.47.18-.72.12-.27.28-.49.48-.68.21-.19.45-.28.7-.28.25 0 .46.07.66.22.21.15.44.32.68.52.25.2.54.37.86.52.33.15.73.22 1.2.22.31 0 .61-.04.9-.12.31-.09.55-.23.74-.42.2-.2.3-.46.3-.78 0-.35-.11-.64-.34-.88-.23-.25-.53-.48-.92-.68-.37-.2-.79-.4-1.24-.6-.44-.21-.89-.44-1.34-.68-.45-.25-.87-.55-1.26-.88-.37-.35-.67-.76-.9-1.24-.23-.48-.34-1.05-.34-1.72 0-.75.15-1.38.44-1.9.29-.53.69-.96 1.18-1.28.49-.33 1.04-.57 1.64-.72.61-.16 1.23-.24 1.86-.24.27 0 .62.02 1.06.06.44.04.88.12 1.32.24.45.12.83.3 1.14.54.31.23.46.53.46.92 0 .17-.05.39-.14.66-.08.25-.21.48-.4.68-.17.2-.41.3-.7.3-.24 0-.47-.06-.68-.18-.2-.13-.46-.26-.78-.38-.31-.13-.73-.2-1.28-.2-.47 0-.85.06-1.16.18-.29.11-.51.25-.64.44-.13.17-.2.37-.2.58 0 .28.11.53.34.74.23.2.53.39.9.58.39.17.8.36 1.24.56.45.19.91.41 1.36.68.45.25.87.56 1.24.92.39.36.69.8.92 1.32.23.52.34 1.14.34 1.86 0 .96-.22 1.77-.66 2.44a4.17 4.17 0 0 1-1.76 1.5c-.75.33-1.61.5-2.58.5Zm14.26 0c-.87 0-1.67-.13-2.4-.38s-1.32-.57-1.76-.96c-.44-.4-.66-.82-.66-1.26 0-.23.06-.47.18-.72.12-.27.28-.49.48-.68.21-.19.45-.28.7-.28.25 0 .46.07.66.22.21.15.44.32.68.52.25.2.54.37.86.52.33.15.73.22 1.2.22.31 0 .61-.04.9-.12.31-.09.55-.23.74-.42.2-.2.3-.46.3-.78 0-.35-.11-.64-.34-.88-.23-.25-.53-.48-.92-.68-.37-.2-.79-.4-1.24-.6-.44-.21-.89-.44-1.34-.68-.45-.25-.87-.55-1.26-.88-.37-.35-.67-.76-.9-1.24-.23-.48-.34-1.05-.34-1.72 0-.75.15-1.38.44-1.9.29-.53.69-.96 1.18-1.28.49-.33 1.04-.57 1.64-.72.61-.16 1.23-.24 1.86-.24.27 0 .62.02 1.06.06.44.04.88.12 1.32.24.45.12.83.3 1.14.54.31.23.46.53.46.92 0 .17-.05.39-.14.66-.08.25-.21.48-.4.68-.17.2-.41.3-.7.3-.24 0-.47-.06-.68-.18-.2-.13-.46-.26-.78-.38-.31-.13-.73-.2-1.28-.2-.47 0-.85.06-1.16.18-.29.11-.51.25-.64.44-.13.17-.2.37-.2.58 0 .28.11.53.34.74.23.2.53.39.9.58.39.17.8.36 1.24.56.45.19.91.41 1.36.68.45.25.87.56 1.24.92.39.36.69.8.92 1.32.23.52.34 1.14.34 1.86 0 .96-.22 1.77-.66 2.44a4.17 4.17 0 0 1-1.76 1.5c-.75.33-1.61.5-2.58.5Zm11.51-.2c-.33 0-.65-.08-.94-.24a.779.779 0 0 1-.42-.72V102.4c0-.33.16-.57.48-.72.33-.15.69-.22 1.08-.22.39 0 .74.07 1.06.22.33.15.5.39.5.72v10.96h4.56c.31 0 .53.14.68.42.15.28.22.59.22.94s-.07.65-.22.94c-.15.28-.37.42-.68.42h-6.32Z"/>
</svg>
