<svg xmlns="http://www.w3.org/2000/svg" viewBox="0 0 220 184">
  <path fill="#7E90B0" d="M210.05 128.105a.918.918 0 0 1-.92-.921v-1.772h-1.76c-.51 0-.92-.41-.92-.921 0-.51.41-.92.92-.92h1.76v-1.772c0-.51.41-.921.92-.921s.92.411.92.921v1.772h1.76c.51 0 .92.41.92.92 0 .511-.41.921-.92.921h-1.76v1.772c0 .51-.41.921-.92.921Z"/>
  <path fill="#E56470" d="M211.73 26.814c-.39 0-.7-.31-.7-.7v-.621c0-2.192 1.59-3.964 3.13-5.665.6-.67 1.17-1.301 1.63-1.942.48-.67.74-1.451.74-2.252 0-2.332-2.15-4.224-4.8-4.224s-4.8 1.902-4.8 4.224c0 .39-.31.7-.7.7-.39 0-.7-.31-.7-.7 0-3.103 2.78-5.625 6.2-5.625 3.42 0 6.2 2.522 6.2 5.625 0 1.091-.35 2.162-1 3.073-.5.7-1.13 1.391-1.73 2.062-1.36 1.511-2.77 3.072-2.77 4.724v.62c0 .39-.31.701-.7.701Z"/>
  <path fill="#4E7FDB" d="M168.34 38.46c-8.1-8.09-20.76-8.46-46.33-8.46H99.9c-26.61 0-39.97 0-48.44 8.46C42.99 46.92 43 60.29 43 86.9v15.63c.02 23.9.4 36.74 8.46 44.8 8.46 8.46 21.82 8.46 48.44 8.46h22.11c24.42 0 37.87 0 46.33-8.46 8.06-8.06 8.45-20.91 8.46-44.81V86.89c0-26.61 0-39.97-8.46-48.44v.01Zm-115.6 1.28c7.94-7.94 21.04-7.94 47.16-7.94h22.11c23.94 0 37.13 0 45.06 7.94 3.57 3.57 5.53 8.2 6.61 14.58H46.12c1.08-6.38 3.04-11.01 6.61-14.58h.01ZM175 102.53c-.02 24.06-.36 35.96-7.94 43.53-7.93 7.93-21.12 7.93-45.06 7.94H99.89c-26.12 0-39.22 0-47.16-7.94-7.57-7.58-7.92-19.48-7.94-43.53V86.9c0-13.28 0-23.2 1.05-30.78h128.1c1.04 7.58 1.05 17.5 1.05 30.78v15.63h.01Z"/>
  <path fill="#E56470" d="M211.95 31.028c-.55 0-1.01-.45-1.01-1.001 0-.55.44-1 .99-1h.03c.55 0 1 .45 1 1s-.45 1-1 1h-.01Z"/>
  <path fill="#7E90B0" fill-opacity=".6" d="M22.43 59.043c-2.3 0-4.16 1.861-4.16 4.163a4.159 4.159 0 0 0 4.16 4.164c2.3 0 4.16-1.862 4.16-4.164a4.159 4.159 0 0 0-4.16-4.163Zm0 7.326a3.162 3.162 0 0 1 0-6.325c1.74 0 3.16 1.42 3.16 3.162a3.168 3.168 0 0 1-3.16 3.163Z"/>
  <path fill="#7E90B0" fill-opacity=".6" d="m32.72 65.669-1.76-1.972c0-.16.02-.32.02-.49 0-.17-.01-.33-.02-.49l1.75-1.973c.57-.64.65-1.561.24-2.282l-1.14-1.981a1.977 1.977 0 0 0-2.1-.941l-2.6.53c-.27-.17-.55-.33-.83-.48l-.85-2.533a1.955 1.955 0 0 0-1.86-1.34h-2.29c-.85 0-1.59.55-1.86 1.33l-.84 2.533c-.29.15-.57.31-.85.49l-2.58-.53c-.83-.18-1.67.22-2.1.94l-1.14 1.982c-.43.731-.33 1.652.23 2.282l1.75 1.972c0 .16-.02.32-.02.49 0 .17.01.33.02.491l-1.76 1.972a1.97 1.97 0 0 0-.24 2.282l1.14 1.982c.43.72 1.25 1.12 2.1.94l2.6-.53c.27.17.55.33.83.48l.85 2.533c.27.81 1.02 1.34 1.86 1.34h2.29c.85 0 1.59-.55 1.86-1.33l.84-2.533c.29-.15.57-.31.85-.49l2.58.53c.83.18 1.67-.22 2.1-.94l1.14-1.982c.43-.73.33-1.652-.23-2.282h.02Zm-1.77 3.763a.98.98 0 0 1-1.03.47l-2.78-.57c-.14-.03-.28 0-.39.08-.34.24-.69.45-1.08.63-.12.06-.22.16-.26.29l-.91 2.703a.99.99 0 0 1-.92.66h-2.29c-.42 0-.78-.26-.92-.66l-.91-2.712a.53.53 0 0 0-.24-.29c-.39-.2-.76-.41-1.11-.64a.512.512 0 0 0-.38-.081l-2.78.57c-.41.09-.82-.1-1.03-.47l-1.14-1.972a.965.965 0 0 1 .11-1.12l1.89-2.132c.09-.1.13-.23.13-.37-.01-.221-.03-.431-.03-.642 0-.21.01-.42.03-.64a.56.56 0 0 0-.13-.37l-1.89-2.122a.955.955 0 0 1-.12-1.111l1.14-1.982a.98.98 0 0 1 1.03-.47l2.78.57c.14.03.28 0 .39-.08.34-.24.69-.45 1.08-.63.12-.06.22-.16.26-.29l.91-2.703a.99.99 0 0 1 .92-.66h2.29c.42 0 .78.26.92.66l.91 2.712c.04.12.13.23.24.29.39.2.76.41 1.11.641.11.08.25.1.38.08l2.78-.57c.41-.09.82.1 1.04.47l1.14 1.972c.21.36.16.82-.11 1.12l-1.89 2.133a.54.54 0 0 0-.13.37c.01.22.03.44.03.64 0 .22-.01.421-.03.641 0 .13.04.27.13.37l1.89 2.122c.28.31.32.761.12 1.111l-1.14 1.982h-.01Z"/>
  <path fill="#4E7FDB" d="M149.73 44.52a1.3 1.3 0 1 0-.001-2.601 1.3 1.3 0 0 0 .001 2.6Z"/>
  <path fill="#4E7FDB" d="M149.73 45.02c-.99 0-1.8-.81-1.8-1.801 0-.991.81-1.802 1.8-1.802s1.8.81 1.8 1.802c0 .99-.81 1.801-1.8 1.801Zm0-2.612c-.44 0-.8.36-.8.8 0 .441.36.801.8.801.44 0 .8-.36.8-.8 0-.44-.36-.801-.8-.801Zm-10.08 2.112a1.3 1.3 0 1 0-.001-2.601 1.3 1.3 0 0 0 .001 2.6Z"/>
  <path fill="#4E7FDB" d="M139.65 45.02c-.99 0-1.8-.81-1.8-1.801 0-.991.81-1.802 1.8-1.802s1.8.81 1.8 1.802c0 .99-.81 1.801-1.8 1.801Zm0-2.612c-.44 0-.8.36-.8.8 0 .441.36.801.8.801.44 0 .8-.36.8-.8 0-.44-.36-.801-.8-.801Z"/>
  <path fill="#E56470" fill-opacity=".2" d="M55.75 100.46c0-6.946 0-10.43 1.18-13.082 1.04-2.332 2.7-4.234 4.75-5.425 2.32-1.351 5.37-1.35 11.45-1.35h73.88c6.08 0 9.13-.001 11.45 1.35 2.05 1.191 3.71 3.093 4.75 5.425 1.18 2.653 1.18 6.126 1.18 13.082v3.923c0 6.947 0 10.43-1.18 13.082-1.04 2.332-2.7 4.234-4.75 5.425-2.32 1.351-5.37 1.351-11.45 1.351H73.13c-6.08 0-9.13 0-11.45-1.351-2.04-1.191-3.71-3.093-4.75-5.425-1.18-2.652-1.18-6.125-1.18-13.082v-3.923Z"/>
  <path fill="#E56470" d="M81.57 112.931h-8c-2.26 0-3.39 0-4.41-.52a4.756 4.756 0 0 1-2.08-2.082c-.52-1.021-.52-2.152-.52-4.414v-1.752c0-2.262 0-3.393.52-4.414.46-.9 1.17-1.621 2.07-2.081.36-.18.73-.3 1.16-.38v-1.642c0-4.004 3.25-7.257 7.25-7.257a7.27 7.27 0 0 1 6.65 4.354c.22.51 0 1.101-.52 1.321-.51.23-1.09 0-1.32-.52a5.266 5.266 0 0 0-4.81-3.153c-2.89 0-5.25 2.362-5.25 5.255v1.501h9.25c2.26 0 3.39 0 4.41.52.9.46 1.62 1.181 2.08 2.082.52 1.011.52 2.152.52 4.414v1.752c0 2.262 0 3.393-.52 4.414a4.756 4.756 0 0 1-2.08 2.082c-1.02.52-2.15.52-4.41.52h.01Zm-8-13.762c-1.88 0-2.91 0-3.5.3-.52.27-.94.681-1.2 1.201-.3.591-.3 1.622-.3 3.503v1.752c0 1.882 0 2.912.3 3.503.27.52.68.941 1.2 1.201.59.3 1.62.3 3.5.3h8c1.88 0 2.91 0 3.5-.3.52-.27.94-.681 1.2-1.201.3-.591.3-1.621.3-3.503v-1.752c0-1.881 0-2.912-.3-3.503a2.68 2.68 0 0 0-1.2-1.2c-.59-.301-1.62-.301-3.5-.301h-8Zm4 8.137c-.55 0-1-.45-1-1.001v-2.502c0-.551.45-1.001 1-1.001s1 .45 1 1.001v2.502c0 .551-.45 1.001-1 1.001Zm22.96 3.123c-.39 0-.75-.08-1.08-.24-.32-.161-.48-.401-.48-.721V96.737c0-.33.16-.571.48-.721.33-.15.69-.22 1.08-.22.39 0 .74.07 1.06.22.33.15.5.39.5.72v4.905h3.98v-4.904c0-.33.16-.571.48-.721.33-.15.69-.22 1.08-.22.39 0 .74.07 1.06.22.33.15.5.39.5.72v12.732c0 .32-.17.56-.5.721-.32.16-.67.24-1.06.24s-.75-.08-1.08-.24c-.32-.161-.48-.401-.48-.721v-5.425h-3.98v5.425c0 .32-.17.56-.5.721-.32.16-.67.24-1.06.24Zm18.77 0c-.39 0-.75-.08-1.08-.24-.32-.161-.48-.401-.48-.721v-10.87h-2.76c-.29 0-.53-.14-.7-.42-.16-.29-.24-.63-.24-1.001 0-.33.07-.65.22-.94a.76.76 0 0 1 .72-.441h8.64c.33 0 .57.15.72.44.15.29.22.61.22.94 0 .371-.08.712-.24 1.002-.16.28-.39.42-.7.42h-2.76v10.87c0 .32-.17.56-.5.721-.32.16-.67.24-1.06.24Zm14.44 0c-.39 0-.75-.08-1.08-.24-.32-.161-.48-.401-.48-.721v-10.87h-2.76c-.29 0-.53-.14-.7-.42-.16-.29-.24-.63-.24-1.001 0-.33.07-.65.22-.94a.76.76 0 0 1 .72-.441h8.64c.33 0 .57.15.72.44.15.29.22.61.22.94 0 .371-.08.712-.24 1.002-.16.28-.39.42-.7.42h-2.76v10.87c0 .32-.17.56-.5.721-.32.16-.67.24-1.06.24Zm11.66 0c-.39 0-.75-.08-1.08-.24-.32-.161-.48-.401-.48-.721V96.737c0-.25.11-.47.32-.661.21-.19.49-.28.84-.28h4.14c.88 0 1.67.15 2.38.46.72.29 1.29.78 1.7 1.461.43.671.64 1.562.64 2.683v.1c0 1.121-.22 2.022-.66 2.702a3.7 3.7 0 0 1-1.76 1.482c-.75.31-1.58.46-2.5.46h-1.98v4.324c0 .32-.17.56-.5.721-.32.16-.67.24-1.06.24Zm1.56-7.687h1.98c.56 0 1-.16 1.32-.481.32-.33.48-.84.48-1.521v-.22c0-.68-.16-1.181-.48-1.501-.32-.33-.76-.5-1.32-.5h-1.98v4.223Z"/>
  <path fill="#7E90B0" d="M8.17 112.841c-.51 0-.92-.41-.92-.921v-3.173c0-.51.41-.921.92-.921s.92.411.92.921v3.173c0 .511-.41.921-.92.921Zm0 7.397a.918.918 0 0 1-.92-.921v-3.173c0-.51.41-.921.92-.921s.92.411.92.921v3.173c0 .51-.41.921-.92.921Zm-2.1-5.285H2.92a.918.918 0 0 1-.92-.921c0-.511.41-.921.92-.921h3.16c.51 0 .92.41.92.921 0 .51-.41.921-.92.921h-.01Zm7.37 0h-3.16a.918.918 0 0 1-.92-.921c0-.511.41-.921.92-.921h3.16c.51 0 .92.41.92.921 0 .51-.41.921-.92.921Z"/>
  <path fill="#E56470" d="M192.92 66.2a4.283 4.283 0 0 1-4.27-4.275 4.283 4.283 0 0 1 4.27-4.273c2.35 0 4.27 1.921 4.27 4.273a4.283 4.283 0 0 1-4.27 4.274Zm0-6.727a2.444 2.444 0 0 0-2.44 2.442 2.438 2.438 0 0 0 2.44 2.443c1.35 0 2.44-1.091 2.44-2.443a2.438 2.438 0 0 0-2.44-2.442ZM35.88 164.998a2.883 2.883 0 0 1 0-5.766 2.883 2.883 0 0 1 0 5.766Zm0-3.934a1.05 1.05 0 1 0 0 2.1 1.05 1.05 0 0 0 0-2.1Zm126.57 13.522c16.02 0 29-12.992 29-29.026s-12.98-29.026-29-29.026-29 12.992-29 29.026 12.98 29.026 29 29.026Z"/>
  <path fill="#fff" d="M162.45 146.611c-.67 0-1.22-.55-1.22-1.221v-5.004c0-.671.55-1.221 1.22-1.221.67 0 1.22.55 1.22 1.221v5.004c0 .671-.55 1.221-1.22 1.221Zm.01 4.294c-.67 0-1.23-.55-1.23-1.221s.54-1.221 1.21-1.221h.01c.67 0 1.22.55 1.22 1.221s-.55 1.221-1.22 1.221h.01Z"/>
  <path fill="#fff" d="M162.45 160.293c-.19 0-.37-.02-.54-.05-.41-.09-.68-.25-1.03-.45-3.18-1.852-10.57-6.946-10.57-14.183v-6.526c0-1.201 0-1.861.26-2.542.23-.6.6-1.141 1.08-1.561.54-.481 1.15-.711 2.26-1.121l7.34-2.753c.33-.12.55-.2.82-.25.25-.03.5-.03.74 0 .28.04.5.12.83.25l7.31 2.743c1.13.43 1.75.66 2.29 1.131.48.42.85.961 1.08 1.551.26.681.26 1.341.26 2.542v6.526c0 7.237-7.39 12.331-10.57 14.183-.35.2-.62.36-1.02.45-.17.04-.36.05-.54.05v.01Zm-.34-2.612c.14.08.22.14.31.17.15-.03.23-.09.37-.17 2.19-1.281 9.35-5.935 9.35-12.071v-6.526c0-.91 0-1.411-.1-1.671-.09-.23-.23-.431-.41-.591-.21-.18-.69-.37-1.51-.67l-7.34-2.753c-.16-.06-.25-.1-.33-.12-.1.02-.19.06-.35.12l-7.31 2.743c-.84.31-1.32.5-1.53.68-.18.16-.33.371-.41.601-.1.26-.1.761-.1 1.671v6.526c0 6.136 7.16 10.79 9.35 12.071l.01-.01Z"/>
</svg>
