<svg xmlns="http://www.w3.org/2000/svg" viewBox="0 0 220 184">
  <path fill="#7E90B0" d="M210.05 127.09c-.51 0-.92-.41-.92-.92v-1.77h-1.76c-.51 0-.92-.41-.92-.92s.41-.92.92-.92h1.76v-1.77c0-.51.41-.92.92-.92s.92.41.92.92v1.77h1.76c.51 0 .92.41.92.92s-.41.92-.92.92h-1.76v1.77c0 .51-.41.92-.92.92ZM33.67 38.36c-.51 0-.92-.41-.92-.92v-1.77h-1.76c-.51 0-.92-.41-.92-.92s.41-.92.92-.92h1.76v-1.77c0-.51.41-.92.92-.92s.92.41.92.92v1.77h1.76c.51 0 .92.41.92.92s-.41.92-.92.92h-1.76v1.77c0 .51-.41.92-.92.92Z"/>
  <path fill="#E56470" d="M211.73 25.8c-.39 0-.7-.31-.7-.7v-.62c0-2.19 1.59-3.96 3.13-5.66.6-.67 1.17-1.3 1.63-1.94.48-.67.74-1.46.74-2.26 0-2.33-2.15-4.23-4.8-4.23s-4.8 1.9-4.8 4.23c0 .39-.31.7-.7.7-.39 0-.7-.31-.7-.7 0-3.1 2.78-5.63 6.2-5.63 3.42 0 6.2 2.53 6.2 5.63 0 1.09-.35 2.16-1 3.07-.5.7-1.13 1.39-1.73 2.06-1.36 1.51-2.77 3.07-2.77 4.73v.62c0 .39-.31.7-.7.7Zm-1.99 4.77c-.44 0-.81-.36-.81-.8 0-.44.35-.8.79-.8h.02c.44 0 .8.36.8.8 0 .44-.36.8-.8.8Z"/>
  <path fill="#7E90B0" d="M13.17 110.83c-.51 0-.92-.41-.92-.92v-3.17c0-.51.41-.92.92-.92s.92.41.92.92v3.17c0 .51-.41.92-.92.92Zm0 7.39c-.51 0-.92-.41-.92-.92v-3.17c0-.51.41-.92.92-.92s.92.41.92.92v3.17c0 .51-.41.92-.92.92Zm-2.1-5.28H7.92c-.51 0-.92-.41-.92-.92s.41-.92.92-.92h3.16c.51 0 .92.41.92.92s-.41.92-.92.92h-.01Zm7.37 0h-3.16c-.51 0-.92-.41-.92-.92s.41-.92.92-.92h3.16c.51 0 .92.41.92.92s-.41.92-.92.92Z"/>
  <path fill="#E56470" d="M191.49 68.08a5.51 5.51 0 0 1-5.5-5.5c0-3.03 2.47-5.5 5.5-5.5s5.5 2.47 5.5 5.5-2.47 5.5-5.5 5.5Zm0-9.17c-2.02 0-3.67 1.65-3.67 3.67s1.65 3.67 3.67 3.67 3.67-1.65 3.67-3.67-1.65-3.67-3.67-3.67ZM64.87 175.84a2.88 2.88 0 1 1 .001-5.761 2.88 2.88 0 0 1-.001 5.761Zm0-3.93a1.05 1.05 0 1 0 0 2.1 1.05 1.05 0 0 0 0-2.1Z"/>
  <path fill="#E56470" fill-opacity=".18" d="M111.99 121.08c26.51 0 48-21.49 48-48s-21.49-48-48-48-48 21.49-48 48 21.49 48 48 48Z"/>
  <path fill="#4E7FDB" d="M176.99 148.98h-58.5c-.5 0-.9-.4-.9-.9s.4-.9.9-.9h58.5c.5 0 .9.4.9.9s-.4.9-.9.9Zm-77.5 0h-57.5c-.5 0-.9-.4-.9-.9s.4-.9.9-.9h57.5c.5 0 .9.4.9.9s-.4.9-.9.9Zm10-10c-.5 0-.9-.4-.9-.9v-16c0-.5.4-.9.9-.9s.9.4.9.9v16c0 .5-.4.9-.9.9Z"/>
  <path fill="#4E7FDB" d="M108.99 156.98c-5.46 0-9.9-4.44-9.9-9.9s4.44-9.9 9.9-9.9 9.9 4.44 9.9 9.9-4.44 9.9-9.9 9.9Zm0-18c-4.47 0-8.1 3.63-8.1 8.1s3.63 8.1 8.1 8.1 8.1-3.63 8.1-8.1-3.63-8.1-8.1-8.1Z"/>
  <path fill="#75A4FE" d="M109.49 122.98c-29.44 0-53.4-23.96-53.4-53.4 0-29.44 23.96-53.4 53.4-53.4 29.44 0 53.4 23.96 53.4 53.4 0 29.44-23.96 53.4-53.4 53.4ZM57.9 70.48c.47 27.36 22.34 49.59 49.55 50.66a81.172 81.172 0 0 1-19.83-50.66H57.9Zm73.48 0c-.6 18.7-7.61 36.57-19.84 50.66 27.21-1.07 49.08-23.3 49.55-50.66h-29.71Zm-41.96 0c.59 18.57 7.7 36.36 20.07 50.26a79.365 79.365 0 0 0 20.08-50.26H89.42Zm41.96-1.8h29.71c-.47-27.36-22.34-49.59-49.55-50.66a81.169 81.169 0 0 1 19.84 50.66Zm-41.96 0h40.15c-.59-18.57-7.7-36.35-20.08-50.26a79.366 79.366 0 0 0-20.07 50.26Zm-31.52 0h29.72c.6-18.71 7.6-36.57 19.83-50.66-27.21 1.07-49.08 23.3-49.55 50.66Z"/>
  <path fill="#E56470" d="M159.99 166.08c16.02 0 29-12.98 29-29s-12.98-29-29-29-29 12.98-29 29 12.98 29 29 29Z"/>
  <path fill="#fff" d="M171.99 150.3c-.31 0-.62-.12-.86-.36l-11.14-11.14-11.14 11.14c-.48.48-1.25.48-1.72 0s-.48-1.25 0-1.72l11.14-11.14-11.14-11.14c-.48-.48-.48-1.25 0-1.72s1.25-.48 1.72 0l11.14 11.14 11.14-11.14c.48-.48 1.25-.48 1.72 0s.48 1.25 0 1.72l-11.14 11.14 11.14 11.14c.48.48.48 1.25 0 1.72-.24.24-.55.36-.86.36Z"/>
</svg>
