<svg xmlns="http://www.w3.org/2000/svg" viewBox="0 0 220 184">
  <path fill="#7E90B0" d="M10.17 104.27c-.51 0-.92-.41-.92-.92v-3.17c0-.51.41-.92.92-.92s.92.41.92.92v3.17c0 .51-.41.92-.92.92Zm0 7.38c-.51 0-.92-.41-.92-.92v-3.17c0-.51.41-.92.92-.92s.92.41.92.92v3.17c0 .51-.41.92-.92.92Zm-2.1-5.27H4.92c-.51 0-.92-.41-.92-.92s.41-.92.92-.92h3.16c.51 0 .92.41.92.92s-.41.92-.92.92h-.01Zm7.37 0h-3.16c-.51 0-.92-.41-.92-.92s.41-.92.92-.92h3.16c.51 0 .92.41.92.92s-.41.92-.92.92Zm195.97-36.61c-.44 0-.8-.36-.8-.8v-2.48c0-.44.36-.8.8-.8.44 0 .8.36.8.8v2.48c0 .44-.36.8-.8.8Zm0 5.79c-.44 0-.8-.36-.8-.8v-2.48c0-.44.36-.8.8-.8.44 0 .8.36.8.8v2.48c0 .44-.36.8-.8.8Zm-1.65-4.14h-2.47c-.44 0-.8-.36-.8-.8 0-.44.36-.8.8-.8h2.47c.44 0 .8.36.8.8 0 .44-.36.8-.8.8Zm5.78 0h-2.48c-.44 0-.8-.36-.8-.8 0-.44.36-.8.8-.8h2.48c.44 0 .8.36.8.8 0 .44-.36.8-.8.8Zm-8.83 84.41c-.51 0-.92-.41-.92-.92v-1.77h-1.76c-.51 0-.92-.41-.92-.92s.41-.92.92-.92h1.76v-1.77c0-.51.41-.92.92-.92s.92.41.92.92v1.77h1.76c.51 0 .92.41.92.92s-.41.92-.92.92h-1.76v1.77c0 .51-.41.92-.92.92Z"/>
  <path fill="#5BC1A5" d="M23.06 25.55c-.38 0-.72-.23-.85-.59l-1.29-3.36c-.19-.49-.28-.72-.37-.85-.09-.12-.19-.23-.31-.31-.13-.1-.38-.19-.83-.36l-3.37-1.3a.92.92 0 0 1-.59-.85c0-.38.23-.72.59-.85l3.35-1.29c.49-.19.71-.28.84-.37.12-.09.23-.19.31-.31.09-.13.18-.36.37-.85l1.29-3.36a.93.93 0 0 1 .85-.59c.37 0 .72.23.85.59l1.29 3.36c.18.46.27.71.37.85.08.12.19.22.31.31.13.09.36.18.85.37l3.36 1.29c.35.14.59.48.59.85s-.23.72-.59.85l-3.35 1.29c-.46.18-.71.28-.84.37-.12.09-.22.19-.31.31-.1.13-.19.38-.37.84l-1.29 3.37a.93.93 0 0 1-.85.59h-.01Zm-4.15-7.62 1.14.44c.61.23.93.36 1.25.59.29.2.54.45.74.74.23.32.36.65.59 1.25l.44 1.14.44-1.14c.23-.6.36-.93.59-1.25.2-.29.45-.54.74-.74.32-.23.64-.35 1.23-.58l1.16-.45-1.14-.44c-.58-.22-.92-.36-1.25-.59-.29-.2-.54-.45-.74-.74-.23-.32-.35-.65-.58-1.24l-.44-1.15-.44 1.14c-.23.6-.36.93-.59 1.25-.2.29-.45.54-.74.74-.32.23-.67.37-1.25.59l-1.14.44h-.01Zm-3.72-4.37c-.51 0-.92-.41-.92-.92v-.95h-.94c-.51 0-.92-.41-.92-.92s.41-.92.92-.92h.94V8.9c0-.51.41-.92.92-.92s.92.41.92.92v.95h.95c.51 0 .92.41.92.92s-.41.92-.92.92h-.95v.95c0 .51-.41.92-.92.92Z"/>
  <path fill="#E56470" d="M182.7 20.32c-2.07 0-3.75-1.68-3.75-3.75 0-2.07 1.68-3.75 3.75-3.75 2.07 0 3.75 1.68 3.75 3.75 0 2.07-1.68 3.75-3.75 3.75Zm0-5.68a1.92 1.92 0 1 0 .001 3.841 1.92 1.92 0 0 0-.001-3.84Zm-159 147.23a2.88 2.88 0 1 1 .002-5.761 2.88 2.88 0 0 1-.002 5.761Zm0-3.93a1.05 1.05 0 1 0 0 2.1 1.05 1.05 0 0 0 0-2.1Z"/>
  <path fill="#4E7FDB" d="M184.71 162.68h-3.73c-.5 0-.9-.4-.9-.9s.4-.9.9-.9h3.73c.5 0 .9.4.9.9s-.4.9-.9.9Zm-9.84 0H162.8c-.5 0-.9-.4-.9-.9s.4-.9.9-.9h12.07c.5 0 .9.4.9.9s-.4.9-.9.9Zm-47.95 0H81.91c-.5 0-.9-.4-.9-.9s.4-.9.9-.9h45.01c.5 0 .9.4.9.9s-.4.9-.9.9Zm-52.81 0h-8.94c-.5 0-.9-.4-.9-.9s.4-.9.9-.9h8.94c.5 0 .9.4.9.9s-.4.9-.9.9Z"/>
  <path fill="#75A4FE" d="M57.78 92.08h-3.73c-.5 0-.9-.4-.9-.9s.4-.9.9-.9h3.73c.5 0 .9.4.9.9s-.4.9-.9.9Z"/>
  <path fill="#75A4FE" d="M129.88 134.69h-28.01c-6.73 0-12.55 0-17.55-.15a.89.89 0 0 1-.87-.93c.01-.5.46-.88.93-.87 4.97.15 10.77.15 17.49.15h28.01c22.75 0 34.17 0 42.08-5.53 2.96-2.08 5.49-4.61 7.52-7.52 5.54-7.91 5.54-19.32 5.54-42.05 0-22.73 0-34.16-5.54-42.05a30.526 30.526 0 0 0-7.52-7.52c-7.92-5.54-19.33-5.54-42.08-5.54h-28.01c-22.75 0-34.17 0-42.08 5.54a30.526 30.526 0 0 0-7.52 7.52c-4.25 6.05-5.19 14.02-5.45 26.62v13.29c0 .5-.4.9-.9.9s-.9-.4-.9-.9V62.34c.27-12.97 1.26-21.21 5.78-27.63 2.15-3.08 4.83-5.76 7.96-7.96 8.37-5.86 19.98-5.86 43.11-5.86h28.01c23.12 0 34.73 0 43.11 5.86 3.08 2.15 5.76 4.83 7.97 7.96 5.87 8.36 5.87 19.97 5.87 43.09 0 23.12 0 34.71-5.86 43.09a32.363 32.363 0 0 1-7.96 7.96c-8.37 5.86-19.98 5.86-43.11 5.86l-.02-.02Z"/>
  <path fill="#75A4FE" d="M181.92 121.11H85.29c-.5 0-.9-.4-.9-.9s.4-.9.9-.9h96.63c.5 0 .9.4.9.9s-.4.9-.9.9Zm-48.43 41.57c-.27 0-.54-.12-.72-.36l-2.21-2.94c-5.17-6.86-6.45-17.28-3.18-25.93a.898.898 0 1 1 1.68.64c-3.06 8.1-1.88 17.83 2.94 24.21l2.21 2.94a.899.899 0 0 1-.72 1.44Zm-35.03 0a.899.899 0 0 1-.72-1.44l2.21-2.94c4.82-6.39 6-16.12 2.94-24.21-.18-.46.06-.98.52-1.16.47-.18.99.06 1.16.52 3.27 8.65 1.99 19.08-3.18 25.93l-2.21 2.94c-.18.24-.45.36-.72.36Z"/>
  <path fill="#4E7FDB" d="M151 162.68H80.96c-.5 0-.9-.4-.9-.9s.4-.9.9-.9H151c.5 0 .9.4.9.9s-.4.9-.9.9Z"/>
  <path fill="#75A4FE" d="M63.21 162.65H46.63c-7.5 0-13.61-6.19-13.61-13.81V97.32c0-7.61 6.11-13.81 13.61-13.81h16.58c7.5 0 13.61 6.19 13.61 13.81v51.52c0 7.61-6.11 13.81-13.61 13.81ZM46.62 85.31c-6.51 0-11.81 5.39-11.81 12.01v51.52c0 6.62 5.3 12.01 11.81 12.01H63.2c6.51 0 11.81-5.39 11.81-12.01V97.32c0-6.62-5.3-12.01-11.81-12.01H46.62Z"/>
  <path fill="#7E90B0" d="M170.23 142.28c16.02 0 29-12.98 29-29s-12.98-29-29-29-29 12.98-29 29 12.98 29 29 29Z"/>
  <path fill="#fff" d="M166.15 103.97c.67 0 1.22-.55 1.22-1.22v-1.98c0-.67-.55-1.22-1.22-1.22-.67 0-1.22.55-1.22 1.22v1.98c0 .67.55 1.22 1.22 1.22Zm-6.04 6.04c0-.67-.55-1.22-1.22-1.22h-1.98c-.67 0-1.22.55-1.22 1.22 0 .67.55 1.22 1.22 1.22h1.98c.67 0 1.22-.55 1.22-1.22Zm11.31-3.98c.31 0 .62-.12.86-.36l1.4-1.4c.48-.48.48-1.25 0-1.72s-1.25-.48-1.72 0l-1.4 1.4c-.48.48-.48 1.25 0 1.72.24.24.55.36.86.36Zm12.42 7.71c-.37-.58-.96-.76-1.93-1.06l-14.81-4.56c-.79-.25-1.32-.41-1.92-.19-.51.19-.92.6-1.11 1.11-.22.6-.06 1.12.19 1.92l4.56 14.81c.3.97.48 1.56 1.06 1.93.3.19.66.29 1.01.29.23 0 .46-.04.68-.13.64-.25.94-.79 1.42-1.69.02-.03.03-.06.05-.09l2.27-5.25 4.79 4.35c.23.21.53.32.82.32.33 0 .66-.13.9-.4.45-.5.42-1.27-.08-1.72l-4.6-4.18 5.19-2.35c.89-.48 1.43-.77 1.68-1.42.22-.56.15-1.19-.17-1.69Zm-9.3 3.95c-.21.11-.3.17-.36.22-.12.09-.24.21-.32.32a1.8 1.8 0 0 0-.22.35l-.02.03s-.03.07-.05.1l-2.55 5.91-4.34-14.08 14.09 4.34-6.22 2.81h-.01Zm-14.45-3.27-1.4 1.4c-.48.48-.48 1.25 0 1.72.24.24.55.36.86.36.31 0 .62-.12.86-.36l1.4-1.4c.48-.48.48-1.25 0-1.72-.48-.48-1.25-.48-1.72 0Zm.33-11.87c-.48-.48-1.25-.48-1.72 0s-.48 1.25 0 1.72l1.4 1.4c.24.24.55.36.86.36.31 0 .62-.12.86-.36.48-.48.48-1.25 0-1.72l-1.4-1.4Z"/>
</svg>
