<svg xmlns="http://www.w3.org/2000/svg" viewBox="0 0 293 244">
  <g clip-path="url(#select-value__a)">
    <path fill="#4E7FDB" d="m110.798 198.42-.88-.04c-.12 0-.24-.04-.34-.09-.15-.03-.37-.08-.62-.13l-.54-.11a18.33 18.33 0 0 1-9.16-5.88c-2.83-3.37-3.98-8.22-6.25-17.89l-13.91-59.02c-2.28-9.66-3.42-14.51-2.39-18.8.91-3.79 2.95-7.13 5.9-9.67 3.34-2.85 8.14-3.99 17.71-6.26l1.56-.37a.915.915 0 0 1 .42 1.78l-1.56.37c-9.28 2.2-13.94 3.3-16.94 5.87-2.66 2.28-4.5 5.29-5.32 8.7-.93 3.87.18 8.58 2.39 17.96l13.91 59.02c2.21 9.38 3.32 14.09 5.88 17.13 2.15 2.56 4.98 4.38 8.2 5.28l.48.1c1.02.21 1.69.36 1.57 1.21l-.11.84Z"/>
    <path fill="#75A4FE" d="M153.458 201.27h-20.97c-11.14 0-16.73 0-21.13-2.23-3.9-1.97-7.01-5.06-8.99-8.93-2.24-4.37-2.24-9.93-2.24-21v-67.69c0-11.07 0-16.63 2.24-21 1.99-3.87 5.1-6.96 8.99-8.93 4.4-2.23 9.99-2.23 21.13-2.23h41.94c11.14 0 16.74 0 21.13 2.23 3.9 1.97 7.01 5.06 8.99 8.93 2.24 4.37 2.24 9.93 2.24 21v50.91c0 .51-.41.92-.92.92s-.92-.41-.92-.92v-50.91c0-10.77 0-16.18-2.04-20.16a18.574 18.574 0 0 0-8.19-8.14c-4.01-2.03-9.46-2.03-20.31-2.03h-41.94c-10.85 0-16.3 0-20.31 2.03-3.55 1.8-6.38 4.61-8.19 8.14-2.04 3.98-2.04 9.39-2.04 20.16v67.69c0 10.77 0 16.18 2.04 20.16 1.81 3.53 4.64 6.34 8.19 8.13 4.01 2.03 9.46 2.03 20.31 2.03h20.97c.5 0 .92.41.92.92s-.41.92-.92.92h.02Z"/>
    <path fill="#75A4FE" d="M177.268 118.74h-33.81c-.39 0-.78.42-.78 1 0 .5.31 1 .78 1h33.81c.39 0 .78-.42.78-1-.08-.58-.39-1-.78-1Zm0 20.27h-33.81c-.39 0-.78.42-.78 1 0 .5.31 1 .78 1h33.81c.39 0 .78-.42.78-1-.08-.58-.39-1-.78-1Zm-12 20.27h-21.81c-.39 0-.78.42-.78 1 0 .5.31 1 .78 1h21.81c.39 0 .78-.42.78-1-.08-.58-.39-1-.78-1Zm11.52-60.81h-33.03c-.54 0-1.08.42-1.08 1 0 .5.43 1 1.08 1h33.03c.54 0 1.08-.42 1.08-1-.11-.58-.54-1-1.08-1Zm-51.97 5.82c-.32 0-.63-.13-.86-.36l-3.6-3.6a1.22 1.22 0 0 1 0-1.73c.48-.48 1.25-.48 1.72 0l2.74 2.74 6.34-6.34c.48-.48 1.25-.48 1.72 0s.48 1.25 0 1.73l-7.2 7.2c-.23.23-.54.36-.86.36Zm0 20.27c-.32 0-.63-.13-.86-.36l-3.6-3.6a1.22 1.22 0 0 1 0-1.73c.48-.48 1.25-.48 1.72 0l2.74 2.74 6.34-6.34c.48-.48 1.25-.48 1.72 0s.48 1.25 0 1.73l-7.2 7.2c-.23.23-.54.36-.86.36Zm0 20.27c-.32 0-.63-.13-.86-.36l-3.6-3.6a1.22 1.22 0 0 1 0-1.73c.48-.48 1.25-.48 1.72 0l2.74 2.74 6.34-6.34c.48-.48 1.25-.48 1.72 0s.48 1.25 0 1.73l-7.2 7.2c-.23.23-.54.36-.86.36Zm0 20.27c-.32 0-.63-.13-.86-.36l-3.6-3.6a1.22 1.22 0 0 1 0-1.73c.48-.48 1.25-.48 1.72 0l2.74 2.74 6.34-6.34c.48-.48 1.25-.48 1.72 0s.48 1.25 0 1.73l-7.2 7.2c-.23.23-.54.36-.86.36Z"/>
    <path fill="#7E90B0" d="M20.338 130.04c-.51 0-.92-.41-.92-.92v-3.17c0-.51.41-.92.92-.92s.92.41.92.92v3.17c0 .51-.41.92-.92.92Zm0 7.39c-.51 0-.92-.41-.92-.92v-3.17c0-.51.41-.92.92-.92s.92.41.92.92v3.17c0 .51-.41.92-.92.92Zm-2.1-5.28h-3.15c-.51 0-.92-.41-.92-.92s.41-.92.92-.92h3.16c.51 0 .92.41.92.92s-.41.92-.92.92h-.01Zm7.37 0h-3.16c-.51 0-.92-.41-.92-.92s.41-.92.92-.92h3.16c.51 0 .92.41.92.92s-.41.92-.92.92Zm209.27 39.46c-.51 0-.92-.41-.92-.92v-1.77h-1.76c-.51 0-.92-.41-.92-.92s.41-.92.92-.92h1.76v-1.77c0-.51.41-.92.92-.92s.92.41.92.92v1.77h1.76c.51 0 .92.41.92.92s-.41.92-.92.92h-1.76v1.77c0 .51-.41.92-.92.92Z"/>
    <path fill="#5BC1A5" d="M194.918 40.26c-.38 0-.72-.23-.85-.59l-1.29-3.36c-.18-.46-.27-.71-.37-.85-.09-.12-.19-.23-.31-.31-.13-.09-.38-.19-.83-.36l-3.37-1.3a.93.93 0 0 1-.59-.85c0-.37.23-.72.59-.85l3.35-1.29c.46-.18.71-.27.85-.37.12-.08.22-.19.31-.31.09-.13.19-.38.36-.84l1.29-3.37a.93.93 0 0 1 .85-.59c.37 0 .72.23.85.59l1.29 3.36c.19.49.28.72.37.85.09.12.19.23.31.31.13.09.35.18.85.37l3.35 1.29c.35.14.59.48.59.85s-.23.72-.59.85l-3.35 1.29c-.46.18-.71.27-.85.37-.12.08-.22.19-.31.31-.1.13-.18.36-.37.85l-1.29 3.36a.93.93 0 0 1-.85.59h.01Zm-4.16-7.62 1.14.44c.6.23.93.36 1.25.59.29.2.53.45.74.74.23.32.36.65.58 1.24l.44 1.15.44-1.14c.23-.6.36-.93.59-1.25.2-.29.45-.54.74-.74.32-.23.65-.36 1.24-.59l1.15-.44-1.14-.44c-.59-.23-.92-.36-1.25-.59a3.1 3.1 0 0 1-.74-.75c-.23-.32-.36-.65-.58-1.25l-.44-1.14-.44 1.14c-.23.6-.36.93-.59 1.25-.21.29-.46.54-.74.74-.32.23-.65.36-1.25.59l-1.14.44v.01Zm-3.71-4.37c-.51 0-.92-.41-.92-.92v-.95h-.94c-.51 0-.92-.41-.92-.92s.41-.92.92-.92h.94v-.95c0-.51.41-.92.92-.92s.92.41.92.92v.95h.94c.51 0 .92.41.92.92s-.41.92-.92.92h-.94v.95c0 .51-.41.92-.92.92Z"/>
    <path fill="#7E90B0" d="M198.638 221.29c15.464 0 28-12.536 28-28s-12.536-28-28-28-28 12.536-28 28 12.536 28 28 28Z"/>
    <path fill="#fff" d="M199.858 182.02c0-.67-.55-1.22-1.22-1.22-.67 0-1.22.55-1.22 1.22v10.05h-10.02c-.67 0-1.22.55-1.22 1.22 0 .67.55 1.22 1.22 1.22h10.02v10.05c0 .67.55 1.22 1.22 1.22.67 0 1.22-.55 1.22-1.22v-10.05h10.01c.67 0 1.22-.55 1.22-1.22 0-.67-.55-1.22-1.22-1.22h-10.01v-10.05Z"/>
    <path fill="#75A4FE" d="M80.428 180.81c-.41 0-.78-.28-.89-.69l-.59-2.37a.92.92 0 0 1 .67-1.11.92.92 0 0 1 1.11.67l.59 2.37a.92.92 0 0 1-.67 1.11c-.07.02-.15.03-.22.03v-.01Zm-1.77-7.1c-.41 0-.78-.28-.89-.69l-.59-2.37a.916.916 0 1 1 1.78-.44l.59 2.37a.92.92 0 0 1-.67 1.11c-.07.02-.15.03-.22.03v-.01Z"/>
    <path fill="#E56470" d="M219.728 109.35a4.28 4.28 0 0 1-4.27-4.27 4.28 4.28 0 0 1 4.27-4.27 4.28 4.28 0 0 1 4.27 4.27 4.28 4.28 0 0 1-4.27 4.27Zm0-6.71c-1.35 0-2.44 1.09-2.44 2.44 0 1.35 1.09 2.44 2.44 2.44 1.35 0 2.44-1.09 2.44-2.44 0-1.35-1.09-2.44-2.44-2.44Zm-163.86 85.01a2.88 2.88 0 1 1 .001-5.761 2.88 2.88 0 0 1-.001 5.761Zm0-3.94a1.05 1.05 0 1 0 0 2.1 1.05 1.05 0 0 0 0-2.1Z"/>
    <path fill="#7E90B0" d="m66.998 64.68-.37-.33a.54.54 0 0 0-.13.37l.5-.03v-.01Zm-3.43-5.93-.28.41c.11.08.25.1.38.08l-.1-.49Zm-1.15-.67-.47.16c.04.12.13.23.24.28l.23-.44Zm-6.89 0 .21.45c.12-.06.22-.16.26-.29l-.47-.16Zm-1.16.67-.1.49c.14.03.28 0 .39-.08l-.29-.41Zm-3.43 5.93.5.03c0-.13-.04-.27-.13-.37l-.37.33v.01Zm0 1.35.37.33c.09-.1.13-.23.13-.37l-.5.03v.01Zm3.43 5.93.28-.41a.512.512 0 0 0-.38-.08l.1.49Zm1.16.68.47-.16a.53.53 0 0 0-.24-.29l-.23.44v.01Zm6.89 0-.21-.45c-.12.06-.22.16-.26.29l.47.16Zm1.15-.68.1-.49c-.14-.03-.28 0-.39.08l.29.41Zm3.43-5.93-.5-.03c0 .13.04.27.13.37l.37-.33v-.01Zm-4.86-.67a3.16 3.16 0 0 1-3.16 3.16v1c2.3 0 4.16-1.86 4.16-4.16h-1Zm-3.17 3.16a3.16 3.16 0 0 1-3.16-3.16h-1c0 2.3 1.86 4.16 4.16 4.16v-1Zm-3.16-3.16a3.16 3.16 0 0 1 3.16-3.16v-1c-2.3 0-4.16 1.86-4.16 4.16h1Zm3.16-3.17a3.16 3.16 0 0 1 3.16 3.16h1c0-2.3-1.86-4.16-4.16-4.16v1Zm8.56 3.17c0-.24-.02-.49-.03-.71l-1 .07c.01.22.03.44.03.64h1Zm-.16-.34 1.89-2.12-.75-.66-1.89 2.12.75.66Zm1.89-2.13c.58-.64.65-1.56.24-2.28l-.87.49c.21.36.16.82-.11 1.12l.74.67Zm.24-2.28-1.14-1.98-.87.5 1.14 1.98.87-.5Zm-1.15-1.98c-.43-.72-1.25-1.12-2.1-.94l.2.98c.41-.09.82.1 1.04.47l.86-.51Zm-2.09-.94-2.78.57.2.98 2.78-.57-.2-.98Zm-2.41.65c-.39-.27-.81-.5-1.21-.7l-.46.89c.39.2.76.41 1.11.64l.56-.83Zm-.96-.42-.91-2.71-.95.32.91 2.71.95-.32Zm-.91-2.72c-.27-.8-1.02-1.33-1.86-1.33v1c.42 0 .78.26.92.66l.95-.32-.01-.01Zm-1.86-1.33h-2.29v1h2.29v-1Zm-2.29 0c-.85 0-1.59.55-1.86 1.33l.94.33a.99.99 0 0 1 .92-.66v-1Zm-1.87 1.34-.91 2.71.95.32.91-2.71-.95-.32Zm-.64 2.41c-.44.2-.85.44-1.24.72l.58.81c.34-.24.69-.45 1.08-.63l-.42-.91v.01Zm-.85.64-2.78-.57-.2.98 2.78.57.2-.98Zm-2.78-.57c-.84-.18-1.68.22-2.1.94l.86.51a.98.98 0 0 1 1.03-.47l.21-.98Zm-2.1.94-1.14 1.98.87.5 1.14-1.98-.87-.5Zm-1.14 1.97c-.44.73-.34 1.66.23 2.29l.74-.67a.953.953 0 0 1-.12-1.11l-.86-.51h.01Zm.23 2.29 1.89 2.12.75-.66-1.89-2.12-.75.66Zm1.77 1.76c-.01.22-.03.45-.03.71h1c0-.22.01-.42.03-.64l-1-.07Zm-.03.71c0 .25.02.49.03.71l1-.07c-.01-.22-.03-.43-.03-.64h-1Zm.15.34-1.89 2.12.75.66 1.89-2.12-.75-.66Zm-1.89 2.12a1.95 1.95 0 0 0-.24 2.28l.87-.49a.964.964 0 0 1 .11-1.12l-.74-.67Zm-.23 2.28 1.14 1.98.87-.5-1.14-1.98-.87.5Zm1.14 1.99c.43.72 1.25 1.12 2.1.94l-.2-.98c-.41.09-.82-.1-1.04-.47l-.86.51Zm2.1.93 2.78-.57-.2-.98-2.78.57.2.98Zm2.4-.64c.39.27.81.5 1.21.7l.46-.89c-.39-.2-.76-.41-1.11-.64l-.56.83Zm.97.42.91 2.71.95-.32-.91-2.71-.95.32Zm.91 2.71c.27.8 1.02 1.33 1.86 1.33v-1c-.42 0-.78-.26-.92-.66l-.95.32.01.01Zm1.86 1.33h2.29v-1h-2.29v1Zm2.29 0c.85 0 1.59-.55 1.86-1.33l-.94-.33a.99.99 0 0 1-.92.66v1Zm1.86-1.33.91-2.71-.95-.32-.91 2.71.95.32Zm.65-2.42c.44-.2.85-.44 1.24-.72l-.58-.81c-.34.24-.69.45-1.08.63l.42.91v-.01Zm.84-.64 2.78.57.2-.98-2.78-.57-.2.98Zm2.78.57c.84.18 1.68-.22 2.1-.94l-.86-.51a.98.98 0 0 1-1.03.47l-.21.98Zm2.11-.94 1.14-1.98-.87-.5-1.14 1.98.87.5Zm1.14-1.97c.44-.73.33-1.66-.24-2.29l-.74.67c.28.31.32.76.12 1.11l.86.51Zm-.24-2.29-1.89-2.12-.75.66 1.89 2.12.75-.66Zm-1.76-1.76c.01-.22.03-.45.03-.71h-1c0 .22-.01.42-.03.64l1 .07Z"/>
  </g>
  <defs>
    <clipPath id="select-value__a">
      <rect width="224.3" height="198.58" fill="#fff" transform="translate(14.168 22.71)"/>
    </clipPath>
  </defs>
</svg>
