<svg xmlns="http://www.w3.org/2000/svg" viewBox="0 0 220 184">
  <path fill="#7E90B0" d="M210.05 127.09c-.51 0-.92-.41-.92-.92v-1.77h-1.76c-.51 0-.92-.41-.92-.92s.41-.92.92-.92h1.76v-1.77c0-.51.41-.92.92-.92s.92.41.92.92v1.77h1.76c.51 0 .92.41.92.92s-.41.92-.92.92h-1.76v1.77c0 .51-.41.92-.92.92Z"/>
  <path fill="#4E7FDB" d="M122.18 155.19h-22.11c-26.61 0-39.97 0-48.44-8.47-8.06-8.07-8.45-20.93-8.46-44.84V86.23c0-26.64 0-40 8.46-48.48 8.46-8.48 21.82-8.47 48.44-8.47h22.11c24.42 0 37.87 0 46.33 8.47s8.46 21.84 8.46 48.48v15.64c-.02 23.92-.4 36.78-8.46 44.84-8.1 8.1-20.75 8.47-46.33 8.47v.01ZM100.07 31.08c-26.12 0-39.22 0-47.16 7.94-7.94 7.95-7.94 21.07-7.94 47.21v15.64c.02 24.08.36 35.99 7.94 43.57 7.94 7.94 21.05 7.94 47.16 7.94h22.11c23.94 0 37.13 0 45.06-7.94 7.58-7.58 7.92-19.49 7.94-43.57V86.23c0-26.14 0-39.26-7.94-47.21-7.93-7.93-21.12-7.94-45.06-7.94h-22.11Z"/>
  <path fill="#E56470" d="M211.73 25.8c-.39 0-.7-.31-.7-.7v-.62c0-2.2 1.59-3.96 3.13-5.67.6-.67 1.17-1.3 1.63-1.94.48-.67.74-1.45.74-2.25 0-2.33-2.15-4.23-4.8-4.23s-4.8 1.9-4.8 4.23c0 .39-.31.7-.7.7-.39 0-.7-.31-.7-.7 0-3.1 2.78-5.63 6.2-5.63 3.42 0 6.2 2.53 6.2 5.63 0 1.1-.35 2.16-1 3.07-.5.7-1.13 1.39-1.73 2.06-1.36 1.51-2.77 3.07-2.77 4.73v.62c0 .39-.31.7-.7.7Zm-1.99 4.77c-.44 0-.81-.36-.81-.8 0-.44.35-.8.79-.8h.02c.44 0 .8.36.8.8 0 .44-.36.8-.8.8Z"/>
  <path fill="#4E7FDB" d="M174.43 55.42H45.72c-.5 0-.9-.4-.9-.9s.4-.9.9-.9h128.71c.5 0 .9.4.9.9s-.4.9-.9.9Z"/>
  <path fill="#7E90B0" fill-opacity=".6" d="M22.43 58.03c-2.3 0-4.16 1.87-4.16 4.17s1.86 4.17 4.16 4.17 4.16-1.87 4.16-4.17-1.86-4.17-4.16-4.17Zm0 7.33c-1.75 0-3.16-1.42-3.16-3.17s1.42-3.17 3.16-3.17c1.74 0 3.16 1.42 3.16 3.17s-1.42 3.17-3.16 3.17Z"/>
  <path fill="#7E90B0" fill-opacity=".6" d="m32.72 64.66-1.76-1.98c0-.16.02-.32.02-.49 0-.17-.01-.33-.02-.49l1.76-1.97c.57-.64.65-1.56.24-2.28l-1.14-1.98c-.43-.72-1.25-1.12-2.1-.94l-2.6.53c-.27-.17-.55-.33-.83-.48l-.85-2.54a1.954 1.954 0 0 0-1.86-1.34h-2.29c-.85 0-1.59.55-1.86 1.33l-.84 2.53c-.29.15-.57.31-.85.49l-2.58-.53c-.84-.18-1.67.22-2.1.94l-1.14 1.98c-.43.73-.33 1.65.23 2.28l1.76 1.98c0 .16-.02.32-.02.49 0 .17.01.33.02.49l-1.76 1.97c-.57.64-.65 1.56-.24 2.28l1.14 1.98c.43.72 1.25 1.12 2.1.94l2.6-.53c.27.17.55.33.83.48l.85 2.54c.27.81 1.02 1.34 1.86 1.34h2.29c.85 0 1.59-.55 1.86-1.33l.84-2.53c.29-.15.57-.31.85-.49l2.58.53c.84.18 1.67-.22 2.1-.94l1.14-1.98c.43-.73.33-1.65-.23-2.28Zm-.63 1.78-1.14 1.98a.98.98 0 0 1-1.03.47l-2.78-.57c-.14-.03-.28 0-.39.08-.34.24-.69.45-1.08.63-.12.06-.22.16-.26.29l-.91 2.71a.99.99 0 0 1-.92.66h-2.29c-.42 0-.78-.26-.92-.66l-.91-2.71a.53.53 0 0 0-.24-.29c-.39-.2-.76-.41-1.11-.64-.11-.08-.25-.1-.38-.08l-2.78.57c-.41.09-.82-.1-1.03-.47l-1.14-1.97a.964.964 0 0 1 .11-1.12l1.89-2.13c.09-.1.13-.23.13-.37-.01-.22-.03-.43-.03-.64 0-.21.01-.42.03-.64 0-.13-.04-.27-.13-.37l-1.89-2.13a.938.938 0 0 1-.12-1.11l1.14-1.98a.98.98 0 0 1 1.03-.47l2.78.57c.14.03.28 0 .39-.08.34-.24.69-.45 1.08-.63.12-.06.22-.16.26-.29l.91-2.71a.99.99 0 0 1 .92-.66h2.29c.42 0 .78.26.92.66l.91 2.71c.04.12.13.23.24.29.39.2.76.41 1.11.64.11.08.25.1.38.08l2.78-.57c.41-.09.82.1 1.03.47l1.14 1.97c.21.36.16.82-.11 1.12l-1.89 2.13a.54.54 0 0 0-.13.37c.01.22.03.44.03.64 0 .22-.01.42-.03.64 0 .13.04.27.13.37l1.89 2.13c.28.31.33.76.12 1.11Z"/>
  <path fill="#E56470" fill-opacity=".2" d="M129.89 103.08c0-.5-.03-1.03-.07-1.53l4.31-4.83c.97-1.07 1.1-2.63.4-3.87l-2.61-4.5c-.74-1.23-2.14-1.9-3.58-1.6l-6.35 1.3c-.84-.57-1.74-1.07-2.64-1.53l-2.07-6.17a3.346 3.346 0 0 0-3.18-2.27h-5.22c-1.44 0-2.71.93-3.18 2.27l-2.07 6.17c-.94.43-1.81.93-2.64 1.53l-6.35-1.3c-1.4-.3-2.84.37-3.58 1.6l-2.61 4.5c-.74 1.23-.57 2.8.4 3.87l4.31 4.83c-.03.5-.07 1-.07 1.53s.03 1.03.07 1.53l-4.31 4.83c-.97 1.07-1.1 2.63-.4 3.87l2.61 4.5c.74 1.23 2.14 1.9 3.58 1.6l6.35-1.3c.84.57 1.74 1.07 2.64 1.53l2.07 6.17a3.346 3.346 0 0 0 3.18 2.27h5.22c1.44 0 2.71-.93 3.18-2.27l2.07-6.17c.94-.43 1.81-.93 2.64-1.53l6.35 1.3c1.4.3 2.84-.37 3.58-1.6l2.61-4.5c.74-1.23.57-2.8-.4-3.87l-4.31-4.83c.03-.5.07-1 .07-1.53Z"/>
  <path fill="#E56470" d="m131.88 106.78-4.03-4.52c.02-.37.04-.76.04-1.18 0-.39-.02-.79-.04-1.18l4.03-4.52c1.27-1.4 1.43-3.44.52-5.03l-2.61-4.51c-.94-1.59-2.76-2.47-4.64-2.08l-5.96 1.22c-.66-.42-1.33-.81-2.01-1.17l-1.95-5.79a4.343 4.343 0 0 0-4.12-2.95h-5.22c-1.87 0-3.51 1.21-4.12 2.94l-1.95 5.8c-.7.34-1.37.73-2.02 1.17l-5.95-1.22c-1.84-.39-3.7.49-4.64 2.07l-2.61 4.51c-.96 1.61-.73 3.65.52 5.03l4.04 4.52c-.02.37-.04.76-.04 1.18 0 .42.02.8.04 1.18l-4.03 4.52c-1.27 1.4-1.43 3.44-.52 5.03l2.61 4.51c.94 1.59 2.76 2.47 4.64 2.08l5.97-1.22c.66.42 1.33.81 2.01 1.17l1.95 5.79a4.343 4.343 0 0 0 4.12 2.95h5.22c1.87 0 3.52-1.21 4.12-2.93l1.94-5.8c.7-.34 1.37-.73 2.02-1.17l5.96 1.22c1.84.39 3.69-.49 4.64-2.07l2.6-4.5c.96-1.61.73-3.65-.52-5.03l-.01-.02Zm-1.2 4.02-2.6 4.5c-.53.88-1.55 1.34-2.51 1.13l-6.35-1.3c-.27-.06-.56 0-.78.17-.78.56-1.6 1.03-2.48 1.44-.25.12-.44.33-.53.59l-2.07 6.15c-.33.94-1.23 1.6-2.23 1.6h-5.22c-1.01 0-1.9-.63-2.23-1.59l-2.07-6.16a.986.986 0 0 0-.49-.57c-.89-.46-1.75-.94-2.54-1.47a.976.976 0 0 0-.76-.15l-6.35 1.3c-1 .21-1.99-.25-2.52-1.13l-2.6-4.48c-.5-.87-.39-1.97.27-2.7l4.31-4.84c.18-.2.27-.46.25-.73-.03-.5-.06-.97-.06-1.47s.03-.96.06-1.47a.976.976 0 0 0-.25-.73l-4.31-4.83c-.68-.75-.79-1.84-.28-2.69l2.6-4.5c.53-.88 1.55-1.34 2.51-1.13l6.35 1.3c.27.06.56 0 .78-.17.78-.56 1.6-1.03 2.48-1.44.25-.12.44-.33.53-.59l2.07-6.15c.33-.94 1.23-1.6 2.23-1.6h5.22c1.01 0 1.9.63 2.23 1.59l2.07 6.16c.08.25.26.45.49.57.89.46 1.75.94 2.54 1.47.22.15.5.21.76.15l6.35-1.3c1-.21 1.99.25 2.52 1.13l2.6 4.48c.5.87.39 1.97-.27 2.7l-4.31 4.84c-.18.2-.27.46-.25.73.03.5.07 1 .07 1.47 0 .5-.03.96-.07 1.47-.02.27.07.53.25.73l4.31 4.83c.68.75.79 1.84.28 2.69Z"/>
  <path fill="#E56470" d="M108.5 91.75c-5.17 0-9.36 4.18-9.36 9.33s4.19 9.33 9.36 9.33c5.17 0 9.36-4.17 9.36-9.33s-4.19-9.33-9.36-9.33Zm0 16.66c-4.07 0-7.36-3.29-7.36-7.33s3.29-7.33 7.36-7.33 7.36 3.29 7.36 7.33-3.29 7.33-7.36 7.33Z"/>
  <path fill="#4E7FDB" d="M149.73 43.47a1.3 1.3 0 1 0 0-2.6 1.3 1.3 0 0 0 0 2.6Z"/>
  <path fill="#4E7FDB" d="M149.73 43.97c-.99 0-1.8-.81-1.8-1.8s.81-1.8 1.8-1.8 1.8.81 1.8 1.8-.81 1.8-1.8 1.8Zm0-2.61c-.44 0-.8.36-.8.8 0 .44.36.8.8.8.44 0 .8-.36.8-.8 0-.44-.36-.8-.8-.8Zm-10.08 2.11a1.3 1.3 0 1 0 0-2.6 1.3 1.3 0 0 0 0 2.6Z"/>
  <path fill="#4E7FDB" d="M139.65 43.97c-.99 0-1.8-.81-1.8-1.8s.81-1.8 1.8-1.8 1.8.81 1.8 1.8-.81 1.8-1.8 1.8Zm0-2.61c-.44 0-.8.36-.8.8 0 .44.36.8.8.8.44 0 .8-.36.8-.8 0-.44-.36-.8-.8-.8Z"/>
  <path fill="#7E90B0" d="M8.17 111.83c-.51 0-.92-.41-.92-.92v-3.17c0-.51.41-.92.92-.92s.92.41.92.92v3.17c0 .51-.41.92-.92.92Zm0 7.39c-.51 0-.92-.41-.92-.92v-3.17c0-.51.41-.92.92-.92s.92.41.92.92v3.17c0 .51-.41.92-.92.92Zm-2.1-5.28H2.92c-.51 0-.92-.41-.92-.92s.41-.92.92-.92h3.16c.51 0 .92.41.92.92s-.41.92-.92.92h-.01Zm7.37 0h-3.16c-.51 0-.92-.41-.92-.92s.41-.92.92-.92h3.16c.51 0 .92.41.92.92s-.41.92-.92.92Z"/>
  <path fill="#E56470" d="M192.92 65.13a4.28 4.28 0 0 1-4.27-4.27 4.28 4.28 0 0 1 4.27-4.27 4.28 4.28 0 0 1 4.27 4.27 4.28 4.28 0 0 1-4.27 4.27Zm0-6.71c-1.34 0-2.44 1.09-2.44 2.44 0 1.35 1.09 2.44 2.44 2.44 1.35 0 2.44-1.09 2.44-2.44 0-1.35-1.09-2.44-2.44-2.44ZM35.88 163.84a2.88 2.88 0 1 1 .001-5.761 2.88 2.88 0 0 1-.001 5.761Zm0-3.93a1.05 1.05 0 1 0 0 2.1 1.05 1.05 0 0 0 0-2.1Zm126.57 13.51c16.02 0 29-12.98 29-29s-12.98-29-29-29-29 12.98-29 29 12.98 29 29 29Z"/>
  <path fill="#fff" d="M162.31 159.8c-8.39 0-15.22-6.83-15.22-15.22 0-4.15 1.67-7.92 4.38-10.67.03-.03.05-.06.08-.09s.06-.06.09-.08a15.16 15.16 0 0 1 10.67-4.38c8.39 0 15.22 6.83 15.22 15.22 0 4.16-1.68 7.93-4.39 10.68-.02.03-.05.05-.07.08-.02.03-.05.05-.08.07a15.174 15.174 0 0 1-10.68 4.39Zm-9.85-23.35a12.699 12.699 0 0 0-2.93 8.13c0 7.05 5.73 12.78 12.78 12.78 3.08 0 5.92-1.1 8.13-2.93l-17.98-17.98Zm1.72-1.73 17.98 17.98c1.83-2.21 2.93-5.04 2.93-8.13 0-7.05-5.73-12.78-12.78-12.78-3.08 0-5.92 1.1-8.13 2.93Z"/>
</svg>
