<svg xmlns="http://www.w3.org/2000/svg" viewBox="0 0 292 244">
  <path fill="#fff" d="M292 0H0v244h292V0Z"/>
  <path fill="#4E7FDB" d="M181.23 205.04h-71.32c-8.4 0-15.24-6.84-15.24-15.24V88.3c0-8.4 6.84-15.24 15.24-15.24h71.32c8.4 0 15.24 6.84 15.24 15.24v101.5c0 8.4-6.84 15.24-15.24 15.24ZM109.91 74.86c-7.41 0-13.44 6.03-13.44 13.44v101.5c0 7.41 6.03 13.44 13.44 13.44h71.32c7.41 0 13.44-6.03 13.44-13.44V88.3c0-7.41-6.03-13.44-13.44-13.44h-71.32Z"/>
  <path fill="#9FB7FF" d="M165.06 138.1c0 10.76-8.72 19.49-19.49 19.49-10.77 0-19.49-8.72-19.49-19.49 0-10.77 8.73-19.49 19.49-19.49 10.76 0 19.49 8.72 19.49 19.49Z"/>
  <path fill="#75A4FE" d="M145.57 158.5c-11.25 0-20.4-9.15-20.4-20.4 0-11.25 9.15-20.4 20.4-20.4 11.25 0 20.4 9.15 20.4 20.4 0 11.25-9.15 20.4-20.4 20.4Zm0-38.97c-10.24 0-18.57 8.33-18.57 18.57s8.33 18.57 18.57 18.57 18.57-8.33 18.57-18.57-8.33-18.57-18.57-18.57Z"/>
  <path fill="#7E90B0" d="M195.57 211.91c15.14 0 27.41-12.27 27.41-27.41s-12.27-27.41-27.41-27.41-27.41 12.27-27.41 27.41 12.27 27.41 27.41 27.41Z"/>
  <path fill="#fff" d="M142.55 149.28c-.67 0-1.22-.55-1.22-1.22v-16.82l-5.07 5.42a1.217 1.217 0 0 1-1.78-1.66l7.18-7.68c.34-.37.87-.49 1.34-.3.47.18.77.63.77 1.13v19.91c0 .67-.55 1.22-1.22 1.22Zm6.05 0c-.15 0-.3-.03-.45-.09-.47-.18-.77-.63-.77-1.13v-19.91c0-.67.55-1.22 1.22-1.22.67 0 1.22.55 1.22 1.22v16.82l5.07-5.42a1.217 1.217 0 0 1 1.78 1.66l-7.18 7.68c-.24.25-.56.39-.89.39Z"/>
  <path fill="#5BC1A5" d="M213.46 47.26c-.37 0-.71-.23-.84-.58l-2.08-5.42c-.32-.83-.47-1.22-.67-1.5-.17-.24-.38-.45-.64-.64-.28-.19-.67-.35-1.49-.67l-5.41-2.08a.898.898 0 0 1 0-1.68l5.41-2.08c.82-.31 1.21-.47 1.5-.67.24-.17.45-.38.64-.64.19-.27.35-.67.67-1.49l2.08-5.42a.898.898 0 0 1 1.68 0l2.08 5.42c.32.82.47 1.22.67 1.5.19.26.4.47.64.64.28.19.67.35 1.49.67l5.41 2.08a.898.898 0 0 1 0 1.68l-5.41 2.08c-.84.33-1.23.48-1.5.67-.24.17-.45.38-.64.64-.19.28-.35.67-.67 1.49l-2.08 5.42c-.13.35-.47.58-.84.58Zm-8.31-11.72 3.22 1.24c.88.34 1.41.55 1.88.88.43.31.79.67 1.08 1.08.33.48.54 1 .88 1.89l1.24 3.23 1.24-3.23c.34-.89.54-1.41.88-1.89.31-.43.67-.79 1.08-1.08.47-.33.97-.52 1.89-.88l3.23-1.24-3.22-1.24c-.89-.34-1.41-.55-1.89-.88-.39-.28-.74-.62-1.06-1.05-.35-.5-.56-1.03-.9-1.91l-1.24-3.23-1.24 3.23c-.34.89-.55 1.41-.87 1.88-.31.43-.67.79-1.08 1.08-.45.32-.92.51-1.89.88l-3.22 1.24h-.01Zm-4.39-7.62c-.5 0-.9-.4-.9-.9V24.9h-2.1c-.5 0-.9-.4-.9-.9s.4-.9.9-.9h2.1V21c0-.5.4-.9.9-.9s.9.4.9.9v2.1h2.1c.5 0 .9.4.9.9s-.4.9-.9.9h-2.1v2.12c0 .5-.4.9-.9.9Z"/>
  <path fill="#E56470" d="M226.87 117.03c-3.49 0-6.34-2.84-6.34-6.34s2.84-6.34 6.34-6.34 6.34 2.84 6.34 6.34-2.84 6.34-6.34 6.34Zm0-10.85c-2.48 0-4.51 2.02-4.51 4.51a4.511 4.511 0 0 0 9.02 0c0-2.49-2.02-4.51-4.51-4.51ZM56.51 224.87c-2.37 0-4.31-1.93-4.31-4.3s1.93-4.3 4.31-4.3a4.3 4.3 0 1 1 0 8.6Zm0-6.81a2.5 2.5 0 0 0 0 5 2.5 2.5 0 0 0 0-5Z"/>
  <path fill="#75A4FE" d="M148.5 191.91c0 1.34-1.09 2.43-2.43 2.43s-2.43-1.09-2.43-2.43 1.09-2.42 2.43-2.42a2.43 2.43 0 0 1 2.43 2.42Z"/>
  <path fill="#75A4FE" d="M146.07 194.92c-1.65 0-3-1.35-3-3s1.35-3 3-3 3 1.35 3 3-1.35 3-3 3Zm0-4.85c-1.02 0-1.85.83-1.85 1.85s.83 1.85 1.85 1.85 1.85-.83 1.85-1.85-.83-1.85-1.85-1.85Z"/>
  <path fill="#7E90B0" d="M68.27 42.14c-.5 0-.92-.41-.92-.92v-5.11c0-.51.41-.92.92-.92s.92.41.92.92v5.11c0 .51-.41.92-.92.92Zm0 11.91c-.5 0-.92-.41-.92-.92v-5.11c0-.51.41-.92.92-.92s.92.41.92.92v5.11c0 .51-.41.92-.92.92Zm-3.37-8.52h-5.1c-.5 0-.92-.41-.92-.92s.41-.92.92-.92h5.1c.5 0 .92.41.92.92s-.41.92-.92.92Zm11.88 0h-5.1c-.5 0-.92-.41-.92-.92s.41-.92.92-.92h5.1c.5 0 .92.41.92.92s-.41.92-.92.92Zm165.76 170.19a.85.85 0 0 1-.85-.85v-2.95a.85.85 0 1 1 1.7 0v2.95c0 .47-.38.85-.85.85Zm0 6.89a.85.85 0 0 1-.85-.85v-2.95a.85.85 0 1 1 1.7 0v2.95c0 .47-.38.85-.85.85Zm-1.95-4.93h-2.95a.85.85 0 1 1 0-1.7h2.95a.85.85 0 1 1 0 1.7Zm6.87 0h-2.95a.85.85 0 1 1 0-1.7h2.95a.85.85 0 1 1 0 1.7Z"/>
  <path fill="#fff" d="M195.57 197.51c-.66 0-1.2-.54-1.2-1.2v-1.52h-.92c-3 0-5.44-2.44-5.44-5.44 0-.66.54-1.2 1.2-1.2.66 0 1.2.54 1.2 1.2 0 1.67 1.36 3.04 3.04 3.04h3.94c1.84 0 3.34-1.5 3.34-3.34 0-1.84-1.5-3.34-3.34-3.34h-3.63c-3.17 0-5.74-2.58-5.74-5.74s2.58-5.74 5.74-5.74h.62v-1.52c0-.66.54-1.2 1.2-1.2.66 0 1.2.54 1.2 1.2v1.52h.92c3 0 5.44 2.44 5.44 5.44 0 .66-.54 1.2-1.2 1.2-.66 0-1.2-.54-1.2-1.2 0-1.68-1.36-3.04-3.04-3.04h-3.94c-1.84 0-3.34 1.5-3.34 3.34 0 1.84 1.5 3.34 3.34 3.34h3.63c3.17 0 5.74 2.58 5.74 5.74s-2.58 5.74-5.74 5.74h-.62v1.52c0 .66-.54 1.2-1.2 1.2Z"/>
  <path fill="#7E90B0" d="M70.95 158c-.51 0-.92-.41-.92-.92v-1.77h-1.76c-.51 0-.92-.41-.92-.92s.41-.92.92-.92h1.76v-1.77c0-.51.41-.92.92-.92s.92.41.92.92v1.77h1.76c.51 0 .92.41.92.92s-.41.92-.92.92h-1.76v1.77c0 .51-.41.92-.92.92Z"/>
</svg>
