<svg xmlns="http://www.w3.org/2000/svg" viewBox="0 0 292 244">
  <path fill="#7E90B0" d="M22.17 132.68c-.51 0-.92-.41-.92-.92v-3.17c0-.51.41-.92.92-.92s.92.41.92.92v3.17c0 .51-.41.92-.92.92Zm0 7.38c-.51 0-.92-.41-.92-.92v-3.17c0-.51.41-.92.92-.92s.92.41.92.92v3.17c0 .51-.41.92-.92.92Zm-2.1-5.28h-3.15c-.51 0-.92-.41-.92-.92s.41-.92.92-.92h3.16c.51 0 .92.41.92.92s-.41.92-.92.92h-.01Zm7.37 0h-3.16c-.51 0-.92-.41-.92-.92s.41-.92.92-.92h3.16c.51 0 .92.41.92.92s-.41.92-.92.92Z"/>
  <path fill="#5BC1A5" d="M245.66 157.57c-.38 0-.72-.23-.85-.59l-1.29-3.36c-.19-.49-.28-.72-.37-.85-.08-.12-.19-.22-.31-.31-.13-.09-.35-.18-.84-.37l-3.36-1.29a.93.93 0 0 1-.59-.85c0-.37.23-.72.59-.85l3.35-1.29c.49-.19.71-.28.85-.37.12-.08.22-.19.31-.31.09-.13.18-.35.37-.85l1.29-3.36a.93.93 0 0 1 .85-.59c.37 0 .72.23.85.59l1.29 3.36c.18.46.27.71.37.85.09.12.19.23.31.31.14.1.38.19.84.37l3.36 1.3c.35.14.59.48.59.85s-.23.72-.59.85l-3.36 1.29c-.46.18-.71.27-.84.37-.12.09-.23.19-.32.32s-.19.38-.37.84L246.5 157a.93.93 0 0 1-.85.59l.01-.02Zm-4.16-7.63 1.14.44c.59.23.92.35 1.25.59.29.21.54.46.74.74.23.33.36.68.59 1.25l.44 1.14.44-1.14c.23-.6.36-.93.59-1.25.21-.29.46-.54.74-.74.32-.23.65-.35 1.24-.58l1.15-.44-1.14-.44c-.6-.23-.93-.36-1.25-.59-.28-.2-.53-.45-.74-.74-.23-.33-.36-.65-.58-1.24l-.44-1.15-.44 1.14c-.23.6-.36.93-.58 1.25-.21.29-.46.54-.74.74-.33.23-.66.36-1.25.59l-1.14.44-.02-.01Zm-3.71-4.36c-.51 0-.92-.41-.92-.92v-.95h-.95c-.51 0-.92-.41-.92-.92s.41-.92.92-.92h.95v-.95c0-.51.41-.92.92-.92s.92.41.92.92v.95h.95c.51 0 .92.41.92.92s-.41.92-.92.92h-.95v.95c0 .51-.41.92-.92.92Z"/>
  <path fill="#E56470" d="M190.78 47.54a4.28 4.28 0 0 1-4.27-4.27 4.28 4.28 0 0 1 4.27-4.27 4.28 4.28 0 0 1 4.27 4.27 4.28 4.28 0 0 1-4.27 4.27Zm0-6.71c-1.35 0-2.44 1.09-2.44 2.44 0 1.35 1.09 2.44 2.44 2.44 1.35 0 2.44-1.09 2.44-2.44 0-1.35-1.09-2.44-2.44-2.44ZM57.7 200.28a2.88 2.88 0 1 1 .002-5.761 2.88 2.88 0 0 1-.002 5.761Zm0-3.94a1.05 1.05 0 1 0 0 2.1 1.05 1.05 0 0 0 0-2.1Z"/>
  <path fill="#1F64E7" d="M210.8 203.99h-3.49c-.51 0-.92-.41-.92-.92s.41-.92.92-.92h3.49c.51 0 .92.41.92.92s-.41.92-.92.92Zm-9.22 0h-11.29c-.51 0-.92-.41-.92-.92s.41-.92.92-.92h11.29c.51 0 .92.41.92.92s-.41.92-.92.92Zm-44.83 0h-42.1c-.51 0-.92-.41-.92-.92s.41-.92.92-.92h42.1c.51 0 .92.41.92.92s-.41.92-.92.92Zm-49.4 0h-8.36c-.51 0-.92-.41-.92-.92s.41-.92.92-.92h8.36c.51 0 .92.41.92.92s-.41.92-.92.92Z"/>
  <path fill="#4E7FDB" d="M160.42 176.66h-27.3c-22.54 0-33.86 0-42.03-5.72a31.436 31.436 0 0 1-7.76-7.76c-5.72-8.17-5.72-19.48-5.72-42.03s0-33.86 5.72-42.03c2.12-3.03 4.74-5.64 7.76-7.76 5.96-4.17 13.75-5.22 24.39-5.56.5-.03.91.37.93.87.02.5-.37.91-.87.93-10.31.33-17.82 1.32-23.41 5.23-2.86 2-5.32 4.46-7.32 7.32-5.39 7.7-5.39 18.83-5.39 41s0 33.29 5.39 40.99c2 2.86 4.47 5.32 7.32 7.32 7.7 5.39 18.83 5.39 41 5.39h27.3c22.17 0 33.29 0 41-5.39 2.86-2 5.32-4.46 7.32-7.32 5.39-7.7 5.39-18.83 5.39-40.99 0-22.16 0-33.29-5.39-41-2-2.86-4.47-5.32-7.32-7.32-5.67-3.97-13.07-4.93-23.94-5.25a.89.89 0 0 1-.87-.93c.01-.5.45-.9.93-.87 11.21.33 18.88 1.35 24.92 5.57 3.03 2.12 5.64 4.73 7.76 7.76 5.72 8.17 5.72 19.48 5.72 42.03s0 33.86-5.72 42.03a31.607 31.607 0 0 1-7.76 7.76c-8.17 5.72-19.48 5.72-42.03 5.72l-.02.01Z"/>
  <path fill="#4E7FDB" d="M211.22 160.51H82.32c-.5 0-.9-.4-.9-.9s.4-.9.9-.9h128.9c.5 0 .9.4.9.9s-.4.9-.9.9Zm-47.38 43.46c-.27 0-.54-.12-.72-.36l-2.15-2.86c-5.04-6.69-6.29-16.86-3.11-25.3a.898.898 0 1 1 1.68.64c-2.97 7.89-1.82 17.37 2.87 23.59l2.15 2.86a.899.899 0 0 1-.72 1.44v-.01Zm-34.13 0a.899.899 0 0 1-.72-1.44l2.15-2.86c4.68-6.22 5.83-15.7 2.86-23.59-.17-.46.06-.98.53-1.16.47-.18.98.06 1.16.53 3.18 8.44 1.93 18.61-3.11 25.3l-2.15 2.86c-.18.23-.45.36-.72.36Z"/>
  <path fill="#7E90B0" d="M208.51 206c15.46 0 28-12.54 28-28s-12.54-28-28-28-28 12.54-28 28 12.54 28 28 28Z"/>
  <path fill="#fff" d="M209.58 192.22a1.222 1.222 0 0 1-1.16-1.62 2.68 2.68 0 1 0-5.06 0c.13.38.08.79-.15 1.11-.23.33-.63.52-1 .51-3.09-.01-5.06-.12-6.44-1.5-1.38-1.38-1.49-3.35-1.5-6.44 0-.4.19-.77.51-1 .33-.23.74-.29 1.11-.15a2.68 2.68 0 1 0 0-5.06 1.222 1.222 0 0 1-1.62-1.16c.01-3.09.12-5.06 1.5-6.44 1.15-1.15 2.72-1.42 5-1.48v-.1c0-2.82 2.3-5.12 5.12-5.12 2.82 0 5.12 2.3 5.12 5.12v.1c2.28.06 3.85.33 5 1.48s1.42 2.72 1.48 5c2.84-.03 5.22 2.26 5.22 5.12 0 2.86-2.39 5.17-5.22 5.12-.06 2.28-.33 3.85-1.48 5-1.38 1.38-3.35 1.49-6.44 1.5l.01.01Zm-3.67-7.64c2.82 0 5.12 2.3 5.12 5.12v.06c1.81-.05 2.74-.23 3.27-.76.66-.66.77-1.93.79-4.72 0-.4.19-.77.52-.99.32-.23.74-.28 1.11-.15a2.68 2.68 0 1 0 0-5.06 1.219 1.219 0 0 1-1.63-1.14c-.01-2.79-.12-4.06-.79-4.72-.66-.66-1.93-.77-4.72-.79-.4 0-.77-.2-.99-.52a1.25 1.25 0 0 1-.15-1.11 2.68 2.68 0 1 0-5.06 0 1.219 1.219 0 0 1-1.14 1.63c-2.79.01-4.06.12-4.72.78-.54.53-.71 1.47-.76 3.28h.06c2.82 0 5.12 2.3 5.12 5.12 0 2.82-2.3 5.12-5.12 5.12h-.06c.05 1.81.23 2.74.76 3.27.53.54 1.47.71 3.28.76v-.06c0-2.82 2.3-5.12 5.12-5.12h-.01Z"/>
  <path fill="#4E7FDB" d="M180.9 203.97h-68.26c-.5 0-.9-.4-.9-.9s.4-.9.9-.9h68.26c.5 0 .9.4.9.9s-.4.9-.9.9Z"/>
  <path fill="#E0706D" fill-opacity=".18" d="M178.51 76c0-17.67-14.33-32-32-32s-32 14.33-32 32 14.33 32 32 32 32-14.33 32-32Z"/>
  <path fill="#4E7FDB" d="M146.51 108.9c-18.14 0-32.9-14.76-32.9-32.9s14.76-32.9 32.9-32.9 32.9 14.76 32.9 32.9-14.76 32.9-32.9 32.9Zm0-64c-17.15 0-31.1 13.95-31.1 31.1 0 17.15 13.95 31.1 31.1 31.1 17.15 0 31.1-13.95 31.1-31.1 0-17.15-13.95-31.1-31.1-31.1Z"/>
  <path fill="#E56470" d="M145.11 78.2c0 .5.4.9.9.9s.9-.4.9-.9h-1.8Zm9 4.5c-.5 0-.9.4-.9.9s.4.9.9.9v-1.8Zm3.15 6.3c0 .5.4.9.9.9s.9-.4.9-.9h-1.8Zm-19.35-4.5c.5 0 .9-.4.9-.9s-.4-.9-.9-.9v1.8Zm-4.95 4.5c0 .5.4.9.9.9s.9-.4.9-.9h-1.8Zm-.45-11.7c-.5 0-.9.4-.9.9s.4.9.9.9v-1.8Zm4.05 1.8c.5 0 .9-.4.9-.9s-.4-.9-.9-.9v1.8Zm18.9-1.8c-.5 0-.9.4-.9.9s.4.9.9.9v-1.8Zm4.05 1.8c.5 0 .9-.4.9-.9s-.4-.9-.9-.9v1.8Zm-4.05-7.2c-.5 0-.9.4-.9.9s.4.9.9.9v-1.8Zm4.95-4.5c0-.5-.4-.9-.9-.9s-.9.4-.9.9h1.8Zm-23.85 6.3c.5 0 .9-.4.9-.9s-.4-.9-.9-.9v1.8Zm-3.15-6.3c0-.5-.4-.9-.9-.9s-.9.4-.9.9h1.8Zm7.91-2.06a.9.9 0 0 0 1.27 0 .9.9 0 0 0 0-1.27l-1.27 1.27Zm-1.43-3.98a.9.9 0 0 0-1.27 0 .9.9 0 0 0 0 1.27l1.27-1.27Zm9.53 2.7a.9.9 0 0 0 0 1.27.9.9 0 0 0 1.27 0l-1.27-1.27Zm3.97-1.42a.9.9 0 0 0 0-1.27.9.9 0 0 0-1.27 0l1.27 1.27Zm-8.28 10.16v5.4h1.8v-5.4h-1.8Zm9.45 4.05c0 6.44-4.03 11.25-8.55 11.25v1.8c5.91 0 10.35-6.07 10.35-13.05h-1.8Zm-8.55 11.25c-4.52 0-8.55-4.81-8.55-11.25h-1.8c0 6.98 4.44 13.05 10.35 13.05v-1.8Zm-8.55-11.25c0-6.44 4.03-11.25 8.55-11.25v-1.8c-5.91 0-10.35 6.07-10.35 13.05h1.8Zm8.55-11.25c4.52 0 8.55 4.81 8.55 11.25h1.8c0-6.98-4.44-13.05-10.35-13.05v1.8Zm8.1 18.9c.77 0 1.54.41 2.14 1.22.6.81 1.01 1.96 1.01 3.28h1.8c0-1.67-.51-3.21-1.37-4.36-.86-1.15-2.12-1.94-3.58-1.94v1.8Zm-16.2-1.8c-1.46 0-2.72.79-3.58 1.94-.86 1.15-1.37 2.69-1.37 4.36h1.8c0-1.32.4-2.47 1.01-3.28.6-.81 1.37-1.22 2.14-1.22v-1.8Zm-5.4-3.6h4.05v-1.8h-4.05v1.8Zm22.95 0h4.05v-1.8h-4.05v1.8Zm0-5.4c1.46 0 2.72-.79 3.58-1.94.86-1.15 1.37-2.69 1.37-4.36h-1.8c0 1.32-.4 2.47-1.01 3.28-.6.81-1.37 1.22-2.14 1.22v1.8Zm-18.9-1.8c-.77 0-1.54-.41-2.14-1.22-.61-.81-1.01-1.96-1.01-3.28h-1.8c0 1.67.51 3.21 1.37 4.36.86 1.15 2.12 1.94 3.58 1.94v-1.8Zm17.02-2.53c-2.23 1.61-4.82 2.53-7.57 2.53v1.8c3.17 0 6.12-1.06 8.63-2.87l-1.06-1.46Zm-7.57 2.53c-2.76 0-5.35-.92-7.57-2.53l-1.06 1.46c2.51 1.82 5.46 2.87 8.63 2.87v-1.8Zm-3.42-7.84-2.7-2.7-1.27 1.27 2.7 2.7 1.27-1.27Zm8.1 1.28 2.7-2.7-1.27-1.27-2.7 2.7 1.27 1.27Z"/>
  <path fill="#4E7FDB" d="m170.148 98.365-1.273 1.273 9.001 9.001 1.273-1.273-9.001-9.001Z"/>
  <path fill="#7E90B0" d="M178.31 116.52a6.162 6.162 0 0 1 0-8.72 6.162 6.162 0 0 1 8.72 0l12.67 12.67a6.162 6.162 0 0 1 0 8.72 6.162 6.162 0 0 1-8.72 0l-12.67-12.67Z"/>
  <path fill="#4E7FDB" d="M146.51 108.9c-18.14 0-32.9-14.76-32.9-32.9s14.76-32.9 32.9-32.9 32.9 14.76 32.9 32.9-14.76 32.9-32.9 32.9Zm0-64c-17.15 0-31.1 13.95-31.1 31.1 0 17.15 13.95 31.1 31.1 31.1 17.15 0 31.1-13.95 31.1-31.1 0-17.15-13.95-31.1-31.1-31.1Z"/>
  <path fill="#7E90B0" d="M252.6 195.22c-.51 0-.92-.41-.92-.92v-1.77h-1.76c-.51 0-.92-.41-.92-.92s.41-.92.92-.92h1.76v-1.77c0-.51.41-.92.92-.92s.92.41.92.92v1.77h1.76c.51 0 .92.41.92.92s-.41.92-.92.92h-1.76v1.77c0 .51-.41.92-.92.92Z"/>
</svg>
