<svg xmlns="http://www.w3.org/2000/svg" viewBox="0 0 220 184">
  <path fill="#7E90B0" d="M10.17 104.27c-.51 0-.92-.41-.92-.92v-3.17c0-.51.41-.92.92-.92s.92.41.92.92v3.17c0 .51-.41.92-.92.92Zm0 7.38c-.51 0-.92-.41-.92-.92v-3.17c0-.51.41-.92.92-.92s.92.41.92.92v3.17c0 .51-.41.92-.92.92Zm-2.1-5.27H4.92c-.51 0-.92-.41-.92-.92s.41-.92.92-.92h3.16c.51 0 .92.41.92.92s-.41.92-.92.92h-.01Zm7.37 0h-3.16c-.51 0-.92-.41-.92-.92s.41-.92.92-.92h3.16c.51 0 .92.41.92.92s-.41.92-.92.92Zm195.97-36.61c-.44 0-.8-.36-.8-.8v-2.48c0-.44.36-.8.8-.8.44 0 .8.36.8.8v2.48c0 .44-.36.8-.8.8Zm0 5.79c-.44 0-.8-.36-.8-.8v-2.48c0-.44.36-.8.8-.8.44 0 .8.36.8.8v2.48c0 .44-.36.8-.8.8Zm-1.65-4.14h-2.47c-.44 0-.8-.36-.8-.8 0-.44.36-.8.8-.8h2.47c.44 0 .8.36.8.8 0 .44-.36.8-.8.8Zm5.78 0h-2.47c-.44 0-.8-.36-.8-.8 0-.44.36-.8.8-.8h2.47c.44 0 .8.36.8.8 0 .44-.36.8-.8.8Zm-9.83 82.41c-.51 0-.92-.41-.92-.92v-1.77h-1.76c-.51 0-.92-.41-.92-.92s.41-.92.92-.92h1.76v-1.77c0-.51.41-.92.92-.92s.92.41.92.92v1.77h1.76c.51 0 .92.41.92.92s-.41.92-.92.92h-1.76v1.77c0 .51-.41.92-.92.92Z"/>
  <path fill="#5BC1A5" d="M23.06 25.55c-.38 0-.72-.23-.85-.59l-1.29-3.36c-.18-.46-.27-.71-.37-.85-.09-.12-.19-.23-.31-.31-.13-.1-.39-.19-.85-.37l-3.35-1.29a.92.92 0 0 1-.59-.85c0-.38.23-.72.59-.85l3.35-1.29c.49-.19.71-.28.84-.37.12-.09.23-.19.31-.31.09-.13.19-.38.36-.84l1.29-3.37a.93.93 0 0 1 .85-.59c.37 0 .72.23.85.59l1.29 3.36c.18.46.27.71.37.85.08.12.19.22.31.31.14.1.39.19.85.37l3.35 1.29c.35.14.59.48.59.85s-.23.72-.59.85l-3.35 1.29c-.46.18-.71.28-.85.37-.12.08-.22.19-.31.31-.1.13-.19.38-.37.84l-1.29 3.37a.93.93 0 0 1-.85.59h.02Zm-4.15-7.62 1.14.44c.6.23.92.36 1.25.59.29.21.54.45.74.74.23.32.36.65.58 1.24l.44 1.15.44-1.14c.23-.6.36-.93.59-1.25.2-.29.45-.54.74-.74.32-.23.65-.36 1.24-.59l1.15-.44-1.14-.44c-.6-.23-.93-.36-1.25-.59-.29-.2-.54-.45-.74-.74-.23-.32-.35-.65-.58-1.24l-.44-1.15-.44 1.14c-.23.6-.36.93-.58 1.25-.21.29-.46.54-.74.75-.32.23-.65.36-1.25.59l-1.14.44-.01-.01Zm-3.72-4.37c-.51 0-.92-.41-.92-.92v-.95h-.95c-.51 0-.92-.41-.92-.92s.41-.92.92-.92h.95V8.9c0-.51.41-.92.92-.92s.92.41.92.92v.95h.94c.51 0 .92.41.92.92s-.41.92-.92.92h-.94v.95c0 .51-.41.92-.92.92Z"/>
  <path fill="#E56470" d="M182.7 20.32c-2.07 0-3.75-1.68-3.75-3.75 0-2.07 1.68-3.75 3.75-3.75 2.07 0 3.75 1.68 3.75 3.75 0 2.07-1.68 3.75-3.75 3.75Zm0-5.68a1.92 1.92 0 1 0 .001 3.841 1.92 1.92 0 0 0-.001-3.84Zm-159 147.23a2.88 2.88 0 1 1 .002-5.761 2.88 2.88 0 0 1-.002 5.761Zm0-3.93a1.05 1.05 0 1 0 0 2.1 1.05 1.05 0 0 0 0-2.1Z"/>
  <path fill="#4E7FDB" d="M149.92 162.68h-45.01c-.5 0-.9-.4-.9-.9s.4-.9.9-.9h45.01c.5 0 .9.4.9.9s-.4.9-.9.9Zm-80.89 0H56.96c-.5 0-.9-.4-.9-.9s.4-.9.9-.9h12.07c.5 0 .9.4.9.9s-.4.9-.9.9Zm-18.18 0h-3.73c-.5 0-.9-.4-.9-.9s.4-.9.9-.9h3.73c.5 0 .9.4.9.9s-.4.9-.9.9Z"/>
  <path fill="#75A4FE" d="M171.65 156.08h-3.73c-.5 0-.9-.4-.9-.9s.4-.9.9-.9h3.73c.5 0 .9.4.9.9s-.4.9-.9.9Zm-41.68-21.39h-28.01c-23.13 0-34.74 0-43.11-5.86-3.13-2.2-5.81-4.88-7.97-7.96-5.86-8.38-5.86-19.98-5.86-43.09 0-23.11 0-34.72 5.86-43.09 2.2-3.13 4.88-5.81 7.97-7.96 8.38-5.86 19.99-5.86 43.11-5.86h28.01c23.13 0 34.74 0 43.11 5.86 3.13 2.2 5.81 4.88 7.97 7.96 4.51 6.42 5.51 14.66 5.77 27.61v13.33c0 .5-.4.9-.9.9s-.9-.4-.9-.9V62.32c-.26-12.58-1.2-20.55-5.45-26.6a30.74 30.74 0 0 0-7.53-7.52c-7.9-5.53-19.32-5.53-42.07-5.53h-28.01c-22.74 0-34.16 0-42.08 5.54a30.526 30.526 0 0 0-7.52 7.52c-5.54 7.9-5.54 19.31-5.54 42.05s0 34.14 5.54 42.05c2.03 2.91 4.57 5.44 7.53 7.52 7.9 5.53 19.32 5.53 42.08 5.53h28.01c6.72 0 12.52 0 17.49-.15.46 0 .91.38.93.87.01.5-.38.91-.87.93-5 .15-10.81.15-17.55.15l-.01.01Z"/>
  <path fill="#E56470" fill-opacity=".2" d="M61.92 68.63c0-6.95 0-10.43 1.18-13.08 1.04-2.34 2.7-4.23 4.75-5.42 2.32-1.35 5.37-1.35 11.45-1.35h73.88c6.09 0 9.13 0 11.45 1.35 2.04 1.19 3.71 3.09 4.75 5.42 1.18 2.65 1.18 6.13 1.18 13.08v3.92c0 6.95 0 10.43-1.18 13.08-1.04 2.34-2.7 4.23-4.75 5.42-2.32 1.35-5.37 1.35-11.45 1.35H79.3c-6.08 0-9.13 0-11.45-1.35-2.04-1.19-3.71-3.09-4.75-5.42-1.18-2.65-1.18-6.13-1.18-13.08v-3.92Z"/>
  <path fill="#E56470" d="M87.06 82h-7.29c-2.24 0-3.37 0-4.41-.53a4.843 4.843 0 0 1-2.13-2.14c-.53-1.04-.53-2.17-.53-4.42V73.2c0-2.25 0-3.37.53-4.42.47-.93 1.21-1.67 2.13-2.14.48-.24 1.01-.39 1.72-.46v-2.27c0-3.5 2.84-6.35 6.33-6.35s6.33 2.85 6.33 6.35v2.27c.68.07 1.21.2 1.72.46.92.47 1.66 1.21 2.13 2.14.53 1.04.53 2.17.53 4.42v1.71c0 2.25 0 3.37-.53 4.42-.47.93-1.21 1.67-2.13 2.14-1.04.53-2.17.53-4.41.53h.01Zm-7.29-13.45c-.88 0-1.58 0-2.12.03-.58.04-.93.11-1.18.23-.46.24-.83.61-1.07 1.07-.27.52-.27 1.51-.27 3.31v1.71c0 1.8 0 2.79.27 3.31.24.46.6.83 1.07 1.07.52.27 1.51.27 3.3.27h7.29c1.79 0 2.78 0 3.3-.27.46-.24.83-.61 1.07-1.07.27-.52.27-1.51.27-3.31v-1.71c0-1.8 0-2.79-.27-3.31-.24-.46-.6-.83-1.07-1.07-.52-.27-1.51-.27-3.3-.27h-7.29v.01Zm0-2.44h7.54v-2.2c0-2.16-1.75-3.91-3.9-3.91s-3.9 1.76-3.9 3.91v2.2h.26Zm3.61 10.39c-.67 0-1.22-.55-1.22-1.22v-2.44c0-.67.55-1.22 1.22-1.22.67 0 1.22.55 1.22 1.22v2.44c0 .67-.55 1.22-1.22 1.22Zm23.58-1.99a1.45 1.45 0 0 1-1.04-.48.794.794 0 0 1-.22-.56c0-.24.08-.45.24-.64l1.32-1.88-2.08-.6a.783.783 0 0 1-.52-.36c-.11-.19-.16-.41-.16-.66 0-.27.1-.51.3-.74.21-.24.48-.36.8-.36.03 0 .07 0 .12.02.05 0 .11.01.18.04l2.1.68-.1-2.04c.01-.33.13-.57.34-.72.21-.16.46-.24.74-.24.28 0 .52.08.72.24.21.15.33.39.34.72l-.08 2.08 2.12-.72c.11-.04.21-.06.3-.06.31 0 .55.13.74.4.2.27.3.55.3.84 0 .2-.05.39-.16.56-.11.16-.28.27-.52.32l-2.04.48 1.4 2.02c.11.13.16.33.16.58 0 .32-.13.58-.4.78-.25.2-.53.3-.82.3-.11 0-.23-.02-.38-.06-.15-.04-.27-.15-.38-.32l-1.3-2-1.32 2.02a.7.7 0 0 1-.32.3c-.11.04-.23.06-.38.06Zm13.43 0a1.45 1.45 0 0 1-1.04-.48.794.794 0 0 1-.22-.56c0-.24.08-.45.24-.64l1.32-1.88-2.08-.6a.783.783 0 0 1-.52-.36c-.11-.19-.16-.41-.16-.66 0-.27.1-.51.3-.74.21-.24.48-.36.8-.36.03 0 .07 0 .12.02.05 0 .11.01.18.04l2.1.68-.1-2.04c.01-.33.13-.57.34-.72.21-.16.46-.24.74-.24.28 0 .52.08.72.24.21.15.33.39.34.72l-.08 2.08 2.12-.72c.11-.04.21-.06.3-.06.31 0 .55.13.74.4.2.27.3.55.3.84 0 .2-.05.39-.16.56-.11.16-.28.27-.52.32l-2.04.48 1.4 2.02c.11.13.16.33.16.58 0 .32-.13.58-.4.78-.25.2-.53.3-.82.3-.11 0-.23-.02-.38-.06-.15-.04-.27-.15-.38-.32l-1.3-2-1.32 2.02a.7.7 0 0 1-.32.3c-.11.04-.23.06-.38.06Zm13.42 0a1.45 1.45 0 0 1-1.04-.48.794.794 0 0 1-.22-.56c0-.24.08-.45.24-.64l1.32-1.88-2.08-.6a.783.783 0 0 1-.52-.36c-.11-.19-.16-.41-.16-.66 0-.27.1-.51.3-.74.21-.24.48-.36.8-.36.03 0 .07 0 .12.02.05 0 .11.01.18.04l2.1.68-.1-2.04c.01-.33.13-.57.34-.72.21-.16.46-.24.74-.24.28 0 .52.08.72.24.21.15.33.39.34.72l-.08 2.08 2.12-.72c.11-.04.21-.06.3-.06.31 0 .55.13.74.4.2.27.3.55.3.84 0 .2-.05.39-.16.56-.11.16-.28.27-.52.32l-2.04.48 1.4 2.02c.11.13.16.33.16.58 0 .32-.13.58-.4.78-.25.2-.53.3-.82.3-.11 0-.23-.02-.38-.06-.15-.04-.27-.15-.38-.32l-1.3-2-1.32 2.02a.7.7 0 0 1-.32.3c-.11.04-.23.06-.38.06Zm13.43 0a1.45 1.45 0 0 1-1.04-.48.794.794 0 0 1-.22-.56c0-.24.08-.45.24-.64l1.32-1.88-2.08-.6a.783.783 0 0 1-.52-.36c-.11-.19-.16-.41-.16-.66 0-.27.1-.51.3-.74.21-.24.48-.36.8-.36.03 0 .07 0 .12.02.05 0 .11.01.18.04l2.1.68-.1-2.04c.01-.33.13-.57.34-.72.21-.16.46-.24.74-.24.28 0 .52.08.72.24.21.15.33.39.34.72l-.08 2.08 2.12-.72c.11-.04.21-.06.3-.06.31 0 .55.13.74.4.2.27.3.55.3.84 0 .2-.05.39-.16.56-.11.16-.28.27-.52.32l-2.04.48 1.4 2.02c.11.13.16.33.16.58 0 .32-.13.58-.4.78-.25.2-.53.3-.82.3-.11 0-.23-.02-.38-.06-.15-.04-.27-.15-.38-.32l-1.3-2-1.32 2.02a.7.7 0 0 1-.32.3c-.11.04-.23.06-.38.06Z"/>
  <path fill="#75A4FE" d="M148.55 121.11H51.92c-.5 0-.9-.4-.9-.9s.4-.9.9-.9h96.63c.5 0 .9.4.9.9s-.4.9-.9.9Zm-50.21 41.57a.899.899 0 0 1-.72-1.44l2.21-2.94c4.82-6.39 6-16.12 2.94-24.21-.18-.46.06-.98.52-1.16.47-.18.99.06 1.16.52 3.27 8.65 1.99 19.07-3.18 25.93l-2.21 2.94c-.18.24-.45.36-.72.36Zm35.03 0c-.27 0-.54-.12-.72-.36l-2.21-2.94c-5.17-6.86-6.45-17.28-3.18-25.93a.898.898 0 1 1 1.68.64c-3.06 8.1-1.88 17.83 2.94 24.21l2.21 2.94a.899.899 0 0 1-.72 1.44Z"/>
  <path fill="#4E7FDB" d="M150.87 162.68H80.83c-.5 0-.9-.4-.9-.9s.4-.9.9-.9h70.04c.5 0 .9.4.9.9s-.4.9-.9.9Z"/>
  <path fill="#75A4FE" d="M178.21 162.65h-16.58c-7.5 0-13.61-6.19-13.61-13.81V97.32c0-7.61 6.11-13.81 13.61-13.81h16.58c7.5 0 13.61 6.19 13.61 13.81v51.52c0 7.61-6.11 13.81-13.61 13.81Zm-16.59-77.34c-6.51 0-11.81 5.39-11.81 12.01v51.52c0 6.62 5.3 12.01 11.81 12.01h16.58c6.51 0 11.81-5.39 11.81-12.01V97.32c0-6.62-5.3-12.01-11.81-12.01h-16.58Z"/>
  <path fill="#9FB7FF" d="M197.31 107.78h-33.79c-1.44 0-2.6 1.77-2.6 3.95v14.09c0 2.18 1.17 3.95 2.6 3.95h33.79c1.44 0 2.6-1.77 2.6-3.95v-14.09c0-2.18-1.17-3.95-2.6-3.95Z"/>
  <path fill="#4E7FDB" d="M197.31 130.68h-33.79c-1.96 0-3.5-2.13-3.5-4.85v-14.09c0-2.72 1.54-4.85 3.5-4.85h33.79c1.96 0 3.5 2.13 3.5 4.85v14.09c0 2.72-1.54 4.85-3.5 4.85Zm-33.79-22c-.81 0-1.7 1.25-1.7 3.05v14.09c0 1.8.9 3.05 1.7 3.05h33.79c.81 0 1.7-1.25 1.7-3.05v-14.09c0-1.8-.9-3.05-1.7-3.05h-33.79Z"/>
  <path fill="#fff" d="M190.92 116.98h-24c-.66 0-1.2-.54-1.2-1.2 0-.66.54-1.2 1.2-1.2h24c.66 0 1.2.54 1.2 1.2 0 .66-.54 1.2-1.2 1.2Zm-9.52 6.21h-14c-.66 0-1.2-.54-1.2-1.2 0-.66.54-1.2 1.2-1.2h14c.66 0 1.2.54 1.2 1.2 0 .66-.54 1.2-1.2 1.2Z"/>
</svg>
