<svg xmlns="http://www.w3.org/2000/svg" viewBox="0 0 220 184">
  <path fill="#7E90B0" d="M210.05 126.92c-.51 0-.92-.41-.92-.92v-1.77h-1.76c-.51 0-.92-.41-.92-.92s.41-.92.92-.92h1.76v-1.77c0-.51.41-.92.92-.92s.92.41.92.92v1.77h1.76c.51 0 .92.41.92.92s-.41.92-.92.92h-1.76V126c0 .51-.41.92-.92.92Z"/>
  <path fill="#7E90B0" fill-opacity=".6" d="M154.59 157.62a3.171 3.171 0 0 0 0 6.34 3.171 3.171 0 0 0 0-6.34Zm0 5.34c-1.2 0-2.17-.97-2.17-2.17s.97-2.17 2.17-2.17 2.17.97 2.17 2.17-.97 2.17-2.17 2.17Z"/>
  <path fill="#7E90B0" fill-opacity=".6" d="M162.38 164.31c.34-.58.26-1.32-.19-1.82l-1.24-1.4c0-.1.01-.2.01-.31 0-.11 0-.21-.01-.31l1.24-1.39c.46-.51.52-1.25.19-1.82l-.83-1.44c-.34-.57-.99-.89-1.67-.75l-1.84.38c-.17-.11-.34-.21-.51-.3l-.6-1.8a1.57 1.57 0 0 0-1.49-1.07h-1.67c-.68 0-1.27.44-1.49 1.06l-.6 1.8c-.18.09-.35.19-.51.3l-1.84-.38c-.67-.14-1.33.18-1.67.75l-.83 1.45c-.34.58-.26 1.32.19 1.82l1.24 1.39c0 .1-.01.2-.01.31 0 .11 0 .21.01.31l-1.24 1.4c-.46.51-.51 1.24-.19 1.82l.83 1.44c.34.57.99.89 1.67.75l1.84-.38c.17.11.34.21.51.3l.6 1.8c.22.64.81 1.07 1.49 1.07h1.67c.68 0 1.27-.44 1.49-1.06l.6-1.8c.18-.09.35-.19.51-.3l1.84.38c.67.14 1.33-.18 1.67-.75l.83-1.44v-.01Zm-2.31 1.22-2.03-.42c-.14-.03-.28 0-.39.08-.24.17-.49.32-.76.44-.12.06-.22.16-.26.3l-.66 1.97a.58.58 0 0 1-.54.39h-1.67c-.25 0-.46-.15-.54-.39l-.66-1.97a.53.53 0 0 0-.24-.29c-.28-.15-.55-.3-.79-.46a.563.563 0 0 0-.38-.08l-2.03.42a.57.57 0 0 1-.61-.28l-.83-1.43a.57.57 0 0 1 .06-.65l1.38-1.55c.09-.1.13-.23.12-.36-.01-.16-.02-.31-.02-.46 0-.15 0-.29.02-.46 0-.13-.04-.27-.12-.37l-1.38-1.55a.562.562 0 0 1-.07-.65l.83-1.44c.13-.22.38-.33.61-.28l2.03.42c.14.03.28 0 .39-.08.24-.17.49-.32.76-.44.12-.06.22-.17.26-.3l.66-1.97c.08-.23.3-.39.54-.39h1.67c.25 0 .46.15.54.39l.66 1.97c.04.12.13.22.24.29.28.15.55.29.79.46.11.08.25.1.38.08l2.03-.42c.24-.05.48.06.61.28l.83 1.43c.12.22.09.48-.06.65l-1.38 1.55c-.09.1-.14.23-.13.37.01.16.02.32.02.46 0 .15 0 .3-.02.46 0 .13.04.27.13.36l1.38 1.55c.16.18.19.45.07.65l-.83 1.44c-.13.22-.38.33-.61.28Z"/>
  <path fill="#7E90B0" d="M16.17 79.66c-.51 0-.92-.41-.92-.92v-3.17c0-.51.41-.92.92-.92s.92.41.92.92v3.17c0 .51-.41.92-.92.92Zm0 7.39c-.51 0-.92-.41-.92-.92v-3.17c0-.51.41-.92.92-.92s.92.41.92.92v3.17c0 .51-.41.92-.92.92Zm-2.1-5.28h-3.15c-.51 0-.92-.41-.92-.92s.41-.92.92-.92h3.16c.51 0 .92.41.92.92s-.41.92-.92.92h-.01Zm7.37 0h-3.16c-.51 0-.92-.41-.92-.92s.41-.92.92-.92h3.16c.51 0 .92.41.92.92s-.41.92-.92.92Z"/>
  <path fill="#E56470" d="M199.35 32.91a4.28 4.28 0 0 1-4.27-4.27 4.28 4.28 0 0 1 4.27-4.27 4.28 4.28 0 0 1 4.27 4.27 4.28 4.28 0 0 1-4.27 4.27Zm0-6.71c-1.35 0-2.44 1.09-2.44 2.44 0 1.35 1.09 2.44 2.44 2.44 1.35 0 2.44-1.09 2.44-2.44 0-1.35-1.09-2.44-2.44-2.44ZM35.88 163.67a2.88 2.88 0 1 1 .001-5.761 2.88 2.88 0 0 1-.001 5.761Zm0-3.93a1.05 1.05 0 1 0 0 2.1 1.05 1.05 0 0 0 0-2.1Z"/>
  <path fill="#75A4FE" d="M148.39 130.81a.897.897 0 0 1-.09-1.79c14.14-1.57 24.8-13.51 24.8-27.78 0-15.19-12.15-27.59-27.23-27.94a35.97 35.97 0 0 1-8.02 18.9.903.903 0 0 1-1.39-1.15 34.153 34.153 0 0 0 7.7-18.73v-.02c.09-1.03.14-2.08.14-3.11 0-18.95-15.39-34.36-34.3-34.36-17.3 0-32.06 13.23-34.06 30.32 7.93-.49 15.53 1.8 21.81 6.53.4.3.48.86.18 1.26s-.86.48-1.26.18c-5.42-4.08-11.87-6.23-18.66-6.23-.98 0-1.98.05-2.97.14h-.03c-16.02 1.54-28.1 14.87-28.1 31.02 0 14.76 10.46 27.6 24.88 30.54a.898.898 0 1 1-.36 1.76c-15.25-3.1-26.32-16.69-26.32-32.3 0-16.84 12.42-30.78 29.01-32.73 1.94-18.16 17.56-32.29 35.89-32.29 19.91 0 36.1 16.22 36.1 36.17 0 .77-.03 1.55-.07 2.32 16 .44 28.87 13.61 28.87 29.74 0 15.19-11.35 27.9-26.4 29.57h-.1l-.02-.02Z"/>
  <path fill="#4E7FDB" d="M109.49 155.81c-14.56 0-26.4-11.84-26.4-26.4 0-14.56 11.84-26.4 26.4-26.4 14.56 0 26.4 11.84 26.4 26.4 0 14.56-11.84 26.4-26.4 26.4Zm0-51c-13.56 0-24.6 11.04-24.6 24.6 0 13.56 11.04 24.6 24.6 24.6 13.56 0 24.6-11.04 24.6-24.6 0-13.56-11.04-24.6-24.6-24.6Zm-10.06 39.1c-.19 0-.39-.06-.55-.19a17.795 17.795 0 0 1-3.72-3.93.899.899 0 1 1 1.48-1.02c.93 1.35 2.06 2.54 3.35 3.54.39.3.46.87.16 1.26-.18.23-.44.35-.71.35l-.01-.01Zm10.06-5.1c-5.18 0-9.4-4.22-9.4-9.4 0-5.18 4.22-9.4 9.4-9.4 5.18 0 9.4 4.22 9.4 9.4 0 5.18-4.22 9.4-9.4 9.4Zm0-17c-4.19 0-7.6 3.41-7.6 7.6 0 4.19 3.41 7.6 7.6 7.6 4.19 0 7.6-3.41 7.6-7.6 0-4.19-3.41-7.6-7.6-7.6Zm13.6-1.21c-.29 0-.57-.14-.75-.4-.95-1.41-2.11-2.65-3.45-3.68a.903.903 0 0 1-.16-1.26c.3-.39.87-.46 1.26-.16 1.49 1.15 2.78 2.53 3.84 4.1a.9.9 0 0 1-.24 1.25c-.15.1-.33.16-.5.16v-.01Z"/>
  <path fill="#7E90B0" d="M161.99 79.91c14.91 0 27-12.09 27-27s-12.09-27-27-27-27 12.09-27 27 12.09 27 27 27Z"/>
  <path fill="#fff" d="M167.59 66.13h-11.2c-2.43 0-3.65 0-4.77-.57-.99-.5-1.78-1.29-2.28-2.28-.57-1.12-.57-2.34-.57-4.77v-1.6c0-.67.55-1.22 1.22-1.22.67 0 1.22.55 1.22 1.22v1.6c0 1.98 0 3.07.3 3.66.27.53.69.95 1.21 1.22.59.3 1.68.3 3.66.3h11.2c1.98 0 3.07 0 3.66-.3.53-.27.95-.69 1.21-1.21.3-.59.3-1.68.3-3.66v-1.6c0-.67.55-1.22 1.22-1.22.67 0 1.22.55 1.22 1.22v1.6c0 2.43 0 3.65-.57 4.77-.5.99-1.29 1.78-2.28 2.28-1.12.57-2.34.57-4.77.57l.02-.01Zm-5.6-8c-.67 0-1.22-.55-1.22-1.22V43.86l-4.58 4.58c-.48.48-1.25.48-1.72 0s-.48-1.25 0-1.72l6.67-6.67.01-.01a1.195 1.195 0 0 1 .84-.34h.01a1.18 1.18 0 0 1 .84.34l.01.01 6.67 6.67c.48.48.48 1.25 0 1.72s-1.25.48-1.72 0l-4.58-4.58v13.05c0 .67-.55 1.22-1.22 1.22h-.01Z"/>
  <path fill="#5BC1A5" d="M42.72 29.55c-.38 0-.72-.23-.85-.59l-1.29-3.36c-.18-.46-.27-.71-.37-.85-.09-.12-.19-.23-.31-.31-.13-.09-.35-.18-.84-.37l-3.36-1.29a.93.93 0 0 1-.59-.85c0-.37.23-.72.59-.85l3.35-1.29c.49-.19.71-.28.85-.37.12-.08.22-.19.31-.31.1-.13.19-.38.37-.84l1.29-3.37a.93.93 0 0 1 .85-.59c.37 0 .72.23.85.59l1.29 3.36c.19.49.28.72.37.85.08.12.19.22.31.31.13.09.35.18.84.37l3.35 1.29c.35.14.59.48.59.85s-.23.72-.59.85l-3.35 1.29c-.49.19-.71.28-.85.37-.12.08-.22.19-.31.31-.09.13-.18.36-.37.85l-1.29 3.36a.93.93 0 0 1-.85.59h.01Zm-4.15-7.62 1.14.44c.58.22.92.35 1.25.59.29.21.54.46.74.74.23.32.35.65.58 1.25l.44 1.14.44-1.14c.22-.58.36-.93.59-1.25.2-.29.45-.54.74-.74.33-.23.66-.36 1.25-.59l1.14-.44-1.14-.44c-.59-.23-.92-.36-1.25-.59-.29-.21-.54-.46-.74-.74-.23-.33-.36-.66-.59-1.25l-.44-1.14-.44 1.14c-.23.6-.36.93-.58 1.25-.2.29-.45.54-.74.74-.33.23-.68.37-1.25.59l-1.14.44Zm-3.72-4.37c-.51 0-.92-.41-.92-.92v-.95h-.95c-.51 0-.92-.41-.92-.92s.41-.92.92-.92h.95v-.95c0-.51.41-.92.92-.92s.92.41.92.92v.95h.94c.51 0 .92.41.92.92s-.41.92-.92.92h-.94v.95c0 .51-.41.92-.92.92Z"/>
</svg>
